<?xml version="1.0" encoding="utf-8" standalone="no"?>
<!DOCTYPE svg PUBLIC "-//W3C//DTD SVG 1.1//EN"
  "http://www.w3.org/Graphics/SVG/1.1/DTD/svg11.dtd">
<svg xmlns:xlink="http://www.w3.org/1999/xlink" width="460.8pt" height="345.6pt" viewBox="0 0 460.8 345.6" xmlns="http://www.w3.org/2000/svg" version="1.1">
 <metadata>
  <rdf:RDF xmlns:dc="http://purl.org/dc/elements/1.1/" xmlns:cc="http://creativecommons.org/ns#" xmlns:rdf="http://www.w3.org/1999/02/22-rdf-syntax-ns#">
   <cc:Work>
    <dc:type rdf:resource="http://purl.org/dc/dcmitype/StillImage"/>
    <dc:date>2024-12-01T01:36:50.758515</dc:date>
    <dc:format>image/svg+xml</dc:format>
    <dc:creator>
     <cc:Agent>
      <dc:title>Matplotlib v3.9.3, https://matplotlib.org/</dc:title>
     </cc:Agent>
    </dc:creator>
   </cc:Work>
  </rdf:RDF>
 </metadata>
 <defs>
  <style type="text/css">*{stroke-linejoin: round; stroke-linecap: butt}</style>
 </defs>
 <g id="figure_1">
  <g id="patch_1">
   <path d="M 0 345.6 
L 460.8 345.6 
L 460.8 0 
L 0 0 
z
" style="fill: #ffffff"/>
  </g>
  <g id="axes_1">
   <g id="patch_2">
    <path d="M 54.438 304.212 
L 450.432 304.212 
L 450.432 10.368 
L 54.438 10.368 
z
" style="fill: #e6e6e6"/>
   </g>
   <g id="matplotlib.axis_1">
    <g id="xtick_1">
     <g id="line2d_1">
      <path d="M 108.752967 304.212 
L 108.752967 10.368 
" clip-path="url(#pc0cd468760)" style="fill: none; stroke: #ffffff; stroke-width: 0.8; stroke-linecap: round"/>
     </g>
     <g id="text_1">
      <!-- 2020 -->
      <g style="fill: #262626" transform="translate(97.554967 319.198625) scale(0.088 -0.088)">
       <defs>
        <path id="DejaVuSans-32" d="M 1228 531 
L 3431 531 
L 3431 0 
L 469 0 
L 469 531 
Q 828 903 1448 1529 
Q 2069 2156 2228 2338 
Q 2531 2678 2651 2914 
Q 2772 3150 2772 3378 
Q 2772 3750 2511 3984 
Q 2250 4219 1831 4219 
Q 1534 4219 1204 4116 
Q 875 4013 500 3803 
L 500 4441 
Q 881 4594 1212 4672 
Q 1544 4750 1819 4750 
Q 2544 4750 2975 4387 
Q 3406 4025 3406 3419 
Q 3406 3131 3298 2873 
Q 3191 2616 2906 2266 
Q 2828 2175 2409 1742 
Q 1991 1309 1228 531 
z
" transform="scale(0.015625)"/>
        <path id="DejaVuSans-30" d="M 2034 4250 
Q 1547 4250 1301 3770 
Q 1056 3291 1056 2328 
Q 1056 1369 1301 889 
Q 1547 409 2034 409 
Q 2525 409 2770 889 
Q 3016 1369 3016 2328 
Q 3016 3291 2770 3770 
Q 2525 4250 2034 4250 
z
M 2034 4750 
Q 2819 4750 3233 4129 
Q 3647 3509 3647 2328 
Q 3647 1150 3233 529 
Q 2819 -91 2034 -91 
Q 1250 -91 836 529 
Q 422 1150 422 2328 
Q 422 3509 836 4129 
Q 1250 4750 2034 4750 
z
" transform="scale(0.015625)"/>
       </defs>
       <use xlink:href="#DejaVuSans-32"/>
       <use xlink:href="#DejaVuSans-30" x="63.623047"/>
       <use xlink:href="#DejaVuSans-32" x="127.246094"/>
       <use xlink:href="#DejaVuSans-30" x="190.869141"/>
      </g>
     </g>
    </g>
    <g id="xtick_2">
     <g id="line2d_2">
      <path d="M 180.988714 304.212 
L 180.988714 10.368 
" clip-path="url(#pc0cd468760)" style="fill: none; stroke: #ffffff; stroke-width: 0.8; stroke-linecap: round"/>
     </g>
     <g id="text_2">
      <!-- 2021 -->
      <g style="fill: #262626" transform="translate(169.790714 319.198625) scale(0.088 -0.088)">
       <defs>
        <path id="DejaVuSans-31" d="M 794 531 
L 1825 531 
L 1825 4091 
L 703 3866 
L 703 4441 
L 1819 4666 
L 2450 4666 
L 2450 531 
L 3481 531 
L 3481 0 
L 794 0 
L 794 531 
z
" transform="scale(0.015625)"/>
       </defs>
       <use xlink:href="#DejaVuSans-32"/>
       <use xlink:href="#DejaVuSans-30" x="63.623047"/>
       <use xlink:href="#DejaVuSans-32" x="127.246094"/>
       <use xlink:href="#DejaVuSans-31" x="190.869141"/>
      </g>
     </g>
    </g>
    <g id="xtick_3">
     <g id="line2d_3">
      <path d="M 253.027096 304.212 
L 253.027096 10.368 
" clip-path="url(#pc0cd468760)" style="fill: none; stroke: #ffffff; stroke-width: 0.8; stroke-linecap: round"/>
     </g>
     <g id="text_3">
      <!-- 2022 -->
      <g style="fill: #262626" transform="translate(241.829096 319.198625) scale(0.088 -0.088)">
       <use xlink:href="#DejaVuSans-32"/>
       <use xlink:href="#DejaVuSans-30" x="63.623047"/>
       <use xlink:href="#DejaVuSans-32" x="127.246094"/>
       <use xlink:href="#DejaVuSans-32" x="190.869141"/>
      </g>
     </g>
    </g>
    <g id="xtick_4">
     <g id="line2d_4">
      <path d="M 325.065478 304.212 
L 325.065478 10.368 
" clip-path="url(#pc0cd468760)" style="fill: none; stroke: #ffffff; stroke-width: 0.8; stroke-linecap: round"/>
     </g>
     <g id="text_4">
      <!-- 2023 -->
      <g style="fill: #262626" transform="translate(313.867478 319.198625) scale(0.088 -0.088)">
       <defs>
        <path id="DejaVuSans-33" d="M 2597 2516 
Q 3050 2419 3304 2112 
Q 3559 1806 3559 1356 
Q 3559 666 3084 287 
Q 2609 -91 1734 -91 
Q 1441 -91 1130 -33 
Q 819 25 488 141 
L 488 750 
Q 750 597 1062 519 
Q 1375 441 1716 441 
Q 2309 441 2620 675 
Q 2931 909 2931 1356 
Q 2931 1769 2642 2001 
Q 2353 2234 1838 2234 
L 1294 2234 
L 1294 2753 
L 1863 2753 
Q 2328 2753 2575 2939 
Q 2822 3125 2822 3475 
Q 2822 3834 2567 4026 
Q 2313 4219 1838 4219 
Q 1578 4219 1281 4162 
Q 984 4106 628 3988 
L 628 4550 
Q 988 4650 1302 4700 
Q 1616 4750 1894 4750 
Q 2613 4750 3031 4423 
Q 3450 4097 3450 3541 
Q 3450 3153 3228 2886 
Q 3006 2619 2597 2516 
z
" transform="scale(0.015625)"/>
       </defs>
       <use xlink:href="#DejaVuSans-32"/>
       <use xlink:href="#DejaVuSans-30" x="63.623047"/>
       <use xlink:href="#DejaVuSans-32" x="127.246094"/>
       <use xlink:href="#DejaVuSans-33" x="190.869141"/>
      </g>
     </g>
    </g>
    <g id="xtick_5">
     <g id="line2d_5">
      <path d="M 397.103861 304.212 
L 397.103861 10.368 
" clip-path="url(#pc0cd468760)" style="fill: none; stroke: #ffffff; stroke-width: 0.8; stroke-linecap: round"/>
     </g>
     <g id="text_5">
      <!-- 2024 -->
      <g style="fill: #262626" transform="translate(385.905861 319.198625) scale(0.088 -0.088)">
       <defs>
        <path id="DejaVuSans-34" d="M 2419 4116 
L 825 1625 
L 2419 1625 
L 2419 4116 
z
M 2253 4666 
L 3047 4666 
L 3047 1625 
L 3713 1625 
L 3713 1100 
L 3047 1100 
L 3047 0 
L 2419 0 
L 2419 1100 
L 313 1100 
L 313 1709 
L 2253 4666 
z
" transform="scale(0.015625)"/>
       </defs>
       <use xlink:href="#DejaVuSans-32"/>
       <use xlink:href="#DejaVuSans-30" x="63.623047"/>
       <use xlink:href="#DejaVuSans-32" x="127.246094"/>
       <use xlink:href="#DejaVuSans-34" x="190.869141"/>
      </g>
     </g>
    </g>
    <g id="text_6">
     <!-- date_mutation -->
     <g style="fill: #262626" transform="translate(217.476 332.32325) scale(0.096 -0.096)">
      <defs>
       <path id="DejaVuSans-64" d="M 2906 2969 
L 2906 4863 
L 3481 4863 
L 3481 0 
L 2906 0 
L 2906 525 
Q 2725 213 2448 61 
Q 2172 -91 1784 -91 
Q 1150 -91 751 415 
Q 353 922 353 1747 
Q 353 2572 751 3078 
Q 1150 3584 1784 3584 
Q 2172 3584 2448 3432 
Q 2725 3281 2906 2969 
z
M 947 1747 
Q 947 1113 1208 752 
Q 1469 391 1925 391 
Q 2381 391 2643 752 
Q 2906 1113 2906 1747 
Q 2906 2381 2643 2742 
Q 2381 3103 1925 3103 
Q 1469 3103 1208 2742 
Q 947 2381 947 1747 
z
" transform="scale(0.015625)"/>
       <path id="DejaVuSans-61" d="M 2194 1759 
Q 1497 1759 1228 1600 
Q 959 1441 959 1056 
Q 959 750 1161 570 
Q 1363 391 1709 391 
Q 2188 391 2477 730 
Q 2766 1069 2766 1631 
L 2766 1759 
L 2194 1759 
z
M 3341 1997 
L 3341 0 
L 2766 0 
L 2766 531 
Q 2569 213 2275 61 
Q 1981 -91 1556 -91 
Q 1019 -91 701 211 
Q 384 513 384 1019 
Q 384 1609 779 1909 
Q 1175 2209 1959 2209 
L 2766 2209 
L 2766 2266 
Q 2766 2663 2505 2880 
Q 2244 3097 1772 3097 
Q 1472 3097 1187 3025 
Q 903 2953 641 2809 
L 641 3341 
Q 956 3463 1253 3523 
Q 1550 3584 1831 3584 
Q 2591 3584 2966 3190 
Q 3341 2797 3341 1997 
z
" transform="scale(0.015625)"/>
       <path id="DejaVuSans-74" d="M 1172 4494 
L 1172 3500 
L 2356 3500 
L 2356 3053 
L 1172 3053 
L 1172 1153 
Q 1172 725 1289 603 
Q 1406 481 1766 481 
L 2356 481 
L 2356 0 
L 1766 0 
Q 1100 0 847 248 
Q 594 497 594 1153 
L 594 3053 
L 172 3053 
L 172 3500 
L 594 3500 
L 594 4494 
L 1172 4494 
z
" transform="scale(0.015625)"/>
       <path id="DejaVuSans-65" d="M 3597 1894 
L 3597 1613 
L 953 1613 
Q 991 1019 1311 708 
Q 1631 397 2203 397 
Q 2534 397 2845 478 
Q 3156 559 3463 722 
L 3463 178 
Q 3153 47 2828 -22 
Q 2503 -91 2169 -91 
Q 1331 -91 842 396 
Q 353 884 353 1716 
Q 353 2575 817 3079 
Q 1281 3584 2069 3584 
Q 2775 3584 3186 3129 
Q 3597 2675 3597 1894 
z
M 3022 2063 
Q 3016 2534 2758 2815 
Q 2500 3097 2075 3097 
Q 1594 3097 1305 2825 
Q 1016 2553 972 2059 
L 3022 2063 
z
" transform="scale(0.015625)"/>
       <path id="DejaVuSans-5f" d="M 3263 -1063 
L 3263 -1509 
L -63 -1509 
L -63 -1063 
L 3263 -1063 
z
" transform="scale(0.015625)"/>
       <path id="DejaVuSans-6d" d="M 3328 2828 
Q 3544 3216 3844 3400 
Q 4144 3584 4550 3584 
Q 5097 3584 5394 3201 
Q 5691 2819 5691 2113 
L 5691 0 
L 5113 0 
L 5113 2094 
Q 5113 2597 4934 2840 
Q 4756 3084 4391 3084 
Q 3944 3084 3684 2787 
Q 3425 2491 3425 1978 
L 3425 0 
L 2847 0 
L 2847 2094 
Q 2847 2600 2669 2842 
Q 2491 3084 2119 3084 
Q 1678 3084 1418 2786 
Q 1159 2488 1159 1978 
L 1159 0 
L 581 0 
L 581 3500 
L 1159 3500 
L 1159 2956 
Q 1356 3278 1631 3431 
Q 1906 3584 2284 3584 
Q 2666 3584 2933 3390 
Q 3200 3197 3328 2828 
z
" transform="scale(0.015625)"/>
       <path id="DejaVuSans-75" d="M 544 1381 
L 544 3500 
L 1119 3500 
L 1119 1403 
Q 1119 906 1312 657 
Q 1506 409 1894 409 
Q 2359 409 2629 706 
Q 2900 1003 2900 1516 
L 2900 3500 
L 3475 3500 
L 3475 0 
L 2900 0 
L 2900 538 
Q 2691 219 2414 64 
Q 2138 -91 1772 -91 
Q 1169 -91 856 284 
Q 544 659 544 1381 
z
M 1991 3584 
L 1991 3584 
z
" transform="scale(0.015625)"/>
       <path id="DejaVuSans-69" d="M 603 3500 
L 1178 3500 
L 1178 0 
L 603 0 
L 603 3500 
z
M 603 4863 
L 1178 4863 
L 1178 4134 
L 603 4134 
L 603 4863 
z
" transform="scale(0.015625)"/>
       <path id="DejaVuSans-6f" d="M 1959 3097 
Q 1497 3097 1228 2736 
Q 959 2375 959 1747 
Q 959 1119 1226 758 
Q 1494 397 1959 397 
Q 2419 397 2687 759 
Q 2956 1122 2956 1747 
Q 2956 2369 2687 2733 
Q 2419 3097 1959 3097 
z
M 1959 3584 
Q 2709 3584 3137 3096 
Q 3566 2609 3566 1747 
Q 3566 888 3137 398 
Q 2709 -91 1959 -91 
Q 1206 -91 779 398 
Q 353 888 353 1747 
Q 353 2609 779 3096 
Q 1206 3584 1959 3584 
z
" transform="scale(0.015625)"/>
       <path id="DejaVuSans-6e" d="M 3513 2113 
L 3513 0 
L 2938 0 
L 2938 2094 
Q 2938 2591 2744 2837 
Q 2550 3084 2163 3084 
Q 1697 3084 1428 2787 
Q 1159 2491 1159 1978 
L 1159 0 
L 581 0 
L 581 3500 
L 1159 3500 
L 1159 2956 
Q 1366 3272 1645 3428 
Q 1925 3584 2291 3584 
Q 2894 3584 3203 3211 
Q 3513 2838 3513 2113 
z
" transform="scale(0.015625)"/>
      </defs>
      <use xlink:href="#DejaVuSans-64"/>
      <use xlink:href="#DejaVuSans-61" x="63.476562"/>
      <use xlink:href="#DejaVuSans-74" x="124.755859"/>
      <use xlink:href="#DejaVuSans-65" x="163.964844"/>
      <use xlink:href="#DejaVuSans-5f" x="225.488281"/>
      <use xlink:href="#DejaVuSans-6d" x="275.488281"/>
      <use xlink:href="#DejaVuSans-75" x="372.900391"/>
      <use xlink:href="#DejaVuSans-74" x="436.279297"/>
      <use xlink:href="#DejaVuSans-61" x="475.488281"/>
      <use xlink:href="#DejaVuSans-74" x="536.767578"/>
      <use xlink:href="#DejaVuSans-69" x="575.976562"/>
      <use xlink:href="#DejaVuSans-6f" x="603.759766"/>
      <use xlink:href="#DejaVuSans-6e" x="664.941406"/>
     </g>
    </g>
   </g>
   <g id="matplotlib.axis_2">
    <g id="ytick_1">
     <g id="line2d_6">
      <path d="M 54.438 300.13808 
L 450.432 300.13808 
" clip-path="url(#pc0cd468760)" style="fill: none; stroke: #ffffff; stroke-width: 0.8; stroke-linecap: round"/>
     </g>
     <g id="text_7">
      <!-- 1250 -->
      <g style="fill: #262626" transform="translate(23.742 303.481393) scale(0.088 -0.088)">
       <defs>
        <path id="DejaVuSans-35" d="M 691 4666 
L 3169 4666 
L 3169 4134 
L 1269 4134 
L 1269 2991 
Q 1406 3038 1543 3061 
Q 1681 3084 1819 3084 
Q 2600 3084 3056 2656 
Q 3513 2228 3513 1497 
Q 3513 744 3044 326 
Q 2575 -91 1722 -91 
Q 1428 -91 1123 -41 
Q 819 9 494 109 
L 494 744 
Q 775 591 1075 516 
Q 1375 441 1709 441 
Q 2250 441 2565 725 
Q 2881 1009 2881 1497 
Q 2881 1984 2565 2268 
Q 2250 2553 1709 2553 
Q 1456 2553 1204 2497 
Q 953 2441 691 2322 
L 691 4666 
z
" transform="scale(0.015625)"/>
       </defs>
       <use xlink:href="#DejaVuSans-31"/>
       <use xlink:href="#DejaVuSans-32" x="63.623047"/>
       <use xlink:href="#DejaVuSans-35" x="127.246094"/>
       <use xlink:href="#DejaVuSans-30" x="190.869141"/>
      </g>
     </g>
    </g>
    <g id="ytick_2">
     <g id="line2d_7">
      <path d="M 54.438 261.130715 
L 450.432 261.130715 
" clip-path="url(#pc0cd468760)" style="fill: none; stroke: #ffffff; stroke-width: 0.8; stroke-linecap: round"/>
     </g>
     <g id="text_8">
      <!-- 1500 -->
      <g style="fill: #262626" transform="translate(23.742 264.474028) scale(0.088 -0.088)">
       <use xlink:href="#DejaVuSans-31"/>
       <use xlink:href="#DejaVuSans-35" x="63.623047"/>
       <use xlink:href="#DejaVuSans-30" x="127.246094"/>
       <use xlink:href="#DejaVuSans-30" x="190.869141"/>
      </g>
     </g>
    </g>
    <g id="ytick_3">
     <g id="line2d_8">
      <path d="M 54.438 222.123351 
L 450.432 222.123351 
" clip-path="url(#pc0cd468760)" style="fill: none; stroke: #ffffff; stroke-width: 0.8; stroke-linecap: round"/>
     </g>
     <g id="text_9">
      <!-- 1750 -->
      <g style="fill: #262626" transform="translate(23.742 225.466663) scale(0.088 -0.088)">
       <defs>
        <path id="DejaVuSans-37" d="M 525 4666 
L 3525 4666 
L 3525 4397 
L 1831 0 
L 1172 0 
L 2766 4134 
L 525 4134 
L 525 4666 
z
" transform="scale(0.015625)"/>
       </defs>
       <use xlink:href="#DejaVuSans-31"/>
       <use xlink:href="#DejaVuSans-37" x="63.623047"/>
       <use xlink:href="#DejaVuSans-35" x="127.246094"/>
       <use xlink:href="#DejaVuSans-30" x="190.869141"/>
      </g>
     </g>
    </g>
    <g id="ytick_4">
     <g id="line2d_9">
      <path d="M 54.438 183.115986 
L 450.432 183.115986 
" clip-path="url(#pc0cd468760)" style="fill: none; stroke: #ffffff; stroke-width: 0.8; stroke-linecap: round"/>
     </g>
     <g id="text_10">
      <!-- 2000 -->
      <g style="fill: #262626" transform="translate(23.742 186.459299) scale(0.088 -0.088)">
       <use xlink:href="#DejaVuSans-32"/>
       <use xlink:href="#DejaVuSans-30" x="63.623047"/>
       <use xlink:href="#DejaVuSans-30" x="127.246094"/>
       <use xlink:href="#DejaVuSans-30" x="190.869141"/>
      </g>
     </g>
    </g>
    <g id="ytick_5">
     <g id="line2d_10">
      <path d="M 54.438 144.108622 
L 450.432 144.108622 
" clip-path="url(#pc0cd468760)" style="fill: none; stroke: #ffffff; stroke-width: 0.8; stroke-linecap: round"/>
     </g>
     <g id="text_11">
      <!-- 2250 -->
      <g style="fill: #262626" transform="translate(23.742 147.451934) scale(0.088 -0.088)">
       <use xlink:href="#DejaVuSans-32"/>
       <use xlink:href="#DejaVuSans-32" x="63.623047"/>
       <use xlink:href="#DejaVuSans-35" x="127.246094"/>
       <use xlink:href="#DejaVuSans-30" x="190.869141"/>
      </g>
     </g>
    </g>
    <g id="ytick_6">
     <g id="line2d_11">
      <path d="M 54.438 105.101257 
L 450.432 105.101257 
" clip-path="url(#pc0cd468760)" style="fill: none; stroke: #ffffff; stroke-width: 0.8; stroke-linecap: round"/>
     </g>
     <g id="text_12">
      <!-- 2500 -->
      <g style="fill: #262626" transform="translate(23.742 108.44457) scale(0.088 -0.088)">
       <use xlink:href="#DejaVuSans-32"/>
       <use xlink:href="#DejaVuSans-35" x="63.623047"/>
       <use xlink:href="#DejaVuSans-30" x="127.246094"/>
       <use xlink:href="#DejaVuSans-30" x="190.869141"/>
      </g>
     </g>
    </g>
    <g id="ytick_7">
     <g id="line2d_12">
      <path d="M 54.438 66.093893 
L 450.432 66.093893 
" clip-path="url(#pc0cd468760)" style="fill: none; stroke: #ffffff; stroke-width: 0.8; stroke-linecap: round"/>
     </g>
     <g id="text_13">
      <!-- 2750 -->
      <g style="fill: #262626" transform="translate(23.742 69.437205) scale(0.088 -0.088)">
       <use xlink:href="#DejaVuSans-32"/>
       <use xlink:href="#DejaVuSans-37" x="63.623047"/>
       <use xlink:href="#DejaVuSans-35" x="127.246094"/>
       <use xlink:href="#DejaVuSans-30" x="190.869141"/>
      </g>
     </g>
    </g>
    <g id="ytick_8">
     <g id="line2d_13">
      <path d="M 54.438 27.086528 
L 450.432 27.086528 
" clip-path="url(#pc0cd468760)" style="fill: none; stroke: #ffffff; stroke-width: 0.8; stroke-linecap: round"/>
     </g>
     <g id="text_14">
      <!-- 3000 -->
      <g style="fill: #262626" transform="translate(23.742 30.42984) scale(0.088 -0.088)">
       <use xlink:href="#DejaVuSans-33"/>
       <use xlink:href="#DejaVuSans-30" x="63.623047"/>
       <use xlink:href="#DejaVuSans-30" x="127.246094"/>
       <use xlink:href="#DejaVuSans-30" x="190.869141"/>
      </g>
     </g>
    </g>
    <g id="text_15">
     <!-- prixm2_smooth -->
     <g style="fill: #262626" transform="translate(17.4785 194.58825) rotate(-90) scale(0.096 -0.096)">
      <defs>
       <path id="DejaVuSans-70" d="M 1159 525 
L 1159 -1331 
L 581 -1331 
L 581 3500 
L 1159 3500 
L 1159 2969 
Q 1341 3281 1617 3432 
Q 1894 3584 2278 3584 
Q 2916 3584 3314 3078 
Q 3713 2572 3713 1747 
Q 3713 922 3314 415 
Q 2916 -91 2278 -91 
Q 1894 -91 1617 61 
Q 1341 213 1159 525 
z
M 3116 1747 
Q 3116 2381 2855 2742 
Q 2594 3103 2138 3103 
Q 1681 3103 1420 2742 
Q 1159 2381 1159 1747 
Q 1159 1113 1420 752 
Q 1681 391 2138 391 
Q 2594 391 2855 752 
Q 3116 1113 3116 1747 
z
" transform="scale(0.015625)"/>
       <path id="DejaVuSans-72" d="M 2631 2963 
Q 2534 3019 2420 3045 
Q 2306 3072 2169 3072 
Q 1681 3072 1420 2755 
Q 1159 2438 1159 1844 
L 1159 0 
L 581 0 
L 581 3500 
L 1159 3500 
L 1159 2956 
Q 1341 3275 1631 3429 
Q 1922 3584 2338 3584 
Q 2397 3584 2469 3576 
Q 2541 3569 2628 3553 
L 2631 2963 
z
" transform="scale(0.015625)"/>
       <path id="DejaVuSans-78" d="M 3513 3500 
L 2247 1797 
L 3578 0 
L 2900 0 
L 1881 1375 
L 863 0 
L 184 0 
L 1544 1831 
L 300 3500 
L 978 3500 
L 1906 2253 
L 2834 3500 
L 3513 3500 
z
" transform="scale(0.015625)"/>
       <path id="DejaVuSans-73" d="M 2834 3397 
L 2834 2853 
Q 2591 2978 2328 3040 
Q 2066 3103 1784 3103 
Q 1356 3103 1142 2972 
Q 928 2841 928 2578 
Q 928 2378 1081 2264 
Q 1234 2150 1697 2047 
L 1894 2003 
Q 2506 1872 2764 1633 
Q 3022 1394 3022 966 
Q 3022 478 2636 193 
Q 2250 -91 1575 -91 
Q 1294 -91 989 -36 
Q 684 19 347 128 
L 347 722 
Q 666 556 975 473 
Q 1284 391 1588 391 
Q 1994 391 2212 530 
Q 2431 669 2431 922 
Q 2431 1156 2273 1281 
Q 2116 1406 1581 1522 
L 1381 1569 
Q 847 1681 609 1914 
Q 372 2147 372 2553 
Q 372 3047 722 3315 
Q 1072 3584 1716 3584 
Q 2034 3584 2315 3537 
Q 2597 3491 2834 3397 
z
" transform="scale(0.015625)"/>
       <path id="DejaVuSans-68" d="M 3513 2113 
L 3513 0 
L 2938 0 
L 2938 2094 
Q 2938 2591 2744 2837 
Q 2550 3084 2163 3084 
Q 1697 3084 1428 2787 
Q 1159 2491 1159 1978 
L 1159 0 
L 581 0 
L 581 4863 
L 1159 4863 
L 1159 2956 
Q 1366 3272 1645 3428 
Q 1925 3584 2291 3584 
Q 2894 3584 3203 3211 
Q 3513 2838 3513 2113 
z
" transform="scale(0.015625)"/>
      </defs>
      <use xlink:href="#DejaVuSans-70"/>
      <use xlink:href="#DejaVuSans-72" x="63.476562"/>
      <use xlink:href="#DejaVuSans-69" x="104.589844"/>
      <use xlink:href="#DejaVuSans-78" x="132.373047"/>
      <use xlink:href="#DejaVuSans-6d" x="191.552734"/>
      <use xlink:href="#DejaVuSans-32" x="288.964844"/>
      <use xlink:href="#DejaVuSans-5f" x="352.587891"/>
      <use xlink:href="#DejaVuSans-73" x="402.587891"/>
      <use xlink:href="#DejaVuSans-6d" x="454.6875"/>
      <use xlink:href="#DejaVuSans-6f" x="552.099609"/>
      <use xlink:href="#DejaVuSans-6f" x="613.28125"/>
      <use xlink:href="#DejaVuSans-74" x="674.462891"/>
      <use xlink:href="#DejaVuSans-68" x="713.671875"/>
     </g>
    </g>
   </g>
   <g id="PolyCollection_1"/>
   <g id="PolyCollection_2"/>
   <g id="line2d_14">
    <path d="M 72.437727 278.174096 
L 74.411382 282.355817 
L 75.003478 283.127773 
L 75.595574 283.602321 
L 76.18767 283.822698 
L 76.779767 283.837565 
L 77.371863 283.673128 
L 77.963959 283.325832 
L 78.753421 282.547569 
L 79.542883 281.421674 
L 81.319172 278.709138 
L 81.911268 278.269079 
L 82.305999 278.21415 
L 82.70073 278.368472 
L 83.095461 278.73144 
L 83.687557 279.63068 
L 84.477019 281.320885 
L 86.648038 286.285259 
L 87.4375 287.47572 
L 88.029596 288.053628 
L 88.621693 288.350764 
L 89.213789 288.353027 
L 89.805885 288.034695 
L 90.397981 287.362248 
L 90.990078 286.307151 
L 91.779539 284.300402 
L 92.766367 281.004414 
L 94.542656 274.877815 
L 95.134752 273.478304 
L 95.726848 272.624059 
L 96.121579 272.37148 
L 96.51631 272.356399 
L 96.911041 272.546479 
L 97.503137 273.110627 
L 98.68733 274.423225 
L 99.08206 274.625072 
L 99.476791 274.567438 
L 99.871522 274.17109 
L 100.266253 273.371238 
L 100.660984 272.126795 
L 101.25308 269.418912 
L 102.042542 264.51833 
L 103.4241 255.391598 
L 104.016196 252.85745 
L 104.410927 252.048109 
L 104.608292 251.948248 
L 104.805658 252.061389 
L 105.200389 252.931902 
L 105.59512 254.628591 
L 106.187216 258.496961 
L 107.371408 268.698172 
L 108.16087 274.811154 
L 108.752967 277.832087 
L 109.147697 278.860512 
L 109.345063 279.061787 
L 109.542428 279.05719 
L 109.739794 278.854245 
L 110.134525 277.9035 
L 110.726621 275.391457 
L 112.700275 265.303932 
L 113.292371 263.73531 
L 113.687102 263.220393 
L 114.081833 263.062156 
L 114.476564 263.162844 
L 115.858122 263.853549 
L 116.252853 263.703243 
L 116.647584 263.257994 
L 117.042315 262.483356 
L 117.634411 260.695486 
L 118.423873 257.299526 
L 121.186989 244.076404 
L 121.779085 242.627915 
L 122.173816 242.075163 
L 122.568547 241.806048 
L 123.160643 241.732081 
L 123.752739 241.613419 
L 124.14747 241.184156 
L 124.542201 240.209283 
L 124.936932 238.457372 
L 125.331663 235.722941 
L 125.923759 229.480255 
L 126.515855 220.629656 
L 127.700048 197.974687 
L 128.48951 184.025919 
L 129.081606 177.242152 
L 129.476337 175.297034 
L 129.673702 175.195819 
L 129.871068 175.691933 
L 130.265798 178.450445 
L 130.660529 183.400697 
L 131.252626 194.147416 
L 133.818376 248.022346 
L 134.410472 255.249298 
L 135.002569 259.890202 
L 135.3973 261.7636 
L 135.792031 262.856829 
L 136.186761 263.339763 
L 136.581492 263.362545 
L 136.976223 263.043012 
L 137.568319 262.085922 
L 138.160416 260.646585 
L 138.752512 258.708126 
L 139.541974 255.222928 
L 140.331435 250.625193 
L 141.515628 242.000989 
L 143.291917 228.761652 
L 143.884013 225.72916 
L 144.278744 224.488351 
L 144.673475 224.026109 
L 144.87084 224.121038 
L 145.068206 224.446927 
L 145.462937 225.814127 
L 145.857667 228.135985 
L 146.449764 233.264926 
L 147.436591 244.805598 
L 148.620783 258.538106 
L 149.21288 263.223298 
L 149.607611 265.132901 
L 150.002342 266.022515 
L 150.199707 266.100573 
L 150.397072 265.953259 
L 150.791803 265.067074 
L 151.3839 262.659388 
L 152.962823 255.310242 
L 153.554919 253.65116 
L 154.344381 252.279209 
L 154.936477 251.13268 
L 155.331208 249.886689 
L 155.725939 247.993927 
L 156.318035 243.571344 
L 156.910132 237.023831 
L 157.699593 225.38308 
L 159.475882 197.609046 
L 160.067978 192.203949 
L 160.462709 190.533735 
L 160.660075 190.326206 
L 160.85744 190.539949 
L 161.054806 191.166963 
L 161.449536 193.589391 
L 162.041633 199.691491 
L 163.02846 213.517939 
L 164.015287 226.488911 
L 164.607383 231.657908 
L 165.002114 233.598206 
L 165.19948 234.091224 
L 165.396845 234.269618 
L 165.594211 234.143715 
L 165.791576 233.72974 
L 166.186307 232.12975 
L 166.778403 228.267155 
L 168.159961 217.976445 
L 168.554692 216.125249 
L 168.949423 215.180686 
L 169.146788 215.080889 
L 169.344154 215.234165 
L 169.738885 216.27715 
L 170.133615 218.208569 
L 170.725712 222.373296 
L 172.699366 237.923642 
L 173.291462 240.743107 
L 173.686193 241.883197 
L 174.080924 242.424636 
L 174.278289 242.47465 
L 174.475655 242.380469 
L 174.870386 241.768243 
L 175.265117 240.602163 
L 175.857213 237.828876 
L 176.449309 233.829565 
L 177.238771 226.639766 
L 178.225598 215.222104 
L 179.804522 196.836354 
L 180.396618 192.56446 
L 180.791349 191.191361 
L 180.988714 191.012269 
L 181.18608 191.188087 
L 181.383445 191.723544 
L 181.778176 193.859565 
L 182.172907 197.327983 
L 182.765003 204.596549 
L 184.146561 226.028264 
L 185.133388 239.558057 
L 185.725484 245.445458 
L 186.317581 249.414427 
L 186.712312 251.047533 
L 187.107042 251.95962 
L 187.501773 252.244765 
L 187.699139 252.181487 
L 188.09387 251.695016 
L 188.4886 250.783191 
L 189.080697 248.71206 
L 189.672793 245.8581 
L 190.462255 240.907289 
L 191.646447 231.653656 
L 193.028005 221.090147 
L 193.817467 216.912853 
L 194.409563 215.013516 
L 195.00166 214.014166 
L 195.791121 213.36699 
L 196.185852 212.977273 
L 196.580583 212.338194 
L 196.975314 211.337277 
L 197.56741 209.046678 
L 198.356872 204.698883 
L 199.935795 195.319745 
L 200.527892 192.967875 
L 201.119988 191.583299 
L 201.514719 191.146612 
L 201.90945 191.009979 
L 202.501546 191.152916 
L 203.685739 191.608262 
L 204.277835 191.595866 
L 205.856758 191.30579 
L 206.251489 191.470473 
L 206.64622 191.842403 
L 207.040951 192.461308 
L 207.633047 193.903442 
L 208.225144 195.973249 
L 209.014605 199.594483 
L 211.580356 212.680587 
L 212.172452 214.313507 
L 212.567183 214.820526 
L 212.764548 214.884214 
L 212.961914 214.818647 
L 213.356645 214.303787 
L 213.751376 213.305669 
L 214.343472 211.052611 
L 216.514492 201.376716 
L 216.909222 200.556405 
L 217.303953 200.274928 
L 217.501319 200.346942 
L 217.89605 200.914739 
L 218.290781 202.013854 
L 218.882877 204.481283 
L 221.053897 214.915131 
L 221.448627 215.852158 
L 221.843358 216.277276 
L 222.040724 216.293408 
L 222.435455 215.944056 
L 222.830185 215.124162 
L 223.422282 213.166187 
L 224.409109 208.722768 
L 225.790667 202.436605 
L 226.580129 199.80468 
L 227.172225 198.499068 
L 227.566956 197.968711 
L 227.961687 197.714084 
L 228.356417 197.734762 
L 228.751148 198.028054 
L 229.145879 198.588428 
L 229.737975 199.905798 
L 230.527437 202.434823 
L 232.895822 211.021695 
L 233.290553 211.708157 
L 233.685284 211.961718 
L 233.88265 211.911302 
L 234.27738 211.441779 
L 234.672111 210.483633 
L 235.264208 208.203395 
L 236.053669 203.956804 
L 238.027324 192.65402 
L 238.61942 190.604404 
L 239.014151 189.818564 
L 239.408882 189.518766 
L 239.606247 189.547695 
L 240.000978 189.942534 
L 240.395709 190.745339 
L 240.987805 192.582837 
L 241.777267 195.887426 
L 243.35619 203.822007 
L 244.343017 208.37911 
L 244.935114 210.307845 
L 245.329844 211.039204 
L 245.52721 211.199825 
L 245.724575 211.208363 
L 245.921941 211.054828 
L 246.316672 210.229456 
L 246.711403 208.677913 
L 247.303499 204.969936 
L 247.895595 199.71579 
L 248.882422 188.425487 
L 250.461346 169.834377 
L 251.053442 164.990868 
L 251.448173 162.885331 
L 251.842904 161.785048 
L 252.040269 161.620083 
L 252.237635 161.707684 
L 252.435 162.039433 
L 252.829731 163.382475 
L 253.421827 166.814102 
L 254.408654 174.720573 
L 255.592847 184.18433 
L 256.382309 188.859149 
L 256.974405 191.191251 
L 257.369136 192.163361 
L 257.763867 192.669592 
L 258.158597 192.712213 
L 258.553328 192.293669 
L 258.948059 191.418893 
L 259.540156 189.282197 
L 260.329617 185.088698 
L 262.698002 170.974231 
L 263.092733 169.878359 
L 263.487464 169.436184 
L 263.68483 169.466187 
L 264.07956 170.007913 
L 264.474291 171.124274 
L 265.066388 173.603178 
L 267.040042 182.74458 
L 267.632138 184.392766 
L 268.224234 185.436091 
L 268.816331 186.068399 
L 270.197889 187.061879 
L 270.98735 187.449069 
L 271.382081 187.41804 
L 271.776812 187.110754 
L 272.171543 186.433935 
L 272.566274 185.315882 
L 273.15837 182.748605 
L 273.947832 177.879631 
L 275.526755 167.447886 
L 276.118852 165.225651 
L 276.513583 164.633233 
L 276.710948 164.617063 
L 276.908313 164.7823 
L 277.303044 165.612846 
L 277.895141 167.837353 
L 279.474064 174.779295 
L 279.868795 175.778702 
L 280.263526 176.301704 
L 280.658257 176.3643 
L 281.052987 176.033276 
L 281.645084 175.021487 
L 283.816103 170.620215 
L 285.197661 168.170679 
L 286.184489 165.83392 
L 288.750239 159.316645 
L 290.131797 155.973875 
L 292.105452 150.690593 
L 292.500182 150.214651 
L 292.697548 150.137957 
L 292.894913 150.183401 
L 293.289644 150.670005 
L 293.684375 151.703089 
L 294.276471 154.211559 
L 295.065933 158.832712 
L 296.447491 167.053044 
L 297.039587 169.446882 
L 297.631684 170.884184 
L 298.026414 171.363795 
L 298.421145 171.555494 
L 299.013242 171.546737 
L 299.605338 171.532752 
L 300.000069 171.687063 
L 300.3948 172.048136 
L 300.986896 173.020115 
L 301.776358 174.972999 
L 303.552647 179.678111 
L 304.539474 181.480721 
L 305.921032 183.846122 
L 306.710493 185.707346 
L 308.881513 191.527235 
L 309.276244 192.039387 
L 309.670975 192.202839 
L 310.065706 191.992713 
L 310.460437 191.42056 
L 311.052533 189.994307 
L 312.236725 186.148359 
L 313.223553 183.198783 
L 315.591938 176.85381 
L 316.3814 173.472939 
L 317.565592 167.051316 
L 318.552419 161.904082 
L 319.144516 159.728586 
L 319.539246 158.893532 
L 319.933977 158.645772 
L 320.131343 158.756862 
L 320.526074 159.45473 
L 320.920804 160.758824 
L 321.512901 163.667966 
L 323.68392 176.054282 
L 324.276017 177.678615 
L 324.670748 178.147752 
L 325.065478 178.197053 
L 325.460209 177.931222 
L 326.249671 176.940826 
L 327.039133 176.009281 
L 327.828594 175.456189 
L 328.815422 174.843701 
L 329.407518 174.090895 
L 329.999614 172.818443 
L 330.591711 170.9766 
L 331.381172 167.768175 
L 332.76273 160.952825 
L 333.946923 154.199357 
L 334.93375 147.294845 
L 335.920577 138.740106 
L 338.288962 117.14565 
L 338.881059 114.087118 
L 339.275789 113.078307 
L 339.473155 112.920709 
L 339.67052 113.006365 
L 339.867886 113.341458 
L 340.262617 114.772107 
L 340.657347 117.209551 
L 341.249444 122.629931 
L 342.038906 132.492952 
L 344.209925 162.012756 
L 344.802022 167.312587 
L 345.394118 170.728049 
L 345.788849 172.022498 
L 346.18358 172.666548 
L 346.57831 172.831647 
L 347.170407 172.629073 
L 347.565138 172.505873 
L 347.959868 172.623214 
L 348.354599 173.139825 
L 348.74933 174.162592 
L 349.341426 176.72657 
L 350.130888 181.797461 
L 351.709812 193.007607 
L 352.301908 195.608335 
L 352.696639 196.437366 
L 352.894004 196.549791 
L 353.09137 196.455088 
L 353.288735 196.153384 
L 353.683466 194.947241 
L 354.275562 191.789361 
L 355.065024 185.820312 
L 356.446582 175.197262 
L 357.038678 172.514046 
L 357.433409 171.790842 
L 357.630775 171.785238 
L 357.82814 172.022959 
L 358.222871 173.216756 
L 358.617602 175.297016 
L 359.209698 179.713114 
L 360.788621 192.356155 
L 361.183352 193.959596 
L 361.380718 194.334723 
L 361.578083 194.395749 
L 361.775449 194.128103 
L 362.170179 192.582202 
L 362.56491 189.71746 
L 363.157007 183.258022 
L 364.143834 168.993209 
L 365.130661 155.117097 
L 365.722757 149.138899 
L 366.117488 146.615075 
L 366.512219 145.391331 
L 366.709584 145.274386 
L 366.90695 145.480354 
L 367.301681 146.808759 
L 367.696411 149.225408 
L 368.288508 154.406623 
L 370.459528 175.389904 
L 371.051624 178.310584 
L 371.446355 179.248448 
L 371.64372 179.425339 
L 371.841086 179.419898 
L 372.038451 179.244648 
L 372.433182 178.44461 
L 373.025278 176.377501 
L 375.393663 166.585561 
L 375.788394 165.94302 
L 375.98576 165.825136 
L 376.183125 165.854854 
L 376.38049 166.03865 
L 376.775221 166.881174 
L 377.169952 168.346166 
L 377.762048 171.554037 
L 379.735703 183.900314 
L 380.130434 185.181973 
L 380.525164 185.783907 
L 380.72253 185.833235 
L 380.919895 185.726278 
L 381.314626 185.103704 
L 381.906722 183.458143 
L 382.89355 180.446429 
L 383.288281 179.672917 
L 383.683011 179.329147 
L 383.880377 179.335197 
L 384.275108 179.704739 
L 384.669839 180.513877 
L 385.261935 182.361362 
L 387.038224 188.590726 
L 387.63032 189.692117 
L 388.025051 189.998567 
L 388.419782 189.975175 
L 388.814513 189.666116 
L 389.406609 188.821064 
L 390.788167 186.632804 
L 391.182898 186.324484 
L 391.577629 186.252532 
L 391.972359 186.424137 
L 392.564456 187.075872 
L 393.946014 189.063591 
L 394.340745 189.236726 
L 394.53811 189.177051 
L 394.932841 188.691355 
L 395.327572 187.63651 
L 395.722303 185.946794 
L 396.314399 182.191369 
L 397.103861 175.22466 
L 398.88015 158.016264 
L 399.472246 154.475483 
L 399.866977 153.248607 
L 400.064342 153.004463 
L 400.261708 153.009182 
L 400.459073 153.259319 
L 400.853804 154.462096 
L 401.248535 156.511344 
L 401.840631 160.851328 
L 402.827458 170.066316 
L 404.801112 188.745417 
L 405.985305 197.715409 
L 406.774767 202.387627 
L 407.366863 205.020738 
L 407.958959 206.738501 
L 408.35369 207.298471 
L 408.551056 207.388013 
L 408.748421 207.345599 
L 409.143152 206.856007 
L 409.537883 205.824862 
L 410.129979 203.31329 
L 410.919441 198.501098 
L 412.69573 186.674238 
L 413.287826 184.490875 
L 413.682557 183.978166 
L 413.879922 184.037413 
L 414.077288 184.312717 
L 414.472019 185.501914 
L 414.866749 187.479638 
L 415.458846 191.597869 
L 417.037769 203.292924 
L 417.4325 204.765788 
L 417.629865 205.092585 
L 417.827231 205.109723 
L 418.024596 204.794455 
L 418.419327 203.096717 
L 418.814058 199.904569 
L 419.406154 192.292164 
L 419.998251 181.542403 
L 420.985078 158.42796 
L 422.958732 109.944681 
L 423.550828 99.659691 
L 424.142925 92.921812 
L 424.537656 90.64512 
L 424.735021 90.201103 
L 424.932386 90.224695 
L 425.129752 90.715016 
L 425.524483 93.074744 
L 425.919214 97.202023 
L 426.51131 106.384353 
L 427.300772 122.935623 
L 429.07706 162.888016 
L 429.669157 171.524636 
L 430.063888 174.888619 
L 430.261253 175.781803 
L 430.458618 176.137147 
L 430.655984 175.95638 
L 430.853349 175.249606 
L 431.24808 172.337783 
L 431.840176 164.701229 
L 432.432273 154.167996 
L 432.432273 154.167996 
" clip-path="url(#pc0cd468760)" style="fill: none; stroke: #1f77b4; stroke-width: 1.2; stroke-linecap: round"/>
   </g>
   <g id="line2d_15">
    <path d="M 72.437727 243.427515 
L 73.424554 219.838433 
L 73.819285 213.414357 
L 74.214016 209.854016 
L 74.411382 209.274975 
L 74.608747 209.523758 
L 74.806112 210.59515 
L 75.200843 215.088572 
L 75.79294 226.826292 
L 76.779767 253.703161 
L 77.766594 278.427704 
L 78.35869 287.613519 
L 78.753421 290.473735 
L 78.950786 290.855455 
L 79.148152 290.534952 
L 79.345517 289.523983 
L 79.740248 285.530907 
L 80.332344 275.236796 
L 81.121806 255.975901 
L 82.70073 215.506396 
L 83.292826 204.657291 
L 83.884922 197.513826 
L 84.279653 194.814115 
L 84.674384 193.607816 
L 84.871749 193.498457 
L 85.069115 193.677361 
L 85.463846 194.772069 
L 86.055942 197.808131 
L 86.845404 203.526353 
L 87.832231 212.649228 
L 88.819058 224.437465 
L 90.200616 244.9691 
L 91.187443 258.488472 
L 91.779539 263.955564 
L 92.17427 265.994116 
L 92.371636 266.481448 
L 92.569001 266.607011 
L 92.766367 266.374159 
L 93.161097 264.881669 
L 93.555828 262.168187 
L 94.147925 256.40587 
L 95.529483 241.702511 
L 95.924214 238.984467 
L 96.318944 237.532391 
L 96.51631 237.344141 
L 96.713675 237.533443 
L 96.911041 238.104693 
L 97.305772 240.369874 
L 97.897868 246.278654 
L 98.68733 257.291022 
L 99.871522 273.728265 
L 100.463618 278.845847 
L 100.858349 280.4217 
L 101.055715 280.60694 
L 101.25308 280.385984 
L 101.450446 279.76575 
L 101.845176 277.3947 
L 102.437273 271.451485 
L 103.621465 255.36176 
L 104.410927 245.867988 
L 105.003023 241.229376 
L 105.397754 239.606592 
L 105.59512 239.240447 
L 105.792485 239.15666 
L 105.98985 239.336332 
L 106.384581 240.382661 
L 106.976678 243.170142 
L 108.16087 249.293708 
L 108.555601 250.432018 
L 108.752967 250.707252 
L 108.950332 250.76367 
L 109.147697 250.590094 
L 109.542428 249.532314 
L 109.937159 247.539174 
L 110.529255 242.97569 
L 111.318717 234.777306 
L 112.897641 217.616455 
L 113.489737 213.130815 
L 113.884468 211.161223 
L 114.279199 210.097923 
L 114.476564 209.914812 
L 114.673929 209.962927 
L 114.871295 210.238193 
L 115.266026 211.442979 
L 115.660757 213.457453 
L 116.252853 217.792025 
L 117.042315 225.465312 
L 118.621238 243.975323 
L 119.805431 256.681139 
L 120.397527 261.19042 
L 120.792258 263.114858 
L 121.186989 263.975116 
L 121.384354 263.957403 
L 121.581719 263.61797 
L 121.97645 261.915743 
L 122.371181 258.77478 
L 122.963278 251.262976 
L 123.555374 240.426872 
L 124.344836 221.327987 
L 125.529028 185.964047 
L 126.910586 145.460132 
L 127.502682 132.751321 
L 127.897413 126.937612 
L 128.292144 123.658459 
L 128.48951 123.047057 
L 128.686875 123.146819 
L 128.88424 123.965895 
L 129.278971 127.745943 
L 129.673702 134.252069 
L 130.265798 148.410666 
L 131.449991 185.384864 
L 132.239453 208.033502 
L 132.831549 219.465105 
L 133.22628 223.358172 
L 133.423645 224.072011 
L 133.621011 223.952347 
L 133.818376 223.012704 
L 134.213107 218.816359 
L 134.805203 207.696159 
L 136.778858 162.451009 
L 137.173589 158.208453 
L 137.370954 157.143707 
L 137.568319 156.806268 
L 137.765685 157.191659 
L 137.96305 158.278561 
L 138.357781 162.393264 
L 138.949877 172.457071 
L 140.923532 211.390076 
L 141.318263 215.531958 
L 141.712993 217.716423 
L 141.910359 218.083793 
L 142.107724 217.994378 
L 142.30509 217.479681 
L 142.699821 215.33786 
L 143.291917 210.090082 
L 144.87084 194.058884 
L 145.462937 190.295033 
L 145.857667 188.874971 
L 146.252398 188.345098 
L 146.449764 188.406707 
L 146.647129 188.679905 
L 147.04186 189.841974 
L 147.436591 191.798113 
L 148.028687 196.174175 
L 148.620783 202.227287 
L 149.410245 212.643737 
L 151.77863 246.756398 
L 152.173361 249.922443 
L 152.568092 251.617646 
L 152.765458 251.857972 
L 152.962823 251.674676 
L 153.160188 251.06129 
L 153.554919 248.550727 
L 153.94965 244.405162 
L 154.541746 235.544936 
L 155.528574 216.39015 
L 156.712766 193.749784 
L 157.502228 183.017518 
L 158.094324 178.042522 
L 158.489055 176.075464 
L 158.883786 174.989453 
L 159.278517 174.576503 
L 159.673248 174.64121 
L 160.067978 175.038858 
L 160.660075 176.137323 
L 161.252171 177.995474 
L 161.646902 179.889021 
L 162.238998 184.159646 
L 162.831094 190.574868 
L 163.620556 202.627941 
L 165.002114 229.333924 
L 165.988941 246.021073 
L 166.581038 252.447732 
L 166.975769 254.755014 
L 167.173134 255.277123 
L 167.370499 255.376687 
L 167.567865 255.060993 
L 167.962596 253.245637 
L 168.357327 250.015554 
L 168.949423 243.130621 
L 170.923077 217.506113 
L 171.515173 213.416195 
L 171.909904 212.189419 
L 172.10727 212.015772 
L 172.304635 212.113691 
L 172.699366 213.018865 
L 173.291462 215.606097 
L 174.278289 220.132449 
L 174.67302 220.894766 
L 174.870386 220.883875 
L 175.067751 220.570639 
L 175.462482 218.955938 
L 175.857213 215.967661 
L 176.449309 209.058573 
L 177.436136 193.236166 
L 178.422964 177.770853 
L 179.01506 171.65174 
L 179.409791 169.601543 
L 179.607156 169.248183 
L 179.804522 169.347685 
L 180.001887 169.890956 
L 180.396618 172.222038 
L 180.988714 178.264912 
L 182.765003 199.976409 
L 183.159734 202.340857 
L 183.357099 202.895881 
L 183.554465 202.998167 
L 183.75183 202.63279 
L 184.146561 200.485046 
L 184.541292 196.515702 
L 185.133388 187.622603 
L 186.120215 168.117241 
L 187.107042 149.10036 
L 187.699139 140.661461 
L 188.291235 135.476253 
L 188.685966 133.926947 
L 188.883331 133.698649 
L 189.080697 133.808299 
L 189.278062 134.229544 
L 189.672793 135.880451 
L 190.264889 139.831735 
L 192.041178 153.268753 
L 192.633275 156.120009 
L 193.225371 157.988728 
L 194.606929 161.535892 
L 195.00166 163.337738 
L 195.593756 167.474608 
L 196.185852 173.679586 
L 196.975314 185.135104 
L 199.146334 220.625598 
L 199.541065 224.054683 
L 199.935795 225.525712 
L 200.133161 225.440103 
L 200.330526 224.777244 
L 200.725257 221.688925 
L 201.119988 216.307456 
L 201.712084 204.480494 
L 202.896277 173.665347 
L 203.685739 155.413704 
L 204.277835 146.898347 
L 204.672566 144.589964 
L 204.869931 144.533237 
L 205.067297 145.212468 
L 205.462028 148.701435 
L 205.856758 154.760224 
L 206.448855 167.53512 
L 208.225144 210.328255 
L 208.81724 218.815189 
L 209.211971 221.692287 
L 209.409336 222.25454 
L 209.606702 222.23649 
L 209.804067 221.652095 
L 210.198798 218.879108 
L 210.593529 214.191276 
L 211.185625 204.330143 
L 212.567183 175.292811 
L 213.55401 156.713344 
L 214.146106 148.697248 
L 214.738203 143.754464 
L 215.132934 142.280544 
L 215.330299 142.084976 
L 215.527664 142.236964 
L 215.72503 142.720392 
L 216.119761 144.593188 
L 216.711857 149.219405 
L 218.685511 167.276296 
L 219.080242 168.996025 
L 219.277608 169.445769 
L 219.474973 169.613239 
L 219.672339 169.500642 
L 219.869704 169.11734 
L 220.264435 167.61077 
L 220.856531 163.93457 
L 222.238089 154.538613 
L 222.63282 153.199764 
L 222.830185 152.924471 
L 223.027551 152.937481 
L 223.224916 153.249693 
L 223.619647 154.781888 
L 224.014378 157.477478 
L 224.606474 163.383905 
L 225.593301 176.210725 
L 226.777494 191.121682 
L 227.36959 196.376319 
L 227.764321 198.62258 
L 228.159052 199.708469 
L 228.356417 199.786939 
L 228.553783 199.545307 
L 228.948514 198.087468 
L 229.343245 195.338264 
L 229.935341 188.940135 
L 230.724803 176.977102 
L 232.698457 143.883918 
L 233.290553 137.422384 
L 233.685284 134.670808 
L 234.080015 133.198769 
L 234.27738 132.921027 
L 234.474746 132.92594 
L 234.672111 133.190109 
L 235.066842 134.382244 
L 235.658938 137.328548 
L 237.040496 144.738118 
L 237.435227 145.986712 
L 237.829958 146.634248 
L 238.027324 146.729964 
L 238.224689 146.680705 
L 238.61942 146.189699 
L 239.211516 144.695807 
L 241.579901 137.330271 
L 244.737748 129.966086 
L 245.724575 127.401344 
L 246.316672 126.395504 
L 246.711403 126.144694 
L 246.908768 126.179023 
L 247.303499 126.610679 
L 247.69823 127.558565 
L 248.290326 129.927687 
L 249.079788 134.407104 
L 250.26398 141.266788 
L 250.856077 143.460004 
L 251.250807 144.220065 
L 251.645538 144.417782 
L 252.040269 144.123821 
L 252.435 143.453181 
L 253.224462 141.514699 
L 254.60602 138.1124 
L 255.987578 134.770398 
L 257.566501 130.49961 
L 257.961232 130.037983 
L 258.158597 130.015162 
L 258.355963 130.157268 
L 258.750694 130.994711 
L 259.145425 132.618385 
L 259.737521 136.445459 
L 261.908541 153.239036 
L 262.303272 154.420627 
L 262.500637 154.668228 
L 262.698002 154.698893 
L 262.895368 154.53142 
L 263.290099 153.711894 
L 264.671657 149.784273 
L 264.869022 149.616244 
L 265.066388 149.639978 
L 265.263753 149.871825 
L 265.658484 150.987301 
L 266.053215 152.940839 
L 266.645311 157.117515 
L 268.224234 169.165595 
L 268.618965 170.901211 
L 269.013696 171.759696 
L 269.211062 171.84008 
L 269.408427 171.686369 
L 269.803158 170.695382 
L 270.197889 168.853975 
L 270.789985 164.722719 
L 271.579447 157.259006 
L 272.763639 143.407839 
L 275.32939 112.14692 
L 275.921486 108.023243 
L 276.316217 106.773347 
L 276.513583 106.67144 
L 276.710948 106.939847 
L 277.105679 108.613543 
L 277.50041 111.769409 
L 278.092506 118.901777 
L 280.263526 148.832062 
L 280.658257 150.905749 
L 280.855622 151.271021 
L 281.052987 151.176754 
L 281.250353 150.626786 
L 281.645084 148.224299 
L 282.23718 141.837829 
L 283.224007 127.040068 
L 284.210834 113.2318 
L 284.802931 107.863335 
L 285.197661 105.897672 
L 285.395027 105.404733 
L 285.592392 105.221723 
L 285.789758 105.326264 
L 286.184489 106.272391 
L 286.776585 108.905085 
L 287.566047 112.521838 
L 287.960778 113.41178 
L 288.158143 113.461953 
L 288.355508 113.201041 
L 288.750239 111.651336 
L 289.14497 108.67055 
L 289.737066 101.730838 
L 291.710721 74.08393 
L 292.105452 72.024663 
L 292.302817 71.852576 
L 292.500182 72.303336 
L 292.697548 73.400588 
L 293.092279 77.565666 
L 293.48701 84.280269 
L 294.079106 98.494009 
L 295.263298 135.115132 
L 296.250126 163.096911 
L 296.842222 174.478757 
L 297.236953 178.983681 
L 297.631684 180.816647 
L 297.829049 180.724011 
L 298.026414 179.973206 
L 298.421145 176.591984 
L 298.815876 170.939388 
L 299.407972 159.045749 
L 301.973723 100.265995 
L 302.368454 95.639624 
L 302.763185 93.032863 
L 302.96055 92.490789 
L 303.157916 92.439308 
L 303.355281 92.853927 
L 303.750012 94.93896 
L 304.342108 100.468217 
L 305.921032 117.164231 
L 306.315763 119.129476 
L 306.513128 119.547943 
L 306.710493 119.568823 
L 306.907859 119.188511 
L 307.30259 117.258188 
L 307.697321 113.911664 
L 308.289417 106.849879 
L 310.460437 77.684338 
L 311.052533 72.60689 
L 311.644629 69.403939 
L 312.03936 68.302347 
L 312.236725 68.052445 
L 312.434091 67.99773 
L 312.631456 68.133726 
L 313.026187 68.958531 
L 313.420918 70.48498 
L 314.013014 73.981749 
L 314.802476 80.565222 
L 315.986669 93.130666 
L 317.368227 107.785232 
L 317.960323 112.459135 
L 318.552419 115.411256 
L 318.94715 116.262885 
L 319.144516 116.341843 
L 319.341881 116.193924 
L 319.736612 115.255145 
L 320.131343 113.557269 
L 320.723439 109.927031 
L 321.907632 100.656673 
L 323.091824 89.909752 
L 323.881286 80.82063 
L 324.670748 69.107279 
L 326.052306 43.913871 
L 326.841767 31.14458 
L 327.433864 25.168154 
L 327.828594 23.724545 
L 328.02596 23.890953 
L 328.223325 24.68739 
L 328.618056 28.228522 
L 329.012787 34.36428 
L 329.604883 48.069406 
L 330.394345 72.798133 
L 332.367999 138.236167 
L 332.960096 150.957171 
L 333.354827 156.549897 
L 333.749557 159.78406 
L 333.946923 160.553141 
L 334.144288 160.794083 
L 334.341654 160.544299 
L 334.736385 158.752305 
L 335.328481 153.610482 
L 337.696866 128.402302 
L 338.288962 124.788862 
L 338.881059 122.407916 
L 339.473155 120.891755 
L 340.262617 119.561552 
L 342.038906 117.204155 
L 343.223098 115.979018 
L 344.01256 115.095262 
L 344.604656 113.981734 
L 345.196752 112.118704 
L 345.788849 109.283297 
L 346.57831 104.082473 
L 347.959868 94.533511 
L 348.354599 92.909152 
L 348.74933 92.243936 
L 348.946696 92.330702 
L 349.144061 92.719327 
L 349.538792 94.435664 
L 349.933523 97.401316 
L 350.525619 103.987002 
L 351.315081 115.72455 
L 353.09137 143.701437 
L 353.683466 150.297108 
L 354.275562 154.455096 
L 354.670293 155.72304 
L 354.867658 155.89469 
L 355.065024 155.761147 
L 355.262389 155.328907 
L 355.65712 153.610769 
L 356.249217 149.139083 
L 357.038678 140.582081 
L 359.012333 117.542466 
L 359.604429 113.233419 
L 359.99916 111.548869 
L 360.393891 110.905596 
L 360.591256 110.980035 
L 360.788621 111.312834 
L 361.183352 112.707784 
L 361.775449 116.320108 
L 363.551737 128.951159 
L 363.946468 129.841825 
L 364.143834 129.792073 
L 364.341199 129.383475 
L 364.73593 127.454993 
L 365.130661 124.082424 
L 365.722757 116.752308 
L 367.696411 89.274371 
L 368.288508 85.163332 
L 368.683239 83.879989 
L 369.077969 83.500051 
L 369.4727 83.650232 
L 369.867431 83.885058 
L 370.064797 83.891201 
L 370.262162 83.751819 
L 370.459528 83.419935 
L 370.854258 82.028937 
L 371.248989 79.513995 
L 371.841086 73.61552 
L 373.025278 57.61443 
L 373.617374 50.935937 
L 374.012105 48.319354 
L 374.209471 47.75285 
L 374.406836 47.746109 
L 374.604202 48.334317 
L 374.998932 51.373694 
L 375.393663 56.894132 
L 375.98576 69.357169 
L 376.972587 97.273488 
L 378.156779 129.673371 
L 378.748876 140.260994 
L 379.143606 144.175765 
L 379.340972 145.101148 
L 379.538337 145.324483 
L 379.735703 144.849179 
L 380.130434 141.87108 
L 380.525164 136.407798 
L 381.117261 124.44806 
L 383.485646 68.88715 
L 384.077742 62.111036 
L 384.472473 60.134883 
L 384.669839 59.880252 
L 384.867204 60.078569 
L 385.064569 60.691599 
L 385.4593 62.970196 
L 386.051397 68.145751 
L 387.038224 77.089291 
L 387.432955 79.329137 
L 387.827685 80.244165 
L 388.025051 80.140013 
L 388.222416 79.647421 
L 388.617147 77.521572 
L 389.209243 71.869854 
L 390.788167 53.661664 
L 391.182898 51.871416 
L 391.380263 51.826988 
L 391.577629 52.428498 
L 391.972359 55.72889 
L 392.36709 61.936286 
L 392.959187 76.37646 
L 393.946014 109.386615 
L 394.932841 140.691464 
L 395.327572 149.005877 
L 395.722303 153.617594 
L 395.919668 154.365398 
L 396.117033 154.025863 
L 396.314399 152.590704 
L 396.70913 146.515491 
L 397.103861 136.526691 
L 397.695957 115.840103 
L 399.472246 47.120704 
L 400.064342 33.767393 
L 400.459073 29.386301 
L 400.656438 28.592974 
L 400.853804 28.707374 
L 401.051169 29.691682 
L 401.4459 34.051098 
L 402.037996 45.478279 
L 403.024824 71.790095 
L 404.209016 102.743028 
L 404.998478 117.519664 
L 405.590574 124.685592 
L 406.18267 128.81106 
L 406.577401 130.202425 
L 406.972132 130.788971 
L 407.366863 130.814174 
L 407.761594 130.496087 
L 408.748421 129.185713 
L 409.537883 127.970396 
L 410.129979 126.572333 
L 410.52471 125.100472 
L 410.919441 122.978123 
L 411.511537 118.240297 
L 412.103633 111.446483 
L 413.090461 96.58061 
L 414.077288 81.792977 
L 414.669384 75.903672 
L 415.064115 74.079473 
L 415.26148 73.902222 
L 415.458846 74.240868 
L 415.656211 75.102922 
L 416.050942 78.378907 
L 416.643038 86.866133 
L 417.4325 103.236608 
L 419.800885 157.333901 
L 420.787712 173.310541 
L 421.971905 188.415199 
L 424.932386 223.37482 
L 425.327117 226.008148 
L 425.721848 227.214417 
L 425.919214 227.177768 
L 426.116579 226.665658 
L 426.51131 224.098787 
L 426.906041 219.345229 
L 427.498137 208.028083 
L 428.090233 192.01166 
L 429.07706 157.338397 
L 431.445446 67.450253 
L 432.234907 47.117276 
L 432.432273 43.445172 
L 432.432273 43.445172 
" clip-path="url(#pc0cd468760)" style="fill: none; stroke-dasharray: 4.8,1.8; stroke-dashoffset: 0; stroke: #ff7f0e; stroke-width: 1.2"/>
   </g>
   <g id="line2d_16"/>
   <g id="line2d_17"/>
   <g id="patch_3">
    <path d="M 54.438 304.212 
L 54.438 10.368 
" style="fill: none; stroke: #ffffff; stroke-linejoin: miter; stroke-linecap: square"/>
   </g>
   <g id="patch_4">
    <path d="M 450.432 304.212 
L 450.432 10.368 
" style="fill: none; stroke: #ffffff; stroke-linejoin: miter; stroke-linecap: square"/>
   </g>
   <g id="patch_5">
    <path d="M 54.438 304.212 
L 450.432 304.212 
" style="fill: none; stroke: #ffffff; stroke-linejoin: miter; stroke-linecap: square"/>
   </g>
   <g id="patch_6">
    <path d="M 54.438 10.368 
L 450.432 10.368 
" style="fill: none; stroke: #ffffff; stroke-linejoin: miter; stroke-linecap: square"/>
   </g>
   <g id="legend_1">
    <g id="patch_7">
     <path d="M 60.598 57.1995 
L 138.1565 57.1995 
Q 139.9165 57.1995 139.9165 55.4395 
L 139.9165 16.528 
Q 139.9165 14.768 138.1565 14.768 
L 60.598 14.768 
Q 58.838 14.768 58.838 16.528 
L 58.838 55.4395 
Q 58.838 57.1995 60.598 57.1995 
z
" style="fill: #e6e6e6; opacity: 0.8; stroke: #cccccc; stroke-width: 0.8; stroke-linejoin: miter"/>
    </g>
    <g id="text_16">
     <!-- nom_commune -->
     <g style="fill: #262626" transform="translate(62.358 25.5825) scale(0.096 -0.096)">
      <defs>
       <path id="DejaVuSans-63" d="M 3122 3366 
L 3122 2828 
Q 2878 2963 2633 3030 
Q 2388 3097 2138 3097 
Q 1578 3097 1268 2742 
Q 959 2388 959 1747 
Q 959 1106 1268 751 
Q 1578 397 2138 397 
Q 2388 397 2633 464 
Q 2878 531 3122 666 
L 3122 134 
Q 2881 22 2623 -34 
Q 2366 -91 2075 -91 
Q 1284 -91 818 406 
Q 353 903 353 1747 
Q 353 2603 823 3093 
Q 1294 3584 2113 3584 
Q 2378 3584 2631 3529 
Q 2884 3475 3122 3366 
z
" transform="scale(0.015625)"/>
      </defs>
      <use xlink:href="#DejaVuSans-6e"/>
      <use xlink:href="#DejaVuSans-6f" x="63.378906"/>
      <use xlink:href="#DejaVuSans-6d" x="124.560547"/>
      <use xlink:href="#DejaVuSans-5f" x="221.972656"/>
      <use xlink:href="#DejaVuSans-63" x="271.972656"/>
      <use xlink:href="#DejaVuSans-6f" x="326.953125"/>
      <use xlink:href="#DejaVuSans-6d" x="388.134766"/>
      <use xlink:href="#DejaVuSans-6d" x="485.546875"/>
      <use xlink:href="#DejaVuSans-75" x="582.958984"/>
      <use xlink:href="#DejaVuSans-6e" x="646.337891"/>
      <use xlink:href="#DejaVuSans-65" x="709.716797"/>
     </g>
    </g>
    <g id="line2d_18">
     <path d="M 71.738375 35.852625 
L 80.538375 35.852625 
L 89.338375 35.852625 
" style="fill: none; stroke: #1f77b4; stroke-width: 1.2; stroke-linecap: round"/>
    </g>
    <g id="text_17">
     <!-- Brest -->
     <g style="fill: #262626" transform="translate(96.378375 38.932625) scale(0.088 -0.088)">
      <defs>
       <path id="DejaVuSans-42" d="M 1259 2228 
L 1259 519 
L 2272 519 
Q 2781 519 3026 730 
Q 3272 941 3272 1375 
Q 3272 1813 3026 2020 
Q 2781 2228 2272 2228 
L 1259 2228 
z
M 1259 4147 
L 1259 2741 
L 2194 2741 
Q 2656 2741 2882 2914 
Q 3109 3088 3109 3444 
Q 3109 3797 2882 3972 
Q 2656 4147 2194 4147 
L 1259 4147 
z
M 628 4666 
L 2241 4666 
Q 2963 4666 3353 4366 
Q 3744 4066 3744 3513 
Q 3744 3084 3544 2831 
Q 3344 2578 2956 2516 
Q 3422 2416 3680 2098 
Q 3938 1781 3938 1306 
Q 3938 681 3513 340 
Q 3088 0 2303 0 
L 628 0 
L 628 4666 
z
" transform="scale(0.015625)"/>
      </defs>
      <use xlink:href="#DejaVuSans-42"/>
      <use xlink:href="#DejaVuSans-72" x="68.603516"/>
      <use xlink:href="#DejaVuSans-65" x="107.466797"/>
      <use xlink:href="#DejaVuSans-73" x="168.990234"/>
      <use xlink:href="#DejaVuSans-74" x="221.089844"/>
     </g>
    </g>
    <g id="line2d_19">
     <path d="M 71.738375 48.769375 
L 80.538375 48.769375 
L 89.338375 48.769375 
" style="fill: none; stroke-dasharray: 4.8,1.8; stroke-dashoffset: 0; stroke: #ff7f0e; stroke-width: 1.2"/>
    </g>
    <g id="text_18">
     <!-- Lorient -->
     <g style="fill: #262626" transform="translate(96.378375 51.849375) scale(0.088 -0.088)">
      <defs>
       <path id="DejaVuSans-4c" d="M 628 4666 
L 1259 4666 
L 1259 531 
L 3531 531 
L 3531 0 
L 628 0 
L 628 4666 
z
" transform="scale(0.015625)"/>
      </defs>
      <use xlink:href="#DejaVuSans-4c"/>
      <use xlink:href="#DejaVuSans-6f" x="53.962891"/>
      <use xlink:href="#DejaVuSans-72" x="115.144531"/>
      <use xlink:href="#DejaVuSans-69" x="156.257812"/>
      <use xlink:href="#DejaVuSans-65" x="184.041016"/>
      <use xlink:href="#DejaVuSans-6e" x="245.564453"/>
      <use xlink:href="#DejaVuSans-74" x="308.943359"/>
     </g>
    </g>
   </g>
  </g>
 </g>
 <defs>
  <clipPath id="pc0cd468760">
   <rect x="54.438" y="10.368" width="395.994" height="293.844"/>
  </clipPath>
 </defs>
</svg>
