<?xml version="1.0" encoding="utf-8" standalone="no"?>
<!DOCTYPE svg PUBLIC "-//W3C//DTD SVG 1.1//EN"
  "http://www.w3.org/Graphics/SVG/1.1/DTD/svg11.dtd">
<svg xmlns:xlink="http://www.w3.org/1999/xlink" width="460.8pt" height="345.6pt" viewBox="0 0 460.8 345.6" xmlns="http://www.w3.org/2000/svg" version="1.1">
 <metadata>
  <rdf:RDF xmlns:dc="http://purl.org/dc/elements/1.1/" xmlns:cc="http://creativecommons.org/ns#" xmlns:rdf="http://www.w3.org/1999/02/22-rdf-syntax-ns#">
   <cc:Work>
    <dc:type rdf:resource="http://purl.org/dc/dcmitype/StillImage"/>
    <dc:date>2024-04-10T20:38:04.572868</dc:date>
    <dc:format>image/svg+xml</dc:format>
    <dc:creator>
     <cc:Agent>
      <dc:title>Matplotlib v3.7.2, https://matplotlib.org/</dc:title>
     </cc:Agent>
    </dc:creator>
   </cc:Work>
  </rdf:RDF>
 </metadata>
 <defs>
  <style type="text/css">*{stroke-linejoin: round; stroke-linecap: butt}</style>
 </defs>
 <g id="figure_1">
  <g id="patch_1">
   <path d="M 0 345.6 
L 460.8 345.6 
L 460.8 0 
L 0 0 
z
" style="fill: #ffffff"/>
  </g>
  <g id="axes_1">
   <g id="patch_2">
    <path d="M 54.438 304.212 
L 450.432 304.212 
L 450.432 10.368 
L 54.438 10.368 
z
" style="fill: #e6e6e6"/>
   </g>
   <g id="matplotlib.axis_1">
    <g id="xtick_1">
     <g id="line2d_1">
      <path d="M 108.555601 304.212 
L 108.555601 10.368 
" clip-path="url(#pfe3f95c4ef)" style="fill: none; stroke: #ffffff; stroke-width: 0.8; stroke-linecap: round"/>
     </g>
     <g id="text_1">
      <!-- 2019 -->
      <g style="fill: #262626" transform="translate(97.357601 319.198625) scale(0.088 -0.088)">
       <defs>
        <path id="DejaVuSans-32" d="M 1228 531 
L 3431 531 
L 3431 0 
L 469 0 
L 469 531 
Q 828 903 1448 1529 
Q 2069 2156 2228 2338 
Q 2531 2678 2651 2914 
Q 2772 3150 2772 3378 
Q 2772 3750 2511 3984 
Q 2250 4219 1831 4219 
Q 1534 4219 1204 4116 
Q 875 4013 500 3803 
L 500 4441 
Q 881 4594 1212 4672 
Q 1544 4750 1819 4750 
Q 2544 4750 2975 4387 
Q 3406 4025 3406 3419 
Q 3406 3131 3298 2873 
Q 3191 2616 2906 2266 
Q 2828 2175 2409 1742 
Q 1991 1309 1228 531 
z
" transform="scale(0.015625)"/>
        <path id="DejaVuSans-30" d="M 2034 4250 
Q 1547 4250 1301 3770 
Q 1056 3291 1056 2328 
Q 1056 1369 1301 889 
Q 1547 409 2034 409 
Q 2525 409 2770 889 
Q 3016 1369 3016 2328 
Q 3016 3291 2770 3770 
Q 2525 4250 2034 4250 
z
M 2034 4750 
Q 2819 4750 3233 4129 
Q 3647 3509 3647 2328 
Q 3647 1150 3233 529 
Q 2819 -91 2034 -91 
Q 1250 -91 836 529 
Q 422 1150 422 2328 
Q 422 3509 836 4129 
Q 1250 4750 2034 4750 
z
" transform="scale(0.015625)"/>
        <path id="DejaVuSans-31" d="M 794 531 
L 1825 531 
L 1825 4091 
L 703 3866 
L 703 4441 
L 1819 4666 
L 2450 4666 
L 2450 531 
L 3481 531 
L 3481 0 
L 794 0 
L 794 531 
z
" transform="scale(0.015625)"/>
        <path id="DejaVuSans-39" d="M 703 97 
L 703 672 
Q 941 559 1184 500 
Q 1428 441 1663 441 
Q 2288 441 2617 861 
Q 2947 1281 2994 2138 
Q 2813 1869 2534 1725 
Q 2256 1581 1919 1581 
Q 1219 1581 811 2004 
Q 403 2428 403 3163 
Q 403 3881 828 4315 
Q 1253 4750 1959 4750 
Q 2769 4750 3195 4129 
Q 3622 3509 3622 2328 
Q 3622 1225 3098 567 
Q 2575 -91 1691 -91 
Q 1453 -91 1209 -44 
Q 966 3 703 97 
z
M 1959 2075 
Q 2384 2075 2632 2365 
Q 2881 2656 2881 3163 
Q 2881 3666 2632 3958 
Q 2384 4250 1959 4250 
Q 1534 4250 1286 3958 
Q 1038 3666 1038 3163 
Q 1038 2656 1286 2365 
Q 1534 2075 1959 2075 
z
" transform="scale(0.015625)"/>
       </defs>
       <use xlink:href="#DejaVuSans-32"/>
       <use xlink:href="#DejaVuSans-30" x="63.623047"/>
       <use xlink:href="#DejaVuSans-31" x="127.246094"/>
       <use xlink:href="#DejaVuSans-39" x="190.869141"/>
      </g>
     </g>
    </g>
    <g id="xtick_2">
     <g id="line2d_2">
      <path d="M 180.593983 304.212 
L 180.593983 10.368 
" clip-path="url(#pfe3f95c4ef)" style="fill: none; stroke: #ffffff; stroke-width: 0.8; stroke-linecap: round"/>
     </g>
     <g id="text_2">
      <!-- 2020 -->
      <g style="fill: #262626" transform="translate(169.395983 319.198625) scale(0.088 -0.088)">
       <use xlink:href="#DejaVuSans-32"/>
       <use xlink:href="#DejaVuSans-30" x="63.623047"/>
       <use xlink:href="#DejaVuSans-32" x="127.246094"/>
       <use xlink:href="#DejaVuSans-30" x="190.869141"/>
      </g>
     </g>
    </g>
    <g id="xtick_3">
     <g id="line2d_3">
      <path d="M 252.829731 304.212 
L 252.829731 10.368 
" clip-path="url(#pfe3f95c4ef)" style="fill: none; stroke: #ffffff; stroke-width: 0.8; stroke-linecap: round"/>
     </g>
     <g id="text_3">
      <!-- 2021 -->
      <g style="fill: #262626" transform="translate(241.631731 319.198625) scale(0.088 -0.088)">
       <use xlink:href="#DejaVuSans-32"/>
       <use xlink:href="#DejaVuSans-30" x="63.623047"/>
       <use xlink:href="#DejaVuSans-32" x="127.246094"/>
       <use xlink:href="#DejaVuSans-31" x="190.869141"/>
      </g>
     </g>
    </g>
    <g id="xtick_4">
     <g id="line2d_4">
      <path d="M 324.868113 304.212 
L 324.868113 10.368 
" clip-path="url(#pfe3f95c4ef)" style="fill: none; stroke: #ffffff; stroke-width: 0.8; stroke-linecap: round"/>
     </g>
     <g id="text_4">
      <!-- 2022 -->
      <g style="fill: #262626" transform="translate(313.670113 319.198625) scale(0.088 -0.088)">
       <use xlink:href="#DejaVuSans-32"/>
       <use xlink:href="#DejaVuSans-30" x="63.623047"/>
       <use xlink:href="#DejaVuSans-32" x="127.246094"/>
       <use xlink:href="#DejaVuSans-32" x="190.869141"/>
      </g>
     </g>
    </g>
    <g id="xtick_5">
     <g id="line2d_5">
      <path d="M 396.906495 304.212 
L 396.906495 10.368 
" clip-path="url(#pfe3f95c4ef)" style="fill: none; stroke: #ffffff; stroke-width: 0.8; stroke-linecap: round"/>
     </g>
     <g id="text_5">
      <!-- 2023 -->
      <g style="fill: #262626" transform="translate(385.708495 319.198625) scale(0.088 -0.088)">
       <defs>
        <path id="DejaVuSans-33" d="M 2597 2516 
Q 3050 2419 3304 2112 
Q 3559 1806 3559 1356 
Q 3559 666 3084 287 
Q 2609 -91 1734 -91 
Q 1441 -91 1130 -33 
Q 819 25 488 141 
L 488 750 
Q 750 597 1062 519 
Q 1375 441 1716 441 
Q 2309 441 2620 675 
Q 2931 909 2931 1356 
Q 2931 1769 2642 2001 
Q 2353 2234 1838 2234 
L 1294 2234 
L 1294 2753 
L 1863 2753 
Q 2328 2753 2575 2939 
Q 2822 3125 2822 3475 
Q 2822 3834 2567 4026 
Q 2313 4219 1838 4219 
Q 1578 4219 1281 4162 
Q 984 4106 628 3988 
L 628 4550 
Q 988 4650 1302 4700 
Q 1616 4750 1894 4750 
Q 2613 4750 3031 4423 
Q 3450 4097 3450 3541 
Q 3450 3153 3228 2886 
Q 3006 2619 2597 2516 
z
" transform="scale(0.015625)"/>
       </defs>
       <use xlink:href="#DejaVuSans-32"/>
       <use xlink:href="#DejaVuSans-30" x="63.623047"/>
       <use xlink:href="#DejaVuSans-32" x="127.246094"/>
       <use xlink:href="#DejaVuSans-33" x="190.869141"/>
      </g>
     </g>
    </g>
    <g id="text_6">
     <!-- date_mutation -->
     <g style="fill: #262626" transform="translate(217.476 332.32325) scale(0.096 -0.096)">
      <defs>
       <path id="DejaVuSans-64" d="M 2906 2969 
L 2906 4863 
L 3481 4863 
L 3481 0 
L 2906 0 
L 2906 525 
Q 2725 213 2448 61 
Q 2172 -91 1784 -91 
Q 1150 -91 751 415 
Q 353 922 353 1747 
Q 353 2572 751 3078 
Q 1150 3584 1784 3584 
Q 2172 3584 2448 3432 
Q 2725 3281 2906 2969 
z
M 947 1747 
Q 947 1113 1208 752 
Q 1469 391 1925 391 
Q 2381 391 2643 752 
Q 2906 1113 2906 1747 
Q 2906 2381 2643 2742 
Q 2381 3103 1925 3103 
Q 1469 3103 1208 2742 
Q 947 2381 947 1747 
z
" transform="scale(0.015625)"/>
       <path id="DejaVuSans-61" d="M 2194 1759 
Q 1497 1759 1228 1600 
Q 959 1441 959 1056 
Q 959 750 1161 570 
Q 1363 391 1709 391 
Q 2188 391 2477 730 
Q 2766 1069 2766 1631 
L 2766 1759 
L 2194 1759 
z
M 3341 1997 
L 3341 0 
L 2766 0 
L 2766 531 
Q 2569 213 2275 61 
Q 1981 -91 1556 -91 
Q 1019 -91 701 211 
Q 384 513 384 1019 
Q 384 1609 779 1909 
Q 1175 2209 1959 2209 
L 2766 2209 
L 2766 2266 
Q 2766 2663 2505 2880 
Q 2244 3097 1772 3097 
Q 1472 3097 1187 3025 
Q 903 2953 641 2809 
L 641 3341 
Q 956 3463 1253 3523 
Q 1550 3584 1831 3584 
Q 2591 3584 2966 3190 
Q 3341 2797 3341 1997 
z
" transform="scale(0.015625)"/>
       <path id="DejaVuSans-74" d="M 1172 4494 
L 1172 3500 
L 2356 3500 
L 2356 3053 
L 1172 3053 
L 1172 1153 
Q 1172 725 1289 603 
Q 1406 481 1766 481 
L 2356 481 
L 2356 0 
L 1766 0 
Q 1100 0 847 248 
Q 594 497 594 1153 
L 594 3053 
L 172 3053 
L 172 3500 
L 594 3500 
L 594 4494 
L 1172 4494 
z
" transform="scale(0.015625)"/>
       <path id="DejaVuSans-65" d="M 3597 1894 
L 3597 1613 
L 953 1613 
Q 991 1019 1311 708 
Q 1631 397 2203 397 
Q 2534 397 2845 478 
Q 3156 559 3463 722 
L 3463 178 
Q 3153 47 2828 -22 
Q 2503 -91 2169 -91 
Q 1331 -91 842 396 
Q 353 884 353 1716 
Q 353 2575 817 3079 
Q 1281 3584 2069 3584 
Q 2775 3584 3186 3129 
Q 3597 2675 3597 1894 
z
M 3022 2063 
Q 3016 2534 2758 2815 
Q 2500 3097 2075 3097 
Q 1594 3097 1305 2825 
Q 1016 2553 972 2059 
L 3022 2063 
z
" transform="scale(0.015625)"/>
       <path id="DejaVuSans-5f" d="M 3263 -1063 
L 3263 -1509 
L -63 -1509 
L -63 -1063 
L 3263 -1063 
z
" transform="scale(0.015625)"/>
       <path id="DejaVuSans-6d" d="M 3328 2828 
Q 3544 3216 3844 3400 
Q 4144 3584 4550 3584 
Q 5097 3584 5394 3201 
Q 5691 2819 5691 2113 
L 5691 0 
L 5113 0 
L 5113 2094 
Q 5113 2597 4934 2840 
Q 4756 3084 4391 3084 
Q 3944 3084 3684 2787 
Q 3425 2491 3425 1978 
L 3425 0 
L 2847 0 
L 2847 2094 
Q 2847 2600 2669 2842 
Q 2491 3084 2119 3084 
Q 1678 3084 1418 2786 
Q 1159 2488 1159 1978 
L 1159 0 
L 581 0 
L 581 3500 
L 1159 3500 
L 1159 2956 
Q 1356 3278 1631 3431 
Q 1906 3584 2284 3584 
Q 2666 3584 2933 3390 
Q 3200 3197 3328 2828 
z
" transform="scale(0.015625)"/>
       <path id="DejaVuSans-75" d="M 544 1381 
L 544 3500 
L 1119 3500 
L 1119 1403 
Q 1119 906 1312 657 
Q 1506 409 1894 409 
Q 2359 409 2629 706 
Q 2900 1003 2900 1516 
L 2900 3500 
L 3475 3500 
L 3475 0 
L 2900 0 
L 2900 538 
Q 2691 219 2414 64 
Q 2138 -91 1772 -91 
Q 1169 -91 856 284 
Q 544 659 544 1381 
z
M 1991 3584 
L 1991 3584 
z
" transform="scale(0.015625)"/>
       <path id="DejaVuSans-69" d="M 603 3500 
L 1178 3500 
L 1178 0 
L 603 0 
L 603 3500 
z
M 603 4863 
L 1178 4863 
L 1178 4134 
L 603 4134 
L 603 4863 
z
" transform="scale(0.015625)"/>
       <path id="DejaVuSans-6f" d="M 1959 3097 
Q 1497 3097 1228 2736 
Q 959 2375 959 1747 
Q 959 1119 1226 758 
Q 1494 397 1959 397 
Q 2419 397 2687 759 
Q 2956 1122 2956 1747 
Q 2956 2369 2687 2733 
Q 2419 3097 1959 3097 
z
M 1959 3584 
Q 2709 3584 3137 3096 
Q 3566 2609 3566 1747 
Q 3566 888 3137 398 
Q 2709 -91 1959 -91 
Q 1206 -91 779 398 
Q 353 888 353 1747 
Q 353 2609 779 3096 
Q 1206 3584 1959 3584 
z
" transform="scale(0.015625)"/>
       <path id="DejaVuSans-6e" d="M 3513 2113 
L 3513 0 
L 2938 0 
L 2938 2094 
Q 2938 2591 2744 2837 
Q 2550 3084 2163 3084 
Q 1697 3084 1428 2787 
Q 1159 2491 1159 1978 
L 1159 0 
L 581 0 
L 581 3500 
L 1159 3500 
L 1159 2956 
Q 1366 3272 1645 3428 
Q 1925 3584 2291 3584 
Q 2894 3584 3203 3211 
Q 3513 2838 3513 2113 
z
" transform="scale(0.015625)"/>
      </defs>
      <use xlink:href="#DejaVuSans-64"/>
      <use xlink:href="#DejaVuSans-61" x="63.476562"/>
      <use xlink:href="#DejaVuSans-74" x="124.755859"/>
      <use xlink:href="#DejaVuSans-65" x="163.964844"/>
      <use xlink:href="#DejaVuSans-5f" x="225.488281"/>
      <use xlink:href="#DejaVuSans-6d" x="275.488281"/>
      <use xlink:href="#DejaVuSans-75" x="372.900391"/>
      <use xlink:href="#DejaVuSans-74" x="436.279297"/>
      <use xlink:href="#DejaVuSans-61" x="475.488281"/>
      <use xlink:href="#DejaVuSans-74" x="536.767578"/>
      <use xlink:href="#DejaVuSans-69" x="575.976562"/>
      <use xlink:href="#DejaVuSans-6f" x="603.759766"/>
      <use xlink:href="#DejaVuSans-6e" x="664.941406"/>
     </g>
    </g>
   </g>
   <g id="matplotlib.axis_2">
    <g id="ytick_1">
     <g id="line2d_6">
      <path d="M 54.438 276.822484 
L 450.432 276.822484 
" clip-path="url(#pfe3f95c4ef)" style="fill: none; stroke: #ffffff; stroke-width: 0.8; stroke-linecap: round"/>
     </g>
     <g id="text_7">
      <!-- 1250 -->
      <g style="fill: #262626" transform="translate(23.742 280.165796) scale(0.088 -0.088)">
       <defs>
        <path id="DejaVuSans-35" d="M 691 4666 
L 3169 4666 
L 3169 4134 
L 1269 4134 
L 1269 2991 
Q 1406 3038 1543 3061 
Q 1681 3084 1819 3084 
Q 2600 3084 3056 2656 
Q 3513 2228 3513 1497 
Q 3513 744 3044 326 
Q 2575 -91 1722 -91 
Q 1428 -91 1123 -41 
Q 819 9 494 109 
L 494 744 
Q 775 591 1075 516 
Q 1375 441 1709 441 
Q 2250 441 2565 725 
Q 2881 1009 2881 1497 
Q 2881 1984 2565 2268 
Q 2250 2553 1709 2553 
Q 1456 2553 1204 2497 
Q 953 2441 691 2322 
L 691 4666 
z
" transform="scale(0.015625)"/>
       </defs>
       <use xlink:href="#DejaVuSans-31"/>
       <use xlink:href="#DejaVuSans-32" x="63.623047"/>
       <use xlink:href="#DejaVuSans-35" x="127.246094"/>
       <use xlink:href="#DejaVuSans-30" x="190.869141"/>
      </g>
     </g>
    </g>
    <g id="ytick_2">
     <g id="line2d_7">
      <path d="M 54.438 241.31523 
L 450.432 241.31523 
" clip-path="url(#pfe3f95c4ef)" style="fill: none; stroke: #ffffff; stroke-width: 0.8; stroke-linecap: round"/>
     </g>
     <g id="text_8">
      <!-- 1500 -->
      <g style="fill: #262626" transform="translate(23.742 244.658543) scale(0.088 -0.088)">
       <use xlink:href="#DejaVuSans-31"/>
       <use xlink:href="#DejaVuSans-35" x="63.623047"/>
       <use xlink:href="#DejaVuSans-30" x="127.246094"/>
       <use xlink:href="#DejaVuSans-30" x="190.869141"/>
      </g>
     </g>
    </g>
    <g id="ytick_3">
     <g id="line2d_8">
      <path d="M 54.438 205.807977 
L 450.432 205.807977 
" clip-path="url(#pfe3f95c4ef)" style="fill: none; stroke: #ffffff; stroke-width: 0.8; stroke-linecap: round"/>
     </g>
     <g id="text_9">
      <!-- 1750 -->
      <g style="fill: #262626" transform="translate(23.742 209.151289) scale(0.088 -0.088)">
       <defs>
        <path id="DejaVuSans-37" d="M 525 4666 
L 3525 4666 
L 3525 4397 
L 1831 0 
L 1172 0 
L 2766 4134 
L 525 4134 
L 525 4666 
z
" transform="scale(0.015625)"/>
       </defs>
       <use xlink:href="#DejaVuSans-31"/>
       <use xlink:href="#DejaVuSans-37" x="63.623047"/>
       <use xlink:href="#DejaVuSans-35" x="127.246094"/>
       <use xlink:href="#DejaVuSans-30" x="190.869141"/>
      </g>
     </g>
    </g>
    <g id="ytick_4">
     <g id="line2d_9">
      <path d="M 54.438 170.300724 
L 450.432 170.300724 
" clip-path="url(#pfe3f95c4ef)" style="fill: none; stroke: #ffffff; stroke-width: 0.8; stroke-linecap: round"/>
     </g>
     <g id="text_10">
      <!-- 2000 -->
      <g style="fill: #262626" transform="translate(23.742 173.644036) scale(0.088 -0.088)">
       <use xlink:href="#DejaVuSans-32"/>
       <use xlink:href="#DejaVuSans-30" x="63.623047"/>
       <use xlink:href="#DejaVuSans-30" x="127.246094"/>
       <use xlink:href="#DejaVuSans-30" x="190.869141"/>
      </g>
     </g>
    </g>
    <g id="ytick_5">
     <g id="line2d_10">
      <path d="M 54.438 134.79347 
L 450.432 134.79347 
" clip-path="url(#pfe3f95c4ef)" style="fill: none; stroke: #ffffff; stroke-width: 0.8; stroke-linecap: round"/>
     </g>
     <g id="text_11">
      <!-- 2250 -->
      <g style="fill: #262626" transform="translate(23.742 138.136783) scale(0.088 -0.088)">
       <use xlink:href="#DejaVuSans-32"/>
       <use xlink:href="#DejaVuSans-32" x="63.623047"/>
       <use xlink:href="#DejaVuSans-35" x="127.246094"/>
       <use xlink:href="#DejaVuSans-30" x="190.869141"/>
      </g>
     </g>
    </g>
    <g id="ytick_6">
     <g id="line2d_11">
      <path d="M 54.438 99.286217 
L 450.432 99.286217 
" clip-path="url(#pfe3f95c4ef)" style="fill: none; stroke: #ffffff; stroke-width: 0.8; stroke-linecap: round"/>
     </g>
     <g id="text_12">
      <!-- 2500 -->
      <g style="fill: #262626" transform="translate(23.742 102.629529) scale(0.088 -0.088)">
       <use xlink:href="#DejaVuSans-32"/>
       <use xlink:href="#DejaVuSans-35" x="63.623047"/>
       <use xlink:href="#DejaVuSans-30" x="127.246094"/>
       <use xlink:href="#DejaVuSans-30" x="190.869141"/>
      </g>
     </g>
    </g>
    <g id="ytick_7">
     <g id="line2d_12">
      <path d="M 54.438 63.778964 
L 450.432 63.778964 
" clip-path="url(#pfe3f95c4ef)" style="fill: none; stroke: #ffffff; stroke-width: 0.8; stroke-linecap: round"/>
     </g>
     <g id="text_13">
      <!-- 2750 -->
      <g style="fill: #262626" transform="translate(23.742 67.122276) scale(0.088 -0.088)">
       <use xlink:href="#DejaVuSans-32"/>
       <use xlink:href="#DejaVuSans-37" x="63.623047"/>
       <use xlink:href="#DejaVuSans-35" x="127.246094"/>
       <use xlink:href="#DejaVuSans-30" x="190.869141"/>
      </g>
     </g>
    </g>
    <g id="ytick_8">
     <g id="line2d_13">
      <path d="M 54.438 28.27171 
L 450.432 28.27171 
" clip-path="url(#pfe3f95c4ef)" style="fill: none; stroke: #ffffff; stroke-width: 0.8; stroke-linecap: round"/>
     </g>
     <g id="text_14">
      <!-- 3000 -->
      <g style="fill: #262626" transform="translate(23.742 31.615023) scale(0.088 -0.088)">
       <use xlink:href="#DejaVuSans-33"/>
       <use xlink:href="#DejaVuSans-30" x="63.623047"/>
       <use xlink:href="#DejaVuSans-30" x="127.246094"/>
       <use xlink:href="#DejaVuSans-30" x="190.869141"/>
      </g>
     </g>
    </g>
    <g id="text_15">
     <!-- prixm2_smooth -->
     <g style="fill: #262626" transform="translate(17.4785 194.58825) rotate(-90) scale(0.096 -0.096)">
      <defs>
       <path id="DejaVuSans-70" d="M 1159 525 
L 1159 -1331 
L 581 -1331 
L 581 3500 
L 1159 3500 
L 1159 2969 
Q 1341 3281 1617 3432 
Q 1894 3584 2278 3584 
Q 2916 3584 3314 3078 
Q 3713 2572 3713 1747 
Q 3713 922 3314 415 
Q 2916 -91 2278 -91 
Q 1894 -91 1617 61 
Q 1341 213 1159 525 
z
M 3116 1747 
Q 3116 2381 2855 2742 
Q 2594 3103 2138 3103 
Q 1681 3103 1420 2742 
Q 1159 2381 1159 1747 
Q 1159 1113 1420 752 
Q 1681 391 2138 391 
Q 2594 391 2855 752 
Q 3116 1113 3116 1747 
z
" transform="scale(0.015625)"/>
       <path id="DejaVuSans-72" d="M 2631 2963 
Q 2534 3019 2420 3045 
Q 2306 3072 2169 3072 
Q 1681 3072 1420 2755 
Q 1159 2438 1159 1844 
L 1159 0 
L 581 0 
L 581 3500 
L 1159 3500 
L 1159 2956 
Q 1341 3275 1631 3429 
Q 1922 3584 2338 3584 
Q 2397 3584 2469 3576 
Q 2541 3569 2628 3553 
L 2631 2963 
z
" transform="scale(0.015625)"/>
       <path id="DejaVuSans-78" d="M 3513 3500 
L 2247 1797 
L 3578 0 
L 2900 0 
L 1881 1375 
L 863 0 
L 184 0 
L 1544 1831 
L 300 3500 
L 978 3500 
L 1906 2253 
L 2834 3500 
L 3513 3500 
z
" transform="scale(0.015625)"/>
       <path id="DejaVuSans-73" d="M 2834 3397 
L 2834 2853 
Q 2591 2978 2328 3040 
Q 2066 3103 1784 3103 
Q 1356 3103 1142 2972 
Q 928 2841 928 2578 
Q 928 2378 1081 2264 
Q 1234 2150 1697 2047 
L 1894 2003 
Q 2506 1872 2764 1633 
Q 3022 1394 3022 966 
Q 3022 478 2636 193 
Q 2250 -91 1575 -91 
Q 1294 -91 989 -36 
Q 684 19 347 128 
L 347 722 
Q 666 556 975 473 
Q 1284 391 1588 391 
Q 1994 391 2212 530 
Q 2431 669 2431 922 
Q 2431 1156 2273 1281 
Q 2116 1406 1581 1522 
L 1381 1569 
Q 847 1681 609 1914 
Q 372 2147 372 2553 
Q 372 3047 722 3315 
Q 1072 3584 1716 3584 
Q 2034 3584 2315 3537 
Q 2597 3491 2834 3397 
z
" transform="scale(0.015625)"/>
       <path id="DejaVuSans-68" d="M 3513 2113 
L 3513 0 
L 2938 0 
L 2938 2094 
Q 2938 2591 2744 2837 
Q 2550 3084 2163 3084 
Q 1697 3084 1428 2787 
Q 1159 2491 1159 1978 
L 1159 0 
L 581 0 
L 581 4863 
L 1159 4863 
L 1159 2956 
Q 1366 3272 1645 3428 
Q 1925 3584 2291 3584 
Q 2894 3584 3203 3211 
Q 3513 2838 3513 2113 
z
" transform="scale(0.015625)"/>
      </defs>
      <use xlink:href="#DejaVuSans-70"/>
      <use xlink:href="#DejaVuSans-72" x="63.476562"/>
      <use xlink:href="#DejaVuSans-69" x="104.589844"/>
      <use xlink:href="#DejaVuSans-78" x="132.373047"/>
      <use xlink:href="#DejaVuSans-6d" x="191.552734"/>
      <use xlink:href="#DejaVuSans-32" x="288.964844"/>
      <use xlink:href="#DejaVuSans-5f" x="352.587891"/>
      <use xlink:href="#DejaVuSans-73" x="402.587891"/>
      <use xlink:href="#DejaVuSans-6d" x="454.6875"/>
      <use xlink:href="#DejaVuSans-6f" x="552.099609"/>
      <use xlink:href="#DejaVuSans-6f" x="613.28125"/>
      <use xlink:href="#DejaVuSans-74" x="674.462891"/>
      <use xlink:href="#DejaVuSans-68" x="713.671875"/>
     </g>
    </g>
   </g>
   <g id="PolyCollection_1"/>
   <g id="PolyCollection_2"/>
   <g id="line2d_14">
    <path d="M 72.437727 290.855455 
L 73.819285 283.436326 
L 74.411382 278.554056 
L 75.003478 271.651842 
L 75.79294 258.842951 
L 76.779767 238.115395 
L 78.161325 208.742362 
L 78.753421 199.706836 
L 79.148152 195.66148 
L 79.542883 193.357806 
L 79.740248 192.858038 
L 79.937614 192.774342 
L 80.134979 193.081937 
L 80.52971 194.733555 
L 81.121806 199.131716 
L 82.70073 212.595987 
L 83.292826 215.464063 
L 83.687557 216.495874 
L 84.082288 216.983305 
L 85.26648 217.71343 
L 85.661211 218.654894 
L 86.055942 220.34468 
L 86.450673 222.922324 
L 87.042769 228.54281 
L 87.832231 238.909467 
L 90.200616 273.496165 
L 90.792712 278.774714 
L 91.187443 281.001668 
L 91.582174 282.16405 
L 91.779539 282.355007 
L 91.976905 282.296612 
L 92.17427 282.000107 
L 92.569001 280.747351 
L 93.161097 277.455324 
L 93.950559 271.123807 
L 95.332117 257.344746 
L 96.713675 244.182303 
L 97.305772 240.210622 
L 97.700502 238.518793 
L 98.095233 237.738801 
L 98.292599 237.714668 
L 98.489964 237.938989 
L 98.884695 239.11826 
L 99.279426 241.197168 
L 99.871522 245.637545 
L 101.450446 258.854249 
L 101.845176 260.879793 
L 102.239907 261.925934 
L 102.437273 262.044235 
L 102.634638 261.884203 
L 102.832004 261.446945 
L 103.226734 259.774573 
L 103.818831 255.540112 
L 104.805658 245.832354 
L 105.792485 236.764397 
L 106.384581 233.399378 
L 106.779312 232.416578 
L 106.976678 232.341313 
L 107.174043 232.549812 
L 107.568774 233.809751 
L 107.963505 236.135718 
L 108.555601 241.331946 
L 109.542428 252.824512 
L 110.726621 266.50106 
L 111.318717 271.504743 
L 111.910813 274.629336 
L 112.305544 275.58571 
L 112.50291 275.732283 
L 112.700275 275.669003 
L 113.095006 274.966452 
L 113.489737 273.614601 
L 114.279199 269.699366 
L 115.266026 264.750012 
L 115.660757 263.422964 
L 116.055487 262.715136 
L 116.252853 262.626283 
L 116.450218 262.724332 
L 116.844949 263.488071 
L 117.23968 264.98021 
L 117.831776 268.3764 
L 120.002796 283.157097 
L 120.397527 284.424352 
L 120.594892 284.748721 
L 120.792258 284.853066 
L 120.989623 284.731493 
L 121.186989 284.381787 
L 121.581719 283.007395 
L 121.97645 280.783759 
L 122.568547 276.09875 
L 123.555374 266.083824 
L 124.739566 254.27264 
L 125.331663 249.938622 
L 125.923759 247.272028 
L 126.31849 246.543858 
L 126.515855 246.504859 
L 126.713221 246.680968 
L 127.107952 247.658225 
L 127.502682 249.410713 
L 128.094779 253.263724 
L 129.081606 261.738094 
L 130.463164 273.408225 
L 131.05526 276.815516 
L 131.449991 278.244451 
L 131.844722 278.910266 
L 132.042087 278.943264 
L 132.239453 278.773261 
L 132.634184 277.828203 
L 133.028914 276.104909 
L 133.621011 272.209894 
L 134.410472 265.148852 
L 136.581492 244.447575 
L 137.173589 241.097371 
L 137.568319 239.858147 
L 137.765685 239.564663 
L 137.96305 239.495022 
L 138.160416 239.650493 
L 138.555147 240.626748 
L 138.949877 242.44219 
L 139.541974 246.504863 
L 140.528801 255.422062 
L 141.515628 264.115457 
L 142.107724 267.913919 
L 142.502455 269.579208 
L 142.897186 270.494481 
L 143.094551 270.674586 
L 143.291917 270.678723 
L 143.489282 270.517622 
L 143.884013 269.755737 
L 144.476109 267.773803 
L 146.449764 259.991926 
L 147.04186 258.7845 
L 147.436591 258.417921 
L 147.831322 258.377084 
L 148.226053 258.609635 
L 148.818149 259.307052 
L 150.002342 260.868428 
L 150.397072 261.145621 
L 150.791803 261.213536 
L 151.186534 261.057174 
L 151.77863 260.4372 
L 152.568092 259.143791 
L 153.554919 257.560911 
L 154.147016 257.031812 
L 154.541746 256.947829 
L 154.936477 257.09841 
L 155.331208 257.478096 
L 155.923304 258.422314 
L 156.910132 260.637758 
L 158.29169 263.817585 
L 159.081151 265.152003 
L 159.673248 265.823019 
L 160.265344 266.197692 
L 160.85744 266.273328 
L 161.449536 266.04259 
L 162.041633 265.490143 
L 162.633729 264.599 
L 163.423191 262.878047 
L 164.410018 259.990608 
L 166.383672 253.814843 
L 166.975769 252.557522 
L 167.567865 251.791855 
L 167.962596 251.566695 
L 168.357327 251.555164 
L 168.752057 251.728081 
L 169.344154 252.238064 
L 170.528346 253.420091 
L 170.923077 253.599662 
L 171.317808 253.543688 
L 171.712539 253.18024 
L 172.10727 252.450431 
L 172.699366 250.594872 
L 173.291462 247.843659 
L 174.278289 241.892224 
L 175.265117 236.091411 
L 175.857213 233.786218 
L 176.251944 233.050126 
L 176.449309 232.959412 
L 176.646675 233.062506 
L 177.041406 233.854898 
L 177.436136 235.399086 
L 178.028233 238.919643 
L 179.212425 248.203789 
L 180.001887 253.767445 
L 180.593983 256.517016 
L 180.988714 257.453111 
L 181.18608 257.63634 
L 181.383445 257.632192 
L 181.58081 257.447514 
L 181.975541 256.582238 
L 182.567638 254.295904 
L 184.541292 245.114316 
L 185.133388 243.686489 
L 185.528119 243.217756 
L 185.92285 243.073671 
L 186.317581 243.165259 
L 187.699139 243.793731 
L 188.09387 243.656858 
L 188.4886 243.251523 
L 188.883331 242.546371 
L 189.475428 240.91892 
L 190.264889 237.827711 
L 193.028005 225.79124 
L 193.620102 224.472725 
L 194.014833 223.969567 
L 194.409563 223.724592 
L 195.00166 223.657248 
L 195.593756 223.549218 
L 195.988487 223.158463 
L 196.383218 222.271059 
L 196.777949 220.676341 
L 197.172679 218.187266 
L 197.764776 212.504732 
L 198.356872 204.448296 
L 199.541065 183.826157 
L 200.330526 171.12901 
L 200.922623 164.95395 
L 201.317353 163.183368 
L 201.514719 163.091236 
L 201.712084 163.542833 
L 202.106815 166.053825 
L 202.501546 170.559893 
L 203.093642 180.342312 
L 205.659393 229.383066 
L 206.251489 235.961547 
L 206.843586 240.186026 
L 207.238316 241.891325 
L 207.633047 242.88646 
L 208.027778 243.32606 
L 208.422509 243.346799 
L 208.81724 243.055938 
L 209.409336 242.184728 
L 210.001432 240.874542 
L 210.593529 239.110019 
L 211.38299 235.937546 
L 212.172452 231.752363 
L 213.356645 223.902005 
L 215.132934 211.850626 
L 215.72503 209.090239 
L 216.119761 207.960767 
L 216.514492 207.540002 
L 216.711857 207.626413 
L 216.909222 207.92306 
L 217.303953 209.167582 
L 217.698684 211.2811 
L 218.290781 215.949824 
L 219.277608 226.454957 
L 220.4618 238.955254 
L 221.053897 243.220046 
L 221.448627 244.958302 
L 221.843358 245.768091 
L 222.040724 245.839145 
L 222.238089 245.705049 
L 222.63282 244.898381 
L 223.224916 242.706735 
L 224.80384 236.017025 
L 225.395936 234.506812 
L 226.185398 233.257965 
L 226.777494 232.214314 
L 227.172225 231.080125 
L 227.566956 229.357199 
L 228.159052 225.331452 
L 228.751148 219.371444 
L 229.54061 208.775212 
L 231.316899 183.493329 
L 231.908995 178.573228 
L 232.303726 177.052881 
L 232.501092 176.863974 
L 232.698457 177.058538 
L 232.895822 177.62929 
L 233.290553 179.834355 
L 233.88265 185.388917 
L 234.869477 197.974724 
L 235.856304 209.781817 
L 236.4484 214.487003 
L 236.843131 216.253199 
L 237.040496 216.701979 
L 237.237862 216.864366 
L 237.435227 216.74976 
L 237.632593 216.37293 
L 238.027324 214.916507 
L 238.61942 211.400501 
L 240.000978 202.033171 
L 240.395709 200.348081 
L 240.79044 199.488274 
L 240.987805 199.397432 
L 241.18517 199.536954 
L 241.579901 200.486353 
L 241.974632 202.244466 
L 242.566728 206.035495 
L 244.540383 220.190516 
L 245.132479 222.756992 
L 245.52721 223.794782 
L 245.921941 224.287638 
L 246.119306 224.333164 
L 246.316672 224.247434 
L 246.711403 223.690143 
L 247.106133 222.628695 
L 247.69823 220.104253 
L 248.290326 216.463799 
L 249.079788 209.919137 
L 250.066615 199.525975 
L 251.645538 182.789969 
L 252.237635 178.90139 
L 252.632365 177.651499 
L 252.829731 177.488477 
L 253.027096 177.648518 
L 253.224462 178.135929 
L 253.619193 180.080286 
L 254.013923 183.237485 
L 254.60602 189.853846 
L 255.987578 209.362504 
L 256.974405 221.678275 
L 257.566501 227.037403 
L 258.158597 230.650238 
L 258.553328 232.136807 
L 258.948059 232.967053 
L 259.34279 233.226612 
L 259.737521 232.999407 
L 260.132252 232.356508 
L 260.724348 230.720543 
L 261.316444 228.356091 
L 262.105906 224.137921 
L 263.092733 217.427085 
L 264.869022 204.867482 
L 265.658484 201.065014 
L 266.25058 199.336104 
L 266.842676 198.426426 
L 267.632138 197.83732 
L 268.224234 197.227484 
L 268.618965 196.491064 
L 269.211062 194.69607 
L 269.803158 192.061684 
L 272.171543 179.884938 
L 272.763639 178.333302 
L 273.15837 177.77026 
L 273.553101 177.519803 
L 273.947832 177.499024 
L 274.737294 177.786373 
L 275.526755 178.030991 
L 276.118852 178.019708 
L 277.697775 177.755661 
L 278.092506 177.905567 
L 278.487237 178.244123 
L 278.881968 178.807494 
L 279.474064 180.120227 
L 280.06616 182.00431 
L 280.855622 185.300613 
L 283.421373 197.212507 
L 284.013469 198.698907 
L 284.4082 199.160431 
L 284.605565 199.218405 
L 284.802931 199.15872 
L 285.197661 198.690058 
L 285.592392 197.781501 
L 286.184489 195.730609 
L 288.355508 186.922927 
L 288.750239 186.176222 
L 289.14497 185.920002 
L 289.342336 185.985554 
L 289.737066 186.502403 
L 290.131797 187.502895 
L 290.723894 189.748923 
L 292.894913 199.246547 
L 293.289644 200.099495 
L 293.684375 200.486467 
L 293.88174 200.501152 
L 294.276471 200.183147 
L 294.671202 199.436822 
L 295.263298 197.654535 
L 296.250126 193.609822 
L 297.631684 187.887713 
L 298.421145 185.491949 
L 299.013242 184.303489 
L 299.605338 183.673432 
L 300.000069 183.567132 
L 300.3948 183.710473 
L 300.789531 184.099848 
L 301.381627 185.128842 
L 301.973723 186.646715 
L 302.96055 189.977748 
L 304.342108 194.745892 
L 304.934205 196.06072 
L 305.328935 196.49508 
L 305.723666 196.51225 
L 306.118397 196.084857 
L 306.513128 195.212685 
L 307.105224 193.137051 
L 307.894686 189.271505 
L 309.86834 178.982914 
L 310.460437 177.117209 
L 310.855167 176.401883 
L 311.249898 176.128985 
L 311.644629 176.285558 
L 312.03936 176.836912 
L 312.631456 178.293395 
L 313.420918 181.110801 
L 314.605111 186.379011 
L 316.184034 193.297 
L 316.77613 195.05267 
L 317.170861 195.718405 
L 317.368227 195.864614 
L 317.565592 195.872385 
L 317.762958 195.732627 
L 318.157688 194.981315 
L 318.552419 193.568991 
L 319.144516 190.193729 
L 319.736612 185.411035 
L 320.723439 175.133806 
L 322.302362 158.210866 
L 322.894459 153.801963 
L 323.28919 151.885355 
L 323.68392 150.883799 
L 323.881286 150.733637 
L 324.078651 150.813377 
L 324.276017 151.115359 
L 324.670748 152.33789 
L 325.262844 155.461599 
L 326.249671 162.658627 
L 327.433864 171.273205 
L 328.223325 175.528555 
L 328.815422 177.651399 
L 329.210153 178.536282 
L 329.604883 178.997089 
L 329.999614 179.035885 
L 330.394345 178.654897 
L 330.789076 177.858614 
L 331.381172 175.913642 
L 332.170634 172.096424 
L 334.539019 159.248442 
L 334.93375 158.250903 
L 335.328481 157.848405 
L 335.525846 157.875716 
L 335.920577 158.368833 
L 336.315308 159.385023 
L 336.907404 161.641497 
L 338.881059 169.962642 
L 339.473155 171.462935 
L 340.065251 172.412641 
L 340.657347 172.988212 
L 342.038906 173.892551 
L 342.828367 174.245004 
L 343.223098 174.216763 
L 343.617829 173.937052 
L 344.01256 173.320967 
L 344.407291 172.303239 
L 344.999387 169.966323 
L 345.788849 165.534235 
L 347.367772 156.038496 
L 347.959868 154.015648 
L 348.354599 153.47638 
L 348.551965 153.46166 
L 348.74933 153.612068 
L 349.144061 154.368089 
L 349.736157 156.392999 
L 351.315081 162.712116 
L 351.709812 163.621871 
L 352.104542 164.097968 
L 352.499273 164.154967 
L 352.894004 163.853658 
L 353.4861 162.932655 
L 355.65712 158.926057 
L 357.038678 156.69613 
L 358.025505 154.569096 
L 360.591256 148.63761 
L 361.972814 145.594891 
L 363.946468 140.783824 
L 364.341199 140.350069 
L 364.73593 140.321162 
L 365.130661 140.763759 
L 365.525392 141.703981 
L 366.117488 143.987578 
L 366.90695 148.195378 
L 368.288508 155.682639 
L 368.880604 157.863663 
L 369.4727 159.173252 
L 369.867431 159.609977 
L 370.262162 159.783908 
L 371.051624 159.751829 
L 371.64372 159.804339 
L 372.038451 160.030188 
L 372.433182 160.459378 
L 373.025278 161.487208 
L 374.012105 163.89016 
L 375.196298 166.765969 
L 376.183125 168.5347 
L 377.959414 171.399555 
L 378.946241 173.698998 
L 380.525164 177.561449 
L 381.117261 178.320645 
L 381.511992 178.445759 
L 381.906722 178.239612 
L 382.301453 177.716274 
L 382.89355 176.443639 
L 385.656666 169.406789 
L 386.643493 167.254506 
L 387.235589 165.501178 
L 388.025051 162.262025 
L 389.011878 156.843172 
L 390.393436 148.935068 
L 390.985532 146.600206 
L 391.380263 145.703515 
L 391.774994 145.434079 
L 391.972359 145.54921 
L 392.36709 146.282645 
L 392.761821 147.653763 
L 393.353917 150.705177 
L 395.524937 163.695991 
L 396.117033 165.457723 
L 396.511764 166.007909 
L 396.906495 166.128389 
L 397.301226 165.922368 
L 397.893322 165.265999 
L 398.88015 164.111485 
L 399.669611 163.5547 
L 400.656438 162.928767 
L 401.248535 162.175629 
L 401.840631 160.909197 
L 402.432727 159.078471 
L 403.222189 155.904727 
L 404.998478 147.497925 
L 406.577401 139.355059 
L 407.564228 132.956173 
L 408.551056 125.009871 
L 410.919441 104.668977 
L 411.511537 101.490013 
L 411.906268 100.289186 
L 412.103633 100.012536 
L 412.300999 99.969953 
L 412.498364 100.172605 
L 412.893095 101.345409 
L 413.287826 103.563587 
L 413.879922 108.782942 
L 414.669384 118.67101 
L 417.037769 151.338592 
L 417.629865 155.951057 
L 418.024596 157.704325 
L 418.419327 158.400172 
L 418.616693 158.375393 
L 418.814058 158.124281 
L 419.208789 157.036021 
L 419.800885 154.387409 
L 420.787712 149.727041 
L 421.182443 148.692858 
L 421.379809 148.495977 
L 421.577174 148.54978 
L 421.774539 148.875784 
L 422.16927 150.399712 
L 422.564001 153.108429 
L 423.156097 159.182792 
L 425.129752 183.401011 
L 425.524483 185.586066 
L 425.721848 186.023105 
L 425.919214 185.992449 
L 426.116579 185.486744 
L 426.51131 183.091288 
L 427.103406 176.586415 
L 428.484964 159.22825 
L 428.68233 158.156262 
L 428.879695 157.801261 
L 429.07706 158.271961 
L 429.274426 159.664444 
L 429.669157 165.516692 
L 430.063888 175.757628 
L 430.655984 199.286072 
L 431.445446 242.742429 
L 432.037542 279.339729 
L 432.037542 279.339729 
" clip-path="url(#pfe3f95c4ef)" style="fill: none; stroke: #1f77b4; stroke-width: 1.2; stroke-linecap: round"/>
   </g>
   <g id="line2d_15">
    <path d="M 72.437727 95.024424 
L 73.819285 178.395913 
L 74.608747 211.898802 
L 75.200843 227.94349 
L 75.79294 237.075483 
L 76.18767 240.239489 
L 76.582401 241.856188 
L 76.977132 242.606115 
L 77.569228 243.376797 
L 77.963959 244.257126 
L 78.35869 245.672895 
L 78.950786 248.747676 
L 80.134979 255.237463 
L 80.52971 256.202789 
L 80.727075 256.271664 
L 80.924441 256.02456 
L 81.121806 255.440596 
L 81.516537 253.220133 
L 81.911268 249.613559 
L 82.503364 241.946225 
L 84.871749 206.449343 
L 85.463846 202.163254 
L 85.858577 200.89911 
L 86.055942 200.723264 
L 86.253307 200.831057 
L 86.450673 201.203147 
L 86.845404 202.654039 
L 87.4375 206.266932 
L 88.226962 212.973249 
L 89.411154 225.552407 
L 91.187443 244.903923 
L 91.779539 248.61737 
L 91.976905 249.21501 
L 92.17427 249.431037 
L 92.371636 249.235216 
L 92.569001 248.603699 
L 92.963732 245.977407 
L 93.358463 241.531609 
L 93.950559 231.800398 
L 95.134752 206.299323 
L 95.924214 190.939077 
L 96.51631 183.274835 
L 96.911041 180.547258 
L 97.108406 179.9186 
L 97.305772 179.760289 
L 97.503137 180.043134 
L 97.897868 181.765978 
L 98.489964 186.426349 
L 99.871522 198.452039 
L 100.266253 200.431652 
L 100.660984 201.456604 
L 100.858349 201.632564 
L 101.055715 201.614551 
L 101.450446 201.1362 
L 102.239907 199.693706 
L 102.437273 199.529303 
L 102.634638 199.542831 
L 102.832004 199.777084 
L 103.226734 201.043215 
L 103.621465 203.505787 
L 104.213562 209.395785 
L 105.98985 230.331799 
L 106.187216 231.195894 
L 106.384581 231.442251 
L 106.581947 230.999529 
L 106.779312 229.809386 
L 107.174043 225.032747 
L 107.568774 216.989248 
L 108.16087 199.3278 
L 109.345063 153.15645 
L 110.134525 126.601315 
L 110.529255 118.092378 
L 110.923986 113.87581 
L 111.121352 113.517179 
L 111.318717 114.349317 
L 111.516083 116.358008 
L 111.910813 123.721737 
L 112.50291 141.847385 
L 113.687102 190.390942 
L 114.476564 218.66316 
L 115.06866 232.079568 
L 115.463391 236.381452 
L 115.660757 237.108478 
L 115.858122 236.920535 
L 116.055487 235.867118 
L 116.450218 231.444835 
L 117.042315 220.417795 
L 118.621238 186.447413 
L 119.015969 181.29606 
L 119.4107 178.540118 
L 119.608065 178.12077 
L 119.805431 178.34518 
L 120.002796 179.200425 
L 120.397527 182.691729 
L 120.989623 191.69584 
L 121.97645 212.493184 
L 123.160643 236.428263 
L 123.752739 244.724849 
L 124.344836 249.838561 
L 124.739566 251.573203 
L 125.134297 252.178539 
L 125.331663 252.135078 
L 125.726394 251.528986 
L 126.31849 249.841103 
L 127.305317 246.845971 
L 127.897413 245.656098 
L 128.48951 244.983826 
L 129.871068 243.838931 
L 130.265798 243.153216 
L 130.857895 241.539813 
L 131.449991 239.149494 
L 132.239453 234.843006 
L 135.002569 218.003164 
L 135.3973 216.896966 
L 135.792031 216.45181 
L 135.989396 216.492137 
L 136.186761 216.70841 
L 136.581492 217.644087 
L 137.173589 220.078129 
L 138.357781 225.580453 
L 138.752512 226.277071 
L 138.949877 226.179806 
L 139.147243 225.719645 
L 139.541974 223.538549 
L 139.936705 219.454241 
L 140.528801 209.478323 
L 141.120897 195.130804 
L 142.30509 158.679429 
L 143.291917 131.418802 
L 143.884013 121.795757 
L 144.278744 119.453288 
L 144.476109 119.640323 
L 144.673475 120.760373 
L 145.068206 125.789962 
L 145.462937 134.368843 
L 146.055033 152.942577 
L 147.04186 193.281037 
L 148.226053 240.996871 
L 148.818149 258.747794 
L 149.410245 270.404926 
L 149.804976 274.534346 
L 150.002342 275.515262 
L 150.199707 275.79755 
L 150.397072 275.408287 
L 150.594438 274.380898 
L 150.989169 270.57243 
L 151.581265 261.188172 
L 152.370727 244.097338 
L 154.147016 203.748117 
L 154.936477 191.408302 
L 155.528574 185.620565 
L 155.923304 183.374975 
L 156.318035 182.276454 
L 156.515401 182.102855 
L 156.712766 182.147108 
L 157.107497 182.789416 
L 157.502228 184.014528 
L 158.094324 186.620323 
L 158.883786 191.151136 
L 159.673248 197.025359 
L 160.462709 204.807971 
L 161.449536 217.440327 
L 163.02846 238.629033 
L 163.620556 243.867591 
L 164.015287 245.865081 
L 164.212653 246.366449 
L 164.410018 246.528942 
L 164.607383 246.355362 
L 164.804749 245.85517 
L 165.19948 243.9451 
L 165.791576 239.223426 
L 167.567865 222.300781 
L 167.962596 220.318247 
L 168.159961 219.790251 
L 168.357327 219.597944 
L 168.554692 219.752772 
L 168.752057 220.258828 
L 169.146788 222.303455 
L 169.738885 227.680223 
L 170.528346 237.735173 
L 171.712539 252.768856 
L 172.304635 257.456651 
L 172.699366 258.905042 
L 172.896731 259.07872 
L 173.094097 258.881364 
L 173.291462 258.319302 
L 173.686193 256.162525 
L 174.278289 250.747533 
L 175.462482 236.077411 
L 176.251944 227.4195 
L 176.84404 223.188872 
L 177.238771 221.708492 
L 177.436136 221.374284 
L 177.633502 221.297533 
L 177.830867 221.461006 
L 178.225598 222.414362 
L 178.817694 224.955099 
L 180.001887 230.53854 
L 180.396618 231.577417 
L 180.593983 231.829108 
L 180.791349 231.881462 
L 180.988714 231.724295 
L 181.383445 230.762595 
L 181.778176 228.948809 
L 182.370272 224.794506 
L 183.159734 217.330009 
L 184.738657 201.704746 
L 185.330754 197.620693 
L 185.725484 195.827529 
L 186.120215 194.859563 
L 186.317581 194.692919 
L 186.514946 194.736797 
L 186.712312 194.987481 
L 187.107042 196.084485 
L 187.501773 197.918597 
L 188.09387 201.864858 
L 188.883331 208.85033 
L 190.462255 225.699901 
L 191.646447 237.2653 
L 192.238544 241.369738 
L 192.633275 243.121358 
L 193.028005 243.904309 
L 193.225371 243.888137 
L 193.422736 243.579122 
L 193.817467 242.029579 
L 194.212198 239.170429 
L 194.804294 232.332668 
L 195.396391 222.46894 
L 196.185852 205.083895 
L 197.370045 172.89328 
L 198.751603 136.023804 
L 199.343699 124.455332 
L 199.73843 119.163267 
L 200.133161 116.178331 
L 200.330526 115.62178 
L 200.527892 115.71258 
L 200.725257 116.458152 
L 201.119988 119.899002 
L 201.514719 125.821323 
L 202.106815 138.709464 
L 203.291008 172.365985 
L 204.080469 192.982385 
L 204.672566 203.388247 
L 205.067297 206.931997 
L 205.264662 207.581786 
L 205.462028 207.472863 
L 205.659393 206.617536 
L 206.054124 202.79773 
L 206.64622 192.675342 
L 208.619874 151.490009 
L 209.014605 147.628132 
L 209.211971 146.658925 
L 209.409336 146.351762 
L 209.606702 146.702572 
L 209.804067 147.691945 
L 210.198798 151.437437 
L 210.790894 160.598223 
L 212.764548 196.037792 
L 213.159279 199.808026 
L 213.55401 201.796481 
L 213.751376 202.130887 
L 213.948741 202.049496 
L 214.146106 201.580983 
L 214.540837 199.631346 
L 215.132934 194.854448 
L 216.711857 180.261721 
L 217.303953 176.835599 
L 217.698684 175.542957 
L 218.093415 175.060629 
L 218.290781 175.11671 
L 218.488146 175.365395 
L 218.882877 176.423191 
L 219.277608 178.203807 
L 219.869704 182.187207 
L 220.4618 187.697177 
L 221.251262 197.178964 
L 223.619647 228.230713 
L 224.014378 231.112671 
L 224.409109 232.655764 
L 224.606474 232.874526 
L 224.80384 232.707677 
L 225.001205 232.149329 
L 225.395936 229.864038 
L 225.790667 226.090452 
L 226.382763 218.02525 
L 227.36959 200.589213 
L 228.553783 179.980356 
L 229.343245 170.211091 
L 229.935341 165.682498 
L 230.330072 163.891944 
L 230.724803 162.90338 
L 231.119533 162.527483 
L 231.514264 162.586384 
L 231.908995 162.948352 
L 232.501092 163.948253 
L 233.093188 165.639672 
L 233.487919 167.363312 
L 234.080015 171.250736 
L 234.672111 177.090324 
L 235.461573 188.061881 
L 236.843131 212.371549 
L 237.829958 227.561368 
L 238.422054 233.411366 
L 238.816785 235.511617 
L 239.014151 235.986878 
L 239.211516 236.077508 
L 239.408882 235.79014 
L 239.803612 234.137676 
L 240.198343 231.197427 
L 240.79044 224.930276 
L 242.764094 201.605042 
L 243.35619 197.88211 
L 243.750921 196.765412 
L 243.948286 196.607346 
L 244.145652 196.696478 
L 244.540383 197.520432 
L 245.132479 199.875513 
L 246.119306 203.995717 
L 246.514037 204.689632 
L 246.711403 204.679719 
L 246.908768 204.394589 
L 247.303499 202.924774 
L 247.69823 200.204634 
L 248.290326 193.915495 
L 249.277153 179.512824 
L 250.26398 165.435206 
L 250.856077 159.865159 
L 251.250807 157.998925 
L 251.448173 157.677271 
L 251.645538 157.767845 
L 251.842904 158.262369 
L 252.237635 160.384283 
L 252.829731 165.884934 
L 254.60602 185.648269 
L 255.000751 187.800557 
L 255.198116 188.305778 
L 255.395481 188.398886 
L 255.592847 188.066294 
L 255.987578 186.111266 
L 256.382309 182.498089 
L 256.974405 174.402964 
L 257.961232 156.647808 
L 258.948059 139.337303 
L 259.540156 131.655621 
L 260.132252 126.93568 
L 260.526983 125.525392 
L 260.724348 125.317579 
L 260.921714 125.41739 
L 261.119079 125.800837 
L 261.51381 127.303609 
L 262.105906 130.900346 
L 263.882195 143.131667 
L 264.474291 145.727082 
L 265.066388 147.428122 
L 266.447946 150.657 
L 266.842676 152.297167 
L 267.434773 156.062839 
L 268.026869 161.711047 
L 268.816331 172.138667 
L 270.98735 204.444617 
L 271.382081 207.566012 
L 271.776812 208.905046 
L 271.974178 208.827119 
L 272.171543 208.223738 
L 272.566274 205.412532 
L 272.961005 200.513939 
L 273.553101 189.748205 
L 274.737294 161.698085 
L 275.526755 145.084153 
L 276.118852 137.332875 
L 276.513583 135.231622 
L 276.710948 135.179985 
L 276.908313 135.798269 
L 277.303044 138.974173 
L 277.697775 144.48931 
L 278.289871 156.117921 
L 280.06616 195.071249 
L 280.658257 202.796655 
L 281.052987 205.415592 
L 281.250353 205.927394 
L 281.447718 205.910964 
L 281.645084 205.379007 
L 282.039815 202.854838 
L 282.434545 198.587643 
L 283.026642 189.611344 
L 284.4082 163.179518 
L 285.395027 146.267177 
L 285.987123 138.970361 
L 286.579219 134.471091 
L 286.97395 133.129425 
L 287.171316 132.951405 
L 287.368681 133.089755 
L 287.566047 133.529805 
L 287.960778 135.234557 
L 288.552874 139.445665 
L 290.526528 155.882321 
L 290.921259 157.447739 
L 291.118624 157.857128 
L 291.31599 158.009571 
L 291.513355 157.907077 
L 291.710721 157.558168 
L 292.105452 156.186782 
L 292.697548 152.840446 
L 294.079106 144.287583 
L 294.473837 143.068869 
L 294.671202 142.818278 
L 294.868568 142.83012 
L 295.065933 143.114318 
L 295.460664 144.50903 
L 295.855395 146.962746 
L 296.447491 152.339192 
L 297.434318 164.015068 
L 298.618511 177.588072 
L 299.210607 182.371213 
L 299.605338 184.415918 
L 300.000069 185.404371 
L 300.197434 185.4758 
L 300.3948 185.25585 
L 300.789531 183.928822 
L 301.184261 181.426302 
L 301.776358 175.602275 
L 302.565819 164.712678 
L 304.539474 134.588929 
L 305.13157 128.707185 
L 305.526301 126.202507 
L 305.921032 124.862553 
L 306.118397 124.609733 
L 306.315763 124.614205 
L 306.513128 124.854671 
L 306.907859 125.939835 
L 307.499955 128.621769 
L 308.881513 135.366482 
L 309.276244 136.503041 
L 309.670975 137.092473 
L 309.86834 137.179601 
L 310.065706 137.134761 
L 310.460437 136.687813 
L 311.052533 135.327968 
L 313.420918 128.623337 
L 316.578765 121.919937 
L 317.565592 119.585329 
L 318.157688 118.669742 
L 318.552419 118.441437 
L 318.94715 118.612023 
L 319.341881 119.237333 
L 319.736612 120.337225 
L 320.328708 122.804346 
L 322.499728 133.660352 
L 322.894459 134.614901 
L 323.28919 135.046046 
L 323.486555 135.07489 
L 323.881286 134.807306 
L 324.276017 134.196842 
L 325.065478 132.432299 
L 326.447036 129.335287 
L 327.828594 126.29316 
L 329.407518 122.405588 
L 329.802249 121.985383 
L 329.999614 121.964609 
L 330.19698 122.093964 
L 330.591711 122.856264 
L 330.986441 124.334247 
L 331.578538 127.817919 
L 333.749557 143.104617 
L 334.144288 144.180185 
L 334.341654 144.405568 
L 334.539019 144.433482 
L 334.736385 144.281036 
L 335.131115 143.535046 
L 336.512673 139.959848 
L 336.710039 139.806897 
L 336.907404 139.828501 
L 337.10477 140.039544 
L 337.499501 141.054929 
L 337.894231 142.833177 
L 338.486328 146.635082 
L 340.065251 157.602094 
L 340.459982 159.181974 
L 340.854713 159.963427 
L 341.052078 160.036598 
L 341.249444 159.896679 
L 341.644175 158.994613 
L 342.038906 157.318435 
L 342.631002 153.557874 
L 343.420464 146.763876 
L 344.604656 134.15557 
L 347.170407 105.699678 
L 347.762503 101.946015 
L 348.157234 100.808271 
L 348.354599 100.715507 
L 348.551965 100.959829 
L 348.946696 102.483344 
L 349.341426 105.356034 
L 349.933523 111.848416 
L 352.104542 139.093077 
L 352.499273 140.980696 
L 352.696639 141.313195 
L 352.894004 141.227389 
L 353.09137 140.726772 
L 353.4861 138.539863 
L 354.078197 132.726454 
L 355.065024 119.256491 
L 356.051851 106.68722 
L 356.643947 101.80045 
L 357.038678 100.011153 
L 357.236044 99.562438 
L 357.433409 99.395844 
L 357.630775 99.490997 
L 358.025505 100.352217 
L 358.617602 102.748669 
L 359.407063 106.040895 
L 359.801794 106.850994 
L 359.99916 106.896674 
L 360.196525 106.659184 
L 360.591256 105.248559 
L 360.985987 102.535269 
L 361.578083 96.218307 
L 363.551737 71.052219 
L 363.946468 69.177698 
L 364.143834 69.021028 
L 364.341199 69.431312 
L 364.538565 70.430075 
L 364.933295 74.221343 
L 365.328026 80.333355 
L 365.920123 93.271555 
L 367.104315 126.60649 
L 368.091142 152.077595 
L 368.683239 162.43839 
L 369.077969 166.539311 
L 369.4727 168.208063 
L 369.670066 168.123876 
L 369.867431 167.440577 
L 370.262162 164.363014 
L 370.656893 159.217845 
L 371.248989 148.391601 
L 373.81474 94.883453 
L 374.209471 90.671453 
L 374.604202 88.297913 
L 374.801567 87.804191 
L 374.998932 87.757092 
L 375.196298 88.134332 
L 375.591029 90.032153 
L 376.183125 95.065792 
L 377.762048 110.269511 
L 378.156779 112.060502 
L 378.354145 112.44245 
L 378.55151 112.462438 
L 378.748876 112.117158 
L 379.143606 110.361497 
L 379.538337 107.31603 
L 380.130434 100.88729 
L 382.301453 74.316144 
L 382.89355 69.686221 
L 383.485646 66.765279 
L 383.880377 65.76156 
L 384.077742 65.534609 
L 384.275108 65.486088 
L 384.472473 65.611966 
L 384.867204 66.36942 
L 385.261935 67.768834 
L 385.854031 70.971947 
L 386.643493 76.996166 
L 387.827685 88.465763 
L 389.209243 101.764357 
L 389.80134 105.968803 
L 390.393436 108.593014 
L 390.788167 109.324572 
L 390.985532 109.375774 
L 391.182898 109.222061 
L 391.577629 108.336846 
L 391.972359 106.774977 
L 392.564456 103.483148 
L 393.748648 95.233555 
L 394.932841 85.796022 
L 395.722303 77.713274 
L 396.511764 67.079273 
L 397.695957 47.012756 
L 398.682784 31.278293 
L 399.27488 25.322129 
L 399.669611 23.724545 
L 399.866977 23.769469 
L 400.064342 24.419374 
L 400.459073 27.611083 
L 400.853804 33.360466 
L 401.4459 46.53359 
L 402.235362 70.9359 
L 404.406382 144.80851 
L 404.998478 158.0596 
L 405.590574 166.424964 
L 405.985305 169.375877 
L 406.380036 170.495811 
L 406.577401 170.474976 
L 406.774767 170.1318 
L 407.169498 168.68306 
L 407.761594 165.340649 
L 409.537883 154.714808 
L 410.52471 148.838727 
L 411.314172 142.396999 
L 412.103633 133.904268 
L 413.879922 113.6662 
L 414.472019 109.511714 
L 414.866749 107.966501 
L 415.26148 107.39904 
L 415.458846 107.447287 
L 415.853577 108.082457 
L 416.445673 109.856058 
L 417.037769 111.632364 
L 417.4325 112.2827 
L 417.629865 112.349831 
L 417.827231 112.215091 
L 418.221962 111.295719 
L 418.616693 109.519565 
L 419.208789 105.566245 
L 420.392981 96.870498 
L 420.787712 95.132786 
L 420.985078 94.674989 
L 421.182443 94.531371 
L 421.379809 94.72277 
L 421.577174 95.261949 
L 421.971905 97.393121 
L 422.366636 100.862681 
L 422.958732 108.153405 
L 425.327117 141.682505 
L 425.919214 146.21026 
L 426.313944 147.841476 
L 426.51131 148.242941 
L 426.708675 148.377032 
L 426.906041 148.253383 
L 427.300772 147.279483 
L 427.695502 145.421743 
L 428.287599 141.188807 
L 429.07706 133.187403 
L 429.866522 122.631803 
L 430.853349 105.941368 
L 432.432273 76.810607 
L 432.432273 76.810607 
" clip-path="url(#pfe3f95c4ef)" style="fill: none; stroke-dasharray: 4.8,1.8; stroke-dashoffset: 0; stroke: #ff7f0e; stroke-width: 1.2"/>
   </g>
   <g id="line2d_16"/>
   <g id="line2d_17"/>
   <g id="patch_3">
    <path d="M 54.438 304.212 
L 54.438 10.368 
" style="fill: none; stroke: #ffffff; stroke-linejoin: miter; stroke-linecap: square"/>
   </g>
   <g id="patch_4">
    <path d="M 450.432 304.212 
L 450.432 10.368 
" style="fill: none; stroke: #ffffff; stroke-linejoin: miter; stroke-linecap: square"/>
   </g>
   <g id="patch_5">
    <path d="M 54.438 304.212 
L 450.432 304.212 
" style="fill: none; stroke: #ffffff; stroke-linejoin: miter; stroke-linecap: square"/>
   </g>
   <g id="patch_6">
    <path d="M 54.438 10.368 
L 450.432 10.368 
" style="fill: none; stroke: #ffffff; stroke-linejoin: miter; stroke-linecap: square"/>
   </g>
   <g id="legend_1">
    <g id="patch_7">
     <path d="M 60.598 57.1995 
L 138.1565 57.1995 
Q 139.9165 57.1995 139.9165 55.4395 
L 139.9165 16.528 
Q 139.9165 14.768 138.1565 14.768 
L 60.598 14.768 
Q 58.838 14.768 58.838 16.528 
L 58.838 55.4395 
Q 58.838 57.1995 60.598 57.1995 
z
" style="fill: #e6e6e6; opacity: 0.8; stroke: #cccccc; stroke-width: 0.8; stroke-linejoin: miter"/>
    </g>
    <g id="text_16">
     <!-- nom_commune -->
     <g style="fill: #262626" transform="translate(62.358 25.5825) scale(0.096 -0.096)">
      <defs>
       <path id="DejaVuSans-63" d="M 3122 3366 
L 3122 2828 
Q 2878 2963 2633 3030 
Q 2388 3097 2138 3097 
Q 1578 3097 1268 2742 
Q 959 2388 959 1747 
Q 959 1106 1268 751 
Q 1578 397 2138 397 
Q 2388 397 2633 464 
Q 2878 531 3122 666 
L 3122 134 
Q 2881 22 2623 -34 
Q 2366 -91 2075 -91 
Q 1284 -91 818 406 
Q 353 903 353 1747 
Q 353 2603 823 3093 
Q 1294 3584 2113 3584 
Q 2378 3584 2631 3529 
Q 2884 3475 3122 3366 
z
" transform="scale(0.015625)"/>
      </defs>
      <use xlink:href="#DejaVuSans-6e"/>
      <use xlink:href="#DejaVuSans-6f" x="63.378906"/>
      <use xlink:href="#DejaVuSans-6d" x="124.560547"/>
      <use xlink:href="#DejaVuSans-5f" x="221.972656"/>
      <use xlink:href="#DejaVuSans-63" x="271.972656"/>
      <use xlink:href="#DejaVuSans-6f" x="326.953125"/>
      <use xlink:href="#DejaVuSans-6d" x="388.134766"/>
      <use xlink:href="#DejaVuSans-6d" x="485.546875"/>
      <use xlink:href="#DejaVuSans-75" x="582.958984"/>
      <use xlink:href="#DejaVuSans-6e" x="646.337891"/>
      <use xlink:href="#DejaVuSans-65" x="709.716797"/>
     </g>
    </g>
    <g id="line2d_18">
     <path d="M 71.738375 35.852625 
L 80.538375 35.852625 
L 89.338375 35.852625 
" style="fill: none; stroke: #1f77b4; stroke-width: 1.2; stroke-linecap: round"/>
    </g>
    <g id="text_17">
     <!-- Brest -->
     <g style="fill: #262626" transform="translate(96.378375 38.932625) scale(0.088 -0.088)">
      <defs>
       <path id="DejaVuSans-42" d="M 1259 2228 
L 1259 519 
L 2272 519 
Q 2781 519 3026 730 
Q 3272 941 3272 1375 
Q 3272 1813 3026 2020 
Q 2781 2228 2272 2228 
L 1259 2228 
z
M 1259 4147 
L 1259 2741 
L 2194 2741 
Q 2656 2741 2882 2914 
Q 3109 3088 3109 3444 
Q 3109 3797 2882 3972 
Q 2656 4147 2194 4147 
L 1259 4147 
z
M 628 4666 
L 2241 4666 
Q 2963 4666 3353 4366 
Q 3744 4066 3744 3513 
Q 3744 3084 3544 2831 
Q 3344 2578 2956 2516 
Q 3422 2416 3680 2098 
Q 3938 1781 3938 1306 
Q 3938 681 3513 340 
Q 3088 0 2303 0 
L 628 0 
L 628 4666 
z
" transform="scale(0.015625)"/>
      </defs>
      <use xlink:href="#DejaVuSans-42"/>
      <use xlink:href="#DejaVuSans-72" x="68.603516"/>
      <use xlink:href="#DejaVuSans-65" x="107.466797"/>
      <use xlink:href="#DejaVuSans-73" x="168.990234"/>
      <use xlink:href="#DejaVuSans-74" x="221.089844"/>
     </g>
    </g>
    <g id="line2d_19">
     <path d="M 71.738375 48.769375 
L 80.538375 48.769375 
L 89.338375 48.769375 
" style="fill: none; stroke-dasharray: 4.8,1.8; stroke-dashoffset: 0; stroke: #ff7f0e; stroke-width: 1.2"/>
    </g>
    <g id="text_18">
     <!-- Lorient -->
     <g style="fill: #262626" transform="translate(96.378375 51.849375) scale(0.088 -0.088)">
      <defs>
       <path id="DejaVuSans-4c" d="M 628 4666 
L 1259 4666 
L 1259 531 
L 3531 531 
L 3531 0 
L 628 0 
L 628 4666 
z
" transform="scale(0.015625)"/>
      </defs>
      <use xlink:href="#DejaVuSans-4c"/>
      <use xlink:href="#DejaVuSans-6f" x="53.962891"/>
      <use xlink:href="#DejaVuSans-72" x="115.144531"/>
      <use xlink:href="#DejaVuSans-69" x="156.257812"/>
      <use xlink:href="#DejaVuSans-65" x="184.041016"/>
      <use xlink:href="#DejaVuSans-6e" x="245.564453"/>
      <use xlink:href="#DejaVuSans-74" x="308.943359"/>
     </g>
    </g>
   </g>
  </g>
 </g>
 <defs>
  <clipPath id="pfe3f95c4ef">
   <rect x="54.438" y="10.368" width="395.994" height="293.844"/>
  </clipPath>
 </defs>
</svg>
