<?xml version="1.0" encoding="utf-8" standalone="no"?>
<!DOCTYPE svg PUBLIC "-//W3C//DTD SVG 1.1//EN"
  "http://www.w3.org/Graphics/SVG/1.1/DTD/svg11.dtd">
<svg xmlns:xlink="http://www.w3.org/1999/xlink" width="460.8pt" height="345.6pt" viewBox="0 0 460.8 345.6" xmlns="http://www.w3.org/2000/svg" version="1.1">
 <metadata>
  <rdf:RDF xmlns:dc="http://purl.org/dc/elements/1.1/" xmlns:cc="http://creativecommons.org/ns#" xmlns:rdf="http://www.w3.org/1999/02/22-rdf-syntax-ns#">
   <cc:Work>
    <dc:type rdf:resource="http://purl.org/dc/dcmitype/StillImage"/>
    <dc:date>2024-10-01T01:18:43.299913</dc:date>
    <dc:format>image/svg+xml</dc:format>
    <dc:creator>
     <cc:Agent>
      <dc:title>Matplotlib v3.9.2, https://matplotlib.org/</dc:title>
     </cc:Agent>
    </dc:creator>
   </cc:Work>
  </rdf:RDF>
 </metadata>
 <defs>
  <style type="text/css">*{stroke-linejoin: round; stroke-linecap: butt}</style>
 </defs>
 <g id="figure_1">
  <g id="patch_1">
   <path d="M 0 345.6 
L 460.8 345.6 
L 460.8 0 
L 0 0 
z
" style="fill: #ffffff"/>
  </g>
  <g id="axes_1">
   <g id="patch_2">
    <path d="M 54.438 304.212 
L 450.432 304.212 
L 450.432 10.368 
L 54.438 10.368 
z
" style="fill: #e6e6e6"/>
   </g>
   <g id="matplotlib.axis_1">
    <g id="xtick_1">
     <g id="line2d_1">
      <path d="M 72.042346 304.212 
L 72.042346 10.368 
" clip-path="url(#p858ec29b20)" style="fill: none; stroke: #ffffff; stroke-width: 0.8; stroke-linecap: round"/>
     </g>
     <g id="text_1">
      <!-- 2019 -->
      <g style="fill: #262626" transform="translate(60.844346 319.198625) scale(0.088 -0.088)">
       <defs>
        <path id="DejaVuSans-32" d="M 1228 531 
L 3431 531 
L 3431 0 
L 469 0 
L 469 531 
Q 828 903 1448 1529 
Q 2069 2156 2228 2338 
Q 2531 2678 2651 2914 
Q 2772 3150 2772 3378 
Q 2772 3750 2511 3984 
Q 2250 4219 1831 4219 
Q 1534 4219 1204 4116 
Q 875 4013 500 3803 
L 500 4441 
Q 881 4594 1212 4672 
Q 1544 4750 1819 4750 
Q 2544 4750 2975 4387 
Q 3406 4025 3406 3419 
Q 3406 3131 3298 2873 
Q 3191 2616 2906 2266 
Q 2828 2175 2409 1742 
Q 1991 1309 1228 531 
z
" transform="scale(0.015625)"/>
        <path id="DejaVuSans-30" d="M 2034 4250 
Q 1547 4250 1301 3770 
Q 1056 3291 1056 2328 
Q 1056 1369 1301 889 
Q 1547 409 2034 409 
Q 2525 409 2770 889 
Q 3016 1369 3016 2328 
Q 3016 3291 2770 3770 
Q 2525 4250 2034 4250 
z
M 2034 4750 
Q 2819 4750 3233 4129 
Q 3647 3509 3647 2328 
Q 3647 1150 3233 529 
Q 2819 -91 2034 -91 
Q 1250 -91 836 529 
Q 422 1150 422 2328 
Q 422 3509 836 4129 
Q 1250 4750 2034 4750 
z
" transform="scale(0.015625)"/>
        <path id="DejaVuSans-31" d="M 794 531 
L 1825 531 
L 1825 4091 
L 703 3866 
L 703 4441 
L 1819 4666 
L 2450 4666 
L 2450 531 
L 3481 531 
L 3481 0 
L 794 0 
L 794 531 
z
" transform="scale(0.015625)"/>
        <path id="DejaVuSans-39" d="M 703 97 
L 703 672 
Q 941 559 1184 500 
Q 1428 441 1663 441 
Q 2288 441 2617 861 
Q 2947 1281 2994 2138 
Q 2813 1869 2534 1725 
Q 2256 1581 1919 1581 
Q 1219 1581 811 2004 
Q 403 2428 403 3163 
Q 403 3881 828 4315 
Q 1253 4750 1959 4750 
Q 2769 4750 3195 4129 
Q 3622 3509 3622 2328 
Q 3622 1225 3098 567 
Q 2575 -91 1691 -91 
Q 1453 -91 1209 -44 
Q 966 3 703 97 
z
M 1959 2075 
Q 2384 2075 2632 2365 
Q 2881 2656 2881 3163 
Q 2881 3666 2632 3958 
Q 2384 4250 1959 4250 
Q 1534 4250 1286 3958 
Q 1038 3666 1038 3163 
Q 1038 2656 1286 2365 
Q 1534 2075 1959 2075 
z
" transform="scale(0.015625)"/>
       </defs>
       <use xlink:href="#DejaVuSans-32"/>
       <use xlink:href="#DejaVuSans-30" x="63.623047"/>
       <use xlink:href="#DejaVuSans-31" x="127.246094"/>
       <use xlink:href="#DejaVuSans-39" x="190.869141"/>
      </g>
     </g>
    </g>
    <g id="xtick_2">
     <g id="line2d_2">
      <path d="M 144.199408 304.212 
L 144.199408 10.368 
" clip-path="url(#p858ec29b20)" style="fill: none; stroke: #ffffff; stroke-width: 0.8; stroke-linecap: round"/>
     </g>
     <g id="text_2">
      <!-- 2020 -->
      <g style="fill: #262626" transform="translate(133.001408 319.198625) scale(0.088 -0.088)">
       <use xlink:href="#DejaVuSans-32"/>
       <use xlink:href="#DejaVuSans-30" x="63.623047"/>
       <use xlink:href="#DejaVuSans-32" x="127.246094"/>
       <use xlink:href="#DejaVuSans-30" x="190.869141"/>
      </g>
     </g>
    </g>
    <g id="xtick_3">
     <g id="line2d_3">
      <path d="M 216.55416 304.212 
L 216.55416 10.368 
" clip-path="url(#p858ec29b20)" style="fill: none; stroke: #ffffff; stroke-width: 0.8; stroke-linecap: round"/>
     </g>
     <g id="text_3">
      <!-- 2021 -->
      <g style="fill: #262626" transform="translate(205.35616 319.198625) scale(0.088 -0.088)">
       <use xlink:href="#DejaVuSans-32"/>
       <use xlink:href="#DejaVuSans-30" x="63.623047"/>
       <use xlink:href="#DejaVuSans-32" x="127.246094"/>
       <use xlink:href="#DejaVuSans-31" x="190.869141"/>
      </g>
     </g>
    </g>
    <g id="xtick_4">
     <g id="line2d_4">
      <path d="M 288.711221 304.212 
L 288.711221 10.368 
" clip-path="url(#p858ec29b20)" style="fill: none; stroke: #ffffff; stroke-width: 0.8; stroke-linecap: round"/>
     </g>
     <g id="text_4">
      <!-- 2022 -->
      <g style="fill: #262626" transform="translate(277.513221 319.198625) scale(0.088 -0.088)">
       <use xlink:href="#DejaVuSans-32"/>
       <use xlink:href="#DejaVuSans-30" x="63.623047"/>
       <use xlink:href="#DejaVuSans-32" x="127.246094"/>
       <use xlink:href="#DejaVuSans-32" x="190.869141"/>
      </g>
     </g>
    </g>
    <g id="xtick_5">
     <g id="line2d_5">
      <path d="M 360.868283 304.212 
L 360.868283 10.368 
" clip-path="url(#p858ec29b20)" style="fill: none; stroke: #ffffff; stroke-width: 0.8; stroke-linecap: round"/>
     </g>
     <g id="text_5">
      <!-- 2023 -->
      <g style="fill: #262626" transform="translate(349.670283 319.198625) scale(0.088 -0.088)">
       <defs>
        <path id="DejaVuSans-33" d="M 2597 2516 
Q 3050 2419 3304 2112 
Q 3559 1806 3559 1356 
Q 3559 666 3084 287 
Q 2609 -91 1734 -91 
Q 1441 -91 1130 -33 
Q 819 25 488 141 
L 488 750 
Q 750 597 1062 519 
Q 1375 441 1716 441 
Q 2309 441 2620 675 
Q 2931 909 2931 1356 
Q 2931 1769 2642 2001 
Q 2353 2234 1838 2234 
L 1294 2234 
L 1294 2753 
L 1863 2753 
Q 2328 2753 2575 2939 
Q 2822 3125 2822 3475 
Q 2822 3834 2567 4026 
Q 2313 4219 1838 4219 
Q 1578 4219 1281 4162 
Q 984 4106 628 3988 
L 628 4550 
Q 988 4650 1302 4700 
Q 1616 4750 1894 4750 
Q 2613 4750 3031 4423 
Q 3450 4097 3450 3541 
Q 3450 3153 3228 2886 
Q 3006 2619 2597 2516 
z
" transform="scale(0.015625)"/>
       </defs>
       <use xlink:href="#DejaVuSans-32"/>
       <use xlink:href="#DejaVuSans-30" x="63.623047"/>
       <use xlink:href="#DejaVuSans-32" x="127.246094"/>
       <use xlink:href="#DejaVuSans-33" x="190.869141"/>
      </g>
     </g>
    </g>
    <g id="xtick_6">
     <g id="line2d_6">
      <path d="M 433.025344 304.212 
L 433.025344 10.368 
" clip-path="url(#p858ec29b20)" style="fill: none; stroke: #ffffff; stroke-width: 0.8; stroke-linecap: round"/>
     </g>
     <g id="text_6">
      <!-- 2024 -->
      <g style="fill: #262626" transform="translate(421.827344 319.198625) scale(0.088 -0.088)">
       <defs>
        <path id="DejaVuSans-34" d="M 2419 4116 
L 825 1625 
L 2419 1625 
L 2419 4116 
z
M 2253 4666 
L 3047 4666 
L 3047 1625 
L 3713 1625 
L 3713 1100 
L 3047 1100 
L 3047 0 
L 2419 0 
L 2419 1100 
L 313 1100 
L 313 1709 
L 2253 4666 
z
" transform="scale(0.015625)"/>
       </defs>
       <use xlink:href="#DejaVuSans-32"/>
       <use xlink:href="#DejaVuSans-30" x="63.623047"/>
       <use xlink:href="#DejaVuSans-32" x="127.246094"/>
       <use xlink:href="#DejaVuSans-34" x="190.869141"/>
      </g>
     </g>
    </g>
    <g id="text_7">
     <!-- date_mutation -->
     <g style="fill: #262626" transform="translate(217.476 332.32325) scale(0.096 -0.096)">
      <defs>
       <path id="DejaVuSans-64" d="M 2906 2969 
L 2906 4863 
L 3481 4863 
L 3481 0 
L 2906 0 
L 2906 525 
Q 2725 213 2448 61 
Q 2172 -91 1784 -91 
Q 1150 -91 751 415 
Q 353 922 353 1747 
Q 353 2572 751 3078 
Q 1150 3584 1784 3584 
Q 2172 3584 2448 3432 
Q 2725 3281 2906 2969 
z
M 947 1747 
Q 947 1113 1208 752 
Q 1469 391 1925 391 
Q 2381 391 2643 752 
Q 2906 1113 2906 1747 
Q 2906 2381 2643 2742 
Q 2381 3103 1925 3103 
Q 1469 3103 1208 2742 
Q 947 2381 947 1747 
z
" transform="scale(0.015625)"/>
       <path id="DejaVuSans-61" d="M 2194 1759 
Q 1497 1759 1228 1600 
Q 959 1441 959 1056 
Q 959 750 1161 570 
Q 1363 391 1709 391 
Q 2188 391 2477 730 
Q 2766 1069 2766 1631 
L 2766 1759 
L 2194 1759 
z
M 3341 1997 
L 3341 0 
L 2766 0 
L 2766 531 
Q 2569 213 2275 61 
Q 1981 -91 1556 -91 
Q 1019 -91 701 211 
Q 384 513 384 1019 
Q 384 1609 779 1909 
Q 1175 2209 1959 2209 
L 2766 2209 
L 2766 2266 
Q 2766 2663 2505 2880 
Q 2244 3097 1772 3097 
Q 1472 3097 1187 3025 
Q 903 2953 641 2809 
L 641 3341 
Q 956 3463 1253 3523 
Q 1550 3584 1831 3584 
Q 2591 3584 2966 3190 
Q 3341 2797 3341 1997 
z
" transform="scale(0.015625)"/>
       <path id="DejaVuSans-74" d="M 1172 4494 
L 1172 3500 
L 2356 3500 
L 2356 3053 
L 1172 3053 
L 1172 1153 
Q 1172 725 1289 603 
Q 1406 481 1766 481 
L 2356 481 
L 2356 0 
L 1766 0 
Q 1100 0 847 248 
Q 594 497 594 1153 
L 594 3053 
L 172 3053 
L 172 3500 
L 594 3500 
L 594 4494 
L 1172 4494 
z
" transform="scale(0.015625)"/>
       <path id="DejaVuSans-65" d="M 3597 1894 
L 3597 1613 
L 953 1613 
Q 991 1019 1311 708 
Q 1631 397 2203 397 
Q 2534 397 2845 478 
Q 3156 559 3463 722 
L 3463 178 
Q 3153 47 2828 -22 
Q 2503 -91 2169 -91 
Q 1331 -91 842 396 
Q 353 884 353 1716 
Q 353 2575 817 3079 
Q 1281 3584 2069 3584 
Q 2775 3584 3186 3129 
Q 3597 2675 3597 1894 
z
M 3022 2063 
Q 3016 2534 2758 2815 
Q 2500 3097 2075 3097 
Q 1594 3097 1305 2825 
Q 1016 2553 972 2059 
L 3022 2063 
z
" transform="scale(0.015625)"/>
       <path id="DejaVuSans-5f" d="M 3263 -1063 
L 3263 -1509 
L -63 -1509 
L -63 -1063 
L 3263 -1063 
z
" transform="scale(0.015625)"/>
       <path id="DejaVuSans-6d" d="M 3328 2828 
Q 3544 3216 3844 3400 
Q 4144 3584 4550 3584 
Q 5097 3584 5394 3201 
Q 5691 2819 5691 2113 
L 5691 0 
L 5113 0 
L 5113 2094 
Q 5113 2597 4934 2840 
Q 4756 3084 4391 3084 
Q 3944 3084 3684 2787 
Q 3425 2491 3425 1978 
L 3425 0 
L 2847 0 
L 2847 2094 
Q 2847 2600 2669 2842 
Q 2491 3084 2119 3084 
Q 1678 3084 1418 2786 
Q 1159 2488 1159 1978 
L 1159 0 
L 581 0 
L 581 3500 
L 1159 3500 
L 1159 2956 
Q 1356 3278 1631 3431 
Q 1906 3584 2284 3584 
Q 2666 3584 2933 3390 
Q 3200 3197 3328 2828 
z
" transform="scale(0.015625)"/>
       <path id="DejaVuSans-75" d="M 544 1381 
L 544 3500 
L 1119 3500 
L 1119 1403 
Q 1119 906 1312 657 
Q 1506 409 1894 409 
Q 2359 409 2629 706 
Q 2900 1003 2900 1516 
L 2900 3500 
L 3475 3500 
L 3475 0 
L 2900 0 
L 2900 538 
Q 2691 219 2414 64 
Q 2138 -91 1772 -91 
Q 1169 -91 856 284 
Q 544 659 544 1381 
z
M 1991 3584 
L 1991 3584 
z
" transform="scale(0.015625)"/>
       <path id="DejaVuSans-69" d="M 603 3500 
L 1178 3500 
L 1178 0 
L 603 0 
L 603 3500 
z
M 603 4863 
L 1178 4863 
L 1178 4134 
L 603 4134 
L 603 4863 
z
" transform="scale(0.015625)"/>
       <path id="DejaVuSans-6f" d="M 1959 3097 
Q 1497 3097 1228 2736 
Q 959 2375 959 1747 
Q 959 1119 1226 758 
Q 1494 397 1959 397 
Q 2419 397 2687 759 
Q 2956 1122 2956 1747 
Q 2956 2369 2687 2733 
Q 2419 3097 1959 3097 
z
M 1959 3584 
Q 2709 3584 3137 3096 
Q 3566 2609 3566 1747 
Q 3566 888 3137 398 
Q 2709 -91 1959 -91 
Q 1206 -91 779 398 
Q 353 888 353 1747 
Q 353 2609 779 3096 
Q 1206 3584 1959 3584 
z
" transform="scale(0.015625)"/>
       <path id="DejaVuSans-6e" d="M 3513 2113 
L 3513 0 
L 2938 0 
L 2938 2094 
Q 2938 2591 2744 2837 
Q 2550 3084 2163 3084 
Q 1697 3084 1428 2787 
Q 1159 2491 1159 1978 
L 1159 0 
L 581 0 
L 581 3500 
L 1159 3500 
L 1159 2956 
Q 1366 3272 1645 3428 
Q 1925 3584 2291 3584 
Q 2894 3584 3203 3211 
Q 3513 2838 3513 2113 
z
" transform="scale(0.015625)"/>
      </defs>
      <use xlink:href="#DejaVuSans-64"/>
      <use xlink:href="#DejaVuSans-61" x="63.476562"/>
      <use xlink:href="#DejaVuSans-74" x="124.755859"/>
      <use xlink:href="#DejaVuSans-65" x="163.964844"/>
      <use xlink:href="#DejaVuSans-5f" x="225.488281"/>
      <use xlink:href="#DejaVuSans-6d" x="275.488281"/>
      <use xlink:href="#DejaVuSans-75" x="372.900391"/>
      <use xlink:href="#DejaVuSans-74" x="436.279297"/>
      <use xlink:href="#DejaVuSans-61" x="475.488281"/>
      <use xlink:href="#DejaVuSans-74" x="536.767578"/>
      <use xlink:href="#DejaVuSans-69" x="575.976562"/>
      <use xlink:href="#DejaVuSans-6f" x="603.759766"/>
      <use xlink:href="#DejaVuSans-6e" x="664.941406"/>
     </g>
    </g>
   </g>
   <g id="matplotlib.axis_2">
    <g id="ytick_1">
     <g id="line2d_7">
      <path d="M 54.438 278.484635 
L 450.432 278.484635 
" clip-path="url(#p858ec29b20)" style="fill: none; stroke: #ffffff; stroke-width: 0.8; stroke-linecap: round"/>
     </g>
     <g id="text_8">
      <!-- 1250 -->
      <g style="fill: #262626" transform="translate(23.742 281.827947) scale(0.088 -0.088)">
       <defs>
        <path id="DejaVuSans-35" d="M 691 4666 
L 3169 4666 
L 3169 4134 
L 1269 4134 
L 1269 2991 
Q 1406 3038 1543 3061 
Q 1681 3084 1819 3084 
Q 2600 3084 3056 2656 
Q 3513 2228 3513 1497 
Q 3513 744 3044 326 
Q 2575 -91 1722 -91 
Q 1428 -91 1123 -41 
Q 819 9 494 109 
L 494 744 
Q 775 591 1075 516 
Q 1375 441 1709 441 
Q 2250 441 2565 725 
Q 2881 1009 2881 1497 
Q 2881 1984 2565 2268 
Q 2250 2553 1709 2553 
Q 1456 2553 1204 2497 
Q 953 2441 691 2322 
L 691 4666 
z
" transform="scale(0.015625)"/>
       </defs>
       <use xlink:href="#DejaVuSans-31"/>
       <use xlink:href="#DejaVuSans-32" x="63.623047"/>
       <use xlink:href="#DejaVuSans-35" x="127.246094"/>
       <use xlink:href="#DejaVuSans-30" x="190.869141"/>
      </g>
     </g>
    </g>
    <g id="ytick_2">
     <g id="line2d_8">
      <path d="M 54.438 242.532996 
L 450.432 242.532996 
" clip-path="url(#p858ec29b20)" style="fill: none; stroke: #ffffff; stroke-width: 0.8; stroke-linecap: round"/>
     </g>
     <g id="text_9">
      <!-- 1500 -->
      <g style="fill: #262626" transform="translate(23.742 245.876308) scale(0.088 -0.088)">
       <use xlink:href="#DejaVuSans-31"/>
       <use xlink:href="#DejaVuSans-35" x="63.623047"/>
       <use xlink:href="#DejaVuSans-30" x="127.246094"/>
       <use xlink:href="#DejaVuSans-30" x="190.869141"/>
      </g>
     </g>
    </g>
    <g id="ytick_3">
     <g id="line2d_9">
      <path d="M 54.438 206.581357 
L 450.432 206.581357 
" clip-path="url(#p858ec29b20)" style="fill: none; stroke: #ffffff; stroke-width: 0.8; stroke-linecap: round"/>
     </g>
     <g id="text_10">
      <!-- 1750 -->
      <g style="fill: #262626" transform="translate(23.742 209.924669) scale(0.088 -0.088)">
       <defs>
        <path id="DejaVuSans-37" d="M 525 4666 
L 3525 4666 
L 3525 4397 
L 1831 0 
L 1172 0 
L 2766 4134 
L 525 4134 
L 525 4666 
z
" transform="scale(0.015625)"/>
       </defs>
       <use xlink:href="#DejaVuSans-31"/>
       <use xlink:href="#DejaVuSans-37" x="63.623047"/>
       <use xlink:href="#DejaVuSans-35" x="127.246094"/>
       <use xlink:href="#DejaVuSans-30" x="190.869141"/>
      </g>
     </g>
    </g>
    <g id="ytick_4">
     <g id="line2d_10">
      <path d="M 54.438 170.629718 
L 450.432 170.629718 
" clip-path="url(#p858ec29b20)" style="fill: none; stroke: #ffffff; stroke-width: 0.8; stroke-linecap: round"/>
     </g>
     <g id="text_11">
      <!-- 2000 -->
      <g style="fill: #262626" transform="translate(23.742 173.973031) scale(0.088 -0.088)">
       <use xlink:href="#DejaVuSans-32"/>
       <use xlink:href="#DejaVuSans-30" x="63.623047"/>
       <use xlink:href="#DejaVuSans-30" x="127.246094"/>
       <use xlink:href="#DejaVuSans-30" x="190.869141"/>
      </g>
     </g>
    </g>
    <g id="ytick_5">
     <g id="line2d_11">
      <path d="M 54.438 134.678079 
L 450.432 134.678079 
" clip-path="url(#p858ec29b20)" style="fill: none; stroke: #ffffff; stroke-width: 0.8; stroke-linecap: round"/>
     </g>
     <g id="text_12">
      <!-- 2250 -->
      <g style="fill: #262626" transform="translate(23.742 138.021392) scale(0.088 -0.088)">
       <use xlink:href="#DejaVuSans-32"/>
       <use xlink:href="#DejaVuSans-32" x="63.623047"/>
       <use xlink:href="#DejaVuSans-35" x="127.246094"/>
       <use xlink:href="#DejaVuSans-30" x="190.869141"/>
      </g>
     </g>
    </g>
    <g id="ytick_6">
     <g id="line2d_12">
      <path d="M 54.438 98.72644 
L 450.432 98.72644 
" clip-path="url(#p858ec29b20)" style="fill: none; stroke: #ffffff; stroke-width: 0.8; stroke-linecap: round"/>
     </g>
     <g id="text_13">
      <!-- 2500 -->
      <g style="fill: #262626" transform="translate(23.742 102.069753) scale(0.088 -0.088)">
       <use xlink:href="#DejaVuSans-32"/>
       <use xlink:href="#DejaVuSans-35" x="63.623047"/>
       <use xlink:href="#DejaVuSans-30" x="127.246094"/>
       <use xlink:href="#DejaVuSans-30" x="190.869141"/>
      </g>
     </g>
    </g>
    <g id="ytick_7">
     <g id="line2d_13">
      <path d="M 54.438 62.774802 
L 450.432 62.774802 
" clip-path="url(#p858ec29b20)" style="fill: none; stroke: #ffffff; stroke-width: 0.8; stroke-linecap: round"/>
     </g>
     <g id="text_14">
      <!-- 2750 -->
      <g style="fill: #262626" transform="translate(23.742 66.118114) scale(0.088 -0.088)">
       <use xlink:href="#DejaVuSans-32"/>
       <use xlink:href="#DejaVuSans-37" x="63.623047"/>
       <use xlink:href="#DejaVuSans-35" x="127.246094"/>
       <use xlink:href="#DejaVuSans-30" x="190.869141"/>
      </g>
     </g>
    </g>
    <g id="ytick_8">
     <g id="line2d_14">
      <path d="M 54.438 26.823163 
L 450.432 26.823163 
" clip-path="url(#p858ec29b20)" style="fill: none; stroke: #ffffff; stroke-width: 0.8; stroke-linecap: round"/>
     </g>
     <g id="text_15">
      <!-- 3000 -->
      <g style="fill: #262626" transform="translate(23.742 30.166475) scale(0.088 -0.088)">
       <use xlink:href="#DejaVuSans-33"/>
       <use xlink:href="#DejaVuSans-30" x="63.623047"/>
       <use xlink:href="#DejaVuSans-30" x="127.246094"/>
       <use xlink:href="#DejaVuSans-30" x="190.869141"/>
      </g>
     </g>
    </g>
    <g id="text_16">
     <!-- prixm2_smooth -->
     <g style="fill: #262626" transform="translate(17.4785 194.58825) rotate(-90) scale(0.096 -0.096)">
      <defs>
       <path id="DejaVuSans-70" d="M 1159 525 
L 1159 -1331 
L 581 -1331 
L 581 3500 
L 1159 3500 
L 1159 2969 
Q 1341 3281 1617 3432 
Q 1894 3584 2278 3584 
Q 2916 3584 3314 3078 
Q 3713 2572 3713 1747 
Q 3713 922 3314 415 
Q 2916 -91 2278 -91 
Q 1894 -91 1617 61 
Q 1341 213 1159 525 
z
M 3116 1747 
Q 3116 2381 2855 2742 
Q 2594 3103 2138 3103 
Q 1681 3103 1420 2742 
Q 1159 2381 1159 1747 
Q 1159 1113 1420 752 
Q 1681 391 2138 391 
Q 2594 391 2855 752 
Q 3116 1113 3116 1747 
z
" transform="scale(0.015625)"/>
       <path id="DejaVuSans-72" d="M 2631 2963 
Q 2534 3019 2420 3045 
Q 2306 3072 2169 3072 
Q 1681 3072 1420 2755 
Q 1159 2438 1159 1844 
L 1159 0 
L 581 0 
L 581 3500 
L 1159 3500 
L 1159 2956 
Q 1341 3275 1631 3429 
Q 1922 3584 2338 3584 
Q 2397 3584 2469 3576 
Q 2541 3569 2628 3553 
L 2631 2963 
z
" transform="scale(0.015625)"/>
       <path id="DejaVuSans-78" d="M 3513 3500 
L 2247 1797 
L 3578 0 
L 2900 0 
L 1881 1375 
L 863 0 
L 184 0 
L 1544 1831 
L 300 3500 
L 978 3500 
L 1906 2253 
L 2834 3500 
L 3513 3500 
z
" transform="scale(0.015625)"/>
       <path id="DejaVuSans-73" d="M 2834 3397 
L 2834 2853 
Q 2591 2978 2328 3040 
Q 2066 3103 1784 3103 
Q 1356 3103 1142 2972 
Q 928 2841 928 2578 
Q 928 2378 1081 2264 
Q 1234 2150 1697 2047 
L 1894 2003 
Q 2506 1872 2764 1633 
Q 3022 1394 3022 966 
Q 3022 478 2636 193 
Q 2250 -91 1575 -91 
Q 1294 -91 989 -36 
Q 684 19 347 128 
L 347 722 
Q 666 556 975 473 
Q 1284 391 1588 391 
Q 1994 391 2212 530 
Q 2431 669 2431 922 
Q 2431 1156 2273 1281 
Q 2116 1406 1581 1522 
L 1381 1569 
Q 847 1681 609 1914 
Q 372 2147 372 2553 
Q 372 3047 722 3315 
Q 1072 3584 1716 3584 
Q 2034 3584 2315 3537 
Q 2597 3491 2834 3397 
z
" transform="scale(0.015625)"/>
       <path id="DejaVuSans-68" d="M 3513 2113 
L 3513 0 
L 2938 0 
L 2938 2094 
Q 2938 2591 2744 2837 
Q 2550 3084 2163 3084 
Q 1697 3084 1428 2787 
Q 1159 2491 1159 1978 
L 1159 0 
L 581 0 
L 581 4863 
L 1159 4863 
L 1159 2956 
Q 1366 3272 1645 3428 
Q 1925 3584 2291 3584 
Q 2894 3584 3203 3211 
Q 3513 2838 3513 2113 
z
" transform="scale(0.015625)"/>
      </defs>
      <use xlink:href="#DejaVuSans-70"/>
      <use xlink:href="#DejaVuSans-72" x="63.476562"/>
      <use xlink:href="#DejaVuSans-69" x="104.589844"/>
      <use xlink:href="#DejaVuSans-78" x="132.373047"/>
      <use xlink:href="#DejaVuSans-6d" x="191.552734"/>
      <use xlink:href="#DejaVuSans-32" x="288.964844"/>
      <use xlink:href="#DejaVuSans-5f" x="352.587891"/>
      <use xlink:href="#DejaVuSans-73" x="402.587891"/>
      <use xlink:href="#DejaVuSans-6d" x="454.6875"/>
      <use xlink:href="#DejaVuSans-6f" x="552.099609"/>
      <use xlink:href="#DejaVuSans-6f" x="613.28125"/>
      <use xlink:href="#DejaVuSans-74" x="674.462891"/>
      <use xlink:href="#DejaVuSans-68" x="713.671875"/>
     </g>
    </g>
   </g>
   <g id="PolyCollection_1"/>
   <g id="PolyCollection_2"/>
   <g id="line2d_15">
    <path d="M 72.437727 248.068335 
L 74.414633 270.481394 
L 75.007705 274.72433 
L 75.403086 276.477993 
L 75.798467 277.336417 
L 75.996158 277.438522 
L 76.193848 277.334123 
L 76.589229 276.559961 
L 76.984611 275.151014 
L 77.775373 271.163485 
L 78.763826 266.1914 
L 79.159207 264.87221 
L 79.554588 264.180034 
L 79.752279 264.101549 
L 79.949969 264.211457 
L 80.34535 265.00277 
L 80.740732 266.526537 
L 81.333803 269.974677 
L 83.5084 284.908117 
L 83.903781 286.182848 
L 84.101471 286.50755 
L 84.299162 286.609869 
L 84.496853 286.483879 
L 84.892234 285.541826 
L 85.287615 283.707591 
L 85.880687 279.475028 
L 86.671449 271.844422 
L 88.450664 254.027274 
L 89.043736 250.165609 
L 89.439117 248.57002 
L 89.834498 247.832972 
L 90.032189 247.793382 
L 90.229879 247.971466 
L 90.625261 248.960185 
L 91.020642 250.733544 
L 91.613713 254.632952 
L 92.602166 263.21071 
L 93.986 275.025509 
L 94.579072 278.475683 
L 94.974453 279.922838 
L 95.369835 280.597402 
L 95.567525 280.631035 
L 95.765216 280.459128 
L 96.160597 279.502671 
L 96.555978 277.758187 
L 97.14905 273.814844 
L 97.939812 266.665671 
L 100.114408 245.704717 
L 100.70748 242.312372 
L 101.102861 241.05753 
L 101.300552 240.76033 
L 101.498242 240.689783 
L 101.695933 240.847173 
L 102.091314 241.83562 
L 102.486695 243.673785 
L 103.079767 247.78735 
L 104.06822 256.816287 
L 105.056673 265.61861 
L 105.649745 269.464657 
L 106.045126 271.150804 
L 106.440507 272.077536 
L 106.638198 272.259893 
L 106.835888 272.264078 
L 107.033579 272.100955 
L 107.42896 271.329519 
L 108.022032 269.322751 
L 109.998937 261.443405 
L 110.592009 260.220863 
L 110.98739 259.849698 
L 111.382771 259.808354 
L 111.778153 260.043822 
L 112.371224 260.74998 
L 113.557368 262.330916 
L 113.952749 262.611582 
L 114.34813 262.680348 
L 114.743511 262.52203 
L 115.138892 262.149578 
L 115.731964 261.28006 
L 117.313489 258.754357 
L 117.70887 258.446273 
L 118.104251 258.361238 
L 118.499632 258.513703 
L 118.895013 258.89814 
L 119.488085 259.854176 
L 120.476538 262.09735 
L 121.860372 265.316976 
L 122.651134 266.668095 
L 123.244206 267.34751 
L 123.837278 267.726871 
L 124.43035 267.803453 
L 125.023421 267.569827 
L 125.616493 267.010465 
L 126.209565 266.108169 
L 127.000327 264.365678 
L 127.98878 261.442102 
L 129.965686 255.189046 
L 130.558758 253.915989 
L 131.151829 253.140739 
L 131.547211 252.912761 
L 131.942592 252.901086 
L 132.337973 253.076167 
L 132.931045 253.592533 
L 134.117188 254.789353 
L 134.512569 254.971172 
L 134.90795 254.914496 
L 135.303332 254.5465 
L 135.698713 253.807558 
L 136.094094 252.65979 
L 136.687166 250.164357 
L 137.477928 245.65009 
L 138.861762 237.243799 
L 139.454834 234.909756 
L 139.850215 234.164451 
L 140.047905 234.072602 
L 140.245596 234.176986 
L 140.640977 234.979295 
L 141.036358 236.542809 
L 141.62943 240.107427 
L 142.815574 249.507767 
L 143.606336 255.141054 
L 144.199408 257.925037 
L 144.594789 258.872848 
L 144.792479 259.05837 
L 144.99017 259.05417 
L 145.187861 258.867181 
L 145.583242 257.991075 
L 146.176313 255.676127 
L 148.153219 246.379629 
L 148.746291 244.933931 
L 149.141672 244.459333 
L 149.537053 244.313444 
L 149.932434 244.406179 
L 151.316269 245.042516 
L 151.71165 244.90393 
L 152.107031 244.493522 
L 152.502412 243.779545 
L 153.095484 242.131726 
L 153.886246 239.001829 
L 156.653914 226.814718 
L 157.246986 225.4797 
L 157.642367 224.970246 
L 158.037748 224.722204 
L 158.63082 224.654017 
L 159.223892 224.544635 
L 159.619273 224.148991 
L 160.014654 223.25048 
L 160.410035 221.635803 
L 160.805416 219.115577 
L 161.398488 213.361924 
L 161.99156 205.204659 
L 163.177703 184.324427 
L 163.968466 171.468371 
L 164.561537 165.216028 
L 164.956919 163.423287 
L 165.154609 163.330001 
L 165.3523 163.78725 
L 165.747681 166.329668 
L 166.143062 170.892131 
L 166.736134 180.796981 
L 169.306111 230.451496 
L 169.899183 237.112309 
L 170.492255 241.389659 
L 170.887636 243.116301 
L 171.283017 244.12389 
L 171.678398 244.568992 
L 172.073779 244.58999 
L 172.469161 244.295489 
L 173.062232 243.413375 
L 173.655304 242.086792 
L 174.248376 240.300186 
L 175.039138 237.088008 
L 175.8299 232.850446 
L 177.016044 224.901838 
L 178.795259 212.699632 
L 179.388331 209.904697 
L 179.783712 208.761089 
L 180.179093 208.335059 
L 180.376784 208.422551 
L 180.574474 208.722911 
L 180.969855 209.983008 
L 181.365237 212.122978 
L 181.958308 216.850133 
L 182.946761 227.486742 
L 184.132905 240.143484 
L 184.725976 244.461651 
L 185.121358 246.221662 
L 185.516739 247.041585 
L 185.714429 247.113529 
L 185.91212 246.977755 
L 186.307501 246.160991 
L 186.900573 243.941916 
L 188.482097 237.168482 
L 189.075169 235.639368 
L 189.865932 234.374891 
L 190.459003 233.318178 
L 190.854384 232.169794 
L 191.249766 230.425306 
L 191.842837 226.349175 
L 192.435909 220.314576 
L 193.226671 209.585728 
L 195.005887 183.987433 
L 195.598958 179.005755 
L 195.99434 177.466381 
L 196.19203 177.27511 
L 196.389721 177.472109 
L 196.587411 178.050004 
L 196.982792 180.282666 
L 197.575864 185.906745 
L 198.564317 198.650069 
L 199.55277 210.604931 
L 200.145842 215.369004 
L 200.541223 217.157305 
L 200.738913 217.611701 
L 200.936604 217.77612 
L 201.134295 217.66008 
L 201.331985 217.278534 
L 201.727366 215.803884 
L 202.320438 212.243873 
L 203.704272 202.759308 
L 204.099653 201.053129 
L 204.495034 200.182561 
L 204.692725 200.090582 
L 204.890416 200.23185 
L 205.285797 201.193131 
L 205.681178 202.973248 
L 206.27425 206.811722 
L 208.251155 221.143898 
L 208.844227 223.742495 
L 209.239608 224.793273 
L 209.63499 225.292297 
L 209.83268 225.338393 
L 210.030371 225.25159 
L 210.425752 224.687324 
L 210.821133 223.612592 
L 211.414205 221.056556 
L 212.007276 217.37054 
L 212.798039 210.743969 
L 213.786492 200.220734 
L 215.368016 183.275271 
L 215.961088 179.338025 
L 216.356469 178.072491 
L 216.55416 177.907429 
L 216.75185 178.069473 
L 216.949541 178.562984 
L 217.344922 180.531675 
L 217.740303 183.728388 
L 218.333375 190.427554 
L 219.717209 210.18037 
L 220.705662 222.650278 
L 221.298734 228.076477 
L 221.891805 231.734528 
L 222.287187 233.239701 
L 222.682568 234.080338 
L 223.077949 234.343146 
L 223.47333 234.113098 
L 223.868711 233.462152 
L 224.461783 231.805712 
L 225.054855 229.411668 
L 225.845617 225.140707 
L 226.83407 218.345883 
L 228.613285 205.629091 
L 229.404047 201.779034 
L 229.997119 200.028486 
L 230.590191 199.107423 
L 231.380953 198.510945 
L 231.974025 197.893477 
L 232.369406 197.147839 
L 232.962478 195.330381 
L 233.55555 192.663025 
L 235.927837 180.333883 
L 236.520908 178.762827 
L 236.91629 178.192738 
L 237.311671 177.939147 
L 237.707052 177.918108 
L 238.497814 178.209053 
L 239.288576 178.456733 
L 239.881648 178.445308 
L 241.463173 178.177956 
L 241.858554 178.329738 
L 242.253935 178.672532 
L 242.649316 179.242954 
L 243.242388 180.572116 
L 243.83546 182.479779 
L 244.626222 185.817336 
L 247.1962 197.878312 
L 247.789271 199.383314 
L 248.184653 199.850615 
L 248.382343 199.909314 
L 248.580034 199.848883 
L 248.975415 199.374355 
L 249.370796 198.454427 
L 249.963868 196.377867 
L 252.138464 187.459954 
L 252.533845 186.703904 
L 252.929226 186.444477 
L 253.126917 186.51085 
L 253.522298 187.034167 
L 253.917679 188.047181 
L 254.510751 190.321318 
L 256.685347 199.937809 
L 257.080729 200.801431 
L 257.47611 201.193247 
L 257.6738 201.208115 
L 258.069182 200.88613 
L 258.464563 200.130465 
L 259.057634 198.325872 
L 260.046087 194.230538 
L 261.429921 188.436815 
L 262.220684 186.011067 
L 262.813755 184.807733 
L 263.406827 184.16979 
L 263.802208 184.06216 
L 264.197589 184.207295 
L 264.592971 184.601544 
L 265.186042 185.643416 
L 265.779114 187.180285 
L 266.767567 190.553007 
L 268.151401 195.380826 
L 268.744473 196.71211 
L 269.139854 197.151906 
L 269.535235 197.169291 
L 269.930616 196.736549 
L 270.325997 195.853462 
L 270.919069 193.75185 
L 271.709832 189.837925 
L 273.686737 179.420569 
L 274.279809 177.531515 
L 274.67519 176.807235 
L 275.070571 176.530922 
L 275.465953 176.689455 
L 275.861334 177.24771 
L 276.454405 178.72242 
L 277.245168 181.575087 
L 278.431311 186.909231 
L 280.012836 193.913801 
L 280.605908 195.691444 
L 281.001289 196.36551 
L 281.198979 196.513549 
L 281.39667 196.521418 
L 281.59436 196.379911 
L 281.989742 195.619196 
L 282.385123 194.189196 
L 282.978195 190.771691 
L 283.571266 185.92914 
L 284.559719 175.523288 
L 286.141244 158.388552 
L 286.734316 153.92447 
L 287.129697 151.983875 
L 287.525078 150.969784 
L 287.722768 150.817743 
L 287.920459 150.898481 
L 288.11815 151.204242 
L 288.513531 152.442073 
L 289.106603 155.604877 
L 290.095055 162.891978 
L 291.281199 171.614371 
L 292.071961 175.922977 
L 292.665033 178.07239 
L 293.060414 178.968347 
L 293.455795 179.434921 
L 293.851176 179.474203 
L 294.246558 179.088447 
L 294.641939 178.282199 
L 295.23501 176.312885 
L 296.025773 172.447893 
L 298.39806 159.439113 
L 298.793441 158.429089 
L 299.188822 158.021553 
L 299.386513 158.049205 
L 299.781894 158.548494 
L 300.177275 159.577402 
L 300.770347 161.862116 
L 302.747253 170.287407 
L 303.340324 171.806478 
L 303.933396 172.768072 
L 304.526468 173.350847 
L 305.910302 174.266501 
L 306.701064 174.623359 
L 307.096445 174.594762 
L 307.491826 174.311547 
L 307.887208 173.687748 
L 308.282589 172.657281 
L 308.87566 170.291116 
L 309.666423 165.803564 
L 311.247947 156.189012 
L 311.841019 154.14086 
L 312.2364 153.594851 
L 312.434091 153.579948 
L 312.631781 153.73224 
L 313.027163 154.497724 
L 313.620234 156.54797 
L 315.201759 162.9461 
L 315.59714 163.867215 
L 315.992521 164.349247 
L 316.387903 164.40694 
L 316.783284 164.101847 
L 317.376355 163.169319 
L 319.550952 159.11283 
L 320.934786 156.855184 
L 321.923239 154.70148 
L 324.493216 148.694749 
L 325.87705 145.613843 
L 327.853956 140.744438 
L 328.249337 140.305779 
L 328.644718 140.276977 
L 329.0401 140.725462 
L 329.435481 141.677618 
L 330.028552 143.989581 
L 330.819315 148.248726 
L 332.203149 155.825101 
L 332.796221 158.031412 
L 333.389292 159.35612 
L 333.784674 159.79816 
L 334.180055 159.974842 
L 334.970817 159.94599 
L 335.563889 160.003929 
L 335.95927 160.236462 
L 336.354651 160.675075 
L 336.947723 161.721326 
L 337.936176 164.158308 
L 339.122319 167.058557 
L 340.110772 168.825641 
L 341.889987 171.688922 
L 342.68075 173.514471 
L 344.657655 178.382054 
L 345.053037 178.854085 
L 345.448418 179.004732 
L 345.843799 178.811067 
L 346.23918 178.283735 
L 346.832252 176.969211 
L 348.018395 173.424543 
L 349.006848 170.706029 
L 351.379135 164.858103 
L 352.169897 161.74208 
L 353.356041 155.823508 
L 354.344494 151.079494 
L 354.937566 149.07442 
L 355.332947 148.304782 
L 355.728328 148.076431 
L 355.926018 148.178818 
L 356.3214 148.822017 
L 356.716781 150.023952 
L 357.309852 152.705199 
L 359.484449 164.121207 
L 360.077521 165.618296 
L 360.472902 166.050682 
L 360.868283 166.096121 
L 361.263664 165.851115 
L 362.054426 164.938304 
L 362.845189 164.079734 
L 363.635951 163.569968 
L 364.624404 163.005458 
L 365.217476 162.311623 
L 365.810547 161.13885 
L 366.403619 159.44129 
L 367.194381 156.484206 
L 368.578216 150.202759 
L 369.764359 143.978348 
L 370.752812 137.614719 
L 371.741265 129.730127 
L 374.113552 109.82727 
L 374.706623 107.008329 
L 375.102005 106.078548 
L 375.299695 105.933297 
L 375.497386 106.012248 
L 375.695076 106.321096 
L 376.090458 107.639687 
L 376.485839 109.886207 
L 377.07891 114.882007 
L 377.869673 123.972437 
L 380.044269 151.179725 
L 380.637341 156.064306 
L 381.230413 159.212111 
L 381.625794 160.405084 
L 382.021175 160.998613 
L 382.416556 161.150722 
L 383.009628 160.963975 
L 383.405009 160.850437 
L 383.80039 160.958634 
L 384.195771 161.434865 
L 384.591152 162.377643 
L 385.184224 164.741025 
L 385.974987 169.41507 
L 387.556511 179.747383 
L 388.149583 182.144132 
L 388.544964 182.907913 
L 388.742655 183.011337 
L 388.940345 182.923835 
L 389.335726 182.179816 
L 389.731108 180.715896 
L 390.324179 177.379384 
L 391.510323 168.580394 
L 392.301085 163.32944 
L 392.894157 160.857797 
L 393.289538 160.19251 
L 393.487229 160.188052 
L 393.684919 160.407893 
L 394.0803 161.509693 
L 394.475681 163.428434 
L 395.068753 167.500224 
L 396.650278 179.1502 
L 397.045659 180.625288 
L 397.24335 180.969368 
L 397.44104 181.023791 
L 397.638731 180.775156 
L 398.034112 179.346207 
L 398.429493 176.701727 
L 399.022565 170.743063 
L 400.011018 157.593722 
L 400.999471 144.816141 
L 401.592542 139.319942 
L 401.987923 137.004887 
L 402.383305 135.888624 
L 402.580995 135.78651 
L 402.778686 135.981709 
L 403.174067 137.215188 
L 403.569448 139.448372 
L 404.16252 144.223442 
L 406.139426 162.20462 
L 406.732497 165.395735 
L 407.127879 166.602717 
L 407.52326 167.084812 
L 407.72095 167.073054 
L 408.116331 166.603467 
L 408.511713 165.638065 
L 409.104784 163.548922 
L 410.884 156.676059 
L 411.477071 155.408487 
L 411.872452 155.10813 
L 412.070143 155.145444 
L 412.465524 155.618756 
L 412.860905 156.627869 
L 413.453977 159.054783 
L 414.44243 164.575063 
L 415.430883 169.611025 
L 416.023955 171.387945 
L 416.419336 171.914493 
L 416.814717 171.9539 
L 417.210098 171.609106 
L 418.791623 169.459204 
L 419.187004 169.415445 
L 419.582385 169.698332 
L 420.175457 170.639183 
L 421.3616 172.949266 
L 421.756981 173.331059 
L 422.152363 173.334722 
L 422.547744 172.923247 
L 422.943125 172.127136 
L 424.52465 168.028899 
L 424.72234 167.875434 
L 424.920031 167.904756 
L 425.117721 168.143733 
L 425.513102 169.33673 
L 425.908484 171.568735 
L 426.501555 176.826646 
L 428.478461 197.521665 
L 428.676152 197.952207 
L 428.873842 197.717198 
L 429.071533 196.727892 
L 429.466914 192.170301 
L 429.862295 183.758765 
L 430.455367 163.355731 
L 431.048439 133.984462 
L 432.036892 71.298426 
L 432.432273 44.817156 
L 432.432273 44.817156 
" clip-path="url(#p858ec29b20)" style="fill: none; stroke: #1f77b4; stroke-width: 1.2; stroke-linecap: round"/>
   </g>
   <g id="line2d_16">
    <path d="M 72.437727 290.855455 
L 73.623871 165.863495 
L 74.216942 123.595451 
L 74.612324 106.384493 
L 75.007705 98.42714 
L 75.205395 97.819443 
L 75.403086 99.321421 
L 75.798467 108.020599 
L 76.391539 132.189959 
L 78.368445 229.680549 
L 78.763826 240.049849 
L 79.159207 245.434253 
L 79.356898 246.272775 
L 79.554588 245.93909 
L 79.752279 244.511341 
L 80.14766 238.787165 
L 80.740732 224.964633 
L 82.124566 188.444544 
L 82.717637 179.004158 
L 83.113019 176.278007 
L 83.310709 176.048328 
L 83.5084 176.563637 
L 83.903781 179.707786 
L 84.299162 185.340689 
L 84.892234 197.25814 
L 86.86914 241.11911 
L 87.462211 249.064833 
L 87.857592 252.373955 
L 88.252974 254.200233 
L 88.450664 254.620753 
L 88.648355 254.756797 
L 88.846045 254.645563 
L 89.241427 253.838525 
L 89.834498 251.752126 
L 90.822951 248.095052 
L 91.416023 246.629231 
L 92.009095 245.809846 
L 92.799857 245.258618 
L 93.392929 244.73886 
L 93.78831 244.133178 
L 94.381382 242.643649 
L 94.974453 240.353286 
L 95.765216 236.109397 
L 97.14905 226.764399 
L 98.137503 220.707363 
L 98.730574 218.31586 
L 99.125956 217.491638 
L 99.323646 217.340725 
L 99.521337 217.370079 
L 99.719027 217.579324 
L 100.114408 218.512694 
L 100.70748 220.969449 
L 101.893624 226.560988 
L 102.289005 227.278586 
L 102.486695 227.186442 
L 102.684386 226.726786 
L 103.079767 224.530153 
L 103.475148 220.404747 
L 104.06822 210.314545 
L 104.661292 195.792165 
L 105.847435 158.879603 
L 106.835888 131.266792 
L 107.42896 121.517143 
L 107.824341 119.142128 
L 108.022032 119.330223 
L 108.219722 120.463248 
L 108.615103 125.554412 
L 109.010484 134.240196 
L 109.603556 153.047119 
L 110.592009 193.893946 
L 111.778153 242.211467 
L 112.371224 260.185939 
L 112.964296 271.989587 
L 113.359677 276.170708 
L 113.557368 277.16381 
L 113.755058 277.449484 
L 113.952749 277.055155 
L 114.15044 276.014674 
L 114.545821 272.157996 
L 115.138892 262.655397 
L 115.929655 245.349631 
L 117.70887 204.494719 
L 118.499632 192.000769 
L 119.092704 186.140915 
L 119.488085 183.867432 
L 119.883466 182.755352 
L 120.081157 182.579662 
L 120.278848 182.624541 
L 120.674229 183.274998 
L 121.06961 184.515509 
L 121.662682 187.153936 
L 122.453444 191.741367 
L 123.244206 197.688959 
L 124.034969 205.568827 
L 125.023421 218.359172 
L 126.604946 239.813076 
L 127.198018 245.117237 
L 127.593399 247.139753 
L 127.79109 247.64741 
L 127.98878 247.81195 
L 128.186471 247.63621 
L 128.384161 247.129768 
L 128.779542 245.19581 
L 129.372614 240.415058 
L 131.151829 223.280602 
L 131.547211 221.273246 
L 131.744901 220.738637 
L 131.942592 220.543918 
L 132.140282 220.700679 
L 132.337973 221.213064 
L 132.733354 223.283273 
L 133.326426 228.727326 
L 134.117188 238.908116 
L 135.303332 254.129957 
L 135.896403 258.876427 
L 136.291784 260.342949 
L 136.489475 260.518802 
L 136.687166 260.318978 
L 136.884856 259.749882 
L 137.280237 257.566115 
L 137.873309 252.083353 
L 139.059453 237.229628 
L 139.850215 228.463359 
L 140.443287 224.17978 
L 140.838668 222.680872 
L 141.036358 222.342481 
L 141.234049 222.264768 
L 141.43174 222.430287 
L 141.827121 223.395574 
L 142.420192 225.96811 
L 143.606336 231.62143 
L 144.001717 232.67331 
L 144.199408 232.928151 
L 144.397098 232.98116 
L 144.594789 232.822027 
L 144.99017 231.848291 
L 145.385551 230.011805 
L 145.978623 225.80551 
L 146.769385 218.247592 
L 148.35091 202.426773 
L 148.943982 198.291607 
L 149.339363 196.476001 
L 149.734744 195.495919 
L 149.932434 195.32719 
L 150.130125 195.371617 
L 150.327816 195.625439 
L 150.723197 196.736172 
L 151.118578 198.593238 
L 151.71165 202.588889 
L 152.502412 209.661786 
L 154.083937 226.722236 
L 155.27008 238.432379 
L 155.863152 242.588186 
L 156.258533 244.361728 
L 156.653914 245.154477 
L 156.851605 245.138104 
L 157.049295 244.825221 
L 157.444677 243.256285 
L 157.840058 240.361352 
L 158.433129 233.438014 
L 159.026201 223.450837 
L 159.816963 205.848213 
L 161.003107 173.254721 
L 162.386941 135.923811 
L 162.980013 124.210556 
L 163.375394 118.852259 
L 163.770775 115.829965 
L 163.968466 115.266449 
L 164.166156 115.358386 
L 164.363847 116.113288 
L 164.759228 119.597201 
L 165.154609 125.593642 
L 165.747681 138.643083 
L 166.933824 172.720827 
L 167.724587 193.595248 
L 168.317658 204.131343 
L 168.71304 207.719445 
L 168.91073 208.377366 
L 169.108421 208.267079 
L 169.306111 207.401048 
L 169.701492 203.533435 
L 170.294564 193.284362 
L 172.27147 151.583581 
L 172.666851 147.673371 
L 172.864542 146.692034 
L 173.062232 146.381027 
L 173.259923 146.736227 
L 173.457613 147.737983 
L 173.852995 151.530351 
L 174.446066 160.805787 
L 176.422972 196.688895 
L 176.818353 200.506314 
L 177.213734 202.519656 
L 177.411425 202.858247 
L 177.609116 202.775837 
L 177.806806 202.30146 
L 178.202187 200.327423 
L 178.795259 195.490741 
L 180.376784 180.715381 
L 180.969855 177.246379 
L 181.365237 175.93756 
L 181.760618 175.449196 
L 181.958308 175.505979 
L 182.155999 175.757775 
L 182.55138 176.82881 
L 182.946761 178.631711 
L 183.539833 182.664965 
L 184.132905 188.243894 
L 184.923667 197.844349 
L 187.295954 229.284722 
L 187.691335 232.202748 
L 188.086716 233.765153 
L 188.284407 233.986653 
L 188.482097 233.817716 
L 188.679788 233.25238 
L 189.075169 230.938488 
L 189.47055 227.117674 
L 190.063622 218.951533 
L 191.052075 201.297278 
L 192.238219 180.430494 
L 193.028981 170.538964 
L 193.622053 165.953694 
L 194.017434 164.140731 
L 194.412815 163.139795 
L 194.808196 162.759193 
L 195.203577 162.818831 
L 195.598958 163.185329 
L 196.19203 164.197744 
L 196.785102 165.910332 
L 197.180483 167.655544 
L 197.773555 171.591621 
L 198.366626 177.504293 
L 199.157389 188.613162 
L 200.541223 213.227074 
L 201.529676 228.606999 
L 202.122747 234.530212 
L 202.518129 236.656749 
L 202.715819 237.137957 
L 202.91351 237.229722 
L 203.1112 236.938758 
L 203.506582 235.265612 
L 203.901963 232.288565 
L 204.495034 225.942978 
L 206.47194 202.325821 
L 207.065012 198.556295 
L 207.460393 197.425621 
L 207.658084 197.265577 
L 207.855774 197.355825 
L 208.251155 198.19009 
L 208.844227 200.574646 
L 209.83268 204.746416 
L 210.228061 205.449016 
L 210.425752 205.438978 
L 210.623442 205.15028 
L 211.018824 203.66207 
L 211.414205 200.907886 
L 212.007276 194.540036 
L 212.995729 179.957112 
L 213.984182 165.703307 
L 214.577254 160.063548 
L 214.972635 158.173958 
L 215.170326 157.848279 
L 215.368016 157.939987 
L 215.565707 158.440699 
L 215.961088 160.58917 
L 216.55416 166.158663 
L 218.333375 186.169344 
L 218.728756 188.348568 
L 218.926447 188.860112 
L 219.124137 188.954386 
L 219.321828 188.617631 
L 219.717209 186.638135 
L 220.11259 182.979738 
L 220.705662 174.783299 
L 221.694115 156.805932 
L 222.682568 139.278779 
L 223.27564 131.500959 
L 223.868711 126.721946 
L 224.264092 125.294008 
L 224.461783 125.083594 
L 224.659474 125.184654 
L 224.857164 125.572901 
L 225.252545 127.09448 
L 225.845617 130.736232 
L 227.624832 143.120632 
L 228.217904 145.748529 
L 228.810976 147.470858 
L 230.19481 150.740146 
L 230.590191 152.400841 
L 231.183263 156.213641 
L 231.776334 161.932539 
L 232.567097 172.490664 
L 234.741693 205.200934 
L 235.137074 208.361394 
L 235.532455 209.717187 
L 235.730146 209.638284 
L 235.927837 209.027352 
L 236.323218 206.180963 
L 236.718599 201.221063 
L 237.311671 190.320591 
L 238.497814 161.919415 
L 239.288576 145.097553 
L 239.881648 137.249266 
L 240.277029 135.121715 
L 240.47472 135.069431 
L 240.672411 135.695453 
L 241.067792 138.911105 
L 241.463173 144.495265 
L 242.056245 156.269413 
L 243.83546 195.710255 
L 244.428532 203.532347 
L 244.823913 206.184061 
L 245.021603 206.702269 
L 245.219294 206.685633 
L 245.416984 206.147018 
L 245.812366 203.591259 
L 246.207747 199.270658 
L 246.800818 190.182018 
L 248.184653 163.419388 
L 249.173105 146.295384 
L 249.766177 138.907246 
L 250.359249 134.351665 
L 250.75463 132.993208 
L 250.952321 132.81296 
L 251.150011 132.953041 
L 251.347702 133.398599 
L 251.743083 135.124686 
L 252.336155 139.388498 
L 254.313061 156.030864 
L 254.708442 157.615874 
L 254.906132 158.030387 
L 255.103823 158.184738 
L 255.301513 158.080961 
L 255.499204 157.727686 
L 255.894585 156.339136 
L 256.487657 152.950919 
L 257.871491 144.291014 
L 258.266872 143.057048 
L 258.464563 142.80332 
L 258.662253 142.81531 
L 258.859944 143.103065 
L 259.255325 144.515232 
L 259.650706 146.999658 
L 260.243778 152.443392 
L 261.232231 164.265395 
L 262.418374 178.00827 
L 263.011446 182.851274 
L 263.406827 184.921569 
L 263.802208 185.922393 
L 263.999899 185.994716 
L 264.197589 185.772013 
L 264.592971 184.428377 
L 264.988352 181.894537 
L 265.581424 175.99762 
L 266.372186 164.971736 
L 268.349092 134.470979 
L 268.942163 128.515622 
L 269.337545 125.979597 
L 269.732926 124.622873 
L 269.930616 124.366889 
L 270.128307 124.371417 
L 270.325997 124.614892 
L 270.721379 125.713638 
L 271.31445 128.429137 
L 272.698284 135.258263 
L 273.093666 136.409046 
L 273.489047 137.005855 
L 273.686737 137.094073 
L 273.884428 137.048673 
L 274.279809 136.596131 
L 274.872881 135.219266 
L 277.245168 128.430725 
L 280.408217 121.64343 
L 281.39667 119.279603 
L 281.989742 118.352557 
L 282.385123 118.121394 
L 282.780504 118.294116 
L 283.175885 118.927252 
L 283.571266 120.040909 
L 284.164338 122.538907 
L 286.338934 133.53078 
L 286.734316 134.497276 
L 287.129697 134.933816 
L 287.327387 134.963021 
L 287.722768 134.692088 
L 288.11815 134.073984 
L 288.908912 132.287357 
L 290.292746 129.151585 
L 291.67658 126.071385 
L 293.258105 122.135159 
L 293.653486 121.709694 
L 293.851176 121.688661 
L 294.048867 121.819634 
L 294.444248 122.591475 
L 294.839629 124.087955 
L 295.432701 127.615227 
L 297.607297 143.093243 
L 298.002679 144.182272 
L 298.200369 144.410476 
L 298.39806 144.438739 
L 298.59575 144.284385 
L 298.991131 143.529059 
L 300.374966 139.909116 
L 300.572656 139.75425 
L 300.770347 139.776125 
L 300.968037 139.98981 
L 301.363418 141.017902 
L 301.7588 142.818406 
L 302.351871 146.667893 
L 303.933396 157.772161 
L 304.328777 159.371814 
L 304.724158 160.163048 
L 304.921849 160.237134 
L 305.119539 160.095464 
L 305.514921 159.182108 
L 305.910302 157.484952 
L 306.503374 153.677327 
L 307.294136 146.7983 
L 308.480279 134.032194 
L 311.050257 105.220166 
L 311.643329 101.419526 
L 312.03871 100.267543 
L 312.2364 100.173619 
L 312.434091 100.421 
L 312.829472 101.963584 
L 313.224853 104.872228 
L 313.817925 111.445867 
L 315.992521 139.031499 
L 316.387903 140.942739 
L 316.585593 141.279396 
L 316.783284 141.192514 
L 316.980974 140.685629 
L 317.376355 138.471346 
L 317.969427 132.585174 
L 318.95788 118.946628 
L 319.946333 106.22006 
L 320.539405 101.272145 
L 320.934786 99.460467 
L 321.132476 99.006143 
L 321.330167 98.83747 
L 321.527858 98.933821 
L 321.923239 99.805831 
L 322.51631 102.232287 
L 323.307073 105.565714 
L 323.702454 106.38594 
L 323.900145 106.432183 
L 324.097835 106.191711 
L 324.493216 104.763405 
L 324.888597 102.016125 
L 325.481669 95.62005 
L 327.458575 70.138923 
L 327.853956 68.240973 
L 328.051647 68.082366 
L 328.249337 68.497815 
L 328.447028 69.509111 
L 328.842409 73.347909 
L 329.23779 79.536509 
L 329.830862 92.636785 
L 331.017005 126.389114 
L 332.005458 152.17888 
L 332.59853 162.669104 
L 332.993911 166.821126 
L 333.389292 168.510503 
L 333.586983 168.425124 
L 333.784674 167.733135 
L 334.180055 164.616788 
L 334.575436 159.407 
L 335.168508 148.445075 
L 337.738485 94.269959 
L 338.133866 90.006004 
L 338.529247 87.60345 
L 338.726938 87.103841 
L 338.924629 87.056392 
L 339.122319 87.438531 
L 339.5177 89.360228 
L 340.110772 94.45634 
L 341.692297 109.844435 
L 342.087678 111.655728 
L 342.285368 112.041415 
L 342.483059 112.060658 
L 342.68075 111.710139 
L 343.076131 109.931032 
L 343.471512 106.846665 
L 344.064584 100.338081 
L 346.23918 73.457284 
L 346.832252 68.777589 
L 347.425323 65.825549 
L 347.820705 64.810252 
L 348.018395 64.579926 
L 348.216086 64.529498 
L 348.413776 64.654841 
L 348.809158 65.415032 
L 349.204539 66.821904 
L 349.79761 70.044746 
L 350.588373 76.112488 
L 351.774516 87.693591 
L 353.15835 101.200161 
L 353.751422 105.507923 
L 354.344494 108.228784 
L 354.739875 109.013698 
L 354.937566 109.086471 
L 355.135256 108.950139 
L 355.530637 108.084901 
L 355.926018 106.520032 
L 356.51909 103.174176 
L 357.705234 94.630032 
L 358.891377 84.724995 
L 359.682139 76.34789 
L 360.472902 65.55213 
L 361.856736 42.332301 
L 362.647498 30.563319 
L 363.24057 25.055067 
L 363.635951 23.724545 
L 363.833642 23.877917 
L 364.031332 24.611962 
L 364.426713 27.875691 
L 364.822095 33.530791 
L 365.415166 46.162296 
L 366.205929 68.953847 
L 368.182834 129.265667 
L 368.775906 140.990149 
L 369.171287 146.144758 
L 369.566668 149.125565 
L 369.764359 149.834399 
L 369.96205 150.056464 
L 370.15974 149.826246 
L 370.555121 148.174627 
L 371.148193 143.435587 
L 373.52048 120.2021 
L 374.113552 116.871733 
L 374.706623 114.677323 
L 375.299695 113.279965 
L 376.090458 112.05402 
L 377.869673 109.881363 
L 379.055816 108.752105 
L 379.846579 107.937448 
L 380.43965 106.911036 
L 381.032722 105.19385 
L 381.625794 102.580507 
L 382.416556 97.787145 
L 383.80039 88.986703 
L 384.195771 87.489799 
L 384.591152 86.876905 
L 384.788843 86.956974 
L 384.986534 87.315249 
L 385.381915 88.897285 
L 385.777296 91.6307 
L 386.370368 97.70043 
L 387.16113 108.518017 
L 388.940345 134.300915 
L 389.533417 140.379224 
L 390.126489 144.211227 
L 390.52187 145.380009 
L 390.71956 145.538414 
L 390.917251 145.415617 
L 391.114942 145.017608 
L 391.510323 143.435052 
L 392.103394 139.315684 
L 392.894157 131.432206 
L 394.871063 110.19981 
L 395.464134 106.225268 
L 395.859516 104.669524 
L 396.254897 104.072752 
L 396.452587 104.139217 
L 396.650278 104.443726 
L 397.045659 105.724938 
L 397.638731 109.04843 
L 399.417946 120.694243 
L 399.813327 121.522654 
L 400.011018 121.481441 
L 400.208708 121.110007 
L 400.604089 119.344102 
L 400.999471 116.248066 
L 401.592542 109.509639 
L 403.569448 84.177544 
L 404.16252 80.355012 
L 404.557901 79.142544 
L 404.953282 78.759086 
L 405.348663 78.863415 
L 405.744044 79.04847 
L 405.941735 79.040693 
L 406.139426 78.900974 
L 406.337116 78.586533 
L 406.732497 77.297435 
L 407.127879 74.988668 
L 407.72095 69.601451 
L 409.697856 47.687689 
L 410.093237 46.249364 
L 410.290928 46.274339 
L 410.488618 46.840216 
L 410.884 49.661279 
L 411.279381 54.724241 
L 411.872452 66.075507 
L 412.860905 91.323556 
L 414.047049 120.430612 
L 414.640121 129.933326 
L 415.035502 133.485962 
L 415.233192 134.356087 
L 415.430883 134.612909 
L 415.628573 134.261681 
L 415.826264 133.3171 
L 416.221645 129.751385 
L 416.814717 120.807937 
L 417.605479 104.473686 
L 418.989313 75.166961 
L 419.582385 66.092325 
L 420.175457 60.230267 
L 420.570838 58.121311 
L 420.966219 57.304313 
L 421.16391 57.314133 
L 421.3616 57.559949 
L 421.756981 58.61749 
L 422.547744 61.988408 
L 423.536197 66.09025 
L 424.129268 67.699181 
L 424.72234 68.676233 
L 426.106174 70.503251 
L 426.699246 71.912624 
L 428.280771 76.340772 
L 428.676152 76.61764 
L 428.873842 76.499256 
L 429.269223 75.710436 
L 429.862295 73.387793 
L 430.455367 70.941705 
L 430.653058 70.529432 
L 430.850748 70.531565 
L 431.048439 71.098007 
L 431.246129 72.388847 
L 431.64151 77.80528 
L 432.036892 88.055552 
L 432.036892 88.055552 
" clip-path="url(#p858ec29b20)" style="fill: none; stroke-dasharray: 4.8,1.8; stroke-dashoffset: 0; stroke: #ff7f0e; stroke-width: 1.2"/>
   </g>
   <g id="line2d_17"/>
   <g id="line2d_18"/>
   <g id="patch_3">
    <path d="M 54.438 304.212 
L 54.438 10.368 
" style="fill: none; stroke: #ffffff; stroke-linejoin: miter; stroke-linecap: square"/>
   </g>
   <g id="patch_4">
    <path d="M 450.432 304.212 
L 450.432 10.368 
" style="fill: none; stroke: #ffffff; stroke-linejoin: miter; stroke-linecap: square"/>
   </g>
   <g id="patch_5">
    <path d="M 54.438 304.212 
L 450.432 304.212 
" style="fill: none; stroke: #ffffff; stroke-linejoin: miter; stroke-linecap: square"/>
   </g>
   <g id="patch_6">
    <path d="M 54.438 10.368 
L 450.432 10.368 
" style="fill: none; stroke: #ffffff; stroke-linejoin: miter; stroke-linecap: square"/>
   </g>
   <g id="legend_1">
    <g id="patch_7">
     <path d="M 60.598 57.1995 
L 138.1565 57.1995 
Q 139.9165 57.1995 139.9165 55.4395 
L 139.9165 16.528 
Q 139.9165 14.768 138.1565 14.768 
L 60.598 14.768 
Q 58.838 14.768 58.838 16.528 
L 58.838 55.4395 
Q 58.838 57.1995 60.598 57.1995 
z
" style="fill: #e6e6e6; opacity: 0.8; stroke: #cccccc; stroke-width: 0.8; stroke-linejoin: miter"/>
    </g>
    <g id="text_17">
     <!-- nom_commune -->
     <g style="fill: #262626" transform="translate(62.358 25.5825) scale(0.096 -0.096)">
      <defs>
       <path id="DejaVuSans-63" d="M 3122 3366 
L 3122 2828 
Q 2878 2963 2633 3030 
Q 2388 3097 2138 3097 
Q 1578 3097 1268 2742 
Q 959 2388 959 1747 
Q 959 1106 1268 751 
Q 1578 397 2138 397 
Q 2388 397 2633 464 
Q 2878 531 3122 666 
L 3122 134 
Q 2881 22 2623 -34 
Q 2366 -91 2075 -91 
Q 1284 -91 818 406 
Q 353 903 353 1747 
Q 353 2603 823 3093 
Q 1294 3584 2113 3584 
Q 2378 3584 2631 3529 
Q 2884 3475 3122 3366 
z
" transform="scale(0.015625)"/>
      </defs>
      <use xlink:href="#DejaVuSans-6e"/>
      <use xlink:href="#DejaVuSans-6f" x="63.378906"/>
      <use xlink:href="#DejaVuSans-6d" x="124.560547"/>
      <use xlink:href="#DejaVuSans-5f" x="221.972656"/>
      <use xlink:href="#DejaVuSans-63" x="271.972656"/>
      <use xlink:href="#DejaVuSans-6f" x="326.953125"/>
      <use xlink:href="#DejaVuSans-6d" x="388.134766"/>
      <use xlink:href="#DejaVuSans-6d" x="485.546875"/>
      <use xlink:href="#DejaVuSans-75" x="582.958984"/>
      <use xlink:href="#DejaVuSans-6e" x="646.337891"/>
      <use xlink:href="#DejaVuSans-65" x="709.716797"/>
     </g>
    </g>
    <g id="line2d_19">
     <path d="M 71.738375 35.852625 
L 80.538375 35.852625 
L 89.338375 35.852625 
" style="fill: none; stroke: #1f77b4; stroke-width: 1.2; stroke-linecap: round"/>
    </g>
    <g id="text_18">
     <!-- Brest -->
     <g style="fill: #262626" transform="translate(96.378375 38.932625) scale(0.088 -0.088)">
      <defs>
       <path id="DejaVuSans-42" d="M 1259 2228 
L 1259 519 
L 2272 519 
Q 2781 519 3026 730 
Q 3272 941 3272 1375 
Q 3272 1813 3026 2020 
Q 2781 2228 2272 2228 
L 1259 2228 
z
M 1259 4147 
L 1259 2741 
L 2194 2741 
Q 2656 2741 2882 2914 
Q 3109 3088 3109 3444 
Q 3109 3797 2882 3972 
Q 2656 4147 2194 4147 
L 1259 4147 
z
M 628 4666 
L 2241 4666 
Q 2963 4666 3353 4366 
Q 3744 4066 3744 3513 
Q 3744 3084 3544 2831 
Q 3344 2578 2956 2516 
Q 3422 2416 3680 2098 
Q 3938 1781 3938 1306 
Q 3938 681 3513 340 
Q 3088 0 2303 0 
L 628 0 
L 628 4666 
z
" transform="scale(0.015625)"/>
      </defs>
      <use xlink:href="#DejaVuSans-42"/>
      <use xlink:href="#DejaVuSans-72" x="68.603516"/>
      <use xlink:href="#DejaVuSans-65" x="107.466797"/>
      <use xlink:href="#DejaVuSans-73" x="168.990234"/>
      <use xlink:href="#DejaVuSans-74" x="221.089844"/>
     </g>
    </g>
    <g id="line2d_20">
     <path d="M 71.738375 48.769375 
L 80.538375 48.769375 
L 89.338375 48.769375 
" style="fill: none; stroke-dasharray: 4.8,1.8; stroke-dashoffset: 0; stroke: #ff7f0e; stroke-width: 1.2"/>
    </g>
    <g id="text_19">
     <!-- Lorient -->
     <g style="fill: #262626" transform="translate(96.378375 51.849375) scale(0.088 -0.088)">
      <defs>
       <path id="DejaVuSans-4c" d="M 628 4666 
L 1259 4666 
L 1259 531 
L 3531 531 
L 3531 0 
L 628 0 
L 628 4666 
z
" transform="scale(0.015625)"/>
      </defs>
      <use xlink:href="#DejaVuSans-4c"/>
      <use xlink:href="#DejaVuSans-6f" x="53.962891"/>
      <use xlink:href="#DejaVuSans-72" x="115.144531"/>
      <use xlink:href="#DejaVuSans-69" x="156.257812"/>
      <use xlink:href="#DejaVuSans-65" x="184.041016"/>
      <use xlink:href="#DejaVuSans-6e" x="245.564453"/>
      <use xlink:href="#DejaVuSans-74" x="308.943359"/>
     </g>
    </g>
   </g>
  </g>
 </g>
 <defs>
  <clipPath id="p858ec29b20">
   <rect x="54.438" y="10.368" width="395.994" height="293.844"/>
  </clipPath>
 </defs>
</svg>
