<?xml version="1.0" encoding="utf-8" standalone="no"?>
<!DOCTYPE svg PUBLIC "-//W3C//DTD SVG 1.1//EN"
  "http://www.w3.org/Graphics/SVG/1.1/DTD/svg11.dtd">
<svg xmlns:xlink="http://www.w3.org/1999/xlink" width="460.8pt" height="345.6pt" viewBox="0 0 460.8 345.6" xmlns="http://www.w3.org/2000/svg" version="1.1">
 <metadata>
  <rdf:RDF xmlns:dc="http://purl.org/dc/elements/1.1/" xmlns:cc="http://creativecommons.org/ns#" xmlns:rdf="http://www.w3.org/1999/02/22-rdf-syntax-ns#">
   <cc:Work>
    <dc:type rdf:resource="http://purl.org/dc/dcmitype/StillImage"/>
    <dc:date>2025-08-01T00:24:48.337771</dc:date>
    <dc:format>image/svg+xml</dc:format>
    <dc:creator>
     <cc:Agent>
      <dc:title>Matplotlib v3.10.5, https://matplotlib.org/</dc:title>
     </cc:Agent>
    </dc:creator>
   </cc:Work>
  </rdf:RDF>
 </metadata>
 <defs>
  <style type="text/css">*{stroke-linejoin: round; stroke-linecap: butt}</style>
 </defs>
 <g id="figure_1">
  <g id="patch_1">
   <path d="M 0 345.6 
L 460.8 345.6 
L 460.8 0 
L 0 0 
z
" style="fill: #ffffff"/>
  </g>
  <g id="axes_1">
   <g id="patch_2">
    <path d="M 54.438 304.212 
L 450.432 304.212 
L 450.432 10.368 
L 54.438 10.368 
z
" style="fill: #e6e6e6"/>
   </g>
   <g id="matplotlib.axis_1">
    <g id="xtick_1">
     <g id="line2d_1">
      <path d="M 72.24047 304.212 
L 72.24047 10.368 
" clip-path="url(#p07e871cde5)" style="fill: none; stroke: #ffffff; stroke-width: 0.8; stroke-linecap: round"/>
     </g>
     <g id="text_1">
      <!-- 2020 -->
      <g style="fill: #262626" transform="translate(61.04247 319.198625) scale(0.088 -0.088)">
       <defs>
        <path id="DejaVuSans-32" d="M 1228 531 
L 3431 531 
L 3431 0 
L 469 0 
L 469 531 
Q 828 903 1448 1529 
Q 2069 2156 2228 2338 
Q 2531 2678 2651 2914 
Q 2772 3150 2772 3378 
Q 2772 3750 2511 3984 
Q 2250 4219 1831 4219 
Q 1534 4219 1204 4116 
Q 875 4013 500 3803 
L 500 4441 
Q 881 4594 1212 4672 
Q 1544 4750 1819 4750 
Q 2544 4750 2975 4387 
Q 3406 4025 3406 3419 
Q 3406 3131 3298 2873 
Q 3191 2616 2906 2266 
Q 2828 2175 2409 1742 
Q 1991 1309 1228 531 
z
" transform="scale(0.015625)"/>
        <path id="DejaVuSans-30" d="M 2034 4250 
Q 1547 4250 1301 3770 
Q 1056 3291 1056 2328 
Q 1056 1369 1301 889 
Q 1547 409 2034 409 
Q 2525 409 2770 889 
Q 3016 1369 3016 2328 
Q 3016 3291 2770 3770 
Q 2525 4250 2034 4250 
z
M 2034 4750 
Q 2819 4750 3233 4129 
Q 3647 3509 3647 2328 
Q 3647 1150 3233 529 
Q 2819 -91 2034 -91 
Q 1250 -91 836 529 
Q 422 1150 422 2328 
Q 422 3509 836 4129 
Q 1250 4750 2034 4750 
z
" transform="scale(0.015625)"/>
       </defs>
       <use xlink:href="#DejaVuSans-32"/>
       <use xlink:href="#DejaVuSans-30" transform="translate(63.623047 0)"/>
       <use xlink:href="#DejaVuSans-32" transform="translate(127.246094 0)"/>
       <use xlink:href="#DejaVuSans-30" transform="translate(190.869141 0)"/>
      </g>
     </g>
    </g>
    <g id="xtick_2">
     <g id="line2d_2">
      <path d="M 144.436636 304.212 
L 144.436636 10.368 
" clip-path="url(#p07e871cde5)" style="fill: none; stroke: #ffffff; stroke-width: 0.8; stroke-linecap: round"/>
     </g>
     <g id="text_2">
      <!-- 2021 -->
      <g style="fill: #262626" transform="translate(133.238636 319.198625) scale(0.088 -0.088)">
       <defs>
        <path id="DejaVuSans-31" d="M 794 531 
L 1825 531 
L 1825 4091 
L 703 3866 
L 703 4441 
L 1819 4666 
L 2450 4666 
L 2450 531 
L 3481 531 
L 3481 0 
L 794 0 
L 794 531 
z
" transform="scale(0.015625)"/>
       </defs>
       <use xlink:href="#DejaVuSans-32"/>
       <use xlink:href="#DejaVuSans-30" transform="translate(63.623047 0)"/>
       <use xlink:href="#DejaVuSans-32" transform="translate(127.246094 0)"/>
       <use xlink:href="#DejaVuSans-31" transform="translate(190.869141 0)"/>
      </g>
     </g>
    </g>
    <g id="xtick_3">
     <g id="line2d_3">
      <path d="M 216.435545 304.212 
L 216.435545 10.368 
" clip-path="url(#p07e871cde5)" style="fill: none; stroke: #ffffff; stroke-width: 0.8; stroke-linecap: round"/>
     </g>
     <g id="text_3">
      <!-- 2022 -->
      <g style="fill: #262626" transform="translate(205.237545 319.198625) scale(0.088 -0.088)">
       <use xlink:href="#DejaVuSans-32"/>
       <use xlink:href="#DejaVuSans-30" transform="translate(63.623047 0)"/>
       <use xlink:href="#DejaVuSans-32" transform="translate(127.246094 0)"/>
       <use xlink:href="#DejaVuSans-32" transform="translate(190.869141 0)"/>
      </g>
     </g>
    </g>
    <g id="xtick_4">
     <g id="line2d_4">
      <path d="M 288.434455 304.212 
L 288.434455 10.368 
" clip-path="url(#p07e871cde5)" style="fill: none; stroke: #ffffff; stroke-width: 0.8; stroke-linecap: round"/>
     </g>
     <g id="text_4">
      <!-- 2023 -->
      <g style="fill: #262626" transform="translate(277.236455 319.198625) scale(0.088 -0.088)">
       <defs>
        <path id="DejaVuSans-33" d="M 2597 2516 
Q 3050 2419 3304 2112 
Q 3559 1806 3559 1356 
Q 3559 666 3084 287 
Q 2609 -91 1734 -91 
Q 1441 -91 1130 -33 
Q 819 25 488 141 
L 488 750 
Q 750 597 1062 519 
Q 1375 441 1716 441 
Q 2309 441 2620 675 
Q 2931 909 2931 1356 
Q 2931 1769 2642 2001 
Q 2353 2234 1838 2234 
L 1294 2234 
L 1294 2753 
L 1863 2753 
Q 2328 2753 2575 2939 
Q 2822 3125 2822 3475 
Q 2822 3834 2567 4026 
Q 2313 4219 1838 4219 
Q 1578 4219 1281 4162 
Q 984 4106 628 3988 
L 628 4550 
Q 988 4650 1302 4700 
Q 1616 4750 1894 4750 
Q 2613 4750 3031 4423 
Q 3450 4097 3450 3541 
Q 3450 3153 3228 2886 
Q 3006 2619 2597 2516 
z
" transform="scale(0.015625)"/>
       </defs>
       <use xlink:href="#DejaVuSans-32"/>
       <use xlink:href="#DejaVuSans-30" transform="translate(63.623047 0)"/>
       <use xlink:href="#DejaVuSans-32" transform="translate(127.246094 0)"/>
       <use xlink:href="#DejaVuSans-33" transform="translate(190.869141 0)"/>
      </g>
     </g>
    </g>
    <g id="xtick_5">
     <g id="line2d_5">
      <path d="M 360.433364 304.212 
L 360.433364 10.368 
" clip-path="url(#p07e871cde5)" style="fill: none; stroke: #ffffff; stroke-width: 0.8; stroke-linecap: round"/>
     </g>
     <g id="text_5">
      <!-- 2024 -->
      <g style="fill: #262626" transform="translate(349.235364 319.198625) scale(0.088 -0.088)">
       <defs>
        <path id="DejaVuSans-34" d="M 2419 4116 
L 825 1625 
L 2419 1625 
L 2419 4116 
z
M 2253 4666 
L 3047 4666 
L 3047 1625 
L 3713 1625 
L 3713 1100 
L 3047 1100 
L 3047 0 
L 2419 0 
L 2419 1100 
L 313 1100 
L 313 1709 
L 2253 4666 
z
" transform="scale(0.015625)"/>
       </defs>
       <use xlink:href="#DejaVuSans-32"/>
       <use xlink:href="#DejaVuSans-30" transform="translate(63.623047 0)"/>
       <use xlink:href="#DejaVuSans-32" transform="translate(127.246094 0)"/>
       <use xlink:href="#DejaVuSans-34" transform="translate(190.869141 0)"/>
      </g>
     </g>
    </g>
    <g id="xtick_6">
     <g id="line2d_6">
      <path d="M 432.62953 304.212 
L 432.62953 10.368 
" clip-path="url(#p07e871cde5)" style="fill: none; stroke: #ffffff; stroke-width: 0.8; stroke-linecap: round"/>
     </g>
     <g id="text_6">
      <!-- 2025 -->
      <g style="fill: #262626" transform="translate(421.43153 319.198625) scale(0.088 -0.088)">
       <defs>
        <path id="DejaVuSans-35" d="M 691 4666 
L 3169 4666 
L 3169 4134 
L 1269 4134 
L 1269 2991 
Q 1406 3038 1543 3061 
Q 1681 3084 1819 3084 
Q 2600 3084 3056 2656 
Q 3513 2228 3513 1497 
Q 3513 744 3044 326 
Q 2575 -91 1722 -91 
Q 1428 -91 1123 -41 
Q 819 9 494 109 
L 494 744 
Q 775 591 1075 516 
Q 1375 441 1709 441 
Q 2250 441 2565 725 
Q 2881 1009 2881 1497 
Q 2881 1984 2565 2268 
Q 2250 2553 1709 2553 
Q 1456 2553 1204 2497 
Q 953 2441 691 2322 
L 691 4666 
z
" transform="scale(0.015625)"/>
       </defs>
       <use xlink:href="#DejaVuSans-32"/>
       <use xlink:href="#DejaVuSans-30" transform="translate(63.623047 0)"/>
       <use xlink:href="#DejaVuSans-32" transform="translate(127.246094 0)"/>
       <use xlink:href="#DejaVuSans-35" transform="translate(190.869141 0)"/>
      </g>
     </g>
    </g>
    <g id="text_7">
     <!-- date_mutation -->
     <g style="fill: #262626" transform="translate(217.476 332.32325) scale(0.096 -0.096)">
      <defs>
       <path id="DejaVuSans-64" d="M 2906 2969 
L 2906 4863 
L 3481 4863 
L 3481 0 
L 2906 0 
L 2906 525 
Q 2725 213 2448 61 
Q 2172 -91 1784 -91 
Q 1150 -91 751 415 
Q 353 922 353 1747 
Q 353 2572 751 3078 
Q 1150 3584 1784 3584 
Q 2172 3584 2448 3432 
Q 2725 3281 2906 2969 
z
M 947 1747 
Q 947 1113 1208 752 
Q 1469 391 1925 391 
Q 2381 391 2643 752 
Q 2906 1113 2906 1747 
Q 2906 2381 2643 2742 
Q 2381 3103 1925 3103 
Q 1469 3103 1208 2742 
Q 947 2381 947 1747 
z
" transform="scale(0.015625)"/>
       <path id="DejaVuSans-61" d="M 2194 1759 
Q 1497 1759 1228 1600 
Q 959 1441 959 1056 
Q 959 750 1161 570 
Q 1363 391 1709 391 
Q 2188 391 2477 730 
Q 2766 1069 2766 1631 
L 2766 1759 
L 2194 1759 
z
M 3341 1997 
L 3341 0 
L 2766 0 
L 2766 531 
Q 2569 213 2275 61 
Q 1981 -91 1556 -91 
Q 1019 -91 701 211 
Q 384 513 384 1019 
Q 384 1609 779 1909 
Q 1175 2209 1959 2209 
L 2766 2209 
L 2766 2266 
Q 2766 2663 2505 2880 
Q 2244 3097 1772 3097 
Q 1472 3097 1187 3025 
Q 903 2953 641 2809 
L 641 3341 
Q 956 3463 1253 3523 
Q 1550 3584 1831 3584 
Q 2591 3584 2966 3190 
Q 3341 2797 3341 1997 
z
" transform="scale(0.015625)"/>
       <path id="DejaVuSans-74" d="M 1172 4494 
L 1172 3500 
L 2356 3500 
L 2356 3053 
L 1172 3053 
L 1172 1153 
Q 1172 725 1289 603 
Q 1406 481 1766 481 
L 2356 481 
L 2356 0 
L 1766 0 
Q 1100 0 847 248 
Q 594 497 594 1153 
L 594 3053 
L 172 3053 
L 172 3500 
L 594 3500 
L 594 4494 
L 1172 4494 
z
" transform="scale(0.015625)"/>
       <path id="DejaVuSans-65" d="M 3597 1894 
L 3597 1613 
L 953 1613 
Q 991 1019 1311 708 
Q 1631 397 2203 397 
Q 2534 397 2845 478 
Q 3156 559 3463 722 
L 3463 178 
Q 3153 47 2828 -22 
Q 2503 -91 2169 -91 
Q 1331 -91 842 396 
Q 353 884 353 1716 
Q 353 2575 817 3079 
Q 1281 3584 2069 3584 
Q 2775 3584 3186 3129 
Q 3597 2675 3597 1894 
z
M 3022 2063 
Q 3016 2534 2758 2815 
Q 2500 3097 2075 3097 
Q 1594 3097 1305 2825 
Q 1016 2553 972 2059 
L 3022 2063 
z
" transform="scale(0.015625)"/>
       <path id="DejaVuSans-5f" d="M 3263 -1063 
L 3263 -1509 
L -63 -1509 
L -63 -1063 
L 3263 -1063 
z
" transform="scale(0.015625)"/>
       <path id="DejaVuSans-6d" d="M 3328 2828 
Q 3544 3216 3844 3400 
Q 4144 3584 4550 3584 
Q 5097 3584 5394 3201 
Q 5691 2819 5691 2113 
L 5691 0 
L 5113 0 
L 5113 2094 
Q 5113 2597 4934 2840 
Q 4756 3084 4391 3084 
Q 3944 3084 3684 2787 
Q 3425 2491 3425 1978 
L 3425 0 
L 2847 0 
L 2847 2094 
Q 2847 2600 2669 2842 
Q 2491 3084 2119 3084 
Q 1678 3084 1418 2786 
Q 1159 2488 1159 1978 
L 1159 0 
L 581 0 
L 581 3500 
L 1159 3500 
L 1159 2956 
Q 1356 3278 1631 3431 
Q 1906 3584 2284 3584 
Q 2666 3584 2933 3390 
Q 3200 3197 3328 2828 
z
" transform="scale(0.015625)"/>
       <path id="DejaVuSans-75" d="M 544 1381 
L 544 3500 
L 1119 3500 
L 1119 1403 
Q 1119 906 1312 657 
Q 1506 409 1894 409 
Q 2359 409 2629 706 
Q 2900 1003 2900 1516 
L 2900 3500 
L 3475 3500 
L 3475 0 
L 2900 0 
L 2900 538 
Q 2691 219 2414 64 
Q 2138 -91 1772 -91 
Q 1169 -91 856 284 
Q 544 659 544 1381 
z
M 1991 3584 
L 1991 3584 
z
" transform="scale(0.015625)"/>
       <path id="DejaVuSans-69" d="M 603 3500 
L 1178 3500 
L 1178 0 
L 603 0 
L 603 3500 
z
M 603 4863 
L 1178 4863 
L 1178 4134 
L 603 4134 
L 603 4863 
z
" transform="scale(0.015625)"/>
       <path id="DejaVuSans-6f" d="M 1959 3097 
Q 1497 3097 1228 2736 
Q 959 2375 959 1747 
Q 959 1119 1226 758 
Q 1494 397 1959 397 
Q 2419 397 2687 759 
Q 2956 1122 2956 1747 
Q 2956 2369 2687 2733 
Q 2419 3097 1959 3097 
z
M 1959 3584 
Q 2709 3584 3137 3096 
Q 3566 2609 3566 1747 
Q 3566 888 3137 398 
Q 2709 -91 1959 -91 
Q 1206 -91 779 398 
Q 353 888 353 1747 
Q 353 2609 779 3096 
Q 1206 3584 1959 3584 
z
" transform="scale(0.015625)"/>
       <path id="DejaVuSans-6e" d="M 3513 2113 
L 3513 0 
L 2938 0 
L 2938 2094 
Q 2938 2591 2744 2837 
Q 2550 3084 2163 3084 
Q 1697 3084 1428 2787 
Q 1159 2491 1159 1978 
L 1159 0 
L 581 0 
L 581 3500 
L 1159 3500 
L 1159 2956 
Q 1366 3272 1645 3428 
Q 1925 3584 2291 3584 
Q 2894 3584 3203 3211 
Q 3513 2838 3513 2113 
z
" transform="scale(0.015625)"/>
      </defs>
      <use xlink:href="#DejaVuSans-64"/>
      <use xlink:href="#DejaVuSans-61" transform="translate(63.476562 0)"/>
      <use xlink:href="#DejaVuSans-74" transform="translate(124.755859 0)"/>
      <use xlink:href="#DejaVuSans-65" transform="translate(163.964844 0)"/>
      <use xlink:href="#DejaVuSans-5f" transform="translate(225.488281 0)"/>
      <use xlink:href="#DejaVuSans-6d" transform="translate(275.488281 0)"/>
      <use xlink:href="#DejaVuSans-75" transform="translate(372.900391 0)"/>
      <use xlink:href="#DejaVuSans-74" transform="translate(436.279297 0)"/>
      <use xlink:href="#DejaVuSans-61" transform="translate(475.488281 0)"/>
      <use xlink:href="#DejaVuSans-74" transform="translate(536.767578 0)"/>
      <use xlink:href="#DejaVuSans-69" transform="translate(575.976562 0)"/>
      <use xlink:href="#DejaVuSans-6f" transform="translate(603.759766 0)"/>
      <use xlink:href="#DejaVuSans-6e" transform="translate(664.941406 0)"/>
     </g>
    </g>
   </g>
   <g id="matplotlib.axis_2">
    <g id="ytick_1">
     <g id="line2d_7">
      <path d="M 54.438 291.827541 
L 450.432 291.827541 
" clip-path="url(#p07e871cde5)" style="fill: none; stroke: #ffffff; stroke-width: 0.8; stroke-linecap: round"/>
     </g>
     <g id="text_8">
      <!-- 1400 -->
      <g style="fill: #262626" transform="translate(23.742 295.170853) scale(0.088 -0.088)">
       <use xlink:href="#DejaVuSans-31"/>
       <use xlink:href="#DejaVuSans-34" transform="translate(63.623047 0)"/>
       <use xlink:href="#DejaVuSans-30" transform="translate(127.246094 0)"/>
       <use xlink:href="#DejaVuSans-30" transform="translate(190.869141 0)"/>
      </g>
     </g>
    </g>
    <g id="ytick_2">
     <g id="line2d_8">
      <path d="M 54.438 258.759985 
L 450.432 258.759985 
" clip-path="url(#p07e871cde5)" style="fill: none; stroke: #ffffff; stroke-width: 0.8; stroke-linecap: round"/>
     </g>
     <g id="text_9">
      <!-- 1600 -->
      <g style="fill: #262626" transform="translate(23.742 262.103298) scale(0.088 -0.088)">
       <defs>
        <path id="DejaVuSans-36" d="M 2113 2584 
Q 1688 2584 1439 2293 
Q 1191 2003 1191 1497 
Q 1191 994 1439 701 
Q 1688 409 2113 409 
Q 2538 409 2786 701 
Q 3034 994 3034 1497 
Q 3034 2003 2786 2293 
Q 2538 2584 2113 2584 
z
M 3366 4563 
L 3366 3988 
Q 3128 4100 2886 4159 
Q 2644 4219 2406 4219 
Q 1781 4219 1451 3797 
Q 1122 3375 1075 2522 
Q 1259 2794 1537 2939 
Q 1816 3084 2150 3084 
Q 2853 3084 3261 2657 
Q 3669 2231 3669 1497 
Q 3669 778 3244 343 
Q 2819 -91 2113 -91 
Q 1303 -91 875 529 
Q 447 1150 447 2328 
Q 447 3434 972 4092 
Q 1497 4750 2381 4750 
Q 2619 4750 2861 4703 
Q 3103 4656 3366 4563 
z
" transform="scale(0.015625)"/>
       </defs>
       <use xlink:href="#DejaVuSans-31"/>
       <use xlink:href="#DejaVuSans-36" transform="translate(63.623047 0)"/>
       <use xlink:href="#DejaVuSans-30" transform="translate(127.246094 0)"/>
       <use xlink:href="#DejaVuSans-30" transform="translate(190.869141 0)"/>
      </g>
     </g>
    </g>
    <g id="ytick_3">
     <g id="line2d_9">
      <path d="M 54.438 225.692429 
L 450.432 225.692429 
" clip-path="url(#p07e871cde5)" style="fill: none; stroke: #ffffff; stroke-width: 0.8; stroke-linecap: round"/>
     </g>
     <g id="text_10">
      <!-- 1800 -->
      <g style="fill: #262626" transform="translate(23.742 229.035742) scale(0.088 -0.088)">
       <defs>
        <path id="DejaVuSans-38" d="M 2034 2216 
Q 1584 2216 1326 1975 
Q 1069 1734 1069 1313 
Q 1069 891 1326 650 
Q 1584 409 2034 409 
Q 2484 409 2743 651 
Q 3003 894 3003 1313 
Q 3003 1734 2745 1975 
Q 2488 2216 2034 2216 
z
M 1403 2484 
Q 997 2584 770 2862 
Q 544 3141 544 3541 
Q 544 4100 942 4425 
Q 1341 4750 2034 4750 
Q 2731 4750 3128 4425 
Q 3525 4100 3525 3541 
Q 3525 3141 3298 2862 
Q 3072 2584 2669 2484 
Q 3125 2378 3379 2068 
Q 3634 1759 3634 1313 
Q 3634 634 3220 271 
Q 2806 -91 2034 -91 
Q 1263 -91 848 271 
Q 434 634 434 1313 
Q 434 1759 690 2068 
Q 947 2378 1403 2484 
z
M 1172 3481 
Q 1172 3119 1398 2916 
Q 1625 2713 2034 2713 
Q 2441 2713 2670 2916 
Q 2900 3119 2900 3481 
Q 2900 3844 2670 4047 
Q 2441 4250 2034 4250 
Q 1625 4250 1398 4047 
Q 1172 3844 1172 3481 
z
" transform="scale(0.015625)"/>
       </defs>
       <use xlink:href="#DejaVuSans-31"/>
       <use xlink:href="#DejaVuSans-38" transform="translate(63.623047 0)"/>
       <use xlink:href="#DejaVuSans-30" transform="translate(127.246094 0)"/>
       <use xlink:href="#DejaVuSans-30" transform="translate(190.869141 0)"/>
      </g>
     </g>
    </g>
    <g id="ytick_4">
     <g id="line2d_10">
      <path d="M 54.438 192.624874 
L 450.432 192.624874 
" clip-path="url(#p07e871cde5)" style="fill: none; stroke: #ffffff; stroke-width: 0.8; stroke-linecap: round"/>
     </g>
     <g id="text_11">
      <!-- 2000 -->
      <g style="fill: #262626" transform="translate(23.742 195.968186) scale(0.088 -0.088)">
       <use xlink:href="#DejaVuSans-32"/>
       <use xlink:href="#DejaVuSans-30" transform="translate(63.623047 0)"/>
       <use xlink:href="#DejaVuSans-30" transform="translate(127.246094 0)"/>
       <use xlink:href="#DejaVuSans-30" transform="translate(190.869141 0)"/>
      </g>
     </g>
    </g>
    <g id="ytick_5">
     <g id="line2d_11">
      <path d="M 54.438 159.557318 
L 450.432 159.557318 
" clip-path="url(#p07e871cde5)" style="fill: none; stroke: #ffffff; stroke-width: 0.8; stroke-linecap: round"/>
     </g>
     <g id="text_12">
      <!-- 2200 -->
      <g style="fill: #262626" transform="translate(23.742 162.900631) scale(0.088 -0.088)">
       <use xlink:href="#DejaVuSans-32"/>
       <use xlink:href="#DejaVuSans-32" transform="translate(63.623047 0)"/>
       <use xlink:href="#DejaVuSans-30" transform="translate(127.246094 0)"/>
       <use xlink:href="#DejaVuSans-30" transform="translate(190.869141 0)"/>
      </g>
     </g>
    </g>
    <g id="ytick_6">
     <g id="line2d_12">
      <path d="M 54.438 126.489762 
L 450.432 126.489762 
" clip-path="url(#p07e871cde5)" style="fill: none; stroke: #ffffff; stroke-width: 0.8; stroke-linecap: round"/>
     </g>
     <g id="text_13">
      <!-- 2400 -->
      <g style="fill: #262626" transform="translate(23.742 129.833075) scale(0.088 -0.088)">
       <use xlink:href="#DejaVuSans-32"/>
       <use xlink:href="#DejaVuSans-34" transform="translate(63.623047 0)"/>
       <use xlink:href="#DejaVuSans-30" transform="translate(127.246094 0)"/>
       <use xlink:href="#DejaVuSans-30" transform="translate(190.869141 0)"/>
      </g>
     </g>
    </g>
    <g id="ytick_7">
     <g id="line2d_13">
      <path d="M 54.438 93.422207 
L 450.432 93.422207 
" clip-path="url(#p07e871cde5)" style="fill: none; stroke: #ffffff; stroke-width: 0.8; stroke-linecap: round"/>
     </g>
     <g id="text_14">
      <!-- 2600 -->
      <g style="fill: #262626" transform="translate(23.742 96.765519) scale(0.088 -0.088)">
       <use xlink:href="#DejaVuSans-32"/>
       <use xlink:href="#DejaVuSans-36" transform="translate(63.623047 0)"/>
       <use xlink:href="#DejaVuSans-30" transform="translate(127.246094 0)"/>
       <use xlink:href="#DejaVuSans-30" transform="translate(190.869141 0)"/>
      </g>
     </g>
    </g>
    <g id="ytick_8">
     <g id="line2d_14">
      <path d="M 54.438 60.354651 
L 450.432 60.354651 
" clip-path="url(#p07e871cde5)" style="fill: none; stroke: #ffffff; stroke-width: 0.8; stroke-linecap: round"/>
     </g>
     <g id="text_15">
      <!-- 2800 -->
      <g style="fill: #262626" transform="translate(23.742 63.697963) scale(0.088 -0.088)">
       <use xlink:href="#DejaVuSans-32"/>
       <use xlink:href="#DejaVuSans-38" transform="translate(63.623047 0)"/>
       <use xlink:href="#DejaVuSans-30" transform="translate(127.246094 0)"/>
       <use xlink:href="#DejaVuSans-30" transform="translate(190.869141 0)"/>
      </g>
     </g>
    </g>
    <g id="ytick_9">
     <g id="line2d_15">
      <path d="M 54.438 27.287095 
L 450.432 27.287095 
" clip-path="url(#p07e871cde5)" style="fill: none; stroke: #ffffff; stroke-width: 0.8; stroke-linecap: round"/>
     </g>
     <g id="text_16">
      <!-- 3000 -->
      <g style="fill: #262626" transform="translate(23.742 30.630408) scale(0.088 -0.088)">
       <use xlink:href="#DejaVuSans-33"/>
       <use xlink:href="#DejaVuSans-30" transform="translate(63.623047 0)"/>
       <use xlink:href="#DejaVuSans-30" transform="translate(127.246094 0)"/>
       <use xlink:href="#DejaVuSans-30" transform="translate(190.869141 0)"/>
      </g>
     </g>
    </g>
    <g id="text_17">
     <!-- prixm2_smooth -->
     <g style="fill: #262626" transform="translate(17.4785 194.58825) rotate(-90) scale(0.096 -0.096)">
      <defs>
       <path id="DejaVuSans-70" d="M 1159 525 
L 1159 -1331 
L 581 -1331 
L 581 3500 
L 1159 3500 
L 1159 2969 
Q 1341 3281 1617 3432 
Q 1894 3584 2278 3584 
Q 2916 3584 3314 3078 
Q 3713 2572 3713 1747 
Q 3713 922 3314 415 
Q 2916 -91 2278 -91 
Q 1894 -91 1617 61 
Q 1341 213 1159 525 
z
M 3116 1747 
Q 3116 2381 2855 2742 
Q 2594 3103 2138 3103 
Q 1681 3103 1420 2742 
Q 1159 2381 1159 1747 
Q 1159 1113 1420 752 
Q 1681 391 2138 391 
Q 2594 391 2855 752 
Q 3116 1113 3116 1747 
z
" transform="scale(0.015625)"/>
       <path id="DejaVuSans-72" d="M 2631 2963 
Q 2534 3019 2420 3045 
Q 2306 3072 2169 3072 
Q 1681 3072 1420 2755 
Q 1159 2438 1159 1844 
L 1159 0 
L 581 0 
L 581 3500 
L 1159 3500 
L 1159 2956 
Q 1341 3275 1631 3429 
Q 1922 3584 2338 3584 
Q 2397 3584 2469 3576 
Q 2541 3569 2628 3553 
L 2631 2963 
z
" transform="scale(0.015625)"/>
       <path id="DejaVuSans-78" d="M 3513 3500 
L 2247 1797 
L 3578 0 
L 2900 0 
L 1881 1375 
L 863 0 
L 184 0 
L 1544 1831 
L 300 3500 
L 978 3500 
L 1906 2253 
L 2834 3500 
L 3513 3500 
z
" transform="scale(0.015625)"/>
       <path id="DejaVuSans-73" d="M 2834 3397 
L 2834 2853 
Q 2591 2978 2328 3040 
Q 2066 3103 1784 3103 
Q 1356 3103 1142 2972 
Q 928 2841 928 2578 
Q 928 2378 1081 2264 
Q 1234 2150 1697 2047 
L 1894 2003 
Q 2506 1872 2764 1633 
Q 3022 1394 3022 966 
Q 3022 478 2636 193 
Q 2250 -91 1575 -91 
Q 1294 -91 989 -36 
Q 684 19 347 128 
L 347 722 
Q 666 556 975 473 
Q 1284 391 1588 391 
Q 1994 391 2212 530 
Q 2431 669 2431 922 
Q 2431 1156 2273 1281 
Q 2116 1406 1581 1522 
L 1381 1569 
Q 847 1681 609 1914 
Q 372 2147 372 2553 
Q 372 3047 722 3315 
Q 1072 3584 1716 3584 
Q 2034 3584 2315 3537 
Q 2597 3491 2834 3397 
z
" transform="scale(0.015625)"/>
       <path id="DejaVuSans-68" d="M 3513 2113 
L 3513 0 
L 2938 0 
L 2938 2094 
Q 2938 2591 2744 2837 
Q 2550 3084 2163 3084 
Q 1697 3084 1428 2787 
Q 1159 2491 1159 1978 
L 1159 0 
L 581 0 
L 581 4863 
L 1159 4863 
L 1159 2956 
Q 1366 3272 1645 3428 
Q 1925 3584 2291 3584 
Q 2894 3584 3203 3211 
Q 3513 2838 3513 2113 
z
" transform="scale(0.015625)"/>
      </defs>
      <use xlink:href="#DejaVuSans-70"/>
      <use xlink:href="#DejaVuSans-72" transform="translate(63.476562 0)"/>
      <use xlink:href="#DejaVuSans-69" transform="translate(104.589844 0)"/>
      <use xlink:href="#DejaVuSans-78" transform="translate(132.373047 0)"/>
      <use xlink:href="#DejaVuSans-6d" transform="translate(191.552734 0)"/>
      <use xlink:href="#DejaVuSans-32" transform="translate(288.964844 0)"/>
      <use xlink:href="#DejaVuSans-5f" transform="translate(352.587891 0)"/>
      <use xlink:href="#DejaVuSans-73" transform="translate(402.587891 0)"/>
      <use xlink:href="#DejaVuSans-6d" transform="translate(454.6875 0)"/>
      <use xlink:href="#DejaVuSans-6f" transform="translate(552.099609 0)"/>
      <use xlink:href="#DejaVuSans-6f" transform="translate(613.28125 0)"/>
      <use xlink:href="#DejaVuSans-74" transform="translate(674.462891 0)"/>
      <use xlink:href="#DejaVuSans-68" transform="translate(713.671875 0)"/>
     </g>
    </g>
   </g>
   <g id="FillBetweenPolyCollection_1"/>
   <g id="FillBetweenPolyCollection_2"/>
   <g id="line2d_16">
    <path d="M 72.437727 232.789335 
L 73.029499 242.433401 
L 75.002072 280.378915 
L 75.593844 286.944183 
L 75.988358 289.501473 
L 76.382873 290.706328 
L 76.58013 290.855455 
L 76.777388 290.738029 
L 77.171902 289.822325 
L 77.763674 287.205921 
L 80.525276 272.439832 
L 81.70882 268.39559 
L 85.456708 256.950284 
L 86.04848 256.074299 
L 87.429281 254.536033 
L 87.823796 253.548067 
L 88.21831 251.922252 
L 88.612825 249.430561 
L 89.204597 243.669025 
L 89.796368 235.240691 
L 90.585398 220.475802 
L 91.966199 193.653596 
L 92.55797 186.570203 
L 92.952485 184.546405 
L 93.149742 184.448289 
L 93.347 184.977219 
L 93.741514 187.89095 
L 94.136029 193.110121 
L 94.7278 204.438133 
L 97.292145 261.325235 
L 97.883917 268.98547 
L 98.475689 273.919233 
L 98.870203 275.919536 
L 99.264718 277.094459 
L 99.659233 277.622309 
L 100.053747 277.660816 
L 100.448262 277.333874 
L 101.040034 276.330962 
L 101.631805 274.809457 
L 102.223577 272.752686 
L 103.012606 269.049804 
L 103.801636 264.165989 
L 104.985179 255.014821 
L 106.760495 240.985763 
L 107.352267 237.775411 
L 107.746781 236.462736 
L 108.141296 235.974936 
L 108.338553 236.076433 
L 108.53581 236.422579 
L 108.930325 237.872665 
L 109.32484 240.333916 
L 109.916611 245.769329 
L 110.902898 257.997586 
L 112.086442 272.547081 
L 112.678213 277.510801 
L 113.072728 279.533847 
L 113.467243 280.476214 
L 113.6645 280.558831 
L 113.861757 280.40267 
L 114.256272 279.463607 
L 114.848044 276.912487 
L 116.426102 269.125966 
L 117.017874 267.368228 
L 117.806903 265.91466 
L 118.398675 264.699758 
L 118.793189 263.379394 
L 119.187704 261.373642 
L 119.779476 256.687075 
L 120.371248 249.748802 
L 121.160277 237.413431 
L 122.935592 207.982391 
L 123.527364 202.254881 
L 123.921879 200.485062 
L 124.119136 200.265172 
L 124.316393 200.491685 
L 124.513651 201.156122 
L 124.908165 203.723099 
L 125.499937 210.189271 
L 126.486223 224.840594 
L 127.47251 238.585366 
L 128.064282 244.062713 
L 128.458796 246.118751 
L 128.656054 246.641175 
L 128.853311 246.830205 
L 129.050568 246.696786 
L 129.247825 246.258109 
L 129.64234 244.56266 
L 130.234112 240.469624 
L 131.614913 229.565001 
L 132.009427 227.603371 
L 132.403942 226.602463 
L 132.601199 226.496715 
L 132.798457 226.659137 
L 133.192971 227.764349 
L 133.587486 229.810994 
L 134.179258 234.224182 
L 136.15183 250.702219 
L 136.743602 253.689884 
L 137.138117 254.897988 
L 137.532631 255.471725 
L 137.729889 255.524723 
L 137.927146 255.424922 
L 138.321661 254.776172 
L 138.716175 253.540526 
L 139.307947 250.601792 
L 139.899719 246.363893 
L 140.688748 238.74517 
L 141.675034 226.646361 
L 143.253093 207.163764 
L 143.844865 202.63702 
L 144.239379 201.182005 
L 144.436636 200.992229 
L 144.633894 201.178536 
L 144.831151 201.745937 
L 145.225666 204.009387 
L 145.62018 207.684722 
L 146.211952 215.386912 
L 147.592753 238.097188 
L 148.579039 252.434134 
L 149.170811 258.672763 
L 149.762583 262.87851 
L 150.157098 264.609044 
L 150.551612 265.575544 
L 150.946127 265.8777 
L 151.143384 265.810646 
L 151.537899 265.295154 
L 151.932413 264.328932 
L 152.524185 262.134242 
L 153.115957 259.110023 
L 153.904986 253.863858 
L 155.08853 244.058177 
L 156.469331 232.864476 
L 157.25836 228.437975 
L 157.850132 226.425329 
L 158.441904 225.366361 
L 159.230933 224.680576 
L 159.625447 224.267608 
L 160.019962 223.590404 
L 160.414476 222.529775 
L 161.006248 220.102525 
L 161.795277 215.495351 
L 163.373336 205.556678 
L 163.965108 203.064501 
L 164.556879 201.597324 
L 164.951394 201.134586 
L 165.345909 200.989802 
L 165.93768 201.141267 
L 167.121224 201.623777 
L 167.712996 201.610642 
L 169.291054 201.303261 
L 169.685569 201.477768 
L 170.080083 201.871886 
L 170.474598 202.527713 
L 171.06637 204.055882 
L 171.658142 206.249168 
L 172.447171 210.086436 
L 175.011516 223.953223 
L 175.603287 225.683559 
L 175.997802 226.220826 
L 176.195059 226.288313 
L 176.392317 226.218834 
L 176.786831 225.673259 
L 177.181346 224.615596 
L 177.773118 222.228126 
L 179.942948 211.974992 
L 180.337462 211.105743 
L 180.731977 210.807474 
L 180.929234 210.883784 
L 181.323749 211.485455 
L 181.718263 212.65014 
L 182.310035 215.26477 
L 184.479865 226.321075 
L 184.87438 227.314002 
L 185.268894 227.764482 
L 185.466152 227.781576 
L 185.663409 227.662332 
L 186.057924 227.035345 
L 186.452438 225.942899 
L 187.04421 223.616867 
L 188.425011 216.741325 
L 189.411297 212.307975 
L 190.200327 209.77712 
L 190.792098 208.608227 
L 191.186613 208.192213 
L 191.581128 208.068468 
L 191.975642 208.235333 
L 192.370157 208.68861 
L 192.961929 209.886475 
L 193.5537 211.653449 
L 194.539987 215.531148 
L 195.920788 221.081805 
L 196.51256 222.612413 
L 196.907074 223.118057 
L 197.104332 223.191468 
L 197.301589 223.138045 
L 197.696103 222.640511 
L 198.090618 221.625205 
L 198.68239 219.208933 
L 199.471419 214.709001 
L 201.443992 202.731922 
L 202.035764 200.560032 
L 202.430278 199.72731 
L 202.824793 199.409627 
L 203.02205 199.440282 
L 203.416565 199.858675 
L 203.811079 200.709374 
L 204.402851 202.656493 
L 205.19188 206.158225 
L 206.769938 214.566163 
L 207.756225 219.395131 
L 208.347997 221.438929 
L 208.742511 222.213919 
L 208.939769 222.384123 
L 209.137026 222.39317 
L 209.334283 222.230476 
L 209.728798 221.355864 
L 210.123312 219.71176 
L 210.715084 215.782574 
L 211.306856 210.214979 
L 212.293142 198.251126 
L 213.871201 178.550917 
L 214.462973 173.418457 
L 214.857487 171.187309 
L 215.252002 170.021386 
L 215.449259 169.84658 
L 215.646516 169.939406 
L 215.843774 170.290947 
L 216.238288 171.714111 
L 216.83006 175.350461 
L 217.816346 183.728612 
L 218.99989 193.756952 
L 219.788919 198.710658 
L 220.380691 201.181888 
L 220.775206 202.211991 
L 221.16972 202.748423 
L 221.366978 202.832267 
L 221.564235 202.793586 
L 221.958749 202.350074 
L 222.353264 201.423111 
L 222.945036 199.158945 
L 223.734065 194.715272 
L 226.101152 179.758772 
L 226.495667 178.597523 
L 226.890182 178.128969 
L 227.087439 178.160762 
L 227.284696 178.365431 
L 227.679211 179.257191 
L 228.270983 181.581648 
L 230.63807 192.892551 
L 231.229842 194.409397 
L 231.821614 195.34287 
L 232.610643 196.078453 
L 234.188701 197.155814 
L 234.583216 197.230031 
L 234.97773 197.063865 
L 235.372245 196.553798 
L 235.766759 195.610218 
L 236.358531 193.266903 
L 236.950303 189.835491 
L 239.317391 174.273401 
L 239.711905 173.254341 
L 239.909162 173.039486 
L 240.10642 173.022352 
L 240.303677 173.197446 
L 240.698192 174.077541 
L 241.289963 176.434756 
L 242.868022 183.790837 
L 243.262536 184.849865 
L 243.657051 185.404069 
L 244.051565 185.470399 
L 244.44608 185.119627 
L 245.037852 184.047478 
L 247.207682 179.383636 
L 248.588483 176.787968 
L 249.574769 174.311803 
L 252.139114 167.405724 
L 253.519915 163.863533 
L 255.492488 158.265065 
L 255.887002 157.760728 
L 256.08426 157.67946 
L 256.281517 157.727614 
L 256.676032 158.243247 
L 257.070546 159.337963 
L 257.662318 161.996082 
L 258.451347 166.892921 
L 259.832148 175.603657 
L 260.42392 178.140305 
L 261.015692 179.663353 
L 261.410206 180.171577 
L 261.804721 180.374712 
L 262.396493 180.365432 
L 262.988265 180.350613 
L 263.382779 180.51413 
L 263.777294 180.896744 
L 264.369066 181.926708 
L 265.158095 183.996096 
L 266.93341 188.981903 
L 267.919697 190.892053 
L 269.300498 193.398568 
L 270.089527 195.370828 
L 272.259357 201.537916 
L 272.653872 202.080621 
L 273.048386 202.253825 
L 273.442901 202.031163 
L 273.837415 201.424877 
L 274.429187 199.913538 
L 275.612731 195.838151 
L 276.599017 192.712611 
L 278.966105 185.98911 
L 279.755134 182.406544 
L 280.938678 175.601824 
L 281.924964 170.147523 
L 282.516736 167.842244 
L 282.911251 166.957374 
L 283.305765 166.694835 
L 283.503022 166.812552 
L 283.897537 167.552054 
L 284.292052 168.933946 
L 284.883823 172.016639 
L 287.053654 185.141874 
L 287.645425 186.863106 
L 288.03994 187.360229 
L 288.434455 187.412471 
L 288.828969 187.130784 
L 289.617998 186.081314 
L 290.407027 185.094214 
L 291.196057 184.508146 
L 292.182343 183.859135 
L 292.774115 183.061416 
L 293.365887 181.713037 
L 293.957659 179.761285 
L 294.746688 176.361401 
L 296.127489 169.139381 
L 297.311032 161.983046 
L 298.297319 154.666759 
L 299.283605 145.60186 
L 301.650693 122.719158 
L 302.242465 119.477944 
L 302.636979 118.408758 
L 302.834236 118.241651 
L 303.031494 118.332308 
L 303.228751 118.687281 
L 303.623266 120.203065 
L 304.01778 122.785737 
L 304.609552 128.529325 
L 305.398581 138.980877 
L 307.568411 170.264341 
L 308.160183 175.881143 
L 308.751955 179.500806 
L 309.146469 180.87246 
L 309.540984 181.554598 
L 309.935499 181.728866 
L 310.52727 181.512545 
L 310.921785 181.380529 
L 311.3163 181.503226 
L 311.710814 182.048977 
L 312.105329 183.131216 
L 312.697101 185.846525 
L 313.48613 191.220058 
L 315.064188 203.110036 
L 315.65596 205.87278 
L 316.050474 206.755779 
L 316.247732 206.87696 
L 316.444989 206.778427 
L 316.642246 206.460244 
L 317.036761 205.18401 
L 317.628533 201.836667 
L 318.417562 195.501174 
L 319.798363 184.205282 
L 320.390135 181.344008 
L 320.784649 180.56859 
L 320.981907 180.559579 
L 321.179164 180.809636 
L 321.573678 182.07533 
L 321.968193 184.287124 
L 322.559965 188.991783 
L 324.138023 202.518053 
L 324.532538 204.250017 
L 324.729795 204.661371 
L 324.927052 204.73738 
L 325.12431 204.462009 
L 325.518824 202.82874 
L 325.913339 199.778878 
L 326.505111 192.869671 
L 327.491397 177.522485 
L 328.477683 162.468125 
L 329.069455 155.909196 
L 329.46397 153.098898 
L 329.858484 151.688151 
L 330.055742 151.518128 
L 330.252999 151.698755 
L 330.450256 152.218209 
L 330.844771 154.199874 
L 331.436543 159.133078 
L 332.422829 170.254425 
L 333.409116 180.892638 
L 334.000887 185.437345 
L 334.395402 187.415687 
L 334.789917 188.516289 
L 334.987174 188.748207 
L 335.184431 188.780635 
L 335.381688 188.626764 
L 335.776203 187.823875 
L 336.367975 185.657675 
L 337.551519 179.792516 
L 338.340548 176.326532 
L 338.93232 174.693457 
L 339.326834 174.271675 
L 339.524091 174.293538 
L 339.721349 174.480556 
L 340.115863 175.363483 
L 340.510378 176.91305 
L 341.10215 180.31893 
L 343.074723 193.459211 
L 343.469237 194.825976 
L 343.863752 195.469889 
L 344.061009 195.524189 
L 344.258266 195.412225 
L 344.652781 194.753414 
L 345.244553 193.00718 
L 346.230839 189.805656 
L 346.625354 188.98141 
L 347.019868 188.612909 
L 347.217126 188.617446 
L 347.61164 189.005904 
L 348.006155 189.861107 
L 348.597927 191.817267 
L 350.373242 198.422526 
L 350.965014 199.591997 
L 351.359529 199.918119 
L 351.754043 199.894464 
L 352.148558 199.567799 
L 352.74033 198.67301 
L 354.121131 196.353784 
L 354.515645 196.026679 
L 354.91016 195.950012 
L 355.304674 196.131431 
L 355.896446 196.82144 
L 357.277247 198.926414 
L 357.671762 199.109487 
L 357.869019 199.046055 
L 358.263533 198.530995 
L 358.658048 197.412862 
L 359.052563 195.622055 
L 359.644334 191.642402 
L 360.433364 184.260551 
L 362.208679 166.030507 
L 362.800451 162.280774 
L 363.194966 160.982027 
L 363.392223 160.723852 
L 363.58948 160.72927 
L 363.786737 160.994608 
L 364.181252 162.26919 
L 364.575767 164.439949 
L 365.167538 169.036054 
L 366.153825 178.791991 
L 368.126398 198.568775 
L 369.309941 208.08358 
L 370.098971 213.053084 
L 370.690742 215.861255 
L 371.282514 217.699244 
L 371.677029 218.302097 
L 371.874286 218.40046 
L 372.071543 218.357911 
L 372.466058 217.839981 
L 372.860573 216.742021 
L 373.452344 214.059626 
L 374.241374 208.909134 
L 376.016689 196.241971 
L 376.608461 193.91915 
L 377.002976 193.39036 
L 377.200233 193.467487 
L 377.39749 193.778479 
L 377.792005 195.091779 
L 378.186519 197.258625 
L 378.975548 203.466454 
L 380.159092 213.281439 
L 380.553607 215.37122 
L 380.948121 216.348553 
L 381.145379 216.340556 
L 381.342636 215.967073 
L 381.73715 214.048513 
L 382.131665 210.493844 
L 382.723437 202.08864 
L 383.315209 190.311099 
L 384.301495 165.298967 
L 386.076811 118.961467 
L 386.86584 104.918442 
L 387.457612 98.845499 
L 387.852126 97.106585 
L 388.049384 96.931366 
L 388.246641 97.209475 
L 388.443898 97.928991 
L 388.838413 100.627442 
L 389.430185 107.500715 
L 390.219214 120.750953 
L 392.783558 168.28343 
L 393.37533 174.913989 
L 393.967102 179.366518 
L 394.558874 182.167823 
L 395.347903 184.620527 
L 396.33419 187.751347 
L 398.50402 195.823153 
L 398.898534 196.249349 
L 399.095792 196.226062 
L 399.293049 196.037356 
L 399.687563 195.168444 
L 400.279335 192.781763 
L 402.251908 183.187939 
L 402.646423 182.647994 
L 402.84368 182.682218 
L 403.040937 182.926697 
L 403.435452 184.037757 
L 403.829966 185.91421 
L 404.421738 189.845004 
L 406.197054 202.726226 
L 406.591568 204.386943 
L 406.986083 205.263802 
L 407.18334 205.386362 
L 407.380598 205.294238 
L 407.577855 204.989187 
L 407.972369 203.766628 
L 408.564141 200.598856 
L 409.550428 193.257927 
L 410.339457 187.770013 
L 410.733971 185.90964 
L 411.128486 184.961014 
L 411.325743 184.884747 
L 411.523 185.093814 
L 411.917515 186.392125 
L 412.31203 188.838488 
L 412.903801 194.358385 
L 415.073632 217.677808 
L 415.468146 219.43619 
L 415.665403 219.813614 
L 415.862661 219.84457 
L 416.059918 219.528743 
L 416.454433 217.888986 
L 416.848947 215.020656 
L 417.440719 208.89932 
L 419.610549 183.570709 
L 420.202321 180.005569 
L 420.596836 178.920242 
L 420.794093 178.759689 
L 420.99135 178.840315 
L 421.188607 179.146586 
L 421.583122 180.355645 
L 422.174894 183.2863 
L 423.950209 193.14192 
L 424.541981 194.824051 
L 424.936496 195.274594 
L 425.133753 195.303305 
L 425.528268 194.994605 
L 425.922782 194.243361 
L 426.514554 192.396446 
L 427.106326 189.758719 
L 427.698098 186.269479 
L 428.28987 181.730634 
L 429.078899 173.696399 
L 431.248729 148.875785 
L 431.445986 148.422333 
L 431.643244 148.730862 
L 431.840501 149.927669 
L 432.235015 155.463647 
L 432.432273 160.010593 
L 432.432273 160.010593 
" clip-path="url(#p07e871cde5)" style="fill: none; stroke: #1f77b4; stroke-width: 1.2; stroke-linecap: round"/>
   </g>
   <g id="line2d_17">
    <path d="M 73.424014 243.300668 
L 75.199329 236.987797 
L 76.382873 231.169019 
L 77.171902 227.522738 
L 77.763674 225.702808 
L 78.158189 225.169451 
L 78.355446 225.144066 
L 78.552703 225.291479 
L 78.947218 226.127864 
L 79.341732 227.704264 
L 79.933504 231.435462 
L 80.525276 236.672146 
L 81.511562 247.957564 
L 83.484135 271.820013 
L 84.075907 276.44149 
L 84.470422 278.204323 
L 84.667679 278.617797 
L 84.864936 278.690998 
L 85.062194 278.405375 
L 85.456708 276.696045 
L 85.851223 273.394718 
L 86.442995 265.370529 
L 87.034766 253.738869 
L 87.823796 233.254862 
L 89.007339 195.497339 
L 90.38814 152.517145 
L 90.979912 139.095844 
L 91.374427 132.977269 
L 91.768941 129.54756 
L 91.966199 128.921924 
L 92.163456 129.049012 
L 92.360713 129.937039 
L 92.755228 133.977563 
L 93.149742 140.898331 
L 93.741514 155.923845 
L 94.925058 195.093574 
L 95.714087 219.063505 
L 96.305859 231.153115 
L 96.700373 235.264474 
L 96.897631 236.01491 
L 97.094888 235.882891 
L 97.292145 234.882797 
L 97.68666 230.429874 
L 98.278432 218.643085 
L 100.251004 170.720395 
L 100.645519 166.230176 
L 100.842776 165.104331 
L 101.040034 164.74893 
L 101.237291 165.159205 
L 101.434548 166.312542 
L 101.829063 170.674982 
L 102.420835 181.340333 
L 104.393407 222.588154 
L 104.787922 226.975161 
L 105.182437 229.288283 
L 105.379694 229.676884 
L 105.576951 229.581557 
L 105.774208 229.035687 
L 106.168723 226.76549 
L 106.760495 221.204513 
L 108.338553 204.219331 
L 108.930325 200.232033 
L 109.32484 198.727856 
L 109.719354 198.16683 
L 109.916611 198.232285 
L 110.113869 198.52191 
L 110.508383 199.753444 
L 110.902898 201.826279 
L 111.49467 206.463191 
L 112.086442 212.877045 
L 112.875471 223.914364 
L 115.242558 260.061448 
L 115.637073 263.416431 
L 116.031587 265.212851 
L 116.228845 265.467563 
L 116.426102 265.273383 
L 116.623359 264.623454 
L 117.017874 261.963216 
L 117.412388 257.570423 
L 118.00416 248.181717 
L 118.990447 227.884265 
L 120.17399 203.893171 
L 120.963019 192.520574 
L 121.554791 187.248733 
L 121.949306 185.1643 
L 122.34382 184.013483 
L 122.738335 183.575886 
L 123.13285 183.64445 
L 123.527364 184.065824 
L 123.921879 184.768998 
L 124.513651 186.426502 
L 124.908165 188.116978 
L 125.499937 191.99026 
L 126.091709 197.991119 
L 126.683481 206.41594 
L 127.47251 220.986017 
L 129.445083 259.282721 
L 130.036855 266.092772 
L 130.431369 268.537698 
L 130.628626 269.090954 
L 130.825884 269.196457 
L 131.023141 268.861928 
L 131.417656 266.938273 
L 131.81217 263.515492 
L 132.403942 256.219823 
L 134.376515 229.06663 
L 134.968287 224.732719 
L 135.362801 223.432756 
L 135.560059 223.24875 
L 135.757316 223.35251 
L 136.15183 224.311684 
L 136.743602 227.053264 
L 137.729889 231.849644 
L 138.124403 232.657439 
L 138.321661 232.645898 
L 138.518918 232.313975 
L 138.913432 230.602944 
L 139.307947 227.436395 
L 139.899719 220.115128 
L 140.886005 203.348797 
L 141.872292 186.960863 
L 142.464064 180.4767 
L 142.858578 178.304194 
L 143.055835 177.929753 
L 143.253093 178.035191 
L 143.45035 178.610872 
L 143.844865 181.08102 
L 144.436636 187.484397 
L 146.211952 210.491147 
L 146.606467 212.996652 
L 146.803724 213.584786 
L 147.000981 213.693175 
L 147.198238 213.306 
L 147.592753 211.030127 
L 147.987267 206.823982 
L 148.579039 197.400343 
L 149.565326 176.731341 
L 150.551612 156.579962 
L 151.143384 147.637619 
L 151.735156 142.143075 
L 152.12967 140.501341 
L 152.326928 140.259424 
L 152.524185 140.375615 
L 152.721442 140.821991 
L 153.115957 142.571386 
L 153.707729 146.758394 
L 155.483044 160.99703 
L 156.074816 164.018385 
L 156.666588 165.998587 
L 158.047389 169.757365 
L 158.441904 171.666705 
L 159.033675 176.050371 
L 159.625447 182.625522 
L 160.414476 194.764447 
L 162.584307 232.372214 
L 162.978821 236.005869 
L 163.373336 237.564656 
L 163.570593 237.473939 
L 163.76785 236.771536 
L 164.162365 233.498976 
L 164.556879 227.796462 
L 165.148651 215.263933 
L 166.332195 182.610433 
L 167.121224 163.269943 
L 167.712996 154.246583 
L 168.107511 151.800487 
L 168.304768 151.740376 
L 168.502025 152.460128 
L 168.89654 156.157238 
L 169.291054 162.577479 
L 169.882826 176.114493 
L 171.658142 221.460557 
L 172.249914 230.4538 
L 172.644428 233.502538 
L 172.841685 234.098334 
L 173.038943 234.079207 
L 173.2362 233.459949 
L 173.630715 230.521532 
L 174.025229 225.554036 
L 174.617001 215.104613 
L 175.997802 184.334988 
L 176.984088 164.647117 
L 177.57586 156.152801 
L 178.167632 150.915143 
L 178.562147 149.353293 
L 178.759404 149.146058 
L 178.956661 149.307113 
L 179.153919 149.819381 
L 179.548433 151.803903 
L 180.140205 156.706108 
L 182.112778 175.840228 
L 182.507292 177.662551 
L 182.70455 178.139127 
L 182.901807 178.316587 
L 183.099064 178.197272 
L 183.296322 177.791103 
L 183.690836 176.194655 
L 184.282608 172.299143 
L 185.663409 162.342647 
L 186.057924 160.923926 
L 186.255181 160.63221 
L 186.452438 160.645995 
L 186.649695 160.976834 
L 187.04421 162.600435 
L 187.438725 165.456838 
L 188.030496 171.715627 
L 189.016783 185.307662 
L 190.200327 201.108168 
L 190.792098 206.676284 
L 191.186613 209.056551 
L 191.581128 210.207222 
L 191.778385 210.290373 
L 191.975642 210.034326 
L 192.370157 208.489516 
L 192.764671 205.576301 
L 193.356443 198.796477 
L 194.145472 186.119759 
L 196.118045 151.052321 
L 196.709817 144.205307 
L 197.104332 141.28958 
L 197.498846 139.729722 
L 197.696103 139.435411 
L 197.893361 139.440617 
L 198.090618 139.720546 
L 198.485133 140.9838 
L 199.076904 144.105874 
L 200.457705 151.957479 
L 200.85222 153.280562 
L 201.246734 153.966728 
L 201.443992 154.068154 
L 201.641249 154.015956 
L 202.035764 153.495658 
L 202.627535 151.912645 
L 204.994623 144.107699 
L 208.150739 136.304186 
L 209.137026 133.586438 
L 209.728798 132.520592 
L 210.123312 132.254819 
L 210.32057 132.291196 
L 210.715084 132.748603 
L 211.109599 133.753038 
L 211.701371 136.263496 
L 212.4904 141.010144 
L 213.673943 148.279059 
L 214.265715 150.603117 
L 214.66023 151.408521 
L 215.054744 151.618033 
L 215.449259 151.306536 
L 215.843774 150.595887 
L 216.632803 148.54176 
L 218.013604 144.936488 
L 219.394405 141.39511 
L 220.972463 136.869538 
L 221.366978 136.380372 
L 221.564235 136.356189 
L 221.761492 136.506773 
L 222.156007 137.394176 
L 222.550521 139.114714 
L 223.142293 143.170102 
L 225.312123 160.965541 
L 225.706638 162.217623 
L 225.903895 162.479994 
L 226.101152 162.512489 
L 226.29841 162.335025 
L 226.692924 161.466608 
L 228.073725 157.304675 
L 228.270983 157.126622 
L 228.46824 157.151772 
L 228.665497 157.39745 
L 229.060012 158.579473 
L 229.454526 160.649554 
L 230.046298 165.0754 
L 231.624356 177.842238 
L 232.018871 179.681396 
L 232.413386 180.591096 
L 232.610643 180.676276 
L 232.8079 180.513394 
L 233.202415 179.463287 
L 233.596929 177.512027 
L 234.188701 173.134311 
L 234.97773 165.225332 
L 236.161274 150.54784 
L 238.725619 117.421973 
L 239.317391 113.052288 
L 239.711905 111.727826 
L 239.909162 111.61984 
L 240.10642 111.904259 
L 240.303677 112.589899 
L 240.698192 115.160579 
L 241.289963 121.77011 
L 242.078993 134.126658 
L 243.262536 152.368484 
L 243.657051 156.295658 
L 244.051565 158.493055 
L 244.248823 158.880119 
L 244.44608 158.780228 
L 244.643337 158.197451 
L 245.037852 155.651637 
L 245.629624 148.884167 
L 246.61591 133.203609 
L 247.602197 118.571575 
L 248.193968 112.882841 
L 248.588483 110.799912 
L 248.78574 110.277565 
L 248.982998 110.083637 
L 249.180255 110.194415 
L 249.574769 111.196985 
L 250.166541 113.986739 
L 250.95557 117.819258 
L 251.350085 118.762292 
L 251.547342 118.815458 
L 251.7446 118.538981 
L 251.941857 117.905346 
L 252.336371 115.506364 
L 252.730886 111.608255 
L 253.322658 103.37924 
L 254.900716 78.978846 
L 255.295231 75.710749 
L 255.492488 74.906125 
L 255.689745 74.723772 
L 255.887002 75.201422 
L 256.08426 76.364134 
L 256.478774 80.77769 
L 256.873289 87.892869 
L 257.465061 102.954565 
L 258.648604 141.76041 
L 259.634891 171.411511 
L 260.226663 183.472369 
L 260.621177 188.246046 
L 261.015692 190.188362 
L 261.212949 190.0902 
L 261.410206 189.294604 
L 261.804721 185.711667 
L 262.199236 179.721851 
L 262.791007 167.118668 
L 265.355352 104.832263 
L 265.749867 99.929894 
L 266.144381 97.16762 
L 266.341639 96.593208 
L 266.538896 96.538656 
L 266.736153 96.978009 
L 267.130668 99.18743 
L 267.72244 105.046549 
L 269.300498 122.738604 
L 269.695012 124.821091 
L 269.89227 125.264523 
L 270.089527 125.286648 
L 270.286784 124.883648 
L 270.681299 122.838167 
L 271.075813 119.291998 
L 271.667585 111.808925 
L 273.837415 80.903441 
L 274.429187 75.523086 
L 275.020959 72.129056 
L 275.415474 70.961746 
L 275.612731 70.696934 
L 275.809988 70.638955 
L 276.007246 70.783065 
L 276.40176 71.657075 
L 276.796275 73.274588 
L 277.388047 76.979966 
L 278.177076 83.956192 
L 279.360619 97.271258 
L 280.74142 112.800079 
L 281.333192 117.752815 
L 281.924964 120.881052 
L 282.319479 121.783487 
L 282.516736 121.867155 
L 282.713993 121.710411 
L 283.108508 120.715627 
L 283.503022 118.91646 
L 284.094794 115.069651 
L 285.278338 105.246248 
L 286.461882 93.858193 
L 287.250911 84.226837 
L 288.03994 71.814698 
L 289.420741 45.118314 
L 290.20977 31.587241 
L 290.801542 25.254276 
L 291.196057 23.724545 
L 291.393314 23.900881 
L 291.590571 24.74483 
L 291.985086 28.497217 
L 292.3796 34.99902 
L 292.971372 49.521758 
L 293.760401 75.725738 
L 295.732974 145.067638 
L 296.324746 158.547546 
L 296.719261 164.473919 
L 297.113775 167.901024 
L 297.311032 168.715987 
L 297.50829 168.971303 
L 297.705547 168.706617 
L 298.100062 166.807718 
L 298.691833 161.359146 
L 301.058921 134.64711 
L 301.650693 130.818102 
L 302.242465 128.295115 
L 302.834236 126.688503 
L 303.623266 125.278944 
L 305.398581 122.78091 
L 306.582125 121.482684 
L 307.371154 120.546207 
L 307.962926 119.366248 
L 308.554698 117.392074 
L 309.146469 114.387515 
L 309.935499 108.876422 
L 311.3163 98.757793 
L 311.710814 97.03653 
L 312.105329 96.331628 
L 312.302586 96.42357 
L 312.499843 96.83538 
L 312.894358 98.65411 
L 313.288872 101.796685 
L 313.880644 108.775255 
L 314.669673 121.213036 
L 316.444989 150.858952 
L 317.036761 157.848105 
L 317.628533 162.254147 
L 318.023047 163.597733 
L 318.220305 163.779624 
L 318.417562 163.638114 
L 318.614819 163.180088 
L 319.009334 161.35945 
L 319.601106 156.620995 
L 320.390135 147.553504 
L 322.362708 123.139404 
L 322.954479 118.573291 
L 323.348994 116.788245 
L 323.743509 116.106596 
L 323.940766 116.185475 
L 324.138023 116.538128 
L 324.532538 118.016297 
L 325.12431 121.844122 
L 326.899625 135.22871 
L 327.29414 136.172511 
L 327.491397 136.119791 
L 327.688654 135.686818 
L 328.083169 133.643288 
L 328.477683 130.06952 
L 329.069455 122.30211 
L 331.042028 93.18491 
L 331.6338 88.828616 
L 332.028315 87.468711 
L 332.422829 87.066105 
L 332.817344 87.225242 
L 333.211858 87.474075 
L 333.409116 87.480584 
L 333.606373 87.332885 
L 333.80363 86.981201 
L 334.198145 85.507218 
L 334.592659 82.84224 
L 335.184431 76.591878 
L 336.367975 59.636214 
L 336.959747 52.559309 
L 337.354261 49.786633 
L 337.551519 49.186337 
L 337.748776 49.179196 
L 337.946033 49.802498 
L 338.340548 53.023201 
L 338.735062 58.872977 
L 339.326834 72.079524 
L 340.313121 101.661238 
L 341.496664 135.993965 
L 342.088436 147.213193 
L 342.482951 151.361497 
L 342.680208 152.342082 
L 342.877465 152.578739 
L 343.074723 152.075079 
L 343.469237 148.919321 
L 343.863752 143.13013 
L 344.455524 130.456949 
L 346.822611 71.581671 
L 347.414383 64.401312 
L 347.808897 62.307234 
L 348.006155 62.037385 
L 348.203412 62.247499 
L 348.400669 62.89706 
L 348.795184 65.31149 
L 349.386956 70.795614 
L 350.373242 80.272371 
L 350.767757 82.645746 
L 351.162271 83.615315 
L 351.359529 83.504948 
L 351.556786 82.982986 
L 351.9513 80.730402 
L 352.543072 74.741799 
L 354.121131 55.448741 
L 354.515645 53.552035 
L 354.712902 53.505101 
L 354.91016 54.142612 
L 355.304674 57.640028 
L 355.699189 64.217702 
L 356.290961 79.518894 
L 357.277247 114.49654 
L 358.263533 147.666365 
L 358.658048 156.475843 
L 359.052563 161.361962 
L 359.24982 162.154143 
L 359.447077 161.794222 
L 359.644334 160.273432 
L 360.038849 153.836165 
L 360.433364 143.252428 
L 361.025135 121.334321 
L 362.800451 48.527495 
L 363.392223 34.380212 
L 363.786737 29.738159 
L 363.983995 28.897181 
L 364.181252 29.017695 
L 364.378509 30.059603 
L 364.773024 34.675577 
L 365.364796 46.776146 
L 366.351082 74.638375 
L 367.534626 107.419257 
L 368.323655 123.07912 
L 368.915427 130.685314 
L 369.507199 135.079875 
L 369.901713 136.574178 
L 370.296228 137.217791 
L 370.690742 137.266787 
L 371.085257 136.949864 
L 371.874286 135.878103 
L 372.860573 134.269166 
L 373.452344 132.733366 
L 373.846859 131.123178 
L 374.241374 128.815625 
L 374.833145 123.702597 
L 375.424917 116.424371 
L 376.411204 100.635923 
L 377.39749 85.127662 
L 377.989262 79.084957 
L 378.383777 77.313735 
L 378.581034 77.211386 
L 378.778291 77.656224 
L 379.172806 80.200134 
L 379.56732 84.867936 
L 380.159092 95.314823 
L 381.145379 118.593696 
L 382.723437 156.25067 
L 383.709723 174.073424 
L 385.090524 193.782729 
L 386.274068 211.521964 
L 388.049384 239.237545 
L 388.443898 243.112521 
L 388.838413 245.085842 
L 389.03567 245.206036 
L 389.232927 244.677316 
L 389.430185 243.455914 
L 389.824699 238.809957 
L 390.219214 231.135926 
L 390.810986 214.173342 
L 391.600015 183.473627 
L 393.37533 109.32884 
L 393.967102 92.826206 
L 394.361617 85.877614 
L 394.756131 82.446938 
L 394.953389 82.053008 
L 395.150646 82.512371 
L 395.347903 83.787014 
L 395.742418 88.566845 
L 396.33419 100.227036 
L 398.701277 155.020289 
L 399.095792 159.623949 
L 399.490306 162.316941 
L 399.884821 163.280291 
L 400.082078 163.212382 
L 400.279335 162.846337 
L 400.67385 161.456621 
L 401.857394 156.538669 
L 402.054651 156.210527 
L 402.251908 156.139179 
L 402.449165 156.350027 
L 402.84368 157.670457 
L 403.238195 160.172985 
L 403.829966 165.749233 
L 405.210767 180.427305 
L 405.605282 182.904014 
L 405.802539 183.588304 
L 405.999797 183.854416 
L 406.197054 183.676964 
L 406.394311 183.04033 
L 406.788826 180.377668 
L 407.18334 175.943084 
L 407.775112 166.500682 
L 410.339457 120.257126 
L 410.733971 116.847767 
L 411.128486 115.016109 
L 411.325743 114.68825 
L 411.523 114.740282 
L 411.720258 115.158003 
L 412.114772 117.018454 
L 412.509287 120.105536 
L 413.101059 126.64167 
L 413.890088 138.020945 
L 415.073632 158.645457 
L 417.637976 204.967597 
L 418.229748 212.171363 
L 418.624263 215.256462 
L 419.018777 216.637358 
L 419.216035 216.612179 
L 419.413292 216.07692 
L 419.807806 213.408482 
L 420.202321 208.560152 
L 420.794093 197.326111 
L 421.583122 176.16157 
L 423.752952 111.234149 
L 424.344724 100.760193 
L 424.739239 96.980588 
L 424.936496 96.127655 
L 425.133753 95.978445 
L 425.33101 96.53054 
L 425.725525 99.681535 
L 426.12004 105.372338 
L 426.711811 117.854312 
L 428.881642 171.039343 
L 429.276156 175.012605 
L 429.473413 175.64619 
L 429.670671 175.2734 
L 429.867928 173.829593 
L 430.262443 167.535789 
L 430.656957 156.52913 
L 431.248729 131.335106 
L 432.037758 84.114045 
L 432.235015 70.620846 
L 432.235015 70.620846 
" clip-path="url(#p07e871cde5)" style="fill: none; stroke-dasharray: 4.8,1.8; stroke-dashoffset: 0; stroke: #ff7f0e; stroke-width: 1.2"/>
   </g>
   <g id="line2d_18"/>
   <g id="line2d_19"/>
   <g id="patch_3">
    <path d="M 54.438 304.212 
L 54.438 10.368 
" style="fill: none; stroke: #ffffff; stroke-linejoin: miter; stroke-linecap: square"/>
   </g>
   <g id="patch_4">
    <path d="M 450.432 304.212 
L 450.432 10.368 
" style="fill: none; stroke: #ffffff; stroke-linejoin: miter; stroke-linecap: square"/>
   </g>
   <g id="patch_5">
    <path d="M 54.438 304.212 
L 450.432 304.212 
" style="fill: none; stroke: #ffffff; stroke-linejoin: miter; stroke-linecap: square"/>
   </g>
   <g id="patch_6">
    <path d="M 54.438 10.368 
L 450.432 10.368 
" style="fill: none; stroke: #ffffff; stroke-linejoin: miter; stroke-linecap: square"/>
   </g>
   <g id="legend_1">
    <g id="patch_7">
     <path d="M 60.598 57.1995 
L 138.1565 57.1995 
Q 139.9165 57.1995 139.9165 55.4395 
L 139.9165 16.528 
Q 139.9165 14.768 138.1565 14.768 
L 60.598 14.768 
Q 58.838 14.768 58.838 16.528 
L 58.838 55.4395 
Q 58.838 57.1995 60.598 57.1995 
z
" style="fill: #e6e6e6; opacity: 0.8; stroke: #cccccc; stroke-width: 0.8; stroke-linejoin: miter"/>
    </g>
    <g id="text_18">
     <!-- nom_commune -->
     <g style="fill: #262626" transform="translate(62.358 25.5825) scale(0.096 -0.096)">
      <defs>
       <path id="DejaVuSans-63" d="M 3122 3366 
L 3122 2828 
Q 2878 2963 2633 3030 
Q 2388 3097 2138 3097 
Q 1578 3097 1268 2742 
Q 959 2388 959 1747 
Q 959 1106 1268 751 
Q 1578 397 2138 397 
Q 2388 397 2633 464 
Q 2878 531 3122 666 
L 3122 134 
Q 2881 22 2623 -34 
Q 2366 -91 2075 -91 
Q 1284 -91 818 406 
Q 353 903 353 1747 
Q 353 2603 823 3093 
Q 1294 3584 2113 3584 
Q 2378 3584 2631 3529 
Q 2884 3475 3122 3366 
z
" transform="scale(0.015625)"/>
      </defs>
      <use xlink:href="#DejaVuSans-6e"/>
      <use xlink:href="#DejaVuSans-6f" transform="translate(63.378906 0)"/>
      <use xlink:href="#DejaVuSans-6d" transform="translate(124.560547 0)"/>
      <use xlink:href="#DejaVuSans-5f" transform="translate(221.972656 0)"/>
      <use xlink:href="#DejaVuSans-63" transform="translate(271.972656 0)"/>
      <use xlink:href="#DejaVuSans-6f" transform="translate(326.953125 0)"/>
      <use xlink:href="#DejaVuSans-6d" transform="translate(388.134766 0)"/>
      <use xlink:href="#DejaVuSans-6d" transform="translate(485.546875 0)"/>
      <use xlink:href="#DejaVuSans-75" transform="translate(582.958984 0)"/>
      <use xlink:href="#DejaVuSans-6e" transform="translate(646.337891 0)"/>
      <use xlink:href="#DejaVuSans-65" transform="translate(709.716797 0)"/>
     </g>
    </g>
    <g id="line2d_20">
     <path d="M 71.738375 35.852625 
L 80.538375 35.852625 
L 89.338375 35.852625 
" style="fill: none; stroke: #1f77b4; stroke-width: 1.2; stroke-linecap: round"/>
    </g>
    <g id="text_19">
     <!-- Brest -->
     <g style="fill: #262626" transform="translate(96.378375 38.932625) scale(0.088 -0.088)">
      <defs>
       <path id="DejaVuSans-42" d="M 1259 2228 
L 1259 519 
L 2272 519 
Q 2781 519 3026 730 
Q 3272 941 3272 1375 
Q 3272 1813 3026 2020 
Q 2781 2228 2272 2228 
L 1259 2228 
z
M 1259 4147 
L 1259 2741 
L 2194 2741 
Q 2656 2741 2882 2914 
Q 3109 3088 3109 3444 
Q 3109 3797 2882 3972 
Q 2656 4147 2194 4147 
L 1259 4147 
z
M 628 4666 
L 2241 4666 
Q 2963 4666 3353 4366 
Q 3744 4066 3744 3513 
Q 3744 3084 3544 2831 
Q 3344 2578 2956 2516 
Q 3422 2416 3680 2098 
Q 3938 1781 3938 1306 
Q 3938 681 3513 340 
Q 3088 0 2303 0 
L 628 0 
L 628 4666 
z
" transform="scale(0.015625)"/>
      </defs>
      <use xlink:href="#DejaVuSans-42"/>
      <use xlink:href="#DejaVuSans-72" transform="translate(68.603516 0)"/>
      <use xlink:href="#DejaVuSans-65" transform="translate(107.466797 0)"/>
      <use xlink:href="#DejaVuSans-73" transform="translate(168.990234 0)"/>
      <use xlink:href="#DejaVuSans-74" transform="translate(221.089844 0)"/>
     </g>
    </g>
    <g id="line2d_21">
     <path d="M 71.738375 48.769375 
L 80.538375 48.769375 
L 89.338375 48.769375 
" style="fill: none; stroke-dasharray: 4.8,1.8; stroke-dashoffset: 0; stroke: #ff7f0e; stroke-width: 1.2"/>
    </g>
    <g id="text_20">
     <!-- Lorient -->
     <g style="fill: #262626" transform="translate(96.378375 51.849375) scale(0.088 -0.088)">
      <defs>
       <path id="DejaVuSans-4c" d="M 628 4666 
L 1259 4666 
L 1259 531 
L 3531 531 
L 3531 0 
L 628 0 
L 628 4666 
z
" transform="scale(0.015625)"/>
      </defs>
      <use xlink:href="#DejaVuSans-4c"/>
      <use xlink:href="#DejaVuSans-6f" transform="translate(53.962891 0)"/>
      <use xlink:href="#DejaVuSans-72" transform="translate(115.144531 0)"/>
      <use xlink:href="#DejaVuSans-69" transform="translate(156.257812 0)"/>
      <use xlink:href="#DejaVuSans-65" transform="translate(184.041016 0)"/>
      <use xlink:href="#DejaVuSans-6e" transform="translate(245.564453 0)"/>
      <use xlink:href="#DejaVuSans-74" transform="translate(308.943359 0)"/>
     </g>
    </g>
   </g>
  </g>
 </g>
 <defs>
  <clipPath id="p07e871cde5">
   <rect x="54.438" y="10.368" width="395.994" height="293.844"/>
  </clipPath>
 </defs>
</svg>
