<?xml version="1.0" encoding="utf-8" standalone="no"?>
<!DOCTYPE svg PUBLIC "-//W3C//DTD SVG 1.1//EN"
  "http://www.w3.org/Graphics/SVG/1.1/DTD/svg11.dtd">
<svg xmlns:xlink="http://www.w3.org/1999/xlink" width="460.8pt" height="345.6pt" viewBox="0 0 460.8 345.6" xmlns="http://www.w3.org/2000/svg" version="1.1">
 <metadata>
  <rdf:RDF xmlns:dc="http://purl.org/dc/elements/1.1/" xmlns:cc="http://creativecommons.org/ns#" xmlns:rdf="http://www.w3.org/1999/02/22-rdf-syntax-ns#">
   <cc:Work>
    <dc:type rdf:resource="http://purl.org/dc/dcmitype/StillImage"/>
    <dc:date>2024-04-10T18:24:24.497226</dc:date>
    <dc:format>image/svg+xml</dc:format>
    <dc:creator>
     <cc:Agent>
      <dc:title>Matplotlib v3.8.4, https://matplotlib.org/</dc:title>
     </cc:Agent>
    </dc:creator>
   </cc:Work>
  </rdf:RDF>
 </metadata>
 <defs>
  <style type="text/css">*{stroke-linejoin: round; stroke-linecap: butt}</style>
 </defs>
 <g id="figure_1">
  <g id="patch_1">
   <path d="M 0 345.6 
L 460.8 345.6 
L 460.8 0 
L 0 0 
z
" style="fill: #ffffff"/>
  </g>
  <g id="axes_1">
   <g id="patch_2">
    <path d="M 54.438 304.212 
L 450.432 304.212 
L 450.432 10.368 
L 54.438 10.368 
z
" style="fill: #e6e6e6"/>
   </g>
   <g id="matplotlib.axis_1">
    <g id="xtick_1">
     <g id="line2d_1">
      <path d="M 108.595247 304.212 
L 108.595247 10.368 
" clip-path="url(#pe56ea47a33)" style="fill: none; stroke: #ffffff; stroke-width: 0.8; stroke-linecap: round"/>
     </g>
     <g id="text_1">
      <!-- 2019 -->
      <g style="fill: #262626" transform="translate(97.397247 319.198625) scale(0.088 -0.088)">
       <defs>
        <path id="DejaVuSans-32" d="M 1228 531 
L 3431 531 
L 3431 0 
L 469 0 
L 469 531 
Q 828 903 1448 1529 
Q 2069 2156 2228 2338 
Q 2531 2678 2651 2914 
Q 2772 3150 2772 3378 
Q 2772 3750 2511 3984 
Q 2250 4219 1831 4219 
Q 1534 4219 1204 4116 
Q 875 4013 500 3803 
L 500 4441 
Q 881 4594 1212 4672 
Q 1544 4750 1819 4750 
Q 2544 4750 2975 4387 
Q 3406 4025 3406 3419 
Q 3406 3131 3298 2873 
Q 3191 2616 2906 2266 
Q 2828 2175 2409 1742 
Q 1991 1309 1228 531 
z
" transform="scale(0.015625)"/>
        <path id="DejaVuSans-30" d="M 2034 4250 
Q 1547 4250 1301 3770 
Q 1056 3291 1056 2328 
Q 1056 1369 1301 889 
Q 1547 409 2034 409 
Q 2525 409 2770 889 
Q 3016 1369 3016 2328 
Q 3016 3291 2770 3770 
Q 2525 4250 2034 4250 
z
M 2034 4750 
Q 2819 4750 3233 4129 
Q 3647 3509 3647 2328 
Q 3647 1150 3233 529 
Q 2819 -91 2034 -91 
Q 1250 -91 836 529 
Q 422 1150 422 2328 
Q 422 3509 836 4129 
Q 1250 4750 2034 4750 
z
" transform="scale(0.015625)"/>
        <path id="DejaVuSans-31" d="M 794 531 
L 1825 531 
L 1825 4091 
L 703 3866 
L 703 4441 
L 1819 4666 
L 2450 4666 
L 2450 531 
L 3481 531 
L 3481 0 
L 794 0 
L 794 531 
z
" transform="scale(0.015625)"/>
        <path id="DejaVuSans-39" d="M 703 97 
L 703 672 
Q 941 559 1184 500 
Q 1428 441 1663 441 
Q 2288 441 2617 861 
Q 2947 1281 2994 2138 
Q 2813 1869 2534 1725 
Q 2256 1581 1919 1581 
Q 1219 1581 811 2004 
Q 403 2428 403 3163 
Q 403 3881 828 4315 
Q 1253 4750 1959 4750 
Q 2769 4750 3195 4129 
Q 3622 3509 3622 2328 
Q 3622 1225 3098 567 
Q 2575 -91 1691 -91 
Q 1453 -91 1209 -44 
Q 966 3 703 97 
z
M 1959 2075 
Q 2384 2075 2632 2365 
Q 2881 2656 2881 3163 
Q 2881 3666 2632 3958 
Q 2384 4250 1959 4250 
Q 1534 4250 1286 3958 
Q 1038 3666 1038 3163 
Q 1038 2656 1286 2365 
Q 1534 2075 1959 2075 
z
" transform="scale(0.015625)"/>
       </defs>
       <use xlink:href="#DejaVuSans-32"/>
       <use xlink:href="#DejaVuSans-30" x="63.623047"/>
       <use xlink:href="#DejaVuSans-31" x="127.246094"/>
       <use xlink:href="#DejaVuSans-39" x="190.869141"/>
      </g>
     </g>
    </g>
    <g id="xtick_2">
     <g id="line2d_2">
      <path d="M 180.712706 304.212 
L 180.712706 10.368 
" clip-path="url(#pe56ea47a33)" style="fill: none; stroke: #ffffff; stroke-width: 0.8; stroke-linecap: round"/>
     </g>
     <g id="text_2">
      <!-- 2020 -->
      <g style="fill: #262626" transform="translate(169.514706 319.198625) scale(0.088 -0.088)">
       <use xlink:href="#DejaVuSans-32"/>
       <use xlink:href="#DejaVuSans-30" x="63.623047"/>
       <use xlink:href="#DejaVuSans-32" x="127.246094"/>
       <use xlink:href="#DejaVuSans-30" x="190.869141"/>
      </g>
     </g>
    </g>
    <g id="xtick_3">
     <g id="line2d_3">
      <path d="M 253.027746 304.212 
L 253.027746 10.368 
" clip-path="url(#pe56ea47a33)" style="fill: none; stroke: #ffffff; stroke-width: 0.8; stroke-linecap: round"/>
     </g>
     <g id="text_3">
      <!-- 2021 -->
      <g style="fill: #262626" transform="translate(241.829746 319.198625) scale(0.088 -0.088)">
       <use xlink:href="#DejaVuSans-32"/>
       <use xlink:href="#DejaVuSans-30" x="63.623047"/>
       <use xlink:href="#DejaVuSans-32" x="127.246094"/>
       <use xlink:href="#DejaVuSans-31" x="190.869141"/>
      </g>
     </g>
    </g>
    <g id="xtick_4">
     <g id="line2d_4">
      <path d="M 325.145205 304.212 
L 325.145205 10.368 
" clip-path="url(#pe56ea47a33)" style="fill: none; stroke: #ffffff; stroke-width: 0.8; stroke-linecap: round"/>
     </g>
     <g id="text_4">
      <!-- 2022 -->
      <g style="fill: #262626" transform="translate(313.947205 319.198625) scale(0.088 -0.088)">
       <use xlink:href="#DejaVuSans-32"/>
       <use xlink:href="#DejaVuSans-30" x="63.623047"/>
       <use xlink:href="#DejaVuSans-32" x="127.246094"/>
       <use xlink:href="#DejaVuSans-32" x="190.869141"/>
      </g>
     </g>
    </g>
    <g id="xtick_5">
     <g id="line2d_5">
      <path d="M 397.262663 304.212 
L 397.262663 10.368 
" clip-path="url(#pe56ea47a33)" style="fill: none; stroke: #ffffff; stroke-width: 0.8; stroke-linecap: round"/>
     </g>
     <g id="text_5">
      <!-- 2023 -->
      <g style="fill: #262626" transform="translate(386.064663 319.198625) scale(0.088 -0.088)">
       <defs>
        <path id="DejaVuSans-33" d="M 2597 2516 
Q 3050 2419 3304 2112 
Q 3559 1806 3559 1356 
Q 3559 666 3084 287 
Q 2609 -91 1734 -91 
Q 1441 -91 1130 -33 
Q 819 25 488 141 
L 488 750 
Q 750 597 1062 519 
Q 1375 441 1716 441 
Q 2309 441 2620 675 
Q 2931 909 2931 1356 
Q 2931 1769 2642 2001 
Q 2353 2234 1838 2234 
L 1294 2234 
L 1294 2753 
L 1863 2753 
Q 2328 2753 2575 2939 
Q 2822 3125 2822 3475 
Q 2822 3834 2567 4026 
Q 2313 4219 1838 4219 
Q 1578 4219 1281 4162 
Q 984 4106 628 3988 
L 628 4550 
Q 988 4650 1302 4700 
Q 1616 4750 1894 4750 
Q 2613 4750 3031 4423 
Q 3450 4097 3450 3541 
Q 3450 3153 3228 2886 
Q 3006 2619 2597 2516 
z
" transform="scale(0.015625)"/>
       </defs>
       <use xlink:href="#DejaVuSans-32"/>
       <use xlink:href="#DejaVuSans-30" x="63.623047"/>
       <use xlink:href="#DejaVuSans-32" x="127.246094"/>
       <use xlink:href="#DejaVuSans-33" x="190.869141"/>
      </g>
     </g>
    </g>
    <g id="text_6">
     <!-- date_mutation -->
     <g style="fill: #262626" transform="translate(217.476 332.32325) scale(0.096 -0.096)">
      <defs>
       <path id="DejaVuSans-64" d="M 2906 2969 
L 2906 4863 
L 3481 4863 
L 3481 0 
L 2906 0 
L 2906 525 
Q 2725 213 2448 61 
Q 2172 -91 1784 -91 
Q 1150 -91 751 415 
Q 353 922 353 1747 
Q 353 2572 751 3078 
Q 1150 3584 1784 3584 
Q 2172 3584 2448 3432 
Q 2725 3281 2906 2969 
z
M 947 1747 
Q 947 1113 1208 752 
Q 1469 391 1925 391 
Q 2381 391 2643 752 
Q 2906 1113 2906 1747 
Q 2906 2381 2643 2742 
Q 2381 3103 1925 3103 
Q 1469 3103 1208 2742 
Q 947 2381 947 1747 
z
" transform="scale(0.015625)"/>
       <path id="DejaVuSans-61" d="M 2194 1759 
Q 1497 1759 1228 1600 
Q 959 1441 959 1056 
Q 959 750 1161 570 
Q 1363 391 1709 391 
Q 2188 391 2477 730 
Q 2766 1069 2766 1631 
L 2766 1759 
L 2194 1759 
z
M 3341 1997 
L 3341 0 
L 2766 0 
L 2766 531 
Q 2569 213 2275 61 
Q 1981 -91 1556 -91 
Q 1019 -91 701 211 
Q 384 513 384 1019 
Q 384 1609 779 1909 
Q 1175 2209 1959 2209 
L 2766 2209 
L 2766 2266 
Q 2766 2663 2505 2880 
Q 2244 3097 1772 3097 
Q 1472 3097 1187 3025 
Q 903 2953 641 2809 
L 641 3341 
Q 956 3463 1253 3523 
Q 1550 3584 1831 3584 
Q 2591 3584 2966 3190 
Q 3341 2797 3341 1997 
z
" transform="scale(0.015625)"/>
       <path id="DejaVuSans-74" d="M 1172 4494 
L 1172 3500 
L 2356 3500 
L 2356 3053 
L 1172 3053 
L 1172 1153 
Q 1172 725 1289 603 
Q 1406 481 1766 481 
L 2356 481 
L 2356 0 
L 1766 0 
Q 1100 0 847 248 
Q 594 497 594 1153 
L 594 3053 
L 172 3053 
L 172 3500 
L 594 3500 
L 594 4494 
L 1172 4494 
z
" transform="scale(0.015625)"/>
       <path id="DejaVuSans-65" d="M 3597 1894 
L 3597 1613 
L 953 1613 
Q 991 1019 1311 708 
Q 1631 397 2203 397 
Q 2534 397 2845 478 
Q 3156 559 3463 722 
L 3463 178 
Q 3153 47 2828 -22 
Q 2503 -91 2169 -91 
Q 1331 -91 842 396 
Q 353 884 353 1716 
Q 353 2575 817 3079 
Q 1281 3584 2069 3584 
Q 2775 3584 3186 3129 
Q 3597 2675 3597 1894 
z
M 3022 2063 
Q 3016 2534 2758 2815 
Q 2500 3097 2075 3097 
Q 1594 3097 1305 2825 
Q 1016 2553 972 2059 
L 3022 2063 
z
" transform="scale(0.015625)"/>
       <path id="DejaVuSans-5f" d="M 3263 -1063 
L 3263 -1509 
L -63 -1509 
L -63 -1063 
L 3263 -1063 
z
" transform="scale(0.015625)"/>
       <path id="DejaVuSans-6d" d="M 3328 2828 
Q 3544 3216 3844 3400 
Q 4144 3584 4550 3584 
Q 5097 3584 5394 3201 
Q 5691 2819 5691 2113 
L 5691 0 
L 5113 0 
L 5113 2094 
Q 5113 2597 4934 2840 
Q 4756 3084 4391 3084 
Q 3944 3084 3684 2787 
Q 3425 2491 3425 1978 
L 3425 0 
L 2847 0 
L 2847 2094 
Q 2847 2600 2669 2842 
Q 2491 3084 2119 3084 
Q 1678 3084 1418 2786 
Q 1159 2488 1159 1978 
L 1159 0 
L 581 0 
L 581 3500 
L 1159 3500 
L 1159 2956 
Q 1356 3278 1631 3431 
Q 1906 3584 2284 3584 
Q 2666 3584 2933 3390 
Q 3200 3197 3328 2828 
z
" transform="scale(0.015625)"/>
       <path id="DejaVuSans-75" d="M 544 1381 
L 544 3500 
L 1119 3500 
L 1119 1403 
Q 1119 906 1312 657 
Q 1506 409 1894 409 
Q 2359 409 2629 706 
Q 2900 1003 2900 1516 
L 2900 3500 
L 3475 3500 
L 3475 0 
L 2900 0 
L 2900 538 
Q 2691 219 2414 64 
Q 2138 -91 1772 -91 
Q 1169 -91 856 284 
Q 544 659 544 1381 
z
M 1991 3584 
L 1991 3584 
z
" transform="scale(0.015625)"/>
       <path id="DejaVuSans-69" d="M 603 3500 
L 1178 3500 
L 1178 0 
L 603 0 
L 603 3500 
z
M 603 4863 
L 1178 4863 
L 1178 4134 
L 603 4134 
L 603 4863 
z
" transform="scale(0.015625)"/>
       <path id="DejaVuSans-6f" d="M 1959 3097 
Q 1497 3097 1228 2736 
Q 959 2375 959 1747 
Q 959 1119 1226 758 
Q 1494 397 1959 397 
Q 2419 397 2687 759 
Q 2956 1122 2956 1747 
Q 2956 2369 2687 2733 
Q 2419 3097 1959 3097 
z
M 1959 3584 
Q 2709 3584 3137 3096 
Q 3566 2609 3566 1747 
Q 3566 888 3137 398 
Q 2709 -91 1959 -91 
Q 1206 -91 779 398 
Q 353 888 353 1747 
Q 353 2609 779 3096 
Q 1206 3584 1959 3584 
z
" transform="scale(0.015625)"/>
       <path id="DejaVuSans-6e" d="M 3513 2113 
L 3513 0 
L 2938 0 
L 2938 2094 
Q 2938 2591 2744 2837 
Q 2550 3084 2163 3084 
Q 1697 3084 1428 2787 
Q 1159 2491 1159 1978 
L 1159 0 
L 581 0 
L 581 3500 
L 1159 3500 
L 1159 2956 
Q 1366 3272 1645 3428 
Q 1925 3584 2291 3584 
Q 2894 3584 3203 3211 
Q 3513 2838 3513 2113 
z
" transform="scale(0.015625)"/>
      </defs>
      <use xlink:href="#DejaVuSans-64"/>
      <use xlink:href="#DejaVuSans-61" x="63.476562"/>
      <use xlink:href="#DejaVuSans-74" x="124.755859"/>
      <use xlink:href="#DejaVuSans-65" x="163.964844"/>
      <use xlink:href="#DejaVuSans-5f" x="225.488281"/>
      <use xlink:href="#DejaVuSans-6d" x="275.488281"/>
      <use xlink:href="#DejaVuSans-75" x="372.900391"/>
      <use xlink:href="#DejaVuSans-74" x="436.279297"/>
      <use xlink:href="#DejaVuSans-61" x="475.488281"/>
      <use xlink:href="#DejaVuSans-74" x="536.767578"/>
      <use xlink:href="#DejaVuSans-69" x="575.976562"/>
      <use xlink:href="#DejaVuSans-6f" x="603.759766"/>
      <use xlink:href="#DejaVuSans-6e" x="664.941406"/>
     </g>
    </g>
   </g>
   <g id="matplotlib.axis_2">
    <g id="ytick_1">
     <g id="line2d_6">
      <path d="M 54.438 285.497572 
L 450.432 285.497572 
" clip-path="url(#pe56ea47a33)" style="fill: none; stroke: #ffffff; stroke-width: 0.8; stroke-linecap: round"/>
     </g>
     <g id="text_7">
      <!-- 1200 -->
      <g style="fill: #262626" transform="translate(23.742 288.840884) scale(0.088 -0.088)">
       <use xlink:href="#DejaVuSans-31"/>
       <use xlink:href="#DejaVuSans-32" x="63.623047"/>
       <use xlink:href="#DejaVuSans-30" x="127.246094"/>
       <use xlink:href="#DejaVuSans-30" x="190.869141"/>
      </g>
     </g>
    </g>
    <g id="ytick_2">
     <g id="line2d_7">
      <path d="M 54.438 240.429267 
L 450.432 240.429267 
" clip-path="url(#pe56ea47a33)" style="fill: none; stroke: #ffffff; stroke-width: 0.8; stroke-linecap: round"/>
     </g>
     <g id="text_8">
      <!-- 1400 -->
      <g style="fill: #262626" transform="translate(23.742 243.77258) scale(0.088 -0.088)">
       <defs>
        <path id="DejaVuSans-34" d="M 2419 4116 
L 825 1625 
L 2419 1625 
L 2419 4116 
z
M 2253 4666 
L 3047 4666 
L 3047 1625 
L 3713 1625 
L 3713 1100 
L 3047 1100 
L 3047 0 
L 2419 0 
L 2419 1100 
L 313 1100 
L 313 1709 
L 2253 4666 
z
" transform="scale(0.015625)"/>
       </defs>
       <use xlink:href="#DejaVuSans-31"/>
       <use xlink:href="#DejaVuSans-34" x="63.623047"/>
       <use xlink:href="#DejaVuSans-30" x="127.246094"/>
       <use xlink:href="#DejaVuSans-30" x="190.869141"/>
      </g>
     </g>
    </g>
    <g id="ytick_3">
     <g id="line2d_8">
      <path d="M 54.438 195.360963 
L 450.432 195.360963 
" clip-path="url(#pe56ea47a33)" style="fill: none; stroke: #ffffff; stroke-width: 0.8; stroke-linecap: round"/>
     </g>
     <g id="text_9">
      <!-- 1600 -->
      <g style="fill: #262626" transform="translate(23.742 198.704276) scale(0.088 -0.088)">
       <defs>
        <path id="DejaVuSans-36" d="M 2113 2584 
Q 1688 2584 1439 2293 
Q 1191 2003 1191 1497 
Q 1191 994 1439 701 
Q 1688 409 2113 409 
Q 2538 409 2786 701 
Q 3034 994 3034 1497 
Q 3034 2003 2786 2293 
Q 2538 2584 2113 2584 
z
M 3366 4563 
L 3366 3988 
Q 3128 4100 2886 4159 
Q 2644 4219 2406 4219 
Q 1781 4219 1451 3797 
Q 1122 3375 1075 2522 
Q 1259 2794 1537 2939 
Q 1816 3084 2150 3084 
Q 2853 3084 3261 2657 
Q 3669 2231 3669 1497 
Q 3669 778 3244 343 
Q 2819 -91 2113 -91 
Q 1303 -91 875 529 
Q 447 1150 447 2328 
Q 447 3434 972 4092 
Q 1497 4750 2381 4750 
Q 2619 4750 2861 4703 
Q 3103 4656 3366 4563 
z
" transform="scale(0.015625)"/>
       </defs>
       <use xlink:href="#DejaVuSans-31"/>
       <use xlink:href="#DejaVuSans-36" x="63.623047"/>
       <use xlink:href="#DejaVuSans-30" x="127.246094"/>
       <use xlink:href="#DejaVuSans-30" x="190.869141"/>
      </g>
     </g>
    </g>
    <g id="ytick_4">
     <g id="line2d_9">
      <path d="M 54.438 150.292659 
L 450.432 150.292659 
" clip-path="url(#pe56ea47a33)" style="fill: none; stroke: #ffffff; stroke-width: 0.8; stroke-linecap: round"/>
     </g>
     <g id="text_10">
      <!-- 1800 -->
      <g style="fill: #262626" transform="translate(23.742 153.635971) scale(0.088 -0.088)">
       <defs>
        <path id="DejaVuSans-38" d="M 2034 2216 
Q 1584 2216 1326 1975 
Q 1069 1734 1069 1313 
Q 1069 891 1326 650 
Q 1584 409 2034 409 
Q 2484 409 2743 651 
Q 3003 894 3003 1313 
Q 3003 1734 2745 1975 
Q 2488 2216 2034 2216 
z
M 1403 2484 
Q 997 2584 770 2862 
Q 544 3141 544 3541 
Q 544 4100 942 4425 
Q 1341 4750 2034 4750 
Q 2731 4750 3128 4425 
Q 3525 4100 3525 3541 
Q 3525 3141 3298 2862 
Q 3072 2584 2669 2484 
Q 3125 2378 3379 2068 
Q 3634 1759 3634 1313 
Q 3634 634 3220 271 
Q 2806 -91 2034 -91 
Q 1263 -91 848 271 
Q 434 634 434 1313 
Q 434 1759 690 2068 
Q 947 2378 1403 2484 
z
M 1172 3481 
Q 1172 3119 1398 2916 
Q 1625 2713 2034 2713 
Q 2441 2713 2670 2916 
Q 2900 3119 2900 3481 
Q 2900 3844 2670 4047 
Q 2441 4250 2034 4250 
Q 1625 4250 1398 4047 
Q 1172 3844 1172 3481 
z
" transform="scale(0.015625)"/>
       </defs>
       <use xlink:href="#DejaVuSans-31"/>
       <use xlink:href="#DejaVuSans-38" x="63.623047"/>
       <use xlink:href="#DejaVuSans-30" x="127.246094"/>
       <use xlink:href="#DejaVuSans-30" x="190.869141"/>
      </g>
     </g>
    </g>
    <g id="ytick_5">
     <g id="line2d_10">
      <path d="M 54.438 105.224354 
L 450.432 105.224354 
" clip-path="url(#pe56ea47a33)" style="fill: none; stroke: #ffffff; stroke-width: 0.8; stroke-linecap: round"/>
     </g>
     <g id="text_11">
      <!-- 2000 -->
      <g style="fill: #262626" transform="translate(23.742 108.567667) scale(0.088 -0.088)">
       <use xlink:href="#DejaVuSans-32"/>
       <use xlink:href="#DejaVuSans-30" x="63.623047"/>
       <use xlink:href="#DejaVuSans-30" x="127.246094"/>
       <use xlink:href="#DejaVuSans-30" x="190.869141"/>
      </g>
     </g>
    </g>
    <g id="ytick_6">
     <g id="line2d_11">
      <path d="M 54.438 60.15605 
L 450.432 60.15605 
" clip-path="url(#pe56ea47a33)" style="fill: none; stroke: #ffffff; stroke-width: 0.8; stroke-linecap: round"/>
     </g>
     <g id="text_12">
      <!-- 2200 -->
      <g style="fill: #262626" transform="translate(23.742 63.499363) scale(0.088 -0.088)">
       <use xlink:href="#DejaVuSans-32"/>
       <use xlink:href="#DejaVuSans-32" x="63.623047"/>
       <use xlink:href="#DejaVuSans-30" x="127.246094"/>
       <use xlink:href="#DejaVuSans-30" x="190.869141"/>
      </g>
     </g>
    </g>
    <g id="ytick_7">
     <g id="line2d_12">
      <path d="M 54.438 15.087746 
L 450.432 15.087746 
" clip-path="url(#pe56ea47a33)" style="fill: none; stroke: #ffffff; stroke-width: 0.8; stroke-linecap: round"/>
     </g>
     <g id="text_13">
      <!-- 2400 -->
      <g style="fill: #262626" transform="translate(23.742 18.431058) scale(0.088 -0.088)">
       <use xlink:href="#DejaVuSans-32"/>
       <use xlink:href="#DejaVuSans-34" x="63.623047"/>
       <use xlink:href="#DejaVuSans-30" x="127.246094"/>
       <use xlink:href="#DejaVuSans-30" x="190.869141"/>
      </g>
     </g>
    </g>
    <g id="text_14">
     <!-- prixm2_smooth -->
     <g style="fill: #262626" transform="translate(17.4785 194.58825) rotate(-90) scale(0.096 -0.096)">
      <defs>
       <path id="DejaVuSans-70" d="M 1159 525 
L 1159 -1331 
L 581 -1331 
L 581 3500 
L 1159 3500 
L 1159 2969 
Q 1341 3281 1617 3432 
Q 1894 3584 2278 3584 
Q 2916 3584 3314 3078 
Q 3713 2572 3713 1747 
Q 3713 922 3314 415 
Q 2916 -91 2278 -91 
Q 1894 -91 1617 61 
Q 1341 213 1159 525 
z
M 3116 1747 
Q 3116 2381 2855 2742 
Q 2594 3103 2138 3103 
Q 1681 3103 1420 2742 
Q 1159 2381 1159 1747 
Q 1159 1113 1420 752 
Q 1681 391 2138 391 
Q 2594 391 2855 752 
Q 3116 1113 3116 1747 
z
" transform="scale(0.015625)"/>
       <path id="DejaVuSans-72" d="M 2631 2963 
Q 2534 3019 2420 3045 
Q 2306 3072 2169 3072 
Q 1681 3072 1420 2755 
Q 1159 2438 1159 1844 
L 1159 0 
L 581 0 
L 581 3500 
L 1159 3500 
L 1159 2956 
Q 1341 3275 1631 3429 
Q 1922 3584 2338 3584 
Q 2397 3584 2469 3576 
Q 2541 3569 2628 3553 
L 2631 2963 
z
" transform="scale(0.015625)"/>
       <path id="DejaVuSans-78" d="M 3513 3500 
L 2247 1797 
L 3578 0 
L 2900 0 
L 1881 1375 
L 863 0 
L 184 0 
L 1544 1831 
L 300 3500 
L 978 3500 
L 1906 2253 
L 2834 3500 
L 3513 3500 
z
" transform="scale(0.015625)"/>
       <path id="DejaVuSans-73" d="M 2834 3397 
L 2834 2853 
Q 2591 2978 2328 3040 
Q 2066 3103 1784 3103 
Q 1356 3103 1142 2972 
Q 928 2841 928 2578 
Q 928 2378 1081 2264 
Q 1234 2150 1697 2047 
L 1894 2003 
Q 2506 1872 2764 1633 
Q 3022 1394 3022 966 
Q 3022 478 2636 193 
Q 2250 -91 1575 -91 
Q 1294 -91 989 -36 
Q 684 19 347 128 
L 347 722 
Q 666 556 975 473 
Q 1284 391 1588 391 
Q 1994 391 2212 530 
Q 2431 669 2431 922 
Q 2431 1156 2273 1281 
Q 2116 1406 1581 1522 
L 1381 1569 
Q 847 1681 609 1914 
Q 372 2147 372 2553 
Q 372 3047 722 3315 
Q 1072 3584 1716 3584 
Q 2034 3584 2315 3537 
Q 2597 3491 2834 3397 
z
" transform="scale(0.015625)"/>
       <path id="DejaVuSans-68" d="M 3513 2113 
L 3513 0 
L 2938 0 
L 2938 2094 
Q 2938 2591 2744 2837 
Q 2550 3084 2163 3084 
Q 1697 3084 1428 2787 
Q 1159 2491 1159 1978 
L 1159 0 
L 581 0 
L 581 4863 
L 1159 4863 
L 1159 2956 
Q 1366 3272 1645 3428 
Q 1925 3584 2291 3584 
Q 2894 3584 3203 3211 
Q 3513 2838 3513 2113 
z
" transform="scale(0.015625)"/>
      </defs>
      <use xlink:href="#DejaVuSans-70"/>
      <use xlink:href="#DejaVuSans-72" x="63.476562"/>
      <use xlink:href="#DejaVuSans-69" x="104.589844"/>
      <use xlink:href="#DejaVuSans-78" x="132.373047"/>
      <use xlink:href="#DejaVuSans-6d" x="191.552734"/>
      <use xlink:href="#DejaVuSans-32" x="288.964844"/>
      <use xlink:href="#DejaVuSans-5f" x="352.587891"/>
      <use xlink:href="#DejaVuSans-73" x="402.587891"/>
      <use xlink:href="#DejaVuSans-6d" x="454.6875"/>
      <use xlink:href="#DejaVuSans-6f" x="552.099609"/>
      <use xlink:href="#DejaVuSans-6f" x="613.28125"/>
      <use xlink:href="#DejaVuSans-74" x="674.462891"/>
      <use xlink:href="#DejaVuSans-68" x="713.671875"/>
     </g>
    </g>
   </g>
   <g id="PolyCollection_1"/>
   <g id="line2d_13">
    <path d="M 72.437727 290.855455 
L 76.389369 213.826825 
L 77.574861 195.200776 
L 78.562772 182.769165 
L 79.3531 175.188037 
L 80.143428 169.880832 
L 80.736175 167.440213 
L 81.131339 166.548752 
L 81.526503 166.238663 
L 81.724085 166.298064 
L 82.119249 166.835776 
L 82.514413 167.915053 
L 83.107159 170.494327 
L 83.699906 174.13373 
L 84.490234 180.421187 
L 85.478144 190.105377 
L 87.256383 210.374155 
L 89.232204 232.501596 
L 90.417696 243.409537 
L 91.405607 250.383789 
L 92.195935 254.372823 
L 92.788681 256.39565 
L 93.381428 257.590663 
L 93.776592 257.939484 
L 94.171756 257.944309 
L 94.56692 257.621513 
L 94.962084 256.990778 
L 95.55483 255.517483 
L 96.345159 252.706704 
L 97.333069 248.162107 
L 99.111308 238.574079 
L 100.691964 230.420895 
L 101.679875 226.277818 
L 102.470203 223.742718 
L 103.062949 222.369109 
L 103.655696 221.482647 
L 104.05086 221.171535 
L 104.446024 221.08716 
L 104.841188 221.229231 
L 105.236352 221.595103 
L 105.829098 222.552185 
L 106.421845 223.975624 
L 107.212173 226.536072 
L 108.200083 230.6445 
L 109.583158 237.615261 
L 113.534799 258.512099 
L 114.720292 263.230527 
L 115.708202 266.197111 
L 116.498531 267.881156 
L 117.091277 268.734658 
L 117.684023 269.242734 
L 118.276769 269.418331 
L 118.869516 269.280987 
L 119.462262 268.856034 
L 120.055008 268.173673 
L 120.845336 266.922708 
L 121.833247 264.935094 
L 123.413903 261.193219 
L 125.98247 255.109598 
L 127.365545 252.37916 
L 128.748619 250.16559 
L 130.131694 248.42563 
L 131.514768 247.057725 
L 133.095425 245.827725 
L 134.676082 244.89438 
L 136.059156 244.34559 
L 137.244649 244.116616 
L 138.430141 244.138242 
L 139.615634 244.408959 
L 140.998708 244.987522 
L 143.567275 246.409183 
L 145.345514 247.276649 
L 146.926171 247.795625 
L 148.704409 248.11229 
L 152.063305 248.630139 
L 153.446379 249.107371 
L 155.027036 249.923959 
L 158.978677 252.175001 
L 159.966588 252.358473 
L 160.756916 252.269642 
L 161.547244 251.927342 
L 162.337573 251.299509 
L 163.127901 250.364613 
L 163.918229 249.113448 
L 164.90614 247.112617 
L 166.091632 244.12707 
L 167.474707 240.009904 
L 172.019094 225.917738 
L 173.007005 223.706389 
L 173.797333 222.359172 
L 174.587661 221.43349 
L 175.180408 221.031286 
L 175.773154 220.883356 
L 176.3659 220.985976 
L 176.958646 221.328466 
L 177.748975 222.126734 
L 178.539303 223.258737 
L 179.724795 225.402318 
L 182.293362 230.300369 
L 183.083691 231.386158 
L 183.676437 231.936217 
L 184.269183 232.205965 
L 184.664347 232.207927 
L 185.059512 232.053409 
L 185.652258 231.504587 
L 186.245004 230.54756 
L 186.83775 229.157658 
L 187.628079 226.60344 
L 188.418407 223.235786 
L 189.406317 217.908258 
L 190.59181 210.017775 
L 191.974884 199.172348 
L 196.519272 161.865855 
L 197.507182 155.947292 
L 198.297511 152.322077 
L 198.890257 150.331098 
L 199.483003 149.002303 
L 199.878167 148.493571 
L 200.273332 148.288215 
L 200.668496 148.383856 
L 201.06366 148.774707 
L 201.458824 149.451624 
L 202.05157 150.975403 
L 202.841899 153.867388 
L 203.829809 158.624467 
L 205.212883 166.698371 
L 208.176615 184.561613 
L 209.362107 190.311553 
L 210.350017 194.131495 
L 211.337928 197.04631 
L 212.128256 198.778056 
L 212.918584 200.055217 
L 213.708913 200.96932 
L 214.696823 201.747826 
L 215.882316 202.367981 
L 217.660554 203.023221 
L 219.043629 203.316107 
L 219.833957 203.290756 
L 220.624286 203.024218 
L 221.217032 202.610094 
L 221.809778 201.968987 
L 222.600106 200.700411 
L 223.390435 198.898762 
L 224.180763 196.524741 
L 225.168673 192.748753 
L 226.354166 187.144529 
L 227.934822 178.395035 
L 230.503389 164.001041 
L 231.688882 158.657915 
L 232.47921 155.9049 
L 233.269538 153.909691 
L 233.862285 152.940426 
L 234.455031 152.427358 
L 234.850195 152.333442 
L 235.245359 152.430209 
L 235.640523 152.707958 
L 236.23327 153.436686 
L 237.023598 154.910041 
L 238.011508 157.351072 
L 241.370404 166.376338 
L 242.160732 167.770599 
L 242.753478 168.480535 
L 243.346224 168.875387 
L 243.938971 168.94521 
L 244.531717 168.694034 
L 245.124463 168.139785 
L 245.914791 166.98507 
L 246.902702 165.029942 
L 250.064015 158.288256 
L 250.854343 157.334901 
L 251.44709 156.986154 
L 251.842254 156.949065 
L 252.237418 157.076961 
L 252.830164 157.586148 
L 253.42291 158.475268 
L 254.213239 160.222072 
L 255.003567 162.533277 
L 256.189059 166.771709 
L 258.955209 177.071352 
L 259.745537 179.220925 
L 260.338283 180.391559 
L 260.931029 181.117103 
L 261.326193 181.330039 
L 261.721358 181.313896 
L 262.116522 181.061228 
L 262.511686 180.567564 
L 263.104432 179.372804 
L 263.697178 177.640782 
L 264.487507 174.535936 
L 265.475417 169.50918 
L 266.66091 162.141807 
L 268.63673 148.121466 
L 270.612551 134.45435 
L 271.798044 127.540236 
L 272.785954 122.911215 
L 273.576282 120.069557 
L 274.366611 118.043516 
L 274.959357 117.066665 
L 275.552103 116.547473 
L 275.947267 116.447521 
L 276.342431 116.536298 
L 276.737596 116.804972 
L 277.330342 117.522467 
L 277.923088 118.581439 
L 278.713416 120.446142 
L 279.898909 123.973394 
L 282.072312 131.46696 
L 283.85055 137.236701 
L 285.036043 140.39065 
L 286.023953 142.453309 
L 286.814282 143.702151 
L 287.60461 144.591798 
L 288.394938 145.134837 
L 289.185266 145.354977 
L 289.975595 145.284162 
L 290.765923 144.959842 
L 291.753833 144.259866 
L 292.939326 143.095129 
L 294.717565 140.96517 
L 297.878878 137.139253 
L 299.459534 135.610251 
L 300.842609 134.59178 
L 302.028101 133.965502 
L 303.411176 133.500856 
L 304.794251 133.273705 
L 306.572489 133.213793 
L 309.53622 133.156424 
L 310.721713 132.903905 
L 311.709623 132.475772 
L 312.697534 131.776445 
L 313.685444 130.74051 
L 314.673354 129.314354 
L 315.661265 127.465364 
L 316.846757 124.686425 
L 318.229832 120.759065 
L 320.205653 114.340784 
L 322.576638 106.756734 
L 323.959712 103.116336 
L 324.947622 101.074555 
L 325.935533 99.558163 
L 326.725861 98.728851 
L 327.51619 98.225362 
L 328.306518 98.018942 
L 329.096846 98.070452 
L 329.887174 98.333933 
L 330.875085 98.88631 
L 332.455741 100.062816 
L 335.024308 101.988011 
L 336.407383 102.727974 
L 337.592875 103.09681 
L 338.580786 103.189177 
L 339.568696 103.075011 
L 340.556607 102.753817 
L 341.742099 102.1085 
L 342.927592 101.211247 
L 344.508248 99.706482 
L 346.681651 97.280325 
L 349.842964 93.394585 
L 351.818785 90.627945 
L 353.399442 88.006275 
L 354.980098 84.884927 
L 356.560755 81.254868 
L 361.302725 69.84144 
L 362.290635 68.178826 
L 363.080963 67.237249 
L 363.67371 66.79761 
L 364.266456 66.610603 
L 364.859202 66.693693 
L 365.451948 67.059763 
L 366.044695 67.716665 
L 366.637441 68.666897 
L 367.427769 70.384129 
L 368.41568 73.219567 
L 369.601172 77.519952 
L 370.984247 83.499178 
L 375.923799 105.952631 
L 376.911709 109.151637 
L 377.702037 111.102494 
L 378.492366 112.442843 
L 379.085112 113.020653 
L 379.677858 113.220539 
L 380.073022 113.142594 
L 380.665768 112.712651 
L 381.258515 111.918593 
L 382.048843 110.330749 
L 382.839171 108.206431 
L 384.024664 104.233472 
L 386.395649 95.063783 
L 387.778723 90.211822 
L 388.766634 87.477576 
L 389.556962 85.883011 
L 390.149708 85.076647 
L 390.742454 84.619228 
L 391.335201 84.510374 
L 391.927947 84.736311 
L 392.520693 85.269818 
L 393.311021 86.388262 
L 394.298932 88.253962 
L 396.472335 92.604535 
L 397.262663 93.662074 
L 397.855409 94.081059 
L 398.250573 94.141458 
L 398.645737 94.004252 
L 399.040902 93.652709 
L 399.633648 92.693349 
L 400.226394 91.185196 
L 400.81914 89.109139 
L 401.609469 85.457676 
L 402.597379 79.550582 
L 403.782871 70.801544 
L 405.758692 53.939933 
L 407.536931 39.269575 
L 408.524841 32.569571 
L 409.31517 28.386821 
L 409.907916 26.068941 
L 410.500662 24.522426 
L 410.895826 23.940205 
L 411.29099 23.724545 
L 411.686155 23.876544 
L 412.081319 24.392446 
L 412.476483 25.263646 
L 413.069229 27.206092 
L 413.859557 30.876678 
L 414.847468 36.895459 
L 416.230542 47.024123 
L 418.601527 64.579333 
L 419.589438 70.485652 
L 420.577348 75.062314 
L 421.367676 77.730865 
L 422.158005 79.626512 
L 422.948333 80.981055 
L 424.331408 83.190403 
L 424.924154 84.633845 
L 425.5169 86.753937 
L 426.109646 89.848183 
L 426.702392 94.232739 
L 427.295139 100.234875 
L 427.887885 108.184425 
L 428.678213 122.369056 
L 429.468542 141.301078 
L 430.25887 165.593218 
L 431.24678 204.18452 
L 432.234691 252.317112 
L 432.432273 263.085535 
L 432.432273 263.085535 
" clip-path="url(#pe56ea47a33)" style="fill: none; stroke: #1f77b4; stroke-width: 1.2; stroke-linecap: round"/>
   </g>
   <g id="line2d_14"/>
   <g id="patch_3">
    <path d="M 54.438 304.212 
L 54.438 10.368 
" style="fill: none; stroke: #ffffff; stroke-linejoin: miter; stroke-linecap: square"/>
   </g>
   <g id="patch_4">
    <path d="M 450.432 304.212 
L 450.432 10.368 
" style="fill: none; stroke: #ffffff; stroke-linejoin: miter; stroke-linecap: square"/>
   </g>
   <g id="patch_5">
    <path d="M 54.438 304.212 
L 450.432 304.212 
" style="fill: none; stroke: #ffffff; stroke-linejoin: miter; stroke-linecap: square"/>
   </g>
   <g id="patch_6">
    <path d="M 54.438 10.368 
L 450.432 10.368 
" style="fill: none; stroke: #ffffff; stroke-linejoin: miter; stroke-linecap: square"/>
   </g>
   <g id="legend_1">
    <g id="patch_7">
     <path d="M 60.598 44.28275 
L 138.1565 44.28275 
Q 139.9165 44.28275 139.9165 42.52275 
L 139.9165 16.528 
Q 139.9165 14.768 138.1565 14.768 
L 60.598 14.768 
Q 58.838 14.768 58.838 16.528 
L 58.838 42.52275 
Q 58.838 44.28275 60.598 44.28275 
z
" style="fill: #e6e6e6; opacity: 0.8; stroke: #cccccc; stroke-width: 0.8; stroke-linejoin: miter"/>
    </g>
    <g id="text_15">
     <!-- nom_commune -->
     <g style="fill: #262626" transform="translate(62.358 25.5825) scale(0.096 -0.096)">
      <defs>
       <path id="DejaVuSans-63" d="M 3122 3366 
L 3122 2828 
Q 2878 2963 2633 3030 
Q 2388 3097 2138 3097 
Q 1578 3097 1268 2742 
Q 959 2388 959 1747 
Q 959 1106 1268 751 
Q 1578 397 2138 397 
Q 2388 397 2633 464 
Q 2878 531 3122 666 
L 3122 134 
Q 2881 22 2623 -34 
Q 2366 -91 2075 -91 
Q 1284 -91 818 406 
Q 353 903 353 1747 
Q 353 2603 823 3093 
Q 1294 3584 2113 3584 
Q 2378 3584 2631 3529 
Q 2884 3475 3122 3366 
z
" transform="scale(0.015625)"/>
      </defs>
      <use xlink:href="#DejaVuSans-6e"/>
      <use xlink:href="#DejaVuSans-6f" x="63.378906"/>
      <use xlink:href="#DejaVuSans-6d" x="124.560547"/>
      <use xlink:href="#DejaVuSans-5f" x="221.972656"/>
      <use xlink:href="#DejaVuSans-63" x="271.972656"/>
      <use xlink:href="#DejaVuSans-6f" x="326.953125"/>
      <use xlink:href="#DejaVuSans-6d" x="388.134766"/>
      <use xlink:href="#DejaVuSans-6d" x="485.546875"/>
      <use xlink:href="#DejaVuSans-75" x="582.958984"/>
      <use xlink:href="#DejaVuSans-6e" x="646.337891"/>
      <use xlink:href="#DejaVuSans-65" x="709.716797"/>
     </g>
    </g>
    <g id="line2d_15">
     <path d="M 75.604188 35.852625 
L 84.404188 35.852625 
L 93.204188 35.852625 
" style="fill: none; stroke: #1f77b4; stroke-width: 1.2; stroke-linecap: round"/>
    </g>
    <g id="text_16">
     <!-- Brest -->
     <g style="fill: #262626" transform="translate(100.244188 38.932625) scale(0.088 -0.088)">
      <defs>
       <path id="DejaVuSans-42" d="M 1259 2228 
L 1259 519 
L 2272 519 
Q 2781 519 3026 730 
Q 3272 941 3272 1375 
Q 3272 1813 3026 2020 
Q 2781 2228 2272 2228 
L 1259 2228 
z
M 1259 4147 
L 1259 2741 
L 2194 2741 
Q 2656 2741 2882 2914 
Q 3109 3088 3109 3444 
Q 3109 3797 2882 3972 
Q 2656 4147 2194 4147 
L 1259 4147 
z
M 628 4666 
L 2241 4666 
Q 2963 4666 3353 4366 
Q 3744 4066 3744 3513 
Q 3744 3084 3544 2831 
Q 3344 2578 2956 2516 
Q 3422 2416 3680 2098 
Q 3938 1781 3938 1306 
Q 3938 681 3513 340 
Q 3088 0 2303 0 
L 628 0 
L 628 4666 
z
" transform="scale(0.015625)"/>
      </defs>
      <use xlink:href="#DejaVuSans-42"/>
      <use xlink:href="#DejaVuSans-72" x="68.603516"/>
      <use xlink:href="#DejaVuSans-65" x="107.466797"/>
      <use xlink:href="#DejaVuSans-73" x="168.990234"/>
      <use xlink:href="#DejaVuSans-74" x="221.089844"/>
     </g>
    </g>
   </g>
  </g>
 </g>
 <defs>
  <clipPath id="pe56ea47a33">
   <rect x="54.438" y="10.368" width="395.994" height="293.844"/>
  </clipPath>
 </defs>
</svg>
