<?xml version="1.0" encoding="utf-8" standalone="no"?>
<!DOCTYPE svg PUBLIC "-//W3C//DTD SVG 1.1//EN"
  "http://www.w3.org/Graphics/SVG/1.1/DTD/svg11.dtd">
<svg xmlns:xlink="http://www.w3.org/1999/xlink" width="460.8pt" height="345.6pt" viewBox="0 0 460.8 345.6" xmlns="http://www.w3.org/2000/svg" version="1.1">
 <metadata>
  <rdf:RDF xmlns:dc="http://purl.org/dc/elements/1.1/" xmlns:cc="http://creativecommons.org/ns#" xmlns:rdf="http://www.w3.org/1999/02/22-rdf-syntax-ns#">
   <cc:Work>
    <dc:type rdf:resource="http://purl.org/dc/dcmitype/StillImage"/>
    <dc:date>2026-01-01T00:24:35.529827</dc:date>
    <dc:format>image/svg+xml</dc:format>
    <dc:creator>
     <cc:Agent>
      <dc:title>Matplotlib v3.10.8, https://matplotlib.org/</dc:title>
     </cc:Agent>
    </dc:creator>
   </cc:Work>
  </rdf:RDF>
 </metadata>
 <defs>
  <style type="text/css">*{stroke-linejoin: round; stroke-linecap: butt}</style>
 </defs>
 <g id="figure_1">
  <g id="patch_1">
   <path d="M 0 345.6 
L 460.8 345.6 
L 460.8 0 
L 0 0 
z
" style="fill: #ffffff"/>
  </g>
  <g id="axes_1">
   <g id="patch_2">
    <path d="M 54.438 304.212 
L 450.432 304.212 
L 450.432 10.368 
L 54.438 10.368 
z
" style="fill: #e6e6e6"/>
   </g>
   <g id="matplotlib.axis_1">
    <g id="xtick_1">
     <g id="line2d_1">
      <path d="M 108.812794 304.212 
L 108.812794 10.368 
" clip-path="url(#pf1573969bc)" style="fill: none; stroke: #ffffff; stroke-width: 0.8; stroke-linecap: round"/>
     </g>
     <g id="text_1">
      <!-- 2021 -->
      <g style="fill: #262626" transform="translate(97.614794 319.198625) scale(0.088 -0.088)">
       <defs>
        <path id="DejaVuSans-32" d="M 1228 531 
L 3431 531 
L 3431 0 
L 469 0 
L 469 531 
Q 828 903 1448 1529 
Q 2069 2156 2228 2338 
Q 2531 2678 2651 2914 
Q 2772 3150 2772 3378 
Q 2772 3750 2511 3984 
Q 2250 4219 1831 4219 
Q 1534 4219 1204 4116 
Q 875 4013 500 3803 
L 500 4441 
Q 881 4594 1212 4672 
Q 1544 4750 1819 4750 
Q 2544 4750 2975 4387 
Q 3406 4025 3406 3419 
Q 3406 3131 3298 2873 
Q 3191 2616 2906 2266 
Q 2828 2175 2409 1742 
Q 1991 1309 1228 531 
z
" transform="scale(0.015625)"/>
        <path id="DejaVuSans-30" d="M 2034 4250 
Q 1547 4250 1301 3770 
Q 1056 3291 1056 2328 
Q 1056 1369 1301 889 
Q 1547 409 2034 409 
Q 2525 409 2770 889 
Q 3016 1369 3016 2328 
Q 3016 3291 2770 3770 
Q 2525 4250 2034 4250 
z
M 2034 4750 
Q 2819 4750 3233 4129 
Q 3647 3509 3647 2328 
Q 3647 1150 3233 529 
Q 2819 -91 2034 -91 
Q 1250 -91 836 529 
Q 422 1150 422 2328 
Q 422 3509 836 4129 
Q 1250 4750 2034 4750 
z
" transform="scale(0.015625)"/>
        <path id="DejaVuSans-31" d="M 794 531 
L 1825 531 
L 1825 4091 
L 703 3866 
L 703 4441 
L 1819 4666 
L 2450 4666 
L 2450 531 
L 3481 531 
L 3481 0 
L 794 0 
L 794 531 
z
" transform="scale(0.015625)"/>
       </defs>
       <use xlink:href="#DejaVuSans-32"/>
       <use xlink:href="#DejaVuSans-30" transform="translate(63.623047 0)"/>
       <use xlink:href="#DejaVuSans-32" transform="translate(127.246094 0)"/>
       <use xlink:href="#DejaVuSans-31" transform="translate(190.869141 0)"/>
      </g>
     </g>
    </g>
    <g id="xtick_2">
     <g id="line2d_2">
      <path d="M 180.969855 304.212 
L 180.969855 10.368 
" clip-path="url(#pf1573969bc)" style="fill: none; stroke: #ffffff; stroke-width: 0.8; stroke-linecap: round"/>
     </g>
     <g id="text_2">
      <!-- 2022 -->
      <g style="fill: #262626" transform="translate(169.771855 319.198625) scale(0.088 -0.088)">
       <use xlink:href="#DejaVuSans-32"/>
       <use xlink:href="#DejaVuSans-30" transform="translate(63.623047 0)"/>
       <use xlink:href="#DejaVuSans-32" transform="translate(127.246094 0)"/>
       <use xlink:href="#DejaVuSans-32" transform="translate(190.869141 0)"/>
      </g>
     </g>
    </g>
    <g id="xtick_3">
     <g id="line2d_3">
      <path d="M 253.126917 304.212 
L 253.126917 10.368 
" clip-path="url(#pf1573969bc)" style="fill: none; stroke: #ffffff; stroke-width: 0.8; stroke-linecap: round"/>
     </g>
     <g id="text_3">
      <!-- 2023 -->
      <g style="fill: #262626" transform="translate(241.928917 319.198625) scale(0.088 -0.088)">
       <defs>
        <path id="DejaVuSans-33" d="M 2597 2516 
Q 3050 2419 3304 2112 
Q 3559 1806 3559 1356 
Q 3559 666 3084 287 
Q 2609 -91 1734 -91 
Q 1441 -91 1130 -33 
Q 819 25 488 141 
L 488 750 
Q 750 597 1062 519 
Q 1375 441 1716 441 
Q 2309 441 2620 675 
Q 2931 909 2931 1356 
Q 2931 1769 2642 2001 
Q 2353 2234 1838 2234 
L 1294 2234 
L 1294 2753 
L 1863 2753 
Q 2328 2753 2575 2939 
Q 2822 3125 2822 3475 
Q 2822 3834 2567 4026 
Q 2313 4219 1838 4219 
Q 1578 4219 1281 4162 
Q 984 4106 628 3988 
L 628 4550 
Q 988 4650 1302 4700 
Q 1616 4750 1894 4750 
Q 2613 4750 3031 4423 
Q 3450 4097 3450 3541 
Q 3450 3153 3228 2886 
Q 3006 2619 2597 2516 
z
" transform="scale(0.015625)"/>
       </defs>
       <use xlink:href="#DejaVuSans-32"/>
       <use xlink:href="#DejaVuSans-30" transform="translate(63.623047 0)"/>
       <use xlink:href="#DejaVuSans-32" transform="translate(127.246094 0)"/>
       <use xlink:href="#DejaVuSans-33" transform="translate(190.869141 0)"/>
      </g>
     </g>
    </g>
    <g id="xtick_4">
     <g id="line2d_4">
      <path d="M 325.283979 304.212 
L 325.283979 10.368 
" clip-path="url(#pf1573969bc)" style="fill: none; stroke: #ffffff; stroke-width: 0.8; stroke-linecap: round"/>
     </g>
     <g id="text_4">
      <!-- 2024 -->
      <g style="fill: #262626" transform="translate(314.085979 319.198625) scale(0.088 -0.088)">
       <defs>
        <path id="DejaVuSans-34" d="M 2419 4116 
L 825 1625 
L 2419 1625 
L 2419 4116 
z
M 2253 4666 
L 3047 4666 
L 3047 1625 
L 3713 1625 
L 3713 1100 
L 3047 1100 
L 3047 0 
L 2419 0 
L 2419 1100 
L 313 1100 
L 313 1709 
L 2253 4666 
z
" transform="scale(0.015625)"/>
       </defs>
       <use xlink:href="#DejaVuSans-32"/>
       <use xlink:href="#DejaVuSans-30" transform="translate(63.623047 0)"/>
       <use xlink:href="#DejaVuSans-32" transform="translate(127.246094 0)"/>
       <use xlink:href="#DejaVuSans-34" transform="translate(190.869141 0)"/>
      </g>
     </g>
    </g>
    <g id="xtick_5">
     <g id="line2d_5">
      <path d="M 397.638731 304.212 
L 397.638731 10.368 
" clip-path="url(#pf1573969bc)" style="fill: none; stroke: #ffffff; stroke-width: 0.8; stroke-linecap: round"/>
     </g>
     <g id="text_5">
      <!-- 2025 -->
      <g style="fill: #262626" transform="translate(386.440731 319.198625) scale(0.088 -0.088)">
       <defs>
        <path id="DejaVuSans-35" d="M 691 4666 
L 3169 4666 
L 3169 4134 
L 1269 4134 
L 1269 2991 
Q 1406 3038 1543 3061 
Q 1681 3084 1819 3084 
Q 2600 3084 3056 2656 
Q 3513 2228 3513 1497 
Q 3513 744 3044 326 
Q 2575 -91 1722 -91 
Q 1428 -91 1123 -41 
Q 819 9 494 109 
L 494 744 
Q 775 591 1075 516 
Q 1375 441 1709 441 
Q 2250 441 2565 725 
Q 2881 1009 2881 1497 
Q 2881 1984 2565 2268 
Q 2250 2553 1709 2553 
Q 1456 2553 1204 2497 
Q 953 2441 691 2322 
L 691 4666 
z
" transform="scale(0.015625)"/>
       </defs>
       <use xlink:href="#DejaVuSans-32"/>
       <use xlink:href="#DejaVuSans-30" transform="translate(63.623047 0)"/>
       <use xlink:href="#DejaVuSans-32" transform="translate(127.246094 0)"/>
       <use xlink:href="#DejaVuSans-35" transform="translate(190.869141 0)"/>
      </g>
     </g>
    </g>
    <g id="text_6">
     <!-- date_mutation -->
     <g style="fill: #262626" transform="translate(217.476 332.32325) scale(0.096 -0.096)">
      <defs>
       <path id="DejaVuSans-64" d="M 2906 2969 
L 2906 4863 
L 3481 4863 
L 3481 0 
L 2906 0 
L 2906 525 
Q 2725 213 2448 61 
Q 2172 -91 1784 -91 
Q 1150 -91 751 415 
Q 353 922 353 1747 
Q 353 2572 751 3078 
Q 1150 3584 1784 3584 
Q 2172 3584 2448 3432 
Q 2725 3281 2906 2969 
z
M 947 1747 
Q 947 1113 1208 752 
Q 1469 391 1925 391 
Q 2381 391 2643 752 
Q 2906 1113 2906 1747 
Q 2906 2381 2643 2742 
Q 2381 3103 1925 3103 
Q 1469 3103 1208 2742 
Q 947 2381 947 1747 
z
" transform="scale(0.015625)"/>
       <path id="DejaVuSans-61" d="M 2194 1759 
Q 1497 1759 1228 1600 
Q 959 1441 959 1056 
Q 959 750 1161 570 
Q 1363 391 1709 391 
Q 2188 391 2477 730 
Q 2766 1069 2766 1631 
L 2766 1759 
L 2194 1759 
z
M 3341 1997 
L 3341 0 
L 2766 0 
L 2766 531 
Q 2569 213 2275 61 
Q 1981 -91 1556 -91 
Q 1019 -91 701 211 
Q 384 513 384 1019 
Q 384 1609 779 1909 
Q 1175 2209 1959 2209 
L 2766 2209 
L 2766 2266 
Q 2766 2663 2505 2880 
Q 2244 3097 1772 3097 
Q 1472 3097 1187 3025 
Q 903 2953 641 2809 
L 641 3341 
Q 956 3463 1253 3523 
Q 1550 3584 1831 3584 
Q 2591 3584 2966 3190 
Q 3341 2797 3341 1997 
z
" transform="scale(0.015625)"/>
       <path id="DejaVuSans-74" d="M 1172 4494 
L 1172 3500 
L 2356 3500 
L 2356 3053 
L 1172 3053 
L 1172 1153 
Q 1172 725 1289 603 
Q 1406 481 1766 481 
L 2356 481 
L 2356 0 
L 1766 0 
Q 1100 0 847 248 
Q 594 497 594 1153 
L 594 3053 
L 172 3053 
L 172 3500 
L 594 3500 
L 594 4494 
L 1172 4494 
z
" transform="scale(0.015625)"/>
       <path id="DejaVuSans-65" d="M 3597 1894 
L 3597 1613 
L 953 1613 
Q 991 1019 1311 708 
Q 1631 397 2203 397 
Q 2534 397 2845 478 
Q 3156 559 3463 722 
L 3463 178 
Q 3153 47 2828 -22 
Q 2503 -91 2169 -91 
Q 1331 -91 842 396 
Q 353 884 353 1716 
Q 353 2575 817 3079 
Q 1281 3584 2069 3584 
Q 2775 3584 3186 3129 
Q 3597 2675 3597 1894 
z
M 3022 2063 
Q 3016 2534 2758 2815 
Q 2500 3097 2075 3097 
Q 1594 3097 1305 2825 
Q 1016 2553 972 2059 
L 3022 2063 
z
" transform="scale(0.015625)"/>
       <path id="DejaVuSans-5f" d="M 3263 -1063 
L 3263 -1509 
L -63 -1509 
L -63 -1063 
L 3263 -1063 
z
" transform="scale(0.015625)"/>
       <path id="DejaVuSans-6d" d="M 3328 2828 
Q 3544 3216 3844 3400 
Q 4144 3584 4550 3584 
Q 5097 3584 5394 3201 
Q 5691 2819 5691 2113 
L 5691 0 
L 5113 0 
L 5113 2094 
Q 5113 2597 4934 2840 
Q 4756 3084 4391 3084 
Q 3944 3084 3684 2787 
Q 3425 2491 3425 1978 
L 3425 0 
L 2847 0 
L 2847 2094 
Q 2847 2600 2669 2842 
Q 2491 3084 2119 3084 
Q 1678 3084 1418 2786 
Q 1159 2488 1159 1978 
L 1159 0 
L 581 0 
L 581 3500 
L 1159 3500 
L 1159 2956 
Q 1356 3278 1631 3431 
Q 1906 3584 2284 3584 
Q 2666 3584 2933 3390 
Q 3200 3197 3328 2828 
z
" transform="scale(0.015625)"/>
       <path id="DejaVuSans-75" d="M 544 1381 
L 544 3500 
L 1119 3500 
L 1119 1403 
Q 1119 906 1312 657 
Q 1506 409 1894 409 
Q 2359 409 2629 706 
Q 2900 1003 2900 1516 
L 2900 3500 
L 3475 3500 
L 3475 0 
L 2900 0 
L 2900 538 
Q 2691 219 2414 64 
Q 2138 -91 1772 -91 
Q 1169 -91 856 284 
Q 544 659 544 1381 
z
M 1991 3584 
L 1991 3584 
z
" transform="scale(0.015625)"/>
       <path id="DejaVuSans-69" d="M 603 3500 
L 1178 3500 
L 1178 0 
L 603 0 
L 603 3500 
z
M 603 4863 
L 1178 4863 
L 1178 4134 
L 603 4134 
L 603 4863 
z
" transform="scale(0.015625)"/>
       <path id="DejaVuSans-6f" d="M 1959 3097 
Q 1497 3097 1228 2736 
Q 959 2375 959 1747 
Q 959 1119 1226 758 
Q 1494 397 1959 397 
Q 2419 397 2687 759 
Q 2956 1122 2956 1747 
Q 2956 2369 2687 2733 
Q 2419 3097 1959 3097 
z
M 1959 3584 
Q 2709 3584 3137 3096 
Q 3566 2609 3566 1747 
Q 3566 888 3137 398 
Q 2709 -91 1959 -91 
Q 1206 -91 779 398 
Q 353 888 353 1747 
Q 353 2609 779 3096 
Q 1206 3584 1959 3584 
z
" transform="scale(0.015625)"/>
       <path id="DejaVuSans-6e" d="M 3513 2113 
L 3513 0 
L 2938 0 
L 2938 2094 
Q 2938 2591 2744 2837 
Q 2550 3084 2163 3084 
Q 1697 3084 1428 2787 
Q 1159 2491 1159 1978 
L 1159 0 
L 581 0 
L 581 3500 
L 1159 3500 
L 1159 2956 
Q 1366 3272 1645 3428 
Q 1925 3584 2291 3584 
Q 2894 3584 3203 3211 
Q 3513 2838 3513 2113 
z
" transform="scale(0.015625)"/>
      </defs>
      <use xlink:href="#DejaVuSans-64"/>
      <use xlink:href="#DejaVuSans-61" transform="translate(63.476562 0)"/>
      <use xlink:href="#DejaVuSans-74" transform="translate(124.755859 0)"/>
      <use xlink:href="#DejaVuSans-65" transform="translate(163.964844 0)"/>
      <use xlink:href="#DejaVuSans-5f" transform="translate(225.488281 0)"/>
      <use xlink:href="#DejaVuSans-6d" transform="translate(275.488281 0)"/>
      <use xlink:href="#DejaVuSans-75" transform="translate(372.900391 0)"/>
      <use xlink:href="#DejaVuSans-74" transform="translate(436.279297 0)"/>
      <use xlink:href="#DejaVuSans-61" transform="translate(475.488281 0)"/>
      <use xlink:href="#DejaVuSans-74" transform="translate(536.767578 0)"/>
      <use xlink:href="#DejaVuSans-69" transform="translate(575.976562 0)"/>
      <use xlink:href="#DejaVuSans-6f" transform="translate(603.759766 0)"/>
      <use xlink:href="#DejaVuSans-6e" transform="translate(664.941406 0)"/>
     </g>
    </g>
   </g>
   <g id="matplotlib.axis_2">
    <g id="ytick_1">
     <g id="line2d_6">
      <path d="M 54.438 287.433287 
L 450.432 287.433287 
" clip-path="url(#pf1573969bc)" style="fill: none; stroke: #ffffff; stroke-width: 0.8; stroke-linecap: round"/>
     </g>
     <g id="text_7">
      <!-- 1500 -->
      <g style="fill: #262626" transform="translate(23.742 290.776599) scale(0.088 -0.088)">
       <use xlink:href="#DejaVuSans-31"/>
       <use xlink:href="#DejaVuSans-35" transform="translate(63.623047 0)"/>
       <use xlink:href="#DejaVuSans-30" transform="translate(127.246094 0)"/>
       <use xlink:href="#DejaVuSans-30" transform="translate(190.869141 0)"/>
      </g>
     </g>
    </g>
    <g id="ytick_2">
     <g id="line2d_7">
      <path d="M 54.438 248.600776 
L 450.432 248.600776 
" clip-path="url(#pf1573969bc)" style="fill: none; stroke: #ffffff; stroke-width: 0.8; stroke-linecap: round"/>
     </g>
     <g id="text_8">
      <!-- 1750 -->
      <g style="fill: #262626" transform="translate(23.742 251.944088) scale(0.088 -0.088)">
       <defs>
        <path id="DejaVuSans-37" d="M 525 4666 
L 3525 4666 
L 3525 4397 
L 1831 0 
L 1172 0 
L 2766 4134 
L 525 4134 
L 525 4666 
z
" transform="scale(0.015625)"/>
       </defs>
       <use xlink:href="#DejaVuSans-31"/>
       <use xlink:href="#DejaVuSans-37" transform="translate(63.623047 0)"/>
       <use xlink:href="#DejaVuSans-35" transform="translate(127.246094 0)"/>
       <use xlink:href="#DejaVuSans-30" transform="translate(190.869141 0)"/>
      </g>
     </g>
    </g>
    <g id="ytick_3">
     <g id="line2d_8">
      <path d="M 54.438 209.768264 
L 450.432 209.768264 
" clip-path="url(#pf1573969bc)" style="fill: none; stroke: #ffffff; stroke-width: 0.8; stroke-linecap: round"/>
     </g>
     <g id="text_9">
      <!-- 2000 -->
      <g style="fill: #262626" transform="translate(23.742 213.111577) scale(0.088 -0.088)">
       <use xlink:href="#DejaVuSans-32"/>
       <use xlink:href="#DejaVuSans-30" transform="translate(63.623047 0)"/>
       <use xlink:href="#DejaVuSans-30" transform="translate(127.246094 0)"/>
       <use xlink:href="#DejaVuSans-30" transform="translate(190.869141 0)"/>
      </g>
     </g>
    </g>
    <g id="ytick_4">
     <g id="line2d_9">
      <path d="M 54.438 170.935753 
L 450.432 170.935753 
" clip-path="url(#pf1573969bc)" style="fill: none; stroke: #ffffff; stroke-width: 0.8; stroke-linecap: round"/>
     </g>
     <g id="text_10">
      <!-- 2250 -->
      <g style="fill: #262626" transform="translate(23.742 174.279065) scale(0.088 -0.088)">
       <use xlink:href="#DejaVuSans-32"/>
       <use xlink:href="#DejaVuSans-32" transform="translate(63.623047 0)"/>
       <use xlink:href="#DejaVuSans-35" transform="translate(127.246094 0)"/>
       <use xlink:href="#DejaVuSans-30" transform="translate(190.869141 0)"/>
      </g>
     </g>
    </g>
    <g id="ytick_5">
     <g id="line2d_10">
      <path d="M 54.438 132.103241 
L 450.432 132.103241 
" clip-path="url(#pf1573969bc)" style="fill: none; stroke: #ffffff; stroke-width: 0.8; stroke-linecap: round"/>
     </g>
     <g id="text_11">
      <!-- 2500 -->
      <g style="fill: #262626" transform="translate(23.742 135.446554) scale(0.088 -0.088)">
       <use xlink:href="#DejaVuSans-32"/>
       <use xlink:href="#DejaVuSans-35" transform="translate(63.623047 0)"/>
       <use xlink:href="#DejaVuSans-30" transform="translate(127.246094 0)"/>
       <use xlink:href="#DejaVuSans-30" transform="translate(190.869141 0)"/>
      </g>
     </g>
    </g>
    <g id="ytick_6">
     <g id="line2d_11">
      <path d="M 54.438 93.27073 
L 450.432 93.27073 
" clip-path="url(#pf1573969bc)" style="fill: none; stroke: #ffffff; stroke-width: 0.8; stroke-linecap: round"/>
     </g>
     <g id="text_12">
      <!-- 2750 -->
      <g style="fill: #262626" transform="translate(23.742 96.614042) scale(0.088 -0.088)">
       <use xlink:href="#DejaVuSans-32"/>
       <use xlink:href="#DejaVuSans-37" transform="translate(63.623047 0)"/>
       <use xlink:href="#DejaVuSans-35" transform="translate(127.246094 0)"/>
       <use xlink:href="#DejaVuSans-30" transform="translate(190.869141 0)"/>
      </g>
     </g>
    </g>
    <g id="ytick_7">
     <g id="line2d_12">
      <path d="M 54.438 54.438218 
L 450.432 54.438218 
" clip-path="url(#pf1573969bc)" style="fill: none; stroke: #ffffff; stroke-width: 0.8; stroke-linecap: round"/>
     </g>
     <g id="text_13">
      <!-- 3000 -->
      <g style="fill: #262626" transform="translate(23.742 57.781531) scale(0.088 -0.088)">
       <use xlink:href="#DejaVuSans-33"/>
       <use xlink:href="#DejaVuSans-30" transform="translate(63.623047 0)"/>
       <use xlink:href="#DejaVuSans-30" transform="translate(127.246094 0)"/>
       <use xlink:href="#DejaVuSans-30" transform="translate(190.869141 0)"/>
      </g>
     </g>
    </g>
    <g id="ytick_8">
     <g id="line2d_13">
      <path d="M 54.438 15.605707 
L 450.432 15.605707 
" clip-path="url(#pf1573969bc)" style="fill: none; stroke: #ffffff; stroke-width: 0.8; stroke-linecap: round"/>
     </g>
     <g id="text_14">
      <!-- 3250 -->
      <g style="fill: #262626" transform="translate(23.742 18.949019) scale(0.088 -0.088)">
       <use xlink:href="#DejaVuSans-33"/>
       <use xlink:href="#DejaVuSans-32" transform="translate(63.623047 0)"/>
       <use xlink:href="#DejaVuSans-35" transform="translate(127.246094 0)"/>
       <use xlink:href="#DejaVuSans-30" transform="translate(190.869141 0)"/>
      </g>
     </g>
    </g>
    <g id="text_15">
     <!-- prixm2_smooth -->
     <g style="fill: #262626" transform="translate(17.4785 194.58825) rotate(-90) scale(0.096 -0.096)">
      <defs>
       <path id="DejaVuSans-70" d="M 1159 525 
L 1159 -1331 
L 581 -1331 
L 581 3500 
L 1159 3500 
L 1159 2969 
Q 1341 3281 1617 3432 
Q 1894 3584 2278 3584 
Q 2916 3584 3314 3078 
Q 3713 2572 3713 1747 
Q 3713 922 3314 415 
Q 2916 -91 2278 -91 
Q 1894 -91 1617 61 
Q 1341 213 1159 525 
z
M 3116 1747 
Q 3116 2381 2855 2742 
Q 2594 3103 2138 3103 
Q 1681 3103 1420 2742 
Q 1159 2381 1159 1747 
Q 1159 1113 1420 752 
Q 1681 391 2138 391 
Q 2594 391 2855 752 
Q 3116 1113 3116 1747 
z
" transform="scale(0.015625)"/>
       <path id="DejaVuSans-72" d="M 2631 2963 
Q 2534 3019 2420 3045 
Q 2306 3072 2169 3072 
Q 1681 3072 1420 2755 
Q 1159 2438 1159 1844 
L 1159 0 
L 581 0 
L 581 3500 
L 1159 3500 
L 1159 2956 
Q 1341 3275 1631 3429 
Q 1922 3584 2338 3584 
Q 2397 3584 2469 3576 
Q 2541 3569 2628 3553 
L 2631 2963 
z
" transform="scale(0.015625)"/>
       <path id="DejaVuSans-78" d="M 3513 3500 
L 2247 1797 
L 3578 0 
L 2900 0 
L 1881 1375 
L 863 0 
L 184 0 
L 1544 1831 
L 300 3500 
L 978 3500 
L 1906 2253 
L 2834 3500 
L 3513 3500 
z
" transform="scale(0.015625)"/>
       <path id="DejaVuSans-73" d="M 2834 3397 
L 2834 2853 
Q 2591 2978 2328 3040 
Q 2066 3103 1784 3103 
Q 1356 3103 1142 2972 
Q 928 2841 928 2578 
Q 928 2378 1081 2264 
Q 1234 2150 1697 2047 
L 1894 2003 
Q 2506 1872 2764 1633 
Q 3022 1394 3022 966 
Q 3022 478 2636 193 
Q 2250 -91 1575 -91 
Q 1294 -91 989 -36 
Q 684 19 347 128 
L 347 722 
Q 666 556 975 473 
Q 1284 391 1588 391 
Q 1994 391 2212 530 
Q 2431 669 2431 922 
Q 2431 1156 2273 1281 
Q 2116 1406 1581 1522 
L 1381 1569 
Q 847 1681 609 1914 
Q 372 2147 372 2553 
Q 372 3047 722 3315 
Q 1072 3584 1716 3584 
Q 2034 3584 2315 3537 
Q 2597 3491 2834 3397 
z
" transform="scale(0.015625)"/>
       <path id="DejaVuSans-68" d="M 3513 2113 
L 3513 0 
L 2938 0 
L 2938 2094 
Q 2938 2591 2744 2837 
Q 2550 3084 2163 3084 
Q 1697 3084 1428 2787 
Q 1159 2491 1159 1978 
L 1159 0 
L 581 0 
L 581 4863 
L 1159 4863 
L 1159 2956 
Q 1366 3272 1645 3428 
Q 1925 3584 2291 3584 
Q 2894 3584 3203 3211 
Q 3513 2838 3513 2113 
z
" transform="scale(0.015625)"/>
      </defs>
      <use xlink:href="#DejaVuSans-70"/>
      <use xlink:href="#DejaVuSans-72" transform="translate(63.476562 0)"/>
      <use xlink:href="#DejaVuSans-69" transform="translate(104.589844 0)"/>
      <use xlink:href="#DejaVuSans-78" transform="translate(132.373047 0)"/>
      <use xlink:href="#DejaVuSans-6d" transform="translate(191.552734 0)"/>
      <use xlink:href="#DejaVuSans-32" transform="translate(288.964844 0)"/>
      <use xlink:href="#DejaVuSans-5f" transform="translate(352.587891 0)"/>
      <use xlink:href="#DejaVuSans-73" transform="translate(402.587891 0)"/>
      <use xlink:href="#DejaVuSans-6d" transform="translate(454.6875 0)"/>
      <use xlink:href="#DejaVuSans-6f" transform="translate(552.099609 0)"/>
      <use xlink:href="#DejaVuSans-6f" transform="translate(613.28125 0)"/>
      <use xlink:href="#DejaVuSans-74" transform="translate(674.462891 0)"/>
      <use xlink:href="#DejaVuSans-68" transform="translate(713.671875 0)"/>
     </g>
    </g>
   </g>
   <g id="FillBetweenPolyCollection_1"/>
   <g id="FillBetweenPolyCollection_2"/>
   <g id="line2d_14">
    <path d="M 72.437727 269.2757 
L 73.030799 266.084307 
L 73.42618 264.780615 
L 73.623871 264.460063 
L 73.821561 264.384802 
L 74.019252 264.565036 
L 74.414633 265.698194 
L 74.810014 267.802686 
L 75.403086 272.404745 
L 77.182301 287.659035 
L 77.577682 289.585014 
L 77.973064 290.645484 
L 78.170754 290.852319 
L 78.368445 290.855455 
L 78.566135 290.670003 
L 78.961516 289.813597 
L 79.554588 287.683501 
L 80.938422 282.180768 
L 81.729185 280.082604 
L 82.717637 277.698231 
L 83.113019 276.230958 
L 83.70609 272.843902 
L 84.299162 267.601379 
L 84.892234 260.364695 
L 85.880687 244.978869 
L 87.06683 226.610893 
L 87.659902 220.31836 
L 88.055283 217.899153 
L 88.252974 217.290818 
L 88.450664 217.096876 
L 88.648355 217.317616 
L 88.846045 217.945317 
L 89.241427 220.351897 
L 89.834498 226.39579 
L 90.822951 240.079473 
L 91.811404 252.92134 
L 92.404476 258.042766 
L 92.799857 259.966842 
L 92.997548 260.456355 
L 93.195238 260.634151 
L 93.392929 260.510368 
L 93.590619 260.100997 
L 93.986 258.516548 
L 94.579072 254.688248 
L 95.962906 244.481602 
L 96.358287 242.645244 
L 96.753669 241.708908 
L 96.951359 241.61062 
L 97.14905 241.763684 
L 97.544431 242.801373 
L 97.939812 244.721786 
L 98.532884 248.862219 
L 100.50979 264.324578 
L 101.102861 267.129568 
L 101.498242 268.264394 
L 101.893624 268.80396 
L 102.091314 268.85424 
L 102.289005 268.761081 
L 102.684386 268.153033 
L 103.079767 266.993768 
L 103.672839 264.235225 
L 104.265911 260.2557 
L 105.056673 253.099517 
L 106.045126 241.733034 
L 107.62665 223.427643 
L 108.219722 219.174157 
L 108.615103 217.806843 
L 108.812794 217.628413 
L 109.010484 217.803332 
L 109.208175 218.336308 
L 109.603556 220.462679 
L 109.998937 223.915578 
L 110.592009 231.15175 
L 111.975843 252.488094 
L 112.964296 265.957596 
L 113.557368 271.818695 
L 114.15044 275.769871 
L 114.545821 277.395617 
L 114.941202 278.303555 
L 115.336583 278.58735 
L 115.534274 278.524317 
L 115.929655 278.039952 
L 116.325036 277.132147 
L 116.918108 275.070221 
L 117.511179 272.229011 
L 118.301942 267.300385 
L 119.488085 258.088294 
L 120.871919 247.572223 
L 121.662682 243.413678 
L 122.255753 241.522858 
L 122.848825 240.527982 
L 123.639587 239.88369 
L 124.034969 239.495709 
L 124.43035 238.859486 
L 124.825731 237.863047 
L 125.418803 235.582707 
L 126.209565 231.254396 
L 127.79109 221.91731 
L 128.384161 219.575988 
L 128.977233 218.197622 
L 129.372614 217.762895 
L 129.767995 217.626876 
L 130.361067 217.769174 
L 131.547211 218.222477 
L 132.140282 218.210135 
L 133.721807 217.921355 
L 134.117188 218.085299 
L 134.512569 218.455561 
L 134.90795 219.071693 
L 135.501022 220.507363 
L 136.094094 222.567892 
L 136.884856 226.172895 
L 139.454834 239.20034 
L 140.047905 240.825941 
L 140.443287 241.330687 
L 140.640977 241.394089 
L 140.838668 241.328816 
L 141.234049 240.816263 
L 141.62943 239.82262 
L 142.222502 237.579661 
L 144.397098 227.947139 
L 144.792479 227.130505 
L 145.187861 226.850289 
L 145.385551 226.921981 
L 145.780932 227.487233 
L 146.176313 228.581421 
L 146.769385 231.03779 
L 148.943982 241.424867 
L 149.339363 242.357694 
L 149.734744 242.780906 
L 149.932434 242.796965 
L 150.327816 242.449179 
L 150.723197 241.632961 
L 151.316269 239.683763 
L 152.304721 235.260262 
L 153.688555 229.002277 
L 154.479318 226.38215 
L 155.07239 225.08239 
L 155.467771 224.554411 
L 155.863152 224.300925 
L 156.258533 224.32151 
L 156.653914 224.613488 
L 157.049295 225.17135 
L 157.642367 226.482814 
L 158.433129 229.000503 
L 160.805416 237.548883 
L 161.200798 238.232269 
L 161.596179 238.484693 
L 161.793869 238.434503 
L 162.18925 237.967085 
L 162.584632 237.013234 
L 163.177703 234.743216 
L 163.968466 230.515661 
L 165.945371 219.263543 
L 166.538443 217.223115 
L 166.933824 216.440797 
L 167.329205 216.142343 
L 167.526896 216.171142 
L 167.922277 216.564211 
L 168.317658 217.363418 
L 168.91073 219.192679 
L 169.701492 222.482455 
L 171.283017 230.381469 
L 172.27147 234.918144 
L 172.864542 236.838233 
L 173.259923 237.566314 
L 173.457613 237.726215 
L 173.655304 237.734714 
L 173.852995 237.581868 
L 174.248376 236.760196 
L 174.643757 235.215608 
L 175.236829 231.524252 
L 175.8299 226.293658 
L 176.818353 215.053965 
L 178.399878 196.54619 
L 178.99295 191.724393 
L 179.388331 189.628294 
L 179.783712 188.532943 
L 179.981403 188.368718 
L 180.179093 188.455926 
L 180.376784 188.786188 
L 180.772165 190.123209 
L 181.365237 193.539454 
L 182.35369 201.410484 
L 183.539833 210.831819 
L 184.330595 215.485682 
L 184.923667 217.807331 
L 185.319048 218.775083 
L 185.714429 219.279045 
L 186.109811 219.321475 
L 186.505192 218.904807 
L 186.900573 218.033953 
L 187.493645 215.906834 
L 188.284407 211.732133 
L 190.656694 197.680935 
L 191.052075 196.589975 
L 191.447456 196.149783 
L 191.645147 196.179651 
L 192.040528 196.718948 
L 192.435909 197.830305 
L 193.028981 200.298097 
L 195.005887 209.398523 
L 195.598958 211.03932 
L 196.19203 212.077969 
L 196.785102 212.707443 
L 198.168936 213.696469 
L 198.959698 214.081923 
L 199.355079 214.051034 
L 199.750461 213.745125 
L 200.145842 213.07134 
L 200.541223 211.958299 
L 201.134295 209.402529 
L 201.925057 204.555381 
L 203.506582 194.170397 
L 204.099653 191.958123 
L 204.495034 191.368361 
L 204.692725 191.352264 
L 204.890416 191.51676 
L 205.285797 192.343583 
L 205.878869 194.558118 
L 207.460393 201.468943 
L 207.855774 202.463869 
L 208.251155 202.984527 
L 208.646537 203.046843 
L 209.041918 202.717303 
L 209.63499 201.710049 
L 211.809586 197.328506 
L 213.19342 194.88995 
L 214.181873 192.563666 
L 216.75185 186.075605 
L 218.135684 182.747819 
L 220.11259 177.48822 
L 220.507971 177.014411 
L 220.705662 176.938061 
L 220.903353 176.983301 
L 221.298734 177.467724 
L 221.694115 178.496177 
L 222.287187 180.993403 
L 223.077949 185.593841 
L 224.461783 193.777325 
L 225.054855 196.160432 
L 225.647926 197.591292 
L 226.043308 198.068753 
L 226.438689 198.259593 
L 227.031761 198.250874 
L 227.624832 198.236953 
L 228.020213 198.390572 
L 228.415595 198.750026 
L 229.008666 199.717648 
L 229.799429 201.661778 
L 231.578644 206.345799 
L 232.567097 208.140329 
L 233.950931 210.495127 
L 234.741693 212.348008 
L 236.91629 218.141809 
L 237.311671 218.651665 
L 237.707052 218.814384 
L 238.102433 218.6052 
L 238.497814 218.035612 
L 239.090886 216.615753 
L 240.277029 212.787045 
L 241.265482 209.850691 
L 243.637769 203.534157 
L 244.428532 200.16844 
L 245.614675 193.775603 
L 246.603128 188.651445 
L 247.1962 186.485702 
L 247.591581 185.654392 
L 247.986962 185.407745 
L 248.184653 185.518337 
L 248.580034 186.213077 
L 248.975415 187.511325 
L 249.568487 190.407425 
L 251.743083 202.738203 
L 252.336155 204.355251 
L 252.731536 204.822284 
L 253.126917 204.871363 
L 253.522298 204.606726 
L 254.313061 203.62078 
L 255.103823 202.693428 
L 255.894585 202.142834 
L 256.883038 201.533107 
L 257.47611 200.783673 
L 258.069182 199.51691 
L 258.662253 197.683296 
L 259.453016 194.489203 
L 260.83685 187.704325 
L 262.022993 180.981156 
L 263.011446 174.107717 
L 263.999899 165.591507 
L 266.372186 144.093873 
L 266.965258 141.048846 
L 267.360639 140.044376 
L 267.558329 139.887385 
L 267.75602 139.972554 
L 267.95371 140.306041 
L 268.349092 141.730076 
L 268.744473 144.156422 
L 269.337545 149.552355 
L 270.128307 159.371285 
L 272.302903 188.761192 
L 272.895975 194.038015 
L 273.489047 197.438583 
L 273.884428 198.727212 
L 274.279809 199.368062 
L 274.67519 199.531781 
L 275.268262 199.328554 
L 275.663643 199.204529 
L 276.059024 199.319799 
L 276.454405 199.832516 
L 276.849787 200.849248 
L 277.442858 203.400202 
L 278.233621 208.44848 
L 279.815145 219.61877 
L 280.408217 222.214288 
L 280.803598 223.04384 
L 281.001289 223.157686 
L 281.198979 223.065117 
L 281.39667 222.766193 
L 281.792051 221.567209 
L 282.385123 218.422477 
L 283.175885 212.470465 
L 284.559719 201.858302 
L 285.152791 199.170218 
L 285.548172 198.441736 
L 285.745863 198.433269 
L 285.943553 198.668191 
L 286.338934 199.857274 
L 286.734316 201.93519 
L 287.327387 206.355081 
L 288.908912 219.062619 
L 289.304293 220.689749 
L 289.501984 221.076204 
L 289.699674 221.147613 
L 289.897365 220.888909 
L 290.292746 219.354501 
L 290.688127 216.489244 
L 291.281199 209.998244 
L 292.269652 195.580008 
L 293.258105 181.436874 
L 293.851176 175.27495 
L 294.246558 172.634757 
L 294.641939 171.309401 
L 294.839629 171.149669 
L 295.03732 171.319363 
L 295.23501 171.807375 
L 295.630392 173.669091 
L 296.223463 178.303693 
L 297.211916 188.751877 
L 298.200369 198.746169 
L 298.793441 203.015789 
L 299.188822 204.874384 
L 299.584203 205.908368 
L 299.781894 206.126248 
L 299.979584 206.156713 
L 300.177275 206.012156 
L 300.572656 205.257866 
L 301.165728 203.222783 
L 302.351871 197.712636 
L 303.142634 194.456445 
L 303.735705 192.922218 
L 304.131087 192.525966 
L 304.328777 192.546506 
L 304.526468 192.722204 
L 304.921849 193.551688 
L 305.31723 195.007462 
L 305.910302 198.207187 
L 307.887208 210.5521 
L 308.282589 211.836136 
L 308.67797 212.441073 
L 308.87566 212.492087 
L 309.073351 212.3869 
L 309.468732 211.767966 
L 310.061804 210.12743 
L 311.050257 207.119691 
L 311.445638 206.345335 
L 311.841019 205.999139 
L 312.03871 206.003402 
L 312.434091 206.368347 
L 312.829472 207.171785 
L 313.422544 209.009541 
L 315.201759 215.214991 
L 315.794831 216.313674 
L 316.190212 216.620057 
L 316.585593 216.597834 
L 316.980974 216.290941 
L 317.574046 215.450313 
L 318.95788 213.271467 
L 319.353261 212.964162 
L 319.748642 212.892135 
L 320.144024 213.062573 
L 320.737095 213.710816 
L 322.120929 215.688379 
L 322.51631 215.86037 
L 322.714001 215.800778 
L 323.109382 215.316894 
L 323.504763 214.266441 
L 323.900145 212.584029 
L 324.493216 208.84526 
L 325.283979 201.910225 
L 327.063194 184.783627 
L 327.656266 181.260862 
L 328.051647 180.040728 
L 328.249337 179.79818 
L 328.447028 179.803271 
L 328.644718 180.052548 
L 329.0401 181.249982 
L 329.435481 183.289347 
L 330.028552 187.607255 
L 331.017005 196.772676 
L 332.993911 215.352384 
L 334.180055 224.291262 
L 334.970817 228.959966 
L 335.563889 231.598163 
L 336.15696 233.324905 
L 336.552342 233.891272 
L 336.750032 233.983683 
L 336.947723 233.943713 
L 337.343104 233.457138 
L 337.738485 232.425641 
L 338.331557 229.905615 
L 339.122319 225.06688 
L 340.901534 213.166411 
L 341.494606 210.984165 
L 341.889987 210.487368 
L 342.087678 210.559821 
L 342.285368 210.851982 
L 342.68075 212.085781 
L 343.076131 214.121467 
L 343.669202 218.344641 
L 345.053037 229.174539 
L 345.448418 231.137868 
L 345.843799 232.056085 
L 346.041489 232.048591 
L 346.23918 231.697733 
L 346.634561 229.895331 
L 347.029942 226.55584 
L 347.623014 218.659385 
L 348.216086 207.594666 
L 349.204539 184.096282 
L 350.983754 140.563107 
L 351.774516 127.370101 
L 352.367588 121.664913 
L 352.762969 120.031445 
L 352.96066 119.866951 
L 353.15835 120.128358 
L 353.356041 120.804464 
L 353.751422 123.339887 
L 354.344494 129.797591 
L 355.135256 142.24625 
L 357.705234 186.899126 
L 358.298305 193.127044 
L 358.891377 197.308926 
L 359.484449 199.940032 
L 360.275211 202.244764 
L 361.263664 205.189401 
L 363.43826 212.784005 
L 363.833642 213.184902 
L 364.031332 213.162858 
L 364.229023 212.985096 
L 364.624404 212.166819 
L 365.217476 209.919079 
L 367.194381 200.875883 
L 367.589763 200.364753 
L 367.787453 200.395853 
L 367.985144 200.625192 
L 368.380525 201.670758 
L 368.775906 203.439023 
L 369.368978 207.147116 
L 371.148193 219.324519 
L 371.543574 220.89805 
L 371.938955 221.729406 
L 372.136646 221.84552 
L 372.334337 221.757761 
L 372.729718 220.98014 
L 373.125099 219.452106 
L 373.718171 216.01382 
L 375.497386 204.035754 
L 375.892767 202.662356 
L 376.090458 202.327282 
L 376.288148 202.252876 
L 376.485839 202.452562 
L 376.88122 203.698915 
L 377.276601 206.052637 
L 377.869673 211.375103 
L 380.044269 233.948267 
L 380.43965 235.630798 
L 380.637341 235.976556 
L 380.835031 235.978705 
L 381.032722 235.635802 
L 381.428103 233.942522 
L 381.823484 231.014858 
L 382.416556 224.78441 
L 384.591152 199.391326 
L 384.986534 197.013662 
L 385.381915 195.811346 
L 385.579605 195.660122 
L 385.777296 195.801845 
L 385.974987 196.223985 
L 386.370368 197.832056 
L 386.963439 201.737523 
L 388.544964 213.721379 
L 388.940345 215.394342 
L 389.335726 216.072118 
L 389.533417 216.004252 
L 389.731108 215.659415 
L 390.126489 214.158572 
L 390.52187 211.668738 
L 391.114942 206.508091 
L 392.696466 191.336034 
L 393.289538 187.951781 
L 393.684919 186.90968 
L 393.88261 186.761786 
L 394.0803 186.84953 
L 394.475681 187.64899 
L 395.068753 189.92921 
L 395.859516 193.188542 
L 396.254897 194.073515 
L 396.452587 194.184284 
L 396.650278 194.031813 
L 396.847968 193.593395 
L 397.24335 191.809147 
L 397.638731 188.821695 
L 398.231802 182.418987 
L 400.011018 161.21417 
L 400.406399 159.093014 
L 400.604089 158.692839 
L 400.80178 158.773803 
L 400.999471 159.354892 
L 401.394852 162.042716 
L 401.790233 166.702672 
L 402.383305 176.877019 
L 403.569448 203.29996 
L 404.557901 223.020358 
L 405.150973 230.80607 
L 405.546354 233.892172 
L 405.941735 235.316613 
L 406.139426 235.453622 
L 406.337116 235.246553 
L 406.732497 233.949026 
L 407.325569 230.426274 
L 409.104784 218.29827 
L 409.697856 215.85602 
L 410.290928 214.381593 
L 410.884 213.61095 
L 411.477071 213.249591 
L 412.267834 213.093365 
L 412.860905 213.215161 
L 413.256287 213.484742 
L 413.651668 213.972312 
L 414.047049 214.731721 
L 414.640121 216.459088 
L 415.233192 218.916289 
L 416.023955 223.189432 
L 417.210098 230.984382 
L 418.989313 242.686231 
L 419.582385 245.246335 
L 419.977766 246.07947 
L 420.175457 246.15167 
L 420.373147 245.957306 
L 420.570838 245.469943 
L 420.966219 243.521988 
L 421.3616 240.155937 
L 421.954672 232.320281 
L 422.745434 217.209048 
L 424.52465 179.243361 
L 424.920031 174.256996 
L 425.315412 171.874624 
L 425.513102 171.796123 
L 425.710793 172.505912 
L 426.106174 176.333696 
L 426.501555 183.261966 
L 427.094627 198.49358 
L 428.676152 244.313763 
L 429.071533 249.929519 
L 429.269223 250.953407 
L 429.466914 250.60806 
L 429.664605 248.782909 
L 430.059986 240.37002 
L 430.455367 225.341736 
L 431.048439 190.763881 
L 431.839201 126.74613 
L 431.839201 126.74613 
" clip-path="url(#pf1573969bc)" style="fill: none; stroke: #1f77b4; stroke-width: 1.2; stroke-linecap: round"/>
   </g>
   <g id="line2d_15">
    <path d="M 72.437727 115.302713 
L 73.623871 185.95052 
L 74.414633 219.172697 
L 75.007705 235.093746 
L 75.600777 244.189483 
L 75.996158 247.370669 
L 76.391539 249.039334 
L 76.78692 249.886662 
L 77.379992 250.931989 
L 77.775373 252.12087 
L 78.170754 253.982895 
L 78.763826 258.054901 
L 80.34535 270.358393 
L 80.740732 271.729801 
L 80.938422 271.918427 
L 81.136113 271.737073 
L 81.333803 271.166292 
L 81.729185 268.820316 
L 82.124566 264.894272 
L 82.717637 256.400771 
L 83.70609 237.991255 
L 84.892234 216.739055 
L 85.485306 209.090446 
L 86.078377 204.015869 
L 86.473758 201.964117 
L 86.86914 200.798596 
L 87.264521 200.333484 
L 87.462211 200.309162 
L 87.857592 200.593834 
L 88.252974 201.263603 
L 88.648355 202.318071 
L 89.043736 203.833083 
L 89.636808 207.264529 
L 90.229879 212.534833 
L 90.822951 219.975467 
L 91.613713 233.093219 
L 93.78831 272.571819 
L 94.381382 278.843356 
L 94.776763 281.066962 
L 94.974453 281.555329 
L 95.172144 281.62713 
L 95.369835 281.289883 
L 95.765216 279.450214 
L 96.160597 276.219746 
L 96.753669 269.372168 
L 98.730574 243.998318 
L 99.323646 239.960728 
L 99.719027 238.754488 
L 99.916718 238.586695 
L 100.114408 238.687651 
L 100.50979 239.591213 
L 101.102861 242.16103 
L 102.091314 246.642563 
L 102.486695 247.390255 
L 102.684386 247.374074 
L 102.882077 247.057225 
L 103.277458 245.441033 
L 103.672839 242.45954 
L 104.265911 235.575879 
L 105.254363 219.825589 
L 106.242816 204.438465 
L 106.835888 198.352772 
L 107.231269 196.31525 
L 107.42896 195.964968 
L 107.62665 196.065326 
L 107.824341 196.607257 
L 108.219722 198.929443 
L 108.812794 204.94602 
L 110.592009 226.555499 
L 110.98739 228.907921 
L 111.185081 229.459798 
L 111.382771 229.561022 
L 111.580462 229.196741 
L 111.975843 227.057755 
L 112.371224 223.105639 
L 112.964296 214.252116 
L 113.952749 194.834854 
L 114.941202 175.90451 
L 115.534274 167.504149 
L 116.127345 162.342697 
L 116.522727 160.80054 
L 116.720417 160.573326 
L 116.918108 160.682519 
L 117.115798 161.101886 
L 117.511179 162.745347 
L 118.104251 166.678725 
L 119.883466 180.054714 
L 120.476538 182.893033 
L 121.06961 184.753309 
L 122.453444 188.284686 
L 122.848825 190.078523 
L 123.441897 194.196953 
L 124.034969 200.374202 
L 124.825731 211.778438 
L 127.000327 247.109791 
L 127.395708 250.52348 
L 127.79109 251.987891 
L 127.98878 251.902655 
L 128.186471 251.242759 
L 128.581852 248.168268 
L 128.977233 242.810912 
L 129.570305 231.03696 
L 130.756448 200.359959 
L 131.547211 182.190148 
L 132.140282 173.712975 
L 132.535663 171.414945 
L 132.733354 171.358475 
L 132.931045 172.034663 
L 133.326426 175.507993 
L 133.721807 181.539624 
L 134.314879 194.257255 
L 136.094094 236.858553 
L 136.687166 245.30744 
L 137.082547 248.171639 
L 137.280237 248.731371 
L 137.477928 248.713402 
L 137.675619 248.131627 
L 138.071 245.371069 
L 138.466381 240.704251 
L 139.059453 230.887323 
L 140.443287 201.980157 
L 141.43174 183.483975 
L 142.024811 175.503812 
L 142.617883 170.583184 
L 143.013264 169.115871 
L 143.210955 168.92118 
L 143.408645 169.072485 
L 143.606336 169.553746 
L 144.001717 171.418147 
L 144.594789 176.023626 
L 146.571695 193.999576 
L 146.967076 195.711595 
L 147.164766 196.159324 
L 147.362457 196.326044 
L 147.560148 196.213951 
L 147.757838 195.832367 
L 148.153219 194.332551 
L 148.746291 190.67283 
L 150.130125 181.318991 
L 150.525506 179.986144 
L 150.723197 179.712085 
L 150.920887 179.725036 
L 151.118578 180.035849 
L 151.513959 181.561176 
L 151.90934 184.244682 
L 152.502412 190.124633 
L 153.490865 202.893956 
L 154.677008 217.738073 
L 155.27008 222.969156 
L 155.665461 225.205348 
L 156.060842 226.28637 
L 156.258533 226.364488 
L 156.456224 226.12394 
L 156.851605 224.672636 
L 157.246986 221.935754 
L 157.840058 215.566306 
L 158.63082 203.656897 
L 160.607726 170.712057 
L 161.200798 164.279486 
L 161.596179 161.540245 
L 161.99156 160.074804 
L 162.18925 159.798307 
L 162.386941 159.803198 
L 162.584632 160.066183 
L 162.980013 161.252974 
L 163.573084 164.186071 
L 164.956919 171.562427 
L 165.3523 172.805424 
L 165.747681 173.450057 
L 165.945371 173.545344 
L 166.143062 173.496306 
L 166.538443 173.007501 
L 167.131515 171.520306 
L 169.503802 164.187786 
L 172.666851 156.856612 
L 173.655304 154.303367 
L 174.248376 153.302035 
L 174.643757 153.052349 
L 174.841448 153.086525 
L 175.236829 153.516245 
L 175.63221 154.459883 
L 176.225282 156.818385 
L 177.016044 161.277723 
L 178.202187 168.106658 
L 178.795259 170.290042 
L 179.19064 171.046696 
L 179.586021 171.243527 
L 179.981403 170.950884 
L 180.376784 170.28325 
L 181.167546 168.353457 
L 182.55138 164.96641 
L 183.935214 161.639388 
L 185.516739 157.387744 
L 185.91212 156.928186 
L 186.109811 156.905467 
L 186.307501 157.046936 
L 186.702882 157.880626 
L 187.098263 159.497022 
L 187.691335 163.306941 
L 189.865932 180.025239 
L 190.261313 181.201534 
L 190.459003 181.448024 
L 190.656694 181.478552 
L 190.854384 181.31183 
L 191.249766 180.495978 
L 192.6336 176.585962 
L 192.83129 176.418687 
L 193.028981 176.442314 
L 193.226671 176.673122 
L 193.622053 177.783597 
L 194.017434 179.728379 
L 194.610505 183.886333 
L 196.19203 195.880407 
L 196.587411 197.608243 
L 196.982792 198.462879 
L 197.180483 198.542903 
L 197.378174 198.38988 
L 197.773555 197.403336 
L 198.168936 195.570183 
L 198.762008 191.457446 
L 199.55277 184.027189 
L 200.738913 170.238112 
L 203.308891 139.117321 
L 203.901963 135.012129 
L 204.297344 133.767835 
L 204.495034 133.666385 
L 204.692725 133.933589 
L 205.088106 135.599783 
L 205.483487 138.741503 
L 206.076559 145.8419 
L 208.251155 175.63802 
L 208.646537 177.702411 
L 208.844227 178.066046 
L 209.041918 177.972201 
L 209.239608 177.424699 
L 209.63499 175.032981 
L 210.228061 168.675139 
L 211.216514 153.94371 
L 212.204967 140.197338 
L 212.798039 134.852938 
L 213.19342 132.896086 
L 213.391111 132.405357 
L 213.588801 132.223167 
L 213.786492 132.327239 
L 214.181873 133.269126 
L 214.774945 135.890018 
L 215.565707 139.490559 
L 215.961088 140.376511 
L 216.158779 140.42646 
L 216.356469 140.166718 
L 216.75185 138.623959 
L 217.147232 135.656534 
L 217.740303 128.74793 
L 219.717209 101.224952 
L 220.11259 99.174916 
L 220.310281 99.0036 
L 220.507971 99.452338 
L 220.705662 100.544672 
L 221.101043 104.69108 
L 221.496424 111.375585 
L 222.089496 125.52561 
L 223.27564 161.982577 
L 224.264092 189.838925 
L 224.857164 201.169751 
L 225.252545 205.654482 
L 225.647926 207.479232 
L 225.845617 207.387011 
L 226.043308 206.639572 
L 226.438689 203.273506 
L 226.83407 197.646249 
L 227.427142 185.805924 
L 229.997119 127.289653 
L 230.3925 122.68402 
L 230.787882 120.088944 
L 230.985572 119.5493 
L 231.183263 119.49805 
L 231.380953 119.91081 
L 231.776334 121.986497 
L 232.369406 127.490969 
L 233.950931 144.112142 
L 234.346312 146.068577 
L 234.544003 146.485169 
L 234.741693 146.505955 
L 234.939384 146.127348 
L 235.334765 144.205677 
L 235.730146 140.874155 
L 236.323218 133.844025 
L 238.497814 104.80922 
L 239.090886 99.754532 
L 239.683958 96.565939 
L 240.079339 95.469285 
L 240.277029 95.220503 
L 240.47472 95.166033 
L 240.672411 95.30142 
L 241.067792 96.122527 
L 241.463173 97.642134 
L 242.056245 101.123228 
L 242.847007 107.67719 
L 244.03315 120.186309 
L 245.416984 134.775185 
L 246.010056 139.428137 
L 246.603128 142.367025 
L 246.998509 143.214836 
L 247.1962 143.293441 
L 247.39389 143.146184 
L 247.789271 142.211613 
L 248.184653 140.521348 
L 248.777724 136.907383 
L 249.963868 127.67858 
L 251.150011 116.979833 
L 251.940774 107.931454 
L 252.731536 96.270609 
L 254.11537 71.190131 
L 254.906132 58.47808 
L 255.499204 52.528443 
L 255.894585 51.091306 
L 256.092276 51.256968 
L 256.289966 52.049834 
L 256.685347 55.575093 
L 257.080729 61.683348 
L 257.6738 75.327039 
L 258.464563 99.944918 
L 260.441468 165.089621 
L 261.03454 177.753603 
L 261.429921 183.321259 
L 261.825303 186.540925 
L 262.022993 187.306559 
L 262.220684 187.54642 
L 262.418374 187.297756 
L 262.813755 185.513795 
L 263.209137 182.354395 
L 263.999899 173.649633 
L 265.186042 160.317242 
L 265.976805 153.947145 
L 266.569876 150.792273 
L 267.162948 148.753478 
L 267.75602 147.442789 
L 268.744473 145.947897 
L 270.523688 143.706867 
L 272.302903 141.746168 
L 272.895975 140.423169 
L 273.489047 138.260921 
L 274.082118 135.105614 
L 275.070571 128.154807 
L 276.059024 121.582865 
L 276.454405 119.965788 
L 276.849787 119.303554 
L 277.047477 119.389931 
L 277.245168 119.776814 
L 277.640549 121.485458 
L 278.03593 124.437816 
L 278.629002 130.99398 
L 279.419764 142.678915 
L 281.198979 170.530393 
L 281.792051 177.096499 
L 282.385123 181.235848 
L 282.780504 182.498108 
L 282.978195 182.668989 
L 283.175885 182.536044 
L 283.373576 182.105742 
L 283.768957 180.395305 
L 284.362029 175.943664 
L 285.152791 167.42502 
L 287.129697 144.488682 
L 287.722768 140.198951 
L 288.11815 138.521952 
L 288.513531 137.881562 
L 288.711221 137.955667 
L 288.908912 138.286974 
L 289.304293 139.675671 
L 289.897365 143.271802 
L 291.67658 155.846233 
L 292.071961 156.732907 
L 292.269652 156.683378 
L 292.467342 156.276612 
L 292.862724 154.356775 
L 293.258105 150.999324 
L 293.851176 143.702068 
L 295.828082 116.347303 
L 296.421154 112.254691 
L 296.816535 110.9771 
L 297.211916 110.598863 
L 297.607297 110.748368 
L 298.002679 110.98214 
L 298.200369 110.988254 
L 298.39806 110.849496 
L 298.59575 110.519099 
L 298.991131 109.134335 
L 299.386513 106.630665 
L 299.979584 100.758631 
L 301.165728 84.829277 
L 301.7588 78.180729 
L 302.154181 75.575882 
L 302.351871 75.01192 
L 302.549562 75.005212 
L 302.747253 75.590786 
L 303.142634 78.616543 
L 303.538015 84.112238 
L 304.131087 96.519406 
L 305.119539 124.310567 
L 306.305683 156.565168 
L 306.898755 167.105308 
L 307.294136 171.002519 
L 307.491826 171.92375 
L 307.689517 172.146082 
L 307.887208 171.672908 
L 308.282589 168.708165 
L 308.67797 163.269389 
L 309.271042 151.363303 
L 311.643329 96.051687 
L 312.2364 89.305948 
L 312.631781 87.338623 
L 312.829472 87.085108 
L 313.027163 87.282504 
L 313.224853 87.892747 
L 313.620234 90.161034 
L 314.213306 95.313209 
L 315.201759 104.216347 
L 315.59714 106.446065 
L 315.992521 107.356946 
L 316.190212 107.25326 
L 316.387903 106.762892 
L 316.783284 104.646655 
L 317.376355 99.020536 
L 318.95788 80.895267 
L 319.353261 79.113367 
L 319.550952 79.069274 
L 319.748642 79.668197 
L 320.144024 82.953918 
L 320.539405 89.133452 
L 321.132476 103.508478 
L 322.120929 136.368962 
L 323.109382 167.53105 
L 323.504763 175.807299 
L 323.900145 180.397666 
L 324.097835 181.141897 
L 324.295526 180.803762 
L 324.493216 179.375024 
L 324.888597 173.327398 
L 325.283979 163.384284 
L 325.87705 142.792858 
L 327.656266 74.392956 
L 328.249337 61.101995 
L 328.644718 56.74092 
L 328.842409 55.950847 
L 329.0401 56.064066 
L 329.23779 57.042909 
L 329.633171 61.379482 
L 330.226243 72.747616 
L 331.214696 98.923374 
L 332.400839 129.720062 
L 333.191602 144.432048 
L 333.784674 151.577845 
L 334.377745 155.706405 
L 334.773126 157.110259 
L 335.168508 157.714913 
L 335.563889 157.760941 
L 335.95927 157.4632 
L 336.750032 156.456313 
L 337.738485 154.944767 
L 338.331557 153.501933 
L 338.726938 151.989213 
L 339.122319 149.821338 
L 339.715391 145.017802 
L 340.308463 138.180124 
L 341.296916 123.347331 
L 342.285368 108.77775 
L 342.87844 103.100787 
L 343.273821 101.436764 
L 343.471512 101.340603 
L 343.669202 101.758511 
L 344.064584 104.148431 
L 344.459965 108.53369 
L 345.053037 118.348239 
L 346.041489 140.218101 
L 347.623014 175.595859 
L 348.611467 192.339876 
L 349.995301 210.856121 
L 351.181445 227.521385 
L 352.96066 253.559067 
L 353.356041 257.199513 
L 353.751422 259.05346 
L 353.949113 259.166433 
L 354.146803 258.669784 
L 354.344494 257.522394 
L 354.739875 253.157852 
L 355.135256 245.948558 
L 355.728328 230.013089 
L 356.51909 201.172037 
L 358.298305 131.514719 
L 358.891377 116.0102 
L 359.286758 109.481546 
L 359.682139 106.257815 
L 359.87983 105.887372 
L 360.077521 106.318585 
L 360.275211 107.51575 
L 360.670592 112.00572 
L 361.263664 122.959742 
L 363.635951 174.442921 
L 364.031332 178.769904 
L 364.426713 181.301746 
L 364.822095 182.20829 
L 365.019785 182.145037 
L 365.217476 181.801519 
L 365.612857 180.496024 
L 366.799 175.869711 
L 366.996691 175.559461 
L 367.194381 175.490225 
L 367.392072 175.685899 
L 367.787453 176.921146 
L 368.182834 179.266731 
L 368.775906 184.498081 
L 370.15974 198.285385 
L 370.555121 200.617706 
L 370.752812 201.264523 
L 370.950502 201.519242 
L 371.148193 201.357968 
L 371.345884 200.765961 
L 371.741265 198.278232 
L 372.136646 194.127057 
L 372.729718 185.277923 
L 375.299695 141.792099 
L 375.695076 138.553902 
L 376.090458 136.792981 
L 376.288148 136.464043 
L 376.485839 136.492074 
L 376.683529 136.86428 
L 377.07891 138.575891 
L 377.474292 141.449691 
L 378.067363 147.579644 
L 378.858126 158.330428 
L 380.044269 177.96523 
L 382.614247 221.866158 
L 383.207318 228.437232 
L 383.6027 231.123664 
L 383.80039 231.860183 
L 383.998081 232.154109 
L 384.195771 231.981476 
L 384.393462 231.322964 
L 384.788843 228.498547 
L 385.184224 223.64488 
L 385.777296 212.757441 
L 386.568058 192.836425 
L 388.544964 138.912315 
L 389.138036 128.702623 
L 389.533417 124.612693 
L 389.928798 122.853839 
L 390.126489 122.848559 
L 390.324179 123.40959 
L 390.71956 126.135159 
L 391.114942 130.77051 
L 391.708013 140.499573 
L 393.88261 179.867929 
L 394.277991 183.471473 
L 394.673372 185.083381 
L 394.871063 185.09294 
L 395.068753 184.561236 
L 395.464134 181.89306 
L 395.859516 177.199834 
L 396.452587 166.938082 
L 397.638731 140.102151 
L 398.627184 119.894543 
L 399.220255 112.358829 
L 399.615637 110.043174 
L 399.813327 109.778594 
L 400.011018 110.1235 
L 400.208708 111.075586 
L 400.604089 114.739006 
L 401.197161 124.121545 
L 402.185614 146.135597 
L 403.174067 167.210481 
L 403.767139 175.06051 
L 404.16252 177.290417 
L 404.36021 177.417942 
L 404.557901 176.881856 
L 404.953282 173.892552 
L 405.348663 168.615795 
L 406.139426 153.403759 
L 407.127879 133.456772 
L 407.72095 125.653695 
L 408.116331 123.410711 
L 408.314022 123.292324 
L 408.511713 123.857204 
L 408.907094 126.981401 
L 409.302475 132.512727 
L 409.895547 144.164734 
L 411.279381 173.328113 
L 411.674762 178.372971 
L 412.070143 180.646094 
L 412.267834 180.594249 
L 412.465524 179.696993 
L 412.860905 175.292275 
L 413.256287 167.430976 
L 413.849358 149.726988 
L 414.640121 117.962654 
L 416.221645 51.457863 
L 416.814717 34.550811 
L 417.210098 27.474054 
L 417.605479 24.057072 
L 417.80317 23.724545 
L 418.00086 24.280841 
L 418.198551 25.687117 
L 418.593932 30.834013 
L 419.187004 43.341695 
L 420.175457 71.535752 
L 421.756981 117.142949 
L 424.920031 200.012306 
L 426.303865 239.73963 
L 426.896936 250.337472 
L 427.292318 253.141926 
L 427.490008 252.978509 
L 427.687699 251.669872 
L 428.08308 245.410841 
L 428.478461 234.15506 
L 429.071533 208.348409 
L 429.862295 161.222424 
L 431.246129 75.546289 
L 431.839201 52.667533 
L 432.234582 45.5865 
L 432.432273 44.724157 
L 432.432273 44.724157 
" clip-path="url(#pf1573969bc)" style="fill: none; stroke-dasharray: 4.8,1.8; stroke-dashoffset: 0; stroke: #ff7f0e; stroke-width: 1.2"/>
   </g>
   <g id="line2d_16"/>
   <g id="line2d_17"/>
   <g id="patch_3">
    <path d="M 54.438 304.212 
L 54.438 10.368 
" style="fill: none; stroke: #ffffff; stroke-linejoin: miter; stroke-linecap: square"/>
   </g>
   <g id="patch_4">
    <path d="M 450.432 304.212 
L 450.432 10.368 
" style="fill: none; stroke: #ffffff; stroke-linejoin: miter; stroke-linecap: square"/>
   </g>
   <g id="patch_5">
    <path d="M 54.438 304.212 
L 450.432 304.212 
" style="fill: none; stroke: #ffffff; stroke-linejoin: miter; stroke-linecap: square"/>
   </g>
   <g id="patch_6">
    <path d="M 54.438 10.368 
L 450.432 10.368 
" style="fill: none; stroke: #ffffff; stroke-linejoin: miter; stroke-linecap: square"/>
   </g>
   <g id="legend_1">
    <g id="patch_7">
     <path d="M 60.598 57.1995 
L 138.1565 57.1995 
Q 139.9165 57.1995 139.9165 55.4395 
L 139.9165 16.528 
Q 139.9165 14.768 138.1565 14.768 
L 60.598 14.768 
Q 58.838 14.768 58.838 16.528 
L 58.838 55.4395 
Q 58.838 57.1995 60.598 57.1995 
z
" style="fill: #e6e6e6; opacity: 0.8; stroke: #cccccc; stroke-width: 0.8; stroke-linejoin: miter"/>
    </g>
    <g id="text_16">
     <!-- nom_commune -->
     <g style="fill: #262626" transform="translate(62.358 25.5825) scale(0.096 -0.096)">
      <defs>
       <path id="DejaVuSans-63" d="M 3122 3366 
L 3122 2828 
Q 2878 2963 2633 3030 
Q 2388 3097 2138 3097 
Q 1578 3097 1268 2742 
Q 959 2388 959 1747 
Q 959 1106 1268 751 
Q 1578 397 2138 397 
Q 2388 397 2633 464 
Q 2878 531 3122 666 
L 3122 134 
Q 2881 22 2623 -34 
Q 2366 -91 2075 -91 
Q 1284 -91 818 406 
Q 353 903 353 1747 
Q 353 2603 823 3093 
Q 1294 3584 2113 3584 
Q 2378 3584 2631 3529 
Q 2884 3475 3122 3366 
z
" transform="scale(0.015625)"/>
      </defs>
      <use xlink:href="#DejaVuSans-6e"/>
      <use xlink:href="#DejaVuSans-6f" transform="translate(63.378906 0)"/>
      <use xlink:href="#DejaVuSans-6d" transform="translate(124.560547 0)"/>
      <use xlink:href="#DejaVuSans-5f" transform="translate(221.972656 0)"/>
      <use xlink:href="#DejaVuSans-63" transform="translate(271.972656 0)"/>
      <use xlink:href="#DejaVuSans-6f" transform="translate(326.953125 0)"/>
      <use xlink:href="#DejaVuSans-6d" transform="translate(388.134766 0)"/>
      <use xlink:href="#DejaVuSans-6d" transform="translate(485.546875 0)"/>
      <use xlink:href="#DejaVuSans-75" transform="translate(582.958984 0)"/>
      <use xlink:href="#DejaVuSans-6e" transform="translate(646.337891 0)"/>
      <use xlink:href="#DejaVuSans-65" transform="translate(709.716797 0)"/>
     </g>
    </g>
    <g id="line2d_18">
     <path d="M 71.738375 35.852625 
L 80.538375 35.852625 
L 89.338375 35.852625 
" style="fill: none; stroke: #1f77b4; stroke-width: 1.2; stroke-linecap: round"/>
    </g>
    <g id="text_17">
     <!-- Brest -->
     <g style="fill: #262626" transform="translate(96.378375 38.932625) scale(0.088 -0.088)">
      <defs>
       <path id="DejaVuSans-42" d="M 1259 2228 
L 1259 519 
L 2272 519 
Q 2781 519 3026 730 
Q 3272 941 3272 1375 
Q 3272 1813 3026 2020 
Q 2781 2228 2272 2228 
L 1259 2228 
z
M 1259 4147 
L 1259 2741 
L 2194 2741 
Q 2656 2741 2882 2914 
Q 3109 3088 3109 3444 
Q 3109 3797 2882 3972 
Q 2656 4147 2194 4147 
L 1259 4147 
z
M 628 4666 
L 2241 4666 
Q 2963 4666 3353 4366 
Q 3744 4066 3744 3513 
Q 3744 3084 3544 2831 
Q 3344 2578 2956 2516 
Q 3422 2416 3680 2098 
Q 3938 1781 3938 1306 
Q 3938 681 3513 340 
Q 3088 0 2303 0 
L 628 0 
L 628 4666 
z
" transform="scale(0.015625)"/>
      </defs>
      <use xlink:href="#DejaVuSans-42"/>
      <use xlink:href="#DejaVuSans-72" transform="translate(68.603516 0)"/>
      <use xlink:href="#DejaVuSans-65" transform="translate(107.466797 0)"/>
      <use xlink:href="#DejaVuSans-73" transform="translate(168.990234 0)"/>
      <use xlink:href="#DejaVuSans-74" transform="translate(221.089844 0)"/>
     </g>
    </g>
    <g id="line2d_19">
     <path d="M 71.738375 48.769375 
L 80.538375 48.769375 
L 89.338375 48.769375 
" style="fill: none; stroke-dasharray: 4.8,1.8; stroke-dashoffset: 0; stroke: #ff7f0e; stroke-width: 1.2"/>
    </g>
    <g id="text_18">
     <!-- Lorient -->
     <g style="fill: #262626" transform="translate(96.378375 51.849375) scale(0.088 -0.088)">
      <defs>
       <path id="DejaVuSans-4c" d="M 628 4666 
L 1259 4666 
L 1259 531 
L 3531 531 
L 3531 0 
L 628 0 
L 628 4666 
z
" transform="scale(0.015625)"/>
      </defs>
      <use xlink:href="#DejaVuSans-4c"/>
      <use xlink:href="#DejaVuSans-6f" transform="translate(53.962891 0)"/>
      <use xlink:href="#DejaVuSans-72" transform="translate(115.144531 0)"/>
      <use xlink:href="#DejaVuSans-69" transform="translate(156.257812 0)"/>
      <use xlink:href="#DejaVuSans-65" transform="translate(184.041016 0)"/>
      <use xlink:href="#DejaVuSans-6e" transform="translate(245.564453 0)"/>
      <use xlink:href="#DejaVuSans-74" transform="translate(308.943359 0)"/>
     </g>
    </g>
   </g>
  </g>
 </g>
 <defs>
  <clipPath id="pf1573969bc">
   <rect x="54.438" y="10.368" width="395.994" height="293.844"/>
  </clipPath>
 </defs>
</svg>
