<?xml version="1.0" encoding="utf-8" standalone="no"?>
<!DOCTYPE svg PUBLIC "-//W3C//DTD SVG 1.1//EN"
  "http://www.w3.org/Graphics/SVG/1.1/DTD/svg11.dtd">
<svg xmlns:xlink="http://www.w3.org/1999/xlink" width="927.425087pt" height="422.90402pt" viewBox="0 0 927.425087 422.90402" xmlns="http://www.w3.org/2000/svg" version="1.1">
 <metadata>
  <rdf:RDF xmlns:dc="http://purl.org/dc/elements/1.1/" xmlns:cc="http://creativecommons.org/ns#" xmlns:rdf="http://www.w3.org/1999/02/22-rdf-syntax-ns#">
   <cc:Work>
    <dc:type rdf:resource="http://purl.org/dc/dcmitype/StillImage"/>
    <dc:date>2026-04-04T16:16:31.421330</dc:date>
    <dc:format>image/svg+xml</dc:format>
    <dc:creator>
     <cc:Agent>
      <dc:title>Matplotlib v3.10.8, https://matplotlib.org/</dc:title>
     </cc:Agent>
    </dc:creator>
   </cc:Work>
  </rdf:RDF>
 </metadata>
 <defs>
  <style type="text/css">*{stroke-linejoin: round; stroke-linecap: butt}</style>
 </defs>
 <g id="figure_1">
  <g id="patch_1">
   <path d="M 0 422.90402 
L 927.425087 422.90402 
L 927.425087 0 
L 0 0 
z
" style="fill: #ffffff"/>
  </g>
  <g id="axes_1">
   <g id="patch_2">
    <path d="M 63.434688 355.222644 
L 920.225087 355.222644 
L 920.225087 24.397812 
L 63.434688 24.397812 
z
" style="fill: #f5f5f5"/>
   </g>
   <g id="matplotlib.axis_1">
    <g id="xtick_1">
     <g id="line2d_1">
      <path d="M 75.924849 355.222644 
L 75.924849 24.397812 
" clip-path="url(#pd378576315)" style="fill: none; stroke-dasharray: 2.96,1.28; stroke-dashoffset: 0; stroke: #cccccc; stroke-width: 0.8"/>
     </g>
     <g id="text_1">
      <!-- May 2020 -->
      <g style="fill: #262626" transform="translate(43.225028 399.734577) rotate(-45) scale(0.09 -0.09)">
       <defs>
        <path id="DejaVuSans-4d" d="M 628 4666 
L 1569 4666 
L 2759 1491 
L 3956 4666 
L 4897 4666 
L 4897 0 
L 4281 0 
L 4281 4097 
L 3078 897 
L 2444 897 
L 1241 4097 
L 1241 0 
L 628 0 
L 628 4666 
z
" transform="scale(0.015625)"/>
        <path id="DejaVuSans-61" d="M 2194 1759 
Q 1497 1759 1228 1600 
Q 959 1441 959 1056 
Q 959 750 1161 570 
Q 1363 391 1709 391 
Q 2188 391 2477 730 
Q 2766 1069 2766 1631 
L 2766 1759 
L 2194 1759 
z
M 3341 1997 
L 3341 0 
L 2766 0 
L 2766 531 
Q 2569 213 2275 61 
Q 1981 -91 1556 -91 
Q 1019 -91 701 211 
Q 384 513 384 1019 
Q 384 1609 779 1909 
Q 1175 2209 1959 2209 
L 2766 2209 
L 2766 2266 
Q 2766 2663 2505 2880 
Q 2244 3097 1772 3097 
Q 1472 3097 1187 3025 
Q 903 2953 641 2809 
L 641 3341 
Q 956 3463 1253 3523 
Q 1550 3584 1831 3584 
Q 2591 3584 2966 3190 
Q 3341 2797 3341 1997 
z
" transform="scale(0.015625)"/>
        <path id="DejaVuSans-79" d="M 2059 -325 
Q 1816 -950 1584 -1140 
Q 1353 -1331 966 -1331 
L 506 -1331 
L 506 -850 
L 844 -850 
Q 1081 -850 1212 -737 
Q 1344 -625 1503 -206 
L 1606 56 
L 191 3500 
L 800 3500 
L 1894 763 
L 2988 3500 
L 3597 3500 
L 2059 -325 
z
" transform="scale(0.015625)"/>
        <path id="DejaVuSans-20" transform="scale(0.015625)"/>
        <path id="DejaVuSans-32" d="M 1228 531 
L 3431 531 
L 3431 0 
L 469 0 
L 469 531 
Q 828 903 1448 1529 
Q 2069 2156 2228 2338 
Q 2531 2678 2651 2914 
Q 2772 3150 2772 3378 
Q 2772 3750 2511 3984 
Q 2250 4219 1831 4219 
Q 1534 4219 1204 4116 
Q 875 4013 500 3803 
L 500 4441 
Q 881 4594 1212 4672 
Q 1544 4750 1819 4750 
Q 2544 4750 2975 4387 
Q 3406 4025 3406 3419 
Q 3406 3131 3298 2873 
Q 3191 2616 2906 2266 
Q 2828 2175 2409 1742 
Q 1991 1309 1228 531 
z
" transform="scale(0.015625)"/>
        <path id="DejaVuSans-30" d="M 2034 4250 
Q 1547 4250 1301 3770 
Q 1056 3291 1056 2328 
Q 1056 1369 1301 889 
Q 1547 409 2034 409 
Q 2525 409 2770 889 
Q 3016 1369 3016 2328 
Q 3016 3291 2770 3770 
Q 2525 4250 2034 4250 
z
M 2034 4750 
Q 2819 4750 3233 4129 
Q 3647 3509 3647 2328 
Q 3647 1150 3233 529 
Q 2819 -91 2034 -91 
Q 1250 -91 836 529 
Q 422 1150 422 2328 
Q 422 3509 836 4129 
Q 1250 4750 2034 4750 
z
" transform="scale(0.015625)"/>
       </defs>
       <use xlink:href="#DejaVuSans-4d"/>
       <use xlink:href="#DejaVuSans-61" transform="translate(86.279297 0)"/>
       <use xlink:href="#DejaVuSans-79" transform="translate(147.558594 0)"/>
       <use xlink:href="#DejaVuSans-20" transform="translate(206.738281 0)"/>
       <use xlink:href="#DejaVuSans-32" transform="translate(238.525391 0)"/>
       <use xlink:href="#DejaVuSans-30" transform="translate(302.148438 0)"/>
       <use xlink:href="#DejaVuSans-32" transform="translate(365.771484 0)"/>
       <use xlink:href="#DejaVuSans-30" transform="translate(429.394531 0)"/>
      </g>
     </g>
    </g>
    <g id="xtick_2">
     <g id="line2d_2">
      <path d="M 115.823977 355.222644 
L 115.823977 24.397812 
" clip-path="url(#pd378576315)" style="fill: none; stroke-dasharray: 2.96,1.28; stroke-dashoffset: 0; stroke: #cccccc; stroke-width: 0.8"/>
     </g>
     <g id="text_2">
      <!-- Aug 2020 -->
      <g style="fill: #262626" transform="translate(83.855017 399.003716) rotate(-45) scale(0.09 -0.09)">
       <defs>
        <path id="DejaVuSans-41" d="M 2188 4044 
L 1331 1722 
L 3047 1722 
L 2188 4044 
z
M 1831 4666 
L 2547 4666 
L 4325 0 
L 3669 0 
L 3244 1197 
L 1141 1197 
L 716 0 
L 50 0 
L 1831 4666 
z
" transform="scale(0.015625)"/>
        <path id="DejaVuSans-75" d="M 544 1381 
L 544 3500 
L 1119 3500 
L 1119 1403 
Q 1119 906 1312 657 
Q 1506 409 1894 409 
Q 2359 409 2629 706 
Q 2900 1003 2900 1516 
L 2900 3500 
L 3475 3500 
L 3475 0 
L 2900 0 
L 2900 538 
Q 2691 219 2414 64 
Q 2138 -91 1772 -91 
Q 1169 -91 856 284 
Q 544 659 544 1381 
z
M 1991 3584 
L 1991 3584 
z
" transform="scale(0.015625)"/>
        <path id="DejaVuSans-67" d="M 2906 1791 
Q 2906 2416 2648 2759 
Q 2391 3103 1925 3103 
Q 1463 3103 1205 2759 
Q 947 2416 947 1791 
Q 947 1169 1205 825 
Q 1463 481 1925 481 
Q 2391 481 2648 825 
Q 2906 1169 2906 1791 
z
M 3481 434 
Q 3481 -459 3084 -895 
Q 2688 -1331 1869 -1331 
Q 1566 -1331 1297 -1286 
Q 1028 -1241 775 -1147 
L 775 -588 
Q 1028 -725 1275 -790 
Q 1522 -856 1778 -856 
Q 2344 -856 2625 -561 
Q 2906 -266 2906 331 
L 2906 616 
Q 2728 306 2450 153 
Q 2172 0 1784 0 
Q 1141 0 747 490 
Q 353 981 353 1791 
Q 353 2603 747 3093 
Q 1141 3584 1784 3584 
Q 2172 3584 2450 3431 
Q 2728 3278 2906 2969 
L 2906 3500 
L 3481 3500 
L 3481 434 
z
" transform="scale(0.015625)"/>
       </defs>
       <use xlink:href="#DejaVuSans-41"/>
       <use xlink:href="#DejaVuSans-75" transform="translate(68.408203 0)"/>
       <use xlink:href="#DejaVuSans-67" transform="translate(131.787109 0)"/>
       <use xlink:href="#DejaVuSans-20" transform="translate(195.263672 0)"/>
       <use xlink:href="#DejaVuSans-32" transform="translate(227.050781 0)"/>
       <use xlink:href="#DejaVuSans-30" transform="translate(290.673828 0)"/>
       <use xlink:href="#DejaVuSans-32" transform="translate(354.296875 0)"/>
       <use xlink:href="#DejaVuSans-30" transform="translate(417.919922 0)"/>
      </g>
     </g>
    </g>
    <g id="xtick_3">
     <g id="line2d_3">
      <path d="M 155.723105 355.222644 
L 155.723105 24.397812 
" clip-path="url(#pd378576315)" style="fill: none; stroke-dasharray: 2.96,1.28; stroke-dashoffset: 0; stroke: #cccccc; stroke-width: 0.8"/>
     </g>
     <g id="text_3">
      <!-- Nov 2020 -->
      <g style="fill: #262626" transform="translate(123.759116 398.998744) rotate(-45) scale(0.09 -0.09)">
       <defs>
        <path id="DejaVuSans-4e" d="M 628 4666 
L 1478 4666 
L 3547 763 
L 3547 4666 
L 4159 4666 
L 4159 0 
L 3309 0 
L 1241 3903 
L 1241 0 
L 628 0 
L 628 4666 
z
" transform="scale(0.015625)"/>
        <path id="DejaVuSans-6f" d="M 1959 3097 
Q 1497 3097 1228 2736 
Q 959 2375 959 1747 
Q 959 1119 1226 758 
Q 1494 397 1959 397 
Q 2419 397 2687 759 
Q 2956 1122 2956 1747 
Q 2956 2369 2687 2733 
Q 2419 3097 1959 3097 
z
M 1959 3584 
Q 2709 3584 3137 3096 
Q 3566 2609 3566 1747 
Q 3566 888 3137 398 
Q 2709 -91 1959 -91 
Q 1206 -91 779 398 
Q 353 888 353 1747 
Q 353 2609 779 3096 
Q 1206 3584 1959 3584 
z
" transform="scale(0.015625)"/>
        <path id="DejaVuSans-76" d="M 191 3500 
L 800 3500 
L 1894 563 
L 2988 3500 
L 3597 3500 
L 2284 0 
L 1503 0 
L 191 3500 
z
" transform="scale(0.015625)"/>
       </defs>
       <use xlink:href="#DejaVuSans-4e"/>
       <use xlink:href="#DejaVuSans-6f" transform="translate(74.804688 0)"/>
       <use xlink:href="#DejaVuSans-76" transform="translate(135.986328 0)"/>
       <use xlink:href="#DejaVuSans-20" transform="translate(195.166016 0)"/>
       <use xlink:href="#DejaVuSans-32" transform="translate(226.953125 0)"/>
       <use xlink:href="#DejaVuSans-30" transform="translate(290.576172 0)"/>
       <use xlink:href="#DejaVuSans-32" transform="translate(354.199219 0)"/>
       <use xlink:href="#DejaVuSans-30" transform="translate(417.822266 0)"/>
      </g>
     </g>
    </g>
    <g id="xtick_4">
     <g id="line2d_4">
      <path d="M 195.622233 355.222644 
L 195.622233 24.397812 
" clip-path="url(#pd378576315)" style="fill: none; stroke-dasharray: 2.96,1.28; stroke-dashoffset: 0; stroke: #cccccc; stroke-width: 0.8"/>
     </g>
     <g id="text_4">
      <!-- Feb 2021 -->
      <g style="fill: #262626" transform="translate(164.813701 397.843287) rotate(-45) scale(0.09 -0.09)">
       <defs>
        <path id="DejaVuSans-46" d="M 628 4666 
L 3309 4666 
L 3309 4134 
L 1259 4134 
L 1259 2759 
L 3109 2759 
L 3109 2228 
L 1259 2228 
L 1259 0 
L 628 0 
L 628 4666 
z
" transform="scale(0.015625)"/>
        <path id="DejaVuSans-65" d="M 3597 1894 
L 3597 1613 
L 953 1613 
Q 991 1019 1311 708 
Q 1631 397 2203 397 
Q 2534 397 2845 478 
Q 3156 559 3463 722 
L 3463 178 
Q 3153 47 2828 -22 
Q 2503 -91 2169 -91 
Q 1331 -91 842 396 
Q 353 884 353 1716 
Q 353 2575 817 3079 
Q 1281 3584 2069 3584 
Q 2775 3584 3186 3129 
Q 3597 2675 3597 1894 
z
M 3022 2063 
Q 3016 2534 2758 2815 
Q 2500 3097 2075 3097 
Q 1594 3097 1305 2825 
Q 1016 2553 972 2059 
L 3022 2063 
z
" transform="scale(0.015625)"/>
        <path id="DejaVuSans-62" d="M 3116 1747 
Q 3116 2381 2855 2742 
Q 2594 3103 2138 3103 
Q 1681 3103 1420 2742 
Q 1159 2381 1159 1747 
Q 1159 1113 1420 752 
Q 1681 391 2138 391 
Q 2594 391 2855 752 
Q 3116 1113 3116 1747 
z
M 1159 2969 
Q 1341 3281 1617 3432 
Q 1894 3584 2278 3584 
Q 2916 3584 3314 3078 
Q 3713 2572 3713 1747 
Q 3713 922 3314 415 
Q 2916 -91 2278 -91 
Q 1894 -91 1617 61 
Q 1341 213 1159 525 
L 1159 0 
L 581 0 
L 581 4863 
L 1159 4863 
L 1159 2969 
z
" transform="scale(0.015625)"/>
        <path id="DejaVuSans-31" d="M 794 531 
L 1825 531 
L 1825 4091 
L 703 3866 
L 703 4441 
L 1819 4666 
L 2450 4666 
L 2450 531 
L 3481 531 
L 3481 0 
L 794 0 
L 794 531 
z
" transform="scale(0.015625)"/>
       </defs>
       <use xlink:href="#DejaVuSans-46"/>
       <use xlink:href="#DejaVuSans-65" transform="translate(52.019531 0)"/>
       <use xlink:href="#DejaVuSans-62" transform="translate(113.542969 0)"/>
       <use xlink:href="#DejaVuSans-20" transform="translate(177.019531 0)"/>
       <use xlink:href="#DejaVuSans-32" transform="translate(208.806641 0)"/>
       <use xlink:href="#DejaVuSans-30" transform="translate(272.429688 0)"/>
       <use xlink:href="#DejaVuSans-32" transform="translate(336.052734 0)"/>
       <use xlink:href="#DejaVuSans-31" transform="translate(399.675781 0)"/>
      </g>
     </g>
    </g>
    <g id="xtick_5">
     <g id="line2d_5">
      <path d="M 234.220302 355.222644 
L 234.220302 24.397812 
" clip-path="url(#pd378576315)" style="fill: none; stroke-dasharray: 2.96,1.28; stroke-dashoffset: 0; stroke: #cccccc; stroke-width: 0.8"/>
     </g>
     <g id="text_5">
      <!-- May 2021 -->
      <g style="fill: #262626" transform="translate(201.52048 399.734577) rotate(-45) scale(0.09 -0.09)">
       <use xlink:href="#DejaVuSans-4d"/>
       <use xlink:href="#DejaVuSans-61" transform="translate(86.279297 0)"/>
       <use xlink:href="#DejaVuSans-79" transform="translate(147.558594 0)"/>
       <use xlink:href="#DejaVuSans-20" transform="translate(206.738281 0)"/>
       <use xlink:href="#DejaVuSans-32" transform="translate(238.525391 0)"/>
       <use xlink:href="#DejaVuSans-30" transform="translate(302.148438 0)"/>
       <use xlink:href="#DejaVuSans-32" transform="translate(365.771484 0)"/>
       <use xlink:href="#DejaVuSans-31" transform="translate(429.394531 0)"/>
      </g>
     </g>
    </g>
    <g id="xtick_6">
     <g id="line2d_6">
      <path d="M 274.11943 355.222644 
L 274.11943 24.397812 
" clip-path="url(#pd378576315)" style="fill: none; stroke-dasharray: 2.96,1.28; stroke-dashoffset: 0; stroke: #cccccc; stroke-width: 0.8"/>
     </g>
     <g id="text_6">
      <!-- Aug 2021 -->
      <g style="fill: #262626" transform="translate(242.150469 399.003716) rotate(-45) scale(0.09 -0.09)">
       <use xlink:href="#DejaVuSans-41"/>
       <use xlink:href="#DejaVuSans-75" transform="translate(68.408203 0)"/>
       <use xlink:href="#DejaVuSans-67" transform="translate(131.787109 0)"/>
       <use xlink:href="#DejaVuSans-20" transform="translate(195.263672 0)"/>
       <use xlink:href="#DejaVuSans-32" transform="translate(227.050781 0)"/>
       <use xlink:href="#DejaVuSans-30" transform="translate(290.673828 0)"/>
       <use xlink:href="#DejaVuSans-32" transform="translate(354.296875 0)"/>
       <use xlink:href="#DejaVuSans-31" transform="translate(417.919922 0)"/>
      </g>
     </g>
    </g>
    <g id="xtick_7">
     <g id="line2d_7">
      <path d="M 314.018557 355.222644 
L 314.018557 24.397812 
" clip-path="url(#pd378576315)" style="fill: none; stroke-dasharray: 2.96,1.28; stroke-dashoffset: 0; stroke: #cccccc; stroke-width: 0.8"/>
     </g>
     <g id="text_7">
      <!-- Nov 2021 -->
      <g style="fill: #262626" transform="translate(282.054569 398.998744) rotate(-45) scale(0.09 -0.09)">
       <use xlink:href="#DejaVuSans-4e"/>
       <use xlink:href="#DejaVuSans-6f" transform="translate(74.804688 0)"/>
       <use xlink:href="#DejaVuSans-76" transform="translate(135.986328 0)"/>
       <use xlink:href="#DejaVuSans-20" transform="translate(195.166016 0)"/>
       <use xlink:href="#DejaVuSans-32" transform="translate(226.953125 0)"/>
       <use xlink:href="#DejaVuSans-30" transform="translate(290.576172 0)"/>
       <use xlink:href="#DejaVuSans-32" transform="translate(354.199219 0)"/>
       <use xlink:href="#DejaVuSans-31" transform="translate(417.822266 0)"/>
      </g>
     </g>
    </g>
    <g id="xtick_8">
     <g id="line2d_8">
      <path d="M 353.917685 355.222644 
L 353.917685 24.397812 
" clip-path="url(#pd378576315)" style="fill: none; stroke-dasharray: 2.96,1.28; stroke-dashoffset: 0; stroke: #cccccc; stroke-width: 0.8"/>
     </g>
     <g id="text_8">
      <!-- Feb 2022 -->
      <g style="fill: #262626" transform="translate(323.109153 397.843287) rotate(-45) scale(0.09 -0.09)">
       <use xlink:href="#DejaVuSans-46"/>
       <use xlink:href="#DejaVuSans-65" transform="translate(52.019531 0)"/>
       <use xlink:href="#DejaVuSans-62" transform="translate(113.542969 0)"/>
       <use xlink:href="#DejaVuSans-20" transform="translate(177.019531 0)"/>
       <use xlink:href="#DejaVuSans-32" transform="translate(208.806641 0)"/>
       <use xlink:href="#DejaVuSans-30" transform="translate(272.429688 0)"/>
       <use xlink:href="#DejaVuSans-32" transform="translate(336.052734 0)"/>
       <use xlink:href="#DejaVuSans-32" transform="translate(399.675781 0)"/>
      </g>
     </g>
    </g>
    <g id="xtick_9">
     <g id="line2d_9">
      <path d="M 392.515754 355.222644 
L 392.515754 24.397812 
" clip-path="url(#pd378576315)" style="fill: none; stroke-dasharray: 2.96,1.28; stroke-dashoffset: 0; stroke: #cccccc; stroke-width: 0.8"/>
     </g>
     <g id="text_9">
      <!-- May 2022 -->
      <g style="fill: #262626" transform="translate(359.815933 399.734577) rotate(-45) scale(0.09 -0.09)">
       <use xlink:href="#DejaVuSans-4d"/>
       <use xlink:href="#DejaVuSans-61" transform="translate(86.279297 0)"/>
       <use xlink:href="#DejaVuSans-79" transform="translate(147.558594 0)"/>
       <use xlink:href="#DejaVuSans-20" transform="translate(206.738281 0)"/>
       <use xlink:href="#DejaVuSans-32" transform="translate(238.525391 0)"/>
       <use xlink:href="#DejaVuSans-30" transform="translate(302.148438 0)"/>
       <use xlink:href="#DejaVuSans-32" transform="translate(365.771484 0)"/>
       <use xlink:href="#DejaVuSans-32" transform="translate(429.394531 0)"/>
      </g>
     </g>
    </g>
    <g id="xtick_10">
     <g id="line2d_10">
      <path d="M 432.414882 355.222644 
L 432.414882 24.397812 
" clip-path="url(#pd378576315)" style="fill: none; stroke-dasharray: 2.96,1.28; stroke-dashoffset: 0; stroke: #cccccc; stroke-width: 0.8"/>
     </g>
     <g id="text_10">
      <!-- Aug 2022 -->
      <g style="fill: #262626" transform="translate(400.445922 399.003716) rotate(-45) scale(0.09 -0.09)">
       <use xlink:href="#DejaVuSans-41"/>
       <use xlink:href="#DejaVuSans-75" transform="translate(68.408203 0)"/>
       <use xlink:href="#DejaVuSans-67" transform="translate(131.787109 0)"/>
       <use xlink:href="#DejaVuSans-20" transform="translate(195.263672 0)"/>
       <use xlink:href="#DejaVuSans-32" transform="translate(227.050781 0)"/>
       <use xlink:href="#DejaVuSans-30" transform="translate(290.673828 0)"/>
       <use xlink:href="#DejaVuSans-32" transform="translate(354.296875 0)"/>
       <use xlink:href="#DejaVuSans-32" transform="translate(417.919922 0)"/>
      </g>
     </g>
    </g>
    <g id="xtick_11">
     <g id="line2d_11">
      <path d="M 472.31401 355.222644 
L 472.31401 24.397812 
" clip-path="url(#pd378576315)" style="fill: none; stroke-dasharray: 2.96,1.28; stroke-dashoffset: 0; stroke: #cccccc; stroke-width: 0.8"/>
     </g>
     <g id="text_11">
      <!-- Nov 2022 -->
      <g style="fill: #262626" transform="translate(440.350021 398.998744) rotate(-45) scale(0.09 -0.09)">
       <use xlink:href="#DejaVuSans-4e"/>
       <use xlink:href="#DejaVuSans-6f" transform="translate(74.804688 0)"/>
       <use xlink:href="#DejaVuSans-76" transform="translate(135.986328 0)"/>
       <use xlink:href="#DejaVuSans-20" transform="translate(195.166016 0)"/>
       <use xlink:href="#DejaVuSans-32" transform="translate(226.953125 0)"/>
       <use xlink:href="#DejaVuSans-30" transform="translate(290.576172 0)"/>
       <use xlink:href="#DejaVuSans-32" transform="translate(354.199219 0)"/>
       <use xlink:href="#DejaVuSans-32" transform="translate(417.822266 0)"/>
      </g>
     </g>
    </g>
    <g id="xtick_12">
     <g id="line2d_12">
      <path d="M 512.213138 355.222644 
L 512.213138 24.397812 
" clip-path="url(#pd378576315)" style="fill: none; stroke-dasharray: 2.96,1.28; stroke-dashoffset: 0; stroke: #cccccc; stroke-width: 0.8"/>
     </g>
     <g id="text_12">
      <!-- Feb 2023 -->
      <g style="fill: #262626" transform="translate(481.404606 397.843287) rotate(-45) scale(0.09 -0.09)">
       <defs>
        <path id="DejaVuSans-33" d="M 2597 2516 
Q 3050 2419 3304 2112 
Q 3559 1806 3559 1356 
Q 3559 666 3084 287 
Q 2609 -91 1734 -91 
Q 1441 -91 1130 -33 
Q 819 25 488 141 
L 488 750 
Q 750 597 1062 519 
Q 1375 441 1716 441 
Q 2309 441 2620 675 
Q 2931 909 2931 1356 
Q 2931 1769 2642 2001 
Q 2353 2234 1838 2234 
L 1294 2234 
L 1294 2753 
L 1863 2753 
Q 2328 2753 2575 2939 
Q 2822 3125 2822 3475 
Q 2822 3834 2567 4026 
Q 2313 4219 1838 4219 
Q 1578 4219 1281 4162 
Q 984 4106 628 3988 
L 628 4550 
Q 988 4650 1302 4700 
Q 1616 4750 1894 4750 
Q 2613 4750 3031 4423 
Q 3450 4097 3450 3541 
Q 3450 3153 3228 2886 
Q 3006 2619 2597 2516 
z
" transform="scale(0.015625)"/>
       </defs>
       <use xlink:href="#DejaVuSans-46"/>
       <use xlink:href="#DejaVuSans-65" transform="translate(52.019531 0)"/>
       <use xlink:href="#DejaVuSans-62" transform="translate(113.542969 0)"/>
       <use xlink:href="#DejaVuSans-20" transform="translate(177.019531 0)"/>
       <use xlink:href="#DejaVuSans-32" transform="translate(208.806641 0)"/>
       <use xlink:href="#DejaVuSans-30" transform="translate(272.429688 0)"/>
       <use xlink:href="#DejaVuSans-32" transform="translate(336.052734 0)"/>
       <use xlink:href="#DejaVuSans-33" transform="translate(399.675781 0)"/>
      </g>
     </g>
    </g>
    <g id="xtick_13">
     <g id="line2d_13">
      <path d="M 550.811207 355.222644 
L 550.811207 24.397812 
" clip-path="url(#pd378576315)" style="fill: none; stroke-dasharray: 2.96,1.28; stroke-dashoffset: 0; stroke: #cccccc; stroke-width: 0.8"/>
     </g>
     <g id="text_13">
      <!-- May 2023 -->
      <g style="fill: #262626" transform="translate(518.111385 399.734577) rotate(-45) scale(0.09 -0.09)">
       <use xlink:href="#DejaVuSans-4d"/>
       <use xlink:href="#DejaVuSans-61" transform="translate(86.279297 0)"/>
       <use xlink:href="#DejaVuSans-79" transform="translate(147.558594 0)"/>
       <use xlink:href="#DejaVuSans-20" transform="translate(206.738281 0)"/>
       <use xlink:href="#DejaVuSans-32" transform="translate(238.525391 0)"/>
       <use xlink:href="#DejaVuSans-30" transform="translate(302.148438 0)"/>
       <use xlink:href="#DejaVuSans-32" transform="translate(365.771484 0)"/>
       <use xlink:href="#DejaVuSans-33" transform="translate(429.394531 0)"/>
      </g>
     </g>
    </g>
    <g id="xtick_14">
     <g id="line2d_14">
      <path d="M 590.710335 355.222644 
L 590.710335 24.397812 
" clip-path="url(#pd378576315)" style="fill: none; stroke-dasharray: 2.96,1.28; stroke-dashoffset: 0; stroke: #cccccc; stroke-width: 0.8"/>
     </g>
     <g id="text_14">
      <!-- Aug 2023 -->
      <g style="fill: #262626" transform="translate(558.741374 399.003716) rotate(-45) scale(0.09 -0.09)">
       <use xlink:href="#DejaVuSans-41"/>
       <use xlink:href="#DejaVuSans-75" transform="translate(68.408203 0)"/>
       <use xlink:href="#DejaVuSans-67" transform="translate(131.787109 0)"/>
       <use xlink:href="#DejaVuSans-20" transform="translate(195.263672 0)"/>
       <use xlink:href="#DejaVuSans-32" transform="translate(227.050781 0)"/>
       <use xlink:href="#DejaVuSans-30" transform="translate(290.673828 0)"/>
       <use xlink:href="#DejaVuSans-32" transform="translate(354.296875 0)"/>
       <use xlink:href="#DejaVuSans-33" transform="translate(417.919922 0)"/>
      </g>
     </g>
    </g>
    <g id="xtick_15">
     <g id="line2d_15">
      <path d="M 630.609462 355.222644 
L 630.609462 24.397812 
" clip-path="url(#pd378576315)" style="fill: none; stroke-dasharray: 2.96,1.28; stroke-dashoffset: 0; stroke: #cccccc; stroke-width: 0.8"/>
     </g>
     <g id="text_15">
      <!-- Nov 2023 -->
      <g style="fill: #262626" transform="translate(598.645474 398.998744) rotate(-45) scale(0.09 -0.09)">
       <use xlink:href="#DejaVuSans-4e"/>
       <use xlink:href="#DejaVuSans-6f" transform="translate(74.804688 0)"/>
       <use xlink:href="#DejaVuSans-76" transform="translate(135.986328 0)"/>
       <use xlink:href="#DejaVuSans-20" transform="translate(195.166016 0)"/>
       <use xlink:href="#DejaVuSans-32" transform="translate(226.953125 0)"/>
       <use xlink:href="#DejaVuSans-30" transform="translate(290.576172 0)"/>
       <use xlink:href="#DejaVuSans-32" transform="translate(354.199219 0)"/>
       <use xlink:href="#DejaVuSans-33" transform="translate(417.822266 0)"/>
      </g>
     </g>
    </g>
    <g id="xtick_16">
     <g id="line2d_16">
      <path d="M 670.50859 355.222644 
L 670.50859 24.397812 
" clip-path="url(#pd378576315)" style="fill: none; stroke-dasharray: 2.96,1.28; stroke-dashoffset: 0; stroke: #cccccc; stroke-width: 0.8"/>
     </g>
     <g id="text_16">
      <!-- Feb 2024 -->
      <g style="fill: #262626" transform="translate(639.700058 397.843287) rotate(-45) scale(0.09 -0.09)">
       <defs>
        <path id="DejaVuSans-34" d="M 2419 4116 
L 825 1625 
L 2419 1625 
L 2419 4116 
z
M 2253 4666 
L 3047 4666 
L 3047 1625 
L 3713 1625 
L 3713 1100 
L 3047 1100 
L 3047 0 
L 2419 0 
L 2419 1100 
L 313 1100 
L 313 1709 
L 2253 4666 
z
" transform="scale(0.015625)"/>
       </defs>
       <use xlink:href="#DejaVuSans-46"/>
       <use xlink:href="#DejaVuSans-65" transform="translate(52.019531 0)"/>
       <use xlink:href="#DejaVuSans-62" transform="translate(113.542969 0)"/>
       <use xlink:href="#DejaVuSans-20" transform="translate(177.019531 0)"/>
       <use xlink:href="#DejaVuSans-32" transform="translate(208.806641 0)"/>
       <use xlink:href="#DejaVuSans-30" transform="translate(272.429688 0)"/>
       <use xlink:href="#DejaVuSans-32" transform="translate(336.052734 0)"/>
       <use xlink:href="#DejaVuSans-34" transform="translate(399.675781 0)"/>
      </g>
     </g>
    </g>
    <g id="xtick_17">
     <g id="line2d_17">
      <path d="M 709.540345 355.222644 
L 709.540345 24.397812 
" clip-path="url(#pd378576315)" style="fill: none; stroke-dasharray: 2.96,1.28; stroke-dashoffset: 0; stroke: #cccccc; stroke-width: 0.8"/>
     </g>
     <g id="text_17">
      <!-- May 2024 -->
      <g style="fill: #262626" transform="translate(676.840524 399.734577) rotate(-45) scale(0.09 -0.09)">
       <use xlink:href="#DejaVuSans-4d"/>
       <use xlink:href="#DejaVuSans-61" transform="translate(86.279297 0)"/>
       <use xlink:href="#DejaVuSans-79" transform="translate(147.558594 0)"/>
       <use xlink:href="#DejaVuSans-20" transform="translate(206.738281 0)"/>
       <use xlink:href="#DejaVuSans-32" transform="translate(238.525391 0)"/>
       <use xlink:href="#DejaVuSans-30" transform="translate(302.148438 0)"/>
       <use xlink:href="#DejaVuSans-32" transform="translate(365.771484 0)"/>
       <use xlink:href="#DejaVuSans-34" transform="translate(429.394531 0)"/>
      </g>
     </g>
    </g>
    <g id="xtick_18">
     <g id="line2d_18">
      <path d="M 749.439473 355.222644 
L 749.439473 24.397812 
" clip-path="url(#pd378576315)" style="fill: none; stroke-dasharray: 2.96,1.28; stroke-dashoffset: 0; stroke: #cccccc; stroke-width: 0.8"/>
     </g>
     <g id="text_18">
      <!-- Aug 2024 -->
      <g style="fill: #262626" transform="translate(717.470513 399.003716) rotate(-45) scale(0.09 -0.09)">
       <use xlink:href="#DejaVuSans-41"/>
       <use xlink:href="#DejaVuSans-75" transform="translate(68.408203 0)"/>
       <use xlink:href="#DejaVuSans-67" transform="translate(131.787109 0)"/>
       <use xlink:href="#DejaVuSans-20" transform="translate(195.263672 0)"/>
       <use xlink:href="#DejaVuSans-32" transform="translate(227.050781 0)"/>
       <use xlink:href="#DejaVuSans-30" transform="translate(290.673828 0)"/>
       <use xlink:href="#DejaVuSans-32" transform="translate(354.296875 0)"/>
       <use xlink:href="#DejaVuSans-34" transform="translate(417.919922 0)"/>
      </g>
     </g>
    </g>
    <g id="xtick_19">
     <g id="line2d_19">
      <path d="M 789.338601 355.222644 
L 789.338601 24.397812 
" clip-path="url(#pd378576315)" style="fill: none; stroke-dasharray: 2.96,1.28; stroke-dashoffset: 0; stroke: #cccccc; stroke-width: 0.8"/>
     </g>
     <g id="text_19">
      <!-- Nov 2024 -->
      <g style="fill: #262626" transform="translate(757.374612 398.998744) rotate(-45) scale(0.09 -0.09)">
       <use xlink:href="#DejaVuSans-4e"/>
       <use xlink:href="#DejaVuSans-6f" transform="translate(74.804688 0)"/>
       <use xlink:href="#DejaVuSans-76" transform="translate(135.986328 0)"/>
       <use xlink:href="#DejaVuSans-20" transform="translate(195.166016 0)"/>
       <use xlink:href="#DejaVuSans-32" transform="translate(226.953125 0)"/>
       <use xlink:href="#DejaVuSans-30" transform="translate(290.576172 0)"/>
       <use xlink:href="#DejaVuSans-32" transform="translate(354.199219 0)"/>
       <use xlink:href="#DejaVuSans-34" transform="translate(417.822266 0)"/>
      </g>
     </g>
    </g>
    <g id="xtick_20">
     <g id="line2d_20">
      <path d="M 829.237729 355.222644 
L 829.237729 24.397812 
" clip-path="url(#pd378576315)" style="fill: none; stroke-dasharray: 2.96,1.28; stroke-dashoffset: 0; stroke: #cccccc; stroke-width: 0.8"/>
     </g>
     <g id="text_20">
      <!-- Feb 2025 -->
      <g style="fill: #262626" transform="translate(798.429197 397.843287) rotate(-45) scale(0.09 -0.09)">
       <defs>
        <path id="DejaVuSans-35" d="M 691 4666 
L 3169 4666 
L 3169 4134 
L 1269 4134 
L 1269 2991 
Q 1406 3038 1543 3061 
Q 1681 3084 1819 3084 
Q 2600 3084 3056 2656 
Q 3513 2228 3513 1497 
Q 3513 744 3044 326 
Q 2575 -91 1722 -91 
Q 1428 -91 1123 -41 
Q 819 9 494 109 
L 494 744 
Q 775 591 1075 516 
Q 1375 441 1709 441 
Q 2250 441 2565 725 
Q 2881 1009 2881 1497 
Q 2881 1984 2565 2268 
Q 2250 2553 1709 2553 
Q 1456 2553 1204 2497 
Q 953 2441 691 2322 
L 691 4666 
z
" transform="scale(0.015625)"/>
       </defs>
       <use xlink:href="#DejaVuSans-46"/>
       <use xlink:href="#DejaVuSans-65" transform="translate(52.019531 0)"/>
       <use xlink:href="#DejaVuSans-62" transform="translate(113.542969 0)"/>
       <use xlink:href="#DejaVuSans-20" transform="translate(177.019531 0)"/>
       <use xlink:href="#DejaVuSans-32" transform="translate(208.806641 0)"/>
       <use xlink:href="#DejaVuSans-30" transform="translate(272.429688 0)"/>
       <use xlink:href="#DejaVuSans-32" transform="translate(336.052734 0)"/>
       <use xlink:href="#DejaVuSans-35" transform="translate(399.675781 0)"/>
      </g>
     </g>
    </g>
    <g id="xtick_21">
     <g id="line2d_21">
      <path d="M 867.835798 355.222644 
L 867.835798 24.397812 
" clip-path="url(#pd378576315)" style="fill: none; stroke-dasharray: 2.96,1.28; stroke-dashoffset: 0; stroke: #cccccc; stroke-width: 0.8"/>
     </g>
     <g id="text_21">
      <!-- May 2025 -->
      <g style="fill: #262626" transform="translate(835.135976 399.734577) rotate(-45) scale(0.09 -0.09)">
       <use xlink:href="#DejaVuSans-4d"/>
       <use xlink:href="#DejaVuSans-61" transform="translate(86.279297 0)"/>
       <use xlink:href="#DejaVuSans-79" transform="translate(147.558594 0)"/>
       <use xlink:href="#DejaVuSans-20" transform="translate(206.738281 0)"/>
       <use xlink:href="#DejaVuSans-32" transform="translate(238.525391 0)"/>
       <use xlink:href="#DejaVuSans-30" transform="translate(302.148438 0)"/>
       <use xlink:href="#DejaVuSans-32" transform="translate(365.771484 0)"/>
       <use xlink:href="#DejaVuSans-35" transform="translate(429.394531 0)"/>
      </g>
     </g>
    </g>
    <g id="xtick_22">
     <g id="line2d_22">
      <path d="M 907.734926 355.222644 
L 907.734926 24.397812 
" clip-path="url(#pd378576315)" style="fill: none; stroke-dasharray: 2.96,1.28; stroke-dashoffset: 0; stroke: #cccccc; stroke-width: 0.8"/>
     </g>
     <g id="text_22">
      <!-- Aug 2025 -->
      <g style="fill: #262626" transform="translate(875.765965 399.003716) rotate(-45) scale(0.09 -0.09)">
       <use xlink:href="#DejaVuSans-41"/>
       <use xlink:href="#DejaVuSans-75" transform="translate(68.408203 0)"/>
       <use xlink:href="#DejaVuSans-67" transform="translate(131.787109 0)"/>
       <use xlink:href="#DejaVuSans-20" transform="translate(195.263672 0)"/>
       <use xlink:href="#DejaVuSans-32" transform="translate(227.050781 0)"/>
       <use xlink:href="#DejaVuSans-30" transform="translate(290.673828 0)"/>
       <use xlink:href="#DejaVuSans-32" transform="translate(354.296875 0)"/>
       <use xlink:href="#DejaVuSans-35" transform="translate(417.919922 0)"/>
      </g>
     </g>
    </g>
    <g id="text_23">
     <!-- Mois -->
     <g style="fill: #262626" transform="translate(479.325981 413.416363) scale(0.11 -0.11)">
      <defs>
       <path id="DejaVuSans-69" d="M 603 3500 
L 1178 3500 
L 1178 0 
L 603 0 
L 603 3500 
z
M 603 4863 
L 1178 4863 
L 1178 4134 
L 603 4134 
L 603 4863 
z
" transform="scale(0.015625)"/>
       <path id="DejaVuSans-73" d="M 2834 3397 
L 2834 2853 
Q 2591 2978 2328 3040 
Q 2066 3103 1784 3103 
Q 1356 3103 1142 2972 
Q 928 2841 928 2578 
Q 928 2378 1081 2264 
Q 1234 2150 1697 2047 
L 1894 2003 
Q 2506 1872 2764 1633 
Q 3022 1394 3022 966 
Q 3022 478 2636 193 
Q 2250 -91 1575 -91 
Q 1294 -91 989 -36 
Q 684 19 347 128 
L 347 722 
Q 666 556 975 473 
Q 1284 391 1588 391 
Q 1994 391 2212 530 
Q 2431 669 2431 922 
Q 2431 1156 2273 1281 
Q 2116 1406 1581 1522 
L 1381 1569 
Q 847 1681 609 1914 
Q 372 2147 372 2553 
Q 372 3047 722 3315 
Q 1072 3584 1716 3584 
Q 2034 3584 2315 3537 
Q 2597 3491 2834 3397 
z
" transform="scale(0.015625)"/>
      </defs>
      <use xlink:href="#DejaVuSans-4d"/>
      <use xlink:href="#DejaVuSans-6f" transform="translate(86.279297 0)"/>
      <use xlink:href="#DejaVuSans-69" transform="translate(147.460938 0)"/>
      <use xlink:href="#DejaVuSans-73" transform="translate(175.244141 0)"/>
     </g>
    </g>
   </g>
   <g id="matplotlib.axis_2">
    <g id="ytick_1">
     <g id="line2d_23">
      <path d="M 63.434688 346.681127 
L 920.225087 346.681127 
" clip-path="url(#pd378576315)" style="fill: none; stroke-dasharray: 2.96,1.28; stroke-dashoffset: 0; stroke: #cccccc; stroke-width: 0.8"/>
     </g>
     <g id="text_24">
      <!-- 1 200 € -->
      <g style="fill: #262626" transform="translate(21.845937 350.100424) scale(0.09 -0.09)">
       <defs>
        <path id="DejaVuSans-202f" transform="scale(0.015625)"/>
        <path id="DejaVuSans-20ac" d="M 3647 4306 
L 3647 3641 
Q 3363 3969 3098 4109 
Q 2834 4250 2516 4250 
Q 2025 4250 1709 3937 
Q 1394 3625 1294 3041 
L 3097 3041 
L 2925 2656 
L 1244 2656 
Q 1238 2581 1236 2509 
Q 1234 2438 1234 2328 
Q 1234 2228 1236 2156 
Q 1238 2084 1244 2009 
L 2638 2009 
L 2463 1625 
L 1294 1625 
Q 1394 1041 1709 725 
Q 2025 409 2516 409 
Q 2834 409 3098 550 
Q 3363 691 3647 1019 
L 3647 359 
Q 3369 134 3080 21 
Q 2791 -91 2491 -91 
Q 1750 -91 1267 362 
Q 784 816 659 1625 
L 0 1625 
L 172 2009 
L 606 2009 
Q 606 2081 604 2154 
Q 603 2228 603 2328 
Q 603 2438 604 2511 
Q 606 2584 606 2656 
L 0 2656 
L 172 3041 
L 659 3041 
Q 784 3844 1268 4297 
Q 1753 4750 2491 4750 
Q 2797 4750 3086 4639 
Q 3375 4528 3647 4306 
z
" transform="scale(0.015625)"/>
       </defs>
       <use xlink:href="#DejaVuSans-31"/>
       <use xlink:href="#DejaVuSans-202f" transform="translate(63.623047 0)"/>
       <use xlink:href="#DejaVuSans-32" transform="translate(83.59375 0)"/>
       <use xlink:href="#DejaVuSans-30" transform="translate(147.216797 0)"/>
       <use xlink:href="#DejaVuSans-30" transform="translate(210.839844 0)"/>
       <use xlink:href="#DejaVuSans-20" transform="translate(274.462891 0)"/>
       <use xlink:href="#DejaVuSans-20ac" transform="translate(306.25 0)"/>
      </g>
     </g>
    </g>
    <g id="ytick_2">
     <g id="line2d_24">
      <path d="M 63.434688 305.892932 
L 920.225087 305.892932 
" clip-path="url(#pd378576315)" style="fill: none; stroke-dasharray: 2.96,1.28; stroke-dashoffset: 0; stroke: #cccccc; stroke-width: 0.8"/>
     </g>
     <g id="text_25">
      <!-- 1 400 € -->
      <g style="fill: #262626" transform="translate(21.845937 309.312229) scale(0.09 -0.09)">
       <use xlink:href="#DejaVuSans-31"/>
       <use xlink:href="#DejaVuSans-202f" transform="translate(63.623047 0)"/>
       <use xlink:href="#DejaVuSans-34" transform="translate(83.59375 0)"/>
       <use xlink:href="#DejaVuSans-30" transform="translate(147.216797 0)"/>
       <use xlink:href="#DejaVuSans-30" transform="translate(210.839844 0)"/>
       <use xlink:href="#DejaVuSans-20" transform="translate(274.462891 0)"/>
       <use xlink:href="#DejaVuSans-20ac" transform="translate(306.25 0)"/>
      </g>
     </g>
    </g>
    <g id="ytick_3">
     <g id="line2d_25">
      <path d="M 63.434688 265.104737 
L 920.225087 265.104737 
" clip-path="url(#pd378576315)" style="fill: none; stroke-dasharray: 2.96,1.28; stroke-dashoffset: 0; stroke: #cccccc; stroke-width: 0.8"/>
     </g>
     <g id="text_26">
      <!-- 1 600 € -->
      <g style="fill: #262626" transform="translate(21.845937 268.524034) scale(0.09 -0.09)">
       <defs>
        <path id="DejaVuSans-36" d="M 2113 2584 
Q 1688 2584 1439 2293 
Q 1191 2003 1191 1497 
Q 1191 994 1439 701 
Q 1688 409 2113 409 
Q 2538 409 2786 701 
Q 3034 994 3034 1497 
Q 3034 2003 2786 2293 
Q 2538 2584 2113 2584 
z
M 3366 4563 
L 3366 3988 
Q 3128 4100 2886 4159 
Q 2644 4219 2406 4219 
Q 1781 4219 1451 3797 
Q 1122 3375 1075 2522 
Q 1259 2794 1537 2939 
Q 1816 3084 2150 3084 
Q 2853 3084 3261 2657 
Q 3669 2231 3669 1497 
Q 3669 778 3244 343 
Q 2819 -91 2113 -91 
Q 1303 -91 875 529 
Q 447 1150 447 2328 
Q 447 3434 972 4092 
Q 1497 4750 2381 4750 
Q 2619 4750 2861 4703 
Q 3103 4656 3366 4563 
z
" transform="scale(0.015625)"/>
       </defs>
       <use xlink:href="#DejaVuSans-31"/>
       <use xlink:href="#DejaVuSans-202f" transform="translate(63.623047 0)"/>
       <use xlink:href="#DejaVuSans-36" transform="translate(83.59375 0)"/>
       <use xlink:href="#DejaVuSans-30" transform="translate(147.216797 0)"/>
       <use xlink:href="#DejaVuSans-30" transform="translate(210.839844 0)"/>
       <use xlink:href="#DejaVuSans-20" transform="translate(274.462891 0)"/>
       <use xlink:href="#DejaVuSans-20ac" transform="translate(306.25 0)"/>
      </g>
     </g>
    </g>
    <g id="ytick_4">
     <g id="line2d_26">
      <path d="M 63.434688 224.316542 
L 920.225087 224.316542 
" clip-path="url(#pd378576315)" style="fill: none; stroke-dasharray: 2.96,1.28; stroke-dashoffset: 0; stroke: #cccccc; stroke-width: 0.8"/>
     </g>
     <g id="text_27">
      <!-- 1 800 € -->
      <g style="fill: #262626" transform="translate(21.845937 227.735839) scale(0.09 -0.09)">
       <defs>
        <path id="DejaVuSans-38" d="M 2034 2216 
Q 1584 2216 1326 1975 
Q 1069 1734 1069 1313 
Q 1069 891 1326 650 
Q 1584 409 2034 409 
Q 2484 409 2743 651 
Q 3003 894 3003 1313 
Q 3003 1734 2745 1975 
Q 2488 2216 2034 2216 
z
M 1403 2484 
Q 997 2584 770 2862 
Q 544 3141 544 3541 
Q 544 4100 942 4425 
Q 1341 4750 2034 4750 
Q 2731 4750 3128 4425 
Q 3525 4100 3525 3541 
Q 3525 3141 3298 2862 
Q 3072 2584 2669 2484 
Q 3125 2378 3379 2068 
Q 3634 1759 3634 1313 
Q 3634 634 3220 271 
Q 2806 -91 2034 -91 
Q 1263 -91 848 271 
Q 434 634 434 1313 
Q 434 1759 690 2068 
Q 947 2378 1403 2484 
z
M 1172 3481 
Q 1172 3119 1398 2916 
Q 1625 2713 2034 2713 
Q 2441 2713 2670 2916 
Q 2900 3119 2900 3481 
Q 2900 3844 2670 4047 
Q 2441 4250 2034 4250 
Q 1625 4250 1398 4047 
Q 1172 3844 1172 3481 
z
" transform="scale(0.015625)"/>
       </defs>
       <use xlink:href="#DejaVuSans-31"/>
       <use xlink:href="#DejaVuSans-202f" transform="translate(63.623047 0)"/>
       <use xlink:href="#DejaVuSans-38" transform="translate(83.59375 0)"/>
       <use xlink:href="#DejaVuSans-30" transform="translate(147.216797 0)"/>
       <use xlink:href="#DejaVuSans-30" transform="translate(210.839844 0)"/>
       <use xlink:href="#DejaVuSans-20" transform="translate(274.462891 0)"/>
       <use xlink:href="#DejaVuSans-20ac" transform="translate(306.25 0)"/>
      </g>
     </g>
    </g>
    <g id="ytick_5">
     <g id="line2d_27">
      <path d="M 63.434688 183.528347 
L 920.225087 183.528347 
" clip-path="url(#pd378576315)" style="fill: none; stroke-dasharray: 2.96,1.28; stroke-dashoffset: 0; stroke: #cccccc; stroke-width: 0.8"/>
     </g>
     <g id="text_28">
      <!-- 2 000 € -->
      <g style="fill: #262626" transform="translate(21.845937 186.947644) scale(0.09 -0.09)">
       <use xlink:href="#DejaVuSans-32"/>
       <use xlink:href="#DejaVuSans-202f" transform="translate(63.623047 0)"/>
       <use xlink:href="#DejaVuSans-30" transform="translate(83.59375 0)"/>
       <use xlink:href="#DejaVuSans-30" transform="translate(147.216797 0)"/>
       <use xlink:href="#DejaVuSans-30" transform="translate(210.839844 0)"/>
       <use xlink:href="#DejaVuSans-20" transform="translate(274.462891 0)"/>
       <use xlink:href="#DejaVuSans-20ac" transform="translate(306.25 0)"/>
      </g>
     </g>
    </g>
    <g id="ytick_6">
     <g id="line2d_28">
      <path d="M 63.434688 142.740152 
L 920.225087 142.740152 
" clip-path="url(#pd378576315)" style="fill: none; stroke-dasharray: 2.96,1.28; stroke-dashoffset: 0; stroke: #cccccc; stroke-width: 0.8"/>
     </g>
     <g id="text_29">
      <!-- 2 200 € -->
      <g style="fill: #262626" transform="translate(21.845937 146.159449) scale(0.09 -0.09)">
       <use xlink:href="#DejaVuSans-32"/>
       <use xlink:href="#DejaVuSans-202f" transform="translate(63.623047 0)"/>
       <use xlink:href="#DejaVuSans-32" transform="translate(83.59375 0)"/>
       <use xlink:href="#DejaVuSans-30" transform="translate(147.216797 0)"/>
       <use xlink:href="#DejaVuSans-30" transform="translate(210.839844 0)"/>
       <use xlink:href="#DejaVuSans-20" transform="translate(274.462891 0)"/>
       <use xlink:href="#DejaVuSans-20ac" transform="translate(306.25 0)"/>
      </g>
     </g>
    </g>
    <g id="ytick_7">
     <g id="line2d_29">
      <path d="M 63.434688 101.951957 
L 920.225087 101.951957 
" clip-path="url(#pd378576315)" style="fill: none; stroke-dasharray: 2.96,1.28; stroke-dashoffset: 0; stroke: #cccccc; stroke-width: 0.8"/>
     </g>
     <g id="text_30">
      <!-- 2 400 € -->
      <g style="fill: #262626" transform="translate(21.845937 105.371254) scale(0.09 -0.09)">
       <use xlink:href="#DejaVuSans-32"/>
       <use xlink:href="#DejaVuSans-202f" transform="translate(63.623047 0)"/>
       <use xlink:href="#DejaVuSans-34" transform="translate(83.59375 0)"/>
       <use xlink:href="#DejaVuSans-30" transform="translate(147.216797 0)"/>
       <use xlink:href="#DejaVuSans-30" transform="translate(210.839844 0)"/>
       <use xlink:href="#DejaVuSans-20" transform="translate(274.462891 0)"/>
       <use xlink:href="#DejaVuSans-20ac" transform="translate(306.25 0)"/>
      </g>
     </g>
    </g>
    <g id="ytick_8">
     <g id="line2d_30">
      <path d="M 63.434688 61.163762 
L 920.225087 61.163762 
" clip-path="url(#pd378576315)" style="fill: none; stroke-dasharray: 2.96,1.28; stroke-dashoffset: 0; stroke: #cccccc; stroke-width: 0.8"/>
     </g>
     <g id="text_31">
      <!-- 2 600 € -->
      <g style="fill: #262626" transform="translate(21.845937 64.583059) scale(0.09 -0.09)">
       <use xlink:href="#DejaVuSans-32"/>
       <use xlink:href="#DejaVuSans-202f" transform="translate(63.623047 0)"/>
       <use xlink:href="#DejaVuSans-36" transform="translate(83.59375 0)"/>
       <use xlink:href="#DejaVuSans-30" transform="translate(147.216797 0)"/>
       <use xlink:href="#DejaVuSans-30" transform="translate(210.839844 0)"/>
       <use xlink:href="#DejaVuSans-20" transform="translate(274.462891 0)"/>
       <use xlink:href="#DejaVuSans-20ac" transform="translate(306.25 0)"/>
      </g>
     </g>
    </g>
    <g id="text_32">
     <!-- € / m² -->
     <g style="fill: #262626" transform="translate(15.558281 206.220853) rotate(-90) scale(0.11 -0.11)">
      <defs>
       <path id="DejaVuSans-2f" d="M 1625 4666 
L 2156 4666 
L 531 -594 
L 0 -594 
L 1625 4666 
z
" transform="scale(0.015625)"/>
       <path id="DejaVuSans-6d" d="M 3328 2828 
Q 3544 3216 3844 3400 
Q 4144 3584 4550 3584 
Q 5097 3584 5394 3201 
Q 5691 2819 5691 2113 
L 5691 0 
L 5113 0 
L 5113 2094 
Q 5113 2597 4934 2840 
Q 4756 3084 4391 3084 
Q 3944 3084 3684 2787 
Q 3425 2491 3425 1978 
L 3425 0 
L 2847 0 
L 2847 2094 
Q 2847 2600 2669 2842 
Q 2491 3084 2119 3084 
Q 1678 3084 1418 2786 
Q 1159 2488 1159 1978 
L 1159 0 
L 581 0 
L 581 3500 
L 1159 3500 
L 1159 2956 
Q 1356 3278 1631 3431 
Q 1906 3584 2284 3584 
Q 2666 3584 2933 3390 
Q 3200 3197 3328 2828 
z
" transform="scale(0.015625)"/>
       <path id="DejaVuSans-b2" d="M 838 2444 
L 2163 2444 
L 2163 2088 
L 294 2088 
L 294 2431 
Q 400 2528 597 2703 
Q 1672 3656 1672 3950 
Q 1672 4156 1509 4282 
Q 1347 4409 1081 4409 
Q 919 4409 728 4354 
Q 538 4300 313 4191 
L 313 4575 
Q 553 4663 761 4706 
Q 969 4750 1147 4750 
Q 1600 4750 1872 4544 
Q 2144 4338 2144 4000 
Q 2144 3566 1109 2678 
Q 934 2528 838 2444 
z
" transform="scale(0.015625)"/>
      </defs>
      <use xlink:href="#DejaVuSans-20ac"/>
      <use xlink:href="#DejaVuSans-20" transform="translate(63.623047 0)"/>
      <use xlink:href="#DejaVuSans-2f" transform="translate(95.410156 0)"/>
      <use xlink:href="#DejaVuSans-20" transform="translate(129.101562 0)"/>
      <use xlink:href="#DejaVuSans-6d" transform="translate(160.888672 0)"/>
      <use xlink:href="#DejaVuSans-b2" transform="translate(258.300781 0)"/>
     </g>
    </g>
   </g>
   <g id="FillBetweenPolyCollection_1">
    <defs>
     <path id="mf396357899" d="M 102.379706 -247.952629 
L 102.379706 -86.419941 
L 115.823977 -88.682444 
L 129.268248 -94.026821 
L 142.278833 -82.718868 
L 155.723105 -104.926527 
L 168.73369 -102.344762 
L 182.177961 -102.029479 
L 195.622233 -113.661716 
L 207.765445 -109.080049 
L 221.209717 -130.16528 
L 234.220302 -136.868498 
L 247.664573 -130.286047 
L 260.675158 -134.56559 
L 274.11943 -144.958554 
L 287.563701 -138.705544 
L 300.574286 -160.871204 
L 314.018557 -140.834017 
L 327.029142 -136.308728 
L 340.473414 -160.234398 
L 353.917685 -165.284415 
L 366.060898 -171.133884 
L 379.505169 -161.675083 
L 392.515754 -174.950875 
L 405.960026 -179.487273 
L 418.970611 -198.587477 
L 432.414882 -195.580655 
L 445.859153 -184.207746 
L 458.869738 -180.783322 
L 472.31401 -175.880335 
L 485.324595 -180.848861 
L 498.768866 -181.674981 
L 512.213138 -176.944761 
L 524.35635 -191.330061 
L 537.800622 -195.343431 
L 550.811207 -156.76667 
L 564.255478 -160.418798 
L 577.266063 -152.998257 
L 590.710335 -171.395347 
L 604.154606 -158.757979 
L 617.165191 -156.05505 
L 630.609462 -187.717912 
L 643.620047 -156.443663 
L 657.064319 -187.590887 
L 670.50859 -142.745169 
L 683.085489 -171.72516 
L 696.52976 -148.735239 
L 709.540345 -173.081861 
L 722.984617 -169.869258 
L 735.995202 -162.184089 
L 749.439473 -163.278293 
L 762.883745 -151.102713 
L 775.89433 -166.927706 
L 789.338601 -160.845961 
L 802.349186 -173.487112 
L 815.793457 -179.722511 
L 829.237729 -144.580555 
L 841.380942 -159.419392 
L 854.825213 -160.234398 
L 867.835798 -196.808166 
L 881.280069 -190.255415 
L 881.280069 -256.63036 
L 881.280069 -256.63036 
L 867.835798 -280.637094 
L 854.825213 -279.713997 
L 841.380942 -284.008475 
L 829.237729 -289.547322 
L 815.793457 -365.013989 
L 802.349186 -322.893438 
L 789.338601 -347.041535 
L 775.89433 -308.397346 
L 762.883745 -283.07731 
L 749.439473 -273.233834 
L 735.995202 -297.644522 
L 722.984617 -315.031195 
L 709.540345 -345.487853 
L 696.52976 -266.770728 
L 683.085489 -306.170294 
L 670.50859 -282.315842 
L 657.064319 -331.569124 
L 643.620047 -285.960404 
L 630.609462 -337.78905 
L 617.165191 -289.947918 
L 604.154606 -299.41621 
L 590.710335 -326.226042 
L 577.266063 -291.201332 
L 564.255478 -323.466403 
L 550.811207 -283.07731 
L 537.800622 -302.549743 
L 524.35635 -383.468715 
L 512.213138 -312.66696 
L 498.768866 -367.998312 
L 485.324595 -298.989188 
L 472.31401 -314.859214 
L 458.869738 -312.78135 
L 445.859153 -301.353545 
L 432.414882 -316.42004 
L 418.970611 -361.658681 
L 405.960026 -312.513539 
L 392.515754 -297.037555 
L 379.505169 -274.377149 
L 366.060898 -319.471062 
L 353.917685 -293.04435 
L 340.473414 -287.880553 
L 327.029142 -281.987007 
L 314.018557 -284.586946 
L 300.574286 -298.085953 
L 287.563701 -261.067311 
L 274.11943 -261.247603 
L 260.675158 -256.494132 
L 247.664573 -268.187646 
L 234.220302 -270.310153 
L 221.209717 -282.691885 
L 207.765445 -242.465687 
L 195.622233 -235.152701 
L 182.177961 -229.684622 
L 168.73369 -238.610893 
L 155.723105 -213.393741 
L 142.278833 -227.322479 
L 129.268248 -229.531293 
L 115.823977 -189.869221 
L 102.379706 -247.952629 
z
" style="stroke: #1f77b4; stroke-opacity: 0.12; stroke-width: 0.8"/>
    </defs>
    <g clip-path="url(#pd378576315)">
     <use xlink:href="#mf396357899" x="0" y="422.90402" style="fill: #1f77b4; fill-opacity: 0.12; stroke: #1f77b4; stroke-opacity: 0.12; stroke-width: 0.8"/>
    </g>
   </g>
   <g id="PathCollection_1"/>
   <g id="line2d_31">
    <path d="M 102.379706 292.493221 
L 115.823977 291.395958 
L 129.268248 285.27716 
L 142.278833 273.248709 
L 155.723105 268.465878 
L 168.73369 270.56884 
L 182.177961 268.465878 
L 195.622233 261.087544 
L 207.765445 251.949783 
L 221.209717 245.653505 
L 234.220302 241.388672 
L 247.664573 239.111984 
L 260.675158 237.482238 
L 274.11943 233.292234 
L 287.563701 228.255832 
L 300.574286 224.513181 
L 314.018557 218.045573 
L 327.029142 214.632658 
L 340.473414 214.632658 
L 353.917685 213.779435 
L 366.060898 212.915004 
L 379.505169 208.468015 
L 392.515754 200.255553 
L 405.960026 200.255553 
L 418.970611 188.184934 
L 432.414882 184.284115 
L 445.859153 175.242204 
L 458.869738 183.998904 
L 472.31401 187.22669 
L 485.324595 185.144427 
L 498.768866 185.144427 
L 512.213138 180.322823 
L 524.35635 179.758926 
L 537.800622 179.758926 
L 550.811207 195.324576 
L 564.255478 203.274198 
L 577.266063 208.158041 
L 590.710335 203.004121 
L 604.154606 199.911683 
L 617.165191 194.566633 
L 630.609462 192.940518 
L 643.620047 196.088127 
L 657.064319 196.088127 
L 670.50859 196.088127 
L 683.085489 199.956926 
L 696.52976 198.56107 
L 709.540345 187.231016 
L 722.984617 188.14793 
L 735.995202 188.14793 
L 749.439473 198.344979 
L 762.883745 199.030958 
L 775.89433 205.786422 
L 789.338601 200.894934 
L 802.349186 197.862546 
L 815.793457 205.121205 
L 829.237729 208.953769 
L 841.380942 210.122181 
L 854.825213 210.122181 
L 867.835798 201.932648 
L 881.280069 199.942851 
" clip-path="url(#pd378576315)" style="fill: none; stroke: #1f77b4; stroke-width: 2; stroke-linecap: round"/>
   </g>
   <g id="line2d_32">
    <path d="M 102.379706 293.590484 
L 115.823977 291.395958 
L 129.268248 264.68117 
L 142.278833 279.158362 
L 155.723105 267.339056 
L 168.73369 269.592701 
L 182.177961 271.544979 
L 195.622233 252.582388 
L 207.765445 251.317179 
L 221.209717 239.989832 
L 234.220302 236.730341 
L 247.664573 242.787512 
L 260.675158 238.234136 
L 274.11943 228.161331 
L 287.563701 228.350332 
L 300.574286 220.865032 
L 314.018557 215.226115 
L 327.029142 214.039202 
L 340.473414 213.519667 
L 353.917685 216.330125 
L 366.060898 191.939725 
L 379.505169 212.31034 
L 392.515754 204.62569 
L 405.960026 195.885416 
L 418.970611 149.156273 
L 432.414882 180.484452 
L 445.859153 188.083777 
L 458.869738 169.999955 
L 472.31401 187.513355 
L 485.324595 186.940025 
L 498.768866 183.348829 
L 512.213138 177.296818 
L 524.35635 169.723112 
L 537.800622 182.221033 
L 550.811207 213.192489 
L 564.255478 208.428118 
L 577.266063 198.120278 
L 590.710335 207.887964 
L 604.154606 187.430179 
L 617.165191 201.703087 
L 630.609462 176.949606 
L 643.620047 198.450858 
L 657.064319 193.725396 
L 670.50859 206.188456 
L 683.085489 190.933684 
L 696.52976 222.185816 
L 709.540345 172.213286 
L 722.984617 183.528347 
L 735.995202 192.767512 
L 749.439473 203.922445 
L 762.883745 207.650398 
L 775.89433 194.139471 
L 789.338601 208.656789 
L 802.349186 188.125032 
L 815.793457 201.585621 
L 829.237729 228.264897 
L 841.380942 216.321917 
L 854.825213 203.922445 
L 867.835798 176.995528 
L 881.280069 199.942851 
" clip-path="url(#pd378576315)" style="fill: none; stroke-dasharray: 0.7,1.155; stroke-dashoffset: 0; stroke: #1f77b4; stroke-opacity: 0.45; stroke-width: 0.7"/>
   </g>
   <g id="patch_3">
    <path d="M 63.434688 355.222644 
L 63.434688 24.397812 
" style="fill: none; stroke: #ffffff; stroke-linejoin: miter; stroke-linecap: square"/>
   </g>
   <g id="patch_4">
    <path d="M 920.225087 355.222644 
L 920.225087 24.397812 
" style="fill: none; stroke: #ffffff; stroke-linejoin: miter; stroke-linecap: square"/>
   </g>
   <g id="patch_5">
    <path d="M 63.434688 355.222644 
L 920.225087 355.222644 
" style="fill: none; stroke: #ffffff; stroke-linejoin: miter; stroke-linecap: square"/>
   </g>
   <g id="patch_6">
    <path d="M 63.434688 24.397812 
L 920.225087 24.397812 
" style="fill: none; stroke: #ffffff; stroke-linejoin: miter; stroke-linecap: square"/>
   </g>
   <g id="text_33">
    <!-- Signaux de marché — Brest -->
    <g style="fill: #262626" transform="translate(383.269731 18.397812) scale(0.14 -0.14)">
     <defs>
      <path id="DejaVuSans-Bold-53" d="M 3834 4519 
L 3834 3531 
Q 3450 3703 3084 3790 
Q 2719 3878 2394 3878 
Q 1963 3878 1756 3759 
Q 1550 3641 1550 3391 
Q 1550 3203 1689 3098 
Q 1828 2994 2194 2919 
L 2706 2816 
Q 3484 2659 3812 2340 
Q 4141 2022 4141 1434 
Q 4141 663 3683 286 
Q 3225 -91 2284 -91 
Q 1841 -91 1394 -6 
Q 947 78 500 244 
L 500 1259 
Q 947 1022 1364 901 
Q 1781 781 2169 781 
Q 2563 781 2772 912 
Q 2981 1044 2981 1288 
Q 2981 1506 2839 1625 
Q 2697 1744 2272 1838 
L 1806 1941 
Q 1106 2091 782 2419 
Q 459 2747 459 3303 
Q 459 4000 909 4375 
Q 1359 4750 2203 4750 
Q 2588 4750 2994 4692 
Q 3400 4634 3834 4519 
z
" transform="scale(0.015625)"/>
      <path id="DejaVuSans-Bold-69" d="M 538 3500 
L 1656 3500 
L 1656 0 
L 538 0 
L 538 3500 
z
M 538 4863 
L 1656 4863 
L 1656 3950 
L 538 3950 
L 538 4863 
z
" transform="scale(0.015625)"/>
      <path id="DejaVuSans-Bold-67" d="M 2919 594 
Q 2688 288 2409 144 
Q 2131 0 1766 0 
Q 1125 0 706 504 
Q 288 1009 288 1791 
Q 288 2575 706 3076 
Q 1125 3578 1766 3578 
Q 2131 3578 2409 3434 
Q 2688 3291 2919 2981 
L 2919 3500 
L 4044 3500 
L 4044 353 
Q 4044 -491 3511 -936 
Q 2978 -1381 1966 -1381 
Q 1638 -1381 1331 -1331 
Q 1025 -1281 716 -1178 
L 716 -306 
Q 1009 -475 1290 -558 
Q 1572 -641 1856 -641 
Q 2406 -641 2662 -400 
Q 2919 -159 2919 353 
L 2919 594 
z
M 2181 2772 
Q 1834 2772 1640 2515 
Q 1447 2259 1447 1791 
Q 1447 1309 1634 1061 
Q 1822 813 2181 813 
Q 2531 813 2725 1069 
Q 2919 1325 2919 1791 
Q 2919 2259 2725 2515 
Q 2531 2772 2181 2772 
z
" transform="scale(0.015625)"/>
      <path id="DejaVuSans-Bold-6e" d="M 4056 2131 
L 4056 0 
L 2931 0 
L 2931 347 
L 2931 1631 
Q 2931 2084 2911 2256 
Q 2891 2428 2841 2509 
Q 2775 2619 2662 2680 
Q 2550 2741 2406 2741 
Q 2056 2741 1856 2470 
Q 1656 2200 1656 1722 
L 1656 0 
L 538 0 
L 538 3500 
L 1656 3500 
L 1656 2988 
Q 1909 3294 2193 3439 
Q 2478 3584 2822 3584 
Q 3428 3584 3742 3212 
Q 4056 2841 4056 2131 
z
" transform="scale(0.015625)"/>
      <path id="DejaVuSans-Bold-61" d="M 2106 1575 
Q 1756 1575 1579 1456 
Q 1403 1338 1403 1106 
Q 1403 894 1545 773 
Q 1688 653 1941 653 
Q 2256 653 2472 879 
Q 2688 1106 2688 1447 
L 2688 1575 
L 2106 1575 
z
M 3816 1997 
L 3816 0 
L 2688 0 
L 2688 519 
Q 2463 200 2181 54 
Q 1900 -91 1497 -91 
Q 953 -91 614 226 
Q 275 544 275 1050 
Q 275 1666 698 1953 
Q 1122 2241 2028 2241 
L 2688 2241 
L 2688 2328 
Q 2688 2594 2478 2717 
Q 2269 2841 1825 2841 
Q 1466 2841 1156 2769 
Q 847 2697 581 2553 
L 581 3406 
Q 941 3494 1303 3539 
Q 1666 3584 2028 3584 
Q 2975 3584 3395 3211 
Q 3816 2838 3816 1997 
z
" transform="scale(0.015625)"/>
      <path id="DejaVuSans-Bold-75" d="M 500 1363 
L 500 3500 
L 1625 3500 
L 1625 3150 
Q 1625 2866 1622 2436 
Q 1619 2006 1619 1863 
Q 1619 1441 1641 1255 
Q 1663 1069 1716 984 
Q 1784 875 1895 815 
Q 2006 756 2150 756 
Q 2500 756 2700 1025 
Q 2900 1294 2900 1772 
L 2900 3500 
L 4019 3500 
L 4019 0 
L 2900 0 
L 2900 506 
Q 2647 200 2364 54 
Q 2081 -91 1741 -91 
Q 1134 -91 817 281 
Q 500 653 500 1363 
z
" transform="scale(0.015625)"/>
      <path id="DejaVuSans-Bold-78" d="M 1422 1791 
L 159 3500 
L 1344 3500 
L 2059 2463 
L 2784 3500 
L 3969 3500 
L 2706 1797 
L 4031 0 
L 2847 0 
L 2059 1106 
L 1281 0 
L 97 0 
L 1422 1791 
z
" transform="scale(0.015625)"/>
      <path id="DejaVuSans-Bold-20" transform="scale(0.015625)"/>
      <path id="DejaVuSans-Bold-64" d="M 2919 2988 
L 2919 4863 
L 4044 4863 
L 4044 0 
L 2919 0 
L 2919 506 
Q 2688 197 2409 53 
Q 2131 -91 1766 -91 
Q 1119 -91 703 423 
Q 288 938 288 1747 
Q 288 2556 703 3070 
Q 1119 3584 1766 3584 
Q 2128 3584 2408 3439 
Q 2688 3294 2919 2988 
z
M 2181 722 
Q 2541 722 2730 984 
Q 2919 1247 2919 1747 
Q 2919 2247 2730 2509 
Q 2541 2772 2181 2772 
Q 1825 2772 1636 2509 
Q 1447 2247 1447 1747 
Q 1447 1247 1636 984 
Q 1825 722 2181 722 
z
" transform="scale(0.015625)"/>
      <path id="DejaVuSans-Bold-65" d="M 4031 1759 
L 4031 1441 
L 1416 1441 
Q 1456 1047 1700 850 
Q 1944 653 2381 653 
Q 2734 653 3104 758 
Q 3475 863 3866 1075 
L 3866 213 
Q 3469 63 3072 -14 
Q 2675 -91 2278 -91 
Q 1328 -91 801 392 
Q 275 875 275 1747 
Q 275 2603 792 3093 
Q 1309 3584 2216 3584 
Q 3041 3584 3536 3087 
Q 4031 2591 4031 1759 
z
M 2881 2131 
Q 2881 2450 2695 2645 
Q 2509 2841 2209 2841 
Q 1884 2841 1681 2658 
Q 1478 2475 1428 2131 
L 2881 2131 
z
" transform="scale(0.015625)"/>
      <path id="DejaVuSans-Bold-6d" d="M 3781 2919 
Q 3994 3244 4286 3414 
Q 4578 3584 4928 3584 
Q 5531 3584 5847 3212 
Q 6163 2841 6163 2131 
L 6163 0 
L 5038 0 
L 5038 1825 
Q 5041 1866 5042 1909 
Q 5044 1953 5044 2034 
Q 5044 2406 4934 2573 
Q 4825 2741 4581 2741 
Q 4263 2741 4089 2478 
Q 3916 2216 3909 1719 
L 3909 0 
L 2784 0 
L 2784 1825 
Q 2784 2406 2684 2573 
Q 2584 2741 2328 2741 
Q 2006 2741 1831 2477 
Q 1656 2213 1656 1722 
L 1656 0 
L 531 0 
L 531 3500 
L 1656 3500 
L 1656 2988 
Q 1863 3284 2130 3434 
Q 2397 3584 2719 3584 
Q 3081 3584 3359 3409 
Q 3638 3234 3781 2919 
z
" transform="scale(0.015625)"/>
      <path id="DejaVuSans-Bold-72" d="M 3138 2547 
Q 2991 2616 2845 2648 
Q 2700 2681 2553 2681 
Q 2122 2681 1889 2404 
Q 1656 2128 1656 1613 
L 1656 0 
L 538 0 
L 538 3500 
L 1656 3500 
L 1656 2925 
Q 1872 3269 2151 3426 
Q 2431 3584 2822 3584 
Q 2878 3584 2943 3579 
Q 3009 3575 3134 3559 
L 3138 2547 
z
" transform="scale(0.015625)"/>
      <path id="DejaVuSans-Bold-63" d="M 3366 3391 
L 3366 2478 
Q 3138 2634 2908 2709 
Q 2678 2784 2431 2784 
Q 1963 2784 1702 2511 
Q 1441 2238 1441 1747 
Q 1441 1256 1702 982 
Q 1963 709 2431 709 
Q 2694 709 2930 787 
Q 3166 866 3366 1019 
L 3366 103 
Q 3103 6 2833 -42 
Q 2563 -91 2291 -91 
Q 1344 -91 809 395 
Q 275 881 275 1747 
Q 275 2613 809 3098 
Q 1344 3584 2291 3584 
Q 2566 3584 2833 3536 
Q 3100 3488 3366 3391 
z
" transform="scale(0.015625)"/>
      <path id="DejaVuSans-Bold-68" d="M 4056 2131 
L 4056 0 
L 2931 0 
L 2931 347 
L 2931 1625 
Q 2931 2084 2911 2256 
Q 2891 2428 2841 2509 
Q 2775 2619 2662 2680 
Q 2550 2741 2406 2741 
Q 2056 2741 1856 2470 
Q 1656 2200 1656 1722 
L 1656 0 
L 538 0 
L 538 4863 
L 1656 4863 
L 1656 2988 
Q 1909 3294 2193 3439 
Q 2478 3584 2822 3584 
Q 3428 3584 3742 3212 
Q 4056 2841 4056 2131 
z
" transform="scale(0.015625)"/>
      <path id="DejaVuSans-Bold-e9" d="M 4031 1759 
L 4031 1441 
L 1416 1441 
Q 1456 1047 1700 850 
Q 1944 653 2381 653 
Q 2734 653 3104 758 
Q 3475 863 3866 1075 
L 3866 213 
Q 3469 63 3072 -14 
Q 2675 -91 2278 -91 
Q 1328 -91 801 392 
Q 275 875 275 1747 
Q 275 2603 792 3093 
Q 1309 3584 2216 3584 
Q 3041 3584 3536 3087 
Q 4031 2591 4031 1759 
z
M 2881 2131 
Q 2881 2450 2695 2645 
Q 2509 2841 2209 2841 
Q 1884 2841 1681 2658 
Q 1478 2475 1428 2131 
L 2881 2131 
z
M 2702 5119 
L 3586 5119 
L 2433 3944 
L 1821 3944 
L 2702 5119 
z
" transform="scale(0.015625)"/>
      <path id="DejaVuSans-Bold-2014" d="M 344 2156 
L 6056 2156 
L 6056 1350 
L 344 1350 
L 344 2156 
z
" transform="scale(0.015625)"/>
      <path id="DejaVuSans-Bold-42" d="M 2456 2859 
Q 2741 2859 2887 2984 
Q 3034 3109 3034 3353 
Q 3034 3594 2887 3720 
Q 2741 3847 2456 3847 
L 1791 3847 
L 1791 2859 
L 2456 2859 
z
M 2497 819 
Q 2859 819 3042 972 
Q 3225 1125 3225 1434 
Q 3225 1738 3044 1889 
Q 2863 2041 2497 2041 
L 1791 2041 
L 1791 819 
L 2497 819 
z
M 3616 2497 
Q 4003 2384 4215 2081 
Q 4428 1778 4428 1338 
Q 4428 663 3972 331 
Q 3516 0 2584 0 
L 588 0 
L 588 4666 
L 2394 4666 
Q 3366 4666 3802 4372 
Q 4238 4078 4238 3431 
Q 4238 3091 4078 2852 
Q 3919 2613 3616 2497 
z
" transform="scale(0.015625)"/>
      <path id="DejaVuSans-Bold-73" d="M 3272 3391 
L 3272 2541 
Q 2913 2691 2578 2766 
Q 2244 2841 1947 2841 
Q 1628 2841 1473 2761 
Q 1319 2681 1319 2516 
Q 1319 2381 1436 2309 
Q 1553 2238 1856 2203 
L 2053 2175 
Q 2913 2066 3209 1816 
Q 3506 1566 3506 1031 
Q 3506 472 3093 190 
Q 2681 -91 1863 -91 
Q 1516 -91 1145 -36 
Q 775 19 384 128 
L 384 978 
Q 719 816 1070 734 
Q 1422 653 1784 653 
Q 2113 653 2278 743 
Q 2444 834 2444 1013 
Q 2444 1163 2330 1236 
Q 2216 1309 1875 1350 
L 1678 1375 
Q 931 1469 631 1722 
Q 331 1975 331 2491 
Q 331 3047 712 3315 
Q 1094 3584 1881 3584 
Q 2191 3584 2531 3537 
Q 2872 3491 3272 3391 
z
" transform="scale(0.015625)"/>
      <path id="DejaVuSans-Bold-74" d="M 1759 4494 
L 1759 3500 
L 2913 3500 
L 2913 2700 
L 1759 2700 
L 1759 1216 
Q 1759 972 1856 886 
Q 1953 800 2241 800 
L 2816 800 
L 2816 0 
L 1856 0 
Q 1194 0 917 276 
Q 641 553 641 1216 
L 641 2700 
L 84 2700 
L 84 3500 
L 641 3500 
L 641 4494 
L 1759 4494 
z
" transform="scale(0.015625)"/>
     </defs>
     <use xlink:href="#DejaVuSans-Bold-53"/>
     <use xlink:href="#DejaVuSans-Bold-69" transform="translate(72.021484 0)"/>
     <use xlink:href="#DejaVuSans-Bold-67" transform="translate(106.298828 0)"/>
     <use xlink:href="#DejaVuSans-Bold-6e" transform="translate(177.880859 0)"/>
     <use xlink:href="#DejaVuSans-Bold-61" transform="translate(249.072266 0)"/>
     <use xlink:href="#DejaVuSans-Bold-75" transform="translate(316.552734 0)"/>
     <use xlink:href="#DejaVuSans-Bold-78" transform="translate(387.744141 0)"/>
     <use xlink:href="#DejaVuSans-Bold-20" transform="translate(452.246094 0)"/>
     <use xlink:href="#DejaVuSans-Bold-64" transform="translate(487.060547 0)"/>
     <use xlink:href="#DejaVuSans-Bold-65" transform="translate(558.642578 0)"/>
     <use xlink:href="#DejaVuSans-Bold-20" transform="translate(626.464844 0)"/>
     <use xlink:href="#DejaVuSans-Bold-6d" transform="translate(661.279297 0)"/>
     <use xlink:href="#DejaVuSans-Bold-61" transform="translate(765.478516 0)"/>
     <use xlink:href="#DejaVuSans-Bold-72" transform="translate(832.958984 0)"/>
     <use xlink:href="#DejaVuSans-Bold-63" transform="translate(882.275391 0)"/>
     <use xlink:href="#DejaVuSans-Bold-68" transform="translate(941.552734 0)"/>
     <use xlink:href="#DejaVuSans-Bold-e9" transform="translate(1012.744141 0)"/>
     <use xlink:href="#DejaVuSans-Bold-20" transform="translate(1080.566406 0)"/>
     <use xlink:href="#DejaVuSans-Bold-2014" transform="translate(1115.380859 0)"/>
     <use xlink:href="#DejaVuSans-Bold-20" transform="translate(1215.380859 0)"/>
     <use xlink:href="#DejaVuSans-Bold-42" transform="translate(1250.195312 0)"/>
     <use xlink:href="#DejaVuSans-Bold-72" transform="translate(1326.416016 0)"/>
     <use xlink:href="#DejaVuSans-Bold-65" transform="translate(1375.732422 0)"/>
     <use xlink:href="#DejaVuSans-Bold-73" transform="translate(1443.554688 0)"/>
     <use xlink:href="#DejaVuSans-Bold-74" transform="translate(1503.076172 0)"/>
    </g>
   </g>
   <g id="PathCollection_2">
    <defs>
     <path id="m6a96299d86" d="M -0 3.872983 
L 3.872983 0 
L 0 -3.872983 
L -3.872983 -0 
z
" style="stroke: #ffffff; stroke-width: 0.8"/>
    </defs>
    <g clip-path="url(#pd378576315)">
     <use xlink:href="#m6a96299d86" x="881.280069" y="199.942851" style="fill: #ff7f0e; stroke: #ffffff; stroke-width: 0.8"/>
    </g>
   </g>
   <g id="legend_1">
    <g id="patch_7">
     <path d="M 69.734687 58.018437 
L 169.122812 58.018437 
Q 170.922812 58.018437 170.922812 56.218437 
L 170.922812 30.697812 
Q 170.922812 28.897812 169.122812 28.897812 
L 69.734687 28.897812 
Q 67.934687 28.897812 67.934687 30.697812 
L 67.934687 56.218437 
Q 67.934687 58.018437 69.734687 58.018437 
z
" style="fill: #f5f5f5; opacity: 0.85; stroke: #cccccc; stroke-width: 0.8; stroke-linejoin: miter"/>
    </g>
    <g id="line2d_33">
     <path d="M 71.534687 36.186406 
L 80.534687 36.186406 
L 89.534687 36.186406 
" style="fill: none; stroke: #1f77b4; stroke-width: 2; stroke-linecap: round"/>
    </g>
    <g id="text_34">
     <!-- Prix lissé (€/m²) -->
     <g style="fill: #262626" transform="translate(96.734687 39.336406) scale(0.09 -0.09)">
      <defs>
       <path id="DejaVuSans-50" d="M 1259 4147 
L 1259 2394 
L 2053 2394 
Q 2494 2394 2734 2622 
Q 2975 2850 2975 3272 
Q 2975 3691 2734 3919 
Q 2494 4147 2053 4147 
L 1259 4147 
z
M 628 4666 
L 2053 4666 
Q 2838 4666 3239 4311 
Q 3641 3956 3641 3272 
Q 3641 2581 3239 2228 
Q 2838 1875 2053 1875 
L 1259 1875 
L 1259 0 
L 628 0 
L 628 4666 
z
" transform="scale(0.015625)"/>
       <path id="DejaVuSans-72" d="M 2631 2963 
Q 2534 3019 2420 3045 
Q 2306 3072 2169 3072 
Q 1681 3072 1420 2755 
Q 1159 2438 1159 1844 
L 1159 0 
L 581 0 
L 581 3500 
L 1159 3500 
L 1159 2956 
Q 1341 3275 1631 3429 
Q 1922 3584 2338 3584 
Q 2397 3584 2469 3576 
Q 2541 3569 2628 3553 
L 2631 2963 
z
" transform="scale(0.015625)"/>
       <path id="DejaVuSans-78" d="M 3513 3500 
L 2247 1797 
L 3578 0 
L 2900 0 
L 1881 1375 
L 863 0 
L 184 0 
L 1544 1831 
L 300 3500 
L 978 3500 
L 1906 2253 
L 2834 3500 
L 3513 3500 
z
" transform="scale(0.015625)"/>
       <path id="DejaVuSans-6c" d="M 603 4863 
L 1178 4863 
L 1178 0 
L 603 0 
L 603 4863 
z
" transform="scale(0.015625)"/>
       <path id="DejaVuSans-e9" d="M 3597 1894 
L 3597 1613 
L 953 1613 
Q 991 1019 1311 708 
Q 1631 397 2203 397 
Q 2534 397 2845 478 
Q 3156 559 3463 722 
L 3463 178 
Q 3153 47 2828 -22 
Q 2503 -91 2169 -91 
Q 1331 -91 842 396 
Q 353 884 353 1716 
Q 353 2575 817 3079 
Q 1281 3584 2069 3584 
Q 2775 3584 3186 3129 
Q 3597 2675 3597 1894 
z
M 3022 2063 
Q 3016 2534 2758 2815 
Q 2500 3097 2075 3097 
Q 1594 3097 1305 2825 
Q 1016 2553 972 2059 
L 3022 2063 
z
M 2466 5119 
L 3088 5119 
L 2070 3944 
L 1591 3944 
L 2466 5119 
z
" transform="scale(0.015625)"/>
       <path id="DejaVuSans-28" d="M 1984 4856 
Q 1566 4138 1362 3434 
Q 1159 2731 1159 2009 
Q 1159 1288 1364 580 
Q 1569 -128 1984 -844 
L 1484 -844 
Q 1016 -109 783 600 
Q 550 1309 550 2009 
Q 550 2706 781 3412 
Q 1013 4119 1484 4856 
L 1984 4856 
z
" transform="scale(0.015625)"/>
       <path id="DejaVuSans-29" d="M 513 4856 
L 1013 4856 
Q 1481 4119 1714 3412 
Q 1947 2706 1947 2009 
Q 1947 1309 1714 600 
Q 1481 -109 1013 -844 
L 513 -844 
Q 928 -128 1133 580 
Q 1338 1288 1338 2009 
Q 1338 2731 1133 3434 
Q 928 4138 513 4856 
z
" transform="scale(0.015625)"/>
      </defs>
      <use xlink:href="#DejaVuSans-50"/>
      <use xlink:href="#DejaVuSans-72" transform="translate(58.552734 0)"/>
      <use xlink:href="#DejaVuSans-69" transform="translate(99.666016 0)"/>
      <use xlink:href="#DejaVuSans-78" transform="translate(127.449219 0)"/>
      <use xlink:href="#DejaVuSans-20" transform="translate(186.628906 0)"/>
      <use xlink:href="#DejaVuSans-6c" transform="translate(218.416016 0)"/>
      <use xlink:href="#DejaVuSans-69" transform="translate(246.199219 0)"/>
      <use xlink:href="#DejaVuSans-73" transform="translate(273.982422 0)"/>
      <use xlink:href="#DejaVuSans-73" transform="translate(326.082031 0)"/>
      <use xlink:href="#DejaVuSans-e9" transform="translate(378.181641 0)"/>
      <use xlink:href="#DejaVuSans-20" transform="translate(439.705078 0)"/>
      <use xlink:href="#DejaVuSans-28" transform="translate(471.492188 0)"/>
      <use xlink:href="#DejaVuSans-20ac" transform="translate(510.505859 0)"/>
      <use xlink:href="#DejaVuSans-2f" transform="translate(574.128906 0)"/>
      <use xlink:href="#DejaVuSans-6d" transform="translate(607.820312 0)"/>
      <use xlink:href="#DejaVuSans-b2" transform="translate(705.232422 0)"/>
      <use xlink:href="#DejaVuSans-29" transform="translate(745.320312 0)"/>
     </g>
    </g>
    <g id="PathCollection_3">
     <defs>
      <path id="m3e4031ccc8" d="M -0 5.477226 
L 5.477226 0 
L 0 -5.477226 
L -5.477226 -0 
z
" style="stroke: #ffffff; stroke-width: 0.8"/>
     </defs>
     <g>
      <use xlink:href="#m3e4031ccc8" x="80.534687" y="50.184219" style="fill: #ff7f0e; stroke: #ffffff; stroke-width: 0.8"/>
     </g>
    </g>
    <g id="text_35">
     <!-- Neutre -->
     <g style="fill: #262626" transform="translate(96.734687 52.546719) scale(0.09 -0.09)">
      <defs>
       <path id="DejaVuSans-74" d="M 1172 4494 
L 1172 3500 
L 2356 3500 
L 2356 3053 
L 1172 3053 
L 1172 1153 
Q 1172 725 1289 603 
Q 1406 481 1766 481 
L 2356 481 
L 2356 0 
L 1766 0 
Q 1100 0 847 248 
Q 594 497 594 1153 
L 594 3053 
L 172 3053 
L 172 3500 
L 594 3500 
L 594 4494 
L 1172 4494 
z
" transform="scale(0.015625)"/>
      </defs>
      <use xlink:href="#DejaVuSans-4e"/>
      <use xlink:href="#DejaVuSans-65" transform="translate(74.804688 0)"/>
      <use xlink:href="#DejaVuSans-75" transform="translate(136.328125 0)"/>
      <use xlink:href="#DejaVuSans-74" transform="translate(199.707031 0)"/>
      <use xlink:href="#DejaVuSans-72" transform="translate(238.916016 0)"/>
      <use xlink:href="#DejaVuSans-65" transform="translate(277.779297 0)"/>
     </g>
    </g>
   </g>
  </g>
 </g>
 <defs>
  <clipPath id="pd378576315">
   <rect x="63.434688" y="24.397812" width="856.7904" height="330.824832"/>
  </clipPath>
 </defs>
</svg>
