<?xml version="1.0" encoding="utf-8" standalone="no"?>
<!DOCTYPE svg PUBLIC "-//W3C//DTD SVG 1.1//EN"
  "http://www.w3.org/Graphics/SVG/1.1/DTD/svg11.dtd">
<svg xmlns:xlink="http://www.w3.org/1999/xlink" width="855.354306pt" height="638.984462pt" viewBox="0 0 855.354306 638.984462" xmlns="http://www.w3.org/2000/svg" version="1.1">
 <metadata>
  <rdf:RDF xmlns:dc="http://purl.org/dc/elements/1.1/" xmlns:cc="http://creativecommons.org/ns#" xmlns:rdf="http://www.w3.org/1999/02/22-rdf-syntax-ns#">
   <cc:Work>
    <dc:type rdf:resource="http://purl.org/dc/dcmitype/StillImage"/>
    <dc:date>2026-05-01T06:56:46.000500</dc:date>
    <dc:format>image/svg+xml</dc:format>
    <dc:creator>
     <cc:Agent>
      <dc:title>Matplotlib v3.10.9, https://matplotlib.org/</dc:title>
     </cc:Agent>
    </dc:creator>
   </cc:Work>
  </rdf:RDF>
 </metadata>
 <defs>
  <style type="text/css">*{stroke-linejoin: round; stroke-linecap: butt}</style>
 </defs>
 <g id="figure_1">
  <g id="patch_1">
   <path d="M 0 638.984462 
L 855.354306 638.984462 
L 855.354306 0 
L 0 0 
z
" style="fill: #ffffff"/>
  </g>
  <g id="axes_1">
   <g id="patch_2">
    <path d="M 43.413906 600.128212 
L 848.154306 600.128212 
L 848.154306 23.837812 
L 43.413906 23.837812 
z
" style="fill: #f5f5f5"/>
   </g>
   <g id="FillBetweenPolyCollection_1">
    <defs>
     <path id="m63120890a5" d="M 445.784106 -615.14665 
L 445.784106 -327.00145 
L 848.154306 -327.00145 
L 848.154306 -615.14665 
L 848.154306 -615.14665 
L 445.784106 -615.14665 
z
" style="stroke: #d62728; stroke-opacity: 0.07; stroke-width: 0.8"/>
    </defs>
    <g clip-path="url(#pc6df4bb9f9)">
     <use xlink:href="#m63120890a5" x="0" y="638.984462" style="fill: #d62728; fill-opacity: 0.07; stroke: #d62728; stroke-opacity: 0.07; stroke-width: 0.8"/>
    </g>
   </g>
   <g id="FillBetweenPolyCollection_2">
    <defs>
     <path id="mda4bfe3b63" d="M 445.784106 -327.00145 
L 445.784106 -38.85625 
L 848.154306 -38.85625 
L 848.154306 -327.00145 
L 848.154306 -327.00145 
L 445.784106 -327.00145 
z
" style="stroke: #b6d7a8; stroke-opacity: 0.07; stroke-width: 0.8"/>
    </defs>
    <g clip-path="url(#pc6df4bb9f9)">
     <use xlink:href="#mda4bfe3b63" x="0" y="638.984462" style="fill: #b6d7a8; fill-opacity: 0.07; stroke: #b6d7a8; stroke-opacity: 0.07; stroke-width: 0.8"/>
    </g>
   </g>
   <g id="FillBetweenPolyCollection_3">
    <defs>
     <path id="m16e8712ae2" d="M 43.413906 -615.14665 
L 43.413906 -327.00145 
L 445.784106 -327.00145 
L 445.784106 -615.14665 
L 445.784106 -615.14665 
L 43.413906 -615.14665 
z
" style="stroke: #f6b26b; stroke-opacity: 0.07; stroke-width: 0.8"/>
    </defs>
    <g clip-path="url(#pc6df4bb9f9)">
     <use xlink:href="#m16e8712ae2" x="0" y="638.984462" style="fill: #f6b26b; fill-opacity: 0.07; stroke: #f6b26b; stroke-opacity: 0.07; stroke-width: 0.8"/>
    </g>
   </g>
   <g id="FillBetweenPolyCollection_4">
    <defs>
     <path id="me6aeac1d5a" d="M 43.413906 -327.00145 
L 43.413906 -38.85625 
L 445.784106 -38.85625 
L 445.784106 -327.00145 
L 445.784106 -327.00145 
L 43.413906 -327.00145 
z
" style="stroke: #006400; stroke-opacity: 0.07; stroke-width: 0.8"/>
    </defs>
    <g clip-path="url(#pc6df4bb9f9)">
     <use xlink:href="#me6aeac1d5a" x="0" y="638.984462" style="fill: #006400; fill-opacity: 0.07; stroke: #006400; stroke-opacity: 0.07; stroke-width: 0.8"/>
    </g>
   </g>
   <g id="matplotlib.axis_1">
    <g id="xtick_1">
     <g id="line2d_1">
      <path d="M 173.281132 600.128212 
L 173.281132 23.837812 
" clip-path="url(#pc6df4bb9f9)" style="fill: none; stroke-dasharray: 2.96,1.28; stroke-dashoffset: 0; stroke: #cccccc; stroke-width: 0.8"/>
     </g>
     <g id="text_1">
      <!-- -40.0 % -->
      <g style="fill: #262626" transform="translate(155.932226 615.266806) scale(0.09 -0.09)">
       <defs>
        <path id="DejaVuSans-2d" d="M 313 2009 
L 1997 2009 
L 1997 1497 
L 313 1497 
L 313 2009 
z
" transform="scale(0.015625)"/>
        <path id="DejaVuSans-34" d="M 2419 4116 
L 825 1625 
L 2419 1625 
L 2419 4116 
z
M 2253 4666 
L 3047 4666 
L 3047 1625 
L 3713 1625 
L 3713 1100 
L 3047 1100 
L 3047 0 
L 2419 0 
L 2419 1100 
L 313 1100 
L 313 1709 
L 2253 4666 
z
" transform="scale(0.015625)"/>
        <path id="DejaVuSans-30" d="M 2034 4250 
Q 1547 4250 1301 3770 
Q 1056 3291 1056 2328 
Q 1056 1369 1301 889 
Q 1547 409 2034 409 
Q 2525 409 2770 889 
Q 3016 1369 3016 2328 
Q 3016 3291 2770 3770 
Q 2525 4250 2034 4250 
z
M 2034 4750 
Q 2819 4750 3233 4129 
Q 3647 3509 3647 2328 
Q 3647 1150 3233 529 
Q 2819 -91 2034 -91 
Q 1250 -91 836 529 
Q 422 1150 422 2328 
Q 422 3509 836 4129 
Q 1250 4750 2034 4750 
z
" transform="scale(0.015625)"/>
        <path id="DejaVuSans-2e" d="M 684 794 
L 1344 794 
L 1344 0 
L 684 0 
L 684 794 
z
" transform="scale(0.015625)"/>
        <path id="DejaVuSans-20" transform="scale(0.015625)"/>
        <path id="DejaVuSans-25" d="M 4653 2053 
Q 4381 2053 4226 1822 
Q 4072 1591 4072 1178 
Q 4072 772 4226 539 
Q 4381 306 4653 306 
Q 4919 306 5073 539 
Q 5228 772 5228 1178 
Q 5228 1588 5073 1820 
Q 4919 2053 4653 2053 
z
M 4653 2450 
Q 5147 2450 5437 2106 
Q 5728 1763 5728 1178 
Q 5728 594 5436 251 
Q 5144 -91 4653 -91 
Q 4153 -91 3862 251 
Q 3572 594 3572 1178 
Q 3572 1766 3864 2108 
Q 4156 2450 4653 2450 
z
M 1428 4353 
Q 1159 4353 1004 4120 
Q 850 3888 850 3481 
Q 850 3069 1003 2837 
Q 1156 2606 1428 2606 
Q 1700 2606 1854 2837 
Q 2009 3069 2009 3481 
Q 2009 3884 1853 4118 
Q 1697 4353 1428 4353 
z
M 4250 4750 
L 4750 4750 
L 1831 -91 
L 1331 -91 
L 4250 4750 
z
M 1428 4750 
Q 1922 4750 2215 4408 
Q 2509 4066 2509 3481 
Q 2509 2891 2217 2550 
Q 1925 2209 1428 2209 
Q 931 2209 642 2551 
Q 353 2894 353 3481 
Q 353 4063 643 4406 
Q 934 4750 1428 4750 
z
" transform="scale(0.015625)"/>
       </defs>
       <use xlink:href="#DejaVuSans-2d"/>
       <use xlink:href="#DejaVuSans-34" transform="translate(36.083984 0)"/>
       <use xlink:href="#DejaVuSans-30" transform="translate(99.707031 0)"/>
       <use xlink:href="#DejaVuSans-2e" transform="translate(163.330078 0)"/>
       <use xlink:href="#DejaVuSans-30" transform="translate(195.117188 0)"/>
       <use xlink:href="#DejaVuSans-20" transform="translate(258.740234 0)"/>
       <use xlink:href="#DejaVuSans-25" transform="translate(290.527344 0)"/>
      </g>
     </g>
    </g>
    <g id="xtick_2">
     <g id="line2d_2">
      <path d="M 309.532619 600.128212 
L 309.532619 23.837812 
" clip-path="url(#pc6df4bb9f9)" style="fill: none; stroke-dasharray: 2.96,1.28; stroke-dashoffset: 0; stroke: #cccccc; stroke-width: 0.8"/>
     </g>
     <g id="text_2">
      <!-- -20.0 % -->
      <g style="fill: #262626" transform="translate(292.183713 615.266806) scale(0.09 -0.09)">
       <defs>
        <path id="DejaVuSans-32" d="M 1228 531 
L 3431 531 
L 3431 0 
L 469 0 
L 469 531 
Q 828 903 1448 1529 
Q 2069 2156 2228 2338 
Q 2531 2678 2651 2914 
Q 2772 3150 2772 3378 
Q 2772 3750 2511 3984 
Q 2250 4219 1831 4219 
Q 1534 4219 1204 4116 
Q 875 4013 500 3803 
L 500 4441 
Q 881 4594 1212 4672 
Q 1544 4750 1819 4750 
Q 2544 4750 2975 4387 
Q 3406 4025 3406 3419 
Q 3406 3131 3298 2873 
Q 3191 2616 2906 2266 
Q 2828 2175 2409 1742 
Q 1991 1309 1228 531 
z
" transform="scale(0.015625)"/>
       </defs>
       <use xlink:href="#DejaVuSans-2d"/>
       <use xlink:href="#DejaVuSans-32" transform="translate(36.083984 0)"/>
       <use xlink:href="#DejaVuSans-30" transform="translate(99.707031 0)"/>
       <use xlink:href="#DejaVuSans-2e" transform="translate(163.330078 0)"/>
       <use xlink:href="#DejaVuSans-30" transform="translate(195.117188 0)"/>
       <use xlink:href="#DejaVuSans-20" transform="translate(258.740234 0)"/>
       <use xlink:href="#DejaVuSans-25" transform="translate(290.527344 0)"/>
      </g>
     </g>
    </g>
    <g id="xtick_3">
     <g id="line2d_3">
      <path d="M 445.784106 600.128212 
L 445.784106 23.837812 
" clip-path="url(#pc6df4bb9f9)" style="fill: none; stroke-dasharray: 2.96,1.28; stroke-dashoffset: 0; stroke: #cccccc; stroke-width: 0.8"/>
     </g>
     <g id="text_3">
      <!-- +0.0 % -->
      <g style="fill: #262626" transform="translate(429.150981 615.266806) scale(0.09 -0.09)">
       <defs>
        <path id="DejaVuSans-2b" d="M 2944 4013 
L 2944 2272 
L 4684 2272 
L 4684 1741 
L 2944 1741 
L 2944 0 
L 2419 0 
L 2419 1741 
L 678 1741 
L 678 2272 
L 2419 2272 
L 2419 4013 
L 2944 4013 
z
" transform="scale(0.015625)"/>
       </defs>
       <use xlink:href="#DejaVuSans-2b"/>
       <use xlink:href="#DejaVuSans-30" transform="translate(83.789062 0)"/>
       <use xlink:href="#DejaVuSans-2e" transform="translate(147.412109 0)"/>
       <use xlink:href="#DejaVuSans-30" transform="translate(179.199219 0)"/>
       <use xlink:href="#DejaVuSans-20" transform="translate(242.822266 0)"/>
       <use xlink:href="#DejaVuSans-25" transform="translate(274.609375 0)"/>
      </g>
     </g>
    </g>
    <g id="xtick_4">
     <g id="line2d_4">
      <path d="M 582.035593 600.128212 
L 582.035593 23.837812 
" clip-path="url(#pc6df4bb9f9)" style="fill: none; stroke-dasharray: 2.96,1.28; stroke-dashoffset: 0; stroke: #cccccc; stroke-width: 0.8"/>
     </g>
     <g id="text_4">
      <!-- +20.0 % -->
      <g style="fill: #262626" transform="translate(562.539343 615.266806) scale(0.09 -0.09)">
       <use xlink:href="#DejaVuSans-2b"/>
       <use xlink:href="#DejaVuSans-32" transform="translate(83.789062 0)"/>
       <use xlink:href="#DejaVuSans-30" transform="translate(147.412109 0)"/>
       <use xlink:href="#DejaVuSans-2e" transform="translate(211.035156 0)"/>
       <use xlink:href="#DejaVuSans-30" transform="translate(242.822266 0)"/>
       <use xlink:href="#DejaVuSans-20" transform="translate(306.445312 0)"/>
       <use xlink:href="#DejaVuSans-25" transform="translate(338.232422 0)"/>
      </g>
     </g>
    </g>
    <g id="xtick_5">
     <g id="line2d_5">
      <path d="M 718.287081 600.128212 
L 718.287081 23.837812 
" clip-path="url(#pc6df4bb9f9)" style="fill: none; stroke-dasharray: 2.96,1.28; stroke-dashoffset: 0; stroke: #cccccc; stroke-width: 0.8"/>
     </g>
     <g id="text_5">
      <!-- +40.0 % -->
      <g style="fill: #262626" transform="translate(698.790831 615.266806) scale(0.09 -0.09)">
       <use xlink:href="#DejaVuSans-2b"/>
       <use xlink:href="#DejaVuSans-34" transform="translate(83.789062 0)"/>
       <use xlink:href="#DejaVuSans-30" transform="translate(147.412109 0)"/>
       <use xlink:href="#DejaVuSans-2e" transform="translate(211.035156 0)"/>
       <use xlink:href="#DejaVuSans-30" transform="translate(242.822266 0)"/>
       <use xlink:href="#DejaVuSans-20" transform="translate(306.445312 0)"/>
       <use xlink:href="#DejaVuSans-25" transform="translate(338.232422 0)"/>
      </g>
     </g>
    </g>
    <g id="text_6">
     <!-- Momentum prix 3 mois (%) -->
     <g style="fill: #262626" transform="translate(370.78645 629.496806) scale(0.11 -0.11)">
      <defs>
       <path id="DejaVuSans-4d" d="M 628 4666 
L 1569 4666 
L 2759 1491 
L 3956 4666 
L 4897 4666 
L 4897 0 
L 4281 0 
L 4281 4097 
L 3078 897 
L 2444 897 
L 1241 4097 
L 1241 0 
L 628 0 
L 628 4666 
z
" transform="scale(0.015625)"/>
       <path id="DejaVuSans-6f" d="M 1959 3097 
Q 1497 3097 1228 2736 
Q 959 2375 959 1747 
Q 959 1119 1226 758 
Q 1494 397 1959 397 
Q 2419 397 2687 759 
Q 2956 1122 2956 1747 
Q 2956 2369 2687 2733 
Q 2419 3097 1959 3097 
z
M 1959 3584 
Q 2709 3584 3137 3096 
Q 3566 2609 3566 1747 
Q 3566 888 3137 398 
Q 2709 -91 1959 -91 
Q 1206 -91 779 398 
Q 353 888 353 1747 
Q 353 2609 779 3096 
Q 1206 3584 1959 3584 
z
" transform="scale(0.015625)"/>
       <path id="DejaVuSans-6d" d="M 3328 2828 
Q 3544 3216 3844 3400 
Q 4144 3584 4550 3584 
Q 5097 3584 5394 3201 
Q 5691 2819 5691 2113 
L 5691 0 
L 5113 0 
L 5113 2094 
Q 5113 2597 4934 2840 
Q 4756 3084 4391 3084 
Q 3944 3084 3684 2787 
Q 3425 2491 3425 1978 
L 3425 0 
L 2847 0 
L 2847 2094 
Q 2847 2600 2669 2842 
Q 2491 3084 2119 3084 
Q 1678 3084 1418 2786 
Q 1159 2488 1159 1978 
L 1159 0 
L 581 0 
L 581 3500 
L 1159 3500 
L 1159 2956 
Q 1356 3278 1631 3431 
Q 1906 3584 2284 3584 
Q 2666 3584 2933 3390 
Q 3200 3197 3328 2828 
z
" transform="scale(0.015625)"/>
       <path id="DejaVuSans-65" d="M 3597 1894 
L 3597 1613 
L 953 1613 
Q 991 1019 1311 708 
Q 1631 397 2203 397 
Q 2534 397 2845 478 
Q 3156 559 3463 722 
L 3463 178 
Q 3153 47 2828 -22 
Q 2503 -91 2169 -91 
Q 1331 -91 842 396 
Q 353 884 353 1716 
Q 353 2575 817 3079 
Q 1281 3584 2069 3584 
Q 2775 3584 3186 3129 
Q 3597 2675 3597 1894 
z
M 3022 2063 
Q 3016 2534 2758 2815 
Q 2500 3097 2075 3097 
Q 1594 3097 1305 2825 
Q 1016 2553 972 2059 
L 3022 2063 
z
" transform="scale(0.015625)"/>
       <path id="DejaVuSans-6e" d="M 3513 2113 
L 3513 0 
L 2938 0 
L 2938 2094 
Q 2938 2591 2744 2837 
Q 2550 3084 2163 3084 
Q 1697 3084 1428 2787 
Q 1159 2491 1159 1978 
L 1159 0 
L 581 0 
L 581 3500 
L 1159 3500 
L 1159 2956 
Q 1366 3272 1645 3428 
Q 1925 3584 2291 3584 
Q 2894 3584 3203 3211 
Q 3513 2838 3513 2113 
z
" transform="scale(0.015625)"/>
       <path id="DejaVuSans-74" d="M 1172 4494 
L 1172 3500 
L 2356 3500 
L 2356 3053 
L 1172 3053 
L 1172 1153 
Q 1172 725 1289 603 
Q 1406 481 1766 481 
L 2356 481 
L 2356 0 
L 1766 0 
Q 1100 0 847 248 
Q 594 497 594 1153 
L 594 3053 
L 172 3053 
L 172 3500 
L 594 3500 
L 594 4494 
L 1172 4494 
z
" transform="scale(0.015625)"/>
       <path id="DejaVuSans-75" d="M 544 1381 
L 544 3500 
L 1119 3500 
L 1119 1403 
Q 1119 906 1312 657 
Q 1506 409 1894 409 
Q 2359 409 2629 706 
Q 2900 1003 2900 1516 
L 2900 3500 
L 3475 3500 
L 3475 0 
L 2900 0 
L 2900 538 
Q 2691 219 2414 64 
Q 2138 -91 1772 -91 
Q 1169 -91 856 284 
Q 544 659 544 1381 
z
M 1991 3584 
L 1991 3584 
z
" transform="scale(0.015625)"/>
       <path id="DejaVuSans-70" d="M 1159 525 
L 1159 -1331 
L 581 -1331 
L 581 3500 
L 1159 3500 
L 1159 2969 
Q 1341 3281 1617 3432 
Q 1894 3584 2278 3584 
Q 2916 3584 3314 3078 
Q 3713 2572 3713 1747 
Q 3713 922 3314 415 
Q 2916 -91 2278 -91 
Q 1894 -91 1617 61 
Q 1341 213 1159 525 
z
M 3116 1747 
Q 3116 2381 2855 2742 
Q 2594 3103 2138 3103 
Q 1681 3103 1420 2742 
Q 1159 2381 1159 1747 
Q 1159 1113 1420 752 
Q 1681 391 2138 391 
Q 2594 391 2855 752 
Q 3116 1113 3116 1747 
z
" transform="scale(0.015625)"/>
       <path id="DejaVuSans-72" d="M 2631 2963 
Q 2534 3019 2420 3045 
Q 2306 3072 2169 3072 
Q 1681 3072 1420 2755 
Q 1159 2438 1159 1844 
L 1159 0 
L 581 0 
L 581 3500 
L 1159 3500 
L 1159 2956 
Q 1341 3275 1631 3429 
Q 1922 3584 2338 3584 
Q 2397 3584 2469 3576 
Q 2541 3569 2628 3553 
L 2631 2963 
z
" transform="scale(0.015625)"/>
       <path id="DejaVuSans-69" d="M 603 3500 
L 1178 3500 
L 1178 0 
L 603 0 
L 603 3500 
z
M 603 4863 
L 1178 4863 
L 1178 4134 
L 603 4134 
L 603 4863 
z
" transform="scale(0.015625)"/>
       <path id="DejaVuSans-78" d="M 3513 3500 
L 2247 1797 
L 3578 0 
L 2900 0 
L 1881 1375 
L 863 0 
L 184 0 
L 1544 1831 
L 300 3500 
L 978 3500 
L 1906 2253 
L 2834 3500 
L 3513 3500 
z
" transform="scale(0.015625)"/>
       <path id="DejaVuSans-33" d="M 2597 2516 
Q 3050 2419 3304 2112 
Q 3559 1806 3559 1356 
Q 3559 666 3084 287 
Q 2609 -91 1734 -91 
Q 1441 -91 1130 -33 
Q 819 25 488 141 
L 488 750 
Q 750 597 1062 519 
Q 1375 441 1716 441 
Q 2309 441 2620 675 
Q 2931 909 2931 1356 
Q 2931 1769 2642 2001 
Q 2353 2234 1838 2234 
L 1294 2234 
L 1294 2753 
L 1863 2753 
Q 2328 2753 2575 2939 
Q 2822 3125 2822 3475 
Q 2822 3834 2567 4026 
Q 2313 4219 1838 4219 
Q 1578 4219 1281 4162 
Q 984 4106 628 3988 
L 628 4550 
Q 988 4650 1302 4700 
Q 1616 4750 1894 4750 
Q 2613 4750 3031 4423 
Q 3450 4097 3450 3541 
Q 3450 3153 3228 2886 
Q 3006 2619 2597 2516 
z
" transform="scale(0.015625)"/>
       <path id="DejaVuSans-73" d="M 2834 3397 
L 2834 2853 
Q 2591 2978 2328 3040 
Q 2066 3103 1784 3103 
Q 1356 3103 1142 2972 
Q 928 2841 928 2578 
Q 928 2378 1081 2264 
Q 1234 2150 1697 2047 
L 1894 2003 
Q 2506 1872 2764 1633 
Q 3022 1394 3022 966 
Q 3022 478 2636 193 
Q 2250 -91 1575 -91 
Q 1294 -91 989 -36 
Q 684 19 347 128 
L 347 722 
Q 666 556 975 473 
Q 1284 391 1588 391 
Q 1994 391 2212 530 
Q 2431 669 2431 922 
Q 2431 1156 2273 1281 
Q 2116 1406 1581 1522 
L 1381 1569 
Q 847 1681 609 1914 
Q 372 2147 372 2553 
Q 372 3047 722 3315 
Q 1072 3584 1716 3584 
Q 2034 3584 2315 3537 
Q 2597 3491 2834 3397 
z
" transform="scale(0.015625)"/>
       <path id="DejaVuSans-28" d="M 1984 4856 
Q 1566 4138 1362 3434 
Q 1159 2731 1159 2009 
Q 1159 1288 1364 580 
Q 1569 -128 1984 -844 
L 1484 -844 
Q 1016 -109 783 600 
Q 550 1309 550 2009 
Q 550 2706 781 3412 
Q 1013 4119 1484 4856 
L 1984 4856 
z
" transform="scale(0.015625)"/>
       <path id="DejaVuSans-29" d="M 513 4856 
L 1013 4856 
Q 1481 4119 1714 3412 
Q 1947 2706 1947 2009 
Q 1947 1309 1714 600 
Q 1481 -109 1013 -844 
L 513 -844 
Q 928 -128 1133 580 
Q 1338 1288 1338 2009 
Q 1338 2731 1133 3434 
Q 928 4138 513 4856 
z
" transform="scale(0.015625)"/>
      </defs>
      <use xlink:href="#DejaVuSans-4d"/>
      <use xlink:href="#DejaVuSans-6f" transform="translate(86.279297 0)"/>
      <use xlink:href="#DejaVuSans-6d" transform="translate(147.460938 0)"/>
      <use xlink:href="#DejaVuSans-65" transform="translate(244.873047 0)"/>
      <use xlink:href="#DejaVuSans-6e" transform="translate(306.396484 0)"/>
      <use xlink:href="#DejaVuSans-74" transform="translate(369.775391 0)"/>
      <use xlink:href="#DejaVuSans-75" transform="translate(408.984375 0)"/>
      <use xlink:href="#DejaVuSans-6d" transform="translate(472.363281 0)"/>
      <use xlink:href="#DejaVuSans-20" transform="translate(569.775391 0)"/>
      <use xlink:href="#DejaVuSans-70" transform="translate(601.5625 0)"/>
      <use xlink:href="#DejaVuSans-72" transform="translate(665.039062 0)"/>
      <use xlink:href="#DejaVuSans-69" transform="translate(706.152344 0)"/>
      <use xlink:href="#DejaVuSans-78" transform="translate(733.935547 0)"/>
      <use xlink:href="#DejaVuSans-20" transform="translate(793.115234 0)"/>
      <use xlink:href="#DejaVuSans-33" transform="translate(824.902344 0)"/>
      <use xlink:href="#DejaVuSans-20" transform="translate(888.525391 0)"/>
      <use xlink:href="#DejaVuSans-6d" transform="translate(920.3125 0)"/>
      <use xlink:href="#DejaVuSans-6f" transform="translate(1017.724609 0)"/>
      <use xlink:href="#DejaVuSans-69" transform="translate(1078.90625 0)"/>
      <use xlink:href="#DejaVuSans-73" transform="translate(1106.689453 0)"/>
      <use xlink:href="#DejaVuSans-20" transform="translate(1158.789062 0)"/>
      <use xlink:href="#DejaVuSans-28" transform="translate(1190.576172 0)"/>
      <use xlink:href="#DejaVuSans-25" transform="translate(1229.589844 0)"/>
      <use xlink:href="#DejaVuSans-29" transform="translate(1324.609375 0)"/>
     </g>
    </g>
   </g>
   <g id="matplotlib.axis_2">
    <g id="ytick_1">
     <g id="line2d_6">
      <path d="M 43.413906 547.314677 
L 848.154306 547.314677 
" clip-path="url(#pc6df4bb9f9)" style="fill: none; stroke-dasharray: 2.96,1.28; stroke-dashoffset: 0; stroke: #cccccc; stroke-width: 0.8"/>
     </g>
     <g id="text_7">
      <!-- −4 -->
      <g style="fill: #262626" transform="translate(21.845938 550.733973) scale(0.09 -0.09)">
       <defs>
        <path id="DejaVuSans-2212" d="M 678 2272 
L 4684 2272 
L 4684 1741 
L 678 1741 
L 678 2272 
z
" transform="scale(0.015625)"/>
       </defs>
       <use xlink:href="#DejaVuSans-2212"/>
       <use xlink:href="#DejaVuSans-34" transform="translate(83.789062 0)"/>
      </g>
     </g>
    </g>
    <g id="ytick_2">
     <g id="line2d_7">
      <path d="M 43.413906 442.722826 
L 848.154306 442.722826 
" clip-path="url(#pc6df4bb9f9)" style="fill: none; stroke-dasharray: 2.96,1.28; stroke-dashoffset: 0; stroke: #cccccc; stroke-width: 0.8"/>
     </g>
     <g id="text_8">
      <!-- −2 -->
      <g style="fill: #262626" transform="translate(21.845938 446.142123) scale(0.09 -0.09)">
       <use xlink:href="#DejaVuSans-2212"/>
       <use xlink:href="#DejaVuSans-32" transform="translate(83.789062 0)"/>
      </g>
     </g>
    </g>
    <g id="ytick_3">
     <g id="line2d_8">
      <path d="M 43.413906 338.130975 
L 848.154306 338.130975 
" clip-path="url(#pc6df4bb9f9)" style="fill: none; stroke-dasharray: 2.96,1.28; stroke-dashoffset: 0; stroke: #cccccc; stroke-width: 0.8"/>
     </g>
     <g id="text_9">
      <!-- 0 -->
      <g style="fill: #262626" transform="translate(29.387656 341.550272) scale(0.09 -0.09)">
       <use xlink:href="#DejaVuSans-30"/>
      </g>
     </g>
    </g>
    <g id="ytick_4">
     <g id="line2d_9">
      <path d="M 43.413906 233.539124 
L 848.154306 233.539124 
" clip-path="url(#pc6df4bb9f9)" style="fill: none; stroke-dasharray: 2.96,1.28; stroke-dashoffset: 0; stroke: #cccccc; stroke-width: 0.8"/>
     </g>
     <g id="text_10">
      <!-- 2 -->
      <g style="fill: #262626" transform="translate(29.387656 236.958421) scale(0.09 -0.09)">
       <use xlink:href="#DejaVuSans-32"/>
      </g>
     </g>
    </g>
    <g id="ytick_5">
     <g id="line2d_10">
      <path d="M 43.413906 128.947274 
L 848.154306 128.947274 
" clip-path="url(#pc6df4bb9f9)" style="fill: none; stroke-dasharray: 2.96,1.28; stroke-dashoffset: 0; stroke: #cccccc; stroke-width: 0.8"/>
     </g>
     <g id="text_11">
      <!-- 4 -->
      <g style="fill: #262626" transform="translate(29.387656 132.366571) scale(0.09 -0.09)">
       <use xlink:href="#DejaVuSans-34"/>
      </g>
     </g>
    </g>
    <g id="ytick_6">
     <g id="line2d_11">
      <path d="M 43.413906 24.355423 
L 848.154306 24.355423 
" clip-path="url(#pc6df4bb9f9)" style="fill: none; stroke-dasharray: 2.96,1.28; stroke-dashoffset: 0; stroke: #cccccc; stroke-width: 0.8"/>
     </g>
     <g id="text_12">
      <!-- 6 -->
      <g style="fill: #262626" transform="translate(29.387656 27.77472) scale(0.09 -0.09)">
       <defs>
        <path id="DejaVuSans-36" d="M 2113 2584 
Q 1688 2584 1439 2293 
Q 1191 2003 1191 1497 
Q 1191 994 1439 701 
Q 1688 409 2113 409 
Q 2538 409 2786 701 
Q 3034 994 3034 1497 
Q 3034 2003 2786 2293 
Q 2538 2584 2113 2584 
z
M 3366 4563 
L 3366 3988 
Q 3128 4100 2886 4159 
Q 2644 4219 2406 4219 
Q 1781 4219 1451 3797 
Q 1122 3375 1075 2522 
Q 1259 2794 1537 2939 
Q 1816 3084 2150 3084 
Q 2853 3084 3261 2657 
Q 3669 2231 3669 1497 
Q 3669 778 3244 343 
Q 2819 -91 2113 -91 
Q 1303 -91 875 529 
Q 447 1150 447 2328 
Q 447 3434 972 4092 
Q 1497 4750 2381 4750 
Q 2619 4750 2861 4703 
Q 3103 4656 3366 4563 
z
" transform="scale(0.015625)"/>
       </defs>
       <use xlink:href="#DejaVuSans-36"/>
      </g>
     </g>
    </g>
    <g id="text_13">
     <!-- Volume z-score -->
     <g style="fill: #262626" transform="translate(15.558281 353.834575) rotate(-90) scale(0.11 -0.11)">
      <defs>
       <path id="DejaVuSans-56" d="M 1831 0 
L 50 4666 
L 709 4666 
L 2188 738 
L 3669 4666 
L 4325 4666 
L 2547 0 
L 1831 0 
z
" transform="scale(0.015625)"/>
       <path id="DejaVuSans-6c" d="M 603 4863 
L 1178 4863 
L 1178 0 
L 603 0 
L 603 4863 
z
" transform="scale(0.015625)"/>
       <path id="DejaVuSans-7a" d="M 353 3500 
L 3084 3500 
L 3084 2975 
L 922 459 
L 3084 459 
L 3084 0 
L 275 0 
L 275 525 
L 2438 3041 
L 353 3041 
L 353 3500 
z
" transform="scale(0.015625)"/>
       <path id="DejaVuSans-63" d="M 3122 3366 
L 3122 2828 
Q 2878 2963 2633 3030 
Q 2388 3097 2138 3097 
Q 1578 3097 1268 2742 
Q 959 2388 959 1747 
Q 959 1106 1268 751 
Q 1578 397 2138 397 
Q 2388 397 2633 464 
Q 2878 531 3122 666 
L 3122 134 
Q 2881 22 2623 -34 
Q 2366 -91 2075 -91 
Q 1284 -91 818 406 
Q 353 903 353 1747 
Q 353 2603 823 3093 
Q 1294 3584 2113 3584 
Q 2378 3584 2631 3529 
Q 2884 3475 3122 3366 
z
" transform="scale(0.015625)"/>
      </defs>
      <use xlink:href="#DejaVuSans-56"/>
      <use xlink:href="#DejaVuSans-6f" transform="translate(60.658203 0)"/>
      <use xlink:href="#DejaVuSans-6c" transform="translate(121.839844 0)"/>
      <use xlink:href="#DejaVuSans-75" transform="translate(149.623047 0)"/>
      <use xlink:href="#DejaVuSans-6d" transform="translate(213.001953 0)"/>
      <use xlink:href="#DejaVuSans-65" transform="translate(310.414062 0)"/>
      <use xlink:href="#DejaVuSans-20" transform="translate(371.9375 0)"/>
      <use xlink:href="#DejaVuSans-7a" transform="translate(403.724609 0)"/>
      <use xlink:href="#DejaVuSans-2d" transform="translate(456.214844 0)"/>
      <use xlink:href="#DejaVuSans-73" transform="translate(492.298828 0)"/>
      <use xlink:href="#DejaVuSans-63" transform="translate(544.398438 0)"/>
      <use xlink:href="#DejaVuSans-6f" transform="translate(599.378906 0)"/>
      <use xlink:href="#DejaVuSans-72" transform="translate(660.560547 0)"/>
      <use xlink:href="#DejaVuSans-65" transform="translate(699.423828 0)"/>
     </g>
    </g>
   </g>
   <g id="patch_3">
    <path d="M 43.413906 311.983013 
L 848.154306 311.983013 
L 848.154306 23.837813 
L 43.413906 23.837813 
L 43.413906 311.983013 
z
" clip-path="url(#pc6df4bb9f9)" style="fill: none; opacity: 0"/>
   </g>
   <g id="line2d_12">
    <path d="M 445.784106 600.128212 
L 445.784106 23.837812 
" clip-path="url(#pc6df4bb9f9)" style="fill: none; stroke-dasharray: 3.7,1.6; stroke-dashoffset: 0; stroke: #7f7f7f; stroke-opacity: 0.6"/>
   </g>
   <g id="line2d_13">
    <path d="M 43.413906 311.983013 
L 848.154306 311.983013 
" clip-path="url(#pc6df4bb9f9)" style="fill: none; stroke-dasharray: 3.7,1.6; stroke-dashoffset: 0; stroke: #7f7f7f; stroke-opacity: 0.6"/>
   </g>
   <g id="text_14">
    <!-- BOOM -->
    <g style="fill: #d62728; opacity: 0.35" transform="translate(648.070607 98.909425) scale(0.11 -0.11)">
     <defs>
      <path id="DejaVuSans-Bold-42" d="M 2456 2859 
Q 2741 2859 2887 2984 
Q 3034 3109 3034 3353 
Q 3034 3594 2887 3720 
Q 2741 3847 2456 3847 
L 1791 3847 
L 1791 2859 
L 2456 2859 
z
M 2497 819 
Q 2859 819 3042 972 
Q 3225 1125 3225 1434 
Q 3225 1738 3044 1889 
Q 2863 2041 2497 2041 
L 1791 2041 
L 1791 819 
L 2497 819 
z
M 3616 2497 
Q 4003 2384 4215 2081 
Q 4428 1778 4428 1338 
Q 4428 663 3972 331 
Q 3516 0 2584 0 
L 588 0 
L 588 4666 
L 2394 4666 
Q 3366 4666 3802 4372 
Q 4238 4078 4238 3431 
Q 4238 3091 4078 2852 
Q 3919 2613 3616 2497 
z
" transform="scale(0.015625)"/>
      <path id="DejaVuSans-Bold-4f" d="M 2719 3878 
Q 2169 3878 1866 3472 
Q 1563 3066 1563 2328 
Q 1563 1594 1866 1187 
Q 2169 781 2719 781 
Q 3272 781 3575 1187 
Q 3878 1594 3878 2328 
Q 3878 3066 3575 3472 
Q 3272 3878 2719 3878 
z
M 2719 4750 
Q 3844 4750 4481 4106 
Q 5119 3463 5119 2328 
Q 5119 1197 4481 553 
Q 3844 -91 2719 -91 
Q 1597 -91 958 553 
Q 319 1197 319 2328 
Q 319 3463 958 4106 
Q 1597 4750 2719 4750 
z
" transform="scale(0.015625)"/>
      <path id="DejaVuSans-Bold-4d" d="M 588 4666 
L 2119 4666 
L 3181 2169 
L 4250 4666 
L 5778 4666 
L 5778 0 
L 4641 0 
L 4641 3413 
L 3566 897 
L 2803 897 
L 1728 3413 
L 1728 0 
L 588 0 
L 588 4666 
z
" transform="scale(0.015625)"/>
     </defs>
     <use xlink:href="#DejaVuSans-Bold-42"/>
     <use xlink:href="#DejaVuSans-Bold-4f" transform="translate(76.220703 0)"/>
     <use xlink:href="#DejaVuSans-Bold-4f" transform="translate(161.230469 0)"/>
     <use xlink:href="#DejaVuSans-Bold-4d" transform="translate(246.240234 0)"/>
    </g>
   </g>
   <g id="text_15">
    <!-- BULL -->
    <g style="fill: #38761d; opacity: 0.35" transform="translate(651.420451 473.498185) scale(0.11 -0.11)">
     <defs>
      <path id="DejaVuSans-Bold-55" d="M 588 4666 
L 1791 4666 
L 1791 1869 
Q 1791 1291 1980 1042 
Q 2169 794 2597 794 
Q 3028 794 3217 1042 
Q 3406 1291 3406 1869 
L 3406 4666 
L 4609 4666 
L 4609 1869 
Q 4609 878 4112 393 
Q 3616 -91 2597 -91 
Q 1581 -91 1084 393 
Q 588 878 588 1869 
L 588 4666 
z
" transform="scale(0.015625)"/>
      <path id="DejaVuSans-Bold-4c" d="M 588 4666 
L 1791 4666 
L 1791 909 
L 3903 909 
L 3903 0 
L 588 0 
L 588 4666 
z
" transform="scale(0.015625)"/>
     </defs>
     <use xlink:href="#DejaVuSans-Bold-42"/>
     <use xlink:href="#DejaVuSans-Bold-55" transform="translate(76.220703 0)"/>
     <use xlink:href="#DejaVuSans-Bold-4c" transform="translate(157.421875 0)"/>
     <use xlink:href="#DejaVuSans-Bold-4c" transform="translate(221.142578 0)"/>
    </g>
   </g>
   <g id="text_16">
    <!-- CAPITULATION -->
    <g style="fill: #b45f06; opacity: 0.35" transform="translate(179.480184 98.909425) scale(0.11 -0.11)">
     <defs>
      <path id="DejaVuSans-Bold-43" d="M 4288 256 
Q 3956 84 3597 -3 
Q 3238 -91 2847 -91 
Q 1681 -91 1000 561 
Q 319 1213 319 2328 
Q 319 3447 1000 4098 
Q 1681 4750 2847 4750 
Q 3238 4750 3597 4662 
Q 3956 4575 4288 4403 
L 4288 3438 
Q 3953 3666 3628 3772 
Q 3303 3878 2944 3878 
Q 2300 3878 1931 3465 
Q 1563 3053 1563 2328 
Q 1563 1606 1931 1193 
Q 2300 781 2944 781 
Q 3303 781 3628 887 
Q 3953 994 4288 1222 
L 4288 256 
z
" transform="scale(0.015625)"/>
      <path id="DejaVuSans-Bold-41" d="M 3419 850 
L 1538 850 
L 1241 0 
L 31 0 
L 1759 4666 
L 3194 4666 
L 4922 0 
L 3713 0 
L 3419 850 
z
M 1838 1716 
L 3116 1716 
L 2478 3572 
L 1838 1716 
z
" transform="scale(0.015625)"/>
      <path id="DejaVuSans-Bold-50" d="M 588 4666 
L 2584 4666 
Q 3475 4666 3951 4270 
Q 4428 3875 4428 3144 
Q 4428 2409 3951 2014 
Q 3475 1619 2584 1619 
L 1791 1619 
L 1791 0 
L 588 0 
L 588 4666 
z
M 1791 3794 
L 1791 2491 
L 2456 2491 
Q 2806 2491 2997 2661 
Q 3188 2831 3188 3144 
Q 3188 3456 2997 3625 
Q 2806 3794 2456 3794 
L 1791 3794 
z
" transform="scale(0.015625)"/>
      <path id="DejaVuSans-Bold-49" d="M 588 4666 
L 1791 4666 
L 1791 0 
L 588 0 
L 588 4666 
z
" transform="scale(0.015625)"/>
      <path id="DejaVuSans-Bold-54" d="M 31 4666 
L 4331 4666 
L 4331 3756 
L 2784 3756 
L 2784 0 
L 1581 0 
L 1581 3756 
L 31 3756 
L 31 4666 
z
" transform="scale(0.015625)"/>
      <path id="DejaVuSans-Bold-4e" d="M 588 4666 
L 1931 4666 
L 3628 1466 
L 3628 4666 
L 4769 4666 
L 4769 0 
L 3425 0 
L 1728 3200 
L 1728 0 
L 588 0 
L 588 4666 
z
" transform="scale(0.015625)"/>
     </defs>
     <use xlink:href="#DejaVuSans-Bold-43"/>
     <use xlink:href="#DejaVuSans-Bold-41" transform="translate(73.388672 0)"/>
     <use xlink:href="#DejaVuSans-Bold-50" transform="translate(150.78125 0)"/>
     <use xlink:href="#DejaVuSans-Bold-49" transform="translate(224.072266 0)"/>
     <use xlink:href="#DejaVuSans-Bold-54" transform="translate(261.279297 0)"/>
     <use xlink:href="#DejaVuSans-Bold-55" transform="translate(329.492188 0)"/>
     <use xlink:href="#DejaVuSans-Bold-4c" transform="translate(410.693359 0)"/>
     <use xlink:href="#DejaVuSans-Bold-41" transform="translate(474.414062 0)"/>
     <use xlink:href="#DejaVuSans-Bold-54" transform="translate(544.056641 0)"/>
     <use xlink:href="#DejaVuSans-Bold-49" transform="translate(612.269531 0)"/>
     <use xlink:href="#DejaVuSans-Bold-4f" transform="translate(649.476562 0)"/>
     <use xlink:href="#DejaVuSans-Bold-4e" transform="translate(734.486328 0)"/>
    </g>
   </g>
   <g id="text_17">
    <!-- BOTTOM -->
    <g style="fill: #006400; opacity: 0.35" transform="translate(197.835574 473.498185) scale(0.11 -0.11)">
     <use xlink:href="#DejaVuSans-Bold-42"/>
     <use xlink:href="#DejaVuSans-Bold-4f" transform="translate(76.220703 0)"/>
     <use xlink:href="#DejaVuSans-Bold-54" transform="translate(161.230469 0)"/>
     <use xlink:href="#DejaVuSans-Bold-54" transform="translate(231.693359 0)"/>
     <use xlink:href="#DejaVuSans-Bold-4f" transform="translate(299.90625 0)"/>
     <use xlink:href="#DejaVuSans-Bold-4d" transform="translate(384.916016 0)"/>
    </g>
   </g>
   <g id="patch_4">
    <path d="M 374.556659 351.826907 
Q 414.046643 375.770888 452.102588 398.845367 
" style="fill: none; opacity: 0.6; stroke: #4c72b0; stroke-width: 1.5; stroke-linecap: round"/>
    <path d="M 449.585674 394.849386 
L 452.102588 398.845367 
L 447.395655 398.461309 
" style="fill: none; opacity: 0.6; stroke: #4c72b0; stroke-width: 1.5; stroke-linecap: round"/>
   </g>
   <g id="patch_5">
    <path d="M 453.578673 399.649602 
Q 438.611533 389.76085 425.043627 380.796568 
" style="fill: none; stroke: #4c72b0; stroke-width: 1.5; stroke-linecap: round"/>
    <path d="M 427.403652 384.887168 
L 425.043627 380.796568 
L 429.732122 381.362908 
" style="fill: none; stroke: #4c72b0; stroke-width: 1.5; stroke-linecap: round"/>
   </g>
   <g id="patch_6">
    <path d="M 327.691788 368.755134 
Q 451.616687 381.406442 573.873206 393.887427 
" style="fill: none; opacity: 0.6; stroke: #dd8452; stroke-width: 1.5; stroke-linecap: round"/>
    <path d="M 569.885543 391.357356 
L 573.873206 393.887427 
L 569.456551 395.559515 
" style="fill: none; opacity: 0.6; stroke: #dd8452; stroke-width: 1.5; stroke-linecap: round"/>
   </g>
   <g id="patch_7">
    <path d="M 576.253323 392.720203 
Q 515.844599 319.707827 456.504949 247.987574 
" style="fill: none; stroke: #dd8452; stroke-width: 1.5; stroke-linecap: round"/>
    <path d="M 457.570389 252.588395 
L 456.504949 247.987574 
L 460.82487 249.895714 
" style="fill: none; stroke: #dd8452; stroke-width: 1.5; stroke-linecap: round"/>
   </g>
   <g id="patch_8">
    <path d="M 433.877583 332.599398 
Q 422.923197 350.637649 412.839314 367.242469 
" style="fill: none; opacity: 0.6; stroke: #55a868; stroke-width: 1.5; stroke-linecap: round"/>
    <path d="M 416.837053 364.728348 
L 412.839314 367.242469 
L 413.226661 362.535805 
" style="fill: none; opacity: 0.6; stroke: #55a868; stroke-width: 1.5; stroke-linecap: round"/>
   </g>
   <g id="patch_9">
    <path d="M 410.993337 368.386365 
Q 412.218784 329.09675 413.391949 291.48337 
" style="fill: none; stroke: #55a868; stroke-width: 1.5; stroke-linecap: round"/>
    <path d="M 411.149293 295.639476 
L 413.391949 291.48337 
L 415.37124 295.771159 
" style="fill: none; stroke: #55a868; stroke-width: 1.5; stroke-linecap: round"/>
   </g>
   <g id="patch_10">
    <path d="M 43.413906 600.128213 
L 43.413906 23.837813 
" style="fill: none; stroke: #ffffff; stroke-linejoin: miter; stroke-linecap: square"/>
   </g>
   <g id="patch_11">
    <path d="M 848.154306 600.128213 
L 848.154306 23.837813 
" style="fill: none; stroke: #ffffff; stroke-linejoin: miter; stroke-linecap: square"/>
   </g>
   <g id="patch_12">
    <path d="M 43.413906 600.128212 
L 848.154306 600.128212 
" style="fill: none; stroke: #ffffff; stroke-linejoin: miter; stroke-linecap: square"/>
   </g>
   <g id="patch_13">
    <path d="M 43.413906 23.837812 
L 848.154306 23.837812 
" style="fill: none; stroke: #ffffff; stroke-linejoin: miter; stroke-linecap: square"/>
   </g>
   <g id="PathCollection_1">
    <path d="M 538.346565 270.327614 
C 539.799142 270.327614 541.192421 269.750499 542.219548 268.723372 
C 543.246675 267.696244 543.82379 266.302965 543.82379 264.850388 
C 543.82379 263.397811 543.246675 262.004532 542.219548 260.977405 
C 541.192421 259.950278 539.799142 259.373163 538.346565 259.373163 
C 536.893988 259.373163 535.500709 259.950278 534.473581 260.977405 
C 533.446454 262.004532 532.869339 263.397811 532.869339 264.850388 
C 532.869339 266.302965 533.446454 267.696244 534.473581 268.723372 
C 535.500709 269.750499 536.893988 270.327614 538.346565 270.327614 
z
" clip-path="url(#pc6df4bb9f9)" style="fill: #4c72b0; fill-opacity: 0.15"/>
   </g>
   <g id="PathCollection_2">
    <path d="M 494.66529 398.975545 
C 496.314116 398.975545 497.895633 398.320459 499.06153 397.154562 
C 500.227427 395.988666 500.882512 394.407149 500.882512 392.758322 
C 500.882512 391.109495 500.227427 389.527978 499.06153 388.362081 
C 497.895633 387.196185 496.314116 386.541099 494.66529 386.541099 
C 493.016463 386.541099 491.434946 387.196185 490.269049 388.362081 
C 489.103152 389.527978 488.448067 391.109495 488.448067 392.758322 
C 488.448067 394.407149 489.103152 395.988666 490.269049 397.154562 
C 491.434946 398.320459 493.016463 398.975545 494.66529 398.975545 
z
" clip-path="url(#pc6df4bb9f9)" style="fill: #4c72b0; fill-opacity: 0.32"/>
   </g>
   <g id="PathCollection_3">
    <path d="M 523.766778 384.092197 
C 525.708692 384.092197 527.571332 383.320666 528.944473 381.947525 
C 530.317614 380.574385 531.089144 378.711745 531.089144 376.76983 
C 531.089144 374.827916 530.317614 372.965276 528.944473 371.592135 
C 527.571332 370.218994 525.708692 369.447463 523.766778 369.447463 
C 521.824863 369.447463 519.962223 370.218994 518.589082 371.592135 
C 517.215942 372.965276 516.444411 374.827916 516.444411 376.76983 
C 516.444411 378.711745 517.215942 380.574385 518.589082 381.947525 
C 519.962223 383.320666 521.824863 384.092197 523.766778 384.092197 
z
" clip-path="url(#pc6df4bb9f9)" style="fill: #4c72b0; fill-opacity: 0.49"/>
   </g>
   <g id="PathCollection_4">
    <path d="M 372.844101 358.805331 
C 374.970182 358.805331 377.009469 357.96063 378.512835 356.457265 
C 380.016201 354.953899 380.860901 352.914611 380.860901 350.788531 
C 380.860901 348.662451 380.016201 346.623163 378.512835 345.119798 
C 377.009469 343.616432 374.970182 342.771731 372.844101 342.771731 
C 370.718021 342.771731 368.678733 343.616432 367.175368 345.119798 
C 365.672002 346.623163 364.827301 348.662451 364.827301 350.788531 
C 364.827301 352.914611 365.672002 354.953899 367.175368 356.457265 
C 368.678733 357.96063 370.718021 358.805331 372.844101 358.805331 
z
" clip-path="url(#pc6df4bb9f9)" style="fill: #4c72b0; fill-opacity: 0.66"/>
   </g>
   <g id="PathCollection_5">
    <path d="M 455.248069 408.663811 
C 457.346155 408.663811 459.358591 407.830232 460.842162 406.346661 
C 462.325733 404.86309 463.159312 402.850654 463.159312 400.752568 
C 463.159312 398.654482 462.325733 396.642045 460.842162 395.158474 
C 459.358591 393.674903 457.346155 392.841325 455.248069 392.841325 
C 453.149983 392.841325 451.137546 393.674903 449.653975 395.158474 
C 448.170405 396.642045 447.336826 398.654482 447.336826 400.752568 
C 447.336826 402.850654 448.170405 404.86309 449.653975 406.346661 
C 451.137546 407.830232 453.149983 408.663811 455.248069 408.663811 
z
" clip-path="url(#pc6df4bb9f9)" style="fill: #4c72b0; fill-opacity: 0.83"/>
   </g>
   <g id="PathCollection_6">
    <path d="M 522.837604 306.763822 
C 523.495827 306.763822 524.127179 306.502307 524.592613 306.036874 
C 525.058047 305.57144 525.319562 304.940087 525.319562 304.281864 
C 525.319562 303.623642 525.058047 302.992289 524.592613 302.526855 
C 524.127179 302.061421 523.495827 301.799907 522.837604 301.799907 
C 522.179381 301.799907 521.548028 302.061421 521.082595 302.526855 
C 520.617161 302.992289 520.355646 303.623642 520.355646 304.281864 
C 520.355646 304.940087 520.617161 305.57144 521.082595 306.036874 
C 521.548028 306.502307 522.179381 306.763822 522.837604 306.763822 
z
" clip-path="url(#pc6df4bb9f9)" style="fill: #dd8452; fill-opacity: 0.15"/>
   </g>
   <g id="PathCollection_7">
    <path d="M 490.572392 355.816341 
C 491.285503 355.816341 491.969503 355.533019 492.473748 355.028773 
C 492.977994 354.524527 493.261316 353.840528 493.261316 353.127417 
C 493.261316 352.414306 492.977994 351.730306 492.473748 351.22606 
C 491.969503 350.721815 491.285503 350.438493 490.572392 350.438493 
C 489.859281 350.438493 489.175281 350.721815 488.671035 351.22606 
C 488.16679 351.730306 487.883468 352.414306 487.883468 353.127417 
C 487.883468 353.840528 488.16679 354.524527 488.671035 355.028773 
C 489.175281 355.533019 489.859281 355.816341 490.572392 355.816341 
z
" clip-path="url(#pc6df4bb9f9)" style="fill: #dd8452; fill-opacity: 0.32"/>
   </g>
   <g id="PathCollection_8">
    <path d="M 444.932866 357.783901 
C 445.48599 357.783901 446.016535 357.564142 446.407654 357.173023 
C 446.798772 356.781905 447.018531 356.25136 447.018531 355.698235 
C 447.018531 355.14511 446.798772 354.614565 446.407654 354.223447 
C 446.016535 353.832329 445.48599 353.61257 444.932866 353.61257 
C 444.379741 353.61257 443.849196 353.832329 443.458077 354.223447 
C 443.066959 354.614565 442.8472 355.14511 442.8472 355.698235 
C 442.8472 356.25136 443.066959 356.781905 443.458077 357.173023 
C 443.849196 357.564142 444.379741 357.783901 444.932866 357.783901 
z
" clip-path="url(#pc6df4bb9f9)" style="fill: #dd8452; fill-opacity: 0.49"/>
   </g>
   <g id="PathCollection_9">
    <path d="M 325.705212 373.439913 
C 327.001415 373.439913 328.244703 372.924926 329.161257 372.008373 
C 330.07781 371.091819 330.592797 369.848531 330.592797 368.552328 
C 330.592797 367.256125 330.07781 366.012837 329.161257 365.096283 
C 328.244703 364.179729 327.001415 363.664743 325.705212 363.664743 
C 324.409009 363.664743 323.165721 364.179729 322.249167 365.096283 
C 321.332614 366.012837 320.817627 367.256125 320.817627 368.552328 
C 320.817627 369.848531 321.332614 371.091819 322.249167 372.008373 
C 323.165721 372.924926 324.409009 373.439913 325.705212 373.439913 
z
" clip-path="url(#pc6df4bb9f9)" style="fill: #dd8452; fill-opacity: 0.66"/>
   </g>
   <g id="PathCollection_10">
    <path d="M 577.527739 403.220154 
C 579.903864 403.220154 582.182988 402.27611 583.863162 400.595936 
C 585.543336 398.915762 586.48738 396.636638 586.48738 394.260513 
C 586.48738 391.884389 585.543336 389.605264 583.863162 387.92509 
C 582.182988 386.244916 579.903864 385.300872 577.527739 385.300872 
C 575.151614 385.300872 572.87249 386.244916 571.192316 387.92509 
C 569.512142 389.605264 568.568098 391.884389 568.568098 394.260513 
C 568.568098 396.636638 569.512142 398.915762 571.192316 400.595936 
C 572.87249 402.27611 575.151614 403.220154 577.527739 403.220154 
z
" clip-path="url(#pc6df4bb9f9)" style="fill: #dd8452; fill-opacity: 0.83"/>
   </g>
   <g id="PathCollection_11">
    <path d="M 423.162972 304.823652 
C 423.867515 304.823652 424.543296 304.543734 425.041483 304.045548 
C 425.53967 303.547361 425.819587 302.87158 425.819587 302.167037 
C 425.819587 301.462494 425.53967 300.786713 425.041483 300.288526 
C 424.543296 299.79034 423.867515 299.510422 423.162972 299.510422 
C 422.45843 299.510422 421.782649 299.79034 421.284462 300.288526 
C 420.786275 300.786713 420.506357 301.462494 420.506357 302.167037 
C 420.506357 302.87158 420.786275 303.547361 421.284462 304.045548 
C 421.782649 304.543734 422.45843 304.823652 423.162972 304.823652 
z
" clip-path="url(#pc6df4bb9f9)" style="fill: #55a868; fill-opacity: 0.15"/>
   </g>
   <g id="PathCollection_12">
    <path d="M 573.941274 388.609805 
C 574.965844 388.609805 575.948589 388.202739 576.673069 387.478258 
C 577.39755 386.753777 577.804616 385.771033 577.804616 384.746462 
C 577.804616 383.721892 577.39755 382.739148 576.673069 382.014667 
C 575.948589 381.290186 574.965844 380.88312 573.941274 380.88312 
C 572.916703 380.88312 571.933959 381.290186 571.209478 382.014667 
C 570.484998 382.739148 570.077932 383.721892 570.077932 384.746462 
C 570.077932 385.771033 570.484998 386.753777 571.209478 387.478258 
C 571.933959 388.202739 572.916703 388.609805 573.941274 388.609805 
z
" clip-path="url(#pc6df4bb9f9)" style="fill: #55a868; fill-opacity: 0.32"/>
   </g>
   <g id="PathCollection_13">
    <path d="M 386.878558 342.574178 
C 388.072779 342.574178 389.218249 342.099709 390.062691 341.255268 
C 390.907132 340.410826 391.381602 339.265356 391.381602 338.071135 
C 391.381602 336.876914 390.907132 335.731444 390.062691 334.887003 
C 389.218249 334.042561 388.072779 333.568092 386.878558 333.568092 
C 385.684337 333.568092 384.538867 334.042561 383.694426 334.887003 
C 382.849984 335.731444 382.375515 336.876914 382.375515 338.071135 
C 382.375515 339.265356 382.849984 340.410826 383.694426 341.255268 
C 384.538867 342.099709 385.684337 342.574178 386.878558 342.574178 
z
" clip-path="url(#pc6df4bb9f9)" style="fill: #55a868; fill-opacity: 0.49"/>
   </g>
   <g id="PathCollection_14">
    <path d="M 434.915485 336.101923 
C 436.29762 336.101923 437.623332 335.552795 438.600648 334.575478 
C 439.577965 333.598162 440.127093 332.27245 440.127093 330.890315 
C 440.127093 329.508181 439.577965 328.182469 438.600648 327.205152 
C 437.623332 326.227836 436.29762 325.678708 434.915485 325.678708 
C 433.533351 325.678708 432.207639 326.227836 431.230322 327.205152 
C 430.253006 328.182469 429.703878 329.508181 429.703878 330.890315 
C 429.703878 332.27245 430.253006 333.598162 431.230322 334.575478 
C 432.207639 335.552795 433.533351 336.101923 434.915485 336.101923 
z
" clip-path="url(#pc6df4bb9f9)" style="fill: #55a868; fill-opacity: 0.66"/>
   </g>
   <g id="PathCollection_15">
    <path d="M 410.931005 375.83771 
C 412.377128 375.83771 413.764215 375.263159 414.786778 374.240596 
C 415.809341 373.218033 416.383892 371.830946 416.383892 370.384823 
C 416.383892 368.938701 415.809341 367.551613 414.786778 366.52905 
C 413.764215 365.506487 412.377128 364.931937 410.931005 364.931937 
C 409.484883 364.931937 408.097795 365.506487 407.075232 366.52905 
C 406.052669 367.551613 405.478119 368.938701 405.478119 370.384823 
C 405.478119 371.830946 406.052669 373.218033 407.075232 374.240596 
C 408.097795 375.263159 409.484883 375.83771 410.931005 375.83771 
z
" clip-path="url(#pc6df4bb9f9)" style="fill: #55a868; fill-opacity: 0.83"/>
   </g>
   <g id="text_18">
    <!-- Phase de marche — Ou en est chaque commune ? -->
    <g style="fill: #262626" transform="translate(250.145044 17.837812) scale(0.14 -0.14)">
     <defs>
      <path id="DejaVuSans-Bold-68" d="M 4056 2131 
L 4056 0 
L 2931 0 
L 2931 347 
L 2931 1625 
Q 2931 2084 2911 2256 
Q 2891 2428 2841 2509 
Q 2775 2619 2662 2680 
Q 2550 2741 2406 2741 
Q 2056 2741 1856 2470 
Q 1656 2200 1656 1722 
L 1656 0 
L 538 0 
L 538 4863 
L 1656 4863 
L 1656 2988 
Q 1909 3294 2193 3439 
Q 2478 3584 2822 3584 
Q 3428 3584 3742 3212 
Q 4056 2841 4056 2131 
z
" transform="scale(0.015625)"/>
      <path id="DejaVuSans-Bold-61" d="M 2106 1575 
Q 1756 1575 1579 1456 
Q 1403 1338 1403 1106 
Q 1403 894 1545 773 
Q 1688 653 1941 653 
Q 2256 653 2472 879 
Q 2688 1106 2688 1447 
L 2688 1575 
L 2106 1575 
z
M 3816 1997 
L 3816 0 
L 2688 0 
L 2688 519 
Q 2463 200 2181 54 
Q 1900 -91 1497 -91 
Q 953 -91 614 226 
Q 275 544 275 1050 
Q 275 1666 698 1953 
Q 1122 2241 2028 2241 
L 2688 2241 
L 2688 2328 
Q 2688 2594 2478 2717 
Q 2269 2841 1825 2841 
Q 1466 2841 1156 2769 
Q 847 2697 581 2553 
L 581 3406 
Q 941 3494 1303 3539 
Q 1666 3584 2028 3584 
Q 2975 3584 3395 3211 
Q 3816 2838 3816 1997 
z
" transform="scale(0.015625)"/>
      <path id="DejaVuSans-Bold-73" d="M 3272 3391 
L 3272 2541 
Q 2913 2691 2578 2766 
Q 2244 2841 1947 2841 
Q 1628 2841 1473 2761 
Q 1319 2681 1319 2516 
Q 1319 2381 1436 2309 
Q 1553 2238 1856 2203 
L 2053 2175 
Q 2913 2066 3209 1816 
Q 3506 1566 3506 1031 
Q 3506 472 3093 190 
Q 2681 -91 1863 -91 
Q 1516 -91 1145 -36 
Q 775 19 384 128 
L 384 978 
Q 719 816 1070 734 
Q 1422 653 1784 653 
Q 2113 653 2278 743 
Q 2444 834 2444 1013 
Q 2444 1163 2330 1236 
Q 2216 1309 1875 1350 
L 1678 1375 
Q 931 1469 631 1722 
Q 331 1975 331 2491 
Q 331 3047 712 3315 
Q 1094 3584 1881 3584 
Q 2191 3584 2531 3537 
Q 2872 3491 3272 3391 
z
" transform="scale(0.015625)"/>
      <path id="DejaVuSans-Bold-65" d="M 4031 1759 
L 4031 1441 
L 1416 1441 
Q 1456 1047 1700 850 
Q 1944 653 2381 653 
Q 2734 653 3104 758 
Q 3475 863 3866 1075 
L 3866 213 
Q 3469 63 3072 -14 
Q 2675 -91 2278 -91 
Q 1328 -91 801 392 
Q 275 875 275 1747 
Q 275 2603 792 3093 
Q 1309 3584 2216 3584 
Q 3041 3584 3536 3087 
Q 4031 2591 4031 1759 
z
M 2881 2131 
Q 2881 2450 2695 2645 
Q 2509 2841 2209 2841 
Q 1884 2841 1681 2658 
Q 1478 2475 1428 2131 
L 2881 2131 
z
" transform="scale(0.015625)"/>
      <path id="DejaVuSans-Bold-20" transform="scale(0.015625)"/>
      <path id="DejaVuSans-Bold-64" d="M 2919 2988 
L 2919 4863 
L 4044 4863 
L 4044 0 
L 2919 0 
L 2919 506 
Q 2688 197 2409 53 
Q 2131 -91 1766 -91 
Q 1119 -91 703 423 
Q 288 938 288 1747 
Q 288 2556 703 3070 
Q 1119 3584 1766 3584 
Q 2128 3584 2408 3439 
Q 2688 3294 2919 2988 
z
M 2181 722 
Q 2541 722 2730 984 
Q 2919 1247 2919 1747 
Q 2919 2247 2730 2509 
Q 2541 2772 2181 2772 
Q 1825 2772 1636 2509 
Q 1447 2247 1447 1747 
Q 1447 1247 1636 984 
Q 1825 722 2181 722 
z
" transform="scale(0.015625)"/>
      <path id="DejaVuSans-Bold-6d" d="M 3781 2919 
Q 3994 3244 4286 3414 
Q 4578 3584 4928 3584 
Q 5531 3584 5847 3212 
Q 6163 2841 6163 2131 
L 6163 0 
L 5038 0 
L 5038 1825 
Q 5041 1866 5042 1909 
Q 5044 1953 5044 2034 
Q 5044 2406 4934 2573 
Q 4825 2741 4581 2741 
Q 4263 2741 4089 2478 
Q 3916 2216 3909 1719 
L 3909 0 
L 2784 0 
L 2784 1825 
Q 2784 2406 2684 2573 
Q 2584 2741 2328 2741 
Q 2006 2741 1831 2477 
Q 1656 2213 1656 1722 
L 1656 0 
L 531 0 
L 531 3500 
L 1656 3500 
L 1656 2988 
Q 1863 3284 2130 3434 
Q 2397 3584 2719 3584 
Q 3081 3584 3359 3409 
Q 3638 3234 3781 2919 
z
" transform="scale(0.015625)"/>
      <path id="DejaVuSans-Bold-72" d="M 3138 2547 
Q 2991 2616 2845 2648 
Q 2700 2681 2553 2681 
Q 2122 2681 1889 2404 
Q 1656 2128 1656 1613 
L 1656 0 
L 538 0 
L 538 3500 
L 1656 3500 
L 1656 2925 
Q 1872 3269 2151 3426 
Q 2431 3584 2822 3584 
Q 2878 3584 2943 3579 
Q 3009 3575 3134 3559 
L 3138 2547 
z
" transform="scale(0.015625)"/>
      <path id="DejaVuSans-Bold-63" d="M 3366 3391 
L 3366 2478 
Q 3138 2634 2908 2709 
Q 2678 2784 2431 2784 
Q 1963 2784 1702 2511 
Q 1441 2238 1441 1747 
Q 1441 1256 1702 982 
Q 1963 709 2431 709 
Q 2694 709 2930 787 
Q 3166 866 3366 1019 
L 3366 103 
Q 3103 6 2833 -42 
Q 2563 -91 2291 -91 
Q 1344 -91 809 395 
Q 275 881 275 1747 
Q 275 2613 809 3098 
Q 1344 3584 2291 3584 
Q 2566 3584 2833 3536 
Q 3100 3488 3366 3391 
z
" transform="scale(0.015625)"/>
      <path id="DejaVuSans-Bold-2014" d="M 344 2156 
L 6056 2156 
L 6056 1350 
L 344 1350 
L 344 2156 
z
" transform="scale(0.015625)"/>
      <path id="DejaVuSans-Bold-75" d="M 500 1363 
L 500 3500 
L 1625 3500 
L 1625 3150 
Q 1625 2866 1622 2436 
Q 1619 2006 1619 1863 
Q 1619 1441 1641 1255 
Q 1663 1069 1716 984 
Q 1784 875 1895 815 
Q 2006 756 2150 756 
Q 2500 756 2700 1025 
Q 2900 1294 2900 1772 
L 2900 3500 
L 4019 3500 
L 4019 0 
L 2900 0 
L 2900 506 
Q 2647 200 2364 54 
Q 2081 -91 1741 -91 
Q 1134 -91 817 281 
Q 500 653 500 1363 
z
" transform="scale(0.015625)"/>
      <path id="DejaVuSans-Bold-6e" d="M 4056 2131 
L 4056 0 
L 2931 0 
L 2931 347 
L 2931 1631 
Q 2931 2084 2911 2256 
Q 2891 2428 2841 2509 
Q 2775 2619 2662 2680 
Q 2550 2741 2406 2741 
Q 2056 2741 1856 2470 
Q 1656 2200 1656 1722 
L 1656 0 
L 538 0 
L 538 3500 
L 1656 3500 
L 1656 2988 
Q 1909 3294 2193 3439 
Q 2478 3584 2822 3584 
Q 3428 3584 3742 3212 
Q 4056 2841 4056 2131 
z
" transform="scale(0.015625)"/>
      <path id="DejaVuSans-Bold-74" d="M 1759 4494 
L 1759 3500 
L 2913 3500 
L 2913 2700 
L 1759 2700 
L 1759 1216 
Q 1759 972 1856 886 
Q 1953 800 2241 800 
L 2816 800 
L 2816 0 
L 1856 0 
Q 1194 0 917 276 
Q 641 553 641 1216 
L 641 2700 
L 84 2700 
L 84 3500 
L 641 3500 
L 641 4494 
L 1759 4494 
z
" transform="scale(0.015625)"/>
      <path id="DejaVuSans-Bold-71" d="M 2181 2772 
Q 1825 2772 1636 2509 
Q 1447 2247 1447 1747 
Q 1447 1247 1636 984 
Q 1825 722 2181 722 
Q 2541 722 2730 984 
Q 2919 1247 2919 1747 
Q 2919 2247 2730 2509 
Q 2541 2772 2181 2772 
z
M 2919 506 
Q 2688 197 2409 53 
Q 2131 -91 1766 -91 
Q 1119 -91 703 423 
Q 288 938 288 1747 
Q 288 2556 703 3067 
Q 1119 3578 1766 3578 
Q 2131 3578 2409 3434 
Q 2688 3291 2919 2981 
L 2919 3500 
L 4044 3500 
L 4044 -1331 
L 2919 -1331 
L 2919 506 
z
" transform="scale(0.015625)"/>
      <path id="DejaVuSans-Bold-6f" d="M 2203 2784 
Q 1831 2784 1636 2517 
Q 1441 2250 1441 1747 
Q 1441 1244 1636 976 
Q 1831 709 2203 709 
Q 2569 709 2762 976 
Q 2956 1244 2956 1747 
Q 2956 2250 2762 2517 
Q 2569 2784 2203 2784 
z
M 2203 3584 
Q 3106 3584 3614 3096 
Q 4122 2609 4122 1747 
Q 4122 884 3614 396 
Q 3106 -91 2203 -91 
Q 1297 -91 786 396 
Q 275 884 275 1747 
Q 275 2609 786 3096 
Q 1297 3584 2203 3584 
z
" transform="scale(0.015625)"/>
      <path id="DejaVuSans-Bold-3f" d="M 2216 1575 
L 1088 1575 
L 1088 1728 
Q 1088 1984 1191 2182 
Q 1294 2381 1625 2688 
L 1825 2869 
Q 2003 3031 2086 3175 
Q 2169 3319 2169 3463 
Q 2169 3681 2019 3804 
Q 1869 3928 1600 3928 
Q 1347 3928 1053 3823 
Q 759 3719 441 3513 
L 441 4494 
Q 819 4625 1131 4687 
Q 1444 4750 1734 4750 
Q 2497 4750 2897 4439 
Q 3297 4128 3297 3531 
Q 3297 3225 3175 2983 
Q 3053 2741 2759 2463 
L 2559 2284 
Q 2347 2091 2281 1973 
Q 2216 1856 2216 1716 
L 2216 1575 
z
M 1088 1113 
L 2216 1113 
L 2216 0 
L 1088 0 
L 1088 1113 
z
" transform="scale(0.015625)"/>
     </defs>
     <use xlink:href="#DejaVuSans-Bold-50"/>
     <use xlink:href="#DejaVuSans-Bold-68" transform="translate(73.291016 0)"/>
     <use xlink:href="#DejaVuSans-Bold-61" transform="translate(144.482422 0)"/>
     <use xlink:href="#DejaVuSans-Bold-73" transform="translate(211.962891 0)"/>
     <use xlink:href="#DejaVuSans-Bold-65" transform="translate(271.484375 0)"/>
     <use xlink:href="#DejaVuSans-Bold-20" transform="translate(339.306641 0)"/>
     <use xlink:href="#DejaVuSans-Bold-64" transform="translate(374.121094 0)"/>
     <use xlink:href="#DejaVuSans-Bold-65" transform="translate(445.703125 0)"/>
     <use xlink:href="#DejaVuSans-Bold-20" transform="translate(513.525391 0)"/>
     <use xlink:href="#DejaVuSans-Bold-6d" transform="translate(548.339844 0)"/>
     <use xlink:href="#DejaVuSans-Bold-61" transform="translate(652.539062 0)"/>
     <use xlink:href="#DejaVuSans-Bold-72" transform="translate(720.019531 0)"/>
     <use xlink:href="#DejaVuSans-Bold-63" transform="translate(769.335938 0)"/>
     <use xlink:href="#DejaVuSans-Bold-68" transform="translate(828.613281 0)"/>
     <use xlink:href="#DejaVuSans-Bold-65" transform="translate(899.804688 0)"/>
     <use xlink:href="#DejaVuSans-Bold-20" transform="translate(967.626953 0)"/>
     <use xlink:href="#DejaVuSans-Bold-2014" transform="translate(1002.441406 0)"/>
     <use xlink:href="#DejaVuSans-Bold-20" transform="translate(1102.441406 0)"/>
     <use xlink:href="#DejaVuSans-Bold-4f" transform="translate(1137.255859 0)"/>
     <use xlink:href="#DejaVuSans-Bold-75" transform="translate(1222.265625 0)"/>
     <use xlink:href="#DejaVuSans-Bold-20" transform="translate(1293.457031 0)"/>
     <use xlink:href="#DejaVuSans-Bold-65" transform="translate(1328.271484 0)"/>
     <use xlink:href="#DejaVuSans-Bold-6e" transform="translate(1396.09375 0)"/>
     <use xlink:href="#DejaVuSans-Bold-20" transform="translate(1467.285156 0)"/>
     <use xlink:href="#DejaVuSans-Bold-65" transform="translate(1502.099609 0)"/>
     <use xlink:href="#DejaVuSans-Bold-73" transform="translate(1569.921875 0)"/>
     <use xlink:href="#DejaVuSans-Bold-74" transform="translate(1629.443359 0)"/>
     <use xlink:href="#DejaVuSans-Bold-20" transform="translate(1677.246094 0)"/>
     <use xlink:href="#DejaVuSans-Bold-63" transform="translate(1712.060547 0)"/>
     <use xlink:href="#DejaVuSans-Bold-68" transform="translate(1771.337891 0)"/>
     <use xlink:href="#DejaVuSans-Bold-61" transform="translate(1842.529297 0)"/>
     <use xlink:href="#DejaVuSans-Bold-71" transform="translate(1910.009766 0)"/>
     <use xlink:href="#DejaVuSans-Bold-75" transform="translate(1981.591797 0)"/>
     <use xlink:href="#DejaVuSans-Bold-65" transform="translate(2052.783203 0)"/>
     <use xlink:href="#DejaVuSans-Bold-20" transform="translate(2120.605469 0)"/>
     <use xlink:href="#DejaVuSans-Bold-63" transform="translate(2155.419922 0)"/>
     <use xlink:href="#DejaVuSans-Bold-6f" transform="translate(2214.697266 0)"/>
     <use xlink:href="#DejaVuSans-Bold-6d" transform="translate(2283.398438 0)"/>
     <use xlink:href="#DejaVuSans-Bold-6d" transform="translate(2387.597656 0)"/>
     <use xlink:href="#DejaVuSans-Bold-75" transform="translate(2491.796875 0)"/>
     <use xlink:href="#DejaVuSans-Bold-6e" transform="translate(2562.988281 0)"/>
     <use xlink:href="#DejaVuSans-Bold-65" transform="translate(2634.179688 0)"/>
     <use xlink:href="#DejaVuSans-Bold-20" transform="translate(2702.001953 0)"/>
     <use xlink:href="#DejaVuSans-Bold-3f" transform="translate(2736.816406 0)"/>
    </g>
   </g>
   <g id="PathCollection_16">
    <defs>
     <path id="m9fbeb203e9" d="M 0 7.579 
C 2.009974 7.579 3.937896 6.780429 5.359162 5.359162 
C 6.780429 3.937896 7.579 2.009974 7.579 0 
C 7.579 -2.009974 6.780429 -3.937896 5.359162 -5.359162 
C 3.937896 -6.780429 2.009974 -7.579 0 -7.579 
C -2.009974 -7.579 -3.937896 -6.780429 -5.359162 -5.359162 
C -6.780429 -3.937896 -7.579 -2.009974 -7.579 0 
C -7.579 2.009974 -6.780429 3.937896 -5.359162 5.359162 
C -3.937896 6.780429 -2.009974 7.579 0 7.579 
z
" style="stroke: #ffffff; stroke-width: 1.2"/>
    </defs>
    <g clip-path="url(#pc6df4bb9f9)">
     <use xlink:href="#m9fbeb203e9" x="421.973877" y="378.768392" style="fill: #4c72b0; stroke: #ffffff; stroke-width: 1.2"/>
    </g>
   </g>
   <g id="PathCollection_17">
    <defs>
     <path id="m907472d2ca" d="M 0 9.621079 
C 2.55154 9.621079 4.998919 8.607341 6.80313 6.80313 
C 8.607341 4.998919 9.621079 2.55154 9.621079 0 
C 9.621079 -2.55154 8.607341 -4.998919 6.80313 -6.80313 
C 4.998919 -8.607341 2.55154 -9.621079 0 -9.621079 
C -2.55154 -9.621079 -4.998919 -8.607341 -6.80313 -6.80313 
C -8.607341 -4.998919 -9.621079 -2.55154 -9.621079 0 
C -9.621079 2.55154 -8.607341 4.998919 -6.80313 6.80313 
C -4.998919 8.607341 -2.55154 9.621079 0 9.621079 
z
" style="stroke: #ffffff; stroke-width: 1.2"/>
    </defs>
    <g clip-path="url(#pc6df4bb9f9)">
     <use xlink:href="#m907472d2ca" x="454.159721" y="245.153038" style="fill: #dd8452; stroke: #ffffff; stroke-width: 1.2"/>
    </g>
   </g>
   <g id="PathCollection_18">
    <defs>
     <path id="ma7bfca6fa7" d="M 0 6.09622 
C 1.616736 6.09622 3.167473 5.453884 4.310679 4.310679 
C 5.453884 3.167473 6.09622 1.616736 6.09622 0 
C 6.09622 -1.616736 5.453884 -3.167473 4.310679 -4.310679 
C 3.167473 -5.453884 1.616736 -6.09622 0 -6.09622 
C -1.616736 -6.09622 -3.167473 -5.453884 -4.310679 -4.310679 
C -5.453884 -3.167473 -6.09622 -1.616736 -6.09622 0 
C -6.09622 1.616736 -5.453884 3.167473 -4.310679 4.310679 
C -3.167473 5.453884 -1.616736 6.09622 0 6.09622 
z
" style="stroke: #ffffff; stroke-width: 1.2"/>
    </defs>
    <g clip-path="url(#pc6df4bb9f9)">
     <use xlink:href="#ma7bfca6fa7" x="413.506666" y="287.805398" style="fill: #55a868; stroke: #ffffff; stroke-width: 1.2"/>
    </g>
   </g>
   <g id="legend_1">
    <g id="patch_14">
     <path d="M 49.713906 70.66875 
L 118.414844 70.66875 
Q 120.214844 70.66875 120.214844 68.86875 
L 120.214844 30.137812 
Q 120.214844 28.337812 118.414844 28.337812 
L 49.713906 28.337812 
Q 47.913906 28.337812 47.913906 30.137812 
L 47.913906 68.86875 
Q 47.913906 70.66875 49.713906 70.66875 
z
" style="fill: #f5f5f5; opacity: 0.85; stroke: #cccccc; stroke-width: 0.8; stroke-linejoin: miter"/>
    </g>
    <g id="PathCollection_19">
     <g>
      <use xlink:href="#m9fbeb203e9" x="60.513906" y="36.413906" style="fill: #4c72b0; stroke: #ffffff; stroke-width: 1.2"/>
     </g>
    </g>
    <g id="text_19">
     <!-- Brest -->
     <g style="fill: #262626" transform="translate(76.713906 38.776406) scale(0.09 -0.09)">
      <defs>
       <path id="DejaVuSans-42" d="M 1259 2228 
L 1259 519 
L 2272 519 
Q 2781 519 3026 730 
Q 3272 941 3272 1375 
Q 3272 1813 3026 2020 
Q 2781 2228 2272 2228 
L 1259 2228 
z
M 1259 4147 
L 1259 2741 
L 2194 2741 
Q 2656 2741 2882 2914 
Q 3109 3088 3109 3444 
Q 3109 3797 2882 3972 
Q 2656 4147 2194 4147 
L 1259 4147 
z
M 628 4666 
L 2241 4666 
Q 2963 4666 3353 4366 
Q 3744 4066 3744 3513 
Q 3744 3084 3544 2831 
Q 3344 2578 2956 2516 
Q 3422 2416 3680 2098 
Q 3938 1781 3938 1306 
Q 3938 681 3513 340 
Q 3088 0 2303 0 
L 628 0 
L 628 4666 
z
" transform="scale(0.015625)"/>
      </defs>
      <use xlink:href="#DejaVuSans-42"/>
      <use xlink:href="#DejaVuSans-72" transform="translate(68.603516 0)"/>
      <use xlink:href="#DejaVuSans-65" transform="translate(107.466797 0)"/>
      <use xlink:href="#DejaVuSans-73" transform="translate(168.990234 0)"/>
      <use xlink:href="#DejaVuSans-74" transform="translate(221.089844 0)"/>
     </g>
    </g>
    <g id="PathCollection_20">
     <g>
      <use xlink:href="#m907472d2ca" x="60.513906" y="49.624219" style="fill: #dd8452; stroke: #ffffff; stroke-width: 1.2"/>
     </g>
    </g>
    <g id="text_20">
     <!-- Le Havre -->
     <g style="fill: #262626" transform="translate(76.713906 51.986719) scale(0.09 -0.09)">
      <defs>
       <path id="DejaVuSans-4c" d="M 628 4666 
L 1259 4666 
L 1259 531 
L 3531 531 
L 3531 0 
L 628 0 
L 628 4666 
z
" transform="scale(0.015625)"/>
       <path id="DejaVuSans-48" d="M 628 4666 
L 1259 4666 
L 1259 2753 
L 3553 2753 
L 3553 4666 
L 4184 4666 
L 4184 0 
L 3553 0 
L 3553 2222 
L 1259 2222 
L 1259 0 
L 628 0 
L 628 4666 
z
" transform="scale(0.015625)"/>
       <path id="DejaVuSans-61" d="M 2194 1759 
Q 1497 1759 1228 1600 
Q 959 1441 959 1056 
Q 959 750 1161 570 
Q 1363 391 1709 391 
Q 2188 391 2477 730 
Q 2766 1069 2766 1631 
L 2766 1759 
L 2194 1759 
z
M 3341 1997 
L 3341 0 
L 2766 0 
L 2766 531 
Q 2569 213 2275 61 
Q 1981 -91 1556 -91 
Q 1019 -91 701 211 
Q 384 513 384 1019 
Q 384 1609 779 1909 
Q 1175 2209 1959 2209 
L 2766 2209 
L 2766 2266 
Q 2766 2663 2505 2880 
Q 2244 3097 1772 3097 
Q 1472 3097 1187 3025 
Q 903 2953 641 2809 
L 641 3341 
Q 956 3463 1253 3523 
Q 1550 3584 1831 3584 
Q 2591 3584 2966 3190 
Q 3341 2797 3341 1997 
z
" transform="scale(0.015625)"/>
       <path id="DejaVuSans-76" d="M 191 3500 
L 800 3500 
L 1894 563 
L 2988 3500 
L 3597 3500 
L 2284 0 
L 1503 0 
L 191 3500 
z
" transform="scale(0.015625)"/>
      </defs>
      <use xlink:href="#DejaVuSans-4c"/>
      <use xlink:href="#DejaVuSans-65" transform="translate(53.962891 0)"/>
      <use xlink:href="#DejaVuSans-20" transform="translate(115.486328 0)"/>
      <use xlink:href="#DejaVuSans-48" transform="translate(147.273438 0)"/>
      <use xlink:href="#DejaVuSans-61" transform="translate(222.46875 0)"/>
      <use xlink:href="#DejaVuSans-76" transform="translate(283.748047 0)"/>
      <use xlink:href="#DejaVuSans-72" transform="translate(342.927734 0)"/>
      <use xlink:href="#DejaVuSans-65" transform="translate(381.791016 0)"/>
     </g>
    </g>
    <g id="PathCollection_21">
     <g>
      <use xlink:href="#ma7bfca6fa7" x="60.513906" y="62.834531" style="fill: #55a868; stroke: #ffffff; stroke-width: 1.2"/>
     </g>
    </g>
    <g id="text_21">
     <!-- Lorient -->
     <g style="fill: #262626" transform="translate(76.713906 65.197031) scale(0.09 -0.09)">
      <use xlink:href="#DejaVuSans-4c"/>
      <use xlink:href="#DejaVuSans-6f" transform="translate(53.962891 0)"/>
      <use xlink:href="#DejaVuSans-72" transform="translate(115.144531 0)"/>
      <use xlink:href="#DejaVuSans-69" transform="translate(156.257812 0)"/>
      <use xlink:href="#DejaVuSans-65" transform="translate(184.041016 0)"/>
      <use xlink:href="#DejaVuSans-6e" transform="translate(245.564453 0)"/>
      <use xlink:href="#DejaVuSans-74" transform="translate(308.943359 0)"/>
     </g>
    </g>
   </g>
  </g>
 </g>
 <defs>
  <clipPath id="pc6df4bb9f9">
   <rect x="43.413906" y="23.837812" width="804.7404" height="576.2904"/>
  </clipPath>
 </defs>
</svg>
