<?xml version="1.0" encoding="utf-8" standalone="no"?>
<!DOCTYPE svg PUBLIC "-//W3C//DTD SVG 1.1//EN"
  "http://www.w3.org/Graphics/SVG/1.1/DTD/svg11.dtd">
<svg xmlns:xlink="http://www.w3.org/1999/xlink" width="855.500087pt" height="386.90402pt" viewBox="0 0 855.500087 386.90402" xmlns="http://www.w3.org/2000/svg" version="1.1">
 <metadata>
  <rdf:RDF xmlns:dc="http://purl.org/dc/elements/1.1/" xmlns:cc="http://creativecommons.org/ns#" xmlns:rdf="http://www.w3.org/1999/02/22-rdf-syntax-ns#">
   <cc:Work>
    <dc:type rdf:resource="http://purl.org/dc/dcmitype/StillImage"/>
    <dc:date>2026-04-04T16:47:37.104665</dc:date>
    <dc:format>image/svg+xml</dc:format>
    <dc:creator>
     <cc:Agent>
      <dc:title>Matplotlib v3.10.8, https://matplotlib.org/</dc:title>
     </cc:Agent>
    </dc:creator>
   </cc:Work>
  </rdf:RDF>
 </metadata>
 <defs>
  <style type="text/css">*{stroke-linejoin: round; stroke-linecap: butt}</style>
 </defs>
 <g id="figure_1">
  <g id="patch_1">
   <path d="M 0 386.90402 
L 855.500087 386.90402 
L 855.500087 0 
L 0 0 
z
" style="fill: #ffffff"/>
  </g>
  <g id="axes_1">
   <g id="patch_2">
    <path d="M 63.434688 319.222644 
L 848.300088 319.222644 
L 848.300088 24.397812 
L 63.434688 24.397812 
z
" style="fill: #f5f5f5"/>
   </g>
   <g id="matplotlib.axis_1">
    <g id="xtick_1">
     <g id="line2d_1">
      <path d="M 74.876337 319.222644 
L 74.876337 24.397812 
" clip-path="url(#p8ec8326ebe)" style="fill: none; stroke-dasharray: 2.96,1.28; stroke-dashoffset: 0; stroke: #cccccc; stroke-width: 0.8"/>
     </g>
     <g id="text_1">
      <!-- May 2020 -->
      <g style="fill: #262626" transform="translate(42.176516 363.734577) rotate(-45) scale(0.09 -0.09)">
       <defs>
        <path id="DejaVuSans-4d" d="M 628 4666 
L 1569 4666 
L 2759 1491 
L 3956 4666 
L 4897 4666 
L 4897 0 
L 4281 0 
L 4281 4097 
L 3078 897 
L 2444 897 
L 1241 4097 
L 1241 0 
L 628 0 
L 628 4666 
z
" transform="scale(0.015625)"/>
        <path id="DejaVuSans-61" d="M 2194 1759 
Q 1497 1759 1228 1600 
Q 959 1441 959 1056 
Q 959 750 1161 570 
Q 1363 391 1709 391 
Q 2188 391 2477 730 
Q 2766 1069 2766 1631 
L 2766 1759 
L 2194 1759 
z
M 3341 1997 
L 3341 0 
L 2766 0 
L 2766 531 
Q 2569 213 2275 61 
Q 1981 -91 1556 -91 
Q 1019 -91 701 211 
Q 384 513 384 1019 
Q 384 1609 779 1909 
Q 1175 2209 1959 2209 
L 2766 2209 
L 2766 2266 
Q 2766 2663 2505 2880 
Q 2244 3097 1772 3097 
Q 1472 3097 1187 3025 
Q 903 2953 641 2809 
L 641 3341 
Q 956 3463 1253 3523 
Q 1550 3584 1831 3584 
Q 2591 3584 2966 3190 
Q 3341 2797 3341 1997 
z
" transform="scale(0.015625)"/>
        <path id="DejaVuSans-79" d="M 2059 -325 
Q 1816 -950 1584 -1140 
Q 1353 -1331 966 -1331 
L 506 -1331 
L 506 -850 
L 844 -850 
Q 1081 -850 1212 -737 
Q 1344 -625 1503 -206 
L 1606 56 
L 191 3500 
L 800 3500 
L 1894 763 
L 2988 3500 
L 3597 3500 
L 2059 -325 
z
" transform="scale(0.015625)"/>
        <path id="DejaVuSans-20" transform="scale(0.015625)"/>
        <path id="DejaVuSans-32" d="M 1228 531 
L 3431 531 
L 3431 0 
L 469 0 
L 469 531 
Q 828 903 1448 1529 
Q 2069 2156 2228 2338 
Q 2531 2678 2651 2914 
Q 2772 3150 2772 3378 
Q 2772 3750 2511 3984 
Q 2250 4219 1831 4219 
Q 1534 4219 1204 4116 
Q 875 4013 500 3803 
L 500 4441 
Q 881 4594 1212 4672 
Q 1544 4750 1819 4750 
Q 2544 4750 2975 4387 
Q 3406 4025 3406 3419 
Q 3406 3131 3298 2873 
Q 3191 2616 2906 2266 
Q 2828 2175 2409 1742 
Q 1991 1309 1228 531 
z
" transform="scale(0.015625)"/>
        <path id="DejaVuSans-30" d="M 2034 4250 
Q 1547 4250 1301 3770 
Q 1056 3291 1056 2328 
Q 1056 1369 1301 889 
Q 1547 409 2034 409 
Q 2525 409 2770 889 
Q 3016 1369 3016 2328 
Q 3016 3291 2770 3770 
Q 2525 4250 2034 4250 
z
M 2034 4750 
Q 2819 4750 3233 4129 
Q 3647 3509 3647 2328 
Q 3647 1150 3233 529 
Q 2819 -91 2034 -91 
Q 1250 -91 836 529 
Q 422 1150 422 2328 
Q 422 3509 836 4129 
Q 1250 4750 2034 4750 
z
" transform="scale(0.015625)"/>
       </defs>
       <use xlink:href="#DejaVuSans-4d"/>
       <use xlink:href="#DejaVuSans-61" transform="translate(86.279297 0)"/>
       <use xlink:href="#DejaVuSans-79" transform="translate(147.558594 0)"/>
       <use xlink:href="#DejaVuSans-20" transform="translate(206.738281 0)"/>
       <use xlink:href="#DejaVuSans-32" transform="translate(238.525391 0)"/>
       <use xlink:href="#DejaVuSans-30" transform="translate(302.148438 0)"/>
       <use xlink:href="#DejaVuSans-32" transform="translate(365.771484 0)"/>
       <use xlink:href="#DejaVuSans-30" transform="translate(429.394531 0)"/>
      </g>
     </g>
    </g>
    <g id="xtick_2">
     <g id="line2d_2">
      <path d="M 111.426052 319.222644 
L 111.426052 24.397812 
" clip-path="url(#p8ec8326ebe)" style="fill: none; stroke-dasharray: 2.96,1.28; stroke-dashoffset: 0; stroke: #cccccc; stroke-width: 0.8"/>
     </g>
     <g id="text_2">
      <!-- Aug 2020 -->
      <g style="fill: #262626" transform="translate(79.457092 363.003716) rotate(-45) scale(0.09 -0.09)">
       <defs>
        <path id="DejaVuSans-41" d="M 2188 4044 
L 1331 1722 
L 3047 1722 
L 2188 4044 
z
M 1831 4666 
L 2547 4666 
L 4325 0 
L 3669 0 
L 3244 1197 
L 1141 1197 
L 716 0 
L 50 0 
L 1831 4666 
z
" transform="scale(0.015625)"/>
        <path id="DejaVuSans-75" d="M 544 1381 
L 544 3500 
L 1119 3500 
L 1119 1403 
Q 1119 906 1312 657 
Q 1506 409 1894 409 
Q 2359 409 2629 706 
Q 2900 1003 2900 1516 
L 2900 3500 
L 3475 3500 
L 3475 0 
L 2900 0 
L 2900 538 
Q 2691 219 2414 64 
Q 2138 -91 1772 -91 
Q 1169 -91 856 284 
Q 544 659 544 1381 
z
M 1991 3584 
L 1991 3584 
z
" transform="scale(0.015625)"/>
        <path id="DejaVuSans-67" d="M 2906 1791 
Q 2906 2416 2648 2759 
Q 2391 3103 1925 3103 
Q 1463 3103 1205 2759 
Q 947 2416 947 1791 
Q 947 1169 1205 825 
Q 1463 481 1925 481 
Q 2391 481 2648 825 
Q 2906 1169 2906 1791 
z
M 3481 434 
Q 3481 -459 3084 -895 
Q 2688 -1331 1869 -1331 
Q 1566 -1331 1297 -1286 
Q 1028 -1241 775 -1147 
L 775 -588 
Q 1028 -725 1275 -790 
Q 1522 -856 1778 -856 
Q 2344 -856 2625 -561 
Q 2906 -266 2906 331 
L 2906 616 
Q 2728 306 2450 153 
Q 2172 0 1784 0 
Q 1141 0 747 490 
Q 353 981 353 1791 
Q 353 2603 747 3093 
Q 1141 3584 1784 3584 
Q 2172 3584 2450 3431 
Q 2728 3278 2906 2969 
L 2906 3500 
L 3481 3500 
L 3481 434 
z
" transform="scale(0.015625)"/>
       </defs>
       <use xlink:href="#DejaVuSans-41"/>
       <use xlink:href="#DejaVuSans-75" transform="translate(68.408203 0)"/>
       <use xlink:href="#DejaVuSans-67" transform="translate(131.787109 0)"/>
       <use xlink:href="#DejaVuSans-20" transform="translate(195.263672 0)"/>
       <use xlink:href="#DejaVuSans-32" transform="translate(227.050781 0)"/>
       <use xlink:href="#DejaVuSans-30" transform="translate(290.673828 0)"/>
       <use xlink:href="#DejaVuSans-32" transform="translate(354.296875 0)"/>
       <use xlink:href="#DejaVuSans-30" transform="translate(417.919922 0)"/>
      </g>
     </g>
    </g>
    <g id="xtick_3">
     <g id="line2d_3">
      <path d="M 147.975767 319.222644 
L 147.975767 24.397812 
" clip-path="url(#p8ec8326ebe)" style="fill: none; stroke-dasharray: 2.96,1.28; stroke-dashoffset: 0; stroke: #cccccc; stroke-width: 0.8"/>
     </g>
     <g id="text_3">
      <!-- Nov 2020 -->
      <g style="fill: #262626" transform="translate(116.011779 362.998744) rotate(-45) scale(0.09 -0.09)">
       <defs>
        <path id="DejaVuSans-4e" d="M 628 4666 
L 1478 4666 
L 3547 763 
L 3547 4666 
L 4159 4666 
L 4159 0 
L 3309 0 
L 1241 3903 
L 1241 0 
L 628 0 
L 628 4666 
z
" transform="scale(0.015625)"/>
        <path id="DejaVuSans-6f" d="M 1959 3097 
Q 1497 3097 1228 2736 
Q 959 2375 959 1747 
Q 959 1119 1226 758 
Q 1494 397 1959 397 
Q 2419 397 2687 759 
Q 2956 1122 2956 1747 
Q 2956 2369 2687 2733 
Q 2419 3097 1959 3097 
z
M 1959 3584 
Q 2709 3584 3137 3096 
Q 3566 2609 3566 1747 
Q 3566 888 3137 398 
Q 2709 -91 1959 -91 
Q 1206 -91 779 398 
Q 353 888 353 1747 
Q 353 2609 779 3096 
Q 1206 3584 1959 3584 
z
" transform="scale(0.015625)"/>
        <path id="DejaVuSans-76" d="M 191 3500 
L 800 3500 
L 1894 563 
L 2988 3500 
L 3597 3500 
L 2284 0 
L 1503 0 
L 191 3500 
z
" transform="scale(0.015625)"/>
       </defs>
       <use xlink:href="#DejaVuSans-4e"/>
       <use xlink:href="#DejaVuSans-6f" transform="translate(74.804688 0)"/>
       <use xlink:href="#DejaVuSans-76" transform="translate(135.986328 0)"/>
       <use xlink:href="#DejaVuSans-20" transform="translate(195.166016 0)"/>
       <use xlink:href="#DejaVuSans-32" transform="translate(226.953125 0)"/>
       <use xlink:href="#DejaVuSans-30" transform="translate(290.576172 0)"/>
       <use xlink:href="#DejaVuSans-32" transform="translate(354.199219 0)"/>
       <use xlink:href="#DejaVuSans-30" transform="translate(417.822266 0)"/>
      </g>
     </g>
    </g>
    <g id="xtick_4">
     <g id="line2d_4">
      <path d="M 184.525482 319.222644 
L 184.525482 24.397812 
" clip-path="url(#p8ec8326ebe)" style="fill: none; stroke-dasharray: 2.96,1.28; stroke-dashoffset: 0; stroke: #cccccc; stroke-width: 0.8"/>
     </g>
     <g id="text_4">
      <!-- Feb 2021 -->
      <g style="fill: #262626" transform="translate(153.71695 361.843287) rotate(-45) scale(0.09 -0.09)">
       <defs>
        <path id="DejaVuSans-46" d="M 628 4666 
L 3309 4666 
L 3309 4134 
L 1259 4134 
L 1259 2759 
L 3109 2759 
L 3109 2228 
L 1259 2228 
L 1259 0 
L 628 0 
L 628 4666 
z
" transform="scale(0.015625)"/>
        <path id="DejaVuSans-65" d="M 3597 1894 
L 3597 1613 
L 953 1613 
Q 991 1019 1311 708 
Q 1631 397 2203 397 
Q 2534 397 2845 478 
Q 3156 559 3463 722 
L 3463 178 
Q 3153 47 2828 -22 
Q 2503 -91 2169 -91 
Q 1331 -91 842 396 
Q 353 884 353 1716 
Q 353 2575 817 3079 
Q 1281 3584 2069 3584 
Q 2775 3584 3186 3129 
Q 3597 2675 3597 1894 
z
M 3022 2063 
Q 3016 2534 2758 2815 
Q 2500 3097 2075 3097 
Q 1594 3097 1305 2825 
Q 1016 2553 972 2059 
L 3022 2063 
z
" transform="scale(0.015625)"/>
        <path id="DejaVuSans-62" d="M 3116 1747 
Q 3116 2381 2855 2742 
Q 2594 3103 2138 3103 
Q 1681 3103 1420 2742 
Q 1159 2381 1159 1747 
Q 1159 1113 1420 752 
Q 1681 391 2138 391 
Q 2594 391 2855 752 
Q 3116 1113 3116 1747 
z
M 1159 2969 
Q 1341 3281 1617 3432 
Q 1894 3584 2278 3584 
Q 2916 3584 3314 3078 
Q 3713 2572 3713 1747 
Q 3713 922 3314 415 
Q 2916 -91 2278 -91 
Q 1894 -91 1617 61 
Q 1341 213 1159 525 
L 1159 0 
L 581 0 
L 581 4863 
L 1159 4863 
L 1159 2969 
z
" transform="scale(0.015625)"/>
        <path id="DejaVuSans-31" d="M 794 531 
L 1825 531 
L 1825 4091 
L 703 3866 
L 703 4441 
L 1819 4666 
L 2450 4666 
L 2450 531 
L 3481 531 
L 3481 0 
L 794 0 
L 794 531 
z
" transform="scale(0.015625)"/>
       </defs>
       <use xlink:href="#DejaVuSans-46"/>
       <use xlink:href="#DejaVuSans-65" transform="translate(52.019531 0)"/>
       <use xlink:href="#DejaVuSans-62" transform="translate(113.542969 0)"/>
       <use xlink:href="#DejaVuSans-20" transform="translate(177.019531 0)"/>
       <use xlink:href="#DejaVuSans-32" transform="translate(208.806641 0)"/>
       <use xlink:href="#DejaVuSans-30" transform="translate(272.429688 0)"/>
       <use xlink:href="#DejaVuSans-32" transform="translate(336.052734 0)"/>
       <use xlink:href="#DejaVuSans-31" transform="translate(399.675781 0)"/>
      </g>
     </g>
    </g>
    <g id="xtick_5">
     <g id="line2d_5">
      <path d="M 219.883359 319.222644 
L 219.883359 24.397812 
" clip-path="url(#p8ec8326ebe)" style="fill: none; stroke-dasharray: 2.96,1.28; stroke-dashoffset: 0; stroke: #cccccc; stroke-width: 0.8"/>
     </g>
     <g id="text_5">
      <!-- May 2021 -->
      <g style="fill: #262626" transform="translate(187.183537 363.734577) rotate(-45) scale(0.09 -0.09)">
       <use xlink:href="#DejaVuSans-4d"/>
       <use xlink:href="#DejaVuSans-61" transform="translate(86.279297 0)"/>
       <use xlink:href="#DejaVuSans-79" transform="translate(147.558594 0)"/>
       <use xlink:href="#DejaVuSans-20" transform="translate(206.738281 0)"/>
       <use xlink:href="#DejaVuSans-32" transform="translate(238.525391 0)"/>
       <use xlink:href="#DejaVuSans-30" transform="translate(302.148438 0)"/>
       <use xlink:href="#DejaVuSans-32" transform="translate(365.771484 0)"/>
       <use xlink:href="#DejaVuSans-31" transform="translate(429.394531 0)"/>
      </g>
     </g>
    </g>
    <g id="xtick_6">
     <g id="line2d_6">
      <path d="M 256.433073 319.222644 
L 256.433073 24.397812 
" clip-path="url(#p8ec8326ebe)" style="fill: none; stroke-dasharray: 2.96,1.28; stroke-dashoffset: 0; stroke: #cccccc; stroke-width: 0.8"/>
     </g>
     <g id="text_6">
      <!-- Aug 2021 -->
      <g style="fill: #262626" transform="translate(224.464113 363.003716) rotate(-45) scale(0.09 -0.09)">
       <use xlink:href="#DejaVuSans-41"/>
       <use xlink:href="#DejaVuSans-75" transform="translate(68.408203 0)"/>
       <use xlink:href="#DejaVuSans-67" transform="translate(131.787109 0)"/>
       <use xlink:href="#DejaVuSans-20" transform="translate(195.263672 0)"/>
       <use xlink:href="#DejaVuSans-32" transform="translate(227.050781 0)"/>
       <use xlink:href="#DejaVuSans-30" transform="translate(290.673828 0)"/>
       <use xlink:href="#DejaVuSans-32" transform="translate(354.296875 0)"/>
       <use xlink:href="#DejaVuSans-31" transform="translate(417.919922 0)"/>
      </g>
     </g>
    </g>
    <g id="xtick_7">
     <g id="line2d_7">
      <path d="M 292.982788 319.222644 
L 292.982788 24.397812 
" clip-path="url(#p8ec8326ebe)" style="fill: none; stroke-dasharray: 2.96,1.28; stroke-dashoffset: 0; stroke: #cccccc; stroke-width: 0.8"/>
     </g>
     <g id="text_7">
      <!-- Nov 2021 -->
      <g style="fill: #262626" transform="translate(261.0188 362.998744) rotate(-45) scale(0.09 -0.09)">
       <use xlink:href="#DejaVuSans-4e"/>
       <use xlink:href="#DejaVuSans-6f" transform="translate(74.804688 0)"/>
       <use xlink:href="#DejaVuSans-76" transform="translate(135.986328 0)"/>
       <use xlink:href="#DejaVuSans-20" transform="translate(195.166016 0)"/>
       <use xlink:href="#DejaVuSans-32" transform="translate(226.953125 0)"/>
       <use xlink:href="#DejaVuSans-30" transform="translate(290.576172 0)"/>
       <use xlink:href="#DejaVuSans-32" transform="translate(354.199219 0)"/>
       <use xlink:href="#DejaVuSans-31" transform="translate(417.822266 0)"/>
      </g>
     </g>
    </g>
    <g id="xtick_8">
     <g id="line2d_8">
      <path d="M 329.532503 319.222644 
L 329.532503 24.397812 
" clip-path="url(#p8ec8326ebe)" style="fill: none; stroke-dasharray: 2.96,1.28; stroke-dashoffset: 0; stroke: #cccccc; stroke-width: 0.8"/>
     </g>
     <g id="text_8">
      <!-- Feb 2022 -->
      <g style="fill: #262626" transform="translate(298.723971 361.843287) rotate(-45) scale(0.09 -0.09)">
       <use xlink:href="#DejaVuSans-46"/>
       <use xlink:href="#DejaVuSans-65" transform="translate(52.019531 0)"/>
       <use xlink:href="#DejaVuSans-62" transform="translate(113.542969 0)"/>
       <use xlink:href="#DejaVuSans-20" transform="translate(177.019531 0)"/>
       <use xlink:href="#DejaVuSans-32" transform="translate(208.806641 0)"/>
       <use xlink:href="#DejaVuSans-30" transform="translate(272.429688 0)"/>
       <use xlink:href="#DejaVuSans-32" transform="translate(336.052734 0)"/>
       <use xlink:href="#DejaVuSans-32" transform="translate(399.675781 0)"/>
      </g>
     </g>
    </g>
    <g id="xtick_9">
     <g id="line2d_9">
      <path d="M 364.89038 319.222644 
L 364.89038 24.397812 
" clip-path="url(#p8ec8326ebe)" style="fill: none; stroke-dasharray: 2.96,1.28; stroke-dashoffset: 0; stroke: #cccccc; stroke-width: 0.8"/>
     </g>
     <g id="text_9">
      <!-- May 2022 -->
      <g style="fill: #262626" transform="translate(332.190558 363.734577) rotate(-45) scale(0.09 -0.09)">
       <use xlink:href="#DejaVuSans-4d"/>
       <use xlink:href="#DejaVuSans-61" transform="translate(86.279297 0)"/>
       <use xlink:href="#DejaVuSans-79" transform="translate(147.558594 0)"/>
       <use xlink:href="#DejaVuSans-20" transform="translate(206.738281 0)"/>
       <use xlink:href="#DejaVuSans-32" transform="translate(238.525391 0)"/>
       <use xlink:href="#DejaVuSans-30" transform="translate(302.148438 0)"/>
       <use xlink:href="#DejaVuSans-32" transform="translate(365.771484 0)"/>
       <use xlink:href="#DejaVuSans-32" transform="translate(429.394531 0)"/>
      </g>
     </g>
    </g>
    <g id="xtick_10">
     <g id="line2d_10">
      <path d="M 401.440095 319.222644 
L 401.440095 24.397812 
" clip-path="url(#p8ec8326ebe)" style="fill: none; stroke-dasharray: 2.96,1.28; stroke-dashoffset: 0; stroke: #cccccc; stroke-width: 0.8"/>
     </g>
     <g id="text_10">
      <!-- Aug 2022 -->
      <g style="fill: #262626" transform="translate(369.471134 363.003716) rotate(-45) scale(0.09 -0.09)">
       <use xlink:href="#DejaVuSans-41"/>
       <use xlink:href="#DejaVuSans-75" transform="translate(68.408203 0)"/>
       <use xlink:href="#DejaVuSans-67" transform="translate(131.787109 0)"/>
       <use xlink:href="#DejaVuSans-20" transform="translate(195.263672 0)"/>
       <use xlink:href="#DejaVuSans-32" transform="translate(227.050781 0)"/>
       <use xlink:href="#DejaVuSans-30" transform="translate(290.673828 0)"/>
       <use xlink:href="#DejaVuSans-32" transform="translate(354.296875 0)"/>
       <use xlink:href="#DejaVuSans-32" transform="translate(417.919922 0)"/>
      </g>
     </g>
    </g>
    <g id="xtick_11">
     <g id="line2d_11">
      <path d="M 437.98981 319.222644 
L 437.98981 24.397812 
" clip-path="url(#p8ec8326ebe)" style="fill: none; stroke-dasharray: 2.96,1.28; stroke-dashoffset: 0; stroke: #cccccc; stroke-width: 0.8"/>
     </g>
     <g id="text_11">
      <!-- Nov 2022 -->
      <g style="fill: #262626" transform="translate(406.025821 362.998744) rotate(-45) scale(0.09 -0.09)">
       <use xlink:href="#DejaVuSans-4e"/>
       <use xlink:href="#DejaVuSans-6f" transform="translate(74.804688 0)"/>
       <use xlink:href="#DejaVuSans-76" transform="translate(135.986328 0)"/>
       <use xlink:href="#DejaVuSans-20" transform="translate(195.166016 0)"/>
       <use xlink:href="#DejaVuSans-32" transform="translate(226.953125 0)"/>
       <use xlink:href="#DejaVuSans-30" transform="translate(290.576172 0)"/>
       <use xlink:href="#DejaVuSans-32" transform="translate(354.199219 0)"/>
       <use xlink:href="#DejaVuSans-32" transform="translate(417.822266 0)"/>
      </g>
     </g>
    </g>
    <g id="xtick_12">
     <g id="line2d_12">
      <path d="M 474.539524 319.222644 
L 474.539524 24.397812 
" clip-path="url(#p8ec8326ebe)" style="fill: none; stroke-dasharray: 2.96,1.28; stroke-dashoffset: 0; stroke: #cccccc; stroke-width: 0.8"/>
     </g>
     <g id="text_12">
      <!-- Feb 2023 -->
      <g style="fill: #262626" transform="translate(443.730993 361.843287) rotate(-45) scale(0.09 -0.09)">
       <defs>
        <path id="DejaVuSans-33" d="M 2597 2516 
Q 3050 2419 3304 2112 
Q 3559 1806 3559 1356 
Q 3559 666 3084 287 
Q 2609 -91 1734 -91 
Q 1441 -91 1130 -33 
Q 819 25 488 141 
L 488 750 
Q 750 597 1062 519 
Q 1375 441 1716 441 
Q 2309 441 2620 675 
Q 2931 909 2931 1356 
Q 2931 1769 2642 2001 
Q 2353 2234 1838 2234 
L 1294 2234 
L 1294 2753 
L 1863 2753 
Q 2328 2753 2575 2939 
Q 2822 3125 2822 3475 
Q 2822 3834 2567 4026 
Q 2313 4219 1838 4219 
Q 1578 4219 1281 4162 
Q 984 4106 628 3988 
L 628 4550 
Q 988 4650 1302 4700 
Q 1616 4750 1894 4750 
Q 2613 4750 3031 4423 
Q 3450 4097 3450 3541 
Q 3450 3153 3228 2886 
Q 3006 2619 2597 2516 
z
" transform="scale(0.015625)"/>
       </defs>
       <use xlink:href="#DejaVuSans-46"/>
       <use xlink:href="#DejaVuSans-65" transform="translate(52.019531 0)"/>
       <use xlink:href="#DejaVuSans-62" transform="translate(113.542969 0)"/>
       <use xlink:href="#DejaVuSans-20" transform="translate(177.019531 0)"/>
       <use xlink:href="#DejaVuSans-32" transform="translate(208.806641 0)"/>
       <use xlink:href="#DejaVuSans-30" transform="translate(272.429688 0)"/>
       <use xlink:href="#DejaVuSans-32" transform="translate(336.052734 0)"/>
       <use xlink:href="#DejaVuSans-33" transform="translate(399.675781 0)"/>
      </g>
     </g>
    </g>
    <g id="xtick_13">
     <g id="line2d_13">
      <path d="M 509.897401 319.222644 
L 509.897401 24.397812 
" clip-path="url(#p8ec8326ebe)" style="fill: none; stroke-dasharray: 2.96,1.28; stroke-dashoffset: 0; stroke: #cccccc; stroke-width: 0.8"/>
     </g>
     <g id="text_13">
      <!-- May 2023 -->
      <g style="fill: #262626" transform="translate(477.197579 363.734577) rotate(-45) scale(0.09 -0.09)">
       <use xlink:href="#DejaVuSans-4d"/>
       <use xlink:href="#DejaVuSans-61" transform="translate(86.279297 0)"/>
       <use xlink:href="#DejaVuSans-79" transform="translate(147.558594 0)"/>
       <use xlink:href="#DejaVuSans-20" transform="translate(206.738281 0)"/>
       <use xlink:href="#DejaVuSans-32" transform="translate(238.525391 0)"/>
       <use xlink:href="#DejaVuSans-30" transform="translate(302.148438 0)"/>
       <use xlink:href="#DejaVuSans-32" transform="translate(365.771484 0)"/>
       <use xlink:href="#DejaVuSans-33" transform="translate(429.394531 0)"/>
      </g>
     </g>
    </g>
    <g id="xtick_14">
     <g id="line2d_14">
      <path d="M 546.447116 319.222644 
L 546.447116 24.397812 
" clip-path="url(#p8ec8326ebe)" style="fill: none; stroke-dasharray: 2.96,1.28; stroke-dashoffset: 0; stroke: #cccccc; stroke-width: 0.8"/>
     </g>
     <g id="text_14">
      <!-- Aug 2023 -->
      <g style="fill: #262626" transform="translate(514.478155 363.003716) rotate(-45) scale(0.09 -0.09)">
       <use xlink:href="#DejaVuSans-41"/>
       <use xlink:href="#DejaVuSans-75" transform="translate(68.408203 0)"/>
       <use xlink:href="#DejaVuSans-67" transform="translate(131.787109 0)"/>
       <use xlink:href="#DejaVuSans-20" transform="translate(195.263672 0)"/>
       <use xlink:href="#DejaVuSans-32" transform="translate(227.050781 0)"/>
       <use xlink:href="#DejaVuSans-30" transform="translate(290.673828 0)"/>
       <use xlink:href="#DejaVuSans-32" transform="translate(354.296875 0)"/>
       <use xlink:href="#DejaVuSans-33" transform="translate(417.919922 0)"/>
      </g>
     </g>
    </g>
    <g id="xtick_15">
     <g id="line2d_15">
      <path d="M 582.996831 319.222644 
L 582.996831 24.397812 
" clip-path="url(#p8ec8326ebe)" style="fill: none; stroke-dasharray: 2.96,1.28; stroke-dashoffset: 0; stroke: #cccccc; stroke-width: 0.8"/>
     </g>
     <g id="text_15">
      <!-- Nov 2023 -->
      <g style="fill: #262626" transform="translate(551.032842 362.998744) rotate(-45) scale(0.09 -0.09)">
       <use xlink:href="#DejaVuSans-4e"/>
       <use xlink:href="#DejaVuSans-6f" transform="translate(74.804688 0)"/>
       <use xlink:href="#DejaVuSans-76" transform="translate(135.986328 0)"/>
       <use xlink:href="#DejaVuSans-20" transform="translate(195.166016 0)"/>
       <use xlink:href="#DejaVuSans-32" transform="translate(226.953125 0)"/>
       <use xlink:href="#DejaVuSans-30" transform="translate(290.576172 0)"/>
       <use xlink:href="#DejaVuSans-32" transform="translate(354.199219 0)"/>
       <use xlink:href="#DejaVuSans-33" transform="translate(417.822266 0)"/>
      </g>
     </g>
    </g>
    <g id="xtick_16">
     <g id="line2d_16">
      <path d="M 619.546546 319.222644 
L 619.546546 24.397812 
" clip-path="url(#p8ec8326ebe)" style="fill: none; stroke-dasharray: 2.96,1.28; stroke-dashoffset: 0; stroke: #cccccc; stroke-width: 0.8"/>
     </g>
     <g id="text_16">
      <!-- Feb 2024 -->
      <g style="fill: #262626" transform="translate(588.738014 361.843287) rotate(-45) scale(0.09 -0.09)">
       <defs>
        <path id="DejaVuSans-34" d="M 2419 4116 
L 825 1625 
L 2419 1625 
L 2419 4116 
z
M 2253 4666 
L 3047 4666 
L 3047 1625 
L 3713 1625 
L 3713 1100 
L 3047 1100 
L 3047 0 
L 2419 0 
L 2419 1100 
L 313 1100 
L 313 1709 
L 2253 4666 
z
" transform="scale(0.015625)"/>
       </defs>
       <use xlink:href="#DejaVuSans-46"/>
       <use xlink:href="#DejaVuSans-65" transform="translate(52.019531 0)"/>
       <use xlink:href="#DejaVuSans-62" transform="translate(113.542969 0)"/>
       <use xlink:href="#DejaVuSans-20" transform="translate(177.019531 0)"/>
       <use xlink:href="#DejaVuSans-32" transform="translate(208.806641 0)"/>
       <use xlink:href="#DejaVuSans-30" transform="translate(272.429688 0)"/>
       <use xlink:href="#DejaVuSans-32" transform="translate(336.052734 0)"/>
       <use xlink:href="#DejaVuSans-34" transform="translate(399.675781 0)"/>
      </g>
     </g>
    </g>
    <g id="xtick_17">
     <g id="line2d_17">
      <path d="M 655.301702 319.222644 
L 655.301702 24.397812 
" clip-path="url(#p8ec8326ebe)" style="fill: none; stroke-dasharray: 2.96,1.28; stroke-dashoffset: 0; stroke: #cccccc; stroke-width: 0.8"/>
     </g>
     <g id="text_17">
      <!-- May 2024 -->
      <g style="fill: #262626" transform="translate(622.60188 363.734577) rotate(-45) scale(0.09 -0.09)">
       <use xlink:href="#DejaVuSans-4d"/>
       <use xlink:href="#DejaVuSans-61" transform="translate(86.279297 0)"/>
       <use xlink:href="#DejaVuSans-79" transform="translate(147.558594 0)"/>
       <use xlink:href="#DejaVuSans-20" transform="translate(206.738281 0)"/>
       <use xlink:href="#DejaVuSans-32" transform="translate(238.525391 0)"/>
       <use xlink:href="#DejaVuSans-30" transform="translate(302.148438 0)"/>
       <use xlink:href="#DejaVuSans-32" transform="translate(365.771484 0)"/>
       <use xlink:href="#DejaVuSans-34" transform="translate(429.394531 0)"/>
      </g>
     </g>
    </g>
    <g id="xtick_18">
     <g id="line2d_18">
      <path d="M 691.851416 319.222644 
L 691.851416 24.397812 
" clip-path="url(#p8ec8326ebe)" style="fill: none; stroke-dasharray: 2.96,1.28; stroke-dashoffset: 0; stroke: #cccccc; stroke-width: 0.8"/>
     </g>
     <g id="text_18">
      <!-- Aug 2024 -->
      <g style="fill: #262626" transform="translate(659.882456 363.003716) rotate(-45) scale(0.09 -0.09)">
       <use xlink:href="#DejaVuSans-41"/>
       <use xlink:href="#DejaVuSans-75" transform="translate(68.408203 0)"/>
       <use xlink:href="#DejaVuSans-67" transform="translate(131.787109 0)"/>
       <use xlink:href="#DejaVuSans-20" transform="translate(195.263672 0)"/>
       <use xlink:href="#DejaVuSans-32" transform="translate(227.050781 0)"/>
       <use xlink:href="#DejaVuSans-30" transform="translate(290.673828 0)"/>
       <use xlink:href="#DejaVuSans-32" transform="translate(354.296875 0)"/>
       <use xlink:href="#DejaVuSans-34" transform="translate(417.919922 0)"/>
      </g>
     </g>
    </g>
    <g id="xtick_19">
     <g id="line2d_19">
      <path d="M 728.401131 319.222644 
L 728.401131 24.397812 
" clip-path="url(#p8ec8326ebe)" style="fill: none; stroke-dasharray: 2.96,1.28; stroke-dashoffset: 0; stroke: #cccccc; stroke-width: 0.8"/>
     </g>
     <g id="text_19">
      <!-- Nov 2024 -->
      <g style="fill: #262626" transform="translate(696.437143 362.998744) rotate(-45) scale(0.09 -0.09)">
       <use xlink:href="#DejaVuSans-4e"/>
       <use xlink:href="#DejaVuSans-6f" transform="translate(74.804688 0)"/>
       <use xlink:href="#DejaVuSans-76" transform="translate(135.986328 0)"/>
       <use xlink:href="#DejaVuSans-20" transform="translate(195.166016 0)"/>
       <use xlink:href="#DejaVuSans-32" transform="translate(226.953125 0)"/>
       <use xlink:href="#DejaVuSans-30" transform="translate(290.576172 0)"/>
       <use xlink:href="#DejaVuSans-32" transform="translate(354.199219 0)"/>
       <use xlink:href="#DejaVuSans-34" transform="translate(417.822266 0)"/>
      </g>
     </g>
    </g>
    <g id="xtick_20">
     <g id="line2d_20">
      <path d="M 764.950846 319.222644 
L 764.950846 24.397812 
" clip-path="url(#p8ec8326ebe)" style="fill: none; stroke-dasharray: 2.96,1.28; stroke-dashoffset: 0; stroke: #cccccc; stroke-width: 0.8"/>
     </g>
     <g id="text_20">
      <!-- Feb 2025 -->
      <g style="fill: #262626" transform="translate(734.142314 361.843287) rotate(-45) scale(0.09 -0.09)">
       <defs>
        <path id="DejaVuSans-35" d="M 691 4666 
L 3169 4666 
L 3169 4134 
L 1269 4134 
L 1269 2991 
Q 1406 3038 1543 3061 
Q 1681 3084 1819 3084 
Q 2600 3084 3056 2656 
Q 3513 2228 3513 1497 
Q 3513 744 3044 326 
Q 2575 -91 1722 -91 
Q 1428 -91 1123 -41 
Q 819 9 494 109 
L 494 744 
Q 775 591 1075 516 
Q 1375 441 1709 441 
Q 2250 441 2565 725 
Q 2881 1009 2881 1497 
Q 2881 1984 2565 2268 
Q 2250 2553 1709 2553 
Q 1456 2553 1204 2497 
Q 953 2441 691 2322 
L 691 4666 
z
" transform="scale(0.015625)"/>
       </defs>
       <use xlink:href="#DejaVuSans-46"/>
       <use xlink:href="#DejaVuSans-65" transform="translate(52.019531 0)"/>
       <use xlink:href="#DejaVuSans-62" transform="translate(113.542969 0)"/>
       <use xlink:href="#DejaVuSans-20" transform="translate(177.019531 0)"/>
       <use xlink:href="#DejaVuSans-32" transform="translate(208.806641 0)"/>
       <use xlink:href="#DejaVuSans-30" transform="translate(272.429688 0)"/>
       <use xlink:href="#DejaVuSans-32" transform="translate(336.052734 0)"/>
       <use xlink:href="#DejaVuSans-35" transform="translate(399.675781 0)"/>
      </g>
     </g>
    </g>
    <g id="xtick_21">
     <g id="line2d_21">
      <path d="M 800.308723 319.222644 
L 800.308723 24.397812 
" clip-path="url(#p8ec8326ebe)" style="fill: none; stroke-dasharray: 2.96,1.28; stroke-dashoffset: 0; stroke: #cccccc; stroke-width: 0.8"/>
     </g>
     <g id="text_21">
      <!-- May 2025 -->
      <g style="fill: #262626" transform="translate(767.608901 363.734577) rotate(-45) scale(0.09 -0.09)">
       <use xlink:href="#DejaVuSans-4d"/>
       <use xlink:href="#DejaVuSans-61" transform="translate(86.279297 0)"/>
       <use xlink:href="#DejaVuSans-79" transform="translate(147.558594 0)"/>
       <use xlink:href="#DejaVuSans-20" transform="translate(206.738281 0)"/>
       <use xlink:href="#DejaVuSans-32" transform="translate(238.525391 0)"/>
       <use xlink:href="#DejaVuSans-30" transform="translate(302.148438 0)"/>
       <use xlink:href="#DejaVuSans-32" transform="translate(365.771484 0)"/>
       <use xlink:href="#DejaVuSans-35" transform="translate(429.394531 0)"/>
      </g>
     </g>
    </g>
    <g id="xtick_22">
     <g id="line2d_22">
      <path d="M 836.858438 319.222644 
L 836.858438 24.397812 
" clip-path="url(#p8ec8326ebe)" style="fill: none; stroke-dasharray: 2.96,1.28; stroke-dashoffset: 0; stroke: #cccccc; stroke-width: 0.8"/>
     </g>
     <g id="text_22">
      <!-- Aug 2025 -->
      <g style="fill: #262626" transform="translate(804.889477 363.003716) rotate(-45) scale(0.09 -0.09)">
       <use xlink:href="#DejaVuSans-41"/>
       <use xlink:href="#DejaVuSans-75" transform="translate(68.408203 0)"/>
       <use xlink:href="#DejaVuSans-67" transform="translate(131.787109 0)"/>
       <use xlink:href="#DejaVuSans-20" transform="translate(195.263672 0)"/>
       <use xlink:href="#DejaVuSans-32" transform="translate(227.050781 0)"/>
       <use xlink:href="#DejaVuSans-30" transform="translate(290.673828 0)"/>
       <use xlink:href="#DejaVuSans-32" transform="translate(354.296875 0)"/>
       <use xlink:href="#DejaVuSans-35" transform="translate(417.919922 0)"/>
      </g>
     </g>
    </g>
    <g id="text_23">
     <!-- Mois -->
     <g style="fill: #262626" transform="translate(443.363481 377.416363) scale(0.11 -0.11)">
      <defs>
       <path id="DejaVuSans-69" d="M 603 3500 
L 1178 3500 
L 1178 0 
L 603 0 
L 603 3500 
z
M 603 4863 
L 1178 4863 
L 1178 4134 
L 603 4134 
L 603 4863 
z
" transform="scale(0.015625)"/>
       <path id="DejaVuSans-73" d="M 2834 3397 
L 2834 2853 
Q 2591 2978 2328 3040 
Q 2066 3103 1784 3103 
Q 1356 3103 1142 2972 
Q 928 2841 928 2578 
Q 928 2378 1081 2264 
Q 1234 2150 1697 2047 
L 1894 2003 
Q 2506 1872 2764 1633 
Q 3022 1394 3022 966 
Q 3022 478 2636 193 
Q 2250 -91 1575 -91 
Q 1294 -91 989 -36 
Q 684 19 347 128 
L 347 722 
Q 666 556 975 473 
Q 1284 391 1588 391 
Q 1994 391 2212 530 
Q 2431 669 2431 922 
Q 2431 1156 2273 1281 
Q 2116 1406 1581 1522 
L 1381 1569 
Q 847 1681 609 1914 
Q 372 2147 372 2553 
Q 372 3047 722 3315 
Q 1072 3584 1716 3584 
Q 2034 3584 2315 3537 
Q 2597 3491 2834 3397 
z
" transform="scale(0.015625)"/>
      </defs>
      <use xlink:href="#DejaVuSans-4d"/>
      <use xlink:href="#DejaVuSans-6f" transform="translate(86.279297 0)"/>
      <use xlink:href="#DejaVuSans-69" transform="translate(147.460938 0)"/>
      <use xlink:href="#DejaVuSans-73" transform="translate(175.244141 0)"/>
     </g>
    </g>
   </g>
   <g id="matplotlib.axis_2">
    <g id="ytick_1">
     <g id="line2d_23">
      <path d="M 63.434688 315.269757 
L 848.300088 315.269757 
" clip-path="url(#p8ec8326ebe)" style="fill: none; stroke-dasharray: 2.96,1.28; stroke-dashoffset: 0; stroke: #cccccc; stroke-width: 0.8"/>
     </g>
     <g id="text_24">
      <!-- 1 000 € -->
      <g style="fill: #262626" transform="translate(21.845937 318.689054) scale(0.09 -0.09)">
       <defs>
        <path id="DejaVuSans-202f" transform="scale(0.015625)"/>
        <path id="DejaVuSans-20ac" d="M 3647 4306 
L 3647 3641 
Q 3363 3969 3098 4109 
Q 2834 4250 2516 4250 
Q 2025 4250 1709 3937 
Q 1394 3625 1294 3041 
L 3097 3041 
L 2925 2656 
L 1244 2656 
Q 1238 2581 1236 2509 
Q 1234 2438 1234 2328 
Q 1234 2228 1236 2156 
Q 1238 2084 1244 2009 
L 2638 2009 
L 2463 1625 
L 1294 1625 
Q 1394 1041 1709 725 
Q 2025 409 2516 409 
Q 2834 409 3098 550 
Q 3363 691 3647 1019 
L 3647 359 
Q 3369 134 3080 21 
Q 2791 -91 2491 -91 
Q 1750 -91 1267 362 
Q 784 816 659 1625 
L 0 1625 
L 172 2009 
L 606 2009 
Q 606 2081 604 2154 
Q 603 2228 603 2328 
Q 603 2438 604 2511 
Q 606 2584 606 2656 
L 0 2656 
L 172 3041 
L 659 3041 
Q 784 3844 1268 4297 
Q 1753 4750 2491 4750 
Q 2797 4750 3086 4639 
Q 3375 4528 3647 4306 
z
" transform="scale(0.015625)"/>
       </defs>
       <use xlink:href="#DejaVuSans-31"/>
       <use xlink:href="#DejaVuSans-202f" transform="translate(63.623047 0)"/>
       <use xlink:href="#DejaVuSans-30" transform="translate(83.59375 0)"/>
       <use xlink:href="#DejaVuSans-30" transform="translate(147.216797 0)"/>
       <use xlink:href="#DejaVuSans-30" transform="translate(210.839844 0)"/>
       <use xlink:href="#DejaVuSans-20" transform="translate(274.462891 0)"/>
       <use xlink:href="#DejaVuSans-20ac" transform="translate(306.25 0)"/>
      </g>
     </g>
    </g>
    <g id="ytick_2">
     <g id="line2d_24">
      <path d="M 63.434688 269.38627 
L 848.300088 269.38627 
" clip-path="url(#p8ec8326ebe)" style="fill: none; stroke-dasharray: 2.96,1.28; stroke-dashoffset: 0; stroke: #cccccc; stroke-width: 0.8"/>
     </g>
     <g id="text_25">
      <!-- 1 500 € -->
      <g style="fill: #262626" transform="translate(21.845937 272.805567) scale(0.09 -0.09)">
       <use xlink:href="#DejaVuSans-31"/>
       <use xlink:href="#DejaVuSans-202f" transform="translate(63.623047 0)"/>
       <use xlink:href="#DejaVuSans-35" transform="translate(83.59375 0)"/>
       <use xlink:href="#DejaVuSans-30" transform="translate(147.216797 0)"/>
       <use xlink:href="#DejaVuSans-30" transform="translate(210.839844 0)"/>
       <use xlink:href="#DejaVuSans-20" transform="translate(274.462891 0)"/>
       <use xlink:href="#DejaVuSans-20ac" transform="translate(306.25 0)"/>
      </g>
     </g>
    </g>
    <g id="ytick_3">
     <g id="line2d_25">
      <path d="M 63.434688 223.502783 
L 848.300088 223.502783 
" clip-path="url(#p8ec8326ebe)" style="fill: none; stroke-dasharray: 2.96,1.28; stroke-dashoffset: 0; stroke: #cccccc; stroke-width: 0.8"/>
     </g>
     <g id="text_26">
      <!-- 2 000 € -->
      <g style="fill: #262626" transform="translate(21.845937 226.92208) scale(0.09 -0.09)">
       <use xlink:href="#DejaVuSans-32"/>
       <use xlink:href="#DejaVuSans-202f" transform="translate(63.623047 0)"/>
       <use xlink:href="#DejaVuSans-30" transform="translate(83.59375 0)"/>
       <use xlink:href="#DejaVuSans-30" transform="translate(147.216797 0)"/>
       <use xlink:href="#DejaVuSans-30" transform="translate(210.839844 0)"/>
       <use xlink:href="#DejaVuSans-20" transform="translate(274.462891 0)"/>
       <use xlink:href="#DejaVuSans-20ac" transform="translate(306.25 0)"/>
      </g>
     </g>
    </g>
    <g id="ytick_4">
     <g id="line2d_26">
      <path d="M 63.434688 177.619297 
L 848.300088 177.619297 
" clip-path="url(#p8ec8326ebe)" style="fill: none; stroke-dasharray: 2.96,1.28; stroke-dashoffset: 0; stroke: #cccccc; stroke-width: 0.8"/>
     </g>
     <g id="text_27">
      <!-- 2 500 € -->
      <g style="fill: #262626" transform="translate(21.845937 181.038594) scale(0.09 -0.09)">
       <use xlink:href="#DejaVuSans-32"/>
       <use xlink:href="#DejaVuSans-202f" transform="translate(63.623047 0)"/>
       <use xlink:href="#DejaVuSans-35" transform="translate(83.59375 0)"/>
       <use xlink:href="#DejaVuSans-30" transform="translate(147.216797 0)"/>
       <use xlink:href="#DejaVuSans-30" transform="translate(210.839844 0)"/>
       <use xlink:href="#DejaVuSans-20" transform="translate(274.462891 0)"/>
       <use xlink:href="#DejaVuSans-20ac" transform="translate(306.25 0)"/>
      </g>
     </g>
    </g>
    <g id="ytick_5">
     <g id="line2d_27">
      <path d="M 63.434688 131.73581 
L 848.300088 131.73581 
" clip-path="url(#p8ec8326ebe)" style="fill: none; stroke-dasharray: 2.96,1.28; stroke-dashoffset: 0; stroke: #cccccc; stroke-width: 0.8"/>
     </g>
     <g id="text_28">
      <!-- 3 000 € -->
      <g style="fill: #262626" transform="translate(21.845937 135.155107) scale(0.09 -0.09)">
       <use xlink:href="#DejaVuSans-33"/>
       <use xlink:href="#DejaVuSans-202f" transform="translate(63.623047 0)"/>
       <use xlink:href="#DejaVuSans-30" transform="translate(83.59375 0)"/>
       <use xlink:href="#DejaVuSans-30" transform="translate(147.216797 0)"/>
       <use xlink:href="#DejaVuSans-30" transform="translate(210.839844 0)"/>
       <use xlink:href="#DejaVuSans-20" transform="translate(274.462891 0)"/>
       <use xlink:href="#DejaVuSans-20ac" transform="translate(306.25 0)"/>
      </g>
     </g>
    </g>
    <g id="ytick_6">
     <g id="line2d_28">
      <path d="M 63.434688 85.852324 
L 848.300088 85.852324 
" clip-path="url(#p8ec8326ebe)" style="fill: none; stroke-dasharray: 2.96,1.28; stroke-dashoffset: 0; stroke: #cccccc; stroke-width: 0.8"/>
     </g>
     <g id="text_29">
      <!-- 3 500 € -->
      <g style="fill: #262626" transform="translate(21.845937 89.27162) scale(0.09 -0.09)">
       <use xlink:href="#DejaVuSans-33"/>
       <use xlink:href="#DejaVuSans-202f" transform="translate(63.623047 0)"/>
       <use xlink:href="#DejaVuSans-35" transform="translate(83.59375 0)"/>
       <use xlink:href="#DejaVuSans-30" transform="translate(147.216797 0)"/>
       <use xlink:href="#DejaVuSans-30" transform="translate(210.839844 0)"/>
       <use xlink:href="#DejaVuSans-20" transform="translate(274.462891 0)"/>
       <use xlink:href="#DejaVuSans-20ac" transform="translate(306.25 0)"/>
      </g>
     </g>
    </g>
    <g id="ytick_7">
     <g id="line2d_29">
      <path d="M 63.434688 39.968837 
L 848.300088 39.968837 
" clip-path="url(#p8ec8326ebe)" style="fill: none; stroke-dasharray: 2.96,1.28; stroke-dashoffset: 0; stroke: #cccccc; stroke-width: 0.8"/>
     </g>
     <g id="text_30">
      <!-- 4 000 € -->
      <g style="fill: #262626" transform="translate(21.845937 43.388134) scale(0.09 -0.09)">
       <use xlink:href="#DejaVuSans-34"/>
       <use xlink:href="#DejaVuSans-202f" transform="translate(63.623047 0)"/>
       <use xlink:href="#DejaVuSans-30" transform="translate(83.59375 0)"/>
       <use xlink:href="#DejaVuSans-30" transform="translate(147.216797 0)"/>
       <use xlink:href="#DejaVuSans-30" transform="translate(210.839844 0)"/>
       <use xlink:href="#DejaVuSans-20" transform="translate(274.462891 0)"/>
       <use xlink:href="#DejaVuSans-20ac" transform="translate(306.25 0)"/>
      </g>
     </g>
    </g>
    <g id="text_31">
     <!-- € / m² -->
     <g style="fill: #262626" transform="translate(15.558281 188.220853) rotate(-90) scale(0.11 -0.11)">
      <defs>
       <path id="DejaVuSans-2f" d="M 1625 4666 
L 2156 4666 
L 531 -594 
L 0 -594 
L 1625 4666 
z
" transform="scale(0.015625)"/>
       <path id="DejaVuSans-6d" d="M 3328 2828 
Q 3544 3216 3844 3400 
Q 4144 3584 4550 3584 
Q 5097 3584 5394 3201 
Q 5691 2819 5691 2113 
L 5691 0 
L 5113 0 
L 5113 2094 
Q 5113 2597 4934 2840 
Q 4756 3084 4391 3084 
Q 3944 3084 3684 2787 
Q 3425 2491 3425 1978 
L 3425 0 
L 2847 0 
L 2847 2094 
Q 2847 2600 2669 2842 
Q 2491 3084 2119 3084 
Q 1678 3084 1418 2786 
Q 1159 2488 1159 1978 
L 1159 0 
L 581 0 
L 581 3500 
L 1159 3500 
L 1159 2956 
Q 1356 3278 1631 3431 
Q 1906 3584 2284 3584 
Q 2666 3584 2933 3390 
Q 3200 3197 3328 2828 
z
" transform="scale(0.015625)"/>
       <path id="DejaVuSans-b2" d="M 838 2444 
L 2163 2444 
L 2163 2088 
L 294 2088 
L 294 2431 
Q 400 2528 597 2703 
Q 1672 3656 1672 3950 
Q 1672 4156 1509 4282 
Q 1347 4409 1081 4409 
Q 919 4409 728 4354 
Q 538 4300 313 4191 
L 313 4575 
Q 553 4663 761 4706 
Q 969 4750 1147 4750 
Q 1600 4750 1872 4544 
Q 2144 4338 2144 4000 
Q 2144 3566 1109 2678 
Q 934 2528 838 2444 
z
" transform="scale(0.015625)"/>
      </defs>
      <use xlink:href="#DejaVuSans-20ac"/>
      <use xlink:href="#DejaVuSans-20" transform="translate(63.623047 0)"/>
      <use xlink:href="#DejaVuSans-2f" transform="translate(95.410156 0)"/>
      <use xlink:href="#DejaVuSans-20" transform="translate(129.101562 0)"/>
      <use xlink:href="#DejaVuSans-6d" transform="translate(160.888672 0)"/>
      <use xlink:href="#DejaVuSans-b2" transform="translate(258.300781 0)"/>
     </g>
    </g>
   </g>
   <g id="FillBetweenPolyCollection_1">
    <defs>
     <path id="m95b3960a86" d="M 99.110388 -167.260595 
L 99.110388 -94.576006 
L 111.426052 -95.594061 
L 123.741717 -97.998861 
L 135.660102 -92.91064 
L 147.975767 -102.903383 
L 159.894153 -101.741671 
L 172.209817 -101.599804 
L 184.525482 -106.833941 
L 195.649308 -104.772336 
L 207.964973 -114.260022 
L 219.883359 -117.276257 
L 232.199023 -114.314363 
L 244.117409 -116.240022 
L 256.433073 -120.916526 
L 268.748738 -118.10287 
L 280.667124 -128.076714 
L 292.982788 -119.060615 
L 304.901174 -117.024379 
L 317.216839 -127.790172 
L 329.532503 -130.062519 
L 340.65633 -132.694595 
L 352.971994 -128.438434 
L 364.89038 -134.41212 
L 377.206045 -136.453355 
L 389.12443 -145.047841 
L 401.440095 -143.694867 
L 413.755759 -138.577418 
L 425.674145 -137.036536 
L 437.98981 -134.830347 
L 449.908195 -137.066027 
L 462.22386 -137.437754 
L 474.539524 -135.309305 
L 485.663351 -141.782234 
L 497.979016 -143.588124 
L 509.897401 -126.229804 
L 522.213066 -127.873146 
L 534.131451 -124.534138 
L 546.447116 -132.812245 
L 558.762781 -127.12583 
L 570.681166 -125.909598 
L 582.996831 -140.156882 
L 594.915216 -126.084461 
L 607.230881 -140.099724 
L 619.546546 -119.920573 
L 631.067651 -132.96065 
L 643.383316 -122.615915 
L 655.301702 -133.571123 
L 667.617366 -132.125553 
L 679.535752 -128.667471 
L 691.851416 -129.159828 
L 704.167081 -123.681203 
L 716.085467 -130.801948 
L 728.401131 -128.065356 
L 740.319517 -133.753473 
L 752.635181 -136.559205 
L 764.950846 -120.746439 
L 776.074673 -127.423445 
L 788.390337 -127.790172 
L 800.308723 -144.247208 
L 812.624388 -141.298678 
L 812.624388 -171.165299 
L 812.624388 -171.165299 
L 800.308723 -181.967568 
L 788.390337 -181.552204 
L 776.074673 -183.484582 
L 764.950846 -185.976888 
L 752.635181 -219.934496 
L 740.319517 -200.981583 
L 728.401131 -211.847461 
L 716.085467 -194.458801 
L 704.167081 -183.065587 
L 691.851416 -178.636336 
L 679.535752 -189.620371 
L 667.617366 -197.443823 
L 655.301702 -211.148353 
L 643.383316 -175.728143 
L 631.067651 -193.456698 
L 619.546546 -182.722951 
L 607.230881 -204.885367 
L 594.915216 -184.362888 
L 582.996831 -207.684136 
L 570.681166 -186.157144 
L 558.762781 -190.417575 
L 546.447116 -202.481149 
L 534.131451 -186.72114 
L 522.213066 -201.239399 
L 509.897401 -183.065587 
L 497.979016 -191.827565 
L 485.663351 -228.238537 
L 474.539524 -196.379992 
L 462.22386 -221.277346 
L 449.908195 -190.225428 
L 437.98981 -197.366437 
L 425.674145 -196.431464 
L 413.755759 -191.289314 
L 401.440095 -198.068759 
L 389.12443 -218.424713 
L 377.206045 -196.310957 
L 364.89038 -189.347255 
L 352.971994 -179.150791 
L 340.65633 -199.441622 
L 329.532503 -187.55044 
L 317.216839 -185.226895 
L 304.901174 -182.574986 
L 292.982788 -183.744876 
L 280.667124 -189.819001 
L 268.748738 -173.161786 
L 256.433073 -173.242911 
L 244.117409 -171.104 
L 232.199023 -176.365711 
L 219.883359 -177.320772 
L 207.964973 -182.892159 
L 195.649308 -164.791645 
L 184.525482 -161.501033 
L 172.209817 -159.040571 
L 159.894153 -163.05711 
L 147.975767 -151.710191 
L 135.660102 -157.977681 
L 123.741717 -158.971577 
L 111.426052 -141.124903 
L 99.110388 -167.260595 
z
" style="stroke: #4c72b0; stroke-opacity: 0.15; stroke-width: 0.8"/>
    </defs>
    <g clip-path="url(#p8ec8326ebe)">
     <use xlink:href="#m95b3960a86" x="0" y="386.90402" style="fill: #4c72b0; fill-opacity: 0.15; stroke: #4c72b0; stroke-opacity: 0.15; stroke-width: 0.8"/>
    </g>
   </g>
   <g id="FillBetweenPolyCollection_2">
    <defs>
     <path id="m1415fef291" d="M 99.110388 -244.697362 
L 99.110388 -122.702583 
L 111.426052 -113.956769 
L 123.741717 -87.127388 
L 135.660102 -95.958796 
L 147.975767 -99.164355 
L 159.894153 -111.860881 
L 172.209817 -137.541193 
L 184.525482 -81.082504 
L 195.649308 -105.282153 
L 207.964973 -109.065528 
L 219.883359 -136.788814 
L 232.199023 -100.217418 
L 244.117409 -115.614419 
L 256.433073 -120.066832 
L 268.748738 -111.290705 
L 280.667124 -134.724057 
L 292.982788 -113.095032 
L 304.901174 -123.760912 
L 317.216839 -116.310289 
L 329.532503 -125.787702 
L 340.65633 -102.213928 
L 352.971994 -140.812443 
L 364.89038 -124.741342 
L 377.206045 -132.617867 
L 389.12443 -146.96536 
L 401.440095 -134.146067 
L 413.755759 -123.688788 
L 425.674145 -109.932228 
L 437.98981 -154.353788 
L 449.908195 -119.913549 
L 462.22386 -153.904939 
L 474.539524 -118.246793 
L 485.663351 -117.517749 
L 497.979016 -116.792952 
L 509.897401 -131.728316 
L 522.213066 -113.926868 
L 534.131451 -139.961211 
L 546.447116 -125.470887 
L 558.762781 -121.523152 
L 570.681166 -116.814382 
L 582.996831 -125.050859 
L 594.915216 -119.811924 
L 607.230881 -119.071581 
L 619.546546 -117.648744 
L 631.067651 -137.346775 
L 643.383316 -113.469206 
L 655.301702 -134.880478 
L 667.617366 -120.355903 
L 679.535752 -145.463683 
L 691.851416 -127.667621 
L 704.167081 -133.208769 
L 716.085467 -150.303978 
L 728.401131 -84.748021 
L 740.319517 -99.974063 
L 752.635181 -118.809473 
L 764.950846 -117.419801 
L 776.074673 -128.503936 
L 788.390337 -126.432255 
L 800.308723 -109.986686 
L 812.624388 -120.559091 
L 812.624388 -246.712029 
L 812.624388 -246.712029 
L 800.308723 -266.538524 
L 788.390337 -248.991586 
L 776.074673 -264.244064 
L 764.950846 -268.826158 
L 752.635181 -226.013077 
L 740.319517 -240.367085 
L 728.401131 -244.406107 
L 716.085467 -280.083312 
L 704.167081 -289.207706 
L 691.851416 -232.679005 
L 679.535752 -244.319206 
L 667.617366 -246.215334 
L 655.301702 -267.411784 
L 643.383316 -275.889784 
L 631.067651 -246.501329 
L 619.546546 -240.999101 
L 607.230881 -290.011741 
L 594.915216 -261.121962 
L 582.996831 -282.042823 
L 570.681166 -223.878666 
L 558.762781 -298.661931 
L 546.447116 -269.286205 
L 534.131451 -275.9817 
L 522.213066 -260.049431 
L 509.897401 -262.163707 
L 497.979016 -255.715033 
L 485.663351 -254.125403 
L 474.539524 -244.528264 
L 462.22386 -256.712259 
L 449.908195 -270.998012 
L 437.98981 -275.945637 
L 425.674145 -246.541309 
L 413.755759 -286.294575 
L 401.440095 -245.769806 
L 389.12443 -257.111431 
L 377.206045 -282.218781 
L 364.89038 -260.922234 
L 352.971994 -276.289179 
L 340.65633 -247.70727 
L 329.532503 -280.21608 
L 317.216839 -247.64246 
L 304.901174 -280.283956 
L 292.982788 -265.974359 
L 280.667124 -275.508312 
L 268.748738 -249.755288 
L 256.433073 -262.608775 
L 244.117409 -238.158673 
L 232.199023 -246.456155 
L 219.883359 -258.991833 
L 207.964973 -226.327161 
L 195.649308 -228.995554 
L 184.525482 -229.444851 
L 172.209817 -257.759661 
L 159.894153 -262.451302 
L 147.975767 -240.132791 
L 135.660102 -223.575388 
L 123.741717 -213.325598 
L 111.426052 -229.154646 
L 99.110388 -244.697362 
z
" style="stroke: #dd8452; stroke-opacity: 0.15; stroke-width: 0.8"/>
    </defs>
    <g clip-path="url(#p8ec8326ebe)">
     <use xlink:href="#m1415fef291" x="0" y="386.90402" style="fill: #dd8452; fill-opacity: 0.15; stroke: #dd8452; stroke-opacity: 0.15; stroke-width: 0.8"/>
    </g>
   </g>
   <g id="FillBetweenPolyCollection_3">
    <defs>
     <path id="mb0e0dd53db" d="M 99.110388 -210.537237 
L 99.110388 -104.83027 
L 111.426052 -104.508141 
L 123.741717 -113.346523 
L 135.660102 -109.105777 
L 147.975767 -116.951287 
L 159.894153 -124.431699 
L 172.209817 -115.287092 
L 184.525482 -134.552825 
L 195.649308 -138.811823 
L 207.964973 -117.082147 
L 219.883359 -121.569798 
L 232.199023 -136.829217 
L 244.117409 -134.198162 
L 256.433073 -139.812731 
L 268.748738 -138.713546 
L 280.667124 -143.457561 
L 292.982788 -151.093947 
L 304.901174 -139.049558 
L 317.216839 -131.086583 
L 329.532503 -137.628075 
L 340.65633 -135.853927 
L 352.971994 -143.687499 
L 364.89038 -151.569197 
L 377.206045 -164.593015 
L 389.12443 -144.449879 
L 401.440095 -160.620419 
L 413.755759 -164.063017 
L 425.674145 -167.572462 
L 437.98981 -173.829301 
L 449.908195 -166.622292 
L 462.22386 -159.170808 
L 474.539524 -155.031281 
L 485.663351 -169.95602 
L 497.979016 -168.967983 
L 509.897401 -194.850543 
L 522.213066 -171.87648 
L 534.131451 -170.460234 
L 546.447116 -180.718813 
L 558.762781 -175.436249 
L 570.681166 -167.299467 
L 582.996831 -176.809314 
L 594.915216 -173.989733 
L 607.230881 -167.572462 
L 619.546546 -138.802156 
L 631.067651 -145.639886 
L 643.383316 -153.954636 
L 655.301702 -104.891604 
L 667.617366 -169.460209 
L 679.535752 -148.018218 
L 691.851416 -164.508638 
L 704.167081 -168.538769 
L 716.085467 -141.444273 
L 728.401131 -162.807209 
L 740.319517 -153.480482 
L 752.635181 -142.492305 
L 764.950846 -162.193776 
L 776.074673 -154.949015 
L 788.390337 -177.057036 
L 800.308723 -173.657673 
L 812.624388 -135.403743 
L 812.624388 -244.067366 
L 812.624388 -244.067366 
L 800.308723 -208.570891 
L 788.390337 -240.817205 
L 776.074673 -252.688021 
L 764.950846 -229.285217 
L 752.635181 -219.64551 
L 740.319517 -225.091836 
L 728.401131 -218.877089 
L 716.085467 -206.519051 
L 704.167081 -251.153276 
L 691.851416 -228.869029 
L 679.535752 -200.813925 
L 667.617366 -228.312286 
L 655.301702 -206.581909 
L 643.383316 -226.429359 
L 631.067651 -256.624828 
L 619.546546 -213.696596 
L 607.230881 -265.240194 
L 594.915216 -244.462062 
L 582.996831 -258.754876 
L 570.681166 -221.124301 
L 558.762781 -236.814815 
L 546.447116 -227.08274 
L 534.131451 -255.521159 
L 522.213066 -230.284558 
L 509.897401 -349.105078 
L 497.979016 -240.747647 
L 485.663351 -254.656936 
L 474.539524 -264.344907 
L 462.22386 -242.299626 
L 449.908195 -316.036545 
L 437.98981 -228.758972 
L 425.674145 -227.239131 
L 413.755759 -236.861273 
L 401.440095 -212.188741 
L 389.12443 -256.821803 
L 377.206045 -231.079379 
L 364.89038 -205.132535 
L 352.971994 -211.057435 
L 340.65633 -190.00916 
L 329.532503 -227.553849 
L 317.216839 -221.956717 
L 304.901174 -209.833686 
L 292.982788 -209.437668 
L 280.667124 -201.136524 
L 268.748738 -202.505965 
L 256.433073 -195.902039 
L 244.117409 -200.321552 
L 232.199023 -218.404422 
L 219.883359 -182.882071 
L 207.964973 -183.5574 
L 195.649308 -186.61113 
L 184.525482 -246.518044 
L 172.209817 -183.902005 
L 159.894153 -206.746919 
L 147.975767 -171.797417 
L 135.660102 -169.092666 
L 123.741717 -174.524506 
L 111.426052 -152.268305 
L 99.110388 -210.537237 
z
" style="stroke: #55a868; stroke-opacity: 0.15; stroke-width: 0.8"/>
    </defs>
    <g clip-path="url(#p8ec8326ebe)">
     <use xlink:href="#mb0e0dd53db" x="0" y="386.90402" style="fill: #55a868; fill-opacity: 0.15; stroke: #55a868; stroke-opacity: 0.15; stroke-width: 0.8"/>
    </g>
   </g>
   <g id="line2d_30">
    <path d="M 99.110388 272.533522 
L 111.426052 272.039788 
L 123.741717 269.286523 
L 135.660102 263.874102 
L 147.975767 261.72198 
L 159.894153 262.668246 
L 172.209817 261.72198 
L 184.525482 258.401963 
L 195.649308 254.29026 
L 207.964973 251.457135 
L 219.883359 249.538095 
L 232.199023 248.513658 
L 244.117409 247.780324 
L 256.433073 245.894955 
L 268.748738 243.628733 
L 280.667124 241.944659 
L 292.982788 239.034441 
L 304.901174 237.498737 
L 317.216839 237.498737 
L 329.532503 237.114814 
L 340.65633 236.725847 
L 352.971994 234.724843 
L 364.89038 231.029496 
L 377.206045 231.029496 
L 389.12443 225.5981 
L 401.440095 223.842855 
L 413.755759 219.774281 
L 425.674145 223.714519 
L 437.98981 225.16692 
L 449.908195 224.229968 
L 462.22386 224.229968 
L 474.539524 222.060399 
L 485.663351 221.806663 
L 497.979016 221.806663 
L 509.897401 228.810712 
L 522.213066 232.38779 
L 534.131451 234.585365 
L 546.447116 232.266264 
L 558.762781 230.874765 
L 570.681166 228.469662 
L 582.996831 227.737962 
L 594.915216 229.154286 
L 607.230881 229.154286 
L 619.546546 229.154286 
L 631.067651 230.895123 
L 643.383316 230.267032 
L 655.301702 225.168867 
L 667.617366 225.581449 
L 679.535752 225.581449 
L 691.851416 230.169798 
L 704.167081 230.478467 
L 716.085467 233.518211 
L 728.401131 231.317197 
L 740.319517 229.952718 
L 752.635181 233.218885 
L 764.950846 234.943417 
L 776.074673 235.469166 
L 788.390337 235.469166 
L 800.308723 231.784135 
L 812.624388 230.88879 
" clip-path="url(#p8ec8326ebe)" style="fill: none; stroke: #4c72b0; stroke-width: 2; stroke-linecap: round"/>
   </g>
   <g id="line2d_31">
    <path d="M 99.110388 273.027256 
L 111.426052 272.039788 
L 123.741717 260.018981 
L 135.660102 266.533258 
L 147.975767 261.214945 
L 159.894153 262.229014 
L 172.209817 263.107477 
L 184.525482 254.574912 
L 195.649308 254.005608 
L 207.964973 248.908662 
L 219.883359 247.441994 
L 232.199023 250.167529 
L 244.117409 248.118654 
L 256.433073 243.586211 
L 268.748738 243.671256 
L 280.667124 240.303108 
L 292.982788 237.765774 
L 304.901174 237.231701 
L 317.216839 236.997927 
L 329.532503 238.262543 
L 340.65633 227.287637 
L 352.971994 236.453768 
L 364.89038 232.995919 
L 377.206045 229.063073 
L 389.12443 208.03644 
L 401.440095 222.133127 
L 413.755759 225.552582 
L 425.674145 217.415436 
L 437.98981 225.295911 
L 449.908195 225.03793 
L 462.22386 223.422006 
L 474.539524 220.698793 
L 485.663351 217.290865 
L 497.979016 222.914534 
L 509.897401 236.850707 
L 522.213066 234.706891 
L 534.131451 230.06869 
L 546.447116 234.463839 
L 558.762781 225.258484 
L 570.681166 231.68084 
L 582.996831 220.542559 
L 594.915216 230.21744 
L 607.230881 228.091132 
L 619.546546 233.699114 
L 631.067651 226.83495 
L 643.383316 240.897419 
L 655.301702 218.411365 
L 667.617366 223.502783 
L 679.535752 227.660115 
L 691.851416 232.679481 
L 704.167081 234.356942 
L 716.085467 228.277452 
L 728.401131 234.809786 
L 740.319517 225.571146 
L 752.635181 231.627984 
L 764.950846 243.632812 
L 776.074673 238.25885 
L 788.390337 232.679481 
L 800.308723 220.563222 
L 812.624388 230.88879 
" clip-path="url(#p8ec8326ebe)" style="fill: none; stroke-dasharray: 0.7,1.155; stroke-dashoffset: 0; stroke: #4c72b0; stroke-opacity: 0.5; stroke-width: 0.7"/>
   </g>
   <g id="line2d_32">
    <path d="M 99.110388 203.100597 
L 111.426052 211.438616 
L 123.741717 218.581353 
L 135.660102 222.974741 
L 147.975767 222.974741 
L 159.894153 220.164699 
L 172.209817 220.164699 
L 184.525482 223.193804 
L 195.649308 224.289462 
L 207.964973 224.289462 
L 219.883359 219.840154 
L 232.199023 210.540284 
L 244.117409 197.030147 
L 256.433073 210.540284 
L 268.748738 196.465476 
L 280.667124 208.996029 
L 292.982788 208.996029 
L 304.901174 208.996029 
L 317.216839 208.709166 
L 329.532503 199.891584 
L 340.65633 197.586543 
L 352.971994 197.586543 
L 364.89038 197.586543 
L 377.206045 186.87273 
L 389.12443 189.5475 
L 401.440095 187.168948 
L 413.755759 189.5475 
L 425.674145 187.168948 
L 437.98981 180.36766 
L 449.908195 176.8348 
L 462.22386 176.8348 
L 474.539524 186.087639 
L 485.663351 196.886389 
L 497.979016 196.886389 
L 509.897401 193.685469 
L 522.213066 189.712873 
L 534.131451 187.125364 
L 546.447116 183.880103 
L 558.762781 183.880103 
L 570.681166 192.827493 
L 582.996831 196.699557 
L 594.915216 205.376449 
L 607.230881 204.938703 
L 619.546546 206.216275 
L 631.067651 206.216275 
L 643.383316 204.263348 
L 655.301702 203.220542 
L 667.617366 197.333306 
L 679.535752 200.459433 
L 691.851416 189.613711 
L 704.167081 183.647177 
L 716.085467 188.829658 
L 728.401131 195.594743 
L 740.319517 209.657734 
L 752.635181 209.657734 
L 764.950846 204.359594 
L 776.074673 205.460985 
L 788.390337 197.348919 
L 800.308723 201.720163 
L 812.624388 206.472571 
" clip-path="url(#p8ec8326ebe)" style="fill: none; stroke: #dd8452; stroke-width: 2; stroke-linecap: round"/>
   </g>
   <g id="line2d_33">
    <path d="M 99.110388 194.762578 
L 111.426052 211.438616 
L 123.741717 235.73838 
L 135.660102 225.72409 
L 147.975767 220.225392 
L 159.894153 220.104007 
L 172.209817 194.482459 
L 184.525482 226.283601 
L 195.649308 228.838073 
L 207.964973 222.295323 
L 219.883359 190.36471 
L 232.199023 217.384985 
L 244.117409 203.695583 
L 256.433073 188.325444 
L 268.748738 238.316737 
L 280.667124 189.235369 
L 292.982788 228.756688 
L 304.901174 188.661643 
L 317.216839 228.924385 
L 329.532503 183.78275 
L 340.65633 211.121525 
L 352.971994 184.051561 
L 364.89038 222.424124 
L 377.206045 174.089798 
L 389.12443 189.693899 
L 401.440095 189.401101 
L 413.755759 184.936796 
L 425.674145 228.786336 
L 437.98981 164.873884 
L 449.908195 175.798524 
L 462.22386 177.871077 
L 474.539524 199.468576 
L 485.663351 194.304201 
L 497.979016 213.973136 
L 509.897401 186.359009 
L 522.213066 193.066737 
L 534.131451 179.868487 
L 546.447116 187.891719 
L 558.762781 164.643589 
L 570.681166 212.989632 
L 582.996831 197.763267 
L 594.915216 195.635848 
L 607.230881 217.676309 
L 619.546546 212.11414 
L 631.067651 200.318409 
L 643.383316 188.543936 
L 655.301702 208.208288 
L 667.617366 206.122675 
L 679.535752 184.43123 
L 691.851416 194.796192 
L 704.167081 171.323254 
L 716.085467 182.863124 
L 728.401131 208.326362 
L 740.319517 210.989105 
L 752.635181 213.191888 
L 764.950846 197.730082 
L 776.074673 196.967755 
L 788.390337 218.474456 
L 800.308723 189.458805 
L 812.624388 206.472571 
" clip-path="url(#p8ec8326ebe)" style="fill: none; stroke-dasharray: 0.7,1.155; stroke-dashoffset: 0; stroke: #dd8452; stroke-opacity: 0.5; stroke-width: 0.7"/>
   </g>
   <g id="line2d_34">
    <path d="M 99.110388 259.674339 
L 111.426052 250.985573 
L 123.741717 251.551932 
L 135.660102 247.867192 
L 147.975767 240.209219 
L 159.894153 244.30514 
L 172.209817 234.499809 
L 184.525482 222.590054 
L 195.649308 226.460737 
L 207.964973 226.460737 
L 219.883359 230.220583 
L 232.199023 230.386699 
L 244.117409 227.482391 
L 256.433073 222.710501 
L 268.748738 216.779179 
L 280.667124 212.508564 
L 292.982788 212.508564 
L 304.901174 217.221296 
L 317.216839 214.744771 
L 329.532503 217.96848 
L 340.65633 213.724291 
L 352.971994 210.67699 
L 364.89038 205.261129 
L 377.206045 201.386479 
L 389.12443 204.381651 
L 401.440095 201.549636 
L 413.755759 201.549636 
L 425.674145 194.468186 
L 437.98981 184.269115 
L 449.908195 179.554669 
L 462.22386 179.554669 
L 474.539524 181.394235 
L 485.663351 188.094979 
L 497.979016 188.094979 
L 509.897401 186.871419 
L 522.213066 184.042985 
L 534.131451 181.620764 
L 546.447116 182.584702 
L 558.762781 182.584702 
L 570.681166 182.584702 
L 582.996831 181.698781 
L 594.915216 185.195737 
L 607.230881 189.55859 
L 619.546546 198.095993 
L 631.067651 204.052023 
L 643.383316 207.209566 
L 655.301702 204.082738 
L 667.617366 208.816749 
L 679.535752 200.805346 
L 691.851416 188.463585 
L 704.167081 194.097786 
L 716.085467 184.630547 
L 728.401131 189.181989 
L 740.319517 198.628338 
L 752.635181 191.194254 
L 764.950846 191.194254 
L 776.074673 184.631695 
L 788.390337 184.631695 
L 800.308723 177.104181 
L 812.624388 178.534526 
" clip-path="url(#p8ec8326ebe)" style="fill: none; stroke: #55a868; stroke-width: 2; stroke-linecap: round"/>
   </g>
   <g id="line2d_35">
    <path d="M 99.110388 250.985573 
L 111.426052 268.363104 
L 123.741717 236.802345 
L 135.660102 252.118291 
L 147.975767 243.616093 
L 159.894153 225.383526 
L 172.209817 244.994187 
L 184.525482 210.909653 
L 195.649308 219.796582 
L 207.964973 233.124891 
L 219.883359 240.07182 
L 232.199023 227.316275 
L 244.117409 227.648506 
L 256.433073 218.104726 
L 268.748738 209.563496 
L 280.667124 215.453632 
L 292.982788 198.013645 
L 304.901174 218.988959 
L 317.216839 226.539191 
L 329.532503 210.500583 
L 340.65633 216.948 
L 352.971994 199.668861 
L 364.89038 210.853398 
L 377.206045 196.200834 
L 389.12443 203.104097 
L 401.440095 205.659205 
L 413.755759 199.995176 
L 425.674145 188.941196 
L 437.98981 179.597033 
L 449.908195 169.753556 
L 462.22386 179.512304 
L 474.539524 192.913792 
L 485.663351 183.276165 
L 497.979016 198.740267 
L 509.897401 95.631366 
L 522.213066 190.466673 
L 534.131451 177.619297 
L 546.447116 185.622231 
L 558.762781 179.547174 
L 570.681166 186.541086 
L 582.996831 164.873884 
L 594.915216 183.850388 
L 607.230881 195.266792 
L 619.546546 207.178851 
L 631.067651 200.925195 
L 643.383316 210.393216 
L 655.301702 207.240282 
L 667.617366 194.370411 
L 679.535752 214.056183 
L 691.851416 182.556759 
L 704.167081 172.65892 
L 716.085467 205.638813 
L 728.401131 186.704335 
L 740.319517 191.659644 
L 752.635181 205.597033 
L 764.950846 190.728864 
L 776.074673 175.673837 
L 788.390337 178.534526 
L 800.308723 196.03614 
L 812.624388 158.391931 
" clip-path="url(#p8ec8326ebe)" style="fill: none; stroke-dasharray: 0.7,1.155; stroke-dashoffset: 0; stroke: #55a868; stroke-opacity: 0.5; stroke-width: 0.7"/>
   </g>
   <g id="patch_3">
    <path d="M 63.434688 319.222644 
L 63.434688 24.397812 
" style="fill: none; stroke: #ffffff; stroke-linejoin: miter; stroke-linecap: square"/>
   </g>
   <g id="patch_4">
    <path d="M 848.300088 319.222644 
L 848.300088 24.397812 
" style="fill: none; stroke: #ffffff; stroke-linejoin: miter; stroke-linecap: square"/>
   </g>
   <g id="patch_5">
    <path d="M 63.434688 319.222644 
L 848.300088 319.222644 
" style="fill: none; stroke: #ffffff; stroke-linejoin: miter; stroke-linecap: square"/>
   </g>
   <g id="patch_6">
    <path d="M 63.434688 24.397812 
L 848.300088 24.397812 
" style="fill: none; stroke: #ffffff; stroke-linejoin: miter; stroke-linecap: square"/>
   </g>
   <g id="text_32">
    <!-- Prix au m² — médiane mensuelle + lissage (bande IQR) -->
    <g style="fill: #262626" transform="translate(238.694575 18.397812) scale(0.14 -0.14)">
     <defs>
      <path id="DejaVuSans-Bold-50" d="M 588 4666 
L 2584 4666 
Q 3475 4666 3951 4270 
Q 4428 3875 4428 3144 
Q 4428 2409 3951 2014 
Q 3475 1619 2584 1619 
L 1791 1619 
L 1791 0 
L 588 0 
L 588 4666 
z
M 1791 3794 
L 1791 2491 
L 2456 2491 
Q 2806 2491 2997 2661 
Q 3188 2831 3188 3144 
Q 3188 3456 2997 3625 
Q 2806 3794 2456 3794 
L 1791 3794 
z
" transform="scale(0.015625)"/>
      <path id="DejaVuSans-Bold-72" d="M 3138 2547 
Q 2991 2616 2845 2648 
Q 2700 2681 2553 2681 
Q 2122 2681 1889 2404 
Q 1656 2128 1656 1613 
L 1656 0 
L 538 0 
L 538 3500 
L 1656 3500 
L 1656 2925 
Q 1872 3269 2151 3426 
Q 2431 3584 2822 3584 
Q 2878 3584 2943 3579 
Q 3009 3575 3134 3559 
L 3138 2547 
z
" transform="scale(0.015625)"/>
      <path id="DejaVuSans-Bold-69" d="M 538 3500 
L 1656 3500 
L 1656 0 
L 538 0 
L 538 3500 
z
M 538 4863 
L 1656 4863 
L 1656 3950 
L 538 3950 
L 538 4863 
z
" transform="scale(0.015625)"/>
      <path id="DejaVuSans-Bold-78" d="M 1422 1791 
L 159 3500 
L 1344 3500 
L 2059 2463 
L 2784 3500 
L 3969 3500 
L 2706 1797 
L 4031 0 
L 2847 0 
L 2059 1106 
L 1281 0 
L 97 0 
L 1422 1791 
z
" transform="scale(0.015625)"/>
      <path id="DejaVuSans-Bold-20" transform="scale(0.015625)"/>
      <path id="DejaVuSans-Bold-61" d="M 2106 1575 
Q 1756 1575 1579 1456 
Q 1403 1338 1403 1106 
Q 1403 894 1545 773 
Q 1688 653 1941 653 
Q 2256 653 2472 879 
Q 2688 1106 2688 1447 
L 2688 1575 
L 2106 1575 
z
M 3816 1997 
L 3816 0 
L 2688 0 
L 2688 519 
Q 2463 200 2181 54 
Q 1900 -91 1497 -91 
Q 953 -91 614 226 
Q 275 544 275 1050 
Q 275 1666 698 1953 
Q 1122 2241 2028 2241 
L 2688 2241 
L 2688 2328 
Q 2688 2594 2478 2717 
Q 2269 2841 1825 2841 
Q 1466 2841 1156 2769 
Q 847 2697 581 2553 
L 581 3406 
Q 941 3494 1303 3539 
Q 1666 3584 2028 3584 
Q 2975 3584 3395 3211 
Q 3816 2838 3816 1997 
z
" transform="scale(0.015625)"/>
      <path id="DejaVuSans-Bold-75" d="M 500 1363 
L 500 3500 
L 1625 3500 
L 1625 3150 
Q 1625 2866 1622 2436 
Q 1619 2006 1619 1863 
Q 1619 1441 1641 1255 
Q 1663 1069 1716 984 
Q 1784 875 1895 815 
Q 2006 756 2150 756 
Q 2500 756 2700 1025 
Q 2900 1294 2900 1772 
L 2900 3500 
L 4019 3500 
L 4019 0 
L 2900 0 
L 2900 506 
Q 2647 200 2364 54 
Q 2081 -91 1741 -91 
Q 1134 -91 817 281 
Q 500 653 500 1363 
z
" transform="scale(0.015625)"/>
      <path id="DejaVuSans-Bold-6d" d="M 3781 2919 
Q 3994 3244 4286 3414 
Q 4578 3584 4928 3584 
Q 5531 3584 5847 3212 
Q 6163 2841 6163 2131 
L 6163 0 
L 5038 0 
L 5038 1825 
Q 5041 1866 5042 1909 
Q 5044 1953 5044 2034 
Q 5044 2406 4934 2573 
Q 4825 2741 4581 2741 
Q 4263 2741 4089 2478 
Q 3916 2216 3909 1719 
L 3909 0 
L 2784 0 
L 2784 1825 
Q 2784 2406 2684 2573 
Q 2584 2741 2328 2741 
Q 2006 2741 1831 2477 
Q 1656 2213 1656 1722 
L 1656 0 
L 531 0 
L 531 3500 
L 1656 3500 
L 1656 2988 
Q 1863 3284 2130 3434 
Q 2397 3584 2719 3584 
Q 3081 3584 3359 3409 
Q 3638 3234 3781 2919 
z
" transform="scale(0.015625)"/>
      <path id="DejaVuSans-Bold-b2" d="M 1288 2613 
L 2444 2613 
L 2444 2088 
L 341 2088 
L 341 2566 
L 1319 3397 
Q 1509 3563 1590 3688 
Q 1672 3813 1672 3938 
Q 1672 4094 1558 4191 
Q 1444 4288 1259 4288 
Q 1066 4288 844 4217 
Q 622 4147 359 4000 
L 359 4581 
Q 631 4666 886 4708 
Q 1141 4750 1375 4750 
Q 1869 4750 2150 4548 
Q 2431 4347 2431 4000 
Q 2431 3775 2320 3586 
Q 2209 3397 1894 3128 
L 1288 2613 
z
" transform="scale(0.015625)"/>
      <path id="DejaVuSans-Bold-2014" d="M 344 2156 
L 6056 2156 
L 6056 1350 
L 344 1350 
L 344 2156 
z
" transform="scale(0.015625)"/>
      <path id="DejaVuSans-Bold-e9" d="M 4031 1759 
L 4031 1441 
L 1416 1441 
Q 1456 1047 1700 850 
Q 1944 653 2381 653 
Q 2734 653 3104 758 
Q 3475 863 3866 1075 
L 3866 213 
Q 3469 63 3072 -14 
Q 2675 -91 2278 -91 
Q 1328 -91 801 392 
Q 275 875 275 1747 
Q 275 2603 792 3093 
Q 1309 3584 2216 3584 
Q 3041 3584 3536 3087 
Q 4031 2591 4031 1759 
z
M 2881 2131 
Q 2881 2450 2695 2645 
Q 2509 2841 2209 2841 
Q 1884 2841 1681 2658 
Q 1478 2475 1428 2131 
L 2881 2131 
z
M 2702 5119 
L 3586 5119 
L 2433 3944 
L 1821 3944 
L 2702 5119 
z
" transform="scale(0.015625)"/>
      <path id="DejaVuSans-Bold-64" d="M 2919 2988 
L 2919 4863 
L 4044 4863 
L 4044 0 
L 2919 0 
L 2919 506 
Q 2688 197 2409 53 
Q 2131 -91 1766 -91 
Q 1119 -91 703 423 
Q 288 938 288 1747 
Q 288 2556 703 3070 
Q 1119 3584 1766 3584 
Q 2128 3584 2408 3439 
Q 2688 3294 2919 2988 
z
M 2181 722 
Q 2541 722 2730 984 
Q 2919 1247 2919 1747 
Q 2919 2247 2730 2509 
Q 2541 2772 2181 2772 
Q 1825 2772 1636 2509 
Q 1447 2247 1447 1747 
Q 1447 1247 1636 984 
Q 1825 722 2181 722 
z
" transform="scale(0.015625)"/>
      <path id="DejaVuSans-Bold-6e" d="M 4056 2131 
L 4056 0 
L 2931 0 
L 2931 347 
L 2931 1631 
Q 2931 2084 2911 2256 
Q 2891 2428 2841 2509 
Q 2775 2619 2662 2680 
Q 2550 2741 2406 2741 
Q 2056 2741 1856 2470 
Q 1656 2200 1656 1722 
L 1656 0 
L 538 0 
L 538 3500 
L 1656 3500 
L 1656 2988 
Q 1909 3294 2193 3439 
Q 2478 3584 2822 3584 
Q 3428 3584 3742 3212 
Q 4056 2841 4056 2131 
z
" transform="scale(0.015625)"/>
      <path id="DejaVuSans-Bold-65" d="M 4031 1759 
L 4031 1441 
L 1416 1441 
Q 1456 1047 1700 850 
Q 1944 653 2381 653 
Q 2734 653 3104 758 
Q 3475 863 3866 1075 
L 3866 213 
Q 3469 63 3072 -14 
Q 2675 -91 2278 -91 
Q 1328 -91 801 392 
Q 275 875 275 1747 
Q 275 2603 792 3093 
Q 1309 3584 2216 3584 
Q 3041 3584 3536 3087 
Q 4031 2591 4031 1759 
z
M 2881 2131 
Q 2881 2450 2695 2645 
Q 2509 2841 2209 2841 
Q 1884 2841 1681 2658 
Q 1478 2475 1428 2131 
L 2881 2131 
z
" transform="scale(0.015625)"/>
      <path id="DejaVuSans-Bold-73" d="M 3272 3391 
L 3272 2541 
Q 2913 2691 2578 2766 
Q 2244 2841 1947 2841 
Q 1628 2841 1473 2761 
Q 1319 2681 1319 2516 
Q 1319 2381 1436 2309 
Q 1553 2238 1856 2203 
L 2053 2175 
Q 2913 2066 3209 1816 
Q 3506 1566 3506 1031 
Q 3506 472 3093 190 
Q 2681 -91 1863 -91 
Q 1516 -91 1145 -36 
Q 775 19 384 128 
L 384 978 
Q 719 816 1070 734 
Q 1422 653 1784 653 
Q 2113 653 2278 743 
Q 2444 834 2444 1013 
Q 2444 1163 2330 1236 
Q 2216 1309 1875 1350 
L 1678 1375 
Q 931 1469 631 1722 
Q 331 1975 331 2491 
Q 331 3047 712 3315 
Q 1094 3584 1881 3584 
Q 2191 3584 2531 3537 
Q 2872 3491 3272 3391 
z
" transform="scale(0.015625)"/>
      <path id="DejaVuSans-Bold-6c" d="M 538 4863 
L 1656 4863 
L 1656 0 
L 538 0 
L 538 4863 
z
" transform="scale(0.015625)"/>
      <path id="DejaVuSans-Bold-2b" d="M 3053 4013 
L 3053 2375 
L 4684 2375 
L 4684 1638 
L 3053 1638 
L 3053 0 
L 2309 0 
L 2309 1638 
L 678 1638 
L 678 2375 
L 2309 2375 
L 2309 4013 
L 3053 4013 
z
" transform="scale(0.015625)"/>
      <path id="DejaVuSans-Bold-67" d="M 2919 594 
Q 2688 288 2409 144 
Q 2131 0 1766 0 
Q 1125 0 706 504 
Q 288 1009 288 1791 
Q 288 2575 706 3076 
Q 1125 3578 1766 3578 
Q 2131 3578 2409 3434 
Q 2688 3291 2919 2981 
L 2919 3500 
L 4044 3500 
L 4044 353 
Q 4044 -491 3511 -936 
Q 2978 -1381 1966 -1381 
Q 1638 -1381 1331 -1331 
Q 1025 -1281 716 -1178 
L 716 -306 
Q 1009 -475 1290 -558 
Q 1572 -641 1856 -641 
Q 2406 -641 2662 -400 
Q 2919 -159 2919 353 
L 2919 594 
z
M 2181 2772 
Q 1834 2772 1640 2515 
Q 1447 2259 1447 1791 
Q 1447 1309 1634 1061 
Q 1822 813 2181 813 
Q 2531 813 2725 1069 
Q 2919 1325 2919 1791 
Q 2919 2259 2725 2515 
Q 2531 2772 2181 2772 
z
" transform="scale(0.015625)"/>
      <path id="DejaVuSans-Bold-28" d="M 2413 -844 
L 1484 -844 
Q 1006 -72 778 623 
Q 550 1319 550 2003 
Q 550 2688 779 3389 
Q 1009 4091 1484 4856 
L 2413 4856 
Q 2013 4116 1813 3408 
Q 1613 2700 1613 2009 
Q 1613 1319 1811 609 
Q 2009 -100 2413 -844 
z
" transform="scale(0.015625)"/>
      <path id="DejaVuSans-Bold-62" d="M 2400 722 
Q 2759 722 2948 984 
Q 3138 1247 3138 1747 
Q 3138 2247 2948 2509 
Q 2759 2772 2400 2772 
Q 2041 2772 1848 2508 
Q 1656 2244 1656 1747 
Q 1656 1250 1848 986 
Q 2041 722 2400 722 
z
M 1656 2988 
Q 1888 3294 2169 3439 
Q 2450 3584 2816 3584 
Q 3463 3584 3878 3070 
Q 4294 2556 4294 1747 
Q 4294 938 3878 423 
Q 3463 -91 2816 -91 
Q 2450 -91 2169 54 
Q 1888 200 1656 506 
L 1656 0 
L 538 0 
L 538 4863 
L 1656 4863 
L 1656 2988 
z
" transform="scale(0.015625)"/>
      <path id="DejaVuSans-Bold-49" d="M 588 4666 
L 1791 4666 
L 1791 0 
L 588 0 
L 588 4666 
z
" transform="scale(0.015625)"/>
      <path id="DejaVuSans-Bold-51" d="M 2847 -84 
L 2753 -84 
Q 1600 -84 959 553 
Q 319 1191 319 2328 
Q 319 3463 958 4106 
Q 1597 4750 2719 4750 
Q 3853 4750 4486 4112 
Q 5119 3475 5119 2328 
Q 5119 1541 4783 972 
Q 4447 403 3816 116 
L 4756 -934 
L 3609 -934 
L 2847 -84 
z
M 2719 3878 
Q 2169 3878 1866 3472 
Q 1563 3066 1563 2328 
Q 1563 1578 1859 1179 
Q 2156 781 2719 781 
Q 3272 781 3575 1187 
Q 3878 1594 3878 2328 
Q 3878 3066 3575 3472 
Q 3272 3878 2719 3878 
z
" transform="scale(0.015625)"/>
      <path id="DejaVuSans-Bold-52" d="M 2297 2597 
Q 2675 2597 2839 2737 
Q 3003 2878 3003 3200 
Q 3003 3519 2839 3656 
Q 2675 3794 2297 3794 
L 1791 3794 
L 1791 2597 
L 2297 2597 
z
M 1791 1766 
L 1791 0 
L 588 0 
L 588 4666 
L 2425 4666 
Q 3347 4666 3776 4356 
Q 4206 4047 4206 3378 
Q 4206 2916 3982 2619 
Q 3759 2322 3309 2181 
Q 3556 2125 3751 1926 
Q 3947 1728 4147 1325 
L 4800 0 
L 3519 0 
L 2950 1159 
Q 2778 1509 2601 1637 
Q 2425 1766 2131 1766 
L 1791 1766 
z
" transform="scale(0.015625)"/>
      <path id="DejaVuSans-Bold-29" d="M 513 -844 
Q 913 -100 1113 609 
Q 1313 1319 1313 2009 
Q 1313 2700 1113 3408 
Q 913 4116 513 4856 
L 1441 4856 
Q 1916 4091 2145 3389 
Q 2375 2688 2375 2003 
Q 2375 1319 2147 623 
Q 1919 -72 1441 -844 
L 513 -844 
z
" transform="scale(0.015625)"/>
     </defs>
     <use xlink:href="#DejaVuSans-Bold-50"/>
     <use xlink:href="#DejaVuSans-Bold-72" transform="translate(73.291016 0)"/>
     <use xlink:href="#DejaVuSans-Bold-69" transform="translate(122.607422 0)"/>
     <use xlink:href="#DejaVuSans-Bold-78" transform="translate(156.884766 0)"/>
     <use xlink:href="#DejaVuSans-Bold-20" transform="translate(221.386719 0)"/>
     <use xlink:href="#DejaVuSans-Bold-61" transform="translate(256.201172 0)"/>
     <use xlink:href="#DejaVuSans-Bold-75" transform="translate(323.681641 0)"/>
     <use xlink:href="#DejaVuSans-Bold-20" transform="translate(394.873047 0)"/>
     <use xlink:href="#DejaVuSans-Bold-6d" transform="translate(429.6875 0)"/>
     <use xlink:href="#DejaVuSans-Bold-b2" transform="translate(533.886719 0)"/>
     <use xlink:href="#DejaVuSans-Bold-20" transform="translate(577.685547 0)"/>
     <use xlink:href="#DejaVuSans-Bold-2014" transform="translate(612.5 0)"/>
     <use xlink:href="#DejaVuSans-Bold-20" transform="translate(712.5 0)"/>
     <use xlink:href="#DejaVuSans-Bold-6d" transform="translate(747.314453 0)"/>
     <use xlink:href="#DejaVuSans-Bold-e9" transform="translate(851.513672 0)"/>
     <use xlink:href="#DejaVuSans-Bold-64" transform="translate(919.335938 0)"/>
     <use xlink:href="#DejaVuSans-Bold-69" transform="translate(990.917969 0)"/>
     <use xlink:href="#DejaVuSans-Bold-61" transform="translate(1025.195312 0)"/>
     <use xlink:href="#DejaVuSans-Bold-6e" transform="translate(1092.675781 0)"/>
     <use xlink:href="#DejaVuSans-Bold-65" transform="translate(1163.867188 0)"/>
     <use xlink:href="#DejaVuSans-Bold-20" transform="translate(1231.689453 0)"/>
     <use xlink:href="#DejaVuSans-Bold-6d" transform="translate(1266.503906 0)"/>
     <use xlink:href="#DejaVuSans-Bold-65" transform="translate(1370.703125 0)"/>
     <use xlink:href="#DejaVuSans-Bold-6e" transform="translate(1438.525391 0)"/>
     <use xlink:href="#DejaVuSans-Bold-73" transform="translate(1509.716797 0)"/>
     <use xlink:href="#DejaVuSans-Bold-75" transform="translate(1569.238281 0)"/>
     <use xlink:href="#DejaVuSans-Bold-65" transform="translate(1640.429688 0)"/>
     <use xlink:href="#DejaVuSans-Bold-6c" transform="translate(1708.251953 0)"/>
     <use xlink:href="#DejaVuSans-Bold-6c" transform="translate(1742.529297 0)"/>
     <use xlink:href="#DejaVuSans-Bold-65" transform="translate(1776.806641 0)"/>
     <use xlink:href="#DejaVuSans-Bold-20" transform="translate(1844.628906 0)"/>
     <use xlink:href="#DejaVuSans-Bold-2b" transform="translate(1879.443359 0)"/>
     <use xlink:href="#DejaVuSans-Bold-20" transform="translate(1963.232422 0)"/>
     <use xlink:href="#DejaVuSans-Bold-6c" transform="translate(1998.046875 0)"/>
     <use xlink:href="#DejaVuSans-Bold-69" transform="translate(2032.324219 0)"/>
     <use xlink:href="#DejaVuSans-Bold-73" transform="translate(2066.601562 0)"/>
     <use xlink:href="#DejaVuSans-Bold-73" transform="translate(2126.123047 0)"/>
     <use xlink:href="#DejaVuSans-Bold-61" transform="translate(2185.644531 0)"/>
     <use xlink:href="#DejaVuSans-Bold-67" transform="translate(2253.125 0)"/>
     <use xlink:href="#DejaVuSans-Bold-65" transform="translate(2324.707031 0)"/>
     <use xlink:href="#DejaVuSans-Bold-20" transform="translate(2392.529297 0)"/>
     <use xlink:href="#DejaVuSans-Bold-28" transform="translate(2427.34375 0)"/>
     <use xlink:href="#DejaVuSans-Bold-62" transform="translate(2473.046875 0)"/>
     <use xlink:href="#DejaVuSans-Bold-61" transform="translate(2544.628906 0)"/>
     <use xlink:href="#DejaVuSans-Bold-6e" transform="translate(2612.109375 0)"/>
     <use xlink:href="#DejaVuSans-Bold-64" transform="translate(2683.300781 0)"/>
     <use xlink:href="#DejaVuSans-Bold-65" transform="translate(2754.882812 0)"/>
     <use xlink:href="#DejaVuSans-Bold-20" transform="translate(2822.705078 0)"/>
     <use xlink:href="#DejaVuSans-Bold-49" transform="translate(2857.519531 0)"/>
     <use xlink:href="#DejaVuSans-Bold-51" transform="translate(2894.726562 0)"/>
     <use xlink:href="#DejaVuSans-Bold-52" transform="translate(2979.736328 0)"/>
     <use xlink:href="#DejaVuSans-Bold-29" transform="translate(3056.738281 0)"/>
    </g>
   </g>
   <g id="legend_1">
    <g id="patch_7">
     <path d="M 542.743056 44.808125 
L 842.000088 44.808125 
Q 843.800088 44.808125 843.800088 43.008125 
L 843.800088 30.697812 
Q 843.800088 28.897812 842.000088 28.897812 
L 542.743056 28.897812 
Q 540.943056 28.897812 540.943056 30.697812 
L 540.943056 43.008125 
Q 540.943056 44.808125 542.743056 44.808125 
z
" style="fill: #f5f5f5; opacity: 0.85; stroke: #cccccc; stroke-width: 0.8; stroke-linejoin: miter"/>
    </g>
    <g id="line2d_36">
     <path d="M 544.543056 36.186406 
L 553.543056 36.186406 
L 562.543056 36.186406 
" style="fill: none; stroke: #4c72b0; stroke-width: 2; stroke-linecap: round"/>
    </g>
    <g id="text_33">
     <!-- Brest (lissé) -->
     <g style="fill: #262626" transform="translate(569.743056 39.336406) scale(0.09 -0.09)">
      <defs>
       <path id="DejaVuSans-42" d="M 1259 2228 
L 1259 519 
L 2272 519 
Q 2781 519 3026 730 
Q 3272 941 3272 1375 
Q 3272 1813 3026 2020 
Q 2781 2228 2272 2228 
L 1259 2228 
z
M 1259 4147 
L 1259 2741 
L 2194 2741 
Q 2656 2741 2882 2914 
Q 3109 3088 3109 3444 
Q 3109 3797 2882 3972 
Q 2656 4147 2194 4147 
L 1259 4147 
z
M 628 4666 
L 2241 4666 
Q 2963 4666 3353 4366 
Q 3744 4066 3744 3513 
Q 3744 3084 3544 2831 
Q 3344 2578 2956 2516 
Q 3422 2416 3680 2098 
Q 3938 1781 3938 1306 
Q 3938 681 3513 340 
Q 3088 0 2303 0 
L 628 0 
L 628 4666 
z
" transform="scale(0.015625)"/>
       <path id="DejaVuSans-72" d="M 2631 2963 
Q 2534 3019 2420 3045 
Q 2306 3072 2169 3072 
Q 1681 3072 1420 2755 
Q 1159 2438 1159 1844 
L 1159 0 
L 581 0 
L 581 3500 
L 1159 3500 
L 1159 2956 
Q 1341 3275 1631 3429 
Q 1922 3584 2338 3584 
Q 2397 3584 2469 3576 
Q 2541 3569 2628 3553 
L 2631 2963 
z
" transform="scale(0.015625)"/>
       <path id="DejaVuSans-74" d="M 1172 4494 
L 1172 3500 
L 2356 3500 
L 2356 3053 
L 1172 3053 
L 1172 1153 
Q 1172 725 1289 603 
Q 1406 481 1766 481 
L 2356 481 
L 2356 0 
L 1766 0 
Q 1100 0 847 248 
Q 594 497 594 1153 
L 594 3053 
L 172 3053 
L 172 3500 
L 594 3500 
L 594 4494 
L 1172 4494 
z
" transform="scale(0.015625)"/>
       <path id="DejaVuSans-28" d="M 1984 4856 
Q 1566 4138 1362 3434 
Q 1159 2731 1159 2009 
Q 1159 1288 1364 580 
Q 1569 -128 1984 -844 
L 1484 -844 
Q 1016 -109 783 600 
Q 550 1309 550 2009 
Q 550 2706 781 3412 
Q 1013 4119 1484 4856 
L 1984 4856 
z
" transform="scale(0.015625)"/>
       <path id="DejaVuSans-6c" d="M 603 4863 
L 1178 4863 
L 1178 0 
L 603 0 
L 603 4863 
z
" transform="scale(0.015625)"/>
       <path id="DejaVuSans-e9" d="M 3597 1894 
L 3597 1613 
L 953 1613 
Q 991 1019 1311 708 
Q 1631 397 2203 397 
Q 2534 397 2845 478 
Q 3156 559 3463 722 
L 3463 178 
Q 3153 47 2828 -22 
Q 2503 -91 2169 -91 
Q 1331 -91 842 396 
Q 353 884 353 1716 
Q 353 2575 817 3079 
Q 1281 3584 2069 3584 
Q 2775 3584 3186 3129 
Q 3597 2675 3597 1894 
z
M 3022 2063 
Q 3016 2534 2758 2815 
Q 2500 3097 2075 3097 
Q 1594 3097 1305 2825 
Q 1016 2553 972 2059 
L 3022 2063 
z
M 2466 5119 
L 3088 5119 
L 2070 3944 
L 1591 3944 
L 2466 5119 
z
" transform="scale(0.015625)"/>
       <path id="DejaVuSans-29" d="M 513 4856 
L 1013 4856 
Q 1481 4119 1714 3412 
Q 1947 2706 1947 2009 
Q 1947 1309 1714 600 
Q 1481 -109 1013 -844 
L 513 -844 
Q 928 -128 1133 580 
Q 1338 1288 1338 2009 
Q 1338 2731 1133 3434 
Q 928 4138 513 4856 
z
" transform="scale(0.015625)"/>
      </defs>
      <use xlink:href="#DejaVuSans-42"/>
      <use xlink:href="#DejaVuSans-72" transform="translate(68.603516 0)"/>
      <use xlink:href="#DejaVuSans-65" transform="translate(107.466797 0)"/>
      <use xlink:href="#DejaVuSans-73" transform="translate(168.990234 0)"/>
      <use xlink:href="#DejaVuSans-74" transform="translate(221.089844 0)"/>
      <use xlink:href="#DejaVuSans-20" transform="translate(260.298828 0)"/>
      <use xlink:href="#DejaVuSans-28" transform="translate(292.085938 0)"/>
      <use xlink:href="#DejaVuSans-6c" transform="translate(331.099609 0)"/>
      <use xlink:href="#DejaVuSans-69" transform="translate(358.882812 0)"/>
      <use xlink:href="#DejaVuSans-73" transform="translate(386.666016 0)"/>
      <use xlink:href="#DejaVuSans-73" transform="translate(438.765625 0)"/>
      <use xlink:href="#DejaVuSans-e9" transform="translate(490.865234 0)"/>
      <use xlink:href="#DejaVuSans-29" transform="translate(552.388672 0)"/>
     </g>
    </g>
    <g id="line2d_37">
     <path d="M 640.968212 36.186406 
L 649.968212 36.186406 
L 658.968212 36.186406 
" style="fill: none; stroke: #dd8452; stroke-width: 2; stroke-linecap: round"/>
    </g>
    <g id="text_34">
     <!-- Le Havre (lissé) -->
     <g style="fill: #262626" transform="translate(666.168212 39.336406) scale(0.09 -0.09)">
      <defs>
       <path id="DejaVuSans-4c" d="M 628 4666 
L 1259 4666 
L 1259 531 
L 3531 531 
L 3531 0 
L 628 0 
L 628 4666 
z
" transform="scale(0.015625)"/>
       <path id="DejaVuSans-48" d="M 628 4666 
L 1259 4666 
L 1259 2753 
L 3553 2753 
L 3553 4666 
L 4184 4666 
L 4184 0 
L 3553 0 
L 3553 2222 
L 1259 2222 
L 1259 0 
L 628 0 
L 628 4666 
z
" transform="scale(0.015625)"/>
      </defs>
      <use xlink:href="#DejaVuSans-4c"/>
      <use xlink:href="#DejaVuSans-65" transform="translate(53.962891 0)"/>
      <use xlink:href="#DejaVuSans-20" transform="translate(115.486328 0)"/>
      <use xlink:href="#DejaVuSans-48" transform="translate(147.273438 0)"/>
      <use xlink:href="#DejaVuSans-61" transform="translate(222.46875 0)"/>
      <use xlink:href="#DejaVuSans-76" transform="translate(283.748047 0)"/>
      <use xlink:href="#DejaVuSans-72" transform="translate(342.927734 0)"/>
      <use xlink:href="#DejaVuSans-65" transform="translate(381.791016 0)"/>
      <use xlink:href="#DejaVuSans-20" transform="translate(443.314453 0)"/>
      <use xlink:href="#DejaVuSans-28" transform="translate(475.101562 0)"/>
      <use xlink:href="#DejaVuSans-6c" transform="translate(514.115234 0)"/>
      <use xlink:href="#DejaVuSans-69" transform="translate(541.898438 0)"/>
      <use xlink:href="#DejaVuSans-73" transform="translate(569.681641 0)"/>
      <use xlink:href="#DejaVuSans-73" transform="translate(621.78125 0)"/>
      <use xlink:href="#DejaVuSans-e9" transform="translate(673.880859 0)"/>
      <use xlink:href="#DejaVuSans-29" transform="translate(735.404297 0)"/>
     </g>
    </g>
    <g id="line2d_38">
     <path d="M 753.867587 36.186406 
L 762.867587 36.186406 
L 771.867587 36.186406 
" style="fill: none; stroke: #55a868; stroke-width: 2; stroke-linecap: round"/>
    </g>
    <g id="text_35">
     <!-- Lorient (lissé) -->
     <g style="fill: #262626" transform="translate(779.067587 39.336406) scale(0.09 -0.09)">
      <defs>
       <path id="DejaVuSans-6e" d="M 3513 2113 
L 3513 0 
L 2938 0 
L 2938 2094 
Q 2938 2591 2744 2837 
Q 2550 3084 2163 3084 
Q 1697 3084 1428 2787 
Q 1159 2491 1159 1978 
L 1159 0 
L 581 0 
L 581 3500 
L 1159 3500 
L 1159 2956 
Q 1366 3272 1645 3428 
Q 1925 3584 2291 3584 
Q 2894 3584 3203 3211 
Q 3513 2838 3513 2113 
z
" transform="scale(0.015625)"/>
      </defs>
      <use xlink:href="#DejaVuSans-4c"/>
      <use xlink:href="#DejaVuSans-6f" transform="translate(53.962891 0)"/>
      <use xlink:href="#DejaVuSans-72" transform="translate(115.144531 0)"/>
      <use xlink:href="#DejaVuSans-69" transform="translate(156.257812 0)"/>
      <use xlink:href="#DejaVuSans-65" transform="translate(184.041016 0)"/>
      <use xlink:href="#DejaVuSans-6e" transform="translate(245.564453 0)"/>
      <use xlink:href="#DejaVuSans-74" transform="translate(308.943359 0)"/>
      <use xlink:href="#DejaVuSans-20" transform="translate(348.152344 0)"/>
      <use xlink:href="#DejaVuSans-28" transform="translate(379.939453 0)"/>
      <use xlink:href="#DejaVuSans-6c" transform="translate(418.953125 0)"/>
      <use xlink:href="#DejaVuSans-69" transform="translate(446.736328 0)"/>
      <use xlink:href="#DejaVuSans-73" transform="translate(474.519531 0)"/>
      <use xlink:href="#DejaVuSans-73" transform="translate(526.619141 0)"/>
      <use xlink:href="#DejaVuSans-e9" transform="translate(578.71875 0)"/>
      <use xlink:href="#DejaVuSans-29" transform="translate(640.242188 0)"/>
     </g>
    </g>
   </g>
  </g>
 </g>
 <defs>
  <clipPath id="p8ec8326ebe">
   <rect x="63.434688" y="24.397812" width="784.8654" height="294.824832"/>
  </clipPath>
 </defs>
</svg>
