<?xml version="1.0" encoding="utf-8" standalone="no"?>
<!DOCTYPE svg PUBLIC "-//W3C//DTD SVG 1.1//EN"
  "http://www.w3.org/Graphics/SVG/1.1/DTD/svg11.dtd">
<svg xmlns:xlink="http://www.w3.org/1999/xlink" width="782.07915pt" height="350.68832pt" viewBox="0 0 782.07915 350.68832" xmlns="http://www.w3.org/2000/svg" version="1.1">
 <metadata>
  <rdf:RDF xmlns:dc="http://purl.org/dc/elements/1.1/" xmlns:cc="http://creativecommons.org/ns#" xmlns:rdf="http://www.w3.org/1999/02/22-rdf-syntax-ns#">
   <cc:Work>
    <dc:type rdf:resource="http://purl.org/dc/dcmitype/StillImage"/>
    <dc:date>2026-07-05T08:52:36.397130</dc:date>
    <dc:format>image/svg+xml</dc:format>
    <dc:creator>
     <cc:Agent>
      <dc:title>Matplotlib v3.11.0, https://matplotlib.org/</dc:title>
     </cc:Agent>
    </dc:creator>
   </cc:Work>
  </rdf:RDF>
 </metadata>
 <defs>
  <style type="text/css">*{stroke-linejoin: round; stroke-linecap: butt}</style>
 </defs>
 <g id="figure_1">
  <g id="patch_1">
   <path d="M 0 350.68832 
L 782.07915 350.68832 
L 782.07915 0 
L 0 0 
z
" style="fill: #ffffff"/>
  </g>
  <g id="axes_1">
   <g id="patch_2">
    <path d="M 63.78875 283.289414 
L 774.87915 283.289414 
L 774.87915 23.837812 
L 63.78875 23.837812 
z
" style="fill: #f5f5f5"/>
   </g>
   <g id="matplotlib.axis_1">
    <g id="xtick_1">
     <g id="line2d_1">
      <path d="M 86.833346 283.289414 
L 86.833346 23.837812 
" clip-path="url(#pb8ef8f3f3b)" style="fill: none; stroke-dasharray: 2.96,1.28; stroke-dashoffset: 0; stroke: #cccccc; stroke-width: 0.8"/>
     </g>
     <g id="text_1">
      <!-- Dec 2020 -->
      <g style="fill: #262626" transform="translate(54.770418 326.958618) rotate(-45) scale(0.09 -0.09)">
       <defs>
        <path id="DejaVuSans-27" d="M 1259 4147 
L 1259 519 
L 2022 519 
Q 2988 519 3436 956 
Q 3884 1394 3884 2338 
Q 3884 3275 3436 3711 
Q 2988 4147 2022 4147 
L 1259 4147 
z
M 628 4666 
L 1925 4666 
Q 3281 4666 3915 4102 
Q 4550 3538 4550 2338 
Q 4550 1131 3912 565 
Q 3275 0 1925 0 
L 628 0 
L 628 4666 
z
" transform="scale(0.015625)"/>
        <path id="DejaVuSans-48" d="M 3597 1894 
L 3597 1613 
L 953 1613 
Q 991 1019 1311 708 
Q 1631 397 2203 397 
Q 2534 397 2845 478 
Q 3156 559 3463 722 
L 3463 178 
Q 3153 47 2828 -22 
Q 2503 -91 2169 -91 
Q 1331 -91 842 396 
Q 353 884 353 1716 
Q 353 2575 817 3079 
Q 1281 3584 2069 3584 
Q 2775 3584 3186 3129 
Q 3597 2675 3597 1894 
z
M 3022 2063 
Q 3016 2534 2758 2815 
Q 2500 3097 2075 3097 
Q 1594 3097 1305 2825 
Q 1016 2553 972 2059 
L 3022 2063 
z
" transform="scale(0.015625)"/>
        <path id="DejaVuSans-46" d="M 3122 3366 
L 3122 2828 
Q 2878 2963 2633 3030 
Q 2388 3097 2138 3097 
Q 1578 3097 1268 2742 
Q 959 2388 959 1747 
Q 959 1106 1268 751 
Q 1578 397 2138 397 
Q 2388 397 2633 464 
Q 2878 531 3122 666 
L 3122 134 
Q 2881 22 2623 -34 
Q 2366 -91 2075 -91 
Q 1284 -91 818 406 
Q 353 903 353 1747 
Q 353 2603 823 3093 
Q 1294 3584 2113 3584 
Q 2378 3584 2631 3529 
Q 2884 3475 3122 3366 
z
" transform="scale(0.015625)"/>
        <path id="DejaVuSans-3" transform="scale(0.015625)"/>
        <path id="DejaVuSans-15" d="M 1228 531 
L 3431 531 
L 3431 0 
L 469 0 
L 469 531 
Q 828 903 1448 1529 
Q 2069 2156 2228 2338 
Q 2531 2678 2651 2914 
Q 2772 3150 2772 3378 
Q 2772 3750 2511 3984 
Q 2250 4219 1831 4219 
Q 1534 4219 1204 4116 
Q 875 4013 500 3803 
L 500 4441 
Q 881 4594 1212 4672 
Q 1544 4750 1819 4750 
Q 2544 4750 2975 4387 
Q 3406 4025 3406 3419 
Q 3406 3131 3298 2873 
Q 3191 2616 2906 2266 
Q 2828 2175 2409 1742 
Q 1991 1309 1228 531 
z
" transform="scale(0.015625)"/>
        <path id="DejaVuSans-13" d="M 2034 4250 
Q 1547 4250 1301 3770 
Q 1056 3291 1056 2328 
Q 1056 1369 1301 889 
Q 1547 409 2034 409 
Q 2525 409 2770 889 
Q 3016 1369 3016 2328 
Q 3016 3291 2770 3770 
Q 2525 4250 2034 4250 
z
M 2034 4750 
Q 2819 4750 3233 4129 
Q 3647 3509 3647 2328 
Q 3647 1150 3233 529 
Q 2819 -91 2034 -91 
Q 1250 -91 836 529 
Q 422 1150 422 2328 
Q 422 3509 836 4129 
Q 1250 4750 2034 4750 
z
" transform="scale(0.015625)"/>
       </defs>
       <use xlink:href="#DejaVuSans-27"/>
       <use xlink:href="#DejaVuSans-48" transform="translate(77 0)"/>
       <use xlink:href="#DejaVuSans-46" transform="translate(138.53125 0)"/>
       <use xlink:href="#DejaVuSans-3" transform="translate(193.515625 0)"/>
       <use xlink:href="#DejaVuSans-15" transform="translate(225.296875 0)"/>
       <use xlink:href="#DejaVuSans-13" transform="translate(288.921875 0)"/>
       <use xlink:href="#DejaVuSans-15" transform="translate(352.546875 0)"/>
       <use xlink:href="#DejaVuSans-13" transform="translate(416.171875 0)"/>
      </g>
     </g>
    </g>
    <g id="xtick_2">
     <g id="line2d_2">
      <path d="M 113.768589 283.289414 
L 113.768589 23.837812 
" clip-path="url(#pb8ef8f3f3b)" style="fill: none; stroke-dasharray: 2.96,1.28; stroke-dashoffset: 0; stroke: #cccccc; stroke-width: 0.8"/>
     </g>
     <g id="text_2">
      <!-- Mar 2021 -->
      <g style="fill: #262626" transform="translate(82.013915 326.650364) rotate(-45) scale(0.09 -0.09)">
       <defs>
        <path id="DejaVuSans-30" d="M 628 4666 
L 1569 4666 
L 2759 1491 
L 3956 4666 
L 4897 4666 
L 4897 0 
L 4281 0 
L 4281 4097 
L 3078 897 
L 2444 897 
L 1241 4097 
L 1241 0 
L 628 0 
L 628 4666 
z
" transform="scale(0.015625)"/>
        <path id="DejaVuSans-44" d="M 2194 1759 
Q 1497 1759 1228 1600 
Q 959 1441 959 1056 
Q 959 750 1161 570 
Q 1363 391 1709 391 
Q 2188 391 2477 730 
Q 2766 1069 2766 1631 
L 2766 1759 
L 2194 1759 
z
M 3341 1997 
L 3341 0 
L 2766 0 
L 2766 531 
Q 2569 213 2275 61 
Q 1981 -91 1556 -91 
Q 1019 -91 701 211 
Q 384 513 384 1019 
Q 384 1609 779 1909 
Q 1175 2209 1959 2209 
L 2766 2209 
L 2766 2266 
Q 2766 2663 2505 2880 
Q 2244 3097 1772 3097 
Q 1472 3097 1187 3025 
Q 903 2953 641 2809 
L 641 3341 
Q 956 3463 1253 3523 
Q 1550 3584 1831 3584 
Q 2591 3584 2966 3190 
Q 3341 2797 3341 1997 
z
" transform="scale(0.015625)"/>
        <path id="DejaVuSans-55" d="M 2631 2963 
Q 2534 3019 2420 3045 
Q 2306 3072 2169 3072 
Q 1681 3072 1420 2755 
Q 1159 2438 1159 1844 
L 1159 0 
L 581 0 
L 581 3500 
L 1159 3500 
L 1159 2956 
Q 1341 3275 1631 3429 
Q 1922 3584 2338 3584 
Q 2397 3584 2469 3576 
Q 2541 3569 2628 3553 
L 2631 2963 
z
" transform="scale(0.015625)"/>
        <path id="DejaVuSans-14" d="M 794 531 
L 1825 531 
L 1825 4091 
L 703 3866 
L 703 4441 
L 1819 4666 
L 2450 4666 
L 2450 531 
L 3481 531 
L 3481 0 
L 794 0 
L 794 531 
z
" transform="scale(0.015625)"/>
       </defs>
       <use xlink:href="#DejaVuSans-30"/>
       <use xlink:href="#DejaVuSans-44" transform="translate(86.28125 0)"/>
       <use xlink:href="#DejaVuSans-55" transform="translate(147.5625 0)"/>
       <use xlink:href="#DejaVuSans-3" transform="translate(188.671875 0)"/>
       <use xlink:href="#DejaVuSans-15" transform="translate(220.453125 0)"/>
       <use xlink:href="#DejaVuSans-13" transform="translate(284.078125 0)"/>
       <use xlink:href="#DejaVuSans-15" transform="translate(347.703125 0)"/>
       <use xlink:href="#DejaVuSans-14" transform="translate(411.328125 0)"/>
      </g>
     </g>
    </g>
    <g id="xtick_3">
     <g id="line2d_3">
      <path d="M 141.302392 283.289414 
L 141.302392 23.837812 
" clip-path="url(#pb8ef8f3f3b)" style="fill: none; stroke-dasharray: 2.96,1.28; stroke-dashoffset: 0; stroke: #cccccc; stroke-width: 0.8"/>
     </g>
     <g id="text_3">
      <!-- Jun 2021 -->
      <g style="fill: #262626" transform="translate(111.611034 324.587049) rotate(-45) scale(0.09 -0.09)">
       <defs>
        <path id="DejaVuSans-2d" d="M 628 4666 
L 1259 4666 
L 1259 325 
Q 1259 -519 939 -900 
Q 619 -1281 -91 -1281 
L -331 -1281 
L -331 -750 
L -134 -750 
Q 284 -750 456 -515 
Q 628 -281 628 325 
L 628 4666 
z
" transform="scale(0.015625)"/>
        <path id="DejaVuSans-58" d="M 544 1381 
L 544 3500 
L 1119 3500 
L 1119 1403 
Q 1119 906 1312 657 
Q 1506 409 1894 409 
Q 2359 409 2629 706 
Q 2900 1003 2900 1516 
L 2900 3500 
L 3475 3500 
L 3475 0 
L 2900 0 
L 2900 538 
Q 2691 219 2414 64 
Q 2138 -91 1772 -91 
Q 1169 -91 856 284 
Q 544 659 544 1381 
z
M 1991 3584 
L 1991 3584 
z
" transform="scale(0.015625)"/>
        <path id="DejaVuSans-51" d="M 3513 2113 
L 3513 0 
L 2938 0 
L 2938 2094 
Q 2938 2591 2744 2837 
Q 2550 3084 2163 3084 
Q 1697 3084 1428 2787 
Q 1159 2491 1159 1978 
L 1159 0 
L 581 0 
L 581 3500 
L 1159 3500 
L 1159 2956 
Q 1366 3272 1645 3428 
Q 1925 3584 2291 3584 
Q 2894 3584 3203 3211 
Q 3513 2838 3513 2113 
z
" transform="scale(0.015625)"/>
       </defs>
       <use xlink:href="#DejaVuSans-2d"/>
       <use xlink:href="#DejaVuSans-58" transform="translate(29.5 0)"/>
       <use xlink:href="#DejaVuSans-51" transform="translate(92.875 0)"/>
       <use xlink:href="#DejaVuSans-3" transform="translate(156.25 0)"/>
       <use xlink:href="#DejaVuSans-15" transform="translate(188.03125 0)"/>
       <use xlink:href="#DejaVuSans-13" transform="translate(251.65625 0)"/>
       <use xlink:href="#DejaVuSans-15" transform="translate(315.28125 0)"/>
       <use xlink:href="#DejaVuSans-14" transform="translate(378.90625 0)"/>
      </g>
     </g>
    </g>
    <g id="xtick_4">
     <g id="line2d_4">
      <path d="M 168.836195 283.289414 
L 168.836195 23.837812 
" clip-path="url(#pb8ef8f3f3b)" style="fill: none; stroke-dasharray: 2.96,1.28; stroke-dashoffset: 0; stroke: #cccccc; stroke-width: 0.8"/>
     </g>
     <g id="text_4">
      <!-- Sep 2021 -->
      <g style="fill: #262626" transform="translate(137.09246 326.639426) rotate(-45) scale(0.09 -0.09)">
       <defs>
        <path id="DejaVuSans-36" d="M 3425 4513 
L 3425 3897 
Q 3066 4069 2747 4153 
Q 2428 4238 2131 4238 
Q 1616 4238 1336 4038 
Q 1056 3838 1056 3469 
Q 1056 3159 1242 3001 
Q 1428 2844 1947 2747 
L 2328 2669 
Q 3034 2534 3370 2195 
Q 3706 1856 3706 1288 
Q 3706 609 3251 259 
Q 2797 -91 1919 -91 
Q 1588 -91 1214 -16 
Q 841 59 441 206 
L 441 856 
Q 825 641 1194 531 
Q 1563 422 1919 422 
Q 2459 422 2753 634 
Q 3047 847 3047 1241 
Q 3047 1584 2836 1778 
Q 2625 1972 2144 2069 
L 1759 2144 
Q 1053 2284 737 2584 
Q 422 2884 422 3419 
Q 422 4038 858 4394 
Q 1294 4750 2059 4750 
Q 2388 4750 2728 4690 
Q 3069 4631 3425 4513 
z
" transform="scale(0.015625)"/>
        <path id="DejaVuSans-53" d="M 1159 525 
L 1159 -1331 
L 581 -1331 
L 581 3500 
L 1159 3500 
L 1159 2969 
Q 1341 3281 1617 3432 
Q 1894 3584 2278 3584 
Q 2916 3584 3314 3078 
Q 3713 2572 3713 1747 
Q 3713 922 3314 415 
Q 2916 -91 2278 -91 
Q 1894 -91 1617 61 
Q 1341 213 1159 525 
z
M 3116 1747 
Q 3116 2381 2855 2742 
Q 2594 3103 2138 3103 
Q 1681 3103 1420 2742 
Q 1159 2381 1159 1747 
Q 1159 1113 1420 752 
Q 1681 391 2138 391 
Q 2594 391 2855 752 
Q 3116 1113 3116 1747 
z
" transform="scale(0.015625)"/>
       </defs>
       <use xlink:href="#DejaVuSans-36"/>
       <use xlink:href="#DejaVuSans-48" transform="translate(63.484375 0)"/>
       <use xlink:href="#DejaVuSans-53" transform="translate(125.015625 0)"/>
       <use xlink:href="#DejaVuSans-3" transform="translate(188.5 0)"/>
       <use xlink:href="#DejaVuSans-15" transform="translate(220.28125 0)"/>
       <use xlink:href="#DejaVuSans-13" transform="translate(283.90625 0)"/>
       <use xlink:href="#DejaVuSans-15" transform="translate(347.53125 0)"/>
       <use xlink:href="#DejaVuSans-14" transform="translate(411.15625 0)"/>
      </g>
     </g>
    </g>
    <g id="xtick_5">
     <g id="line2d_5">
      <path d="M 196.070718 283.289414 
L 196.070718 23.837812 
" clip-path="url(#pb8ef8f3f3b)" style="fill: none; stroke-dasharray: 2.96,1.28; stroke-dashoffset: 0; stroke: #cccccc; stroke-width: 0.8"/>
     </g>
     <g id="text_5">
      <!-- Dec 2021 -->
      <g style="fill: #262626" transform="translate(164.00779 326.958618) rotate(-45) scale(0.09 -0.09)">
       <use xlink:href="#DejaVuSans-27"/>
       <use xlink:href="#DejaVuSans-48" transform="translate(77 0)"/>
       <use xlink:href="#DejaVuSans-46" transform="translate(138.53125 0)"/>
       <use xlink:href="#DejaVuSans-3" transform="translate(193.515625 0)"/>
       <use xlink:href="#DejaVuSans-15" transform="translate(225.296875 0)"/>
       <use xlink:href="#DejaVuSans-13" transform="translate(288.921875 0)"/>
       <use xlink:href="#DejaVuSans-15" transform="translate(352.546875 0)"/>
       <use xlink:href="#DejaVuSans-14" transform="translate(416.171875 0)"/>
      </g>
     </g>
    </g>
    <g id="xtick_6">
     <g id="line2d_6">
      <path d="M 223.005961 283.289414 
L 223.005961 23.837812 
" clip-path="url(#pb8ef8f3f3b)" style="fill: none; stroke-dasharray: 2.96,1.28; stroke-dashoffset: 0; stroke: #cccccc; stroke-width: 0.8"/>
     </g>
     <g id="text_6">
      <!-- Mar 2022 -->
      <g style="fill: #262626" transform="translate(191.251287 326.650364) rotate(-45) scale(0.09 -0.09)">
       <use xlink:href="#DejaVuSans-30"/>
       <use xlink:href="#DejaVuSans-44" transform="translate(86.28125 0)"/>
       <use xlink:href="#DejaVuSans-55" transform="translate(147.5625 0)"/>
       <use xlink:href="#DejaVuSans-3" transform="translate(188.671875 0)"/>
       <use xlink:href="#DejaVuSans-15" transform="translate(220.453125 0)"/>
       <use xlink:href="#DejaVuSans-13" transform="translate(284.078125 0)"/>
       <use xlink:href="#DejaVuSans-15" transform="translate(347.703125 0)"/>
       <use xlink:href="#DejaVuSans-15" transform="translate(411.328125 0)"/>
      </g>
     </g>
    </g>
    <g id="xtick_7">
     <g id="line2d_7">
      <path d="M 250.539764 283.289414 
L 250.539764 23.837812 
" clip-path="url(#pb8ef8f3f3b)" style="fill: none; stroke-dasharray: 2.96,1.28; stroke-dashoffset: 0; stroke: #cccccc; stroke-width: 0.8"/>
     </g>
     <g id="text_7">
      <!-- Jun 2022 -->
      <g style="fill: #262626" transform="translate(220.848406 324.587049) rotate(-45) scale(0.09 -0.09)">
       <use xlink:href="#DejaVuSans-2d"/>
       <use xlink:href="#DejaVuSans-58" transform="translate(29.5 0)"/>
       <use xlink:href="#DejaVuSans-51" transform="translate(92.875 0)"/>
       <use xlink:href="#DejaVuSans-3" transform="translate(156.25 0)"/>
       <use xlink:href="#DejaVuSans-15" transform="translate(188.03125 0)"/>
       <use xlink:href="#DejaVuSans-13" transform="translate(251.65625 0)"/>
       <use xlink:href="#DejaVuSans-15" transform="translate(315.28125 0)"/>
       <use xlink:href="#DejaVuSans-15" transform="translate(378.90625 0)"/>
      </g>
     </g>
    </g>
    <g id="xtick_8">
     <g id="line2d_8">
      <path d="M 278.073568 283.289414 
L 278.073568 23.837812 
" clip-path="url(#pb8ef8f3f3b)" style="fill: none; stroke-dasharray: 2.96,1.28; stroke-dashoffset: 0; stroke: #cccccc; stroke-width: 0.8"/>
     </g>
     <g id="text_8">
      <!-- Sep 2022 -->
      <g style="fill: #262626" transform="translate(246.329832 326.639426) rotate(-45) scale(0.09 -0.09)">
       <use xlink:href="#DejaVuSans-36"/>
       <use xlink:href="#DejaVuSans-48" transform="translate(63.484375 0)"/>
       <use xlink:href="#DejaVuSans-53" transform="translate(125.015625 0)"/>
       <use xlink:href="#DejaVuSans-3" transform="translate(188.5 0)"/>
       <use xlink:href="#DejaVuSans-15" transform="translate(220.28125 0)"/>
       <use xlink:href="#DejaVuSans-13" transform="translate(283.90625 0)"/>
       <use xlink:href="#DejaVuSans-15" transform="translate(347.53125 0)"/>
       <use xlink:href="#DejaVuSans-15" transform="translate(411.15625 0)"/>
      </g>
     </g>
    </g>
    <g id="xtick_9">
     <g id="line2d_9">
      <path d="M 305.30809 283.289414 
L 305.30809 23.837812 
" clip-path="url(#pb8ef8f3f3b)" style="fill: none; stroke-dasharray: 2.96,1.28; stroke-dashoffset: 0; stroke: #cccccc; stroke-width: 0.8"/>
     </g>
     <g id="text_9">
      <!-- Dec 2022 -->
      <g style="fill: #262626" transform="translate(273.245162 326.958618) rotate(-45) scale(0.09 -0.09)">
       <use xlink:href="#DejaVuSans-27"/>
       <use xlink:href="#DejaVuSans-48" transform="translate(77 0)"/>
       <use xlink:href="#DejaVuSans-46" transform="translate(138.53125 0)"/>
       <use xlink:href="#DejaVuSans-3" transform="translate(193.515625 0)"/>
       <use xlink:href="#DejaVuSans-15" transform="translate(225.296875 0)"/>
       <use xlink:href="#DejaVuSans-13" transform="translate(288.921875 0)"/>
       <use xlink:href="#DejaVuSans-15" transform="translate(352.546875 0)"/>
       <use xlink:href="#DejaVuSans-15" transform="translate(416.171875 0)"/>
      </g>
     </g>
    </g>
    <g id="xtick_10">
     <g id="line2d_10">
      <path d="M 332.243333 283.289414 
L 332.243333 23.837812 
" clip-path="url(#pb8ef8f3f3b)" style="fill: none; stroke-dasharray: 2.96,1.28; stroke-dashoffset: 0; stroke: #cccccc; stroke-width: 0.8"/>
     </g>
     <g id="text_10">
      <!-- Mar 2023 -->
      <g style="fill: #262626" transform="translate(300.488659 326.650364) rotate(-45) scale(0.09 -0.09)">
       <defs>
        <path id="DejaVuSans-16" d="M 2597 2516 
Q 3050 2419 3304 2112 
Q 3559 1806 3559 1356 
Q 3559 666 3084 287 
Q 2609 -91 1734 -91 
Q 1441 -91 1130 -33 
Q 819 25 488 141 
L 488 750 
Q 750 597 1062 519 
Q 1375 441 1716 441 
Q 2309 441 2620 675 
Q 2931 909 2931 1356 
Q 2931 1769 2642 2001 
Q 2353 2234 1838 2234 
L 1294 2234 
L 1294 2753 
L 1863 2753 
Q 2328 2753 2575 2939 
Q 2822 3125 2822 3475 
Q 2822 3834 2567 4026 
Q 2313 4219 1838 4219 
Q 1578 4219 1281 4162 
Q 984 4106 628 3988 
L 628 4550 
Q 988 4650 1302 4700 
Q 1616 4750 1894 4750 
Q 2613 4750 3031 4423 
Q 3450 4097 3450 3541 
Q 3450 3153 3228 2886 
Q 3006 2619 2597 2516 
z
" transform="scale(0.015625)"/>
       </defs>
       <use xlink:href="#DejaVuSans-30"/>
       <use xlink:href="#DejaVuSans-44" transform="translate(86.28125 0)"/>
       <use xlink:href="#DejaVuSans-55" transform="translate(147.5625 0)"/>
       <use xlink:href="#DejaVuSans-3" transform="translate(188.671875 0)"/>
       <use xlink:href="#DejaVuSans-15" transform="translate(220.453125 0)"/>
       <use xlink:href="#DejaVuSans-13" transform="translate(284.078125 0)"/>
       <use xlink:href="#DejaVuSans-15" transform="translate(347.703125 0)"/>
       <use xlink:href="#DejaVuSans-16" transform="translate(411.328125 0)"/>
      </g>
     </g>
    </g>
    <g id="xtick_11">
     <g id="line2d_11">
      <path d="M 359.777136 283.289414 
L 359.777136 23.837812 
" clip-path="url(#pb8ef8f3f3b)" style="fill: none; stroke-dasharray: 2.96,1.28; stroke-dashoffset: 0; stroke: #cccccc; stroke-width: 0.8"/>
     </g>
     <g id="text_11">
      <!-- Jun 2023 -->
      <g style="fill: #262626" transform="translate(330.085778 324.587049) rotate(-45) scale(0.09 -0.09)">
       <use xlink:href="#DejaVuSans-2d"/>
       <use xlink:href="#DejaVuSans-58" transform="translate(29.5 0)"/>
       <use xlink:href="#DejaVuSans-51" transform="translate(92.875 0)"/>
       <use xlink:href="#DejaVuSans-3" transform="translate(156.25 0)"/>
       <use xlink:href="#DejaVuSans-15" transform="translate(188.03125 0)"/>
       <use xlink:href="#DejaVuSans-13" transform="translate(251.65625 0)"/>
       <use xlink:href="#DejaVuSans-15" transform="translate(315.28125 0)"/>
       <use xlink:href="#DejaVuSans-16" transform="translate(378.90625 0)"/>
      </g>
     </g>
    </g>
    <g id="xtick_12">
     <g id="line2d_12">
      <path d="M 387.31094 283.289414 
L 387.31094 23.837812 
" clip-path="url(#pb8ef8f3f3b)" style="fill: none; stroke-dasharray: 2.96,1.28; stroke-dashoffset: 0; stroke: #cccccc; stroke-width: 0.8"/>
     </g>
     <g id="text_12">
      <!-- Sep 2023 -->
      <g style="fill: #262626" transform="translate(355.567204 326.639426) rotate(-45) scale(0.09 -0.09)">
       <use xlink:href="#DejaVuSans-36"/>
       <use xlink:href="#DejaVuSans-48" transform="translate(63.484375 0)"/>
       <use xlink:href="#DejaVuSans-53" transform="translate(125.015625 0)"/>
       <use xlink:href="#DejaVuSans-3" transform="translate(188.5 0)"/>
       <use xlink:href="#DejaVuSans-15" transform="translate(220.28125 0)"/>
       <use xlink:href="#DejaVuSans-13" transform="translate(283.90625 0)"/>
       <use xlink:href="#DejaVuSans-15" transform="translate(347.53125 0)"/>
       <use xlink:href="#DejaVuSans-16" transform="translate(411.15625 0)"/>
      </g>
     </g>
    </g>
    <g id="xtick_13">
     <g id="line2d_13">
      <path d="M 414.545462 283.289414 
L 414.545462 23.837812 
" clip-path="url(#pb8ef8f3f3b)" style="fill: none; stroke-dasharray: 2.96,1.28; stroke-dashoffset: 0; stroke: #cccccc; stroke-width: 0.8"/>
     </g>
     <g id="text_13">
      <!-- Dec 2023 -->
      <g style="fill: #262626" transform="translate(382.482534 326.958618) rotate(-45) scale(0.09 -0.09)">
       <use xlink:href="#DejaVuSans-27"/>
       <use xlink:href="#DejaVuSans-48" transform="translate(77 0)"/>
       <use xlink:href="#DejaVuSans-46" transform="translate(138.53125 0)"/>
       <use xlink:href="#DejaVuSans-3" transform="translate(193.515625 0)"/>
       <use xlink:href="#DejaVuSans-15" transform="translate(225.296875 0)"/>
       <use xlink:href="#DejaVuSans-13" transform="translate(288.921875 0)"/>
       <use xlink:href="#DejaVuSans-15" transform="translate(352.546875 0)"/>
       <use xlink:href="#DejaVuSans-16" transform="translate(416.171875 0)"/>
      </g>
     </g>
    </g>
    <g id="xtick_14">
     <g id="line2d_14">
      <path d="M 441.779985 283.289414 
L 441.779985 23.837812 
" clip-path="url(#pb8ef8f3f3b)" style="fill: none; stroke-dasharray: 2.96,1.28; stroke-dashoffset: 0; stroke: #cccccc; stroke-width: 0.8"/>
     </g>
     <g id="text_14">
      <!-- Mar 2024 -->
      <g style="fill: #262626" transform="translate(410.025311 326.650364) rotate(-45) scale(0.09 -0.09)">
       <defs>
        <path id="DejaVuSans-17" d="M 2419 4116 
L 825 1625 
L 2419 1625 
L 2419 4116 
z
M 2253 4666 
L 3047 4666 
L 3047 1625 
L 3713 1625 
L 3713 1100 
L 3047 1100 
L 3047 0 
L 2419 0 
L 2419 1100 
L 313 1100 
L 313 1709 
L 2253 4666 
z
" transform="scale(0.015625)"/>
       </defs>
       <use xlink:href="#DejaVuSans-30"/>
       <use xlink:href="#DejaVuSans-44" transform="translate(86.28125 0)"/>
       <use xlink:href="#DejaVuSans-55" transform="translate(147.5625 0)"/>
       <use xlink:href="#DejaVuSans-3" transform="translate(188.671875 0)"/>
       <use xlink:href="#DejaVuSans-15" transform="translate(220.453125 0)"/>
       <use xlink:href="#DejaVuSans-13" transform="translate(284.078125 0)"/>
       <use xlink:href="#DejaVuSans-15" transform="translate(347.703125 0)"/>
       <use xlink:href="#DejaVuSans-17" transform="translate(411.328125 0)"/>
      </g>
     </g>
    </g>
    <g id="xtick_15">
     <g id="line2d_15">
      <path d="M 469.313789 283.289414 
L 469.313789 23.837812 
" clip-path="url(#pb8ef8f3f3b)" style="fill: none; stroke-dasharray: 2.96,1.28; stroke-dashoffset: 0; stroke: #cccccc; stroke-width: 0.8"/>
     </g>
     <g id="text_15">
      <!-- Jun 2024 -->
      <g style="fill: #262626" transform="translate(439.62243 324.587049) rotate(-45) scale(0.09 -0.09)">
       <use xlink:href="#DejaVuSans-2d"/>
       <use xlink:href="#DejaVuSans-58" transform="translate(29.5 0)"/>
       <use xlink:href="#DejaVuSans-51" transform="translate(92.875 0)"/>
       <use xlink:href="#DejaVuSans-3" transform="translate(156.25 0)"/>
       <use xlink:href="#DejaVuSans-15" transform="translate(188.03125 0)"/>
       <use xlink:href="#DejaVuSans-13" transform="translate(251.65625 0)"/>
       <use xlink:href="#DejaVuSans-15" transform="translate(315.28125 0)"/>
       <use xlink:href="#DejaVuSans-17" transform="translate(378.90625 0)"/>
      </g>
     </g>
    </g>
    <g id="xtick_16">
     <g id="line2d_16">
      <path d="M 496.847592 283.289414 
L 496.847592 23.837812 
" clip-path="url(#pb8ef8f3f3b)" style="fill: none; stroke-dasharray: 2.96,1.28; stroke-dashoffset: 0; stroke: #cccccc; stroke-width: 0.8"/>
     </g>
     <g id="text_16">
      <!-- Sep 2024 -->
      <g style="fill: #262626" transform="translate(465.103856 326.639426) rotate(-45) scale(0.09 -0.09)">
       <use xlink:href="#DejaVuSans-36"/>
       <use xlink:href="#DejaVuSans-48" transform="translate(63.484375 0)"/>
       <use xlink:href="#DejaVuSans-53" transform="translate(125.015625 0)"/>
       <use xlink:href="#DejaVuSans-3" transform="translate(188.5 0)"/>
       <use xlink:href="#DejaVuSans-15" transform="translate(220.28125 0)"/>
       <use xlink:href="#DejaVuSans-13" transform="translate(283.90625 0)"/>
       <use xlink:href="#DejaVuSans-15" transform="translate(347.53125 0)"/>
       <use xlink:href="#DejaVuSans-17" transform="translate(411.15625 0)"/>
      </g>
     </g>
    </g>
    <g id="xtick_17">
     <g id="line2d_17">
      <path d="M 524.082115 283.289414 
L 524.082115 23.837812 
" clip-path="url(#pb8ef8f3f3b)" style="fill: none; stroke-dasharray: 2.96,1.28; stroke-dashoffset: 0; stroke: #cccccc; stroke-width: 0.8"/>
     </g>
     <g id="text_17">
      <!-- Dec 2024 -->
      <g style="fill: #262626" transform="translate(492.019187 326.958618) rotate(-45) scale(0.09 -0.09)">
       <use xlink:href="#DejaVuSans-27"/>
       <use xlink:href="#DejaVuSans-48" transform="translate(77 0)"/>
       <use xlink:href="#DejaVuSans-46" transform="translate(138.53125 0)"/>
       <use xlink:href="#DejaVuSans-3" transform="translate(193.515625 0)"/>
       <use xlink:href="#DejaVuSans-15" transform="translate(225.296875 0)"/>
       <use xlink:href="#DejaVuSans-13" transform="translate(288.921875 0)"/>
       <use xlink:href="#DejaVuSans-15" transform="translate(352.546875 0)"/>
       <use xlink:href="#DejaVuSans-17" transform="translate(416.171875 0)"/>
      </g>
     </g>
    </g>
    <g id="xtick_18">
     <g id="line2d_18">
      <path d="M 551.017357 283.289414 
L 551.017357 23.837812 
" clip-path="url(#pb8ef8f3f3b)" style="fill: none; stroke-dasharray: 2.96,1.28; stroke-dashoffset: 0; stroke: #cccccc; stroke-width: 0.8"/>
     </g>
     <g id="text_18">
      <!-- Mar 2025 -->
      <g style="fill: #262626" transform="translate(519.262683 326.650364) rotate(-45) scale(0.09 -0.09)">
       <defs>
        <path id="DejaVuSans-18" d="M 691 4666 
L 3169 4666 
L 3169 4134 
L 1269 4134 
L 1269 2991 
Q 1406 3038 1543 3061 
Q 1681 3084 1819 3084 
Q 2600 3084 3056 2656 
Q 3513 2228 3513 1497 
Q 3513 744 3044 326 
Q 2575 -91 1722 -91 
Q 1428 -91 1123 -41 
Q 819 9 494 109 
L 494 744 
Q 775 591 1075 516 
Q 1375 441 1709 441 
Q 2250 441 2565 725 
Q 2881 1009 2881 1497 
Q 2881 1984 2565 2268 
Q 2250 2553 1709 2553 
Q 1456 2553 1204 2497 
Q 953 2441 691 2322 
L 691 4666 
z
" transform="scale(0.015625)"/>
       </defs>
       <use xlink:href="#DejaVuSans-30"/>
       <use xlink:href="#DejaVuSans-44" transform="translate(86.28125 0)"/>
       <use xlink:href="#DejaVuSans-55" transform="translate(147.5625 0)"/>
       <use xlink:href="#DejaVuSans-3" transform="translate(188.671875 0)"/>
       <use xlink:href="#DejaVuSans-15" transform="translate(220.453125 0)"/>
       <use xlink:href="#DejaVuSans-13" transform="translate(284.078125 0)"/>
       <use xlink:href="#DejaVuSans-15" transform="translate(347.703125 0)"/>
       <use xlink:href="#DejaVuSans-18" transform="translate(411.328125 0)"/>
      </g>
     </g>
    </g>
    <g id="xtick_19">
     <g id="line2d_19">
      <path d="M 578.551161 283.289414 
L 578.551161 23.837812 
" clip-path="url(#pb8ef8f3f3b)" style="fill: none; stroke-dasharray: 2.96,1.28; stroke-dashoffset: 0; stroke: #cccccc; stroke-width: 0.8"/>
     </g>
     <g id="text_19">
      <!-- Jun 2025 -->
      <g style="fill: #262626" transform="translate(548.859802 324.587049) rotate(-45) scale(0.09 -0.09)">
       <use xlink:href="#DejaVuSans-2d"/>
       <use xlink:href="#DejaVuSans-58" transform="translate(29.5 0)"/>
       <use xlink:href="#DejaVuSans-51" transform="translate(92.875 0)"/>
       <use xlink:href="#DejaVuSans-3" transform="translate(156.25 0)"/>
       <use xlink:href="#DejaVuSans-15" transform="translate(188.03125 0)"/>
       <use xlink:href="#DejaVuSans-13" transform="translate(251.65625 0)"/>
       <use xlink:href="#DejaVuSans-15" transform="translate(315.28125 0)"/>
       <use xlink:href="#DejaVuSans-18" transform="translate(378.90625 0)"/>
      </g>
     </g>
    </g>
    <g id="xtick_20">
     <g id="line2d_20">
      <path d="M 606.084964 283.289414 
L 606.084964 23.837812 
" clip-path="url(#pb8ef8f3f3b)" style="fill: none; stroke-dasharray: 2.96,1.28; stroke-dashoffset: 0; stroke: #cccccc; stroke-width: 0.8"/>
     </g>
     <g id="text_20">
      <!-- Sep 2025 -->
      <g style="fill: #262626" transform="translate(574.341228 326.639426) rotate(-45) scale(0.09 -0.09)">
       <use xlink:href="#DejaVuSans-36"/>
       <use xlink:href="#DejaVuSans-48" transform="translate(63.484375 0)"/>
       <use xlink:href="#DejaVuSans-53" transform="translate(125.015625 0)"/>
       <use xlink:href="#DejaVuSans-3" transform="translate(188.5 0)"/>
       <use xlink:href="#DejaVuSans-15" transform="translate(220.28125 0)"/>
       <use xlink:href="#DejaVuSans-13" transform="translate(283.90625 0)"/>
       <use xlink:href="#DejaVuSans-15" transform="translate(347.53125 0)"/>
       <use xlink:href="#DejaVuSans-18" transform="translate(411.15625 0)"/>
      </g>
     </g>
    </g>
    <g id="xtick_21">
     <g id="line2d_21">
      <path d="M 633.319487 283.289414 
L 633.319487 23.837812 
" clip-path="url(#pb8ef8f3f3b)" style="fill: none; stroke-dasharray: 2.96,1.28; stroke-dashoffset: 0; stroke: #cccccc; stroke-width: 0.8"/>
     </g>
     <g id="text_21">
      <!-- Dec 2025 -->
      <g style="fill: #262626" transform="translate(601.256559 326.958618) rotate(-45) scale(0.09 -0.09)">
       <use xlink:href="#DejaVuSans-27"/>
       <use xlink:href="#DejaVuSans-48" transform="translate(77 0)"/>
       <use xlink:href="#DejaVuSans-46" transform="translate(138.53125 0)"/>
       <use xlink:href="#DejaVuSans-3" transform="translate(193.515625 0)"/>
       <use xlink:href="#DejaVuSans-15" transform="translate(225.296875 0)"/>
       <use xlink:href="#DejaVuSans-13" transform="translate(288.921875 0)"/>
       <use xlink:href="#DejaVuSans-15" transform="translate(352.546875 0)"/>
       <use xlink:href="#DejaVuSans-18" transform="translate(416.171875 0)"/>
      </g>
     </g>
    </g>
    <g id="xtick_22">
     <g id="line2d_22">
      <path d="M 660.254729 283.289414 
L 660.254729 23.837812 
" clip-path="url(#pb8ef8f3f3b)" style="fill: none; stroke-dasharray: 2.96,1.28; stroke-dashoffset: 0; stroke: #cccccc; stroke-width: 0.8"/>
     </g>
     <g id="text_22">
      <!-- Mar 2026 -->
      <g style="fill: #262626" transform="translate(628.500055 326.650364) rotate(-45) scale(0.09 -0.09)">
       <defs>
        <path id="DejaVuSans-19" d="M 2113 2584 
Q 1688 2584 1439 2293 
Q 1191 2003 1191 1497 
Q 1191 994 1439 701 
Q 1688 409 2113 409 
Q 2538 409 2786 701 
Q 3034 994 3034 1497 
Q 3034 2003 2786 2293 
Q 2538 2584 2113 2584 
z
M 3366 4563 
L 3366 3988 
Q 3128 4100 2886 4159 
Q 2644 4219 2406 4219 
Q 1781 4219 1451 3797 
Q 1122 3375 1075 2522 
Q 1259 2794 1537 2939 
Q 1816 3084 2150 3084 
Q 2853 3084 3261 2657 
Q 3669 2231 3669 1497 
Q 3669 778 3244 343 
Q 2819 -91 2113 -91 
Q 1303 -91 875 529 
Q 447 1150 447 2328 
Q 447 3434 972 4092 
Q 1497 4750 2381 4750 
Q 2619 4750 2861 4703 
Q 3103 4656 3366 4563 
z
" transform="scale(0.015625)"/>
       </defs>
       <use xlink:href="#DejaVuSans-30"/>
       <use xlink:href="#DejaVuSans-44" transform="translate(86.28125 0)"/>
       <use xlink:href="#DejaVuSans-55" transform="translate(147.5625 0)"/>
       <use xlink:href="#DejaVuSans-3" transform="translate(188.671875 0)"/>
       <use xlink:href="#DejaVuSans-15" transform="translate(220.453125 0)"/>
       <use xlink:href="#DejaVuSans-13" transform="translate(284.078125 0)"/>
       <use xlink:href="#DejaVuSans-15" transform="translate(347.703125 0)"/>
       <use xlink:href="#DejaVuSans-19" transform="translate(411.328125 0)"/>
      </g>
     </g>
    </g>
    <g id="xtick_23">
     <g id="line2d_23">
      <path d="M 687.788533 283.289414 
L 687.788533 23.837812 
" clip-path="url(#pb8ef8f3f3b)" style="fill: none; stroke-dasharray: 2.96,1.28; stroke-dashoffset: 0; stroke: #cccccc; stroke-width: 0.8"/>
     </g>
     <g id="text_23">
      <!-- Jun 2026 -->
      <g style="fill: #262626" transform="translate(658.097174 324.587049) rotate(-45) scale(0.09 -0.09)">
       <use xlink:href="#DejaVuSans-2d"/>
       <use xlink:href="#DejaVuSans-58" transform="translate(29.5 0)"/>
       <use xlink:href="#DejaVuSans-51" transform="translate(92.875 0)"/>
       <use xlink:href="#DejaVuSans-3" transform="translate(156.25 0)"/>
       <use xlink:href="#DejaVuSans-15" transform="translate(188.03125 0)"/>
       <use xlink:href="#DejaVuSans-13" transform="translate(251.65625 0)"/>
       <use xlink:href="#DejaVuSans-15" transform="translate(315.28125 0)"/>
       <use xlink:href="#DejaVuSans-19" transform="translate(378.90625 0)"/>
      </g>
     </g>
    </g>
    <g id="xtick_24">
     <g id="line2d_24">
      <path d="M 715.322336 283.289414 
L 715.322336 23.837812 
" clip-path="url(#pb8ef8f3f3b)" style="fill: none; stroke-dasharray: 2.96,1.28; stroke-dashoffset: 0; stroke: #cccccc; stroke-width: 0.8"/>
     </g>
     <g id="text_24">
      <!-- Sep 2026 -->
      <g style="fill: #262626" transform="translate(683.5786 326.639426) rotate(-45) scale(0.09 -0.09)">
       <use xlink:href="#DejaVuSans-36"/>
       <use xlink:href="#DejaVuSans-48" transform="translate(63.484375 0)"/>
       <use xlink:href="#DejaVuSans-53" transform="translate(125.015625 0)"/>
       <use xlink:href="#DejaVuSans-3" transform="translate(188.5 0)"/>
       <use xlink:href="#DejaVuSans-15" transform="translate(220.28125 0)"/>
       <use xlink:href="#DejaVuSans-13" transform="translate(283.90625 0)"/>
       <use xlink:href="#DejaVuSans-15" transform="translate(347.53125 0)"/>
       <use xlink:href="#DejaVuSans-19" transform="translate(411.15625 0)"/>
      </g>
     </g>
    </g>
    <g id="xtick_25">
     <g id="line2d_25">
      <path d="M 742.556859 283.289414 
L 742.556859 23.837812 
" clip-path="url(#pb8ef8f3f3b)" style="fill: none; stroke-dasharray: 2.96,1.28; stroke-dashoffset: 0; stroke: #cccccc; stroke-width: 0.8"/>
     </g>
     <g id="text_25">
      <!-- Dec 2026 -->
      <g style="fill: #262626" transform="translate(710.493931 326.958618) rotate(-45) scale(0.09 -0.09)">
       <use xlink:href="#DejaVuSans-27"/>
       <use xlink:href="#DejaVuSans-48" transform="translate(77 0)"/>
       <use xlink:href="#DejaVuSans-46" transform="translate(138.53125 0)"/>
       <use xlink:href="#DejaVuSans-3" transform="translate(193.515625 0)"/>
       <use xlink:href="#DejaVuSans-15" transform="translate(225.296875 0)"/>
       <use xlink:href="#DejaVuSans-13" transform="translate(288.921875 0)"/>
       <use xlink:href="#DejaVuSans-15" transform="translate(352.546875 0)"/>
       <use xlink:href="#DejaVuSans-19" transform="translate(416.171875 0)"/>
      </g>
     </g>
    </g>
    <g id="xtick_26">
     <g id="line2d_26">
      <path d="M 769.492102 283.289414 
L 769.492102 23.837812 
" clip-path="url(#pb8ef8f3f3b)" style="fill: none; stroke-dasharray: 2.96,1.28; stroke-dashoffset: 0; stroke: #cccccc; stroke-width: 0.8"/>
     </g>
     <g id="text_26">
      <!-- Mar 2027 -->
      <g style="fill: #262626" transform="translate(737.737428 326.650364) rotate(-45) scale(0.09 -0.09)">
       <defs>
        <path id="DejaVuSans-1a" d="M 525 4666 
L 3525 4666 
L 3525 4397 
L 1831 0 
L 1172 0 
L 2766 4134 
L 525 4134 
L 525 4666 
z
" transform="scale(0.015625)"/>
       </defs>
       <use xlink:href="#DejaVuSans-30"/>
       <use xlink:href="#DejaVuSans-44" transform="translate(86.28125 0)"/>
       <use xlink:href="#DejaVuSans-55" transform="translate(147.5625 0)"/>
       <use xlink:href="#DejaVuSans-3" transform="translate(188.671875 0)"/>
       <use xlink:href="#DejaVuSans-15" transform="translate(220.453125 0)"/>
       <use xlink:href="#DejaVuSans-13" transform="translate(284.078125 0)"/>
       <use xlink:href="#DejaVuSans-15" transform="translate(347.703125 0)"/>
       <use xlink:href="#DejaVuSans-1a" transform="translate(411.328125 0)"/>
      </g>
     </g>
    </g>
    <g id="text_27">
     <!-- Mois -->
     <g style="fill: #262626" transform="translate(406.830044 340.845742) scale(0.11 -0.11)">
      <defs>
       <path id="DejaVuSans-52" d="M 1959 3097 
Q 1497 3097 1228 2736 
Q 959 2375 959 1747 
Q 959 1119 1226 758 
Q 1494 397 1959 397 
Q 2419 397 2687 759 
Q 2956 1122 2956 1747 
Q 2956 2369 2687 2733 
Q 2419 3097 1959 3097 
z
M 1959 3584 
Q 2709 3584 3137 3096 
Q 3566 2609 3566 1747 
Q 3566 888 3137 398 
Q 2709 -91 1959 -91 
Q 1206 -91 779 398 
Q 353 888 353 1747 
Q 353 2609 779 3096 
Q 1206 3584 1959 3584 
z
" transform="scale(0.015625)"/>
       <path id="DejaVuSans-4c" d="M 603 3500 
L 1178 3500 
L 1178 0 
L 603 0 
L 603 3500 
z
M 603 4863 
L 1178 4863 
L 1178 4134 
L 603 4134 
L 603 4863 
z
" transform="scale(0.015625)"/>
       <path id="DejaVuSans-56" d="M 2834 3397 
L 2834 2853 
Q 2591 2978 2328 3040 
Q 2066 3103 1784 3103 
Q 1356 3103 1142 2972 
Q 928 2841 928 2578 
Q 928 2378 1081 2264 
Q 1234 2150 1697 2047 
L 1894 2003 
Q 2506 1872 2764 1633 
Q 3022 1394 3022 966 
Q 3022 478 2636 193 
Q 2250 -91 1575 -91 
Q 1294 -91 989 -36 
Q 684 19 347 128 
L 347 722 
Q 666 556 975 473 
Q 1284 391 1588 391 
Q 1994 391 2212 530 
Q 2431 669 2431 922 
Q 2431 1156 2273 1281 
Q 2116 1406 1581 1522 
L 1381 1569 
Q 847 1681 609 1914 
Q 372 2147 372 2553 
Q 372 3047 722 3315 
Q 1072 3584 1716 3584 
Q 2034 3584 2315 3537 
Q 2597 3491 2834 3397 
z
" transform="scale(0.015625)"/>
      </defs>
      <use xlink:href="#DejaVuSans-30"/>
      <use xlink:href="#DejaVuSans-52" transform="translate(86.28125 0)"/>
      <use xlink:href="#DejaVuSans-4c" transform="translate(147.46875 0)"/>
      <use xlink:href="#DejaVuSans-56" transform="translate(175.25 0)"/>
     </g>
    </g>
   </g>
   <g id="matplotlib.axis_2">
    <g id="ytick_1">
     <g id="line2d_27">
      <path d="M 63.78875 259.951234 
L 774.87915 259.951234 
" clip-path="url(#pb8ef8f3f3b)" style="fill: none; stroke-dasharray: 2.96,1.28; stroke-dashoffset: 0; stroke: #cccccc; stroke-width: 0.8"/>
     </g>
     <g id="text_28">
      <!-- 1 600 € -->
      <g style="fill: #262626" transform="translate(22.2 263.370179) scale(0.09 -0.09)">
       <defs>
        <path id="DejaVuSans-b11" transform="scale(0.015625)"/>
        <path id="DejaVuSans-b83" d="M 3647 4306 
L 3647 3641 
Q 3363 3969 3098 4109 
Q 2834 4250 2516 4250 
Q 2025 4250 1709 3937 
Q 1394 3625 1294 3041 
L 3097 3041 
L 2925 2656 
L 1244 2656 
Q 1238 2581 1236 2509 
Q 1234 2438 1234 2328 
Q 1234 2228 1236 2156 
Q 1238 2084 1244 2009 
L 2638 2009 
L 2463 1625 
L 1294 1625 
Q 1394 1041 1709 725 
Q 2025 409 2516 409 
Q 2834 409 3098 550 
Q 3363 691 3647 1019 
L 3647 359 
Q 3369 134 3080 21 
Q 2791 -91 2491 -91 
Q 1750 -91 1267 362 
Q 784 816 659 1625 
L 0 1625 
L 172 2009 
L 606 2009 
Q 606 2081 604 2154 
Q 603 2228 603 2328 
Q 603 2438 604 2511 
Q 606 2584 606 2656 
L 0 2656 
L 172 3041 
L 659 3041 
Q 784 3844 1268 4297 
Q 1753 4750 2491 4750 
Q 2797 4750 3086 4639 
Q 3375 4528 3647 4306 
z
" transform="scale(0.015625)"/>
       </defs>
       <use xlink:href="#DejaVuSans-14"/>
       <use xlink:href="#DejaVuSans-b11" transform="translate(63.625 0)"/>
       <use xlink:href="#DejaVuSans-19" transform="translate(83.59375 0)"/>
       <use xlink:href="#DejaVuSans-13" transform="translate(147.21875 0)"/>
       <use xlink:href="#DejaVuSans-13" transform="translate(210.84375 0)"/>
       <use xlink:href="#DejaVuSans-3" transform="translate(274.46875 0)"/>
       <use xlink:href="#DejaVuSans-b83" transform="translate(306.25 0)"/>
      </g>
     </g>
    </g>
    <g id="ytick_2">
     <g id="line2d_28">
      <path d="M 63.78875 223.392303 
L 774.87915 223.392303 
" clip-path="url(#pb8ef8f3f3b)" style="fill: none; stroke-dasharray: 2.96,1.28; stroke-dashoffset: 0; stroke: #cccccc; stroke-width: 0.8"/>
     </g>
     <g id="text_29">
      <!-- 1 700 € -->
      <g style="fill: #262626" transform="translate(22.2 226.811248) scale(0.09 -0.09)">
       <use xlink:href="#DejaVuSans-14"/>
       <use xlink:href="#DejaVuSans-b11" transform="translate(63.625 0)"/>
       <use xlink:href="#DejaVuSans-1a" transform="translate(83.59375 0)"/>
       <use xlink:href="#DejaVuSans-13" transform="translate(147.21875 0)"/>
       <use xlink:href="#DejaVuSans-13" transform="translate(210.84375 0)"/>
       <use xlink:href="#DejaVuSans-3" transform="translate(274.46875 0)"/>
       <use xlink:href="#DejaVuSans-b83" transform="translate(306.25 0)"/>
      </g>
     </g>
    </g>
    <g id="ytick_3">
     <g id="line2d_29">
      <path d="M 63.78875 186.833373 
L 774.87915 186.833373 
" clip-path="url(#pb8ef8f3f3b)" style="fill: none; stroke-dasharray: 2.96,1.28; stroke-dashoffset: 0; stroke: #cccccc; stroke-width: 0.8"/>
     </g>
     <g id="text_30">
      <!-- 1 800 € -->
      <g style="fill: #262626" transform="translate(22.2 190.252318) scale(0.09 -0.09)">
       <defs>
        <path id="DejaVuSans-1b" d="M 2034 2216 
Q 1584 2216 1326 1975 
Q 1069 1734 1069 1313 
Q 1069 891 1326 650 
Q 1584 409 2034 409 
Q 2484 409 2743 651 
Q 3003 894 3003 1313 
Q 3003 1734 2745 1975 
Q 2488 2216 2034 2216 
z
M 1403 2484 
Q 997 2584 770 2862 
Q 544 3141 544 3541 
Q 544 4100 942 4425 
Q 1341 4750 2034 4750 
Q 2731 4750 3128 4425 
Q 3525 4100 3525 3541 
Q 3525 3141 3298 2862 
Q 3072 2584 2669 2484 
Q 3125 2378 3379 2068 
Q 3634 1759 3634 1313 
Q 3634 634 3220 271 
Q 2806 -91 2034 -91 
Q 1263 -91 848 271 
Q 434 634 434 1313 
Q 434 1759 690 2068 
Q 947 2378 1403 2484 
z
M 1172 3481 
Q 1172 3119 1398 2916 
Q 1625 2713 2034 2713 
Q 2441 2713 2670 2916 
Q 2900 3119 2900 3481 
Q 2900 3844 2670 4047 
Q 2441 4250 2034 4250 
Q 1625 4250 1398 4047 
Q 1172 3844 1172 3481 
z
" transform="scale(0.015625)"/>
       </defs>
       <use xlink:href="#DejaVuSans-14"/>
       <use xlink:href="#DejaVuSans-b11" transform="translate(63.625 0)"/>
       <use xlink:href="#DejaVuSans-1b" transform="translate(83.59375 0)"/>
       <use xlink:href="#DejaVuSans-13" transform="translate(147.21875 0)"/>
       <use xlink:href="#DejaVuSans-13" transform="translate(210.84375 0)"/>
       <use xlink:href="#DejaVuSans-3" transform="translate(274.46875 0)"/>
       <use xlink:href="#DejaVuSans-b83" transform="translate(306.25 0)"/>
      </g>
     </g>
    </g>
    <g id="ytick_4">
     <g id="line2d_30">
      <path d="M 63.78875 150.274442 
L 774.87915 150.274442 
" clip-path="url(#pb8ef8f3f3b)" style="fill: none; stroke-dasharray: 2.96,1.28; stroke-dashoffset: 0; stroke: #cccccc; stroke-width: 0.8"/>
     </g>
     <g id="text_31">
      <!-- 1 900 € -->
      <g style="fill: #262626" transform="translate(22.2 153.693388) scale(0.09 -0.09)">
       <defs>
        <path id="DejaVuSans-1c" d="M 703 97 
L 703 672 
Q 941 559 1184 500 
Q 1428 441 1663 441 
Q 2288 441 2617 861 
Q 2947 1281 2994 2138 
Q 2813 1869 2534 1725 
Q 2256 1581 1919 1581 
Q 1219 1581 811 2004 
Q 403 2428 403 3163 
Q 403 3881 828 4315 
Q 1253 4750 1959 4750 
Q 2769 4750 3195 4129 
Q 3622 3509 3622 2328 
Q 3622 1225 3098 567 
Q 2575 -91 1691 -91 
Q 1453 -91 1209 -44 
Q 966 3 703 97 
z
M 1959 2075 
Q 2384 2075 2632 2365 
Q 2881 2656 2881 3163 
Q 2881 3666 2632 3958 
Q 2384 4250 1959 4250 
Q 1534 4250 1286 3958 
Q 1038 3666 1038 3163 
Q 1038 2656 1286 2365 
Q 1534 2075 1959 2075 
z
" transform="scale(0.015625)"/>
       </defs>
       <use xlink:href="#DejaVuSans-14"/>
       <use xlink:href="#DejaVuSans-b11" transform="translate(63.625 0)"/>
       <use xlink:href="#DejaVuSans-1c" transform="translate(83.59375 0)"/>
       <use xlink:href="#DejaVuSans-13" transform="translate(147.21875 0)"/>
       <use xlink:href="#DejaVuSans-13" transform="translate(210.84375 0)"/>
       <use xlink:href="#DejaVuSans-3" transform="translate(274.46875 0)"/>
       <use xlink:href="#DejaVuSans-b83" transform="translate(306.25 0)"/>
      </g>
     </g>
    </g>
    <g id="ytick_5">
     <g id="line2d_31">
      <path d="M 63.78875 113.715512 
L 774.87915 113.715512 
" clip-path="url(#pb8ef8f3f3b)" style="fill: none; stroke-dasharray: 2.96,1.28; stroke-dashoffset: 0; stroke: #cccccc; stroke-width: 0.8"/>
     </g>
     <g id="text_32">
      <!-- 2 000 € -->
      <g style="fill: #262626" transform="translate(22.2 117.134457) scale(0.09 -0.09)">
       <use xlink:href="#DejaVuSans-15"/>
       <use xlink:href="#DejaVuSans-b11" transform="translate(63.625 0)"/>
       <use xlink:href="#DejaVuSans-13" transform="translate(83.59375 0)"/>
       <use xlink:href="#DejaVuSans-13" transform="translate(147.21875 0)"/>
       <use xlink:href="#DejaVuSans-13" transform="translate(210.84375 0)"/>
       <use xlink:href="#DejaVuSans-3" transform="translate(274.46875 0)"/>
       <use xlink:href="#DejaVuSans-b83" transform="translate(306.25 0)"/>
      </g>
     </g>
    </g>
    <g id="ytick_6">
     <g id="line2d_32">
      <path d="M 63.78875 77.156582 
L 774.87915 77.156582 
" clip-path="url(#pb8ef8f3f3b)" style="fill: none; stroke-dasharray: 2.96,1.28; stroke-dashoffset: 0; stroke: #cccccc; stroke-width: 0.8"/>
     </g>
     <g id="text_33">
      <!-- 2 100 € -->
      <g style="fill: #262626" transform="translate(22.2 80.575527) scale(0.09 -0.09)">
       <use xlink:href="#DejaVuSans-15"/>
       <use xlink:href="#DejaVuSans-b11" transform="translate(63.625 0)"/>
       <use xlink:href="#DejaVuSans-14" transform="translate(83.59375 0)"/>
       <use xlink:href="#DejaVuSans-13" transform="translate(147.21875 0)"/>
       <use xlink:href="#DejaVuSans-13" transform="translate(210.84375 0)"/>
       <use xlink:href="#DejaVuSans-3" transform="translate(274.46875 0)"/>
       <use xlink:href="#DejaVuSans-b83" transform="translate(306.25 0)"/>
      </g>
     </g>
    </g>
    <g id="ytick_7">
     <g id="line2d_33">
      <path d="M 63.78875 40.597651 
L 774.87915 40.597651 
" clip-path="url(#pb8ef8f3f3b)" style="fill: none; stroke-dasharray: 2.96,1.28; stroke-dashoffset: 0; stroke: #cccccc; stroke-width: 0.8"/>
     </g>
     <g id="text_34">
      <!-- 2 200 € -->
      <g style="fill: #262626" transform="translate(22.2 44.016597) scale(0.09 -0.09)">
       <use xlink:href="#DejaVuSans-15"/>
       <use xlink:href="#DejaVuSans-b11" transform="translate(63.625 0)"/>
       <use xlink:href="#DejaVuSans-15" transform="translate(83.59375 0)"/>
       <use xlink:href="#DejaVuSans-13" transform="translate(147.21875 0)"/>
       <use xlink:href="#DejaVuSans-13" transform="translate(210.84375 0)"/>
       <use xlink:href="#DejaVuSans-3" transform="translate(274.46875 0)"/>
       <use xlink:href="#DejaVuSans-b83" transform="translate(306.25 0)"/>
      </g>
     </g>
    </g>
    <g id="text_35">
     <!-- EUR / m2 -->
     <g style="fill: #262626" transform="translate(15.557422 179.091347) rotate(-90) scale(0.11 -0.11)">
      <defs>
       <path id="DejaVuSans-28" d="M 628 4666 
L 3578 4666 
L 3578 4134 
L 1259 4134 
L 1259 2753 
L 3481 2753 
L 3481 2222 
L 1259 2222 
L 1259 531 
L 3634 531 
L 3634 0 
L 628 0 
L 628 4666 
z
" transform="scale(0.015625)"/>
       <path id="DejaVuSans-38" d="M 556 4666 
L 1191 4666 
L 1191 1831 
Q 1191 1081 1462 751 
Q 1734 422 2344 422 
Q 2950 422 3222 751 
Q 3494 1081 3494 1831 
L 3494 4666 
L 4128 4666 
L 4128 1753 
Q 4128 841 3676 375 
Q 3225 -91 2344 -91 
Q 1459 -91 1007 375 
Q 556 841 556 1753 
L 556 4666 
z
" transform="scale(0.015625)"/>
       <path id="DejaVuSans-35" d="M 2841 2188 
Q 3044 2119 3236 1894 
Q 3428 1669 3622 1275 
L 4263 0 
L 3584 0 
L 2988 1197 
Q 2756 1666 2539 1819 
Q 2322 1972 1947 1972 
L 1259 1972 
L 1259 0 
L 628 0 
L 628 4666 
L 2053 4666 
Q 2853 4666 3247 4331 
Q 3641 3997 3641 3322 
Q 3641 2881 3436 2590 
Q 3231 2300 2841 2188 
z
M 1259 4147 
L 1259 2491 
L 2053 2491 
Q 2509 2491 2742 2702 
Q 2975 2913 2975 3322 
Q 2975 3731 2742 3939 
Q 2509 4147 2053 4147 
L 1259 4147 
z
" transform="scale(0.015625)"/>
       <path id="DejaVuSans-12" d="M 1625 4666 
L 2156 4666 
L 531 -594 
L 0 -594 
L 1625 4666 
z
" transform="scale(0.015625)"/>
       <path id="DejaVuSans-50" d="M 3328 2828 
Q 3544 3216 3844 3400 
Q 4144 3584 4550 3584 
Q 5097 3584 5394 3201 
Q 5691 2819 5691 2113 
L 5691 0 
L 5113 0 
L 5113 2094 
Q 5113 2597 4934 2840 
Q 4756 3084 4391 3084 
Q 3944 3084 3684 2787 
Q 3425 2491 3425 1978 
L 3425 0 
L 2847 0 
L 2847 2094 
Q 2847 2600 2669 2842 
Q 2491 3084 2119 3084 
Q 1678 3084 1418 2786 
Q 1159 2488 1159 1978 
L 1159 0 
L 581 0 
L 581 3500 
L 1159 3500 
L 1159 2956 
Q 1356 3278 1631 3431 
Q 1906 3584 2284 3584 
Q 2666 3584 2933 3390 
Q 3200 3197 3328 2828 
z
" transform="scale(0.015625)"/>
      </defs>
      <use xlink:href="#DejaVuSans-28"/>
      <use xlink:href="#DejaVuSans-38" transform="translate(63.1875 0)"/>
      <use xlink:href="#DejaVuSans-35" transform="translate(136.375 0)"/>
      <use xlink:href="#DejaVuSans-3" transform="translate(205.859375 0)"/>
      <use xlink:href="#DejaVuSans-12" transform="translate(237.640625 0)"/>
      <use xlink:href="#DejaVuSans-3" transform="translate(271.328125 0)"/>
      <use xlink:href="#DejaVuSans-50" transform="translate(303.109375 0)"/>
      <use xlink:href="#DejaVuSans-15" transform="translate(400.515625 0)"/>
     </g>
    </g>
   </g>
   <g id="FillBetweenPolyCollection_1">
    <defs>
     <path id="mc5357ea266" d="M 96.111041 -186.846077 
L 96.111041 -81.830014 
L 105.388736 -81.909152 
L 113.768589 -93.445561 
L 123.046283 -88.200714 
L 132.024697 -100.298068 
L 141.302392 -101.939783 
L 150.280806 -120.512027 
L 159.558501 -111.087985 
L 168.836195 -119.177383 
L 177.81461 -120.509562 
L 187.092304 -126.439306 
L 196.070718 -135.445821 
L 205.348413 -127.057515 
L 214.626108 -127.055312 
L 223.005961 -141.535212 
L 232.283655 -138.937357 
L 241.26207 -136.309974 
L 250.539764 -144.003321 
L 259.518178 -169.496296 
L 268.795873 -156.93227 
L 278.073568 -164.45915 
L 287.051982 -158.300672 
L 296.329676 -164.204925 
L 305.30809 -157.016915 
L 314.585785 -156.151574 
L 323.86348 -152.120652 
L 332.243333 -168.213466 
L 341.521027 -164.827168 
L 350.499442 -141.435621 
L 359.777136 -150.727788 
L 368.75555 -180.731994 
L 378.033245 -162.496055 
L 387.31094 -174.297626 
L 396.289354 -161.638196 
L 405.567048 -173.017717 
L 414.545462 -153.408713 
L 423.823157 -161.006718 
L 433.100852 -156.315325 
L 441.779985 -160.845006 
L 451.05768 -149.029935 
L 460.036094 -175.363019 
L 469.313789 -167.211965 
L 478.292203 -174.913574 
L 487.569897 -164.511025 
L 496.847592 -166.719944 
L 505.826006 -170.456791 
L 515.103701 -165.981193 
L 524.082115 -186.925596 
L 533.35981 -166.363801 
L 542.637504 -163.799763 
L 551.017357 -173.390063 
L 560.295052 -165.521518 
L 569.273466 -176.63775 
L 578.551161 -174.359181 
L 587.529575 -190.728747 
L 596.80727 -178.08723 
L 606.084964 -184.061223 
L 615.063378 -183.842656 
L 624.341073 -186.939135 
L 633.319487 -191.781492 
L 642.597182 -183.290567 
L 651.874876 -178.352502 
L 660.254729 -192.929762 
L 669.532424 -187.255548 
L 678.510838 -181.937651 
L 687.788533 -187.9466 
L 696.766947 -209.359892 
L 706.044642 -192.65108 
L 715.322336 -201.468427 
L 724.30075 -197.159638 
L 733.578445 -203.538752 
L 742.556859 -197.047214 
L 742.556859 -306.814087 
L 742.556859 -306.814087 
L 733.578445 -312.308112 
L 724.30075 -305.980306 
L 715.322336 -310.97316 
L 706.044642 -300.199739 
L 696.766947 -315.057253 
L 687.788533 -293.30661 
L 678.510838 -287.578142 
L 669.532424 -293.197718 
L 660.254729 -298.043976 
L 651.874876 -284.60398 
L 642.597182 -288.039757 
L 633.319487 -298.428507 
L 624.341073 -292.112834 
L 615.063378 -289.056719 
L 606.084964 -290.126121 
L 596.80727 -282.975858 
L 587.529575 -295.042693 
L 578.551161 -280.130254 
L 569.273466 -281.650731 
L 560.295052 -270.040453 
L 551.017357 -278.970487 
L 542.637504 -268.057677 
L 533.35981 -270.6608 
L 524.082115 -290.70435 
L 515.103701 -271.042608 
L 505.826006 -274.1646 
L 496.847592 -271.08945 
L 487.569897 -268.117257 
L 478.292203 -279.100365 
L 469.313789 -271.092354 
L 460.036094 -279.412412 
L 451.05768 -252.592083 
L 441.779985 -264.605141 
L 433.100852 -260.043909 
L 423.823157 -264.938332 
L 414.545462 -257.210661 
L 405.567048 -277.376699 
L 396.289354 -265.82989 
L 387.31094 -276.813839 
L 378.033245 -265.254639 
L 368.75555 -284.699998 
L 359.777136 -255.949052 
L 350.499442 -245.500358 
L 341.521027 -268.195486 
L 332.243333 -271.732182 
L 323.86348 -256.729995 
L 314.585785 -259.081346 
L 305.30809 -261.585246 
L 296.329676 -269.817092 
L 287.051982 -262.342639 
L 278.073568 -268.133916 
L 268.795873 -260.668074 
L 259.518178 -272.240304 
L 250.539764 -248.133326 
L 241.26207 -240.458726 
L 232.283655 -244.006544 
L 223.005961 -246.984384 
L 214.626108 -231.706598 
L 205.348413 -231.501258 
L 196.070718 -239.304876 
L 187.092304 -231.127898 
L 177.81461 -225.42075 
L 168.836195 -223.731718 
L 159.558501 -216.484279 
L 150.280806 -224.923978 
L 141.302392 -206.867755 
L 132.024697 -207.099935 
L 123.046283 -193.707173 
L 113.768589 -199.003136 
L 105.388736 -187.246149 
L 96.111041 -186.846077 
z
" style="stroke: #ff7f0e; stroke-opacity: 0.15; stroke-width: 0.8"/>
    </defs>
    <g clip-path="url(#pb8ef8f3f3b)">
     <use xlink:href="#mc5357ea266" x="0" y="350.68832" style="fill: #ff7f0e; fill-opacity: 0.15; stroke: #ff7f0e; stroke-opacity: 0.15; stroke-width: 0.8"/>
    </g>
   </g>
   <g id="line2d_34">
    <path d="M 96.111041 271.496159 
L 105.388736 237.50338 
L 113.768589 235.235337 
L 123.046283 214.929675 
L 132.024697 209.086635 
L 141.302392 219.94486 
L 150.280806 211.782373 
L 159.558501 193.72563 
L 168.836195 194.064438 
L 177.81461 180.646115 
L 187.092304 170.537662 
L 196.070718 168.409975 
L 205.348413 167.478645 
L 214.626108 172.516736 
L 223.005961 128.793942 
L 232.283655 165.310777 
L 241.26207 151.535095 
L 250.539764 135.867079 
L 259.518178 52.099337 
L 268.795873 108.258955 
L 278.073568 121.88168 
L 287.051982 89.464204 
L 296.329676 120.859129 
L 305.30809 119.831365 
L 314.585785 113.393703 
L 323.86348 102.544728 
L 332.243333 88.967928 
L 341.521027 111.371991 
L 350.499442 166.892138 
L 359.777136 158.351415 
L 368.75555 139.873344 
L 378.033245 157.383123 
L 387.31094 120.710025 
L 396.289354 146.295971 
L 405.567048 101.922309 
L 414.545462 140.465949 
L 423.823157 131.994977 
L 433.100852 154.336546 
L 441.779985 126.99049 
L 451.05768 183.013783 
L 460.036094 93.431871 
L 469.313789 113.715512 
L 478.292203 130.277852 
L 487.569897 150.274442 
L 496.847592 156.957258 
L 505.826006 132.737257 
L 515.103701 158.761337 
L 524.082115 121.955635 
L 533.35981 146.085398 
L 542.637504 193.911284 
L 551.017357 172.502023 
L 560.295052 147.534257 
L 569.273466 160.139551 
L 578.551161 144.585956 
L 587.529575 52.783961 
L 596.80727 111.007443 
L 606.084964 64.422572 
L 615.063378 137.592605 
L 624.341073 100.81236 
L 633.319487 91.700376 
" clip-path="url(#pb8ef8f3f3b)" style="fill: none; stroke: #1f77b4; stroke-width: 2; stroke-linecap: round"/>
   </g>
   <g id="line2d_35">
    <path d="M 96.111041 216.408978 
L 105.388736 216.23671 
L 113.768589 204.525345 
L 123.046283 210.132569 
L 132.024697 196.740005 
L 141.302392 196.098691 
L 150.280806 177.658237 
L 159.558501 187.473775 
L 168.836195 179.104649 
L 177.81461 176.886372 
L 187.092304 172.408943 
L 196.070718 163.455045 
L 205.348413 171.230826 
L 214.626108 171.5822 
L 223.005961 156.099628 
L 232.283655 158.466561 
L 241.26207 162.129848 
L 250.539764 154.858798 
L 259.518178 129.793101 
L 268.795873 142.082095 
L 278.073568 134.223069 
L 287.051982 140.110712 
L 296.329676 134.091454 
L 305.30809 140.905516 
L 314.585785 142.686284 
L 323.86348 147.006178 
L 332.243333 130.910645 
L 341.521027 133.684079 
L 350.499442 157.621944 
L 359.777136 146.825904 
L 368.75555 118.48377 
L 378.033245 136.716946 
L 387.31094 126.064658 
L 396.289354 136.816278 
L 405.567048 125.934505 
L 414.545462 145.12078 
L 423.823157 137.334364 
L 433.100852 142.256128 
L 441.779985 137.606547 
L 451.05768 150.103136 
L 460.036094 122.894684 
L 469.313789 131.986123 
L 478.292203 123.513289 
L 487.569897 134.329207 
L 496.847592 132.315025 
L 505.826006 128.59519 
L 515.103701 131.59894 
L 524.082115 112.455068 
L 533.35981 131.912171 
L 542.637504 134.195712 
L 551.017357 124.702497 
L 560.295052 132.76553 
L 569.273466 121.749556 
L 578.551161 123.564051 
L 587.529575 107.500187 
L 596.80727 119.771535 
L 606.084964 113.858218 
L 615.063378 114.016531 
L 624.341073 111.994911 
L 633.319487 105.417603 
L 642.597182 115.649193 
L 651.874876 118.456376 
L 660.254729 105.191298 
L 669.532424 110.013314 
L 678.510838 116.052101 
L 687.788533 111.235734 
L 696.766947 88.545234 
L 706.044642 103.288599 
L 715.322336 94.494681 
L 724.30075 99.477589 
L 733.578445 92.511929 
L 742.556859 98.410117 
" clip-path="url(#pb8ef8f3f3b)" style="fill: none; stroke-dasharray: 7.4,3.2; stroke-dashoffset: 0; stroke: #ff7f0e; stroke-width: 2"/>
   </g>
   <g id="line2d_36">
    <path d="M 633.319487 283.289414 
L 633.319487 23.837812 
" clip-path="url(#pb8ef8f3f3b)" style="fill: none; stroke-dasharray: 1,1.65; stroke-dashoffset: 0; stroke: #7f7f7f; stroke-opacity: 0.7"/>
   </g>
   <g id="patch_3">
    <path d="M 63.78875 283.289414 
L 63.78875 23.837812 
" style="fill: none; stroke: #ffffff; stroke-linejoin: miter; stroke-linecap: square"/>
   </g>
   <g id="patch_4">
    <path d="M 774.87915 283.289414 
L 774.87915 23.837812 
" style="fill: none; stroke: #ffffff; stroke-linejoin: miter; stroke-linecap: square"/>
   </g>
   <g id="patch_5">
    <path d="M 63.78875 283.289414 
L 774.87915 283.289414 
" style="fill: none; stroke: #ffffff; stroke-linejoin: miter; stroke-linecap: square"/>
   </g>
   <g id="patch_6">
    <path d="M 63.78875 23.837812 
L 774.87915 23.837812 
" style="fill: none; stroke: #ffffff; stroke-linejoin: miter; stroke-linecap: square"/>
   </g>
   <g id="text_36">
    <!-- Prevision des prix au m2 - - Brest -->
    <g style="fill: #262626" transform="translate(290.030825 17.837812) scale(0.14 -0.14)">
     <defs>
      <path id="DejaVuSans-Bold-33" d="M 588 4666 
L 2584 4666 
Q 3475 4666 3951 4270 
Q 4428 3875 4428 3144 
Q 4428 2409 3951 2014 
Q 3475 1619 2584 1619 
L 1791 1619 
L 1791 0 
L 588 0 
L 588 4666 
z
M 1791 3794 
L 1791 2491 
L 2456 2491 
Q 2806 2491 2997 2661 
Q 3188 2831 3188 3144 
Q 3188 3456 2997 3625 
Q 2806 3794 2456 3794 
L 1791 3794 
z
" transform="scale(0.015625)"/>
      <path id="DejaVuSans-Bold-55" d="M 3138 2547 
Q 2991 2616 2845 2648 
Q 2700 2681 2553 2681 
Q 2122 2681 1889 2404 
Q 1656 2128 1656 1613 
L 1656 0 
L 538 0 
L 538 3500 
L 1656 3500 
L 1656 2925 
Q 1872 3269 2151 3426 
Q 2431 3584 2822 3584 
Q 2878 3584 2943 3579 
Q 3009 3575 3134 3559 
L 3138 2547 
z
" transform="scale(0.015625)"/>
      <path id="DejaVuSans-Bold-48" d="M 4031 1759 
L 4031 1441 
L 1416 1441 
Q 1456 1047 1700 850 
Q 1944 653 2381 653 
Q 2734 653 3104 758 
Q 3475 863 3866 1075 
L 3866 213 
Q 3469 63 3072 -14 
Q 2675 -91 2278 -91 
Q 1328 -91 801 392 
Q 275 875 275 1747 
Q 275 2603 792 3093 
Q 1309 3584 2216 3584 
Q 3041 3584 3536 3087 
Q 4031 2591 4031 1759 
z
M 2881 2131 
Q 2881 2450 2695 2645 
Q 2509 2841 2209 2841 
Q 1884 2841 1681 2658 
Q 1478 2475 1428 2131 
L 2881 2131 
z
" transform="scale(0.015625)"/>
      <path id="DejaVuSans-Bold-59" d="M 97 3500 
L 1216 3500 
L 2088 1081 
L 2956 3500 
L 4078 3500 
L 2700 0 
L 1472 0 
L 97 3500 
z
" transform="scale(0.015625)"/>
      <path id="DejaVuSans-Bold-4c" d="M 538 3500 
L 1656 3500 
L 1656 0 
L 538 0 
L 538 3500 
z
M 538 4863 
L 1656 4863 
L 1656 3950 
L 538 3950 
L 538 4863 
z
" transform="scale(0.015625)"/>
      <path id="DejaVuSans-Bold-56" d="M 3272 3391 
L 3272 2541 
Q 2913 2691 2578 2766 
Q 2244 2841 1947 2841 
Q 1628 2841 1473 2761 
Q 1319 2681 1319 2516 
Q 1319 2381 1436 2309 
Q 1553 2238 1856 2203 
L 2053 2175 
Q 2913 2066 3209 1816 
Q 3506 1566 3506 1031 
Q 3506 472 3093 190 
Q 2681 -91 1863 -91 
Q 1516 -91 1145 -36 
Q 775 19 384 128 
L 384 978 
Q 719 816 1070 734 
Q 1422 653 1784 653 
Q 2113 653 2278 743 
Q 2444 834 2444 1013 
Q 2444 1163 2330 1236 
Q 2216 1309 1875 1350 
L 1678 1375 
Q 931 1469 631 1722 
Q 331 1975 331 2491 
Q 331 3047 712 3315 
Q 1094 3584 1881 3584 
Q 2191 3584 2531 3537 
Q 2872 3491 3272 3391 
z
" transform="scale(0.015625)"/>
      <path id="DejaVuSans-Bold-52" d="M 2203 2784 
Q 1831 2784 1636 2517 
Q 1441 2250 1441 1747 
Q 1441 1244 1636 976 
Q 1831 709 2203 709 
Q 2569 709 2762 976 
Q 2956 1244 2956 1747 
Q 2956 2250 2762 2517 
Q 2569 2784 2203 2784 
z
M 2203 3584 
Q 3106 3584 3614 3096 
Q 4122 2609 4122 1747 
Q 4122 884 3614 396 
Q 3106 -91 2203 -91 
Q 1297 -91 786 396 
Q 275 884 275 1747 
Q 275 2609 786 3096 
Q 1297 3584 2203 3584 
z
" transform="scale(0.015625)"/>
      <path id="DejaVuSans-Bold-51" d="M 4056 2131 
L 4056 0 
L 2931 0 
L 2931 347 
L 2931 1631 
Q 2931 2084 2911 2256 
Q 2891 2428 2841 2509 
Q 2775 2619 2662 2680 
Q 2550 2741 2406 2741 
Q 2056 2741 1856 2470 
Q 1656 2200 1656 1722 
L 1656 0 
L 538 0 
L 538 3500 
L 1656 3500 
L 1656 2988 
Q 1909 3294 2193 3439 
Q 2478 3584 2822 3584 
Q 3428 3584 3742 3212 
Q 4056 2841 4056 2131 
z
" transform="scale(0.015625)"/>
      <path id="DejaVuSans-Bold-3" transform="scale(0.015625)"/>
      <path id="DejaVuSans-Bold-47" d="M 2919 2988 
L 2919 4863 
L 4044 4863 
L 4044 0 
L 2919 0 
L 2919 506 
Q 2688 197 2409 53 
Q 2131 -91 1766 -91 
Q 1119 -91 703 423 
Q 288 938 288 1747 
Q 288 2556 703 3070 
Q 1119 3584 1766 3584 
Q 2128 3584 2408 3439 
Q 2688 3294 2919 2988 
z
M 2181 722 
Q 2541 722 2730 984 
Q 2919 1247 2919 1747 
Q 2919 2247 2730 2509 
Q 2541 2772 2181 2772 
Q 1825 2772 1636 2509 
Q 1447 2247 1447 1747 
Q 1447 1247 1636 984 
Q 1825 722 2181 722 
z
" transform="scale(0.015625)"/>
      <path id="DejaVuSans-Bold-53" d="M 1656 506 
L 1656 -1331 
L 538 -1331 
L 538 3500 
L 1656 3500 
L 1656 2988 
Q 1888 3294 2169 3439 
Q 2450 3584 2816 3584 
Q 3463 3584 3878 3070 
Q 4294 2556 4294 1747 
Q 4294 938 3878 423 
Q 3463 -91 2816 -91 
Q 2450 -91 2169 54 
Q 1888 200 1656 506 
z
M 2400 2772 
Q 2041 2772 1848 2508 
Q 1656 2244 1656 1747 
Q 1656 1250 1848 986 
Q 2041 722 2400 722 
Q 2759 722 2948 984 
Q 3138 1247 3138 1747 
Q 3138 2247 2948 2509 
Q 2759 2772 2400 2772 
z
" transform="scale(0.015625)"/>
      <path id="DejaVuSans-Bold-5b" d="M 1422 1791 
L 159 3500 
L 1344 3500 
L 2059 2463 
L 2784 3500 
L 3969 3500 
L 2706 1797 
L 4031 0 
L 2847 0 
L 2059 1106 
L 1281 0 
L 97 0 
L 1422 1791 
z
" transform="scale(0.015625)"/>
      <path id="DejaVuSans-Bold-44" d="M 2106 1575 
Q 1756 1575 1579 1456 
Q 1403 1338 1403 1106 
Q 1403 894 1545 773 
Q 1688 653 1941 653 
Q 2256 653 2472 879 
Q 2688 1106 2688 1447 
L 2688 1575 
L 2106 1575 
z
M 3816 1997 
L 3816 0 
L 2688 0 
L 2688 519 
Q 2463 200 2181 54 
Q 1900 -91 1497 -91 
Q 953 -91 614 226 
Q 275 544 275 1050 
Q 275 1666 698 1953 
Q 1122 2241 2028 2241 
L 2688 2241 
L 2688 2328 
Q 2688 2594 2478 2717 
Q 2269 2841 1825 2841 
Q 1466 2841 1156 2769 
Q 847 2697 581 2553 
L 581 3406 
Q 941 3494 1303 3539 
Q 1666 3584 2028 3584 
Q 2975 3584 3395 3211 
Q 3816 2838 3816 1997 
z
" transform="scale(0.015625)"/>
      <path id="DejaVuSans-Bold-58" d="M 500 1363 
L 500 3500 
L 1625 3500 
L 1625 3150 
Q 1625 2866 1622 2436 
Q 1619 2006 1619 1863 
Q 1619 1441 1641 1255 
Q 1663 1069 1716 984 
Q 1784 875 1895 815 
Q 2006 756 2150 756 
Q 2500 756 2700 1025 
Q 2900 1294 2900 1772 
L 2900 3500 
L 4019 3500 
L 4019 0 
L 2900 0 
L 2900 506 
Q 2647 200 2364 54 
Q 2081 -91 1741 -91 
Q 1134 -91 817 281 
Q 500 653 500 1363 
z
" transform="scale(0.015625)"/>
      <path id="DejaVuSans-Bold-50" d="M 3781 2919 
Q 3994 3244 4286 3414 
Q 4578 3584 4928 3584 
Q 5531 3584 5847 3212 
Q 6163 2841 6163 2131 
L 6163 0 
L 5038 0 
L 5038 1825 
Q 5041 1866 5042 1909 
Q 5044 1953 5044 2034 
Q 5044 2406 4934 2573 
Q 4825 2741 4581 2741 
Q 4263 2741 4089 2478 
Q 3916 2216 3909 1719 
L 3909 0 
L 2784 0 
L 2784 1825 
Q 2784 2406 2684 2573 
Q 2584 2741 2328 2741 
Q 2006 2741 1831 2477 
Q 1656 2213 1656 1722 
L 1656 0 
L 531 0 
L 531 3500 
L 1656 3500 
L 1656 2988 
Q 1863 3284 2130 3434 
Q 2397 3584 2719 3584 
Q 3081 3584 3359 3409 
Q 3638 3234 3781 2919 
z
" transform="scale(0.015625)"/>
      <path id="DejaVuSans-Bold-15" d="M 1844 884 
L 3897 884 
L 3897 0 
L 506 0 
L 506 884 
L 2209 2388 
Q 2438 2594 2547 2791 
Q 2656 2988 2656 3200 
Q 2656 3528 2436 3728 
Q 2216 3928 1850 3928 
Q 1569 3928 1234 3808 
Q 900 3688 519 3450 
L 519 4475 
Q 925 4609 1322 4679 
Q 1719 4750 2100 4750 
Q 2938 4750 3402 4381 
Q 3866 4013 3866 3353 
Q 3866 2972 3669 2642 
Q 3472 2313 2841 1759 
L 1844 884 
z
" transform="scale(0.015625)"/>
      <path id="DejaVuSans-Bold-10" d="M 347 2297 
L 2309 2297 
L 2309 1388 
L 347 1388 
L 347 2297 
z
" transform="scale(0.015625)"/>
      <path id="DejaVuSans-Bold-25" d="M 2456 2859 
Q 2741 2859 2887 2984 
Q 3034 3109 3034 3353 
Q 3034 3594 2887 3720 
Q 2741 3847 2456 3847 
L 1791 3847 
L 1791 2859 
L 2456 2859 
z
M 2497 819 
Q 2859 819 3042 972 
Q 3225 1125 3225 1434 
Q 3225 1738 3044 1889 
Q 2863 2041 2497 2041 
L 1791 2041 
L 1791 819 
L 2497 819 
z
M 3616 2497 
Q 4003 2384 4215 2081 
Q 4428 1778 4428 1338 
Q 4428 663 3972 331 
Q 3516 0 2584 0 
L 588 0 
L 588 4666 
L 2394 4666 
Q 3366 4666 3802 4372 
Q 4238 4078 4238 3431 
Q 4238 3091 4078 2852 
Q 3919 2613 3616 2497 
z
" transform="scale(0.015625)"/>
      <path id="DejaVuSans-Bold-57" d="M 1759 4494 
L 1759 3500 
L 2913 3500 
L 2913 2700 
L 1759 2700 
L 1759 1216 
Q 1759 972 1856 886 
Q 1953 800 2241 800 
L 2816 800 
L 2816 0 
L 1856 0 
Q 1194 0 917 276 
Q 641 553 641 1216 
L 641 2700 
L 84 2700 
L 84 3500 
L 641 3500 
L 641 4494 
L 1759 4494 
z
" transform="scale(0.015625)"/>
     </defs>
     <use xlink:href="#DejaVuSans-Bold-33"/>
     <use xlink:href="#DejaVuSans-Bold-55" transform="translate(73.296875 0)"/>
     <use xlink:href="#DejaVuSans-Bold-48" transform="translate(122.609375 0)"/>
     <use xlink:href="#DejaVuSans-Bold-59" transform="translate(190.4375 0)"/>
     <use xlink:href="#DejaVuSans-Bold-4c" transform="translate(255.625 0)"/>
     <use xlink:href="#DejaVuSans-Bold-56" transform="translate(289.90625 0)"/>
     <use xlink:href="#DejaVuSans-Bold-4c" transform="translate(349.421875 0)"/>
     <use xlink:href="#DejaVuSans-Bold-52" transform="translate(383.703125 0)"/>
     <use xlink:href="#DejaVuSans-Bold-51" transform="translate(452.40625 0)"/>
     <use xlink:href="#DejaVuSans-Bold-3" transform="translate(523.59375 0)"/>
     <use xlink:href="#DejaVuSans-Bold-47" transform="translate(558.40625 0)"/>
     <use xlink:href="#DejaVuSans-Bold-48" transform="translate(629.984375 0)"/>
     <use xlink:href="#DejaVuSans-Bold-56" transform="translate(697.8125 0)"/>
     <use xlink:href="#DejaVuSans-Bold-3" transform="translate(757.328125 0)"/>
     <use xlink:href="#DejaVuSans-Bold-53" transform="translate(792.140625 0)"/>
     <use xlink:href="#DejaVuSans-Bold-55" transform="translate(863.71875 0)"/>
     <use xlink:href="#DejaVuSans-Bold-4c" transform="translate(913.03125 0)"/>
     <use xlink:href="#DejaVuSans-Bold-5b" transform="translate(947.3125 0)"/>
     <use xlink:href="#DejaVuSans-Bold-3" transform="translate(1011.8125 0)"/>
     <use xlink:href="#DejaVuSans-Bold-44" transform="translate(1046.625 0)"/>
     <use xlink:href="#DejaVuSans-Bold-58" transform="translate(1114.109375 0)"/>
     <use xlink:href="#DejaVuSans-Bold-3" transform="translate(1185.296875 0)"/>
     <use xlink:href="#DejaVuSans-Bold-50" transform="translate(1220.109375 0)"/>
     <use xlink:href="#DejaVuSans-Bold-15" transform="translate(1324.3125 0)"/>
     <use xlink:href="#DejaVuSans-Bold-3" transform="translate(1393.890625 0)"/>
     <use xlink:href="#DejaVuSans-Bold-10" transform="translate(1428.703125 0)"/>
     <use xlink:href="#DejaVuSans-Bold-10" transform="translate(1470.203125 0)"/>
     <use xlink:href="#DejaVuSans-Bold-3" transform="translate(1511.703125 0)"/>
     <use xlink:href="#DejaVuSans-Bold-25" transform="translate(1546.515625 0)"/>
     <use xlink:href="#DejaVuSans-Bold-55" transform="translate(1622.734375 0)"/>
     <use xlink:href="#DejaVuSans-Bold-48" transform="translate(1672.046875 0)"/>
     <use xlink:href="#DejaVuSans-Bold-56" transform="translate(1739.875 0)"/>
     <use xlink:href="#DejaVuSans-Bold-57" transform="translate(1799.390625 0)"/>
    </g>
   </g>
   <g id="legend_1">
    <g id="patch_7">
     <path d="M 70.08875 71.539922 
L 201.899375 71.539922 
Q 203.699375 71.539922 203.699375 69.739922 
L 203.699375 30.137812 
Q 203.699375 28.337812 201.899375 28.337812 
L 70.08875 28.337812 
Q 68.28875 28.337812 68.28875 30.137812 
L 68.28875 69.739922 
Q 68.28875 71.539922 70.08875 71.539922 
z
" style="fill: #f5f5f5; opacity: 0.85; stroke: #cccccc; stroke-width: 0.8; stroke-linejoin: miter"/>
    </g>
    <g id="line2d_37">
     <path d="M 71.88875 35.626406 
L 80.88875 35.626406 
L 89.88875 35.626406 
" style="fill: none; stroke: #1f77b4; stroke-width: 2; stroke-linecap: round"/>
    </g>
    <g id="text_37">
     <!-- Historique (mediane) -->
     <g style="fill: #262626" transform="translate(97.08875 38.776406) scale(0.09 -0.09)">
      <defs>
       <path id="DejaVuSans-2b" d="M 628 4666 
L 1259 4666 
L 1259 2753 
L 3553 2753 
L 3553 4666 
L 4184 4666 
L 4184 0 
L 3553 0 
L 3553 2222 
L 1259 2222 
L 1259 0 
L 628 0 
L 628 4666 
z
" transform="scale(0.015625)"/>
       <path id="DejaVuSans-57" d="M 1172 4494 
L 1172 3500 
L 2356 3500 
L 2356 3053 
L 1172 3053 
L 1172 1153 
Q 1172 725 1289 603 
Q 1406 481 1766 481 
L 2356 481 
L 2356 0 
L 1766 0 
Q 1100 0 847 248 
Q 594 497 594 1153 
L 594 3053 
L 172 3053 
L 172 3500 
L 594 3500 
L 594 4494 
L 1172 4494 
z
" transform="scale(0.015625)"/>
       <path id="DejaVuSans-54" d="M 947 1747 
Q 947 1113 1208 752 
Q 1469 391 1925 391 
Q 2381 391 2643 752 
Q 2906 1113 2906 1747 
Q 2906 2381 2643 2742 
Q 2381 3103 1925 3103 
Q 1469 3103 1208 2742 
Q 947 2381 947 1747 
z
M 2906 525 
Q 2725 213 2448 61 
Q 2172 -91 1784 -91 
Q 1150 -91 751 415 
Q 353 922 353 1747 
Q 353 2572 751 3078 
Q 1150 3584 1784 3584 
Q 2172 3584 2448 3432 
Q 2725 3281 2906 2969 
L 2906 3500 
L 3481 3500 
L 3481 -1331 
L 2906 -1331 
L 2906 525 
z
" transform="scale(0.015625)"/>
       <path id="DejaVuSans-b" d="M 1984 4856 
Q 1566 4138 1362 3434 
Q 1159 2731 1159 2009 
Q 1159 1288 1364 580 
Q 1569 -128 1984 -844 
L 1484 -844 
Q 1016 -109 783 600 
Q 550 1309 550 2009 
Q 550 2706 781 3412 
Q 1013 4119 1484 4856 
L 1984 4856 
z
" transform="scale(0.015625)"/>
       <path id="DejaVuSans-47" d="M 2906 2969 
L 2906 4863 
L 3481 4863 
L 3481 0 
L 2906 0 
L 2906 525 
Q 2725 213 2448 61 
Q 2172 -91 1784 -91 
Q 1150 -91 751 415 
Q 353 922 353 1747 
Q 353 2572 751 3078 
Q 1150 3584 1784 3584 
Q 2172 3584 2448 3432 
Q 2725 3281 2906 2969 
z
M 947 1747 
Q 947 1113 1208 752 
Q 1469 391 1925 391 
Q 2381 391 2643 752 
Q 2906 1113 2906 1747 
Q 2906 2381 2643 2742 
Q 2381 3103 1925 3103 
Q 1469 3103 1208 2742 
Q 947 2381 947 1747 
z
" transform="scale(0.015625)"/>
       <path id="DejaVuSans-c" d="M 513 4856 
L 1013 4856 
Q 1481 4119 1714 3412 
Q 1947 2706 1947 2009 
Q 1947 1309 1714 600 
Q 1481 -109 1013 -844 
L 513 -844 
Q 928 -128 1133 580 
Q 1338 1288 1338 2009 
Q 1338 2731 1133 3434 
Q 928 4138 513 4856 
z
" transform="scale(0.015625)"/>
      </defs>
      <use xlink:href="#DejaVuSans-2b"/>
      <use xlink:href="#DejaVuSans-4c" transform="translate(75.203125 0)"/>
      <use xlink:href="#DejaVuSans-56" transform="translate(102.984375 0)"/>
      <use xlink:href="#DejaVuSans-57" transform="translate(155.078125 0)"/>
      <use xlink:href="#DejaVuSans-52" transform="translate(194.28125 0)"/>
      <use xlink:href="#DejaVuSans-55" transform="translate(255.46875 0)"/>
      <use xlink:href="#DejaVuSans-4c" transform="translate(296.578125 0)"/>
      <use xlink:href="#DejaVuSans-54" transform="translate(324.359375 0)"/>
      <use xlink:href="#DejaVuSans-58" transform="translate(387.84375 0)"/>
      <use xlink:href="#DejaVuSans-48" transform="translate(451.21875 0)"/>
      <use xlink:href="#DejaVuSans-3" transform="translate(512.75 0)"/>
      <use xlink:href="#DejaVuSans-b" transform="translate(544.53125 0)"/>
      <use xlink:href="#DejaVuSans-50" transform="translate(583.546875 0)"/>
      <use xlink:href="#DejaVuSans-48" transform="translate(680.953125 0)"/>
      <use xlink:href="#DejaVuSans-47" transform="translate(742.484375 0)"/>
      <use xlink:href="#DejaVuSans-4c" transform="translate(805.96875 0)"/>
      <use xlink:href="#DejaVuSans-44" transform="translate(833.75 0)"/>
      <use xlink:href="#DejaVuSans-51" transform="translate(895.03125 0)"/>
      <use xlink:href="#DejaVuSans-48" transform="translate(958.40625 0)"/>
      <use xlink:href="#DejaVuSans-c" transform="translate(1019.9375 0)"/>
     </g>
    </g>
    <g id="line2d_38">
     <path d="M 71.88875 49.127109 
L 80.88875 49.127109 
L 89.88875 49.127109 
" style="fill: none; stroke-dasharray: 7.4,3.2; stroke-dashoffset: 0; stroke: #ff7f0e; stroke-width: 2"/>
    </g>
    <g id="text_38">
     <!-- Prevision -->
     <g style="fill: #262626" transform="translate(97.08875 52.277109) scale(0.09 -0.09)">
      <defs>
       <path id="DejaVuSans-33" d="M 1259 4147 
L 1259 2394 
L 2053 2394 
Q 2494 2394 2734 2622 
Q 2975 2850 2975 3272 
Q 2975 3691 2734 3919 
Q 2494 4147 2053 4147 
L 1259 4147 
z
M 628 4666 
L 2053 4666 
Q 2838 4666 3239 4311 
Q 3641 3956 3641 3272 
Q 3641 2581 3239 2228 
Q 2838 1875 2053 1875 
L 1259 1875 
L 1259 0 
L 628 0 
L 628 4666 
z
" transform="scale(0.015625)"/>
       <path id="DejaVuSans-59" d="M 191 3500 
L 800 3500 
L 1894 563 
L 2988 3500 
L 3597 3500 
L 2284 0 
L 1503 0 
L 191 3500 
z
" transform="scale(0.015625)"/>
      </defs>
      <use xlink:href="#DejaVuSans-33"/>
      <use xlink:href="#DejaVuSans-55" transform="translate(58.546875 0)"/>
      <use xlink:href="#DejaVuSans-48" transform="translate(97.453125 0)"/>
      <use xlink:href="#DejaVuSans-59" transform="translate(158.984375 0)"/>
      <use xlink:href="#DejaVuSans-4c" transform="translate(218.171875 0)"/>
      <use xlink:href="#DejaVuSans-56" transform="translate(245.953125 0)"/>
      <use xlink:href="#DejaVuSans-4c" transform="translate(298.046875 0)"/>
      <use xlink:href="#DejaVuSans-52" transform="translate(325.828125 0)"/>
      <use xlink:href="#DejaVuSans-51" transform="translate(387.015625 0)"/>
     </g>
    </g>
    <g id="patch_8">
     <path d="M 71.88875 65.777812 
L 89.88875 65.777812 
L 89.88875 59.477812 
L 71.88875 59.477812 
z
" style="fill: #ff7f0e; fill-opacity: 0.15; stroke: #ff7f0e; stroke-opacity: 0.15; stroke-width: 0.8; stroke-linejoin: miter"/>
    </g>
    <g id="text_39">
     <!-- Intervalle de confiance -->
     <g style="fill: #262626" transform="translate(97.08875 65.777812) scale(0.09 -0.09)">
      <defs>
       <path id="DejaVuSans-2c" d="M 628 4666 
L 1259 4666 
L 1259 0 
L 628 0 
L 628 4666 
z
" transform="scale(0.015625)"/>
       <path id="DejaVuSans-4f" d="M 603 4863 
L 1178 4863 
L 1178 0 
L 603 0 
L 603 4863 
z
" transform="scale(0.015625)"/>
       <path id="DejaVuSans-13af" d="M 3431 3500 
L 3431 0 
L 2853 0 
L 2853 3053 
L 1275 3053 
L 1275 0 
L 697 0 
L 697 3053 
L 147 3053 
L 147 3500 
L 697 3500 
L 697 3744 
Q 697 4316 967 4589 
Q 1238 4863 1797 4863 
L 2375 4863 
L 2375 4384 
L 1825 4384 
Q 1516 4384 1395 4259 
Q 1275 4134 1275 3809 
L 1275 3500 
L 3431 3500 
z
M 2853 4856 
L 3431 4856 
L 3431 4128 
L 2853 4128 
L 2853 4856 
z
" transform="scale(0.015625)"/>
      </defs>
      <use xlink:href="#DejaVuSans-2c"/>
      <use xlink:href="#DejaVuSans-51" transform="translate(29.5 0)"/>
      <use xlink:href="#DejaVuSans-57" transform="translate(92.875 0)"/>
      <use xlink:href="#DejaVuSans-48" transform="translate(132.078125 0)"/>
      <use xlink:href="#DejaVuSans-55" transform="translate(193.609375 0)"/>
      <use xlink:href="#DejaVuSans-59" transform="translate(234.71875 0)"/>
      <use xlink:href="#DejaVuSans-44" transform="translate(293.90625 0)"/>
      <use xlink:href="#DejaVuSans-4f" transform="translate(355.1875 0)"/>
      <use xlink:href="#DejaVuSans-4f" transform="translate(382.96875 0)"/>
      <use xlink:href="#DejaVuSans-48" transform="translate(410.75 0)"/>
      <use xlink:href="#DejaVuSans-3" transform="translate(472.28125 0)"/>
      <use xlink:href="#DejaVuSans-47" transform="translate(504.0625 0)"/>
      <use xlink:href="#DejaVuSans-48" transform="translate(567.546875 0)"/>
      <use xlink:href="#DejaVuSans-3" transform="translate(629.078125 0)"/>
      <use xlink:href="#DejaVuSans-46" transform="translate(660.859375 0)"/>
      <use xlink:href="#DejaVuSans-52" transform="translate(715.84375 0)"/>
      <use xlink:href="#DejaVuSans-51" transform="translate(777.03125 0)"/>
      <use xlink:href="#DejaVuSans-13af" transform="translate(840.40625 0)"/>
      <use xlink:href="#DejaVuSans-44" transform="translate(903.390625 0)"/>
      <use xlink:href="#DejaVuSans-51" transform="translate(964.671875 0)"/>
      <use xlink:href="#DejaVuSans-46" transform="translate(1028.046875 0)"/>
      <use xlink:href="#DejaVuSans-48" transform="translate(1083.03125 0)"/>
     </g>
    </g>
   </g>
  </g>
 </g>
 <defs>
  <clipPath id="pb8ef8f3f3b">
   <rect x="63.78875" y="23.837812" width="711.0904" height="259.451601"/>
  </clipPath>
 </defs>
</svg>
