<?xml version="1.0" encoding="utf-8" standalone="no"?>
<!DOCTYPE svg PUBLIC "-//W3C//DTD SVG 1.1//EN"
  "http://www.w3.org/Graphics/SVG/1.1/DTD/svg11.dtd">
<svg xmlns:xlink="http://www.w3.org/1999/xlink" width="853.381977pt" height="639.549775pt" viewBox="0 0 853.381977 639.549775" xmlns="http://www.w3.org/2000/svg" version="1.1">
 <metadata>
  <rdf:RDF xmlns:dc="http://purl.org/dc/elements/1.1/" xmlns:cc="http://creativecommons.org/ns#" xmlns:rdf="http://www.w3.org/1999/02/22-rdf-syntax-ns#">
   <cc:Work>
    <dc:type rdf:resource="http://purl.org/dc/dcmitype/StillImage"/>
    <dc:date>2026-07-05T08:52:38.343258</dc:date>
    <dc:format>image/svg+xml</dc:format>
    <dc:creator>
     <cc:Agent>
      <dc:title>Matplotlib v3.11.0, https://matplotlib.org/</dc:title>
     </cc:Agent>
    </dc:creator>
   </cc:Work>
  </rdf:RDF>
 </metadata>
 <defs>
  <style type="text/css">*{stroke-linejoin: round; stroke-linecap: butt}</style>
 </defs>
 <g id="figure_1">
  <g id="patch_1">
   <path d="M 0 639.549775 
L 853.381977 639.549775 
L 853.381977 0 
L 0 0 
z
" style="fill: #ffffff"/>
  </g>
  <g id="axes_1">
   <g id="patch_2">
    <path d="M 43.768828 600.048916 
L 833.46461 600.048916 
L 833.46461 23.837813 
L 43.768828 23.837813 
z
" style="fill: #f5f5f5"/>
   </g>
   <g id="FillBetweenPolyCollection_1">
    <defs>
     <path id="m547c1018cb" d="M 438.616719 -615.711962 
L 438.616719 -327.606411 
L 833.46461 -327.606411 
L 833.46461 -615.711962 
L 833.46461 -615.711962 
L 438.616719 -615.711962 
z
" style="stroke: #d62728; stroke-opacity: 0.07; stroke-width: 0.8"/>
    </defs>
    <g clip-path="url(#p0ea10bf869)">
     <use xlink:href="#m547c1018cb" x="0" y="639.549775" style="fill: #d62728; fill-opacity: 0.07; stroke: #d62728; stroke-opacity: 0.07; stroke-width: 0.8"/>
    </g>
   </g>
   <g id="FillBetweenPolyCollection_2">
    <defs>
     <path id="m4b3697c233" d="M 438.616719 -327.606411 
L 438.616719 -39.500859 
L 833.46461 -39.500859 
L 833.46461 -327.606411 
L 833.46461 -327.606411 
L 438.616719 -327.606411 
z
" style="stroke: #b6d7a8; stroke-opacity: 0.07; stroke-width: 0.8"/>
    </defs>
    <g clip-path="url(#p0ea10bf869)">
     <use xlink:href="#m4b3697c233" x="0" y="639.549775" style="fill: #b6d7a8; fill-opacity: 0.07; stroke: #b6d7a8; stroke-opacity: 0.07; stroke-width: 0.8"/>
    </g>
   </g>
   <g id="FillBetweenPolyCollection_3">
    <defs>
     <path id="m8aa7d96997" d="M 43.768828 -615.711962 
L 43.768828 -327.606411 
L 438.616719 -327.606411 
L 438.616719 -615.711962 
L 438.616719 -615.711962 
L 43.768828 -615.711962 
z
" style="stroke: #f6b26b; stroke-opacity: 0.07; stroke-width: 0.8"/>
    </defs>
    <g clip-path="url(#p0ea10bf869)">
     <use xlink:href="#m8aa7d96997" x="0" y="639.549775" style="fill: #f6b26b; fill-opacity: 0.07; stroke: #f6b26b; stroke-opacity: 0.07; stroke-width: 0.8"/>
    </g>
   </g>
   <g id="FillBetweenPolyCollection_4">
    <defs>
     <path id="m4bb3eba033" d="M 43.768828 -327.606411 
L 43.768828 -39.500859 
L 438.616719 -39.500859 
L 438.616719 -327.606411 
L 438.616719 -327.606411 
L 43.768828 -327.606411 
z
" style="stroke: #006400; stroke-opacity: 0.07; stroke-width: 0.8"/>
    </defs>
    <g clip-path="url(#p0ea10bf869)">
     <use xlink:href="#m4bb3eba033" x="0" y="639.549775" style="fill: #006400; fill-opacity: 0.07; stroke: #006400; stroke-opacity: 0.07; stroke-width: 0.8"/>
    </g>
   </g>
   <g id="matplotlib.axis_1">
    <g id="xtick_1">
     <g id="line2d_1">
      <path d="M 50.547711 600.048916 
L 50.547711 23.837813 
" clip-path="url(#p0ea10bf869)" style="fill: none; stroke-dasharray: 2.96,1.28; stroke-dashoffset: 0; stroke: #cccccc; stroke-width: 0.8"/>
     </g>
     <g id="text_1">
      <!-- -80.0 % -->
      <g style="fill: #262626" transform="translate(33.198804 615.186806) scale(0.09 -0.09)">
       <defs>
        <path id="DejaVuSans-10" d="M 313 2009 
L 1997 2009 
L 1997 1497 
L 313 1497 
L 313 2009 
z
" transform="scale(0.015625)"/>
        <path id="DejaVuSans-1b" d="M 2034 2216 
Q 1584 2216 1326 1975 
Q 1069 1734 1069 1313 
Q 1069 891 1326 650 
Q 1584 409 2034 409 
Q 2484 409 2743 651 
Q 3003 894 3003 1313 
Q 3003 1734 2745 1975 
Q 2488 2216 2034 2216 
z
M 1403 2484 
Q 997 2584 770 2862 
Q 544 3141 544 3541 
Q 544 4100 942 4425 
Q 1341 4750 2034 4750 
Q 2731 4750 3128 4425 
Q 3525 4100 3525 3541 
Q 3525 3141 3298 2862 
Q 3072 2584 2669 2484 
Q 3125 2378 3379 2068 
Q 3634 1759 3634 1313 
Q 3634 634 3220 271 
Q 2806 -91 2034 -91 
Q 1263 -91 848 271 
Q 434 634 434 1313 
Q 434 1759 690 2068 
Q 947 2378 1403 2484 
z
M 1172 3481 
Q 1172 3119 1398 2916 
Q 1625 2713 2034 2713 
Q 2441 2713 2670 2916 
Q 2900 3119 2900 3481 
Q 2900 3844 2670 4047 
Q 2441 4250 2034 4250 
Q 1625 4250 1398 4047 
Q 1172 3844 1172 3481 
z
" transform="scale(0.015625)"/>
        <path id="DejaVuSans-13" d="M 2034 4250 
Q 1547 4250 1301 3770 
Q 1056 3291 1056 2328 
Q 1056 1369 1301 889 
Q 1547 409 2034 409 
Q 2525 409 2770 889 
Q 3016 1369 3016 2328 
Q 3016 3291 2770 3770 
Q 2525 4250 2034 4250 
z
M 2034 4750 
Q 2819 4750 3233 4129 
Q 3647 3509 3647 2328 
Q 3647 1150 3233 529 
Q 2819 -91 2034 -91 
Q 1250 -91 836 529 
Q 422 1150 422 2328 
Q 422 3509 836 4129 
Q 1250 4750 2034 4750 
z
" transform="scale(0.015625)"/>
        <path id="DejaVuSans-11" d="M 684 794 
L 1344 794 
L 1344 0 
L 684 0 
L 684 794 
z
" transform="scale(0.015625)"/>
        <path id="DejaVuSans-3" transform="scale(0.015625)"/>
        <path id="DejaVuSans-8" d="M 4653 2053 
Q 4381 2053 4226 1822 
Q 4072 1591 4072 1178 
Q 4072 772 4226 539 
Q 4381 306 4653 306 
Q 4919 306 5073 539 
Q 5228 772 5228 1178 
Q 5228 1588 5073 1820 
Q 4919 2053 4653 2053 
z
M 4653 2450 
Q 5147 2450 5437 2106 
Q 5728 1763 5728 1178 
Q 5728 594 5436 251 
Q 5144 -91 4653 -91 
Q 4153 -91 3862 251 
Q 3572 594 3572 1178 
Q 3572 1766 3864 2108 
Q 4156 2450 4653 2450 
z
M 1428 4353 
Q 1159 4353 1004 4120 
Q 850 3888 850 3481 
Q 850 3069 1003 2837 
Q 1156 2606 1428 2606 
Q 1700 2606 1854 2837 
Q 2009 3069 2009 3481 
Q 2009 3884 1853 4118 
Q 1697 4353 1428 4353 
z
M 4250 4750 
L 4750 4750 
L 1831 -91 
L 1331 -91 
L 4250 4750 
z
M 1428 4750 
Q 1922 4750 2215 4408 
Q 2509 4066 2509 3481 
Q 2509 2891 2217 2550 
Q 1925 2209 1428 2209 
Q 931 2209 642 2551 
Q 353 2894 353 3481 
Q 353 4063 643 4406 
Q 934 4750 1428 4750 
z
" transform="scale(0.015625)"/>
       </defs>
       <use xlink:href="#DejaVuSans-10"/>
       <use xlink:href="#DejaVuSans-1b" transform="translate(36.078125 0)"/>
       <use xlink:href="#DejaVuSans-13" transform="translate(99.703125 0)"/>
       <use xlink:href="#DejaVuSans-11" transform="translate(163.328125 0)"/>
       <use xlink:href="#DejaVuSans-13" transform="translate(195.109375 0)"/>
       <use xlink:href="#DejaVuSans-3" transform="translate(258.734375 0)"/>
       <use xlink:href="#DejaVuSans-8" transform="translate(290.515625 0)"/>
      </g>
     </g>
    </g>
    <g id="xtick_2">
     <g id="line2d_2">
      <path d="M 147.564963 600.048916 
L 147.564963 23.837813 
" clip-path="url(#p0ea10bf869)" style="fill: none; stroke-dasharray: 2.96,1.28; stroke-dashoffset: 0; stroke: #cccccc; stroke-width: 0.8"/>
     </g>
     <g id="text_2">
      <!-- -60.0 % -->
      <g style="fill: #262626" transform="translate(130.216056 615.186806) scale(0.09 -0.09)">
       <defs>
        <path id="DejaVuSans-19" d="M 2113 2584 
Q 1688 2584 1439 2293 
Q 1191 2003 1191 1497 
Q 1191 994 1439 701 
Q 1688 409 2113 409 
Q 2538 409 2786 701 
Q 3034 994 3034 1497 
Q 3034 2003 2786 2293 
Q 2538 2584 2113 2584 
z
M 3366 4563 
L 3366 3988 
Q 3128 4100 2886 4159 
Q 2644 4219 2406 4219 
Q 1781 4219 1451 3797 
Q 1122 3375 1075 2522 
Q 1259 2794 1537 2939 
Q 1816 3084 2150 3084 
Q 2853 3084 3261 2657 
Q 3669 2231 3669 1497 
Q 3669 778 3244 343 
Q 2819 -91 2113 -91 
Q 1303 -91 875 529 
Q 447 1150 447 2328 
Q 447 3434 972 4092 
Q 1497 4750 2381 4750 
Q 2619 4750 2861 4703 
Q 3103 4656 3366 4563 
z
" transform="scale(0.015625)"/>
       </defs>
       <use xlink:href="#DejaVuSans-10"/>
       <use xlink:href="#DejaVuSans-19" transform="translate(36.078125 0)"/>
       <use xlink:href="#DejaVuSans-13" transform="translate(99.703125 0)"/>
       <use xlink:href="#DejaVuSans-11" transform="translate(163.328125 0)"/>
       <use xlink:href="#DejaVuSans-13" transform="translate(195.109375 0)"/>
       <use xlink:href="#DejaVuSans-3" transform="translate(258.734375 0)"/>
       <use xlink:href="#DejaVuSans-8" transform="translate(290.515625 0)"/>
      </g>
     </g>
    </g>
    <g id="xtick_3">
     <g id="line2d_3">
      <path d="M 244.582215 600.048916 
L 244.582215 23.837813 
" clip-path="url(#p0ea10bf869)" style="fill: none; stroke-dasharray: 2.96,1.28; stroke-dashoffset: 0; stroke: #cccccc; stroke-width: 0.8"/>
     </g>
     <g id="text_3">
      <!-- -40.0 % -->
      <g style="fill: #262626" transform="translate(227.233309 615.186806) scale(0.09 -0.09)">
       <defs>
        <path id="DejaVuSans-17" d="M 2419 4116 
L 825 1625 
L 2419 1625 
L 2419 4116 
z
M 2253 4666 
L 3047 4666 
L 3047 1625 
L 3713 1625 
L 3713 1100 
L 3047 1100 
L 3047 0 
L 2419 0 
L 2419 1100 
L 313 1100 
L 313 1709 
L 2253 4666 
z
" transform="scale(0.015625)"/>
       </defs>
       <use xlink:href="#DejaVuSans-10"/>
       <use xlink:href="#DejaVuSans-17" transform="translate(36.078125 0)"/>
       <use xlink:href="#DejaVuSans-13" transform="translate(99.703125 0)"/>
       <use xlink:href="#DejaVuSans-11" transform="translate(163.328125 0)"/>
       <use xlink:href="#DejaVuSans-13" transform="translate(195.109375 0)"/>
       <use xlink:href="#DejaVuSans-3" transform="translate(258.734375 0)"/>
       <use xlink:href="#DejaVuSans-8" transform="translate(290.515625 0)"/>
      </g>
     </g>
    </g>
    <g id="xtick_4">
     <g id="line2d_4">
      <path d="M 341.599467 600.048916 
L 341.599467 23.837813 
" clip-path="url(#p0ea10bf869)" style="fill: none; stroke-dasharray: 2.96,1.28; stroke-dashoffset: 0; stroke: #cccccc; stroke-width: 0.8"/>
     </g>
     <g id="text_4">
      <!-- -20.0 % -->
      <g style="fill: #262626" transform="translate(324.250561 615.186806) scale(0.09 -0.09)">
       <defs>
        <path id="DejaVuSans-15" d="M 1228 531 
L 3431 531 
L 3431 0 
L 469 0 
L 469 531 
Q 828 903 1448 1529 
Q 2069 2156 2228 2338 
Q 2531 2678 2651 2914 
Q 2772 3150 2772 3378 
Q 2772 3750 2511 3984 
Q 2250 4219 1831 4219 
Q 1534 4219 1204 4116 
Q 875 4013 500 3803 
L 500 4441 
Q 881 4594 1212 4672 
Q 1544 4750 1819 4750 
Q 2544 4750 2975 4387 
Q 3406 4025 3406 3419 
Q 3406 3131 3298 2873 
Q 3191 2616 2906 2266 
Q 2828 2175 2409 1742 
Q 1991 1309 1228 531 
z
" transform="scale(0.015625)"/>
       </defs>
       <use xlink:href="#DejaVuSans-10"/>
       <use xlink:href="#DejaVuSans-15" transform="translate(36.078125 0)"/>
       <use xlink:href="#DejaVuSans-13" transform="translate(99.703125 0)"/>
       <use xlink:href="#DejaVuSans-11" transform="translate(163.328125 0)"/>
       <use xlink:href="#DejaVuSans-13" transform="translate(195.109375 0)"/>
       <use xlink:href="#DejaVuSans-3" transform="translate(258.734375 0)"/>
       <use xlink:href="#DejaVuSans-8" transform="translate(290.515625 0)"/>
      </g>
     </g>
    </g>
    <g id="xtick_5">
     <g id="line2d_5">
      <path d="M 438.616719 600.048916 
L 438.616719 23.837813 
" clip-path="url(#p0ea10bf869)" style="fill: none; stroke-dasharray: 2.96,1.28; stroke-dashoffset: 0; stroke: #cccccc; stroke-width: 0.8"/>
     </g>
     <g id="text_5">
      <!-- +0.0 % -->
      <g style="fill: #262626" transform="translate(421.983594 615.186806) scale(0.09 -0.09)">
       <defs>
        <path id="DejaVuSans-e" d="M 2944 4013 
L 2944 2272 
L 4684 2272 
L 4684 1741 
L 2944 1741 
L 2944 0 
L 2419 0 
L 2419 1741 
L 678 1741 
L 678 2272 
L 2419 2272 
L 2419 4013 
L 2944 4013 
z
" transform="scale(0.015625)"/>
       </defs>
       <use xlink:href="#DejaVuSans-e"/>
       <use xlink:href="#DejaVuSans-13" transform="translate(83.796875 0)"/>
       <use xlink:href="#DejaVuSans-11" transform="translate(147.421875 0)"/>
       <use xlink:href="#DejaVuSans-13" transform="translate(179.203125 0)"/>
       <use xlink:href="#DejaVuSans-3" transform="translate(242.828125 0)"/>
       <use xlink:href="#DejaVuSans-8" transform="translate(274.609375 0)"/>
      </g>
     </g>
    </g>
    <g id="xtick_6">
     <g id="line2d_6">
      <path d="M 535.633971 600.048916 
L 535.633971 23.837813 
" clip-path="url(#p0ea10bf869)" style="fill: none; stroke-dasharray: 2.96,1.28; stroke-dashoffset: 0; stroke: #cccccc; stroke-width: 0.8"/>
     </g>
     <g id="text_6">
      <!-- +20.0 % -->
      <g style="fill: #262626" transform="translate(516.137721 615.186806) scale(0.09 -0.09)">
       <use xlink:href="#DejaVuSans-e"/>
       <use xlink:href="#DejaVuSans-15" transform="translate(83.796875 0)"/>
       <use xlink:href="#DejaVuSans-13" transform="translate(147.421875 0)"/>
       <use xlink:href="#DejaVuSans-11" transform="translate(211.046875 0)"/>
       <use xlink:href="#DejaVuSans-13" transform="translate(242.828125 0)"/>
       <use xlink:href="#DejaVuSans-3" transform="translate(306.453125 0)"/>
       <use xlink:href="#DejaVuSans-8" transform="translate(338.234375 0)"/>
      </g>
     </g>
    </g>
    <g id="xtick_7">
     <g id="line2d_7">
      <path d="M 632.651223 600.048916 
L 632.651223 23.837813 
" clip-path="url(#p0ea10bf869)" style="fill: none; stroke-dasharray: 2.96,1.28; stroke-dashoffset: 0; stroke: #cccccc; stroke-width: 0.8"/>
     </g>
     <g id="text_7">
      <!-- +40.0 % -->
      <g style="fill: #262626" transform="translate(613.154973 615.186806) scale(0.09 -0.09)">
       <use xlink:href="#DejaVuSans-e"/>
       <use xlink:href="#DejaVuSans-17" transform="translate(83.796875 0)"/>
       <use xlink:href="#DejaVuSans-13" transform="translate(147.421875 0)"/>
       <use xlink:href="#DejaVuSans-11" transform="translate(211.046875 0)"/>
       <use xlink:href="#DejaVuSans-13" transform="translate(242.828125 0)"/>
       <use xlink:href="#DejaVuSans-3" transform="translate(306.453125 0)"/>
       <use xlink:href="#DejaVuSans-8" transform="translate(338.234375 0)"/>
      </g>
     </g>
    </g>
    <g id="xtick_8">
     <g id="line2d_8">
      <path d="M 729.668475 600.048916 
L 729.668475 23.837813 
" clip-path="url(#p0ea10bf869)" style="fill: none; stroke-dasharray: 2.96,1.28; stroke-dashoffset: 0; stroke: #cccccc; stroke-width: 0.8"/>
     </g>
     <g id="text_8">
      <!-- +60.0 % -->
      <g style="fill: #262626" transform="translate(710.172225 615.186806) scale(0.09 -0.09)">
       <use xlink:href="#DejaVuSans-e"/>
       <use xlink:href="#DejaVuSans-19" transform="translate(83.796875 0)"/>
       <use xlink:href="#DejaVuSans-13" transform="translate(147.421875 0)"/>
       <use xlink:href="#DejaVuSans-11" transform="translate(211.046875 0)"/>
       <use xlink:href="#DejaVuSans-13" transform="translate(242.828125 0)"/>
       <use xlink:href="#DejaVuSans-3" transform="translate(306.453125 0)"/>
       <use xlink:href="#DejaVuSans-8" transform="translate(338.234375 0)"/>
      </g>
     </g>
    </g>
    <g id="xtick_9">
     <g id="line2d_9">
      <path d="M 826.685727 600.048916 
L 826.685727 23.837813 
" clip-path="url(#p0ea10bf869)" style="fill: none; stroke-dasharray: 2.96,1.28; stroke-dashoffset: 0; stroke: #cccccc; stroke-width: 0.8"/>
     </g>
     <g id="text_9">
      <!-- +80.0 % -->
      <g style="fill: #262626" transform="translate(807.189477 615.186806) scale(0.09 -0.09)">
       <use xlink:href="#DejaVuSans-e"/>
       <use xlink:href="#DejaVuSans-1b" transform="translate(83.796875 0)"/>
       <use xlink:href="#DejaVuSans-13" transform="translate(147.421875 0)"/>
       <use xlink:href="#DejaVuSans-11" transform="translate(211.046875 0)"/>
       <use xlink:href="#DejaVuSans-13" transform="translate(242.828125 0)"/>
       <use xlink:href="#DejaVuSans-3" transform="translate(306.453125 0)"/>
       <use xlink:href="#DejaVuSans-8" transform="translate(338.234375 0)"/>
      </g>
     </g>
    </g>
    <g id="text_10">
     <!-- Momentum prix 3 mois (%) -->
     <g style="fill: #262626" transform="translate(363.619063 629.707197) scale(0.11 -0.11)">
      <defs>
       <path id="DejaVuSans-30" d="M 628 4666 
L 1569 4666 
L 2759 1491 
L 3956 4666 
L 4897 4666 
L 4897 0 
L 4281 0 
L 4281 4097 
L 3078 897 
L 2444 897 
L 1241 4097 
L 1241 0 
L 628 0 
L 628 4666 
z
" transform="scale(0.015625)"/>
       <path id="DejaVuSans-52" d="M 1959 3097 
Q 1497 3097 1228 2736 
Q 959 2375 959 1747 
Q 959 1119 1226 758 
Q 1494 397 1959 397 
Q 2419 397 2687 759 
Q 2956 1122 2956 1747 
Q 2956 2369 2687 2733 
Q 2419 3097 1959 3097 
z
M 1959 3584 
Q 2709 3584 3137 3096 
Q 3566 2609 3566 1747 
Q 3566 888 3137 398 
Q 2709 -91 1959 -91 
Q 1206 -91 779 398 
Q 353 888 353 1747 
Q 353 2609 779 3096 
Q 1206 3584 1959 3584 
z
" transform="scale(0.015625)"/>
       <path id="DejaVuSans-50" d="M 3328 2828 
Q 3544 3216 3844 3400 
Q 4144 3584 4550 3584 
Q 5097 3584 5394 3201 
Q 5691 2819 5691 2113 
L 5691 0 
L 5113 0 
L 5113 2094 
Q 5113 2597 4934 2840 
Q 4756 3084 4391 3084 
Q 3944 3084 3684 2787 
Q 3425 2491 3425 1978 
L 3425 0 
L 2847 0 
L 2847 2094 
Q 2847 2600 2669 2842 
Q 2491 3084 2119 3084 
Q 1678 3084 1418 2786 
Q 1159 2488 1159 1978 
L 1159 0 
L 581 0 
L 581 3500 
L 1159 3500 
L 1159 2956 
Q 1356 3278 1631 3431 
Q 1906 3584 2284 3584 
Q 2666 3584 2933 3390 
Q 3200 3197 3328 2828 
z
" transform="scale(0.015625)"/>
       <path id="DejaVuSans-48" d="M 3597 1894 
L 3597 1613 
L 953 1613 
Q 991 1019 1311 708 
Q 1631 397 2203 397 
Q 2534 397 2845 478 
Q 3156 559 3463 722 
L 3463 178 
Q 3153 47 2828 -22 
Q 2503 -91 2169 -91 
Q 1331 -91 842 396 
Q 353 884 353 1716 
Q 353 2575 817 3079 
Q 1281 3584 2069 3584 
Q 2775 3584 3186 3129 
Q 3597 2675 3597 1894 
z
M 3022 2063 
Q 3016 2534 2758 2815 
Q 2500 3097 2075 3097 
Q 1594 3097 1305 2825 
Q 1016 2553 972 2059 
L 3022 2063 
z
" transform="scale(0.015625)"/>
       <path id="DejaVuSans-51" d="M 3513 2113 
L 3513 0 
L 2938 0 
L 2938 2094 
Q 2938 2591 2744 2837 
Q 2550 3084 2163 3084 
Q 1697 3084 1428 2787 
Q 1159 2491 1159 1978 
L 1159 0 
L 581 0 
L 581 3500 
L 1159 3500 
L 1159 2956 
Q 1366 3272 1645 3428 
Q 1925 3584 2291 3584 
Q 2894 3584 3203 3211 
Q 3513 2838 3513 2113 
z
" transform="scale(0.015625)"/>
       <path id="DejaVuSans-57" d="M 1172 4494 
L 1172 3500 
L 2356 3500 
L 2356 3053 
L 1172 3053 
L 1172 1153 
Q 1172 725 1289 603 
Q 1406 481 1766 481 
L 2356 481 
L 2356 0 
L 1766 0 
Q 1100 0 847 248 
Q 594 497 594 1153 
L 594 3053 
L 172 3053 
L 172 3500 
L 594 3500 
L 594 4494 
L 1172 4494 
z
" transform="scale(0.015625)"/>
       <path id="DejaVuSans-58" d="M 544 1381 
L 544 3500 
L 1119 3500 
L 1119 1403 
Q 1119 906 1312 657 
Q 1506 409 1894 409 
Q 2359 409 2629 706 
Q 2900 1003 2900 1516 
L 2900 3500 
L 3475 3500 
L 3475 0 
L 2900 0 
L 2900 538 
Q 2691 219 2414 64 
Q 2138 -91 1772 -91 
Q 1169 -91 856 284 
Q 544 659 544 1381 
z
M 1991 3584 
L 1991 3584 
z
" transform="scale(0.015625)"/>
       <path id="DejaVuSans-53" d="M 1159 525 
L 1159 -1331 
L 581 -1331 
L 581 3500 
L 1159 3500 
L 1159 2969 
Q 1341 3281 1617 3432 
Q 1894 3584 2278 3584 
Q 2916 3584 3314 3078 
Q 3713 2572 3713 1747 
Q 3713 922 3314 415 
Q 2916 -91 2278 -91 
Q 1894 -91 1617 61 
Q 1341 213 1159 525 
z
M 3116 1747 
Q 3116 2381 2855 2742 
Q 2594 3103 2138 3103 
Q 1681 3103 1420 2742 
Q 1159 2381 1159 1747 
Q 1159 1113 1420 752 
Q 1681 391 2138 391 
Q 2594 391 2855 752 
Q 3116 1113 3116 1747 
z
" transform="scale(0.015625)"/>
       <path id="DejaVuSans-55" d="M 2631 2963 
Q 2534 3019 2420 3045 
Q 2306 3072 2169 3072 
Q 1681 3072 1420 2755 
Q 1159 2438 1159 1844 
L 1159 0 
L 581 0 
L 581 3500 
L 1159 3500 
L 1159 2956 
Q 1341 3275 1631 3429 
Q 1922 3584 2338 3584 
Q 2397 3584 2469 3576 
Q 2541 3569 2628 3553 
L 2631 2963 
z
" transform="scale(0.015625)"/>
       <path id="DejaVuSans-4c" d="M 603 3500 
L 1178 3500 
L 1178 0 
L 603 0 
L 603 3500 
z
M 603 4863 
L 1178 4863 
L 1178 4134 
L 603 4134 
L 603 4863 
z
" transform="scale(0.015625)"/>
       <path id="DejaVuSans-5b" d="M 3513 3500 
L 2247 1797 
L 3578 0 
L 2900 0 
L 1881 1375 
L 863 0 
L 184 0 
L 1544 1831 
L 300 3500 
L 978 3500 
L 1906 2253 
L 2834 3500 
L 3513 3500 
z
" transform="scale(0.015625)"/>
       <path id="DejaVuSans-16" d="M 2597 2516 
Q 3050 2419 3304 2112 
Q 3559 1806 3559 1356 
Q 3559 666 3084 287 
Q 2609 -91 1734 -91 
Q 1441 -91 1130 -33 
Q 819 25 488 141 
L 488 750 
Q 750 597 1062 519 
Q 1375 441 1716 441 
Q 2309 441 2620 675 
Q 2931 909 2931 1356 
Q 2931 1769 2642 2001 
Q 2353 2234 1838 2234 
L 1294 2234 
L 1294 2753 
L 1863 2753 
Q 2328 2753 2575 2939 
Q 2822 3125 2822 3475 
Q 2822 3834 2567 4026 
Q 2313 4219 1838 4219 
Q 1578 4219 1281 4162 
Q 984 4106 628 3988 
L 628 4550 
Q 988 4650 1302 4700 
Q 1616 4750 1894 4750 
Q 2613 4750 3031 4423 
Q 3450 4097 3450 3541 
Q 3450 3153 3228 2886 
Q 3006 2619 2597 2516 
z
" transform="scale(0.015625)"/>
       <path id="DejaVuSans-56" d="M 2834 3397 
L 2834 2853 
Q 2591 2978 2328 3040 
Q 2066 3103 1784 3103 
Q 1356 3103 1142 2972 
Q 928 2841 928 2578 
Q 928 2378 1081 2264 
Q 1234 2150 1697 2047 
L 1894 2003 
Q 2506 1872 2764 1633 
Q 3022 1394 3022 966 
Q 3022 478 2636 193 
Q 2250 -91 1575 -91 
Q 1294 -91 989 -36 
Q 684 19 347 128 
L 347 722 
Q 666 556 975 473 
Q 1284 391 1588 391 
Q 1994 391 2212 530 
Q 2431 669 2431 922 
Q 2431 1156 2273 1281 
Q 2116 1406 1581 1522 
L 1381 1569 
Q 847 1681 609 1914 
Q 372 2147 372 2553 
Q 372 3047 722 3315 
Q 1072 3584 1716 3584 
Q 2034 3584 2315 3537 
Q 2597 3491 2834 3397 
z
" transform="scale(0.015625)"/>
       <path id="DejaVuSans-b" d="M 1984 4856 
Q 1566 4138 1362 3434 
Q 1159 2731 1159 2009 
Q 1159 1288 1364 580 
Q 1569 -128 1984 -844 
L 1484 -844 
Q 1016 -109 783 600 
Q 550 1309 550 2009 
Q 550 2706 781 3412 
Q 1013 4119 1484 4856 
L 1984 4856 
z
" transform="scale(0.015625)"/>
       <path id="DejaVuSans-c" d="M 513 4856 
L 1013 4856 
Q 1481 4119 1714 3412 
Q 1947 2706 1947 2009 
Q 1947 1309 1714 600 
Q 1481 -109 1013 -844 
L 513 -844 
Q 928 -128 1133 580 
Q 1338 1288 1338 2009 
Q 1338 2731 1133 3434 
Q 928 4138 513 4856 
z
" transform="scale(0.015625)"/>
      </defs>
      <use xlink:href="#DejaVuSans-30"/>
      <use xlink:href="#DejaVuSans-52" transform="translate(86.28125 0)"/>
      <use xlink:href="#DejaVuSans-50" transform="translate(147.46875 0)"/>
      <use xlink:href="#DejaVuSans-48" transform="translate(244.875 0)"/>
      <use xlink:href="#DejaVuSans-51" transform="translate(306.40625 0)"/>
      <use xlink:href="#DejaVuSans-57" transform="translate(369.78125 0)"/>
      <use xlink:href="#DejaVuSans-58" transform="translate(408.984375 0)"/>
      <use xlink:href="#DejaVuSans-50" transform="translate(472.359375 0)"/>
      <use xlink:href="#DejaVuSans-3" transform="translate(569.765625 0)"/>
      <use xlink:href="#DejaVuSans-53" transform="translate(601.546875 0)"/>
      <use xlink:href="#DejaVuSans-55" transform="translate(665.03125 0)"/>
      <use xlink:href="#DejaVuSans-4c" transform="translate(706.140625 0)"/>
      <use xlink:href="#DejaVuSans-5b" transform="translate(733.921875 0)"/>
      <use xlink:href="#DejaVuSans-3" transform="translate(793.109375 0)"/>
      <use xlink:href="#DejaVuSans-16" transform="translate(824.890625 0)"/>
      <use xlink:href="#DejaVuSans-3" transform="translate(888.515625 0)"/>
      <use xlink:href="#DejaVuSans-50" transform="translate(920.296875 0)"/>
      <use xlink:href="#DejaVuSans-52" transform="translate(1017.703125 0)"/>
      <use xlink:href="#DejaVuSans-4c" transform="translate(1078.890625 0)"/>
      <use xlink:href="#DejaVuSans-56" transform="translate(1106.671875 0)"/>
      <use xlink:href="#DejaVuSans-3" transform="translate(1158.765625 0)"/>
      <use xlink:href="#DejaVuSans-b" transform="translate(1190.546875 0)"/>
      <use xlink:href="#DejaVuSans-8" transform="translate(1229.5625 0)"/>
      <use xlink:href="#DejaVuSans-c" transform="translate(1324.578125 0)"/>
     </g>
    </g>
   </g>
   <g id="matplotlib.axis_2">
    <g id="ytick_1">
     <g id="line2d_10">
      <path d="M 43.768828 547.242647 
L 833.46461 547.242647 
" clip-path="url(#p0ea10bf869)" style="fill: none; stroke-dasharray: 2.96,1.28; stroke-dashoffset: 0; stroke: #cccccc; stroke-width: 0.8"/>
     </g>
     <g id="text_11">
      <!-- −4 -->
      <g style="fill: #262626" transform="translate(22.200859 550.661592) scale(0.09 -0.09)">
       <defs>
        <path id="DejaVuSans-c9c" d="M 678 2272 
L 4684 2272 
L 4684 1741 
L 678 1741 
L 678 2272 
z
" transform="scale(0.015625)"/>
       </defs>
       <use xlink:href="#DejaVuSans-c9c"/>
       <use xlink:href="#DejaVuSans-17" transform="translate(83.796875 0)"/>
      </g>
     </g>
    </g>
    <g id="ytick_2">
     <g id="line2d_11">
      <path d="M 43.768828 442.665188 
L 833.46461 442.665188 
" clip-path="url(#p0ea10bf869)" style="fill: none; stroke-dasharray: 2.96,1.28; stroke-dashoffset: 0; stroke: #cccccc; stroke-width: 0.8"/>
     </g>
     <g id="text_12">
      <!-- −2 -->
      <g style="fill: #262626" transform="translate(22.200859 446.084133) scale(0.09 -0.09)">
       <use xlink:href="#DejaVuSans-c9c"/>
       <use xlink:href="#DejaVuSans-15" transform="translate(83.796875 0)"/>
      </g>
     </g>
    </g>
    <g id="ytick_3">
     <g id="line2d_12">
      <path d="M 43.768828 338.087729 
L 833.46461 338.087729 
" clip-path="url(#p0ea10bf869)" style="fill: none; stroke-dasharray: 2.96,1.28; stroke-dashoffset: 0; stroke: #cccccc; stroke-width: 0.8"/>
     </g>
     <g id="text_13">
      <!-- 0 -->
      <g style="fill: #262626" transform="translate(29.742578 341.506674) scale(0.09 -0.09)">
       <use xlink:href="#DejaVuSans-13"/>
      </g>
     </g>
    </g>
    <g id="ytick_4">
     <g id="line2d_13">
      <path d="M 43.768828 233.51027 
L 833.46461 233.51027 
" clip-path="url(#p0ea10bf869)" style="fill: none; stroke-dasharray: 2.96,1.28; stroke-dashoffset: 0; stroke: #cccccc; stroke-width: 0.8"/>
     </g>
     <g id="text_14">
      <!-- 2 -->
      <g style="fill: #262626" transform="translate(29.742578 236.929215) scale(0.09 -0.09)">
       <use xlink:href="#DejaVuSans-15"/>
      </g>
     </g>
    </g>
    <g id="ytick_5">
     <g id="line2d_14">
      <path d="M 43.768828 128.932811 
L 833.46461 128.932811 
" clip-path="url(#p0ea10bf869)" style="fill: none; stroke-dasharray: 2.96,1.28; stroke-dashoffset: 0; stroke: #cccccc; stroke-width: 0.8"/>
     </g>
     <g id="text_15">
      <!-- 4 -->
      <g style="fill: #262626" transform="translate(29.742578 132.351756) scale(0.09 -0.09)">
       <use xlink:href="#DejaVuSans-17"/>
      </g>
     </g>
    </g>
    <g id="ytick_6">
     <g id="line2d_15">
      <path d="M 43.768828 24.355352 
L 833.46461 24.355352 
" clip-path="url(#p0ea10bf869)" style="fill: none; stroke-dasharray: 2.96,1.28; stroke-dashoffset: 0; stroke: #cccccc; stroke-width: 0.8"/>
     </g>
     <g id="text_16">
      <!-- 6 -->
      <g style="fill: #262626" transform="translate(29.742578 27.774297) scale(0.09 -0.09)">
       <use xlink:href="#DejaVuSans-19"/>
      </g>
     </g>
    </g>
    <g id="text_17">
     <!-- Volume z-score -->
     <g style="fill: #262626" transform="translate(15.558281 353.796645) rotate(-90) scale(0.11 -0.11)">
      <defs>
       <path id="DejaVuSans-39" d="M 1831 0 
L 50 4666 
L 709 4666 
L 2188 738 
L 3669 4666 
L 4325 4666 
L 2547 0 
L 1831 0 
z
" transform="scale(0.015625)"/>
       <path id="DejaVuSans-4f" d="M 603 4863 
L 1178 4863 
L 1178 0 
L 603 0 
L 603 4863 
z
" transform="scale(0.015625)"/>
       <path id="DejaVuSans-5d" d="M 353 3500 
L 3084 3500 
L 3084 2975 
L 922 459 
L 3084 459 
L 3084 0 
L 275 0 
L 275 525 
L 2438 3041 
L 353 3041 
L 353 3500 
z
" transform="scale(0.015625)"/>
       <path id="DejaVuSans-46" d="M 3122 3366 
L 3122 2828 
Q 2878 2963 2633 3030 
Q 2388 3097 2138 3097 
Q 1578 3097 1268 2742 
Q 959 2388 959 1747 
Q 959 1106 1268 751 
Q 1578 397 2138 397 
Q 2388 397 2633 464 
Q 2878 531 3122 666 
L 3122 134 
Q 2881 22 2623 -34 
Q 2366 -91 2075 -91 
Q 1284 -91 818 406 
Q 353 903 353 1747 
Q 353 2603 823 3093 
Q 1294 3584 2113 3584 
Q 2378 3584 2631 3529 
Q 2884 3475 3122 3366 
z
" transform="scale(0.015625)"/>
      </defs>
      <use xlink:href="#DejaVuSans-39"/>
      <use xlink:href="#DejaVuSans-52" transform="translate(60.640625 0)"/>
      <use xlink:href="#DejaVuSans-4f" transform="translate(121.828125 0)"/>
      <use xlink:href="#DejaVuSans-58" transform="translate(149.609375 0)"/>
      <use xlink:href="#DejaVuSans-50" transform="translate(212.984375 0)"/>
      <use xlink:href="#DejaVuSans-48" transform="translate(310.390625 0)"/>
      <use xlink:href="#DejaVuSans-3" transform="translate(371.921875 0)"/>
      <use xlink:href="#DejaVuSans-5d" transform="translate(403.703125 0)"/>
      <use xlink:href="#DejaVuSans-10" transform="translate(456.1875 0)"/>
      <use xlink:href="#DejaVuSans-56" transform="translate(492.265625 0)"/>
      <use xlink:href="#DejaVuSans-46" transform="translate(544.359375 0)"/>
      <use xlink:href="#DejaVuSans-52" transform="translate(599.34375 0)"/>
      <use xlink:href="#DejaVuSans-55" transform="translate(660.53125 0)"/>
      <use xlink:href="#DejaVuSans-48" transform="translate(699.4375 0)"/>
     </g>
    </g>
   </g>
   <g id="patch_3">
    <path d="M 43.768828 311.943364 
L 833.46461 311.943364 
L 833.46461 23.837813 
L 43.768828 23.837813 
L 43.768828 311.943364 
z
" clip-path="url(#p0ea10bf869)" style="fill: none; opacity: 0"/>
   </g>
   <g id="line2d_16">
    <path d="M 438.616719 600.048916 
L 438.616719 23.837813 
" clip-path="url(#p0ea10bf869)" style="fill: none; stroke-dasharray: 3.7,1.6; stroke-dashoffset: 0; stroke: #7f7f7f; stroke-opacity: 0.6"/>
   </g>
   <g id="line2d_17">
    <path d="M 43.768828 311.943364 
L 833.46461 311.943364 
" clip-path="url(#p0ea10bf869)" style="fill: none; stroke-dasharray: 3.7,1.6; stroke-dashoffset: 0; stroke: #7f7f7f; stroke-opacity: 0.6"/>
   </g>
   <g id="text_18">
    <!-- BOOM -->
    <g style="fill: #d62728; opacity: 0.35" transform="translate(636.76595 98.721622) scale(0.11 -0.11)">
     <defs>
      <path id="DejaVuSans-Bold-25" d="M 2456 2859 
Q 2741 2859 2887 2984 
Q 3034 3109 3034 3353 
Q 3034 3594 2887 3720 
Q 2741 3847 2456 3847 
L 1791 3847 
L 1791 2859 
L 2456 2859 
z
M 2497 819 
Q 2859 819 3042 972 
Q 3225 1125 3225 1434 
Q 3225 1738 3044 1889 
Q 2863 2041 2497 2041 
L 1791 2041 
L 1791 819 
L 2497 819 
z
M 3616 2497 
Q 4003 2384 4215 2081 
Q 4428 1778 4428 1338 
Q 4428 663 3972 331 
Q 3516 0 2584 0 
L 588 0 
L 588 4666 
L 2394 4666 
Q 3366 4666 3802 4372 
Q 4238 4078 4238 3431 
Q 4238 3091 4078 2852 
Q 3919 2613 3616 2497 
z
" transform="scale(0.015625)"/>
      <path id="DejaVuSans-Bold-32" d="M 2719 3878 
Q 2169 3878 1866 3472 
Q 1563 3066 1563 2328 
Q 1563 1594 1866 1187 
Q 2169 781 2719 781 
Q 3272 781 3575 1187 
Q 3878 1594 3878 2328 
Q 3878 3066 3575 3472 
Q 3272 3878 2719 3878 
z
M 2719 4750 
Q 3844 4750 4481 4106 
Q 5119 3463 5119 2328 
Q 5119 1197 4481 553 
Q 3844 -91 2719 -91 
Q 1597 -91 958 553 
Q 319 1197 319 2328 
Q 319 3463 958 4106 
Q 1597 4750 2719 4750 
z
" transform="scale(0.015625)"/>
      <path id="DejaVuSans-Bold-30" d="M 588 4666 
L 2119 4666 
L 3181 2169 
L 4250 4666 
L 5778 4666 
L 5778 0 
L 4641 0 
L 4641 3413 
L 3566 897 
L 2803 897 
L 1728 3413 
L 1728 0 
L 588 0 
L 588 4666 
z
" transform="scale(0.015625)"/>
     </defs>
     <use xlink:href="#DejaVuSans-Bold-25"/>
     <use xlink:href="#DejaVuSans-Bold-32" transform="translate(76.21875 0)"/>
     <use xlink:href="#DejaVuSans-Bold-32" transform="translate(161.234375 0)"/>
     <use xlink:href="#DejaVuSans-Bold-30" transform="translate(246.25 0)"/>
    </g>
   </g>
   <g id="text_19">
    <!-- BULL -->
    <g style="fill: #38761d; opacity: 0.35" transform="translate(640.115793 473.258839) scale(0.11 -0.11)">
     <defs>
      <path id="DejaVuSans-Bold-38" d="M 588 4666 
L 1791 4666 
L 1791 1869 
Q 1791 1291 1980 1042 
Q 2169 794 2597 794 
Q 3028 794 3217 1042 
Q 3406 1291 3406 1869 
L 3406 4666 
L 4609 4666 
L 4609 1869 
Q 4609 878 4112 393 
Q 3616 -91 2597 -91 
Q 1581 -91 1084 393 
Q 588 878 588 1869 
L 588 4666 
z
" transform="scale(0.015625)"/>
      <path id="DejaVuSans-Bold-2f" d="M 588 4666 
L 1791 4666 
L 1791 909 
L 3903 909 
L 3903 0 
L 588 0 
L 588 4666 
z
" transform="scale(0.015625)"/>
     </defs>
     <use xlink:href="#DejaVuSans-Bold-25"/>
     <use xlink:href="#DejaVuSans-Bold-38" transform="translate(76.21875 0)"/>
     <use xlink:href="#DejaVuSans-Bold-2f" transform="translate(157.421875 0)"/>
     <use xlink:href="#DejaVuSans-Bold-2f" transform="translate(221.140625 0)"/>
    </g>
   </g>
   <g id="text_20">
    <!-- CAPITULATION -->
    <g style="fill: #b45f06; opacity: 0.35" transform="translate(176.450926 98.721622) scale(0.11 -0.11)">
     <defs>
      <path id="DejaVuSans-Bold-26" d="M 4288 256 
Q 3956 84 3597 -3 
Q 3238 -91 2847 -91 
Q 1681 -91 1000 561 
Q 319 1213 319 2328 
Q 319 3447 1000 4098 
Q 1681 4750 2847 4750 
Q 3238 4750 3597 4662 
Q 3956 4575 4288 4403 
L 4288 3438 
Q 3953 3666 3628 3772 
Q 3303 3878 2944 3878 
Q 2300 3878 1931 3465 
Q 1563 3053 1563 2328 
Q 1563 1606 1931 1193 
Q 2300 781 2944 781 
Q 3303 781 3628 887 
Q 3953 994 4288 1222 
L 4288 256 
z
" transform="scale(0.015625)"/>
      <path id="DejaVuSans-Bold-24" d="M 3419 850 
L 1538 850 
L 1241 0 
L 31 0 
L 1759 4666 
L 3194 4666 
L 4922 0 
L 3713 0 
L 3419 850 
z
M 1838 1716 
L 3116 1716 
L 2478 3572 
L 1838 1716 
z
" transform="scale(0.015625)"/>
      <path id="DejaVuSans-Bold-33" d="M 588 4666 
L 2584 4666 
Q 3475 4666 3951 4270 
Q 4428 3875 4428 3144 
Q 4428 2409 3951 2014 
Q 3475 1619 2584 1619 
L 1791 1619 
L 1791 0 
L 588 0 
L 588 4666 
z
M 1791 3794 
L 1791 2491 
L 2456 2491 
Q 2806 2491 2997 2661 
Q 3188 2831 3188 3144 
Q 3188 3456 2997 3625 
Q 2806 3794 2456 3794 
L 1791 3794 
z
" transform="scale(0.015625)"/>
      <path id="DejaVuSans-Bold-2c" d="M 588 4666 
L 1791 4666 
L 1791 0 
L 588 0 
L 588 4666 
z
" transform="scale(0.015625)"/>
      <path id="DejaVuSans-Bold-37" d="M 31 4666 
L 4331 4666 
L 4331 3756 
L 2784 3756 
L 2784 0 
L 1581 0 
L 1581 3756 
L 31 3756 
L 31 4666 
z
" transform="scale(0.015625)"/>
      <path id="DejaVuSans-Bold-31" d="M 588 4666 
L 1931 4666 
L 3628 1466 
L 3628 4666 
L 4769 4666 
L 4769 0 
L 3425 0 
L 1728 3200 
L 1728 0 
L 588 0 
L 588 4666 
z
" transform="scale(0.015625)"/>
     </defs>
     <use xlink:href="#DejaVuSans-Bold-26"/>
     <use xlink:href="#DejaVuSans-Bold-24" transform="translate(73.390625 0)"/>
     <use xlink:href="#DejaVuSans-Bold-33" transform="translate(150.78125 0)"/>
     <use xlink:href="#DejaVuSans-Bold-2c" transform="translate(224.078125 0)"/>
     <use xlink:href="#DejaVuSans-Bold-37" transform="translate(261.28125 0)"/>
     <use xlink:href="#DejaVuSans-Bold-38" transform="translate(329.5 0)"/>
     <use xlink:href="#DejaVuSans-Bold-2f" transform="translate(410.703125 0)"/>
     <use xlink:href="#DejaVuSans-Bold-24" transform="translate(474.421875 0)"/>
     <use xlink:href="#DejaVuSans-Bold-37" transform="translate(544.046875 0)"/>
     <use xlink:href="#DejaVuSans-Bold-2c" transform="translate(612.265625 0)"/>
     <use xlink:href="#DejaVuSans-Bold-32" transform="translate(649.46875 0)"/>
     <use xlink:href="#DejaVuSans-Bold-31" transform="translate(734.484375 0)"/>
    </g>
   </g>
   <g id="text_21">
    <!-- BOTTOM -->
    <g style="fill: #006400; opacity: 0.35" transform="translate(194.802879 473.258839) scale(0.11 -0.11)">
     <use xlink:href="#DejaVuSans-Bold-25"/>
     <use xlink:href="#DejaVuSans-Bold-32" transform="translate(76.21875 0)"/>
     <use xlink:href="#DejaVuSans-Bold-37" transform="translate(161.234375 0)"/>
     <use xlink:href="#DejaVuSans-Bold-37" transform="translate(231.75 0)"/>
     <use xlink:href="#DejaVuSans-Bold-32" transform="translate(299.96875 0)"/>
     <use xlink:href="#DejaVuSans-Bold-30" transform="translate(384.984375 0)"/>
    </g>
   </g>
   <g id="patch_4">
    <path d="M 388.202156 352.039429 
Q 416.016616 375.721111 442.554158 398.315605 
" style="fill: none; opacity: 0.6; stroke: #4c72b0; stroke-width: 1.5; stroke-linecap: round"/>
    <path d="M 440.70713 393.969203 
L 442.554158 398.315605 
L 437.96882 397.185386 
" style="fill: none; opacity: 0.6; stroke: #4c72b0; stroke-width: 1.5; stroke-linecap: round"/>
   </g>
   <g id="patch_5">
    <path d="M 443.889155 399.340299 
Q 433.50987 389.710824 424.360016 381.221963 
" style="fill: none; stroke: #4c72b0; stroke-width: 1.5; stroke-linecap: round"/>
    <path d="M 426.020152 385.643124 
L 424.360016 381.221963 
L 428.893027 382.546551 
" style="fill: none; stroke: #4c72b0; stroke-width: 1.5; stroke-linecap: round"/>
   </g>
   <g id="patch_6">
    <path d="M 639.874015 245.550633 
Q 595.187091 335.78736 551.244412 424.521223 
" style="fill: none; opacity: 0.6; stroke: #dd8452; stroke-width: 1.5; stroke-linecap: round"/>
    <path d="M 555.011586 421.67322 
L 551.244412 424.521223 
L 551.226314 419.798682 
" style="fill: none; opacity: 0.6; stroke: #dd8452; stroke-width: 1.5; stroke-linecap: round"/>
   </g>
   <g id="patch_7">
    <path d="M 551.611097 427.817946 
Q 600.395129 427.817946 647.50211 427.817946 
" style="fill: none; stroke: #dd8452; stroke-width: 1.5; stroke-linecap: round"/>
    <path d="M 643.27811 425.705946 
L 647.50211 427.817946 
L 643.27811 429.929946 
" style="fill: none; stroke: #dd8452; stroke-width: 1.5; stroke-linecap: round"/>
   </g>
   <g id="patch_8">
    <path d="M 355.093245 368.788472 
Q 442.769719 381.357232 528.786114 393.688014 
" style="fill: none; opacity: 0.6; stroke: #55a868; stroke-width: 1.5; stroke-linecap: round"/>
    <path d="M 524.904558 390.997987 
L 528.786114 393.688014 
L 524.305159 395.179242 
" style="fill: none; opacity: 0.6; stroke: #55a868; stroke-width: 1.5; stroke-linecap: round"/>
   </g>
   <g id="patch_9">
    <path d="M 531.409501 392.487455 
Q 488.50312 319.667362 446.448085 248.29216 
" style="fill: none; stroke: #55a868; stroke-width: 1.5; stroke-linecap: round"/>
    <path d="M 446.772746 253.003563 
L 446.448085 248.29216 
L 450.412003 250.859273 
" style="fill: none; stroke: #55a868; stroke-width: 1.5; stroke-linecap: round"/>
   </g>
   <g id="patch_10">
    <path d="M 430.08453 332.682244 
Q 422.33921 350.591532 415.259585 366.96155 
" style="fill: none; opacity: 0.6; stroke: #c44e52; stroke-width: 1.5; stroke-linecap: round"/>
    <path d="M 418.874761 363.922928 
L 415.259585 366.96155 
L 414.997793 362.246236 
" style="fill: none; opacity: 0.6; stroke: #c44e52; stroke-width: 1.5; stroke-linecap: round"/>
   </g>
   <g id="patch_11">
    <path d="M 413.84411 368.338955 
Q 414.716684 329.054746 415.552017 291.447175 
" style="fill: none; stroke: #c44e52; stroke-width: 1.5; stroke-linecap: round"/>
    <path d="M 413.346738 295.623233 
L 415.552017 291.447175 
L 417.569697 295.717033 
" style="fill: none; stroke: #c44e52; stroke-width: 1.5; stroke-linecap: round"/>
   </g>
   <g id="patch_12">
    <path d="M 496.998234 345.700774 
Q 441.62922 396.621429 387.494609 446.406853 
" style="fill: none; opacity: 0.6; stroke: #8172b3; stroke-width: 1.5; stroke-linecap: round"/>
    <path d="M 392.033366 445.102089 
L 387.494609 446.406853 
L 389.174052 441.992989 
" style="fill: none; opacity: 0.6; stroke: #8172b3; stroke-width: 1.5; stroke-linecap: round"/>
   </g>
   <g id="patch_13">
    <path d="M 386.768861 449.176752 
Q 451.052197 458.397303 513.675472 467.379742 
" style="fill: none; stroke: #8172b3; stroke-width: 1.5; stroke-linecap: round"/>
    <path d="M 509.794132 464.689402 
L 513.675472 467.379742 
L 509.194396 468.870609 
" style="fill: none; stroke: #8172b3; stroke-width: 1.5; stroke-linecap: round"/>
   </g>
   <g id="patch_14">
    <path d="M 43.768828 600.048916 
L 43.768828 23.837813 
" style="fill: none; stroke: #ffffff; stroke-linejoin: miter; stroke-linecap: square"/>
   </g>
   <g id="patch_15">
    <path d="M 833.46461 600.048916 
L 833.46461 23.837813 
" style="fill: none; stroke: #ffffff; stroke-linejoin: miter; stroke-linecap: square"/>
   </g>
   <g id="patch_16">
    <path d="M 43.768828 600.048916 
L 833.46461 600.048916 
" style="fill: none; stroke: #ffffff; stroke-linejoin: miter; stroke-linecap: square"/>
   </g>
   <g id="patch_17">
    <path d="M 43.768828 23.837813 
L 833.46461 23.837813 
" style="fill: none; stroke: #ffffff; stroke-linejoin: miter; stroke-linecap: square"/>
   </g>
   <g id="PathCollection_1">
    <path d="M 504.525397 270.294451 
C 505.977974 270.294451 507.371253 269.717336 508.39838 268.690208 
C 509.425507 267.663081 510.002622 266.269802 510.002622 264.817225 
C 510.002622 263.364648 509.425507 261.971369 508.39838 260.944242 
C 507.371253 259.917115 505.977974 259.34 504.525397 259.34 
C 503.07282 259.34 501.679541 259.917115 500.652414 260.944242 
C 499.625286 261.971369 499.048171 263.364648 499.048171 264.817225 
C 499.048171 266.269802 499.625286 267.663081 500.652414 268.690208 
C 501.679541 269.717336 503.07282 270.294451 504.525397 270.294451 
z
" clip-path="url(#p0ea10bf869)" style="fill: #4c72b0; fill-opacity: 0.15"/>
   </g>
   <g id="PathCollection_2">
    <path d="M 473.422343 398.924782 
C 475.07117 398.924782 476.652687 398.269696 477.818584 397.103799 
C 478.98448 395.937903 479.639566 394.356386 479.639566 392.707559 
C 479.639566 391.058732 478.98448 389.477215 477.818584 388.311318 
C 476.652687 387.145422 475.07117 386.490336 473.422343 386.490336 
C 471.773517 386.490336 470.191999 387.145422 469.026103 388.311318 
C 467.860206 389.477215 467.20512 391.058732 467.20512 392.707559 
C 467.20512 394.356386 467.860206 395.937903 469.026103 397.103799 
C 470.191999 398.269696 471.773517 398.924782 473.422343 398.924782 
z
" clip-path="url(#p0ea10bf869)" style="fill: #4c72b0; fill-opacity: 0.32"/>
   </g>
   <g id="PathCollection_3">
    <path d="M 494.143926 384.043634 
C 496.08584 384.043634 497.94848 383.272103 499.321621 381.898962 
C 500.694762 380.525822 501.466293 378.663181 501.466293 376.721267 
C 501.466293 374.779353 500.694762 372.916713 499.321621 371.543572 
C 497.94848 370.170431 496.08584 369.3989 494.143926 369.3989 
C 492.202011 369.3989 490.339371 370.170431 488.96623 371.543572 
C 487.59309 372.916713 486.821559 374.779353 486.821559 376.721267 
C 486.821559 378.663181 487.59309 380.525822 488.96623 381.898962 
C 490.339371 383.272103 492.202011 384.043634 494.143926 384.043634 
z
" clip-path="url(#p0ea10bf869)" style="fill: #4c72b0; fill-opacity: 0.49"/>
   </g>
   <g id="PathCollection_4">
    <path d="M 386.68012 358.760343 
C 388.8062 358.760343 390.845488 357.915642 392.348854 356.412277 
C 393.852219 354.908911 394.69692 352.869623 394.69692 350.743543 
C 394.69692 348.617463 393.852219 346.578175 392.348854 345.07481 
C 390.845488 343.571444 388.8062 342.726743 386.68012 342.726743 
C 384.55404 342.726743 382.514752 343.571444 381.011386 345.07481 
C 379.508021 346.578175 378.66332 348.617463 378.66332 350.743543 
C 378.66332 352.869623 379.508021 354.908911 381.011386 356.412277 
C 382.514752 357.915642 384.55404 358.760343 386.68012 358.760343 
z
" clip-path="url(#p0ea10bf869)" style="fill: #4c72b0; fill-opacity: 0.66"/>
   </g>
   <g id="PathCollection_5">
    <path d="M 445.355491 408.611948 
C 447.453577 408.611948 449.466013 407.778369 450.949584 406.294798 
C 452.433155 404.811227 453.266733 402.798791 453.266733 400.700705 
C 453.266733 398.602619 452.433155 396.590182 450.949584 395.106611 
C 449.466013 393.62304 447.453577 392.789462 445.355491 392.789462 
C 443.257404 392.789462 441.244968 393.62304 439.761397 395.106611 
C 438.277826 396.590182 437.444248 398.602619 437.444248 400.700705 
C 437.444248 402.798791 438.277826 404.811227 439.761397 406.294798 
C 441.244968 407.778369 443.257404 408.611948 445.355491 408.611948 
z
" clip-path="url(#p0ea10bf869)" style="fill: #4c72b0; fill-opacity: 0.83"/>
   </g>
   <g id="PathCollection_6">
    <path d="M 472.725972 355.633978 
C 473.921647 355.633978 475.068512 355.158931 475.913981 354.313462 
C 476.759451 353.467992 477.234498 352.321128 477.234498 351.125453 
C 477.234498 349.929778 476.759451 348.782914 475.913981 347.937444 
C 475.068512 347.091974 473.921647 346.616927 472.725972 346.616927 
C 471.530298 346.616927 470.383433 347.091974 469.537964 347.937444 
C 468.692494 348.782914 468.217447 349.929778 468.217447 351.125453 
C 468.217447 352.321128 468.692494 353.467992 469.537964 354.313462 
C 470.383433 355.158931 471.530298 355.633978 472.725972 355.633978 
z
" clip-path="url(#p0ea10bf869)" style="fill: #dd8452; fill-opacity: 0.15"/>
   </g>
   <g id="PathCollection_7">
    <path d="M 384.610866 387.70075 
C 386.175114 387.70075 387.675504 387.079268 388.781594 385.973178 
C 389.887684 384.867088 390.509166 383.366697 390.509166 381.80245 
C 390.509166 380.238203 389.887684 378.737813 388.781594 377.631723 
C 387.675504 376.525633 386.175114 375.904151 384.610866 375.904151 
C 383.046619 375.904151 381.546229 376.525633 380.440139 377.631723 
C 379.334049 378.737813 378.712567 380.238203 378.712567 381.80245 
C 378.712567 383.366697 379.334049 384.867088 380.440139 385.973178 
C 381.546229 387.079268 383.046619 387.70075 384.610866 387.70075 
z
" clip-path="url(#p0ea10bf869)" style="fill: #dd8452; fill-opacity: 0.32"/>
   </g>
   <g id="PathCollection_8">
    <path d="M 332.287987 327.727172 
C 334.218325 327.727172 336.069862 326.960241 337.434817 325.595285 
C 338.799772 324.23033 339.566704 322.378794 339.566704 320.448455 
C 339.566704 318.518117 338.799772 316.66658 337.434817 315.301625 
C 336.069862 313.93667 334.218325 313.169738 332.287987 313.169738 
C 330.357649 313.169738 328.506112 313.93667 327.141157 315.301625 
C 325.776202 316.66658 325.00927 318.518117 325.00927 320.448455 
C 325.00927 322.378794 325.776202 324.23033 327.141157 325.595285 
C 328.506112 326.960241 330.357649 327.727172 332.287987 327.727172 
z
" clip-path="url(#p0ea10bf869)" style="fill: #dd8452; fill-opacity: 0.49"/>
   </g>
   <g id="PathCollection_9">
    <path d="M 640.76277 251.625985 
C 642.849925 251.625985 644.851876 250.79675 646.327717 249.320909 
C 647.803559 247.845068 648.632794 245.843116 648.632794 243.755962 
C 648.632794 241.668807 647.803559 239.666856 646.327717 238.191014 
C 644.851876 236.715173 642.849925 235.885938 640.76277 235.885938 
C 638.675615 235.885938 636.673664 236.715173 635.197823 238.191014 
C 633.721982 239.666856 632.892746 241.668807 632.892746 243.755962 
C 632.892746 245.843116 633.721982 247.845068 635.197823 249.320909 
C 636.673664 250.79675 638.675615 251.625985 640.76277 251.625985 
z
" clip-path="url(#p0ea10bf869)" style="fill: #dd8452; fill-opacity: 0.66"/>
   </g>
   <g id="PathCollection_10">
    <path d="M 549.611813 437.091565 
C 552.071205 437.091565 554.430199 436.114438 556.169252 434.375385 
C 557.908305 432.636332 558.885432 430.277339 558.885432 427.817946 
C 558.885432 425.358554 557.908305 422.999561 556.169252 421.260508 
C 554.430199 419.521455 552.071205 418.544328 549.611813 418.544328 
C 547.152421 418.544328 544.793428 419.521455 543.054375 421.260508 
C 541.315321 422.999561 540.338195 425.358554 540.338195 427.817946 
C 540.338195 430.277339 541.315321 432.636332 543.054375 434.375385 
C 544.793428 436.114438 547.152421 437.091565 549.611813 437.091565 
z
" clip-path="url(#p0ea10bf869)" style="fill: #dd8452; fill-opacity: 0.83"/>
   </g>
   <g id="PathCollection_11">
    <path d="M 493.482312 306.725233 
C 494.140535 306.725233 494.771887 306.463719 495.237321 305.998285 
C 495.702755 305.532851 495.964269 304.901499 495.964269 304.243276 
C 495.964269 303.585053 495.702755 302.9537 495.237321 302.488266 
C 494.771887 302.022833 494.140535 301.761318 493.482312 301.761318 
C 492.824089 301.761318 492.192736 302.022833 491.727302 302.488266 
C 491.261869 302.9537 491.000354 303.585053 491.000354 304.243276 
C 491.000354 304.901499 491.261869 305.532851 491.727302 305.998285 
C 492.192736 306.463719 492.824089 306.725233 493.482312 306.725233 
z
" clip-path="url(#p0ea10bf869)" style="fill: #55a868; fill-opacity: 0.15"/>
   </g>
   <g id="PathCollection_12">
    <path d="M 470.508014 355.771031 
C 471.221125 355.771031 471.905125 355.487709 472.409371 354.983463 
C 472.913616 354.479218 473.196938 353.795218 473.196938 353.082107 
C 473.196938 352.368996 472.913616 351.684996 472.409371 351.18075 
C 471.905125 350.676505 471.221125 350.393183 470.508014 350.393183 
C 469.794903 350.393183 469.110903 350.676505 468.606658 351.18075 
C 468.102412 351.684996 467.81909 352.368996 467.81909 353.082107 
C 467.81909 353.795218 468.102412 354.479218 468.606658 354.983463 
C 469.110903 355.487709 469.794903 355.771031 470.508014 355.771031 
z
" clip-path="url(#p0ea10bf869)" style="fill: #55a868; fill-opacity: 0.32"/>
   </g>
   <g id="PathCollection_13">
    <path d="M 438.010597 357.738237 
C 438.563722 357.738237 439.094267 357.518478 439.485385 357.12736 
C 439.876503 356.736241 440.096262 356.205697 440.096262 355.652572 
C 440.096262 355.099447 439.876503 354.568902 439.485385 354.177783 
C 439.094267 353.786665 438.563722 353.566906 438.010597 353.566906 
C 437.457472 353.566906 436.926927 353.786665 436.535809 354.177783 
C 436.14469 354.568902 435.924932 355.099447 435.924932 355.652572 
C 435.924932 356.205697 436.14469 356.736241 436.535809 357.12736 
C 436.926927 357.518478 437.457472 357.738237 438.010597 357.738237 
z
" clip-path="url(#p0ea10bf869)" style="fill: #55a868; fill-opacity: 0.49"/>
   </g>
   <g id="PathCollection_14">
    <path d="M 353.115088 373.392481 
C 354.411291 373.392481 355.654579 372.877494 356.571133 371.96094 
C 357.487687 371.044387 358.002673 369.801098 358.002673 368.504896 
C 358.002673 367.208693 357.487687 365.965405 356.571133 365.048851 
C 355.654579 364.132297 354.411291 363.61731 353.115088 363.61731 
C 351.818885 363.61731 350.575597 364.132297 349.659043 365.048851 
C 348.74249 365.965405 348.227503 367.208693 348.227503 368.504896 
C 348.227503 369.801098 348.74249 371.044387 349.659043 371.96094 
C 350.575597 372.877494 351.818885 373.392481 353.115088 373.392481 
z
" clip-path="url(#p0ea10bf869)" style="fill: #55a868; fill-opacity: 0.66"/>
   </g>
   <g id="PathCollection_15">
    <path d="M 532.424174 403.169185 
C 534.800298 403.169185 537.079423 402.22514 538.759597 400.544967 
C 540.439771 398.864793 541.383815 396.585668 541.383815 394.209544 
C 541.383815 391.833419 540.439771 389.554294 538.759597 387.874121 
C 537.079423 386.193947 534.800298 385.249902 532.424174 385.249902 
C 530.048049 385.249902 527.768925 386.193947 526.088751 387.874121 
C 524.408577 389.554294 523.464533 391.833419 523.464533 394.209544 
C 523.464533 396.585668 524.408577 398.864793 526.088751 400.544967 
C 527.768925 402.22514 530.048049 403.169185 532.424174 403.169185 
z
" clip-path="url(#p0ea10bf869)" style="fill: #55a868; fill-opacity: 0.83"/>
   </g>
   <g id="PathCollection_16">
    <path d="M 422.509443 304.785354 
C 423.213986 304.785354 423.889767 304.505437 424.387954 304.00725 
C 424.886141 303.509063 425.166059 302.833282 425.166059 302.128739 
C 425.166059 301.424197 424.886141 300.748416 424.387954 300.250229 
C 423.889767 299.752042 423.213986 299.472124 422.509443 299.472124 
C 421.804901 299.472124 421.12912 299.752042 420.630933 300.250229 
C 420.132746 300.748416 419.852828 301.424197 419.852828 302.128739 
C 419.852828 302.833282 420.132746 303.509063 420.630933 304.00725 
C 421.12912 304.505437 421.804901 304.785354 422.509443 304.785354 
z
" clip-path="url(#p0ea10bf869)" style="fill: #c44e52; fill-opacity: 0.15"/>
   </g>
   <g id="PathCollection_17">
    <path d="M 529.870448 388.560144 
C 530.895018 388.560144 531.877762 388.153078 532.602243 387.428597 
C 533.326724 386.704117 533.73379 385.721372 533.73379 384.696802 
C 533.73379 383.672232 533.326724 382.689487 532.602243 381.965006 
C 531.877762 381.240526 530.895018 380.83346 529.870448 380.83346 
C 528.845877 380.83346 527.863133 381.240526 527.138652 381.965006 
C 526.414171 382.689487 526.007105 383.672232 526.007105 384.696802 
C 526.007105 385.721372 526.414171 386.704117 527.138652 387.428597 
C 527.863133 388.153078 528.845877 388.560144 529.870448 388.560144 
z
" clip-path="url(#p0ea10bf869)" style="fill: #c44e52; fill-opacity: 0.32"/>
   </g>
   <g id="PathCollection_18">
    <path d="M 396.673291 342.53094 
C 397.867512 342.53094 399.012982 342.056471 399.857424 341.212029 
C 400.701866 340.367588 401.176335 339.222118 401.176335 338.027897 
C 401.176335 336.833676 400.701866 335.688206 399.857424 334.843764 
C 399.012982 333.999323 397.867512 333.524854 396.673291 333.524854 
C 395.47907 333.524854 394.333601 333.999323 393.489159 334.843764 
C 392.644717 335.688206 392.170248 336.833676 392.170248 338.027897 
C 392.170248 339.222118 392.644717 340.367588 393.489159 341.212029 
C 394.333601 342.056471 395.47907 342.53094 396.673291 342.53094 
z
" clip-path="url(#p0ea10bf869)" style="fill: #c44e52; fill-opacity: 0.49"/>
   </g>
   <g id="PathCollection_19">
    <path d="M 430.877767 336.059673 
C 432.259901 336.059673 433.585613 335.510545 434.56293 334.533228 
C 435.540247 333.555912 436.089374 332.2302 436.089374 330.848065 
C 436.089374 329.465931 435.540247 328.140219 434.56293 327.162902 
C 433.585613 326.185586 432.259901 325.636458 430.877767 325.636458 
C 429.495632 325.636458 428.169921 326.185586 427.192604 327.162902 
C 426.215287 328.140219 425.666159 329.465931 425.666159 330.848065 
C 425.666159 332.2302 426.215287 333.555912 427.192604 334.533228 
C 428.169921 335.510545 429.495632 336.059673 430.877767 336.059673 
z
" clip-path="url(#p0ea10bf869)" style="fill: #c44e52; fill-opacity: 0.66"/>
   </g>
   <g id="PathCollection_20">
    <path d="M 413.799727 375.790025 
C 415.245849 375.790025 416.632937 375.215475 417.6555 374.192912 
C 418.678063 373.170349 419.252613 371.783261 419.252613 370.337139 
C 419.252613 368.891016 418.678063 367.503929 417.6555 366.481366 
C 416.632937 365.458803 415.245849 364.884252 413.799727 364.884252 
C 412.353604 364.884252 410.966517 365.458803 409.943954 366.481366 
C 408.921391 367.503929 408.34684 368.891016 408.34684 370.337139 
C 408.34684 371.783261 408.921391 373.170349 409.943954 374.192912 
C 410.966517 375.215475 412.353604 375.790025 413.799727 375.790025 
z
" clip-path="url(#p0ea10bf869)" style="fill: #c44e52; fill-opacity: 0.83"/>
   </g>
   <g id="PathCollection_21">
    <path d="M 366.297221 315.988427 
C 367.599105 315.988427 368.847843 315.471183 369.768414 314.550612 
C 370.688986 313.630041 371.20623 312.381303 371.20623 311.079419 
C 371.20623 309.777535 370.688986 308.528797 369.768414 307.608226 
C 368.847843 306.687655 367.599105 306.170411 366.297221 306.170411 
C 364.995337 306.170411 363.746599 306.687655 362.826028 307.608226 
C 361.905457 308.528797 361.388213 309.777535 361.388213 311.079419 
C 361.388213 312.381303 361.905457 313.630041 362.826028 314.550612 
C 363.746599 315.471183 364.995337 315.988427 366.297221 315.988427 
z
" clip-path="url(#p0ea10bf869)" style="fill: #8172b3; fill-opacity: 0.15"/>
   </g>
   <g id="PathCollection_22">
    <path d="M 432.001906 382.271801 
C 433.23819 382.271801 434.424005 381.780621 435.29819 380.906436 
C 436.172374 380.032251 436.663555 378.846436 436.663555 377.610153 
C 436.663555 376.373869 436.172374 375.188054 435.29819 374.313869 
C 434.424005 373.439685 433.23819 372.948504 432.001906 372.948504 
C 430.765623 372.948504 429.579808 373.439685 428.705623 374.313869 
C 427.831438 375.188054 427.340258 376.373869 427.340258 377.610153 
C 427.340258 378.846436 427.831438 380.032251 428.705623 380.906436 
C 429.579808 381.780621 430.765623 382.271801 432.001906 382.271801 
z
" clip-path="url(#p0ea10bf869)" style="fill: #8172b3; fill-opacity: 0.32"/>
   </g>
   <g id="PathCollection_23">
    <path d="M 396.640233 277.658301 
C 397.859224 277.658301 399.028453 277.17399 399.890409 276.312033 
C 400.752366 275.450077 401.236677 274.280848 401.236677 273.061857 
C 401.236677 271.842866 400.752366 270.673637 399.890409 269.811681 
C 399.028453 268.949724 397.859224 268.465413 396.640233 268.465413 
C 395.421242 268.465413 394.252013 268.949724 393.390057 269.811681 
C 392.5281 270.673637 392.043789 271.842866 392.043789 273.061857 
C 392.043789 274.280848 392.5281 275.450077 393.390057 276.312033 
C 394.252013 277.17399 395.421242 277.658301 396.640233 277.658301 
z
" clip-path="url(#p0ea10bf869)" style="fill: #8172b3; fill-opacity: 0.49"/>
   </g>
   <g id="PathCollection_24">
    <path d="M 498.472679 348.631154 
C 499.609437 348.631154 500.69979 348.179515 501.503599 347.375706 
C 502.307408 346.571896 502.759047 345.481544 502.759047 344.344786 
C 502.759047 343.208028 502.307408 342.117675 501.503599 341.313866 
C 500.69979 340.510057 499.609437 340.058418 498.472679 340.058418 
C 497.335921 340.058418 496.245569 340.510057 495.44176 341.313866 
C 494.63795 342.117675 494.186312 343.208028 494.186312 344.344786 
C 494.186312 345.481544 494.63795 346.571896 495.44176 347.375706 
C 496.245569 348.179515 497.335921 348.631154 498.472679 348.631154 
z
" clip-path="url(#p0ea10bf869)" style="fill: #8172b3; fill-opacity: 0.66"/>
   </g>
   <g id="PathCollection_25">
    <path d="M 384.791187 454.434734 
C 386.26085 454.434734 387.670518 453.85083 388.709727 452.811621 
C 389.748936 451.772413 390.332839 450.362745 390.332839 448.893082 
C 390.332839 447.423418 389.748936 446.013751 388.709727 444.974542 
C 387.670518 443.935333 386.26085 443.35143 384.791187 443.35143 
C 383.321524 443.35143 381.911856 443.935333 380.872647 444.974542 
C 379.833438 446.013751 379.249535 447.423418 379.249535 448.893082 
C 379.249535 450.362745 379.833438 451.772413 380.872647 452.811621 
C 381.911856 453.85083 383.321524 454.434734 384.791187 454.434734 
z
" clip-path="url(#p0ea10bf869)" style="fill: #8172b3; fill-opacity: 0.83"/>
   </g>
   <g id="text_22">
    <!-- Phase de marche — Ou en est chaque commune ? -->
    <g style="fill: #262626" transform="translate(242.977656 17.837813) scale(0.14 -0.14)">
     <defs>
      <path id="DejaVuSans-Bold-4b" d="M 4056 2131 
L 4056 0 
L 2931 0 
L 2931 347 
L 2931 1625 
Q 2931 2084 2911 2256 
Q 2891 2428 2841 2509 
Q 2775 2619 2662 2680 
Q 2550 2741 2406 2741 
Q 2056 2741 1856 2470 
Q 1656 2200 1656 1722 
L 1656 0 
L 538 0 
L 538 4863 
L 1656 4863 
L 1656 2988 
Q 1909 3294 2193 3439 
Q 2478 3584 2822 3584 
Q 3428 3584 3742 3212 
Q 4056 2841 4056 2131 
z
" transform="scale(0.015625)"/>
      <path id="DejaVuSans-Bold-44" d="M 2106 1575 
Q 1756 1575 1579 1456 
Q 1403 1338 1403 1106 
Q 1403 894 1545 773 
Q 1688 653 1941 653 
Q 2256 653 2472 879 
Q 2688 1106 2688 1447 
L 2688 1575 
L 2106 1575 
z
M 3816 1997 
L 3816 0 
L 2688 0 
L 2688 519 
Q 2463 200 2181 54 
Q 1900 -91 1497 -91 
Q 953 -91 614 226 
Q 275 544 275 1050 
Q 275 1666 698 1953 
Q 1122 2241 2028 2241 
L 2688 2241 
L 2688 2328 
Q 2688 2594 2478 2717 
Q 2269 2841 1825 2841 
Q 1466 2841 1156 2769 
Q 847 2697 581 2553 
L 581 3406 
Q 941 3494 1303 3539 
Q 1666 3584 2028 3584 
Q 2975 3584 3395 3211 
Q 3816 2838 3816 1997 
z
" transform="scale(0.015625)"/>
      <path id="DejaVuSans-Bold-56" d="M 3272 3391 
L 3272 2541 
Q 2913 2691 2578 2766 
Q 2244 2841 1947 2841 
Q 1628 2841 1473 2761 
Q 1319 2681 1319 2516 
Q 1319 2381 1436 2309 
Q 1553 2238 1856 2203 
L 2053 2175 
Q 2913 2066 3209 1816 
Q 3506 1566 3506 1031 
Q 3506 472 3093 190 
Q 2681 -91 1863 -91 
Q 1516 -91 1145 -36 
Q 775 19 384 128 
L 384 978 
Q 719 816 1070 734 
Q 1422 653 1784 653 
Q 2113 653 2278 743 
Q 2444 834 2444 1013 
Q 2444 1163 2330 1236 
Q 2216 1309 1875 1350 
L 1678 1375 
Q 931 1469 631 1722 
Q 331 1975 331 2491 
Q 331 3047 712 3315 
Q 1094 3584 1881 3584 
Q 2191 3584 2531 3537 
Q 2872 3491 3272 3391 
z
" transform="scale(0.015625)"/>
      <path id="DejaVuSans-Bold-48" d="M 4031 1759 
L 4031 1441 
L 1416 1441 
Q 1456 1047 1700 850 
Q 1944 653 2381 653 
Q 2734 653 3104 758 
Q 3475 863 3866 1075 
L 3866 213 
Q 3469 63 3072 -14 
Q 2675 -91 2278 -91 
Q 1328 -91 801 392 
Q 275 875 275 1747 
Q 275 2603 792 3093 
Q 1309 3584 2216 3584 
Q 3041 3584 3536 3087 
Q 4031 2591 4031 1759 
z
M 2881 2131 
Q 2881 2450 2695 2645 
Q 2509 2841 2209 2841 
Q 1884 2841 1681 2658 
Q 1478 2475 1428 2131 
L 2881 2131 
z
" transform="scale(0.015625)"/>
      <path id="DejaVuSans-Bold-3" transform="scale(0.015625)"/>
      <path id="DejaVuSans-Bold-47" d="M 2919 2988 
L 2919 4863 
L 4044 4863 
L 4044 0 
L 2919 0 
L 2919 506 
Q 2688 197 2409 53 
Q 2131 -91 1766 -91 
Q 1119 -91 703 423 
Q 288 938 288 1747 
Q 288 2556 703 3070 
Q 1119 3584 1766 3584 
Q 2128 3584 2408 3439 
Q 2688 3294 2919 2988 
z
M 2181 722 
Q 2541 722 2730 984 
Q 2919 1247 2919 1747 
Q 2919 2247 2730 2509 
Q 2541 2772 2181 2772 
Q 1825 2772 1636 2509 
Q 1447 2247 1447 1747 
Q 1447 1247 1636 984 
Q 1825 722 2181 722 
z
" transform="scale(0.015625)"/>
      <path id="DejaVuSans-Bold-50" d="M 3781 2919 
Q 3994 3244 4286 3414 
Q 4578 3584 4928 3584 
Q 5531 3584 5847 3212 
Q 6163 2841 6163 2131 
L 6163 0 
L 5038 0 
L 5038 1825 
Q 5041 1866 5042 1909 
Q 5044 1953 5044 2034 
Q 5044 2406 4934 2573 
Q 4825 2741 4581 2741 
Q 4263 2741 4089 2478 
Q 3916 2216 3909 1719 
L 3909 0 
L 2784 0 
L 2784 1825 
Q 2784 2406 2684 2573 
Q 2584 2741 2328 2741 
Q 2006 2741 1831 2477 
Q 1656 2213 1656 1722 
L 1656 0 
L 531 0 
L 531 3500 
L 1656 3500 
L 1656 2988 
Q 1863 3284 2130 3434 
Q 2397 3584 2719 3584 
Q 3081 3584 3359 3409 
Q 3638 3234 3781 2919 
z
" transform="scale(0.015625)"/>
      <path id="DejaVuSans-Bold-55" d="M 3138 2547 
Q 2991 2616 2845 2648 
Q 2700 2681 2553 2681 
Q 2122 2681 1889 2404 
Q 1656 2128 1656 1613 
L 1656 0 
L 538 0 
L 538 3500 
L 1656 3500 
L 1656 2925 
Q 1872 3269 2151 3426 
Q 2431 3584 2822 3584 
Q 2878 3584 2943 3579 
Q 3009 3575 3134 3559 
L 3138 2547 
z
" transform="scale(0.015625)"/>
      <path id="DejaVuSans-Bold-46" d="M 3366 3391 
L 3366 2478 
Q 3138 2634 2908 2709 
Q 2678 2784 2431 2784 
Q 1963 2784 1702 2511 
Q 1441 2238 1441 1747 
Q 1441 1256 1702 982 
Q 1963 709 2431 709 
Q 2694 709 2930 787 
Q 3166 866 3366 1019 
L 3366 103 
Q 3103 6 2833 -42 
Q 2563 -91 2291 -91 
Q 1344 -91 809 395 
Q 275 881 275 1747 
Q 275 2613 809 3098 
Q 1344 3584 2291 3584 
Q 2566 3584 2833 3536 
Q 3100 3488 3366 3391 
z
" transform="scale(0.015625)"/>
      <path id="DejaVuSans-Bold-af6" d="M 344 2156 
L 6056 2156 
L 6056 1350 
L 344 1350 
L 344 2156 
z
" transform="scale(0.015625)"/>
      <path id="DejaVuSans-Bold-58" d="M 500 1363 
L 500 3500 
L 1625 3500 
L 1625 3150 
Q 1625 2866 1622 2436 
Q 1619 2006 1619 1863 
Q 1619 1441 1641 1255 
Q 1663 1069 1716 984 
Q 1784 875 1895 815 
Q 2006 756 2150 756 
Q 2500 756 2700 1025 
Q 2900 1294 2900 1772 
L 2900 3500 
L 4019 3500 
L 4019 0 
L 2900 0 
L 2900 506 
Q 2647 200 2364 54 
Q 2081 -91 1741 -91 
Q 1134 -91 817 281 
Q 500 653 500 1363 
z
" transform="scale(0.015625)"/>
      <path id="DejaVuSans-Bold-51" d="M 4056 2131 
L 4056 0 
L 2931 0 
L 2931 347 
L 2931 1631 
Q 2931 2084 2911 2256 
Q 2891 2428 2841 2509 
Q 2775 2619 2662 2680 
Q 2550 2741 2406 2741 
Q 2056 2741 1856 2470 
Q 1656 2200 1656 1722 
L 1656 0 
L 538 0 
L 538 3500 
L 1656 3500 
L 1656 2988 
Q 1909 3294 2193 3439 
Q 2478 3584 2822 3584 
Q 3428 3584 3742 3212 
Q 4056 2841 4056 2131 
z
" transform="scale(0.015625)"/>
      <path id="DejaVuSans-Bold-57" d="M 1759 4494 
L 1759 3500 
L 2913 3500 
L 2913 2700 
L 1759 2700 
L 1759 1216 
Q 1759 972 1856 886 
Q 1953 800 2241 800 
L 2816 800 
L 2816 0 
L 1856 0 
Q 1194 0 917 276 
Q 641 553 641 1216 
L 641 2700 
L 84 2700 
L 84 3500 
L 641 3500 
L 641 4494 
L 1759 4494 
z
" transform="scale(0.015625)"/>
      <path id="DejaVuSans-Bold-54" d="M 2181 2772 
Q 1825 2772 1636 2509 
Q 1447 2247 1447 1747 
Q 1447 1247 1636 984 
Q 1825 722 2181 722 
Q 2541 722 2730 984 
Q 2919 1247 2919 1747 
Q 2919 2247 2730 2509 
Q 2541 2772 2181 2772 
z
M 2919 506 
Q 2688 197 2409 53 
Q 2131 -91 1766 -91 
Q 1119 -91 703 423 
Q 288 938 288 1747 
Q 288 2556 703 3067 
Q 1119 3578 1766 3578 
Q 2131 3578 2409 3434 
Q 2688 3291 2919 2981 
L 2919 3500 
L 4044 3500 
L 4044 -1331 
L 2919 -1331 
L 2919 506 
z
" transform="scale(0.015625)"/>
      <path id="DejaVuSans-Bold-52" d="M 2203 2784 
Q 1831 2784 1636 2517 
Q 1441 2250 1441 1747 
Q 1441 1244 1636 976 
Q 1831 709 2203 709 
Q 2569 709 2762 976 
Q 2956 1244 2956 1747 
Q 2956 2250 2762 2517 
Q 2569 2784 2203 2784 
z
M 2203 3584 
Q 3106 3584 3614 3096 
Q 4122 2609 4122 1747 
Q 4122 884 3614 396 
Q 3106 -91 2203 -91 
Q 1297 -91 786 396 
Q 275 884 275 1747 
Q 275 2609 786 3096 
Q 1297 3584 2203 3584 
z
" transform="scale(0.015625)"/>
      <path id="DejaVuSans-Bold-22" d="M 2216 1575 
L 1088 1575 
L 1088 1728 
Q 1088 1984 1191 2182 
Q 1294 2381 1625 2688 
L 1825 2869 
Q 2003 3031 2086 3175 
Q 2169 3319 2169 3463 
Q 2169 3681 2019 3804 
Q 1869 3928 1600 3928 
Q 1347 3928 1053 3823 
Q 759 3719 441 3513 
L 441 4494 
Q 819 4625 1131 4687 
Q 1444 4750 1734 4750 
Q 2497 4750 2897 4439 
Q 3297 4128 3297 3531 
Q 3297 3225 3175 2983 
Q 3053 2741 2759 2463 
L 2559 2284 
Q 2347 2091 2281 1973 
Q 2216 1856 2216 1716 
L 2216 1575 
z
M 1088 1113 
L 2216 1113 
L 2216 0 
L 1088 0 
L 1088 1113 
z
" transform="scale(0.015625)"/>
     </defs>
     <use xlink:href="#DejaVuSans-Bold-33"/>
     <use xlink:href="#DejaVuSans-Bold-4b" transform="translate(73.296875 0)"/>
     <use xlink:href="#DejaVuSans-Bold-44" transform="translate(144.484375 0)"/>
     <use xlink:href="#DejaVuSans-Bold-56" transform="translate(211.96875 0)"/>
     <use xlink:href="#DejaVuSans-Bold-48" transform="translate(271.484375 0)"/>
     <use xlink:href="#DejaVuSans-Bold-3" transform="translate(339.3125 0)"/>
     <use xlink:href="#DejaVuSans-Bold-47" transform="translate(374.125 0)"/>
     <use xlink:href="#DejaVuSans-Bold-48" transform="translate(445.703125 0)"/>
     <use xlink:href="#DejaVuSans-Bold-3" transform="translate(513.53125 0)"/>
     <use xlink:href="#DejaVuSans-Bold-50" transform="translate(548.34375 0)"/>
     <use xlink:href="#DejaVuSans-Bold-44" transform="translate(652.546875 0)"/>
     <use xlink:href="#DejaVuSans-Bold-55" transform="translate(720.03125 0)"/>
     <use xlink:href="#DejaVuSans-Bold-46" transform="translate(769.34375 0)"/>
     <use xlink:href="#DejaVuSans-Bold-4b" transform="translate(828.625 0)"/>
     <use xlink:href="#DejaVuSans-Bold-48" transform="translate(899.8125 0)"/>
     <use xlink:href="#DejaVuSans-Bold-3" transform="translate(967.640625 0)"/>
     <use xlink:href="#DejaVuSans-Bold-af6" transform="translate(1002.453125 0)"/>
     <use xlink:href="#DejaVuSans-Bold-3" transform="translate(1102.453125 0)"/>
     <use xlink:href="#DejaVuSans-Bold-32" transform="translate(1137.265625 0)"/>
     <use xlink:href="#DejaVuSans-Bold-58" transform="translate(1222.28125 0)"/>
     <use xlink:href="#DejaVuSans-Bold-3" transform="translate(1293.46875 0)"/>
     <use xlink:href="#DejaVuSans-Bold-48" transform="translate(1328.28125 0)"/>
     <use xlink:href="#DejaVuSans-Bold-51" transform="translate(1396.109375 0)"/>
     <use xlink:href="#DejaVuSans-Bold-3" transform="translate(1467.296875 0)"/>
     <use xlink:href="#DejaVuSans-Bold-48" transform="translate(1502.109375 0)"/>
     <use xlink:href="#DejaVuSans-Bold-56" transform="translate(1569.9375 0)"/>
     <use xlink:href="#DejaVuSans-Bold-57" transform="translate(1629.453125 0)"/>
     <use xlink:href="#DejaVuSans-Bold-3" transform="translate(1677.25 0)"/>
     <use xlink:href="#DejaVuSans-Bold-46" transform="translate(1712.0625 0)"/>
     <use xlink:href="#DejaVuSans-Bold-4b" transform="translate(1771.34375 0)"/>
     <use xlink:href="#DejaVuSans-Bold-44" transform="translate(1842.53125 0)"/>
     <use xlink:href="#DejaVuSans-Bold-54" transform="translate(1910.015625 0)"/>
     <use xlink:href="#DejaVuSans-Bold-58" transform="translate(1981.59375 0)"/>
     <use xlink:href="#DejaVuSans-Bold-48" transform="translate(2052.78125 0)"/>
     <use xlink:href="#DejaVuSans-Bold-3" transform="translate(2120.609375 0)"/>
     <use xlink:href="#DejaVuSans-Bold-46" transform="translate(2155.421875 0)"/>
     <use xlink:href="#DejaVuSans-Bold-52" transform="translate(2214.703125 0)"/>
     <use xlink:href="#DejaVuSans-Bold-50" transform="translate(2283.40625 0)"/>
     <use xlink:href="#DejaVuSans-Bold-50" transform="translate(2387.609375 0)"/>
     <use xlink:href="#DejaVuSans-Bold-58" transform="translate(2491.8125 0)"/>
     <use xlink:href="#DejaVuSans-Bold-51" transform="translate(2563 0)"/>
     <use xlink:href="#DejaVuSans-Bold-48" transform="translate(2634.1875 0)"/>
     <use xlink:href="#DejaVuSans-Bold-3" transform="translate(2702.015625 0)"/>
     <use xlink:href="#DejaVuSans-Bold-22" transform="translate(2736.828125 0)"/>
    </g>
   </g>
   <g id="PathCollection_26">
    <defs>
     <path id="m7bdbff24d6" d="M 0 7.579 
C 2.009974 7.579 3.937896 6.780429 5.359162 5.359162 
C 6.780429 3.937896 7.579 2.009974 7.579 0 
C 7.579 -2.009974 6.780429 -3.937896 5.359162 -5.359162 
C 3.937896 -6.780429 2.009974 -7.579 0 -7.579 
C -2.009974 -7.579 -3.937896 -6.780429 -5.359162 -5.359162 
C -6.780429 -3.937896 -7.579 -2.009974 -7.579 0 
C -7.579 2.009974 -6.780429 3.937896 -5.359162 5.359162 
C -3.937896 6.780429 -2.009974 7.579 0 7.579 
z
" style="stroke: #ffffff; stroke-width: 1.2"/>
    </defs>
    <g clip-path="url(#p0ea10bf869)">
     <use xlink:href="#m7bdbff24d6" x="421.662753" y="378.719554" style="fill: #4c72b0; stroke: #ffffff; stroke-width: 1.2"/>
    </g>
   </g>
   <g id="PathCollection_27">
    <defs>
     <path id="m54a5aa990f" d="M 0 9.826036 
C 2.605895 9.826036 5.105411 8.790703 6.948057 6.948057 
C 8.790703 5.105411 9.826036 2.605895 9.826036 0 
C 9.826036 -2.605895 8.790703 -5.105411 6.948057 -6.948057 
C 5.105411 -8.790703 2.605895 -9.826036 0 -9.826036 
C -2.605895 -9.826036 -5.105411 -8.790703 -6.948057 -6.948057 
C -8.790703 -5.105411 -9.826036 -2.605895 -9.826036 0 
C -9.826036 2.605895 -8.790703 5.105411 -6.948057 6.948057 
C -5.105411 8.790703 -2.605895 9.826036 0 9.826036 
z
" style="stroke: #ffffff; stroke-width: 1.2"/>
    </defs>
    <g clip-path="url(#p0ea10bf869)">
     <use xlink:href="#m54a5aa990f" x="651.181633" y="427.817946" style="fill: #dd8452; stroke: #ffffff; stroke-width: 1.2"/>
    </g>
   </g>
   <g id="PathCollection_28">
    <defs>
     <path id="mca0dd50234" d="M 0 9.621079 
C 2.55154 9.621079 4.998919 8.607341 6.80313 6.80313 
C 8.607341 4.998919 9.621079 2.55154 9.621079 0 
C 9.621079 -2.55154 8.607341 -4.998919 6.80313 -6.80313 
C 4.998919 -8.607341 2.55154 -9.621079 0 -9.621079 
C -2.55154 -9.621079 -4.998919 -8.607341 -6.80313 -6.80313 
C -8.607341 -4.998919 -9.621079 -2.55154 -9.621079 0 
C -9.621079 2.55154 -8.607341 4.998919 -6.80313 6.80313 
C -4.998919 8.607341 -2.55154 9.621079 0 9.621079 
z
" style="stroke: #ffffff; stroke-width: 1.2"/>
    </defs>
    <g clip-path="url(#p0ea10bf869)">
     <use xlink:href="#mca0dd50234" x="444.580537" y="245.122585" style="fill: #55a868; stroke: #ffffff; stroke-width: 1.2"/>
    </g>
   </g>
   <g id="PathCollection_29">
    <defs>
     <path id="m942d7decd7" d="M 0 6.09622 
C 1.616736 6.09622 3.167473 5.453884 4.310679 4.310679 
C 5.453884 3.167473 6.09622 1.616736 6.09622 0 
C 6.09622 -1.616736 5.453884 -3.167473 4.310679 -4.310679 
C 3.167473 -5.453884 1.616736 -6.09622 0 -6.09622 
C -1.616736 -6.09622 -3.167473 -5.453884 -4.310679 -4.310679 
C -5.453884 -3.167473 -6.09622 -1.616736 -6.09622 0 
C -6.09622 1.616736 -5.453884 3.167473 -4.310679 4.310679 
C -3.167473 5.453884 -1.616736 6.09622 0 6.09622 
z
" style="stroke: #ffffff; stroke-width: 1.2"/>
    </defs>
    <g clip-path="url(#p0ea10bf869)">
     <use xlink:href="#m942d7decd7" x="415.633714" y="287.769076" style="fill: #c44e52; stroke: #ffffff; stroke-width: 1.2"/>
    </g>
   </g>
   <g id="PathCollection_30">
    <defs>
     <path id="m4984ed2977" d="M 0 6.801181 
C 1.803694 6.801181 3.533757 6.084566 4.809161 4.809161 
C 6.084566 3.533757 6.801181 1.803694 6.801181 0 
C 6.801181 -1.803694 6.084566 -3.533757 4.809161 -4.809161 
C 3.533757 -6.084566 1.803694 -6.801181 0 -6.801181 
C -1.803694 -6.801181 -3.533757 -6.084566 -4.809161 -4.809161 
C -6.084566 -3.533757 -6.801181 -1.803694 -6.801181 0 
C -6.801181 1.803694 -6.084566 3.533757 -4.809161 4.809161 
C -3.533757 6.084566 -1.803694 6.801181 0 6.801181 
z
" style="stroke: #ffffff; stroke-width: 1.2"/>
    </defs>
    <g clip-path="url(#p0ea10bf869)">
     <use xlink:href="#m4984ed2977" x="517.315565" y="467.901863" style="fill: #8172b3; stroke: #ffffff; stroke-width: 1.2"/>
    </g>
   </g>
   <g id="legend_1">
    <g id="patch_18">
     <path d="M 50.068828 98.541328 
L 132.830859 98.541328 
Q 134.630859 98.541328 134.630859 96.741328 
L 134.630859 30.137812 
Q 134.630859 28.337813 132.830859 28.337813 
L 50.068828 28.337813 
Q 48.268828 28.337813 48.268828 30.137812 
L 48.268828 96.741328 
Q 48.268828 98.541328 50.068828 98.541328 
z
" style="fill: #f5f5f5; opacity: 0.85; stroke: #cccccc; stroke-width: 0.8; stroke-linejoin: miter"/>
    </g>
    <g id="PathCollection_31">
     <g>
      <use xlink:href="#m7bdbff24d6" x="60.868828" y="36.413906" style="fill: #4c72b0; stroke: #ffffff; stroke-width: 1.2"/>
     </g>
    </g>
    <g id="text_23">
     <!-- Brest -->
     <g style="fill: #262626" transform="translate(77.068828 38.776406) scale(0.09 -0.09)">
      <defs>
       <path id="DejaVuSans-25" d="M 1259 2228 
L 1259 519 
L 2272 519 
Q 2781 519 3026 730 
Q 3272 941 3272 1375 
Q 3272 1813 3026 2020 
Q 2781 2228 2272 2228 
L 1259 2228 
z
M 1259 4147 
L 1259 2741 
L 2194 2741 
Q 2656 2741 2882 2914 
Q 3109 3088 3109 3444 
Q 3109 3797 2882 3972 
Q 2656 4147 2194 4147 
L 1259 4147 
z
M 628 4666 
L 2241 4666 
Q 2963 4666 3353 4366 
Q 3744 4066 3744 3513 
Q 3744 3084 3544 2831 
Q 3344 2578 2956 2516 
Q 3422 2416 3680 2098 
Q 3938 1781 3938 1306 
Q 3938 681 3513 340 
Q 3088 0 2303 0 
L 628 0 
L 628 4666 
z
" transform="scale(0.015625)"/>
      </defs>
      <use xlink:href="#DejaVuSans-25"/>
      <use xlink:href="#DejaVuSans-55" transform="translate(68.609375 0)"/>
      <use xlink:href="#DejaVuSans-48" transform="translate(107.515625 0)"/>
      <use xlink:href="#DejaVuSans-56" transform="translate(169.046875 0)"/>
      <use xlink:href="#DejaVuSans-57" transform="translate(221.140625 0)"/>
     </g>
    </g>
    <g id="PathCollection_32">
     <g>
      <use xlink:href="#m54a5aa990f" x="60.868828" y="49.914609" style="fill: #dd8452; stroke: #ffffff; stroke-width: 1.2"/>
     </g>
    </g>
    <g id="text_24">
     <!-- Concarneau -->
     <g style="fill: #262626" transform="translate(77.068828 52.277109) scale(0.09 -0.09)">
      <defs>
       <path id="DejaVuSans-26" d="M 4122 4306 
L 4122 3641 
Q 3803 3938 3442 4084 
Q 3081 4231 2675 4231 
Q 1875 4231 1450 3742 
Q 1025 3253 1025 2328 
Q 1025 1406 1450 917 
Q 1875 428 2675 428 
Q 3081 428 3442 575 
Q 3803 722 4122 1019 
L 4122 359 
Q 3791 134 3420 21 
Q 3050 -91 2638 -91 
Q 1578 -91 968 557 
Q 359 1206 359 2328 
Q 359 3453 968 4101 
Q 1578 4750 2638 4750 
Q 3056 4750 3426 4639 
Q 3797 4528 4122 4306 
z
" transform="scale(0.015625)"/>
       <path id="DejaVuSans-44" d="M 2194 1759 
Q 1497 1759 1228 1600 
Q 959 1441 959 1056 
Q 959 750 1161 570 
Q 1363 391 1709 391 
Q 2188 391 2477 730 
Q 2766 1069 2766 1631 
L 2766 1759 
L 2194 1759 
z
M 3341 1997 
L 3341 0 
L 2766 0 
L 2766 531 
Q 2569 213 2275 61 
Q 1981 -91 1556 -91 
Q 1019 -91 701 211 
Q 384 513 384 1019 
Q 384 1609 779 1909 
Q 1175 2209 1959 2209 
L 2766 2209 
L 2766 2266 
Q 2766 2663 2505 2880 
Q 2244 3097 1772 3097 
Q 1472 3097 1187 3025 
Q 903 2953 641 2809 
L 641 3341 
Q 956 3463 1253 3523 
Q 1550 3584 1831 3584 
Q 2591 3584 2966 3190 
Q 3341 2797 3341 1997 
z
" transform="scale(0.015625)"/>
      </defs>
      <use xlink:href="#DejaVuSans-26"/>
      <use xlink:href="#DejaVuSans-52" transform="translate(69.828125 0)"/>
      <use xlink:href="#DejaVuSans-51" transform="translate(131.015625 0)"/>
      <use xlink:href="#DejaVuSans-46" transform="translate(194.390625 0)"/>
      <use xlink:href="#DejaVuSans-44" transform="translate(249.375 0)"/>
      <use xlink:href="#DejaVuSans-55" transform="translate(310.65625 0)"/>
      <use xlink:href="#DejaVuSans-51" transform="translate(350.015625 0)"/>
      <use xlink:href="#DejaVuSans-48" transform="translate(413.390625 0)"/>
      <use xlink:href="#DejaVuSans-44" transform="translate(474.921875 0)"/>
      <use xlink:href="#DejaVuSans-58" transform="translate(536.203125 0)"/>
     </g>
    </g>
    <g id="PathCollection_33">
     <g>
      <use xlink:href="#mca0dd50234" x="60.868828" y="63.415312" style="fill: #55a868; stroke: #ffffff; stroke-width: 1.2"/>
     </g>
    </g>
    <g id="text_25">
     <!-- Le Havre -->
     <g style="fill: #262626" transform="translate(77.068828 65.777812) scale(0.09 -0.09)">
      <defs>
       <path id="DejaVuSans-2f" d="M 628 4666 
L 1259 4666 
L 1259 531 
L 3531 531 
L 3531 0 
L 628 0 
L 628 4666 
z
" transform="scale(0.015625)"/>
       <path id="DejaVuSans-2b" d="M 628 4666 
L 1259 4666 
L 1259 2753 
L 3553 2753 
L 3553 4666 
L 4184 4666 
L 4184 0 
L 3553 0 
L 3553 2222 
L 1259 2222 
L 1259 0 
L 628 0 
L 628 4666 
z
" transform="scale(0.015625)"/>
       <path id="DejaVuSans-59" d="M 191 3500 
L 800 3500 
L 1894 563 
L 2988 3500 
L 3597 3500 
L 2284 0 
L 1503 0 
L 191 3500 
z
" transform="scale(0.015625)"/>
      </defs>
      <use xlink:href="#DejaVuSans-2f"/>
      <use xlink:href="#DejaVuSans-48" transform="translate(53.96875 0)"/>
      <use xlink:href="#DejaVuSans-3" transform="translate(115.5 0)"/>
      <use xlink:href="#DejaVuSans-2b" transform="translate(147.28125 0)"/>
      <use xlink:href="#DejaVuSans-44" transform="translate(222.484375 0)"/>
      <use xlink:href="#DejaVuSans-59" transform="translate(283.765625 0)"/>
      <use xlink:href="#DejaVuSans-55" transform="translate(342.953125 0)"/>
      <use xlink:href="#DejaVuSans-48" transform="translate(381.859375 0)"/>
     </g>
    </g>
    <g id="PathCollection_34">
     <g>
      <use xlink:href="#m942d7decd7" x="60.868828" y="76.916016" style="fill: #c44e52; stroke: #ffffff; stroke-width: 1.2"/>
     </g>
    </g>
    <g id="text_26">
     <!-- Lorient -->
     <g style="fill: #262626" transform="translate(77.068828 79.278516) scale(0.09 -0.09)">
      <use xlink:href="#DejaVuSans-2f"/>
      <use xlink:href="#DejaVuSans-52" transform="translate(53.96875 0)"/>
      <use xlink:href="#DejaVuSans-55" transform="translate(115.15625 0)"/>
      <use xlink:href="#DejaVuSans-4c" transform="translate(156.265625 0)"/>
      <use xlink:href="#DejaVuSans-48" transform="translate(184.046875 0)"/>
      <use xlink:href="#DejaVuSans-51" transform="translate(245.578125 0)"/>
      <use xlink:href="#DejaVuSans-57" transform="translate(308.953125 0)"/>
     </g>
    </g>
    <g id="PathCollection_35">
     <g>
      <use xlink:href="#m4984ed2977" x="60.868828" y="90.416719" style="fill: #8172b3; stroke: #ffffff; stroke-width: 1.2"/>
     </g>
    </g>
    <g id="text_27">
     <!-- Quimper -->
     <g style="fill: #262626" transform="translate(77.068828 92.779219) scale(0.09 -0.09)">
      <defs>
       <path id="DejaVuSans-34" d="M 2522 4238 
Q 1834 4238 1429 3725 
Q 1025 3213 1025 2328 
Q 1025 1447 1429 934 
Q 1834 422 2522 422 
Q 3209 422 3611 934 
Q 4013 1447 4013 2328 
Q 4013 3213 3611 3725 
Q 3209 4238 2522 4238 
z
M 3406 84 
L 4238 -825 
L 3475 -825 
L 2784 -78 
Q 2681 -84 2626 -87 
Q 2572 -91 2522 -91 
Q 1538 -91 948 567 
Q 359 1225 359 2328 
Q 359 3434 948 4092 
Q 1538 4750 2522 4750 
Q 3503 4750 4090 4092 
Q 4678 3434 4678 2328 
Q 4678 1516 4351 937 
Q 4025 359 3406 84 
z
" transform="scale(0.015625)"/>
      </defs>
      <use xlink:href="#DejaVuSans-34"/>
      <use xlink:href="#DejaVuSans-58" transform="translate(78.71875 0)"/>
      <use xlink:href="#DejaVuSans-4c" transform="translate(142.09375 0)"/>
      <use xlink:href="#DejaVuSans-50" transform="translate(169.875 0)"/>
      <use xlink:href="#DejaVuSans-53" transform="translate(267.28125 0)"/>
      <use xlink:href="#DejaVuSans-48" transform="translate(330.765625 0)"/>
      <use xlink:href="#DejaVuSans-55" transform="translate(392.296875 0)"/>
     </g>
    </g>
   </g>
  </g>
 </g>
 <defs>
  <clipPath id="p0ea10bf869">
   <rect x="43.768828" y="23.837813" width="789.695782" height="576.211103"/>
  </clipPath>
 </defs>
</svg>
