<?xml version="1.0" encoding="utf-8" standalone="no"?>
<!DOCTYPE svg PUBLIC "-//W3C//DTD SVG 1.1//EN"
  "http://www.w3.org/Graphics/SVG/1.1/DTD/svg11.dtd">
<svg xmlns:xlink="http://www.w3.org/1999/xlink" width="576pt" height="360pt" viewBox="0 0 576 360" xmlns="http://www.w3.org/2000/svg" version="1.1">
 <metadata>
  <rdf:RDF xmlns:dc="http://purl.org/dc/elements/1.1/" xmlns:cc="http://creativecommons.org/ns#" xmlns:rdf="http://www.w3.org/1999/02/22-rdf-syntax-ns#">
   <cc:Work>
    <dc:type rdf:resource="http://purl.org/dc/dcmitype/StillImage"/>
    <dc:date>2026-04-04T16:11:21.126512</dc:date>
    <dc:format>image/svg+xml</dc:format>
    <dc:creator>
     <cc:Agent>
      <dc:title>Matplotlib v3.10.8, https://matplotlib.org/</dc:title>
     </cc:Agent>
    </dc:creator>
   </cc:Work>
  </rdf:RDF>
 </metadata>
 <defs>
  <style type="text/css">*{stroke-linejoin: round; stroke-linecap: butt}</style>
 </defs>
 <g id="figure_1">
  <g id="patch_1">
   <path d="M 0 360 
L 576 360 
L 576 0 
L 0 0 
z
" style="fill: #ffffff"/>
  </g>
  <g id="axes_1">
   <g id="patch_2">
    <path d="M 71.03 332.12 
L 565.2 332.12 
L 565.2 25.44 
L 71.03 25.44 
z
" style="fill: #eaeaf2"/>
   </g>
   <g id="matplotlib.axis_1">
    <g id="xtick_1">
     <g id="line2d_1">
      <path d="M 140.781268 332.12 
L 140.781268 25.44 
" clip-path="url(#pc5e56ad9ed)" style="fill: none; stroke: #ffffff; stroke-linecap: round"/>
     </g>
     <g id="line2d_2"/>
     <g id="text_1">
      <!-- Matériaux -->
      <g style="fill: #262626" transform="translate(118.829705 346.366875) scale(0.1 -0.1)">
       <defs>
        <path id="LiberationSans-4d" d="M 4269 0 
L 4269 2938 
Q 4269 3425 4297 3875 
Q 4144 3316 4022 3000 
L 2884 0 
L 2466 0 
L 1313 3000 
L 1138 3531 
L 1034 3875 
L 1044 3528 
L 1056 2938 
L 1056 0 
L 525 0 
L 525 4403 
L 1309 4403 
L 2481 1350 
Q 2544 1166 2601 955 
Q 2659 744 2678 650 
Q 2703 775 2783 1029 
Q 2863 1284 2891 1350 
L 4041 4403 
L 4806 4403 
L 4806 0 
L 4269 0 
z
" transform="scale(0.015625)"/>
        <path id="LiberationSans-61" d="M 1294 -63 
Q 784 -63 528 206 
Q 272 475 272 944 
Q 272 1469 617 1750 
Q 963 2031 1731 2050 
L 2491 2063 
L 2491 2247 
Q 2491 2659 2316 2837 
Q 2141 3016 1766 3016 
Q 1388 3016 1216 2887 
Q 1044 2759 1009 2478 
L 422 2531 
Q 566 3444 1778 3444 
Q 2416 3444 2737 3151 
Q 3059 2859 3059 2306 
L 3059 850 
Q 3059 600 3125 473 
Q 3191 347 3375 347 
Q 3456 347 3559 369 
L 3559 19 
Q 3347 -31 3125 -31 
Q 2813 -31 2670 133 
Q 2528 297 2509 647 
L 2491 647 
Q 2275 259 1989 98 
Q 1703 -63 1294 -63 
z
M 1422 359 
Q 1731 359 1972 500 
Q 2213 641 2352 886 
Q 2491 1131 2491 1391 
L 2491 1669 
L 1875 1656 
Q 1478 1650 1273 1575 
Q 1069 1500 959 1344 
Q 850 1188 850 934 
Q 850 659 998 509 
Q 1147 359 1422 359 
z
" transform="scale(0.015625)"/>
        <path id="LiberationSans-74" d="M 1731 25 
Q 1453 -50 1163 -50 
Q 488 -50 488 716 
L 488 2972 
L 97 2972 
L 97 3381 
L 509 3381 
L 675 4138 
L 1050 4138 
L 1050 3381 
L 1675 3381 
L 1675 2972 
L 1050 2972 
L 1050 838 
Q 1050 594 1129 495 
Q 1209 397 1406 397 
Q 1519 397 1731 441 
L 1731 25 
z
" transform="scale(0.015625)"/>
        <path id="LiberationSans-e9" d="M 863 1572 
Q 863 991 1103 675 
Q 1344 359 1806 359 
Q 2172 359 2392 506 
Q 2613 653 2691 878 
L 3184 738 
Q 2881 -63 1806 -63 
Q 1056 -63 664 384 
Q 272 831 272 1713 
Q 272 2550 664 2997 
Q 1056 3444 1784 3444 
Q 3275 3444 3275 1647 
L 3275 1572 
L 863 1572 
z
M 2694 2003 
Q 2647 2538 2422 2783 
Q 2197 3028 1775 3028 
Q 1366 3028 1127 2754 
Q 888 2481 869 2003 
L 2694 2003 
z
M 1377 3753 
L 1377 3816 
L 2055 4713 
L 2702 4713 
L 2702 4622 
L 1671 3753 
L 1377 3753 
z
" transform="scale(0.015625)"/>
        <path id="LiberationSans-72" d="M 444 0 
L 444 2594 
Q 444 2950 425 3381 
L 956 3381 
Q 981 2806 981 2691 
L 994 2691 
Q 1128 3125 1303 3284 
Q 1478 3444 1797 3444 
Q 1909 3444 2025 3413 
L 2025 2897 
Q 1913 2928 1725 2928 
Q 1375 2928 1190 2626 
Q 1006 2325 1006 1763 
L 1006 0 
L 444 0 
z
" transform="scale(0.015625)"/>
        <path id="LiberationSans-69" d="M 428 4100 
L 428 4638 
L 991 4638 
L 991 4100 
L 428 4100 
z
M 428 0 
L 428 3381 
L 991 3381 
L 991 0 
L 428 0 
z
" transform="scale(0.015625)"/>
        <path id="LiberationSans-75" d="M 981 3381 
L 981 1238 
Q 981 903 1047 718 
Q 1113 534 1256 453 
Q 1400 372 1678 372 
Q 2084 372 2318 650 
Q 2553 928 2553 1422 
L 2553 3381 
L 3116 3381 
L 3116 722 
Q 3116 131 3134 0 
L 2603 0 
Q 2600 16 2597 84 
Q 2594 153 2589 242 
Q 2584 331 2578 578 
L 2569 578 
Q 2375 228 2120 82 
Q 1866 -63 1488 -63 
Q 931 -63 673 214 
Q 416 491 416 1128 
L 416 3381 
L 981 3381 
z
" transform="scale(0.015625)"/>
        <path id="LiberationSans-78" d="M 2503 0 
L 1594 1388 
L 678 0 
L 72 0 
L 1275 1738 
L 128 3381 
L 750 3381 
L 1594 2066 
L 2431 3381 
L 3059 3381 
L 1913 1744 
L 3131 0 
L 2503 0 
z
" transform="scale(0.015625)"/>
       </defs>
       <use xlink:href="#LiberationSans-4d"/>
       <use xlink:href="#LiberationSans-61" transform="translate(83.300781 0)"/>
       <use xlink:href="#LiberationSans-74" transform="translate(138.916016 0)"/>
       <use xlink:href="#LiberationSans-e9" transform="translate(166.699219 0)"/>
       <use xlink:href="#LiberationSans-72" transform="translate(222.314453 0)"/>
       <use xlink:href="#LiberationSans-69" transform="translate(255.615234 0)"/>
       <use xlink:href="#LiberationSans-61" transform="translate(277.832031 0)"/>
       <use xlink:href="#LiberationSans-75" transform="translate(333.447266 0)"/>
       <use xlink:href="#LiberationSans-78" transform="translate(389.0625 0)"/>
      </g>
     </g>
    </g>
    <g id="xtick_2">
     <g id="line2d_3">
      <path d="M 259.003756 332.12 
L 259.003756 25.44 
" clip-path="url(#pc5e56ad9ed)" style="fill: none; stroke: #ffffff; stroke-linecap: round"/>
     </g>
     <g id="line2d_4"/>
     <g id="text_2">
      <!-- Main d'œuvre -->
      <g style="fill: #262626" transform="translate(228.597506 346.366875) scale(0.1 -0.1)">
       <defs>
        <path id="LiberationSans-6e" d="M 2578 0 
L 2578 2144 
Q 2578 2478 2512 2662 
Q 2447 2847 2303 2928 
Q 2159 3009 1881 3009 
Q 1475 3009 1240 2731 
Q 1006 2453 1006 1959 
L 1006 0 
L 444 0 
L 444 2659 
Q 444 3250 425 3381 
L 956 3381 
Q 959 3366 962 3297 
Q 966 3228 970 3139 
Q 975 3050 981 2803 
L 991 2803 
Q 1184 3153 1439 3298 
Q 1694 3444 2072 3444 
Q 2628 3444 2886 3167 
Q 3144 2891 3144 2253 
L 3144 0 
L 2578 0 
z
" transform="scale(0.015625)"/>
        <path id="LiberationSans-20" transform="scale(0.015625)"/>
        <path id="LiberationSans-64" d="M 2566 544 
Q 2409 219 2151 78 
Q 1894 -63 1513 -63 
Q 872 -63 570 368 
Q 269 800 269 1675 
Q 269 3444 1513 3444 
Q 1897 3444 2153 3303 
Q 2409 3163 2566 2856 
L 2572 2856 
L 2566 3234 
L 2566 4638 
L 3128 4638 
L 3128 697 
Q 3128 169 3147 0 
L 2609 0 
Q 2600 50 2589 231 
Q 2578 413 2578 544 
L 2566 544 
z
M 859 1694 
Q 859 984 1046 678 
Q 1234 372 1656 372 
Q 2134 372 2350 703 
Q 2566 1034 2566 1731 
Q 2566 2403 2350 2715 
Q 2134 3028 1663 3028 
Q 1238 3028 1048 2714 
Q 859 2400 859 1694 
z
" transform="scale(0.015625)"/>
        <path id="LiberationSans-27" d="M 831 3019 
L 391 3019 
L 325 4403 
L 900 4403 
L 831 3019 
z
" transform="scale(0.015625)"/>
        <path id="LiberationSans-153" d="M 3344 1572 
Q 3344 991 3584 675 
Q 3825 359 4288 359 
Q 4653 359 4873 506 
Q 5094 653 5172 878 
L 5666 738 
Q 5363 -63 4288 -63 
Q 3428 -63 3050 509 
Q 2663 -63 1797 -63 
Q 1053 -63 661 389 
Q 269 841 269 1694 
Q 269 2566 664 3005 
Q 1059 3444 1816 3444 
Q 2694 3444 3059 2891 
Q 3453 3444 4266 3444 
Q 5756 3444 5756 1647 
L 5756 1572 
L 3344 1572 
z
M 2753 1694 
Q 2753 2378 2537 2703 
Q 2322 3028 1825 3028 
Q 1319 3028 1089 2695 
Q 859 2363 859 1694 
Q 859 353 1791 353 
Q 2303 353 2528 678 
Q 2753 1003 2753 1694 
z
M 5175 2003 
Q 5128 2538 4903 2783 
Q 4678 3028 4256 3028 
Q 3847 3028 3608 2754 
Q 3369 2481 3350 2003 
L 5175 2003 
z
" transform="scale(0.015625)"/>
        <path id="LiberationSans-76" d="M 1916 0 
L 1250 0 
L 22 3381 
L 622 3381 
L 1366 1181 
Q 1406 1056 1581 441 
L 1691 806 
L 1813 1175 
L 2581 3381 
L 3178 3381 
L 1916 0 
z
" transform="scale(0.015625)"/>
        <path id="LiberationSans-65" d="M 863 1572 
Q 863 991 1103 675 
Q 1344 359 1806 359 
Q 2172 359 2392 506 
Q 2613 653 2691 878 
L 3184 738 
Q 2881 -63 1806 -63 
Q 1056 -63 664 384 
Q 272 831 272 1713 
Q 272 2550 664 2997 
Q 1056 3444 1784 3444 
Q 3275 3444 3275 1647 
L 3275 1572 
L 863 1572 
z
M 2694 2003 
Q 2647 2538 2422 2783 
Q 2197 3028 1775 3028 
Q 1366 3028 1127 2754 
Q 888 2481 869 2003 
L 2694 2003 
z
" transform="scale(0.015625)"/>
       </defs>
       <use xlink:href="#LiberationSans-4d"/>
       <use xlink:href="#LiberationSans-61" transform="translate(83.300781 0)"/>
       <use xlink:href="#LiberationSans-69" transform="translate(138.916016 0)"/>
       <use xlink:href="#LiberationSans-6e" transform="translate(161.132812 0)"/>
       <use xlink:href="#LiberationSans-20" transform="translate(216.748047 0)"/>
       <use xlink:href="#LiberationSans-64" transform="translate(244.53125 0)"/>
       <use xlink:href="#LiberationSans-27" transform="translate(300.146484 0)"/>
       <use xlink:href="#LiberationSans-153" transform="translate(319.238281 0)"/>
       <use xlink:href="#LiberationSans-75" transform="translate(413.623047 0)"/>
       <use xlink:href="#LiberationSans-76" transform="translate(469.238281 0)"/>
       <use xlink:href="#LiberationSans-72" transform="translate(519.238281 0)"/>
       <use xlink:href="#LiberationSans-65" transform="translate(552.539062 0)"/>
      </g>
     </g>
    </g>
    <g id="xtick_3">
     <g id="line2d_5">
      <path d="M 377.226244 332.12 
L 377.226244 25.44 
" clip-path="url(#pc5e56ad9ed)" style="fill: none; stroke: #ffffff; stroke-linecap: round"/>
     </g>
     <g id="line2d_6"/>
     <g id="text_3">
      <!-- Aléas -->
      <g style="fill: #262626" transform="translate(364.719213 346.366875) scale(0.1 -0.1)">
       <defs>
        <path id="LiberationSans-41" d="M 3647 0 
L 3144 1288 
L 1138 1288 
L 631 0 
L 13 0 
L 1809 4403 
L 2488 4403 
L 4256 0 
L 3647 0 
z
M 2141 3953 
L 2113 3866 
Q 2034 3606 1881 3200 
L 1319 1753 
L 2966 1753 
L 2400 3206 
Q 2313 3422 2225 3694 
L 2141 3953 
z
" transform="scale(0.015625)"/>
        <path id="LiberationSans-6c" d="M 431 0 
L 431 4638 
L 994 4638 
L 994 0 
L 431 0 
z
" transform="scale(0.015625)"/>
        <path id="LiberationSans-73" d="M 2969 934 
Q 2969 456 2608 196 
Q 2247 -63 1597 -63 
Q 966 -63 623 145 
Q 281 353 178 794 
L 675 891 
Q 747 619 972 492 
Q 1197 366 1597 366 
Q 2025 366 2223 497 
Q 2422 628 2422 891 
Q 2422 1091 2284 1216 
Q 2147 1341 1841 1422 
L 1438 1528 
Q 953 1653 748 1773 
Q 544 1894 428 2066 
Q 313 2238 313 2488 
Q 313 2950 642 3192 
Q 972 3434 1603 3434 
Q 2163 3434 2492 3237 
Q 2822 3041 2909 2606 
L 2403 2544 
Q 2356 2769 2151 2889 
Q 1947 3009 1603 3009 
Q 1222 3009 1040 2893 
Q 859 2778 859 2544 
Q 859 2400 934 2306 
Q 1009 2213 1156 2147 
Q 1303 2081 1775 1966 
Q 2222 1853 2419 1758 
Q 2616 1663 2730 1547 
Q 2844 1431 2906 1279 
Q 2969 1128 2969 934 
z
" transform="scale(0.015625)"/>
       </defs>
       <use xlink:href="#LiberationSans-41"/>
       <use xlink:href="#LiberationSans-6c" transform="translate(66.699219 0)"/>
       <use xlink:href="#LiberationSans-e9" transform="translate(88.916016 0)"/>
       <use xlink:href="#LiberationSans-61" transform="translate(144.53125 0)"/>
       <use xlink:href="#LiberationSans-73" transform="translate(200.146484 0)"/>
      </g>
     </g>
    </g>
    <g id="xtick_4">
     <g id="line2d_7">
      <path d="M 495.448732 332.12 
L 495.448732 25.44 
" clip-path="url(#pc5e56ad9ed)" style="fill: none; stroke: #ffffff; stroke-linecap: round"/>
     </g>
     <g id="line2d_8"/>
     <g id="text_4">
      <!-- Total -->
      <g style="fill: #262626" transform="translate(484.890138 346.366875) scale(0.1 -0.1)">
       <defs>
        <path id="LiberationSans-54" d="M 2250 3916 
L 2250 0 
L 1656 0 
L 1656 3916 
L 144 3916 
L 144 4403 
L 3763 4403 
L 3763 3916 
L 2250 3916 
z
" transform="scale(0.015625)"/>
        <path id="LiberationSans-6f" d="M 3291 1694 
Q 3291 806 2900 371 
Q 2509 -63 1766 -63 
Q 1025 -63 647 389 
Q 269 841 269 1694 
Q 269 3444 1784 3444 
Q 2559 3444 2925 3017 
Q 3291 2591 3291 1694 
z
M 2700 1694 
Q 2700 2394 2492 2711 
Q 2284 3028 1794 3028 
Q 1300 3028 1079 2704 
Q 859 2381 859 1694 
Q 859 1025 1076 689 
Q 1294 353 1759 353 
Q 2266 353 2483 678 
Q 2700 1003 2700 1694 
z
" transform="scale(0.015625)"/>
       </defs>
       <use xlink:href="#LiberationSans-54"/>
       <use xlink:href="#LiberationSans-6f" transform="translate(49.958984 0)"/>
       <use xlink:href="#LiberationSans-74" transform="translate(105.574219 0)"/>
       <use xlink:href="#LiberationSans-61" transform="translate(133.357422 0)"/>
       <use xlink:href="#LiberationSans-6c" transform="translate(188.972656 0)"/>
      </g>
     </g>
    </g>
   </g>
   <g id="matplotlib.axis_2">
    <g id="ytick_1">
     <g id="line2d_9">
      <path d="M 71.03 332.12 
L 565.2 332.12 
" clip-path="url(#pc5e56ad9ed)" style="fill: none; stroke: #ffffff; stroke-opacity: 0.5; stroke-width: 0.3; stroke-linecap: round"/>
     </g>
     <g id="line2d_10"/>
     <g id="text_5">
      <!-- 0 € -->
      <g style="fill: #262626" transform="translate(50.13 335.743438) scale(0.1 -0.1)">
       <defs>
        <path id="LiberationSans-30" d="M 3309 2203 
Q 3309 1100 2920 518 
Q 2531 -63 1772 -63 
Q 1013 -63 631 515 
Q 250 1094 250 2203 
Q 250 3338 620 3903 
Q 991 4469 1791 4469 
Q 2569 4469 2939 3897 
Q 3309 3325 3309 2203 
z
M 2738 2203 
Q 2738 3156 2517 3584 
Q 2297 4013 1791 4013 
Q 1272 4013 1045 3591 
Q 819 3169 819 2203 
Q 819 1266 1048 831 
Q 1278 397 1778 397 
Q 2275 397 2506 840 
Q 2738 1284 2738 2203 
z
" transform="scale(0.015625)"/>
        <path id="LiberationSans-20ac" d="M 2159 394 
Q 2472 394 2659 550 
Q 2847 706 2891 991 
L 3469 947 
Q 3375 463 3033 200 
Q 2691 -63 2147 -63 
Q 1469 -63 1073 346 
Q 678 756 584 1569 
L 50 1569 
L 175 1972 
L 550 1972 
L 541 2216 
L 550 2484 
L 50 2484 
L 175 2881 
L 578 2881 
Q 678 3684 1065 4076 
Q 1453 4469 2138 4469 
Q 2684 4469 3026 4205 
Q 3369 3941 3459 3459 
L 2881 3416 
Q 2838 3700 2648 3856 
Q 2459 4013 2128 4013 
Q 1684 4013 1448 3741 
Q 1213 3469 1147 2881 
L 2541 2881 
L 2416 2484 
L 1125 2484 
Q 1116 2409 1116 2216 
Q 1116 2091 1128 1972 
L 2541 1972 
L 2416 1569 
L 1153 1569 
Q 1222 959 1475 676 
Q 1728 394 2159 394 
z
" transform="scale(0.015625)"/>
       </defs>
       <use xlink:href="#LiberationSans-30"/>
       <use xlink:href="#LiberationSans-20" transform="translate(55.615234 0)"/>
       <use xlink:href="#LiberationSans-20ac" transform="translate(83.398438 0)"/>
      </g>
     </g>
    </g>
    <g id="ytick_2">
     <g id="line2d_11">
      <path d="M 71.03 286.384055 
L 565.2 286.384055 
" clip-path="url(#pc5e56ad9ed)" style="fill: none; stroke: #ffffff; stroke-opacity: 0.5; stroke-width: 0.3; stroke-linecap: round"/>
     </g>
     <g id="line2d_12"/>
     <g id="text_6">
      <!-- 10 000 € -->
      <g style="fill: #262626" transform="translate(25.108125 290.007493) scale(0.1 -0.1)">
       <defs>
        <path id="LiberationSans-31" d="M 488 0 
L 488 478 
L 1609 478 
L 1609 3866 
L 616 3156 
L 616 3688 
L 1656 4403 
L 2175 4403 
L 2175 478 
L 3247 478 
L 3247 0 
L 488 0 
z
" transform="scale(0.015625)"/>
       </defs>
       <use xlink:href="#LiberationSans-31"/>
       <use xlink:href="#LiberationSans-30" transform="translate(55.615234 0)"/>
       <use xlink:href="#LiberationSans-20" transform="translate(111.230469 0)"/>
       <use xlink:href="#LiberationSans-30" transform="translate(139.013672 0)"/>
       <use xlink:href="#LiberationSans-30" transform="translate(194.628906 0)"/>
       <use xlink:href="#LiberationSans-30" transform="translate(250.244141 0)"/>
       <use xlink:href="#LiberationSans-20" transform="translate(305.859375 0)"/>
       <use xlink:href="#LiberationSans-20ac" transform="translate(333.642578 0)"/>
      </g>
     </g>
    </g>
    <g id="ytick_3">
     <g id="line2d_13">
      <path d="M 71.03 240.648111 
L 565.2 240.648111 
" clip-path="url(#pc5e56ad9ed)" style="fill: none; stroke: #ffffff; stroke-opacity: 0.5; stroke-width: 0.3; stroke-linecap: round"/>
     </g>
     <g id="line2d_14"/>
     <g id="text_7">
      <!-- 20 000 € -->
      <g style="fill: #262626" transform="translate(25.108125 244.271548) scale(0.1 -0.1)">
       <defs>
        <path id="LiberationSans-32" d="M 322 0 
L 322 397 
Q 481 763 711 1042 
Q 941 1322 1194 1548 
Q 1447 1775 1695 1969 
Q 1944 2163 2144 2356 
Q 2344 2550 2467 2762 
Q 2591 2975 2591 3244 
Q 2591 3606 2378 3806 
Q 2166 4006 1788 4006 
Q 1428 4006 1195 3811 
Q 963 3616 922 3263 
L 347 3316 
Q 409 3844 795 4156 
Q 1181 4469 1788 4469 
Q 2453 4469 2811 4155 
Q 3169 3841 3169 3263 
Q 3169 3006 3051 2753 
Q 2934 2500 2703 2247 
Q 2472 1994 1819 1463 
Q 1459 1169 1246 933 
Q 1034 697 941 478 
L 3238 478 
L 3238 0 
L 322 0 
z
" transform="scale(0.015625)"/>
       </defs>
       <use xlink:href="#LiberationSans-32"/>
       <use xlink:href="#LiberationSans-30" transform="translate(55.615234 0)"/>
       <use xlink:href="#LiberationSans-20" transform="translate(111.230469 0)"/>
       <use xlink:href="#LiberationSans-30" transform="translate(139.013672 0)"/>
       <use xlink:href="#LiberationSans-30" transform="translate(194.628906 0)"/>
       <use xlink:href="#LiberationSans-30" transform="translate(250.244141 0)"/>
       <use xlink:href="#LiberationSans-20" transform="translate(305.859375 0)"/>
       <use xlink:href="#LiberationSans-20ac" transform="translate(333.642578 0)"/>
      </g>
     </g>
    </g>
    <g id="ytick_4">
     <g id="line2d_15">
      <path d="M 71.03 194.912166 
L 565.2 194.912166 
" clip-path="url(#pc5e56ad9ed)" style="fill: none; stroke: #ffffff; stroke-opacity: 0.5; stroke-width: 0.3; stroke-linecap: round"/>
     </g>
     <g id="line2d_16"/>
     <g id="text_8">
      <!-- 30 000 € -->
      <g style="fill: #262626" transform="translate(25.108125 198.535604) scale(0.1 -0.1)">
       <defs>
        <path id="LiberationSans-33" d="M 3278 1216 
Q 3278 606 2890 271 
Q 2503 -63 1784 -63 
Q 1116 -63 717 239 
Q 319 541 244 1131 
L 825 1184 
Q 938 403 1784 403 
Q 2209 403 2451 612 
Q 2694 822 2694 1234 
Q 2694 1594 2417 1795 
Q 2141 1997 1619 1997 
L 1300 1997 
L 1300 2484 
L 1606 2484 
Q 2069 2484 2323 2686 
Q 2578 2888 2578 3244 
Q 2578 3597 2370 3801 
Q 2163 4006 1753 4006 
Q 1381 4006 1151 3815 
Q 922 3625 884 3278 
L 319 3322 
Q 381 3863 767 4166 
Q 1153 4469 1759 4469 
Q 2422 4469 2789 4161 
Q 3156 3853 3156 3303 
Q 3156 2881 2920 2617 
Q 2684 2353 2234 2259 
L 2234 2247 
Q 2728 2194 3003 1916 
Q 3278 1638 3278 1216 
z
" transform="scale(0.015625)"/>
       </defs>
       <use xlink:href="#LiberationSans-33"/>
       <use xlink:href="#LiberationSans-30" transform="translate(55.615234 0)"/>
       <use xlink:href="#LiberationSans-20" transform="translate(111.230469 0)"/>
       <use xlink:href="#LiberationSans-30" transform="translate(139.013672 0)"/>
       <use xlink:href="#LiberationSans-30" transform="translate(194.628906 0)"/>
       <use xlink:href="#LiberationSans-30" transform="translate(250.244141 0)"/>
       <use xlink:href="#LiberationSans-20" transform="translate(305.859375 0)"/>
       <use xlink:href="#LiberationSans-20ac" transform="translate(333.642578 0)"/>
      </g>
     </g>
    </g>
    <g id="ytick_5">
     <g id="line2d_17">
      <path d="M 71.03 149.176222 
L 565.2 149.176222 
" clip-path="url(#pc5e56ad9ed)" style="fill: none; stroke: #ffffff; stroke-opacity: 0.5; stroke-width: 0.3; stroke-linecap: round"/>
     </g>
     <g id="line2d_18"/>
     <g id="text_9">
      <!-- 40 000 € -->
      <g style="fill: #262626" transform="translate(25.108125 152.799659) scale(0.1 -0.1)">
       <defs>
        <path id="LiberationSans-34" d="M 2753 997 
L 2753 0 
L 2222 0 
L 2222 997 
L 147 997 
L 147 1434 
L 2163 4403 
L 2753 4403 
L 2753 1441 
L 3372 1441 
L 3372 997 
L 2753 997 
z
M 2222 3769 
Q 2216 3750 2134 3603 
Q 2053 3456 2013 3397 
L 884 1734 
L 716 1503 
L 666 1441 
L 2222 1441 
L 2222 3769 
z
" transform="scale(0.015625)"/>
       </defs>
       <use xlink:href="#LiberationSans-34"/>
       <use xlink:href="#LiberationSans-30" transform="translate(55.615234 0)"/>
       <use xlink:href="#LiberationSans-20" transform="translate(111.230469 0)"/>
       <use xlink:href="#LiberationSans-30" transform="translate(139.013672 0)"/>
       <use xlink:href="#LiberationSans-30" transform="translate(194.628906 0)"/>
       <use xlink:href="#LiberationSans-30" transform="translate(250.244141 0)"/>
       <use xlink:href="#LiberationSans-20" transform="translate(305.859375 0)"/>
       <use xlink:href="#LiberationSans-20ac" transform="translate(333.642578 0)"/>
      </g>
     </g>
    </g>
    <g id="ytick_6">
     <g id="line2d_19">
      <path d="M 71.03 103.440277 
L 565.2 103.440277 
" clip-path="url(#pc5e56ad9ed)" style="fill: none; stroke: #ffffff; stroke-opacity: 0.5; stroke-width: 0.3; stroke-linecap: round"/>
     </g>
     <g id="line2d_20"/>
     <g id="text_10">
      <!-- 50 000 € -->
      <g style="fill: #262626" transform="translate(25.108125 107.063715) scale(0.1 -0.1)">
       <defs>
        <path id="LiberationSans-35" d="M 3291 1434 
Q 3291 738 2877 337 
Q 2463 -63 1728 -63 
Q 1113 -63 734 206 
Q 356 475 256 984 
L 825 1050 
Q 1003 397 1741 397 
Q 2194 397 2450 670 
Q 2706 944 2706 1422 
Q 2706 1838 2448 2094 
Q 2191 2350 1753 2350 
Q 1525 2350 1328 2278 
Q 1131 2206 934 2034 
L 384 2034 
L 531 4403 
L 3034 4403 
L 3034 3925 
L 1044 3925 
L 959 2528 
Q 1325 2809 1869 2809 
Q 2519 2809 2905 2428 
Q 3291 2047 3291 1434 
z
" transform="scale(0.015625)"/>
       </defs>
       <use xlink:href="#LiberationSans-35"/>
       <use xlink:href="#LiberationSans-30" transform="translate(55.615234 0)"/>
       <use xlink:href="#LiberationSans-20" transform="translate(111.230469 0)"/>
       <use xlink:href="#LiberationSans-30" transform="translate(139.013672 0)"/>
       <use xlink:href="#LiberationSans-30" transform="translate(194.628906 0)"/>
       <use xlink:href="#LiberationSans-30" transform="translate(250.244141 0)"/>
       <use xlink:href="#LiberationSans-20" transform="translate(305.859375 0)"/>
       <use xlink:href="#LiberationSans-20ac" transform="translate(333.642578 0)"/>
      </g>
     </g>
    </g>
    <g id="ytick_7">
     <g id="line2d_21">
      <path d="M 71.03 57.704333 
L 565.2 57.704333 
" clip-path="url(#pc5e56ad9ed)" style="fill: none; stroke: #ffffff; stroke-opacity: 0.5; stroke-width: 0.3; stroke-linecap: round"/>
     </g>
     <g id="line2d_22"/>
     <g id="text_11">
      <!-- 60 000 € -->
      <g style="fill: #262626" transform="translate(25.108125 61.32777) scale(0.1 -0.1)">
       <defs>
        <path id="LiberationSans-36" d="M 3278 1441 
Q 3278 744 2900 340 
Q 2522 -63 1856 -63 
Q 1113 -63 719 490 
Q 325 1044 325 2100 
Q 325 3244 734 3856 
Q 1144 4469 1900 4469 
Q 2897 4469 3156 3572 
L 2619 3475 
Q 2453 4013 1894 4013 
Q 1413 4013 1148 3564 
Q 884 3116 884 2266 
Q 1038 2550 1316 2698 
Q 1594 2847 1953 2847 
Q 2563 2847 2920 2465 
Q 3278 2084 3278 1441 
z
M 2706 1416 
Q 2706 1894 2472 2153 
Q 2238 2413 1819 2413 
Q 1425 2413 1183 2183 
Q 941 1953 941 1550 
Q 941 1041 1192 716 
Q 1444 391 1838 391 
Q 2244 391 2475 664 
Q 2706 938 2706 1416 
z
" transform="scale(0.015625)"/>
       </defs>
       <use xlink:href="#LiberationSans-36"/>
       <use xlink:href="#LiberationSans-30" transform="translate(55.615234 0)"/>
       <use xlink:href="#LiberationSans-20" transform="translate(111.230469 0)"/>
       <use xlink:href="#LiberationSans-30" transform="translate(139.013672 0)"/>
       <use xlink:href="#LiberationSans-30" transform="translate(194.628906 0)"/>
       <use xlink:href="#LiberationSans-30" transform="translate(250.244141 0)"/>
       <use xlink:href="#LiberationSans-20" transform="translate(305.859375 0)"/>
       <use xlink:href="#LiberationSans-20ac" transform="translate(333.642578 0)"/>
      </g>
     </g>
    </g>
    <g id="text_12">
     <!-- € -->
     <g style="fill: #262626" transform="translate(18.825625 181.838516) rotate(-90) scale(0.11 -0.11)">
      <use xlink:href="#LiberationSans-20ac"/>
     </g>
    </g>
   </g>
   <g id="patch_3">
    <path d="M 93.492273 332.12 
L 188.070263 332.12 
L 188.070263 161.822211 
L 93.492273 161.822211 
z
" clip-path="url(#pc5e56ad9ed)" style="fill: #4c72b0"/>
   </g>
   <g id="patch_4">
    <path d="M 211.714761 161.822211 
L 306.292751 161.822211 
L 306.292751 66.596178 
L 211.714761 66.596178 
z
" clip-path="url(#pc5e56ad9ed)" style="fill: #55a868"/>
   </g>
   <g id="patch_5">
    <path d="M 329.937249 66.596178 
L 424.515239 66.596178 
L 424.515239 40.04381 
L 329.937249 40.04381 
z
" clip-path="url(#pc5e56ad9ed)" style="fill: #c44e52"/>
   </g>
   <g id="patch_6">
    <path d="M 448.159737 332.12 
L 542.737727 332.12 
L 542.737727 40.04381 
L 448.159737 40.04381 
z
" clip-path="url(#pc5e56ad9ed)" style="fill: #8172b2"/>
   </g>
   <g id="patch_7">
    <path d="M 71.03 332.12 
L 71.03 25.44 
" style="fill: none"/>
   </g>
   <g id="patch_8">
    <path d="M 565.2 332.12 
L 565.2 25.44 
" style="fill: none"/>
   </g>
   <g id="patch_9">
    <path d="M 71.03 332.12 
L 565.2 332.12 
" style="fill: none"/>
   </g>
   <g id="patch_10">
    <path d="M 71.03 25.44 
L 565.2 25.44 
" style="fill: none"/>
   </g>
   <g id="text_13">
    <!-- 37 235 € -->
    <g style="fill: #262626" transform="translate(123.266424 156.954711) scale(0.09 -0.09)">
     <defs>
      <path id="LiberationSans-37" d="M 3238 3947 
Q 2563 2916 2284 2331 
Q 2006 1747 1867 1178 
Q 1728 609 1728 0 
L 1141 0 
Q 1141 844 1498 1776 
Q 1856 2709 2694 3925 
L 328 3925 
L 328 4403 
L 3238 4403 
L 3238 3947 
z
" transform="scale(0.015625)"/>
     </defs>
     <use xlink:href="#LiberationSans-33"/>
     <use xlink:href="#LiberationSans-37" transform="translate(55.615234 0)"/>
     <use xlink:href="#LiberationSans-20" transform="translate(111.230469 0)"/>
     <use xlink:href="#LiberationSans-32" transform="translate(139.013672 0)"/>
     <use xlink:href="#LiberationSans-33" transform="translate(194.628906 0)"/>
     <use xlink:href="#LiberationSans-35" transform="translate(250.244141 0)"/>
     <use xlink:href="#LiberationSans-20" transform="translate(305.859375 0)"/>
     <use xlink:href="#LiberationSans-20ac" transform="translate(333.642578 0)"/>
    </g>
   </g>
   <g id="text_14">
    <!-- 20 820 € -->
    <g style="fill: #262626" transform="translate(241.488912 61.728678) scale(0.09 -0.09)">
     <defs>
      <path id="LiberationSans-38" d="M 3281 1228 
Q 3281 619 2893 278 
Q 2506 -63 1781 -63 
Q 1075 -63 676 271 
Q 278 606 278 1222 
Q 278 1653 525 1947 
Q 772 2241 1156 2303 
L 1156 2316 
Q 797 2400 589 2681 
Q 381 2963 381 3341 
Q 381 3844 757 4156 
Q 1134 4469 1769 4469 
Q 2419 4469 2795 4162 
Q 3172 3856 3172 3334 
Q 3172 2956 2962 2675 
Q 2753 2394 2391 2322 
L 2391 2309 
Q 2813 2241 3047 1952 
Q 3281 1663 3281 1228 
z
M 2588 3303 
Q 2588 4050 1769 4050 
Q 1372 4050 1164 3862 
Q 956 3675 956 3303 
Q 956 2925 1170 2726 
Q 1384 2528 1775 2528 
Q 2172 2528 2380 2711 
Q 2588 2894 2588 3303 
z
M 2697 1281 
Q 2697 1691 2453 1898 
Q 2209 2106 1769 2106 
Q 1341 2106 1100 1882 
Q 859 1659 859 1269 
Q 859 359 1788 359 
Q 2247 359 2472 579 
Q 2697 800 2697 1281 
z
" transform="scale(0.015625)"/>
     </defs>
     <use xlink:href="#LiberationSans-32"/>
     <use xlink:href="#LiberationSans-30" transform="translate(55.615234 0)"/>
     <use xlink:href="#LiberationSans-20" transform="translate(111.230469 0)"/>
     <use xlink:href="#LiberationSans-38" transform="translate(139.013672 0)"/>
     <use xlink:href="#LiberationSans-32" transform="translate(194.628906 0)"/>
     <use xlink:href="#LiberationSans-30" transform="translate(250.244141 0)"/>
     <use xlink:href="#LiberationSans-20" transform="translate(305.859375 0)"/>
     <use xlink:href="#LiberationSans-20ac" transform="translate(333.642578 0)"/>
    </g>
   </g>
   <g id="text_15">
    <!-- 5 805 € -->
    <g style="fill: #262626" transform="translate(362.213822 35.17631) scale(0.09 -0.09)">
     <use xlink:href="#LiberationSans-35"/>
     <use xlink:href="#LiberationSans-20" transform="translate(55.615234 0)"/>
     <use xlink:href="#LiberationSans-38" transform="translate(83.398438 0)"/>
     <use xlink:href="#LiberationSans-30" transform="translate(139.013672 0)"/>
     <use xlink:href="#LiberationSans-35" transform="translate(194.628906 0)"/>
     <use xlink:href="#LiberationSans-20" transform="translate(250.244141 0)"/>
     <use xlink:href="#LiberationSans-20ac" transform="translate(278.027344 0)"/>
    </g>
   </g>
   <g id="text_16">
    <!-- 63 861 € -->
    <g style="fill: #262626" transform="translate(477.933888 35.17631) scale(0.09 -0.09)">
     <use xlink:href="#LiberationSans-36"/>
     <use xlink:href="#LiberationSans-33" transform="translate(55.615234 0)"/>
     <use xlink:href="#LiberationSans-20" transform="translate(111.230469 0)"/>
     <use xlink:href="#LiberationSans-38" transform="translate(139.013672 0)"/>
     <use xlink:href="#LiberationSans-36" transform="translate(194.628906 0)"/>
     <use xlink:href="#LiberationSans-31" transform="translate(250.244141 0)"/>
     <use xlink:href="#LiberationSans-20" transform="translate(305.859375 0)"/>
     <use xlink:href="#LiberationSans-20ac" transform="translate(333.642578 0)"/>
    </g>
   </g>
   <g id="text_17">
    <!-- Waterfall simplifié — construction du total -->
    <g style="fill: #262626" transform="translate(208.30375 19.44) scale(0.12 -0.12)">
     <defs>
      <path id="LiberationSans-57" d="M 4722 0 
L 4009 0 
L 3247 2797 
Q 3172 3059 3028 3738 
Q 2947 3375 2890 3131 
Q 2834 2888 2038 0 
L 1325 0 
L 28 4403 
L 650 4403 
L 1441 1606 
Q 1581 1081 1700 525 
Q 1775 869 1873 1275 
Q 1972 1681 2741 4403 
L 3313 4403 
L 4078 1663 
Q 4253 991 4353 525 
L 4381 634 
Q 4466 994 4519 1220 
Q 4572 1447 5397 4403 
L 6019 4403 
L 4722 0 
z
" transform="scale(0.015625)"/>
      <path id="LiberationSans-66" d="M 1128 2972 
L 1128 0 
L 566 0 
L 566 2972 
L 91 2972 
L 91 3381 
L 566 3381 
L 566 3763 
Q 566 4225 769 4428 
Q 972 4631 1391 4631 
Q 1625 4631 1788 4594 
L 1788 4166 
Q 1647 4191 1538 4191 
Q 1322 4191 1225 4081 
Q 1128 3972 1128 3684 
L 1128 3381 
L 1788 3381 
L 1788 2972 
L 1128 2972 
z
" transform="scale(0.015625)"/>
      <path id="LiberationSans-6d" d="M 2400 0 
L 2400 2144 
Q 2400 2634 2265 2821 
Q 2131 3009 1781 3009 
Q 1422 3009 1212 2734 
Q 1003 2459 1003 1959 
L 1003 0 
L 444 0 
L 444 2659 
Q 444 3250 425 3381 
L 956 3381 
Q 959 3366 962 3297 
Q 966 3228 970 3139 
Q 975 3050 981 2803 
L 991 2803 
Q 1172 3163 1406 3303 
Q 1641 3444 1978 3444 
Q 2363 3444 2586 3291 
Q 2809 3138 2897 2803 
L 2906 2803 
Q 3081 3144 3329 3294 
Q 3578 3444 3931 3444 
Q 4444 3444 4676 3166 
Q 4909 2888 4909 2253 
L 4909 0 
L 4353 0 
L 4353 2144 
Q 4353 2634 4218 2821 
Q 4084 3009 3734 3009 
Q 3366 3009 3161 2736 
Q 2956 2463 2956 1959 
L 2956 0 
L 2400 0 
z
" transform="scale(0.015625)"/>
      <path id="LiberationSans-70" d="M 3291 1706 
Q 3291 -63 2047 -63 
Q 1266 -63 997 525 
L 981 525 
Q 994 500 994 -6 
L 994 -1328 
L 431 -1328 
L 431 2691 
Q 431 3213 413 3381 
L 956 3381 
Q 959 3369 965 3292 
Q 972 3216 980 3056 
Q 988 2897 988 2838 
L 1000 2838 
Q 1150 3150 1397 3295 
Q 1644 3441 2047 3441 
Q 2672 3441 2981 3022 
Q 3291 2603 3291 1706 
z
M 2700 1694 
Q 2700 2400 2509 2703 
Q 2319 3006 1903 3006 
Q 1569 3006 1380 2865 
Q 1191 2725 1092 2426 
Q 994 2128 994 1650 
Q 994 984 1206 668 
Q 1419 353 1897 353 
Q 2316 353 2508 661 
Q 2700 969 2700 1694 
z
" transform="scale(0.015625)"/>
      <path id="LiberationSans-2014" d="M 0 1409 
L 0 1838 
L 6400 1838 
L 6400 1409 
L 0 1409 
z
" transform="scale(0.015625)"/>
      <path id="LiberationSans-63" d="M 859 1706 
Q 859 1031 1071 706 
Q 1284 381 1713 381 
Q 2013 381 2214 543 
Q 2416 706 2463 1044 
L 3031 1006 
Q 2966 519 2616 228 
Q 2266 -63 1728 -63 
Q 1019 -63 645 385 
Q 272 834 272 1694 
Q 272 2547 647 2995 
Q 1022 3444 1722 3444 
Q 2241 3444 2583 3175 
Q 2925 2906 3013 2434 
L 2434 2391 
Q 2391 2672 2212 2837 
Q 2034 3003 1706 3003 
Q 1259 3003 1059 2706 
Q 859 2409 859 1706 
z
" transform="scale(0.015625)"/>
     </defs>
     <use xlink:href="#LiberationSans-57"/>
     <use xlink:href="#LiberationSans-61" transform="translate(90.634766 0)"/>
     <use xlink:href="#LiberationSans-74" transform="translate(146.25 0)"/>
     <use xlink:href="#LiberationSans-65" transform="translate(174.033203 0)"/>
     <use xlink:href="#LiberationSans-72" transform="translate(229.648438 0)"/>
     <use xlink:href="#LiberationSans-66" transform="translate(262.949219 0)"/>
     <use xlink:href="#LiberationSans-61" transform="translate(290.732422 0)"/>
     <use xlink:href="#LiberationSans-6c" transform="translate(346.347656 0)"/>
     <use xlink:href="#LiberationSans-6c" transform="translate(368.564453 0)"/>
     <use xlink:href="#LiberationSans-20" transform="translate(390.78125 0)"/>
     <use xlink:href="#LiberationSans-73" transform="translate(418.564453 0)"/>
     <use xlink:href="#LiberationSans-69" transform="translate(468.564453 0)"/>
     <use xlink:href="#LiberationSans-6d" transform="translate(490.78125 0)"/>
     <use xlink:href="#LiberationSans-70" transform="translate(574.082031 0)"/>
     <use xlink:href="#LiberationSans-6c" transform="translate(629.697266 0)"/>
     <use xlink:href="#LiberationSans-69" transform="translate(651.914062 0)"/>
     <use xlink:href="#LiberationSans-66" transform="translate(674.130859 0)"/>
     <use xlink:href="#LiberationSans-69" transform="translate(701.914062 0)"/>
     <use xlink:href="#LiberationSans-e9" transform="translate(724.130859 0)"/>
     <use xlink:href="#LiberationSans-20" transform="translate(779.746094 0)"/>
     <use xlink:href="#LiberationSans-2014" transform="translate(807.529297 0)"/>
     <use xlink:href="#LiberationSans-20" transform="translate(907.529297 0)"/>
     <use xlink:href="#LiberationSans-63" transform="translate(935.3125 0)"/>
     <use xlink:href="#LiberationSans-6f" transform="translate(985.3125 0)"/>
     <use xlink:href="#LiberationSans-6e" transform="translate(1040.927734 0)"/>
     <use xlink:href="#LiberationSans-73" transform="translate(1096.542969 0)"/>
     <use xlink:href="#LiberationSans-74" transform="translate(1146.542969 0)"/>
     <use xlink:href="#LiberationSans-72" transform="translate(1174.326172 0)"/>
     <use xlink:href="#LiberationSans-75" transform="translate(1207.626953 0)"/>
     <use xlink:href="#LiberationSans-63" transform="translate(1263.242188 0)"/>
     <use xlink:href="#LiberationSans-74" transform="translate(1313.242188 0)"/>
     <use xlink:href="#LiberationSans-69" transform="translate(1341.025391 0)"/>
     <use xlink:href="#LiberationSans-6f" transform="translate(1363.242188 0)"/>
     <use xlink:href="#LiberationSans-6e" transform="translate(1418.857422 0)"/>
     <use xlink:href="#LiberationSans-20" transform="translate(1474.472656 0)"/>
     <use xlink:href="#LiberationSans-64" transform="translate(1502.255859 0)"/>
     <use xlink:href="#LiberationSans-75" transform="translate(1557.871094 0)"/>
     <use xlink:href="#LiberationSans-20" transform="translate(1613.486328 0)"/>
     <use xlink:href="#LiberationSans-74" transform="translate(1641.269531 0)"/>
     <use xlink:href="#LiberationSans-6f" transform="translate(1669.052734 0)"/>
     <use xlink:href="#LiberationSans-74" transform="translate(1724.667969 0)"/>
     <use xlink:href="#LiberationSans-61" transform="translate(1752.451172 0)"/>
     <use xlink:href="#LiberationSans-6c" transform="translate(1808.066406 0)"/>
    </g>
   </g>
  </g>
 </g>
 <defs>
  <clipPath id="pc5e56ad9ed">
   <rect x="71.03" y="25.44" width="494.17" height="306.68"/>
  </clipPath>
 </defs>
</svg>
