<?xml version="1.0" encoding="utf-8" standalone="no"?>
<!DOCTYPE svg PUBLIC "-//W3C//DTD SVG 1.1//EN"
  "http://www.w3.org/Graphics/SVG/1.1/DTD/svg11.dtd">
<svg xmlns:xlink="http://www.w3.org/1999/xlink" width="926.07915pt" height="423.078741pt" viewBox="0 0 926.07915 423.078741" xmlns="http://www.w3.org/2000/svg" version="1.1">
 <metadata>
  <rdf:RDF xmlns:dc="http://purl.org/dc/elements/1.1/" xmlns:cc="http://creativecommons.org/ns#" xmlns:rdf="http://www.w3.org/1999/02/22-rdf-syntax-ns#">
   <cc:Work>
    <dc:type rdf:resource="http://purl.org/dc/dcmitype/StillImage"/>
    <dc:date>2026-07-05T08:52:35.728316</dc:date>
    <dc:format>image/svg+xml</dc:format>
    <dc:creator>
     <cc:Agent>
      <dc:title>Matplotlib v3.11.0, https://matplotlib.org/</dc:title>
     </cc:Agent>
    </dc:creator>
   </cc:Work>
  </rdf:RDF>
 </metadata>
 <defs>
  <style type="text/css">*{stroke-linejoin: round; stroke-linecap: butt}</style>
 </defs>
 <g id="figure_1">
  <g id="patch_1">
   <path d="M 0 423.078741 
L 926.07915 423.078741 
L 926.07915 0 
L 0 0 
z
" style="fill: #ffffff"/>
  </g>
  <g id="axes_1">
   <g id="patch_2">
    <path d="M 63.78875 354.837604 
L 918.87915 354.837604 
L 918.87915 24.397812 
L 63.78875 24.397812 
z
" style="fill: #f5f5f5"/>
   </g>
   <g id="matplotlib.axis_1">
    <g id="xtick_1">
     <g id="line2d_1">
      <path d="M 76.239421 354.837604 
L 76.239421 24.397812 
" clip-path="url(#p08cd632c22)" style="fill: none; stroke-dasharray: 2.96,1.28; stroke-dashoffset: 0; stroke: #cccccc; stroke-width: 0.8"/>
     </g>
     <g id="text_1">
      <!-- Nov 2020 -->
      <g style="fill: #262626" transform="translate(44.070095 398.613207) rotate(-45) scale(0.09 -0.09)">
       <defs>
        <path id="DejaVuSans-31" d="M 628 4666 
L 1478 4666 
L 3547 763 
L 3547 4666 
L 4159 4666 
L 4159 0 
L 3309 0 
L 1241 3903 
L 1241 0 
L 628 0 
L 628 4666 
z
" transform="scale(0.015625)"/>
        <path id="DejaVuSans-52" d="M 1959 3097 
Q 1497 3097 1228 2736 
Q 959 2375 959 1747 
Q 959 1119 1226 758 
Q 1494 397 1959 397 
Q 2419 397 2687 759 
Q 2956 1122 2956 1747 
Q 2956 2369 2687 2733 
Q 2419 3097 1959 3097 
z
M 1959 3584 
Q 2709 3584 3137 3096 
Q 3566 2609 3566 1747 
Q 3566 888 3137 398 
Q 2709 -91 1959 -91 
Q 1206 -91 779 398 
Q 353 888 353 1747 
Q 353 2609 779 3096 
Q 1206 3584 1959 3584 
z
" transform="scale(0.015625)"/>
        <path id="DejaVuSans-59" d="M 191 3500 
L 800 3500 
L 1894 563 
L 2988 3500 
L 3597 3500 
L 2284 0 
L 1503 0 
L 191 3500 
z
" transform="scale(0.015625)"/>
        <path id="DejaVuSans-3" transform="scale(0.015625)"/>
        <path id="DejaVuSans-15" d="M 1228 531 
L 3431 531 
L 3431 0 
L 469 0 
L 469 531 
Q 828 903 1448 1529 
Q 2069 2156 2228 2338 
Q 2531 2678 2651 2914 
Q 2772 3150 2772 3378 
Q 2772 3750 2511 3984 
Q 2250 4219 1831 4219 
Q 1534 4219 1204 4116 
Q 875 4013 500 3803 
L 500 4441 
Q 881 4594 1212 4672 
Q 1544 4750 1819 4750 
Q 2544 4750 2975 4387 
Q 3406 4025 3406 3419 
Q 3406 3131 3298 2873 
Q 3191 2616 2906 2266 
Q 2828 2175 2409 1742 
Q 1991 1309 1228 531 
z
" transform="scale(0.015625)"/>
        <path id="DejaVuSans-13" d="M 2034 4250 
Q 1547 4250 1301 3770 
Q 1056 3291 1056 2328 
Q 1056 1369 1301 889 
Q 1547 409 2034 409 
Q 2525 409 2770 889 
Q 3016 1369 3016 2328 
Q 3016 3291 2770 3770 
Q 2525 4250 2034 4250 
z
M 2034 4750 
Q 2819 4750 3233 4129 
Q 3647 3509 3647 2328 
Q 3647 1150 3233 529 
Q 2819 -91 2034 -91 
Q 1250 -91 836 529 
Q 422 1150 422 2328 
Q 422 3509 836 4129 
Q 1250 4750 2034 4750 
z
" transform="scale(0.015625)"/>
       </defs>
       <use xlink:href="#DejaVuSans-31"/>
       <use xlink:href="#DejaVuSans-52" transform="translate(74.8125 0)"/>
       <use xlink:href="#DejaVuSans-59" transform="translate(136 0)"/>
       <use xlink:href="#DejaVuSans-3" transform="translate(195.1875 0)"/>
       <use xlink:href="#DejaVuSans-15" transform="translate(226.96875 0)"/>
       <use xlink:href="#DejaVuSans-13" transform="translate(290.59375 0)"/>
       <use xlink:href="#DejaVuSans-15" transform="translate(354.21875 0)"/>
       <use xlink:href="#DejaVuSans-13" transform="translate(417.84375 0)"/>
      </g>
     </g>
    </g>
    <g id="xtick_2">
     <g id="line2d_2">
      <path d="M 116.081566 354.837604 
L 116.081566 24.397812 
" clip-path="url(#p08cd632c22)" style="fill: none; stroke-dasharray: 2.96,1.28; stroke-dashoffset: 0; stroke: #cccccc; stroke-width: 0.8"/>
     </g>
     <g id="text_2">
      <!-- Feb 2021 -->
      <g style="fill: #262626" transform="translate(85.065708 397.460236) rotate(-45) scale(0.09 -0.09)">
       <defs>
        <path id="DejaVuSans-29" d="M 628 4666 
L 3309 4666 
L 3309 4134 
L 1259 4134 
L 1259 2759 
L 3109 2759 
L 3109 2228 
L 1259 2228 
L 1259 0 
L 628 0 
L 628 4666 
z
" transform="scale(0.015625)"/>
        <path id="DejaVuSans-48" d="M 3597 1894 
L 3597 1613 
L 953 1613 
Q 991 1019 1311 708 
Q 1631 397 2203 397 
Q 2534 397 2845 478 
Q 3156 559 3463 722 
L 3463 178 
Q 3153 47 2828 -22 
Q 2503 -91 2169 -91 
Q 1331 -91 842 396 
Q 353 884 353 1716 
Q 353 2575 817 3079 
Q 1281 3584 2069 3584 
Q 2775 3584 3186 3129 
Q 3597 2675 3597 1894 
z
M 3022 2063 
Q 3016 2534 2758 2815 
Q 2500 3097 2075 3097 
Q 1594 3097 1305 2825 
Q 1016 2553 972 2059 
L 3022 2063 
z
" transform="scale(0.015625)"/>
        <path id="DejaVuSans-45" d="M 3116 1747 
Q 3116 2381 2855 2742 
Q 2594 3103 2138 3103 
Q 1681 3103 1420 2742 
Q 1159 2381 1159 1747 
Q 1159 1113 1420 752 
Q 1681 391 2138 391 
Q 2594 391 2855 752 
Q 3116 1113 3116 1747 
z
M 1159 2969 
Q 1341 3281 1617 3432 
Q 1894 3584 2278 3584 
Q 2916 3584 3314 3078 
Q 3713 2572 3713 1747 
Q 3713 922 3314 415 
Q 2916 -91 2278 -91 
Q 1894 -91 1617 61 
Q 1341 213 1159 525 
L 1159 0 
L 581 0 
L 581 4863 
L 1159 4863 
L 1159 2969 
z
" transform="scale(0.015625)"/>
        <path id="DejaVuSans-14" d="M 794 531 
L 1825 531 
L 1825 4091 
L 703 3866 
L 703 4441 
L 1819 4666 
L 2450 4666 
L 2450 531 
L 3481 531 
L 3481 0 
L 794 0 
L 794 531 
z
" transform="scale(0.015625)"/>
       </defs>
       <use xlink:href="#DejaVuSans-29"/>
       <use xlink:href="#DejaVuSans-48" transform="translate(52.046875 0)"/>
       <use xlink:href="#DejaVuSans-45" transform="translate(113.578125 0)"/>
       <use xlink:href="#DejaVuSans-3" transform="translate(177.0625 0)"/>
       <use xlink:href="#DejaVuSans-15" transform="translate(208.84375 0)"/>
       <use xlink:href="#DejaVuSans-13" transform="translate(272.46875 0)"/>
       <use xlink:href="#DejaVuSans-15" transform="translate(336.09375 0)"/>
       <use xlink:href="#DejaVuSans-14" transform="translate(399.71875 0)"/>
      </g>
     </g>
    </g>
    <g id="xtick_3">
     <g id="line2d_3">
      <path d="M 154.624512 354.837604 
L 154.624512 24.397812 
" clip-path="url(#p08cd632c22)" style="fill: none; stroke-dasharray: 2.96,1.28; stroke-dashoffset: 0; stroke: #cccccc; stroke-width: 0.8"/>
     </g>
     <g id="text_3">
      <!-- May 2021 -->
      <g style="fill: #262626" transform="translate(121.719353 399.34904) rotate(-45) scale(0.09 -0.09)">
       <defs>
        <path id="DejaVuSans-30" d="M 628 4666 
L 1569 4666 
L 2759 1491 
L 3956 4666 
L 4897 4666 
L 4897 0 
L 4281 0 
L 4281 4097 
L 3078 897 
L 2444 897 
L 1241 4097 
L 1241 0 
L 628 0 
L 628 4666 
z
" transform="scale(0.015625)"/>
        <path id="DejaVuSans-44" d="M 2194 1759 
Q 1497 1759 1228 1600 
Q 959 1441 959 1056 
Q 959 750 1161 570 
Q 1363 391 1709 391 
Q 2188 391 2477 730 
Q 2766 1069 2766 1631 
L 2766 1759 
L 2194 1759 
z
M 3341 1997 
L 3341 0 
L 2766 0 
L 2766 531 
Q 2569 213 2275 61 
Q 1981 -91 1556 -91 
Q 1019 -91 701 211 
Q 384 513 384 1019 
Q 384 1609 779 1909 
Q 1175 2209 1959 2209 
L 2766 2209 
L 2766 2266 
Q 2766 2663 2505 2880 
Q 2244 3097 1772 3097 
Q 1472 3097 1187 3025 
Q 903 2953 641 2809 
L 641 3341 
Q 956 3463 1253 3523 
Q 1550 3584 1831 3584 
Q 2591 3584 2966 3190 
Q 3341 2797 3341 1997 
z
" transform="scale(0.015625)"/>
        <path id="DejaVuSans-5c" d="M 2059 -325 
Q 1816 -950 1584 -1140 
Q 1353 -1331 966 -1331 
L 506 -1331 
L 506 -850 
L 844 -850 
Q 1081 -850 1212 -737 
Q 1344 -625 1503 -206 
L 1606 56 
L 191 3500 
L 800 3500 
L 1894 763 
L 2988 3500 
L 3597 3500 
L 2059 -325 
z
" transform="scale(0.015625)"/>
       </defs>
       <use xlink:href="#DejaVuSans-30"/>
       <use xlink:href="#DejaVuSans-44" transform="translate(86.28125 0)"/>
       <use xlink:href="#DejaVuSans-5c" transform="translate(147.5625 0)"/>
       <use xlink:href="#DejaVuSans-3" transform="translate(206.75 0)"/>
       <use xlink:href="#DejaVuSans-15" transform="translate(238.53125 0)"/>
       <use xlink:href="#DejaVuSans-13" transform="translate(302.15625 0)"/>
       <use xlink:href="#DejaVuSans-15" transform="translate(365.78125 0)"/>
       <use xlink:href="#DejaVuSans-14" transform="translate(429.40625 0)"/>
      </g>
     </g>
    </g>
    <g id="xtick_4">
     <g id="line2d_4">
      <path d="M 194.466657 354.837604 
L 194.466657 24.397812 
" clip-path="url(#p08cd632c22)" style="fill: none; stroke-dasharray: 2.96,1.28; stroke-dashoffset: 0; stroke: #cccccc; stroke-width: 0.8"/>
     </g>
     <g id="text_4">
      <!-- Aug 2021 -->
      <g style="fill: #262626" transform="translate(162.29236 398.618178) rotate(-45) scale(0.09 -0.09)">
       <defs>
        <path id="DejaVuSans-24" d="M 2188 4044 
L 1331 1722 
L 3047 1722 
L 2188 4044 
z
M 1831 4666 
L 2547 4666 
L 4325 0 
L 3669 0 
L 3244 1197 
L 1141 1197 
L 716 0 
L 50 0 
L 1831 4666 
z
" transform="scale(0.015625)"/>
        <path id="DejaVuSans-58" d="M 544 1381 
L 544 3500 
L 1119 3500 
L 1119 1403 
Q 1119 906 1312 657 
Q 1506 409 1894 409 
Q 2359 409 2629 706 
Q 2900 1003 2900 1516 
L 2900 3500 
L 3475 3500 
L 3475 0 
L 2900 0 
L 2900 538 
Q 2691 219 2414 64 
Q 2138 -91 1772 -91 
Q 1169 -91 856 284 
Q 544 659 544 1381 
z
M 1991 3584 
L 1991 3584 
z
" transform="scale(0.015625)"/>
        <path id="DejaVuSans-4a" d="M 2906 1791 
Q 2906 2416 2648 2759 
Q 2391 3103 1925 3103 
Q 1463 3103 1205 2759 
Q 947 2416 947 1791 
Q 947 1169 1205 825 
Q 1463 481 1925 481 
Q 2391 481 2648 825 
Q 2906 1169 2906 1791 
z
M 3481 434 
Q 3481 -459 3084 -895 
Q 2688 -1331 1869 -1331 
Q 1566 -1331 1297 -1286 
Q 1028 -1241 775 -1147 
L 775 -588 
Q 1028 -725 1275 -790 
Q 1522 -856 1778 -856 
Q 2344 -856 2625 -561 
Q 2906 -266 2906 331 
L 2906 616 
Q 2728 306 2450 153 
Q 2172 0 1784 0 
Q 1141 0 747 490 
Q 353 981 353 1791 
Q 353 2603 747 3093 
Q 1141 3584 1784 3584 
Q 2172 3584 2450 3431 
Q 2728 3278 2906 2969 
L 2906 3500 
L 3481 3500 
L 3481 434 
z
" transform="scale(0.015625)"/>
       </defs>
       <use xlink:href="#DejaVuSans-24"/>
       <use xlink:href="#DejaVuSans-58" transform="translate(68.40625 0)"/>
       <use xlink:href="#DejaVuSans-4a" transform="translate(131.78125 0)"/>
       <use xlink:href="#DejaVuSans-3" transform="translate(195.265625 0)"/>
       <use xlink:href="#DejaVuSans-15" transform="translate(227.046875 0)"/>
       <use xlink:href="#DejaVuSans-13" transform="translate(290.671875 0)"/>
       <use xlink:href="#DejaVuSans-15" transform="translate(354.296875 0)"/>
       <use xlink:href="#DejaVuSans-14" transform="translate(417.921875 0)"/>
      </g>
     </g>
    </g>
    <g id="xtick_5">
     <g id="line2d_5">
      <path d="M 234.308803 354.837604 
L 234.308803 24.397812 
" clip-path="url(#p08cd632c22)" style="fill: none; stroke-dasharray: 2.96,1.28; stroke-dashoffset: 0; stroke: #cccccc; stroke-width: 0.8"/>
     </g>
     <g id="text_5">
      <!-- Nov 2021 -->
      <g style="fill: #262626" transform="translate(202.139477 398.613207) rotate(-45) scale(0.09 -0.09)">
       <use xlink:href="#DejaVuSans-31"/>
       <use xlink:href="#DejaVuSans-52" transform="translate(74.8125 0)"/>
       <use xlink:href="#DejaVuSans-59" transform="translate(136 0)"/>
       <use xlink:href="#DejaVuSans-3" transform="translate(195.1875 0)"/>
       <use xlink:href="#DejaVuSans-15" transform="translate(226.96875 0)"/>
       <use xlink:href="#DejaVuSans-13" transform="translate(290.59375 0)"/>
       <use xlink:href="#DejaVuSans-15" transform="translate(354.21875 0)"/>
       <use xlink:href="#DejaVuSans-14" transform="translate(417.84375 0)"/>
      </g>
     </g>
    </g>
    <g id="xtick_6">
     <g id="line2d_6">
      <path d="M 274.150949 354.837604 
L 274.150949 24.397812 
" clip-path="url(#p08cd632c22)" style="fill: none; stroke-dasharray: 2.96,1.28; stroke-dashoffset: 0; stroke: #cccccc; stroke-width: 0.8"/>
     </g>
     <g id="text_6">
      <!-- Feb 2022 -->
      <g style="fill: #262626" transform="translate(243.135091 397.460236) rotate(-45) scale(0.09 -0.09)">
       <use xlink:href="#DejaVuSans-29"/>
       <use xlink:href="#DejaVuSans-48" transform="translate(52.046875 0)"/>
       <use xlink:href="#DejaVuSans-45" transform="translate(113.578125 0)"/>
       <use xlink:href="#DejaVuSans-3" transform="translate(177.0625 0)"/>
       <use xlink:href="#DejaVuSans-15" transform="translate(208.84375 0)"/>
       <use xlink:href="#DejaVuSans-13" transform="translate(272.46875 0)"/>
       <use xlink:href="#DejaVuSans-15" transform="translate(336.09375 0)"/>
       <use xlink:href="#DejaVuSans-15" transform="translate(399.71875 0)"/>
      </g>
     </g>
    </g>
    <g id="xtick_7">
     <g id="line2d_7">
      <path d="M 312.693894 354.837604 
L 312.693894 24.397812 
" clip-path="url(#p08cd632c22)" style="fill: none; stroke-dasharray: 2.96,1.28; stroke-dashoffset: 0; stroke: #cccccc; stroke-width: 0.8"/>
     </g>
     <g id="text_7">
      <!-- May 2022 -->
      <g style="fill: #262626" transform="translate(279.788735 399.34904) rotate(-45) scale(0.09 -0.09)">
       <use xlink:href="#DejaVuSans-30"/>
       <use xlink:href="#DejaVuSans-44" transform="translate(86.28125 0)"/>
       <use xlink:href="#DejaVuSans-5c" transform="translate(147.5625 0)"/>
       <use xlink:href="#DejaVuSans-3" transform="translate(206.75 0)"/>
       <use xlink:href="#DejaVuSans-15" transform="translate(238.53125 0)"/>
       <use xlink:href="#DejaVuSans-13" transform="translate(302.15625 0)"/>
       <use xlink:href="#DejaVuSans-15" transform="translate(365.78125 0)"/>
       <use xlink:href="#DejaVuSans-15" transform="translate(429.40625 0)"/>
      </g>
     </g>
    </g>
    <g id="xtick_8">
     <g id="line2d_8">
      <path d="M 352.53604 354.837604 
L 352.53604 24.397812 
" clip-path="url(#p08cd632c22)" style="fill: none; stroke-dasharray: 2.96,1.28; stroke-dashoffset: 0; stroke: #cccccc; stroke-width: 0.8"/>
     </g>
     <g id="text_8">
      <!-- Aug 2022 -->
      <g style="fill: #262626" transform="translate(320.361742 398.618178) rotate(-45) scale(0.09 -0.09)">
       <use xlink:href="#DejaVuSans-24"/>
       <use xlink:href="#DejaVuSans-58" transform="translate(68.40625 0)"/>
       <use xlink:href="#DejaVuSans-4a" transform="translate(131.78125 0)"/>
       <use xlink:href="#DejaVuSans-3" transform="translate(195.265625 0)"/>
       <use xlink:href="#DejaVuSans-15" transform="translate(227.046875 0)"/>
       <use xlink:href="#DejaVuSans-13" transform="translate(290.671875 0)"/>
       <use xlink:href="#DejaVuSans-15" transform="translate(354.296875 0)"/>
       <use xlink:href="#DejaVuSans-15" transform="translate(417.921875 0)"/>
      </g>
     </g>
    </g>
    <g id="xtick_9">
     <g id="line2d_9">
      <path d="M 392.378186 354.837604 
L 392.378186 24.397812 
" clip-path="url(#p08cd632c22)" style="fill: none; stroke-dasharray: 2.96,1.28; stroke-dashoffset: 0; stroke: #cccccc; stroke-width: 0.8"/>
     </g>
     <g id="text_9">
      <!-- Nov 2022 -->
      <g style="fill: #262626" transform="translate(360.20886 398.613207) rotate(-45) scale(0.09 -0.09)">
       <use xlink:href="#DejaVuSans-31"/>
       <use xlink:href="#DejaVuSans-52" transform="translate(74.8125 0)"/>
       <use xlink:href="#DejaVuSans-59" transform="translate(136 0)"/>
       <use xlink:href="#DejaVuSans-3" transform="translate(195.1875 0)"/>
       <use xlink:href="#DejaVuSans-15" transform="translate(226.96875 0)"/>
       <use xlink:href="#DejaVuSans-13" transform="translate(290.59375 0)"/>
       <use xlink:href="#DejaVuSans-15" transform="translate(354.21875 0)"/>
       <use xlink:href="#DejaVuSans-15" transform="translate(417.84375 0)"/>
      </g>
     </g>
    </g>
    <g id="xtick_10">
     <g id="line2d_10">
      <path d="M 432.220332 354.837604 
L 432.220332 24.397812 
" clip-path="url(#p08cd632c22)" style="fill: none; stroke-dasharray: 2.96,1.28; stroke-dashoffset: 0; stroke: #cccccc; stroke-width: 0.8"/>
     </g>
     <g id="text_10">
      <!-- Feb 2023 -->
      <g style="fill: #262626" transform="translate(401.204474 397.460236) rotate(-45) scale(0.09 -0.09)">
       <defs>
        <path id="DejaVuSans-16" d="M 2597 2516 
Q 3050 2419 3304 2112 
Q 3559 1806 3559 1356 
Q 3559 666 3084 287 
Q 2609 -91 1734 -91 
Q 1441 -91 1130 -33 
Q 819 25 488 141 
L 488 750 
Q 750 597 1062 519 
Q 1375 441 1716 441 
Q 2309 441 2620 675 
Q 2931 909 2931 1356 
Q 2931 1769 2642 2001 
Q 2353 2234 1838 2234 
L 1294 2234 
L 1294 2753 
L 1863 2753 
Q 2328 2753 2575 2939 
Q 2822 3125 2822 3475 
Q 2822 3834 2567 4026 
Q 2313 4219 1838 4219 
Q 1578 4219 1281 4162 
Q 984 4106 628 3988 
L 628 4550 
Q 988 4650 1302 4700 
Q 1616 4750 1894 4750 
Q 2613 4750 3031 4423 
Q 3450 4097 3450 3541 
Q 3450 3153 3228 2886 
Q 3006 2619 2597 2516 
z
" transform="scale(0.015625)"/>
       </defs>
       <use xlink:href="#DejaVuSans-29"/>
       <use xlink:href="#DejaVuSans-48" transform="translate(52.046875 0)"/>
       <use xlink:href="#DejaVuSans-45" transform="translate(113.578125 0)"/>
       <use xlink:href="#DejaVuSans-3" transform="translate(177.0625 0)"/>
       <use xlink:href="#DejaVuSans-15" transform="translate(208.84375 0)"/>
       <use xlink:href="#DejaVuSans-13" transform="translate(272.46875 0)"/>
       <use xlink:href="#DejaVuSans-15" transform="translate(336.09375 0)"/>
       <use xlink:href="#DejaVuSans-16" transform="translate(399.71875 0)"/>
      </g>
     </g>
    </g>
    <g id="xtick_11">
     <g id="line2d_11">
      <path d="M 470.763277 354.837604 
L 470.763277 24.397812 
" clip-path="url(#p08cd632c22)" style="fill: none; stroke-dasharray: 2.96,1.28; stroke-dashoffset: 0; stroke: #cccccc; stroke-width: 0.8"/>
     </g>
     <g id="text_11">
      <!-- May 2023 -->
      <g style="fill: #262626" transform="translate(437.858118 399.34904) rotate(-45) scale(0.09 -0.09)">
       <use xlink:href="#DejaVuSans-30"/>
       <use xlink:href="#DejaVuSans-44" transform="translate(86.28125 0)"/>
       <use xlink:href="#DejaVuSans-5c" transform="translate(147.5625 0)"/>
       <use xlink:href="#DejaVuSans-3" transform="translate(206.75 0)"/>
       <use xlink:href="#DejaVuSans-15" transform="translate(238.53125 0)"/>
       <use xlink:href="#DejaVuSans-13" transform="translate(302.15625 0)"/>
       <use xlink:href="#DejaVuSans-15" transform="translate(365.78125 0)"/>
       <use xlink:href="#DejaVuSans-16" transform="translate(429.40625 0)"/>
      </g>
     </g>
    </g>
    <g id="xtick_12">
     <g id="line2d_12">
      <path d="M 510.605423 354.837604 
L 510.605423 24.397812 
" clip-path="url(#p08cd632c22)" style="fill: none; stroke-dasharray: 2.96,1.28; stroke-dashoffset: 0; stroke: #cccccc; stroke-width: 0.8"/>
     </g>
     <g id="text_12">
      <!-- Aug 2023 -->
      <g style="fill: #262626" transform="translate(478.431125 398.618178) rotate(-45) scale(0.09 -0.09)">
       <use xlink:href="#DejaVuSans-24"/>
       <use xlink:href="#DejaVuSans-58" transform="translate(68.40625 0)"/>
       <use xlink:href="#DejaVuSans-4a" transform="translate(131.78125 0)"/>
       <use xlink:href="#DejaVuSans-3" transform="translate(195.265625 0)"/>
       <use xlink:href="#DejaVuSans-15" transform="translate(227.046875 0)"/>
       <use xlink:href="#DejaVuSans-13" transform="translate(290.671875 0)"/>
       <use xlink:href="#DejaVuSans-15" transform="translate(354.296875 0)"/>
       <use xlink:href="#DejaVuSans-16" transform="translate(417.921875 0)"/>
      </g>
     </g>
    </g>
    <g id="xtick_13">
     <g id="line2d_13">
      <path d="M 550.447568 354.837604 
L 550.447568 24.397812 
" clip-path="url(#p08cd632c22)" style="fill: none; stroke-dasharray: 2.96,1.28; stroke-dashoffset: 0; stroke: #cccccc; stroke-width: 0.8"/>
     </g>
     <g id="text_13">
      <!-- Nov 2023 -->
      <g style="fill: #262626" transform="translate(518.278243 398.613207) rotate(-45) scale(0.09 -0.09)">
       <use xlink:href="#DejaVuSans-31"/>
       <use xlink:href="#DejaVuSans-52" transform="translate(74.8125 0)"/>
       <use xlink:href="#DejaVuSans-59" transform="translate(136 0)"/>
       <use xlink:href="#DejaVuSans-3" transform="translate(195.1875 0)"/>
       <use xlink:href="#DejaVuSans-15" transform="translate(226.96875 0)"/>
       <use xlink:href="#DejaVuSans-13" transform="translate(290.59375 0)"/>
       <use xlink:href="#DejaVuSans-15" transform="translate(354.21875 0)"/>
       <use xlink:href="#DejaVuSans-16" transform="translate(417.84375 0)"/>
      </g>
     </g>
    </g>
    <g id="xtick_14">
     <g id="line2d_14">
      <path d="M 590.289714 354.837604 
L 590.289714 24.397812 
" clip-path="url(#p08cd632c22)" style="fill: none; stroke-dasharray: 2.96,1.28; stroke-dashoffset: 0; stroke: #cccccc; stroke-width: 0.8"/>
     </g>
     <g id="text_14">
      <!-- Feb 2024 -->
      <g style="fill: #262626" transform="translate(559.273856 397.460236) rotate(-45) scale(0.09 -0.09)">
       <defs>
        <path id="DejaVuSans-17" d="M 2419 4116 
L 825 1625 
L 2419 1625 
L 2419 4116 
z
M 2253 4666 
L 3047 4666 
L 3047 1625 
L 3713 1625 
L 3713 1100 
L 3047 1100 
L 3047 0 
L 2419 0 
L 2419 1100 
L 313 1100 
L 313 1709 
L 2253 4666 
z
" transform="scale(0.015625)"/>
       </defs>
       <use xlink:href="#DejaVuSans-29"/>
       <use xlink:href="#DejaVuSans-48" transform="translate(52.046875 0)"/>
       <use xlink:href="#DejaVuSans-45" transform="translate(113.578125 0)"/>
       <use xlink:href="#DejaVuSans-3" transform="translate(177.0625 0)"/>
       <use xlink:href="#DejaVuSans-15" transform="translate(208.84375 0)"/>
       <use xlink:href="#DejaVuSans-13" transform="translate(272.46875 0)"/>
       <use xlink:href="#DejaVuSans-15" transform="translate(336.09375 0)"/>
       <use xlink:href="#DejaVuSans-17" transform="translate(399.71875 0)"/>
      </g>
     </g>
    </g>
    <g id="xtick_15">
     <g id="line2d_15">
      <path d="M 629.265726 354.837604 
L 629.265726 24.397812 
" clip-path="url(#p08cd632c22)" style="fill: none; stroke-dasharray: 2.96,1.28; stroke-dashoffset: 0; stroke: #cccccc; stroke-width: 0.8"/>
     </g>
     <g id="text_15">
      <!-- May 2024 -->
      <g style="fill: #262626" transform="translate(596.360568 399.34904) rotate(-45) scale(0.09 -0.09)">
       <use xlink:href="#DejaVuSans-30"/>
       <use xlink:href="#DejaVuSans-44" transform="translate(86.28125 0)"/>
       <use xlink:href="#DejaVuSans-5c" transform="translate(147.5625 0)"/>
       <use xlink:href="#DejaVuSans-3" transform="translate(206.75 0)"/>
       <use xlink:href="#DejaVuSans-15" transform="translate(238.53125 0)"/>
       <use xlink:href="#DejaVuSans-13" transform="translate(302.15625 0)"/>
       <use xlink:href="#DejaVuSans-15" transform="translate(365.78125 0)"/>
       <use xlink:href="#DejaVuSans-17" transform="translate(429.40625 0)"/>
      </g>
     </g>
    </g>
    <g id="xtick_16">
     <g id="line2d_16">
      <path d="M 669.107872 354.837604 
L 669.107872 24.397812 
" clip-path="url(#p08cd632c22)" style="fill: none; stroke-dasharray: 2.96,1.28; stroke-dashoffset: 0; stroke: #cccccc; stroke-width: 0.8"/>
     </g>
     <g id="text_16">
      <!-- Aug 2024 -->
      <g style="fill: #262626" transform="translate(636.933574 398.618178) rotate(-45) scale(0.09 -0.09)">
       <use xlink:href="#DejaVuSans-24"/>
       <use xlink:href="#DejaVuSans-58" transform="translate(68.40625 0)"/>
       <use xlink:href="#DejaVuSans-4a" transform="translate(131.78125 0)"/>
       <use xlink:href="#DejaVuSans-3" transform="translate(195.265625 0)"/>
       <use xlink:href="#DejaVuSans-15" transform="translate(227.046875 0)"/>
       <use xlink:href="#DejaVuSans-13" transform="translate(290.671875 0)"/>
       <use xlink:href="#DejaVuSans-15" transform="translate(354.296875 0)"/>
       <use xlink:href="#DejaVuSans-17" transform="translate(417.921875 0)"/>
      </g>
     </g>
    </g>
    <g id="xtick_17">
     <g id="line2d_17">
      <path d="M 708.950018 354.837604 
L 708.950018 24.397812 
" clip-path="url(#p08cd632c22)" style="fill: none; stroke-dasharray: 2.96,1.28; stroke-dashoffset: 0; stroke: #cccccc; stroke-width: 0.8"/>
     </g>
     <g id="text_17">
      <!-- Nov 2024 -->
      <g style="fill: #262626" transform="translate(676.780692 398.613207) rotate(-45) scale(0.09 -0.09)">
       <use xlink:href="#DejaVuSans-31"/>
       <use xlink:href="#DejaVuSans-52" transform="translate(74.8125 0)"/>
       <use xlink:href="#DejaVuSans-59" transform="translate(136 0)"/>
       <use xlink:href="#DejaVuSans-3" transform="translate(195.1875 0)"/>
       <use xlink:href="#DejaVuSans-15" transform="translate(226.96875 0)"/>
       <use xlink:href="#DejaVuSans-13" transform="translate(290.59375 0)"/>
       <use xlink:href="#DejaVuSans-15" transform="translate(354.21875 0)"/>
       <use xlink:href="#DejaVuSans-17" transform="translate(417.84375 0)"/>
      </g>
     </g>
    </g>
    <g id="xtick_18">
     <g id="line2d_18">
      <path d="M 748.792164 354.837604 
L 748.792164 24.397812 
" clip-path="url(#p08cd632c22)" style="fill: none; stroke-dasharray: 2.96,1.28; stroke-dashoffset: 0; stroke: #cccccc; stroke-width: 0.8"/>
     </g>
     <g id="text_18">
      <!-- Feb 2025 -->
      <g style="fill: #262626" transform="translate(717.776306 397.460236) rotate(-45) scale(0.09 -0.09)">
       <defs>
        <path id="DejaVuSans-18" d="M 691 4666 
L 3169 4666 
L 3169 4134 
L 1269 4134 
L 1269 2991 
Q 1406 3038 1543 3061 
Q 1681 3084 1819 3084 
Q 2600 3084 3056 2656 
Q 3513 2228 3513 1497 
Q 3513 744 3044 326 
Q 2575 -91 1722 -91 
Q 1428 -91 1123 -41 
Q 819 9 494 109 
L 494 744 
Q 775 591 1075 516 
Q 1375 441 1709 441 
Q 2250 441 2565 725 
Q 2881 1009 2881 1497 
Q 2881 1984 2565 2268 
Q 2250 2553 1709 2553 
Q 1456 2553 1204 2497 
Q 953 2441 691 2322 
L 691 4666 
z
" transform="scale(0.015625)"/>
       </defs>
       <use xlink:href="#DejaVuSans-29"/>
       <use xlink:href="#DejaVuSans-48" transform="translate(52.046875 0)"/>
       <use xlink:href="#DejaVuSans-45" transform="translate(113.578125 0)"/>
       <use xlink:href="#DejaVuSans-3" transform="translate(177.0625 0)"/>
       <use xlink:href="#DejaVuSans-15" transform="translate(208.84375 0)"/>
       <use xlink:href="#DejaVuSans-13" transform="translate(272.46875 0)"/>
       <use xlink:href="#DejaVuSans-15" transform="translate(336.09375 0)"/>
       <use xlink:href="#DejaVuSans-18" transform="translate(399.71875 0)"/>
      </g>
     </g>
    </g>
    <g id="xtick_19">
     <g id="line2d_19">
      <path d="M 787.335109 354.837604 
L 787.335109 24.397812 
" clip-path="url(#p08cd632c22)" style="fill: none; stroke-dasharray: 2.96,1.28; stroke-dashoffset: 0; stroke: #cccccc; stroke-width: 0.8"/>
     </g>
     <g id="text_19">
      <!-- May 2025 -->
      <g style="fill: #262626" transform="translate(754.42995 399.34904) rotate(-45) scale(0.09 -0.09)">
       <use xlink:href="#DejaVuSans-30"/>
       <use xlink:href="#DejaVuSans-44" transform="translate(86.28125 0)"/>
       <use xlink:href="#DejaVuSans-5c" transform="translate(147.5625 0)"/>
       <use xlink:href="#DejaVuSans-3" transform="translate(206.75 0)"/>
       <use xlink:href="#DejaVuSans-15" transform="translate(238.53125 0)"/>
       <use xlink:href="#DejaVuSans-13" transform="translate(302.15625 0)"/>
       <use xlink:href="#DejaVuSans-15" transform="translate(365.78125 0)"/>
       <use xlink:href="#DejaVuSans-18" transform="translate(429.40625 0)"/>
      </g>
     </g>
    </g>
    <g id="xtick_20">
     <g id="line2d_20">
      <path d="M 827.177255 354.837604 
L 827.177255 24.397812 
" clip-path="url(#p08cd632c22)" style="fill: none; stroke-dasharray: 2.96,1.28; stroke-dashoffset: 0; stroke: #cccccc; stroke-width: 0.8"/>
     </g>
     <g id="text_20">
      <!-- Aug 2025 -->
      <g style="fill: #262626" transform="translate(795.002957 398.618178) rotate(-45) scale(0.09 -0.09)">
       <use xlink:href="#DejaVuSans-24"/>
       <use xlink:href="#DejaVuSans-58" transform="translate(68.40625 0)"/>
       <use xlink:href="#DejaVuSans-4a" transform="translate(131.78125 0)"/>
       <use xlink:href="#DejaVuSans-3" transform="translate(195.265625 0)"/>
       <use xlink:href="#DejaVuSans-15" transform="translate(227.046875 0)"/>
       <use xlink:href="#DejaVuSans-13" transform="translate(290.671875 0)"/>
       <use xlink:href="#DejaVuSans-15" transform="translate(354.296875 0)"/>
       <use xlink:href="#DejaVuSans-18" transform="translate(417.921875 0)"/>
      </g>
     </g>
    </g>
    <g id="xtick_21">
     <g id="line2d_21">
      <path d="M 867.0194 354.837604 
L 867.0194 24.397812 
" clip-path="url(#p08cd632c22)" style="fill: none; stroke-dasharray: 2.96,1.28; stroke-dashoffset: 0; stroke: #cccccc; stroke-width: 0.8"/>
     </g>
     <g id="text_21">
      <!-- Nov 2025 -->
      <g style="fill: #262626" transform="translate(834.850075 398.613207) rotate(-45) scale(0.09 -0.09)">
       <use xlink:href="#DejaVuSans-31"/>
       <use xlink:href="#DejaVuSans-52" transform="translate(74.8125 0)"/>
       <use xlink:href="#DejaVuSans-59" transform="translate(136 0)"/>
       <use xlink:href="#DejaVuSans-3" transform="translate(195.1875 0)"/>
       <use xlink:href="#DejaVuSans-15" transform="translate(226.96875 0)"/>
       <use xlink:href="#DejaVuSans-13" transform="translate(290.59375 0)"/>
       <use xlink:href="#DejaVuSans-15" transform="translate(354.21875 0)"/>
       <use xlink:href="#DejaVuSans-18" transform="translate(417.84375 0)"/>
      </g>
     </g>
    </g>
    <g id="xtick_22">
     <g id="line2d_22">
      <path d="M 906.861546 354.837604 
L 906.861546 24.397812 
" clip-path="url(#p08cd632c22)" style="fill: none; stroke-dasharray: 2.96,1.28; stroke-dashoffset: 0; stroke: #cccccc; stroke-width: 0.8"/>
     </g>
     <g id="text_22">
      <!-- Feb 2026 -->
      <g style="fill: #262626" transform="translate(875.845688 397.460236) rotate(-45) scale(0.09 -0.09)">
       <defs>
        <path id="DejaVuSans-19" d="M 2113 2584 
Q 1688 2584 1439 2293 
Q 1191 2003 1191 1497 
Q 1191 994 1439 701 
Q 1688 409 2113 409 
Q 2538 409 2786 701 
Q 3034 994 3034 1497 
Q 3034 2003 2786 2293 
Q 2538 2584 2113 2584 
z
M 3366 4563 
L 3366 3988 
Q 3128 4100 2886 4159 
Q 2644 4219 2406 4219 
Q 1781 4219 1451 3797 
Q 1122 3375 1075 2522 
Q 1259 2794 1537 2939 
Q 1816 3084 2150 3084 
Q 2853 3084 3261 2657 
Q 3669 2231 3669 1497 
Q 3669 778 3244 343 
Q 2819 -91 2113 -91 
Q 1303 -91 875 529 
Q 447 1150 447 2328 
Q 447 3434 972 4092 
Q 1497 4750 2381 4750 
Q 2619 4750 2861 4703 
Q 3103 4656 3366 4563 
z
" transform="scale(0.015625)"/>
       </defs>
       <use xlink:href="#DejaVuSans-29"/>
       <use xlink:href="#DejaVuSans-48" transform="translate(52.046875 0)"/>
       <use xlink:href="#DejaVuSans-45" transform="translate(113.578125 0)"/>
       <use xlink:href="#DejaVuSans-3" transform="translate(177.0625 0)"/>
       <use xlink:href="#DejaVuSans-15" transform="translate(208.84375 0)"/>
       <use xlink:href="#DejaVuSans-13" transform="translate(272.46875 0)"/>
       <use xlink:href="#DejaVuSans-15" transform="translate(336.09375 0)"/>
       <use xlink:href="#DejaVuSans-19" transform="translate(399.71875 0)"/>
      </g>
     </g>
    </g>
    <g id="text_23">
     <!-- Mois -->
     <g style="fill: #262626" transform="translate(478.830044 413.236163) scale(0.11 -0.11)">
      <defs>
       <path id="DejaVuSans-4c" d="M 603 3500 
L 1178 3500 
L 1178 0 
L 603 0 
L 603 3500 
z
M 603 4863 
L 1178 4863 
L 1178 4134 
L 603 4134 
L 603 4863 
z
" transform="scale(0.015625)"/>
       <path id="DejaVuSans-56" d="M 2834 3397 
L 2834 2853 
Q 2591 2978 2328 3040 
Q 2066 3103 1784 3103 
Q 1356 3103 1142 2972 
Q 928 2841 928 2578 
Q 928 2378 1081 2264 
Q 1234 2150 1697 2047 
L 1894 2003 
Q 2506 1872 2764 1633 
Q 3022 1394 3022 966 
Q 3022 478 2636 193 
Q 2250 -91 1575 -91 
Q 1294 -91 989 -36 
Q 684 19 347 128 
L 347 722 
Q 666 556 975 473 
Q 1284 391 1588 391 
Q 1994 391 2212 530 
Q 2431 669 2431 922 
Q 2431 1156 2273 1281 
Q 2116 1406 1581 1522 
L 1381 1569 
Q 847 1681 609 1914 
Q 372 2147 372 2553 
Q 372 3047 722 3315 
Q 1072 3584 1716 3584 
Q 2034 3584 2315 3537 
Q 2597 3491 2834 3397 
z
" transform="scale(0.015625)"/>
      </defs>
      <use xlink:href="#DejaVuSans-30"/>
      <use xlink:href="#DejaVuSans-52" transform="translate(86.28125 0)"/>
      <use xlink:href="#DejaVuSans-4c" transform="translate(147.46875 0)"/>
      <use xlink:href="#DejaVuSans-56" transform="translate(175.25 0)"/>
     </g>
    </g>
   </g>
   <g id="matplotlib.axis_2">
    <g id="ytick_1">
     <g id="line2d_23">
      <path d="M 63.78875 323.948157 
L 918.87915 323.948157 
" clip-path="url(#p08cd632c22)" style="fill: none; stroke-dasharray: 2.96,1.28; stroke-dashoffset: 0; stroke: #cccccc; stroke-width: 0.8"/>
     </g>
     <g id="text_24">
      <!-- 1 400 € -->
      <g style="fill: #262626" transform="translate(22.2 327.367102) scale(0.09 -0.09)">
       <defs>
        <path id="DejaVuSans-b11" transform="scale(0.015625)"/>
        <path id="DejaVuSans-b83" d="M 3647 4306 
L 3647 3641 
Q 3363 3969 3098 4109 
Q 2834 4250 2516 4250 
Q 2025 4250 1709 3937 
Q 1394 3625 1294 3041 
L 3097 3041 
L 2925 2656 
L 1244 2656 
Q 1238 2581 1236 2509 
Q 1234 2438 1234 2328 
Q 1234 2228 1236 2156 
Q 1238 2084 1244 2009 
L 2638 2009 
L 2463 1625 
L 1294 1625 
Q 1394 1041 1709 725 
Q 2025 409 2516 409 
Q 2834 409 3098 550 
Q 3363 691 3647 1019 
L 3647 359 
Q 3369 134 3080 21 
Q 2791 -91 2491 -91 
Q 1750 -91 1267 362 
Q 784 816 659 1625 
L 0 1625 
L 172 2009 
L 606 2009 
Q 606 2081 604 2154 
Q 603 2228 603 2328 
Q 603 2438 604 2511 
Q 606 2584 606 2656 
L 0 2656 
L 172 3041 
L 659 3041 
Q 784 3844 1268 4297 
Q 1753 4750 2491 4750 
Q 2797 4750 3086 4639 
Q 3375 4528 3647 4306 
z
" transform="scale(0.015625)"/>
       </defs>
       <use xlink:href="#DejaVuSans-14"/>
       <use xlink:href="#DejaVuSans-b11" transform="translate(63.625 0)"/>
       <use xlink:href="#DejaVuSans-17" transform="translate(83.59375 0)"/>
       <use xlink:href="#DejaVuSans-13" transform="translate(147.21875 0)"/>
       <use xlink:href="#DejaVuSans-13" transform="translate(210.84375 0)"/>
       <use xlink:href="#DejaVuSans-3" transform="translate(274.46875 0)"/>
       <use xlink:href="#DejaVuSans-b83" transform="translate(306.25 0)"/>
      </g>
     </g>
    </g>
    <g id="ytick_2">
     <g id="line2d_24">
      <path d="M 63.78875 280.742749 
L 918.87915 280.742749 
" clip-path="url(#p08cd632c22)" style="fill: none; stroke-dasharray: 2.96,1.28; stroke-dashoffset: 0; stroke: #cccccc; stroke-width: 0.8"/>
     </g>
     <g id="text_25">
      <!-- 1 600 € -->
      <g style="fill: #262626" transform="translate(22.2 284.161694) scale(0.09 -0.09)">
       <use xlink:href="#DejaVuSans-14"/>
       <use xlink:href="#DejaVuSans-b11" transform="translate(63.625 0)"/>
       <use xlink:href="#DejaVuSans-19" transform="translate(83.59375 0)"/>
       <use xlink:href="#DejaVuSans-13" transform="translate(147.21875 0)"/>
       <use xlink:href="#DejaVuSans-13" transform="translate(210.84375 0)"/>
       <use xlink:href="#DejaVuSans-3" transform="translate(274.46875 0)"/>
       <use xlink:href="#DejaVuSans-b83" transform="translate(306.25 0)"/>
      </g>
     </g>
    </g>
    <g id="ytick_3">
     <g id="line2d_25">
      <path d="M 63.78875 237.53734 
L 918.87915 237.53734 
" clip-path="url(#p08cd632c22)" style="fill: none; stroke-dasharray: 2.96,1.28; stroke-dashoffset: 0; stroke: #cccccc; stroke-width: 0.8"/>
     </g>
     <g id="text_26">
      <!-- 1 800 € -->
      <g style="fill: #262626" transform="translate(22.2 240.956286) scale(0.09 -0.09)">
       <defs>
        <path id="DejaVuSans-1b" d="M 2034 2216 
Q 1584 2216 1326 1975 
Q 1069 1734 1069 1313 
Q 1069 891 1326 650 
Q 1584 409 2034 409 
Q 2484 409 2743 651 
Q 3003 894 3003 1313 
Q 3003 1734 2745 1975 
Q 2488 2216 2034 2216 
z
M 1403 2484 
Q 997 2584 770 2862 
Q 544 3141 544 3541 
Q 544 4100 942 4425 
Q 1341 4750 2034 4750 
Q 2731 4750 3128 4425 
Q 3525 4100 3525 3541 
Q 3525 3141 3298 2862 
Q 3072 2584 2669 2484 
Q 3125 2378 3379 2068 
Q 3634 1759 3634 1313 
Q 3634 634 3220 271 
Q 2806 -91 2034 -91 
Q 1263 -91 848 271 
Q 434 634 434 1313 
Q 434 1759 690 2068 
Q 947 2378 1403 2484 
z
M 1172 3481 
Q 1172 3119 1398 2916 
Q 1625 2713 2034 2713 
Q 2441 2713 2670 2916 
Q 2900 3119 2900 3481 
Q 2900 3844 2670 4047 
Q 2441 4250 2034 4250 
Q 1625 4250 1398 4047 
Q 1172 3844 1172 3481 
z
" transform="scale(0.015625)"/>
       </defs>
       <use xlink:href="#DejaVuSans-14"/>
       <use xlink:href="#DejaVuSans-b11" transform="translate(63.625 0)"/>
       <use xlink:href="#DejaVuSans-1b" transform="translate(83.59375 0)"/>
       <use xlink:href="#DejaVuSans-13" transform="translate(147.21875 0)"/>
       <use xlink:href="#DejaVuSans-13" transform="translate(210.84375 0)"/>
       <use xlink:href="#DejaVuSans-3" transform="translate(274.46875 0)"/>
       <use xlink:href="#DejaVuSans-b83" transform="translate(306.25 0)"/>
      </g>
     </g>
    </g>
    <g id="ytick_4">
     <g id="line2d_26">
      <path d="M 63.78875 194.331932 
L 918.87915 194.331932 
" clip-path="url(#p08cd632c22)" style="fill: none; stroke-dasharray: 2.96,1.28; stroke-dashoffset: 0; stroke: #cccccc; stroke-width: 0.8"/>
     </g>
     <g id="text_27">
      <!-- 2 000 € -->
      <g style="fill: #262626" transform="translate(22.2 197.750877) scale(0.09 -0.09)">
       <use xlink:href="#DejaVuSans-15"/>
       <use xlink:href="#DejaVuSans-b11" transform="translate(63.625 0)"/>
       <use xlink:href="#DejaVuSans-13" transform="translate(83.59375 0)"/>
       <use xlink:href="#DejaVuSans-13" transform="translate(147.21875 0)"/>
       <use xlink:href="#DejaVuSans-13" transform="translate(210.84375 0)"/>
       <use xlink:href="#DejaVuSans-3" transform="translate(274.46875 0)"/>
       <use xlink:href="#DejaVuSans-b83" transform="translate(306.25 0)"/>
      </g>
     </g>
    </g>
    <g id="ytick_5">
     <g id="line2d_27">
      <path d="M 63.78875 151.126523 
L 918.87915 151.126523 
" clip-path="url(#p08cd632c22)" style="fill: none; stroke-dasharray: 2.96,1.28; stroke-dashoffset: 0; stroke: #cccccc; stroke-width: 0.8"/>
     </g>
     <g id="text_28">
      <!-- 2 200 € -->
      <g style="fill: #262626" transform="translate(22.2 154.545469) scale(0.09 -0.09)">
       <use xlink:href="#DejaVuSans-15"/>
       <use xlink:href="#DejaVuSans-b11" transform="translate(63.625 0)"/>
       <use xlink:href="#DejaVuSans-15" transform="translate(83.59375 0)"/>
       <use xlink:href="#DejaVuSans-13" transform="translate(147.21875 0)"/>
       <use xlink:href="#DejaVuSans-13" transform="translate(210.84375 0)"/>
       <use xlink:href="#DejaVuSans-3" transform="translate(274.46875 0)"/>
       <use xlink:href="#DejaVuSans-b83" transform="translate(306.25 0)"/>
      </g>
     </g>
    </g>
    <g id="ytick_6">
     <g id="line2d_28">
      <path d="M 63.78875 107.921115 
L 918.87915 107.921115 
" clip-path="url(#p08cd632c22)" style="fill: none; stroke-dasharray: 2.96,1.28; stroke-dashoffset: 0; stroke: #cccccc; stroke-width: 0.8"/>
     </g>
     <g id="text_29">
      <!-- 2 400 € -->
      <g style="fill: #262626" transform="translate(22.2 111.34006) scale(0.09 -0.09)">
       <use xlink:href="#DejaVuSans-15"/>
       <use xlink:href="#DejaVuSans-b11" transform="translate(63.625 0)"/>
       <use xlink:href="#DejaVuSans-17" transform="translate(83.59375 0)"/>
       <use xlink:href="#DejaVuSans-13" transform="translate(147.21875 0)"/>
       <use xlink:href="#DejaVuSans-13" transform="translate(210.84375 0)"/>
       <use xlink:href="#DejaVuSans-3" transform="translate(274.46875 0)"/>
       <use xlink:href="#DejaVuSans-b83" transform="translate(306.25 0)"/>
      </g>
     </g>
    </g>
    <g id="ytick_7">
     <g id="line2d_29">
      <path d="M 63.78875 64.715707 
L 918.87915 64.715707 
" clip-path="url(#p08cd632c22)" style="fill: none; stroke-dasharray: 2.96,1.28; stroke-dashoffset: 0; stroke: #cccccc; stroke-width: 0.8"/>
     </g>
     <g id="text_30">
      <!-- 2 600 € -->
      <g style="fill: #262626" transform="translate(22.2 68.134652) scale(0.09 -0.09)">
       <use xlink:href="#DejaVuSans-15"/>
       <use xlink:href="#DejaVuSans-b11" transform="translate(63.625 0)"/>
       <use xlink:href="#DejaVuSans-19" transform="translate(83.59375 0)"/>
       <use xlink:href="#DejaVuSans-13" transform="translate(147.21875 0)"/>
       <use xlink:href="#DejaVuSans-13" transform="translate(210.84375 0)"/>
       <use xlink:href="#DejaVuSans-3" transform="translate(274.46875 0)"/>
       <use xlink:href="#DejaVuSans-b83" transform="translate(306.25 0)"/>
      </g>
     </g>
    </g>
    <g id="text_31">
     <!-- € / m² -->
     <g style="fill: #262626" transform="translate(15.557422 206.028333) rotate(-90) scale(0.11 -0.11)">
      <defs>
       <path id="DejaVuSans-12" d="M 1625 4666 
L 2156 4666 
L 531 -594 
L 0 -594 
L 1625 4666 
z
" transform="scale(0.015625)"/>
       <path id="DejaVuSans-50" d="M 3328 2828 
Q 3544 3216 3844 3400 
Q 4144 3584 4550 3584 
Q 5097 3584 5394 3201 
Q 5691 2819 5691 2113 
L 5691 0 
L 5113 0 
L 5113 2094 
Q 5113 2597 4934 2840 
Q 4756 3084 4391 3084 
Q 3944 3084 3684 2787 
Q 3425 2491 3425 1978 
L 3425 0 
L 2847 0 
L 2847 2094 
Q 2847 2600 2669 2842 
Q 2491 3084 2119 3084 
Q 1678 3084 1418 2786 
Q 1159 2488 1159 1978 
L 1159 0 
L 581 0 
L 581 3500 
L 1159 3500 
L 1159 2956 
Q 1356 3278 1631 3431 
Q 1906 3584 2284 3584 
Q 2666 3584 2933 3390 
Q 3200 3197 3328 2828 
z
" transform="scale(0.015625)"/>
       <path id="DejaVuSans-74" d="M 838 2444 
L 2163 2444 
L 2163 2088 
L 294 2088 
L 294 2431 
Q 400 2528 597 2703 
Q 1672 3656 1672 3950 
Q 1672 4156 1509 4282 
Q 1347 4409 1081 4409 
Q 919 4409 728 4354 
Q 538 4300 313 4191 
L 313 4575 
Q 553 4663 761 4706 
Q 969 4750 1147 4750 
Q 1600 4750 1872 4544 
Q 2144 4338 2144 4000 
Q 2144 3566 1109 2678 
Q 934 2528 838 2444 
z
" transform="scale(0.015625)"/>
      </defs>
      <use xlink:href="#DejaVuSans-b83"/>
      <use xlink:href="#DejaVuSans-3" transform="translate(63.625 0)"/>
      <use xlink:href="#DejaVuSans-12" transform="translate(95.40625 0)"/>
      <use xlink:href="#DejaVuSans-3" transform="translate(129.09375 0)"/>
      <use xlink:href="#DejaVuSans-50" transform="translate(160.875 0)"/>
      <use xlink:href="#DejaVuSans-74" transform="translate(258.28125 0)"/>
     </g>
    </g>
   </g>
   <g id="FillBetweenPolyCollection_1">
    <defs>
     <path id="m4ae1e62404" d="M 102.656495 -218.481442 
L 102.656495 -83.261128 
L 116.081566 -95.58272 
L 128.207437 -90.729532 
L 141.632508 -113.064328 
L 154.624512 -120.164796 
L 168.049583 -113.192252 
L 181.041587 -117.725412 
L 194.466657 -128.73429 
L 207.891728 -122.11071 
L 220.883732 -145.589964 
L 234.308803 -124.365322 
L 247.300807 -119.571852 
L 260.725878 -144.91542 
L 274.150949 -150.264713 
L 286.276819 -156.460837 
L 299.70189 -146.441484 
L 312.693894 -160.504032 
L 326.118965 -165.309269 
L 339.110969 -185.541401 
L 352.53604 -182.356387 
L 365.961111 -170.30949 
L 378.953115 -166.682125 
L 392.378186 -161.488575 
L 405.37019 -166.751549 
L 418.795261 -167.626626 
L 432.220332 -162.616082 
L 444.346202 -177.853892 
L 457.771273 -182.105104 
L 470.763277 -141.242185 
L 484.188348 -145.110748 
L 497.180352 -137.250446 
L 510.605423 -156.737795 
L 524.030494 -143.351504 
L 537.022498 -140.488393 
L 550.447568 -174.027678 
L 563.439572 -140.900036 
L 576.864643 -173.893125 
L 590.289714 -126.389734 
L 602.848651 -157.087154 
L 616.273722 -132.734791 
L 629.265726 -158.524256 
L 642.690797 -155.121266 
L 655.682801 -146.980654 
L 669.107872 -148.139704 
L 682.532943 -135.242567 
L 695.524947 -152.00539 
L 708.950018 -145.563226 
L 721.942022 -158.953524 
L 735.367093 -165.558448 
L 748.792164 -128.33389 
L 760.918034 -144.052114 
L 774.343105 -146.768336 
L 787.335109 -149.660816 
L 800.76018 -138.56884 
L 813.752184 -169.055127 
L 827.177255 -179.0263 
L 840.602326 -180.7408 
L 853.59433 -138.229618 
L 867.0194 -173.10348 
L 880.011405 -166.53885 
L 880.011405 -302.985572 
L 880.011405 -302.985572 
L 867.0194 -358.363035 
L 853.59433 -298.671147 
L 840.602326 -322.548025 
L 827.177255 -360.942462 
L 813.752184 -383.660938 
L 800.76018 -293.531235 
L 787.335109 -263.851204 
L 774.343105 -275.966836 
L 760.918034 -276.024667 
L 748.792164 -281.89176 
L 735.367093 -361.830776 
L 721.942022 -317.214053 
L 708.950018 -342.793228 
L 695.524947 -301.858885 
L 682.532943 -275.038318 
L 669.107872 -264.611493 
L 655.682801 -290.468821 
L 642.690797 -308.885873 
L 629.265726 -341.147471 
L 616.273722 -257.765367 
L 602.848651 -299.499852 
L 590.289714 -274.231724 
L 576.864643 -326.403882 
L 563.439572 -278.092272 
L 550.447568 -332.992417 
L 537.022498 -282.316097 
L 524.030494 -292.345504 
L 510.605423 -320.744155 
L 497.180352 -283.643791 
L 484.188348 -317.820973 
L 470.763277 -275.038318 
L 457.771273 -295.664738 
L 444.346202 -381.379176 
L 432.220332 -306.381527 
L 418.795261 -364.991958 
L 405.37019 -291.893175 
L 392.378186 -308.7037 
L 378.953115 -306.502697 
L 365.961111 -294.39765 
L 352.53604 -310.357025 
L 339.110969 -358.276624 
L 326.118965 -306.219014 
L 312.693894 -289.825884 
L 299.70189 -265.822564 
L 286.276819 -313.588858 
L 274.150949 -285.596031 
L 260.725878 -280.126214 
L 247.300807 -273.883402 
L 234.308803 -276.63742 
L 220.883732 -290.936412 
L 207.891728 -251.72395 
L 194.466657 -251.914927 
L 181.041587 -246.879753 
L 168.049583 -259.266255 
L 154.624512 -261.514547 
L 141.632508 -274.630053 
L 128.207437 -232.019946 
L 116.081566 -224.273574 
L 102.656495 -218.481442 
z
" style="stroke: #1f77b4; stroke-opacity: 0.12; stroke-width: 0.8"/>
    </defs>
    <g clip-path="url(#p08cd632c22)">
     <use xlink:href="#m4ae1e62404" x="0" y="423.078741" style="fill: #1f77b4; fill-opacity: 0.12; stroke: #1f77b4; stroke-opacity: 0.12; stroke-width: 0.8"/>
    </g>
   </g>
   <g id="PathCollection_1"/>
   <g id="line2d_30">
    <path d="M 102.656495 277.521474 
L 116.081566 267.478292 
L 128.207437 266.808198 
L 141.632508 260.138787 
L 154.624512 255.621209 
L 168.049583 253.209598 
L 181.041587 251.483269 
L 194.466657 247.044955 
L 207.891728 241.710082 
L 220.883732 237.745633 
L 234.308803 230.894737 
L 247.300807 227.279564 
L 260.725878 227.279564 
L 274.150949 226.375776 
L 286.276819 225.460117 
L 299.70189 220.749588 
L 312.693894 212.050435 
L 326.118965 212.050435 
L 339.110969 199.26448 
L 352.53604 195.132488 
L 365.961111 185.55473 
L 378.953115 194.830375 
L 392.378186 198.249448 
L 405.37019 196.043785 
L 418.795261 196.043785 
L 432.220332 190.93644 
L 444.346202 190.339124 
L 457.771273 190.339124 
L 470.763277 206.827235 
L 484.188348 215.247972 
L 497.180352 220.421244 
L 510.605423 214.96189 
L 524.030494 211.686186 
L 537.022498 206.024375 
L 550.447568 204.301892 
L 563.439572 207.636036 
L 576.864643 207.636036 
L 590.289714 207.636036 
L 602.848651 211.73411 
L 616.273722 210.255532 
L 629.265726 198.25403 
L 642.690797 199.225283 
L 655.682801 199.225283 
L 669.107872 210.026635 
L 682.532943 210.753267 
L 695.524947 217.909077 
L 708.950018 212.727708 
L 721.942022 209.515612 
L 735.367093 217.204438 
L 748.792164 221.26413 
L 760.918034 221.692196 
L 774.343105 225.416435 
L 787.335109 218.039698 
L 800.76018 213.444381 
L 813.752184 202.652518 
L 827.177255 178.968211 
L 840.602326 178.968211 
L 853.59433 189.71959 
L 867.0194 184.015308 
L 880.011405 186.707448 
" clip-path="url(#p08cd632c22)" style="fill: none; stroke: #1f77b4; stroke-width: 2; stroke-linecap: round"/>
   </g>
   <g id="line2d_31">
    <path d="M 102.656495 287.564655 
L 116.081566 267.478292 
L 128.207437 266.138104 
L 141.632508 254.13947 
L 154.624512 250.686812 
L 168.049583 257.102947 
L 181.041587 252.279726 
L 194.466657 241.609981 
L 207.891728 241.810183 
L 220.883732 233.881284 
L 234.308803 227.90819 
L 247.300807 226.650938 
L 260.725878 226.100615 
L 274.150949 229.077627 
L 286.276819 203.241789 
L 299.70189 224.819619 
L 312.693894 216.679557 
L 326.118965 207.421312 
L 339.110969 157.92288 
L 352.53604 191.107648 
L 365.961111 199.157328 
L 378.953115 180.001812 
L 392.378186 198.553101 
L 405.37019 197.945795 
L 418.795261 194.141775 
L 432.220332 187.731106 
L 444.346202 179.708563 
L 457.771273 192.947143 
L 470.763277 225.754047 
L 484.188348 220.707327 
L 497.180352 209.788618 
L 510.605423 220.135162 
L 524.030494 198.464996 
L 537.022498 213.583754 
L 550.447568 187.363318 
L 563.439572 210.138789 
L 576.864643 205.133284 
L 590.289714 218.334937 
L 602.848651 202.176128 
L 616.273722 235.280341 
L 629.265726 182.346311 
L 642.690797 194.331932 
L 655.682801 204.118633 
L 669.107872 215.934636 
L 682.532943 219.883518 
L 695.524947 205.571898 
L 708.950018 220.94955 
L 721.942022 199.201028 
L 735.367093 213.459326 
L 748.792164 241.719684 
L 760.918034 229.068933 
L 774.343105 214.315458 
L 787.335109 221.763937 
L 800.76018 212.573305 
L 813.752184 158.327425 
L 827.177255 192.731732 
L 840.602326 165.20469 
L 853.59433 208.440927 
L 867.0194 186.707448 
L 880.011405 181.323169 
" clip-path="url(#p08cd632c22)" style="fill: none; stroke-dasharray: 0.7,1.155; stroke-dashoffset: 0; stroke: #1f77b4; stroke-opacity: 0.45; stroke-width: 0.7"/>
   </g>
   <g id="patch_3">
    <path d="M 63.78875 354.837604 
L 63.78875 24.397812 
" style="fill: none; stroke: #ffffff; stroke-linejoin: miter; stroke-linecap: square"/>
   </g>
   <g id="patch_4">
    <path d="M 918.87915 354.837604 
L 918.87915 24.397812 
" style="fill: none; stroke: #ffffff; stroke-linejoin: miter; stroke-linecap: square"/>
   </g>
   <g id="patch_5">
    <path d="M 63.78875 354.837604 
L 918.87915 354.837604 
" style="fill: none; stroke: #ffffff; stroke-linejoin: miter; stroke-linecap: square"/>
   </g>
   <g id="patch_6">
    <path d="M 63.78875 24.397812 
L 918.87915 24.397812 
" style="fill: none; stroke: #ffffff; stroke-linejoin: miter; stroke-linecap: square"/>
   </g>
   <g id="text_32">
    <!-- Signaux de marché — Brest -->
    <g style="fill: #262626" transform="translate(382.773794 18.397812) scale(0.14 -0.14)">
     <defs>
      <path id="DejaVuSans-Bold-36" d="M 3834 4519 
L 3834 3531 
Q 3450 3703 3084 3790 
Q 2719 3878 2394 3878 
Q 1963 3878 1756 3759 
Q 1550 3641 1550 3391 
Q 1550 3203 1689 3098 
Q 1828 2994 2194 2919 
L 2706 2816 
Q 3484 2659 3812 2340 
Q 4141 2022 4141 1434 
Q 4141 663 3683 286 
Q 3225 -91 2284 -91 
Q 1841 -91 1394 -6 
Q 947 78 500 244 
L 500 1259 
Q 947 1022 1364 901 
Q 1781 781 2169 781 
Q 2563 781 2772 912 
Q 2981 1044 2981 1288 
Q 2981 1506 2839 1625 
Q 2697 1744 2272 1838 
L 1806 1941 
Q 1106 2091 782 2419 
Q 459 2747 459 3303 
Q 459 4000 909 4375 
Q 1359 4750 2203 4750 
Q 2588 4750 2994 4692 
Q 3400 4634 3834 4519 
z
" transform="scale(0.015625)"/>
      <path id="DejaVuSans-Bold-4c" d="M 538 3500 
L 1656 3500 
L 1656 0 
L 538 0 
L 538 3500 
z
M 538 4863 
L 1656 4863 
L 1656 3950 
L 538 3950 
L 538 4863 
z
" transform="scale(0.015625)"/>
      <path id="DejaVuSans-Bold-4a" d="M 2919 594 
Q 2688 288 2409 144 
Q 2131 0 1766 0 
Q 1125 0 706 504 
Q 288 1009 288 1791 
Q 288 2575 706 3076 
Q 1125 3578 1766 3578 
Q 2131 3578 2409 3434 
Q 2688 3291 2919 2981 
L 2919 3500 
L 4044 3500 
L 4044 353 
Q 4044 -491 3511 -936 
Q 2978 -1381 1966 -1381 
Q 1638 -1381 1331 -1331 
Q 1025 -1281 716 -1178 
L 716 -306 
Q 1009 -475 1290 -558 
Q 1572 -641 1856 -641 
Q 2406 -641 2662 -400 
Q 2919 -159 2919 353 
L 2919 594 
z
M 2181 2772 
Q 1834 2772 1640 2515 
Q 1447 2259 1447 1791 
Q 1447 1309 1634 1061 
Q 1822 813 2181 813 
Q 2531 813 2725 1069 
Q 2919 1325 2919 1791 
Q 2919 2259 2725 2515 
Q 2531 2772 2181 2772 
z
" transform="scale(0.015625)"/>
      <path id="DejaVuSans-Bold-51" d="M 4056 2131 
L 4056 0 
L 2931 0 
L 2931 347 
L 2931 1631 
Q 2931 2084 2911 2256 
Q 2891 2428 2841 2509 
Q 2775 2619 2662 2680 
Q 2550 2741 2406 2741 
Q 2056 2741 1856 2470 
Q 1656 2200 1656 1722 
L 1656 0 
L 538 0 
L 538 3500 
L 1656 3500 
L 1656 2988 
Q 1909 3294 2193 3439 
Q 2478 3584 2822 3584 
Q 3428 3584 3742 3212 
Q 4056 2841 4056 2131 
z
" transform="scale(0.015625)"/>
      <path id="DejaVuSans-Bold-44" d="M 2106 1575 
Q 1756 1575 1579 1456 
Q 1403 1338 1403 1106 
Q 1403 894 1545 773 
Q 1688 653 1941 653 
Q 2256 653 2472 879 
Q 2688 1106 2688 1447 
L 2688 1575 
L 2106 1575 
z
M 3816 1997 
L 3816 0 
L 2688 0 
L 2688 519 
Q 2463 200 2181 54 
Q 1900 -91 1497 -91 
Q 953 -91 614 226 
Q 275 544 275 1050 
Q 275 1666 698 1953 
Q 1122 2241 2028 2241 
L 2688 2241 
L 2688 2328 
Q 2688 2594 2478 2717 
Q 2269 2841 1825 2841 
Q 1466 2841 1156 2769 
Q 847 2697 581 2553 
L 581 3406 
Q 941 3494 1303 3539 
Q 1666 3584 2028 3584 
Q 2975 3584 3395 3211 
Q 3816 2838 3816 1997 
z
" transform="scale(0.015625)"/>
      <path id="DejaVuSans-Bold-58" d="M 500 1363 
L 500 3500 
L 1625 3500 
L 1625 3150 
Q 1625 2866 1622 2436 
Q 1619 2006 1619 1863 
Q 1619 1441 1641 1255 
Q 1663 1069 1716 984 
Q 1784 875 1895 815 
Q 2006 756 2150 756 
Q 2500 756 2700 1025 
Q 2900 1294 2900 1772 
L 2900 3500 
L 4019 3500 
L 4019 0 
L 2900 0 
L 2900 506 
Q 2647 200 2364 54 
Q 2081 -91 1741 -91 
Q 1134 -91 817 281 
Q 500 653 500 1363 
z
" transform="scale(0.015625)"/>
      <path id="DejaVuSans-Bold-5b" d="M 1422 1791 
L 159 3500 
L 1344 3500 
L 2059 2463 
L 2784 3500 
L 3969 3500 
L 2706 1797 
L 4031 0 
L 2847 0 
L 2059 1106 
L 1281 0 
L 97 0 
L 1422 1791 
z
" transform="scale(0.015625)"/>
      <path id="DejaVuSans-Bold-3" transform="scale(0.015625)"/>
      <path id="DejaVuSans-Bold-47" d="M 2919 2988 
L 2919 4863 
L 4044 4863 
L 4044 0 
L 2919 0 
L 2919 506 
Q 2688 197 2409 53 
Q 2131 -91 1766 -91 
Q 1119 -91 703 423 
Q 288 938 288 1747 
Q 288 2556 703 3070 
Q 1119 3584 1766 3584 
Q 2128 3584 2408 3439 
Q 2688 3294 2919 2988 
z
M 2181 722 
Q 2541 722 2730 984 
Q 2919 1247 2919 1747 
Q 2919 2247 2730 2509 
Q 2541 2772 2181 2772 
Q 1825 2772 1636 2509 
Q 1447 2247 1447 1747 
Q 1447 1247 1636 984 
Q 1825 722 2181 722 
z
" transform="scale(0.015625)"/>
      <path id="DejaVuSans-Bold-48" d="M 4031 1759 
L 4031 1441 
L 1416 1441 
Q 1456 1047 1700 850 
Q 1944 653 2381 653 
Q 2734 653 3104 758 
Q 3475 863 3866 1075 
L 3866 213 
Q 3469 63 3072 -14 
Q 2675 -91 2278 -91 
Q 1328 -91 801 392 
Q 275 875 275 1747 
Q 275 2603 792 3093 
Q 1309 3584 2216 3584 
Q 3041 3584 3536 3087 
Q 4031 2591 4031 1759 
z
M 2881 2131 
Q 2881 2450 2695 2645 
Q 2509 2841 2209 2841 
Q 1884 2841 1681 2658 
Q 1478 2475 1428 2131 
L 2881 2131 
z
" transform="scale(0.015625)"/>
      <path id="DejaVuSans-Bold-50" d="M 3781 2919 
Q 3994 3244 4286 3414 
Q 4578 3584 4928 3584 
Q 5531 3584 5847 3212 
Q 6163 2841 6163 2131 
L 6163 0 
L 5038 0 
L 5038 1825 
Q 5041 1866 5042 1909 
Q 5044 1953 5044 2034 
Q 5044 2406 4934 2573 
Q 4825 2741 4581 2741 
Q 4263 2741 4089 2478 
Q 3916 2216 3909 1719 
L 3909 0 
L 2784 0 
L 2784 1825 
Q 2784 2406 2684 2573 
Q 2584 2741 2328 2741 
Q 2006 2741 1831 2477 
Q 1656 2213 1656 1722 
L 1656 0 
L 531 0 
L 531 3500 
L 1656 3500 
L 1656 2988 
Q 1863 3284 2130 3434 
Q 2397 3584 2719 3584 
Q 3081 3584 3359 3409 
Q 3638 3234 3781 2919 
z
" transform="scale(0.015625)"/>
      <path id="DejaVuSans-Bold-55" d="M 3138 2547 
Q 2991 2616 2845 2648 
Q 2700 2681 2553 2681 
Q 2122 2681 1889 2404 
Q 1656 2128 1656 1613 
L 1656 0 
L 538 0 
L 538 3500 
L 1656 3500 
L 1656 2925 
Q 1872 3269 2151 3426 
Q 2431 3584 2822 3584 
Q 2878 3584 2943 3579 
Q 3009 3575 3134 3559 
L 3138 2547 
z
" transform="scale(0.015625)"/>
      <path id="DejaVuSans-Bold-46" d="M 3366 3391 
L 3366 2478 
Q 3138 2634 2908 2709 
Q 2678 2784 2431 2784 
Q 1963 2784 1702 2511 
Q 1441 2238 1441 1747 
Q 1441 1256 1702 982 
Q 1963 709 2431 709 
Q 2694 709 2930 787 
Q 3166 866 3366 1019 
L 3366 103 
Q 3103 6 2833 -42 
Q 2563 -91 2291 -91 
Q 1344 -91 809 395 
Q 275 881 275 1747 
Q 275 2613 809 3098 
Q 1344 3584 2291 3584 
Q 2566 3584 2833 3536 
Q 3100 3488 3366 3391 
z
" transform="scale(0.015625)"/>
      <path id="DejaVuSans-Bold-4b" d="M 4056 2131 
L 4056 0 
L 2931 0 
L 2931 347 
L 2931 1625 
Q 2931 2084 2911 2256 
Q 2891 2428 2841 2509 
Q 2775 2619 2662 2680 
Q 2550 2741 2406 2741 
Q 2056 2741 1856 2470 
Q 1656 2200 1656 1722 
L 1656 0 
L 538 0 
L 538 4863 
L 1656 4863 
L 1656 2988 
Q 1909 3294 2193 3439 
Q 2478 3584 2822 3584 
Q 3428 3584 3742 3212 
Q 4056 2841 4056 2131 
z
" transform="scale(0.015625)"/>
      <path id="DejaVuSans-Bold-ab" d="M 4031 1759 
L 4031 1441 
L 1416 1441 
Q 1456 1047 1700 850 
Q 1944 653 2381 653 
Q 2734 653 3104 758 
Q 3475 863 3866 1075 
L 3866 213 
Q 3469 63 3072 -14 
Q 2675 -91 2278 -91 
Q 1328 -91 801 392 
Q 275 875 275 1747 
Q 275 2603 792 3093 
Q 1309 3584 2216 3584 
Q 3041 3584 3536 3087 
Q 4031 2591 4031 1759 
z
M 2881 2131 
Q 2881 2450 2695 2645 
Q 2509 2841 2209 2841 
Q 1884 2841 1681 2658 
Q 1478 2475 1428 2131 
L 2881 2131 
z
M 2700 5119 
L 3584 5119 
L 2431 3944 
L 1819 3944 
L 2700 5119 
z
" transform="scale(0.015625)"/>
      <path id="DejaVuSans-Bold-af6" d="M 344 2156 
L 6056 2156 
L 6056 1350 
L 344 1350 
L 344 2156 
z
" transform="scale(0.015625)"/>
      <path id="DejaVuSans-Bold-25" d="M 2456 2859 
Q 2741 2859 2887 2984 
Q 3034 3109 3034 3353 
Q 3034 3594 2887 3720 
Q 2741 3847 2456 3847 
L 1791 3847 
L 1791 2859 
L 2456 2859 
z
M 2497 819 
Q 2859 819 3042 972 
Q 3225 1125 3225 1434 
Q 3225 1738 3044 1889 
Q 2863 2041 2497 2041 
L 1791 2041 
L 1791 819 
L 2497 819 
z
M 3616 2497 
Q 4003 2384 4215 2081 
Q 4428 1778 4428 1338 
Q 4428 663 3972 331 
Q 3516 0 2584 0 
L 588 0 
L 588 4666 
L 2394 4666 
Q 3366 4666 3802 4372 
Q 4238 4078 4238 3431 
Q 4238 3091 4078 2852 
Q 3919 2613 3616 2497 
z
" transform="scale(0.015625)"/>
      <path id="DejaVuSans-Bold-56" d="M 3272 3391 
L 3272 2541 
Q 2913 2691 2578 2766 
Q 2244 2841 1947 2841 
Q 1628 2841 1473 2761 
Q 1319 2681 1319 2516 
Q 1319 2381 1436 2309 
Q 1553 2238 1856 2203 
L 2053 2175 
Q 2913 2066 3209 1816 
Q 3506 1566 3506 1031 
Q 3506 472 3093 190 
Q 2681 -91 1863 -91 
Q 1516 -91 1145 -36 
Q 775 19 384 128 
L 384 978 
Q 719 816 1070 734 
Q 1422 653 1784 653 
Q 2113 653 2278 743 
Q 2444 834 2444 1013 
Q 2444 1163 2330 1236 
Q 2216 1309 1875 1350 
L 1678 1375 
Q 931 1469 631 1722 
Q 331 1975 331 2491 
Q 331 3047 712 3315 
Q 1094 3584 1881 3584 
Q 2191 3584 2531 3537 
Q 2872 3491 3272 3391 
z
" transform="scale(0.015625)"/>
      <path id="DejaVuSans-Bold-57" d="M 1759 4494 
L 1759 3500 
L 2913 3500 
L 2913 2700 
L 1759 2700 
L 1759 1216 
Q 1759 972 1856 886 
Q 1953 800 2241 800 
L 2816 800 
L 2816 0 
L 1856 0 
Q 1194 0 917 276 
Q 641 553 641 1216 
L 641 2700 
L 84 2700 
L 84 3500 
L 641 3500 
L 641 4494 
L 1759 4494 
z
" transform="scale(0.015625)"/>
     </defs>
     <use xlink:href="#DejaVuSans-Bold-36"/>
     <use xlink:href="#DejaVuSans-Bold-4c" transform="translate(72.015625 0)"/>
     <use xlink:href="#DejaVuSans-Bold-4a" transform="translate(106.296875 0)"/>
     <use xlink:href="#DejaVuSans-Bold-51" transform="translate(177.875 0)"/>
     <use xlink:href="#DejaVuSans-Bold-44" transform="translate(249.0625 0)"/>
     <use xlink:href="#DejaVuSans-Bold-58" transform="translate(316.546875 0)"/>
     <use xlink:href="#DejaVuSans-Bold-5b" transform="translate(387.734375 0)"/>
     <use xlink:href="#DejaVuSans-Bold-3" transform="translate(452.234375 0)"/>
     <use xlink:href="#DejaVuSans-Bold-47" transform="translate(487.046875 0)"/>
     <use xlink:href="#DejaVuSans-Bold-48" transform="translate(558.625 0)"/>
     <use xlink:href="#DejaVuSans-Bold-3" transform="translate(626.453125 0)"/>
     <use xlink:href="#DejaVuSans-Bold-50" transform="translate(661.265625 0)"/>
     <use xlink:href="#DejaVuSans-Bold-44" transform="translate(765.46875 0)"/>
     <use xlink:href="#DejaVuSans-Bold-55" transform="translate(832.953125 0)"/>
     <use xlink:href="#DejaVuSans-Bold-46" transform="translate(882.265625 0)"/>
     <use xlink:href="#DejaVuSans-Bold-4b" transform="translate(941.546875 0)"/>
     <use xlink:href="#DejaVuSans-Bold-ab" transform="translate(1012.734375 0)"/>
     <use xlink:href="#DejaVuSans-Bold-3" transform="translate(1080.5625 0)"/>
     <use xlink:href="#DejaVuSans-Bold-af6" transform="translate(1115.375 0)"/>
     <use xlink:href="#DejaVuSans-Bold-3" transform="translate(1215.375 0)"/>
     <use xlink:href="#DejaVuSans-Bold-25" transform="translate(1250.1875 0)"/>
     <use xlink:href="#DejaVuSans-Bold-55" transform="translate(1326.40625 0)"/>
     <use xlink:href="#DejaVuSans-Bold-48" transform="translate(1375.71875 0)"/>
     <use xlink:href="#DejaVuSans-Bold-56" transform="translate(1443.546875 0)"/>
     <use xlink:href="#DejaVuSans-Bold-57" transform="translate(1503.0625 0)"/>
    </g>
   </g>
   <g id="PathCollection_2">
    <defs>
     <path id="m4287763469" d="M -0 3.535534 
L 3.535534 -3.535534 
L -3.535534 -3.535534 
z
" style="stroke: #ffffff; stroke-width: 0.8"/>
    </defs>
    <g clip-path="url(#p08cd632c22)">
     <use xlink:href="#m4287763469" x="880.011405" y="186.707448" style="fill: #d62728; stroke: #ffffff; stroke-width: 0.8"/>
    </g>
   </g>
   <g id="legend_1">
    <g id="patch_7">
     <path d="M 70.08875 58.959219 
L 169.476875 58.959219 
Q 171.276875 58.959219 171.276875 57.159219 
L 171.276875 30.697812 
Q 171.276875 28.897812 169.476875 28.897812 
L 70.08875 28.897812 
Q 68.28875 28.897812 68.28875 30.697812 
L 68.28875 57.159219 
Q 68.28875 58.959219 70.08875 58.959219 
z
" style="fill: #f5f5f5; opacity: 0.85; stroke: #cccccc; stroke-width: 0.8; stroke-linejoin: miter"/>
    </g>
    <g id="line2d_32">
     <path d="M 71.88875 36.546406 
L 80.88875 36.546406 
L 89.88875 36.546406 
" style="fill: none; stroke: #1f77b4; stroke-width: 2; stroke-linecap: round"/>
    </g>
    <g id="text_33">
     <!-- Prix lissé (€/m²) -->
     <g style="fill: #262626" transform="translate(97.08875 39.696406) scale(0.09 -0.09)">
      <defs>
       <path id="DejaVuSans-33" d="M 1259 4147 
L 1259 2394 
L 2053 2394 
Q 2494 2394 2734 2622 
Q 2975 2850 2975 3272 
Q 2975 3691 2734 3919 
Q 2494 4147 2053 4147 
L 1259 4147 
z
M 628 4666 
L 2053 4666 
Q 2838 4666 3239 4311 
Q 3641 3956 3641 3272 
Q 3641 2581 3239 2228 
Q 2838 1875 2053 1875 
L 1259 1875 
L 1259 0 
L 628 0 
L 628 4666 
z
" transform="scale(0.015625)"/>
       <path id="DejaVuSans-55" d="M 2631 2963 
Q 2534 3019 2420 3045 
Q 2306 3072 2169 3072 
Q 1681 3072 1420 2755 
Q 1159 2438 1159 1844 
L 1159 0 
L 581 0 
L 581 3500 
L 1159 3500 
L 1159 2956 
Q 1341 3275 1631 3429 
Q 1922 3584 2338 3584 
Q 2397 3584 2469 3576 
Q 2541 3569 2628 3553 
L 2631 2963 
z
" transform="scale(0.015625)"/>
       <path id="DejaVuSans-5b" d="M 3513 3500 
L 2247 1797 
L 3578 0 
L 2900 0 
L 1881 1375 
L 863 0 
L 184 0 
L 1544 1831 
L 300 3500 
L 978 3500 
L 1906 2253 
L 2834 3500 
L 3513 3500 
z
" transform="scale(0.015625)"/>
       <path id="DejaVuSans-4f" d="M 603 4863 
L 1178 4863 
L 1178 0 
L 603 0 
L 603 4863 
z
" transform="scale(0.015625)"/>
       <path id="DejaVuSans-ab" d="M 3597 1894 
L 3597 1613 
L 953 1613 
Q 991 1019 1311 708 
Q 1631 397 2203 397 
Q 2534 397 2845 478 
Q 3156 559 3463 722 
L 3463 178 
Q 3153 47 2828 -22 
Q 2503 -91 2169 -91 
Q 1331 -91 842 396 
Q 353 884 353 1716 
Q 353 2575 817 3079 
Q 1281 3584 2069 3584 
Q 2775 3584 3186 3129 
Q 3597 2675 3597 1894 
z
M 3022 2063 
Q 3016 2534 2758 2815 
Q 2500 3097 2075 3097 
Q 1594 3097 1305 2825 
Q 1016 2553 972 2059 
L 3022 2063 
z
M 2468 5119 
L 3090 5119 
L 2072 3944 
L 1593 3944 
L 2468 5119 
z
" transform="scale(0.015625)"/>
       <path id="DejaVuSans-b" d="M 1984 4856 
Q 1566 4138 1362 3434 
Q 1159 2731 1159 2009 
Q 1159 1288 1364 580 
Q 1569 -128 1984 -844 
L 1484 -844 
Q 1016 -109 783 600 
Q 550 1309 550 2009 
Q 550 2706 781 3412 
Q 1013 4119 1484 4856 
L 1984 4856 
z
" transform="scale(0.015625)"/>
       <path id="DejaVuSans-c" d="M 513 4856 
L 1013 4856 
Q 1481 4119 1714 3412 
Q 1947 2706 1947 2009 
Q 1947 1309 1714 600 
Q 1481 -109 1013 -844 
L 513 -844 
Q 928 -128 1133 580 
Q 1338 1288 1338 2009 
Q 1338 2731 1133 3434 
Q 928 4138 513 4856 
z
" transform="scale(0.015625)"/>
      </defs>
      <use xlink:href="#DejaVuSans-33"/>
      <use xlink:href="#DejaVuSans-55" transform="translate(58.546875 0)"/>
      <use xlink:href="#DejaVuSans-4c" transform="translate(99.65625 0)"/>
      <use xlink:href="#DejaVuSans-5b" transform="translate(127.4375 0)"/>
      <use xlink:href="#DejaVuSans-3" transform="translate(186.625 0)"/>
      <use xlink:href="#DejaVuSans-4f" transform="translate(218.40625 0)"/>
      <use xlink:href="#DejaVuSans-4c" transform="translate(246.1875 0)"/>
      <use xlink:href="#DejaVuSans-56" transform="translate(273.96875 0)"/>
      <use xlink:href="#DejaVuSans-56" transform="translate(326.0625 0)"/>
      <use xlink:href="#DejaVuSans-ab" transform="translate(378.15625 0)"/>
      <use xlink:href="#DejaVuSans-3" transform="translate(439.6875 0)"/>
      <use xlink:href="#DejaVuSans-b" transform="translate(471.46875 0)"/>
      <use xlink:href="#DejaVuSans-b83" transform="translate(510.484375 0)"/>
      <use xlink:href="#DejaVuSans-12" transform="translate(574.109375 0)"/>
      <use xlink:href="#DejaVuSans-50" transform="translate(607.796875 0)"/>
      <use xlink:href="#DejaVuSans-74" transform="translate(705.203125 0)"/>
      <use xlink:href="#DejaVuSans-c" transform="translate(745.296875 0)"/>
     </g>
    </g>
    <g id="PathCollection_3">
     <defs>
      <path id="m0df5c1b153" d="M -0 5 
L 5 -5 
L -5 -5 
z
" style="stroke: #ffffff; stroke-width: 0.8"/>
     </defs>
     <g>
      <use xlink:href="#m0df5c1b153" x="80.88875" y="50.834609" style="fill: #d62728; stroke: #ffffff; stroke-width: 0.8"/>
     </g>
    </g>
    <g id="text_34">
     <!-- Vente -->
     <g style="fill: #262626" transform="translate(97.08875 53.197109) scale(0.09 -0.09)">
      <defs>
       <path id="DejaVuSans-39" d="M 1831 0 
L 50 4666 
L 709 4666 
L 2188 738 
L 3669 4666 
L 4325 4666 
L 2547 0 
L 1831 0 
z
" transform="scale(0.015625)"/>
       <path id="DejaVuSans-51" d="M 3513 2113 
L 3513 0 
L 2938 0 
L 2938 2094 
Q 2938 2591 2744 2837 
Q 2550 3084 2163 3084 
Q 1697 3084 1428 2787 
Q 1159 2491 1159 1978 
L 1159 0 
L 581 0 
L 581 3500 
L 1159 3500 
L 1159 2956 
Q 1366 3272 1645 3428 
Q 1925 3584 2291 3584 
Q 2894 3584 3203 3211 
Q 3513 2838 3513 2113 
z
" transform="scale(0.015625)"/>
       <path id="DejaVuSans-57" d="M 1172 4494 
L 1172 3500 
L 2356 3500 
L 2356 3053 
L 1172 3053 
L 1172 1153 
Q 1172 725 1289 603 
Q 1406 481 1766 481 
L 2356 481 
L 2356 0 
L 1766 0 
Q 1100 0 847 248 
Q 594 497 594 1153 
L 594 3053 
L 172 3053 
L 172 3500 
L 594 3500 
L 594 4494 
L 1172 4494 
z
" transform="scale(0.015625)"/>
      </defs>
      <use xlink:href="#DejaVuSans-39"/>
      <use xlink:href="#DejaVuSans-48" transform="translate(60.640625 0)"/>
      <use xlink:href="#DejaVuSans-51" transform="translate(122.171875 0)"/>
      <use xlink:href="#DejaVuSans-57" transform="translate(185.546875 0)"/>
      <use xlink:href="#DejaVuSans-48" transform="translate(224.75 0)"/>
     </g>
    </g>
   </g>
  </g>
 </g>
 <defs>
  <clipPath id="p08cd632c22">
   <rect x="63.78875" y="24.397812" width="855.0904" height="330.439792"/>
  </clipPath>
 </defs>
</svg>
