<?xml version="1.0" encoding="utf-8" standalone="no"?>
<!DOCTYPE svg PUBLIC "-//W3C//DTD SVG 1.1//EN"
  "http://www.w3.org/Graphics/SVG/1.1/DTD/svg11.dtd">
<svg xmlns:xlink="http://www.w3.org/1999/xlink" width="760.665819pt" height="351.352275pt" viewBox="0 0 760.665819 351.352275" xmlns="http://www.w3.org/2000/svg" version="1.1">
 <metadata>
  <rdf:RDF xmlns:dc="http://purl.org/dc/elements/1.1/" xmlns:cc="http://creativecommons.org/ns#" xmlns:rdf="http://www.w3.org/1999/02/22-rdf-syntax-ns#">
   <cc:Work>
    <dc:type rdf:resource="http://purl.org/dc/dcmitype/StillImage"/>
    <dc:date>2026-04-04T16:47:39.157591</dc:date>
    <dc:format>image/svg+xml</dc:format>
    <dc:creator>
     <cc:Agent>
      <dc:title>Matplotlib v3.10.8, https://matplotlib.org/</dc:title>
     </cc:Agent>
    </dc:creator>
   </cc:Work>
  </rdf:RDF>
 </metadata>
 <defs>
  <style type="text/css">*{stroke-linejoin: round; stroke-linecap: butt}</style>
 </defs>
 <g id="figure_1">
  <g id="patch_1">
   <path d="M 0 351.352275 
L 760.665819 351.352275 
L 760.665819 0 
L 0 0 
z
" style="fill: #ffffff"/>
  </g>
  <g id="axes_1">
   <g id="patch_2">
    <path d="M 89.719219 311.528212 
L 753.465819 311.528212 
L 753.465819 23.837812 
L 89.719219 23.837812 
z
" style="fill: #f5f5f5"/>
   </g>
   <g id="matplotlib.axis_1">
    <g id="xtick_1">
     <g id="line2d_1">
      <path d="M 199.024402 311.528212 
L 199.024402 23.837812 
" clip-path="url(#p3f92e50b68)" style="fill: none; stroke-dasharray: 2.96,1.28; stroke-dashoffset: 0; stroke: #cccccc; stroke-opacity: 0.7; stroke-width: 0.8"/>
     </g>
     <g id="text_1">
      <!-- 2 000 EUR -->
      <g style="fill: #262626" transform="translate(175.447917 326.666806) scale(0.09 -0.09)">
       <defs>
        <path id="DejaVuSans-32" d="M 1228 531 
L 3431 531 
L 3431 0 
L 469 0 
L 469 531 
Q 828 903 1448 1529 
Q 2069 2156 2228 2338 
Q 2531 2678 2651 2914 
Q 2772 3150 2772 3378 
Q 2772 3750 2511 3984 
Q 2250 4219 1831 4219 
Q 1534 4219 1204 4116 
Q 875 4013 500 3803 
L 500 4441 
Q 881 4594 1212 4672 
Q 1544 4750 1819 4750 
Q 2544 4750 2975 4387 
Q 3406 4025 3406 3419 
Q 3406 3131 3298 2873 
Q 3191 2616 2906 2266 
Q 2828 2175 2409 1742 
Q 1991 1309 1228 531 
z
" transform="scale(0.015625)"/>
        <path id="DejaVuSans-20" transform="scale(0.015625)"/>
        <path id="DejaVuSans-30" d="M 2034 4250 
Q 1547 4250 1301 3770 
Q 1056 3291 1056 2328 
Q 1056 1369 1301 889 
Q 1547 409 2034 409 
Q 2525 409 2770 889 
Q 3016 1369 3016 2328 
Q 3016 3291 2770 3770 
Q 2525 4250 2034 4250 
z
M 2034 4750 
Q 2819 4750 3233 4129 
Q 3647 3509 3647 2328 
Q 3647 1150 3233 529 
Q 2819 -91 2034 -91 
Q 1250 -91 836 529 
Q 422 1150 422 2328 
Q 422 3509 836 4129 
Q 1250 4750 2034 4750 
z
" transform="scale(0.015625)"/>
        <path id="DejaVuSans-45" d="M 628 4666 
L 3578 4666 
L 3578 4134 
L 1259 4134 
L 1259 2753 
L 3481 2753 
L 3481 2222 
L 1259 2222 
L 1259 531 
L 3634 531 
L 3634 0 
L 628 0 
L 628 4666 
z
" transform="scale(0.015625)"/>
        <path id="DejaVuSans-55" d="M 556 4666 
L 1191 4666 
L 1191 1831 
Q 1191 1081 1462 751 
Q 1734 422 2344 422 
Q 2950 422 3222 751 
Q 3494 1081 3494 1831 
L 3494 4666 
L 4128 4666 
L 4128 1753 
Q 4128 841 3676 375 
Q 3225 -91 2344 -91 
Q 1459 -91 1007 375 
Q 556 841 556 1753 
L 556 4666 
z
" transform="scale(0.015625)"/>
        <path id="DejaVuSans-52" d="M 2841 2188 
Q 3044 2119 3236 1894 
Q 3428 1669 3622 1275 
L 4263 0 
L 3584 0 
L 2988 1197 
Q 2756 1666 2539 1819 
Q 2322 1972 1947 1972 
L 1259 1972 
L 1259 0 
L 628 0 
L 628 4666 
L 2053 4666 
Q 2853 4666 3247 4331 
Q 3641 3997 3641 3322 
Q 3641 2881 3436 2590 
Q 3231 2300 2841 2188 
z
M 1259 4147 
L 1259 2491 
L 2053 2491 
Q 2509 2491 2742 2702 
Q 2975 2913 2975 3322 
Q 2975 3731 2742 3939 
Q 2509 4147 2053 4147 
L 1259 4147 
z
" transform="scale(0.015625)"/>
       </defs>
       <use xlink:href="#DejaVuSans-32"/>
       <use xlink:href="#DejaVuSans-20" transform="translate(63.623047 0)"/>
       <use xlink:href="#DejaVuSans-30" transform="translate(95.410156 0)"/>
       <use xlink:href="#DejaVuSans-30" transform="translate(159.033203 0)"/>
       <use xlink:href="#DejaVuSans-30" transform="translate(222.65625 0)"/>
       <use xlink:href="#DejaVuSans-20" transform="translate(286.279297 0)"/>
       <use xlink:href="#DejaVuSans-45" transform="translate(318.066406 0)"/>
       <use xlink:href="#DejaVuSans-55" transform="translate(381.25 0)"/>
       <use xlink:href="#DejaVuSans-52" transform="translate(454.443359 0)"/>
      </g>
     </g>
    </g>
    <g id="xtick_2">
     <g id="line2d_2">
      <path d="M 315.426587 311.528212 
L 315.426587 23.837812 
" clip-path="url(#p3f92e50b68)" style="fill: none; stroke-dasharray: 2.96,1.28; stroke-dashoffset: 0; stroke: #cccccc; stroke-opacity: 0.7; stroke-width: 0.8"/>
     </g>
     <g id="text_2">
      <!-- 3 000 EUR -->
      <g style="fill: #262626" transform="translate(291.850103 326.666806) scale(0.09 -0.09)">
       <defs>
        <path id="DejaVuSans-33" d="M 2597 2516 
Q 3050 2419 3304 2112 
Q 3559 1806 3559 1356 
Q 3559 666 3084 287 
Q 2609 -91 1734 -91 
Q 1441 -91 1130 -33 
Q 819 25 488 141 
L 488 750 
Q 750 597 1062 519 
Q 1375 441 1716 441 
Q 2309 441 2620 675 
Q 2931 909 2931 1356 
Q 2931 1769 2642 2001 
Q 2353 2234 1838 2234 
L 1294 2234 
L 1294 2753 
L 1863 2753 
Q 2328 2753 2575 2939 
Q 2822 3125 2822 3475 
Q 2822 3834 2567 4026 
Q 2313 4219 1838 4219 
Q 1578 4219 1281 4162 
Q 984 4106 628 3988 
L 628 4550 
Q 988 4650 1302 4700 
Q 1616 4750 1894 4750 
Q 2613 4750 3031 4423 
Q 3450 4097 3450 3541 
Q 3450 3153 3228 2886 
Q 3006 2619 2597 2516 
z
" transform="scale(0.015625)"/>
       </defs>
       <use xlink:href="#DejaVuSans-33"/>
       <use xlink:href="#DejaVuSans-20" transform="translate(63.623047 0)"/>
       <use xlink:href="#DejaVuSans-30" transform="translate(95.410156 0)"/>
       <use xlink:href="#DejaVuSans-30" transform="translate(159.033203 0)"/>
       <use xlink:href="#DejaVuSans-30" transform="translate(222.65625 0)"/>
       <use xlink:href="#DejaVuSans-20" transform="translate(286.279297 0)"/>
       <use xlink:href="#DejaVuSans-45" transform="translate(318.066406 0)"/>
       <use xlink:href="#DejaVuSans-55" transform="translate(381.25 0)"/>
       <use xlink:href="#DejaVuSans-52" transform="translate(454.443359 0)"/>
      </g>
     </g>
    </g>
    <g id="xtick_3">
     <g id="line2d_3">
      <path d="M 431.828773 311.528212 
L 431.828773 23.837812 
" clip-path="url(#p3f92e50b68)" style="fill: none; stroke-dasharray: 2.96,1.28; stroke-dashoffset: 0; stroke: #cccccc; stroke-opacity: 0.7; stroke-width: 0.8"/>
     </g>
     <g id="text_3">
      <!-- 4 000 EUR -->
      <g style="fill: #262626" transform="translate(408.252289 326.666806) scale(0.09 -0.09)">
       <defs>
        <path id="DejaVuSans-34" d="M 2419 4116 
L 825 1625 
L 2419 1625 
L 2419 4116 
z
M 2253 4666 
L 3047 4666 
L 3047 1625 
L 3713 1625 
L 3713 1100 
L 3047 1100 
L 3047 0 
L 2419 0 
L 2419 1100 
L 313 1100 
L 313 1709 
L 2253 4666 
z
" transform="scale(0.015625)"/>
       </defs>
       <use xlink:href="#DejaVuSans-34"/>
       <use xlink:href="#DejaVuSans-20" transform="translate(63.623047 0)"/>
       <use xlink:href="#DejaVuSans-30" transform="translate(95.410156 0)"/>
       <use xlink:href="#DejaVuSans-30" transform="translate(159.033203 0)"/>
       <use xlink:href="#DejaVuSans-30" transform="translate(222.65625 0)"/>
       <use xlink:href="#DejaVuSans-20" transform="translate(286.279297 0)"/>
       <use xlink:href="#DejaVuSans-45" transform="translate(318.066406 0)"/>
       <use xlink:href="#DejaVuSans-55" transform="translate(381.25 0)"/>
       <use xlink:href="#DejaVuSans-52" transform="translate(454.443359 0)"/>
      </g>
     </g>
    </g>
    <g id="xtick_4">
     <g id="line2d_4">
      <path d="M 548.230959 311.528212 
L 548.230959 23.837812 
" clip-path="url(#p3f92e50b68)" style="fill: none; stroke-dasharray: 2.96,1.28; stroke-dashoffset: 0; stroke: #cccccc; stroke-opacity: 0.7; stroke-width: 0.8"/>
     </g>
     <g id="text_4">
      <!-- 5 000 EUR -->
      <g style="fill: #262626" transform="translate(524.654474 326.666806) scale(0.09 -0.09)">
       <defs>
        <path id="DejaVuSans-35" d="M 691 4666 
L 3169 4666 
L 3169 4134 
L 1269 4134 
L 1269 2991 
Q 1406 3038 1543 3061 
Q 1681 3084 1819 3084 
Q 2600 3084 3056 2656 
Q 3513 2228 3513 1497 
Q 3513 744 3044 326 
Q 2575 -91 1722 -91 
Q 1428 -91 1123 -41 
Q 819 9 494 109 
L 494 744 
Q 775 591 1075 516 
Q 1375 441 1709 441 
Q 2250 441 2565 725 
Q 2881 1009 2881 1497 
Q 2881 1984 2565 2268 
Q 2250 2553 1709 2553 
Q 1456 2553 1204 2497 
Q 953 2441 691 2322 
L 691 4666 
z
" transform="scale(0.015625)"/>
       </defs>
       <use xlink:href="#DejaVuSans-35"/>
       <use xlink:href="#DejaVuSans-20" transform="translate(63.623047 0)"/>
       <use xlink:href="#DejaVuSans-30" transform="translate(95.410156 0)"/>
       <use xlink:href="#DejaVuSans-30" transform="translate(159.033203 0)"/>
       <use xlink:href="#DejaVuSans-30" transform="translate(222.65625 0)"/>
       <use xlink:href="#DejaVuSans-20" transform="translate(286.279297 0)"/>
       <use xlink:href="#DejaVuSans-45" transform="translate(318.066406 0)"/>
       <use xlink:href="#DejaVuSans-55" transform="translate(381.25 0)"/>
       <use xlink:href="#DejaVuSans-52" transform="translate(454.443359 0)"/>
      </g>
     </g>
    </g>
    <g id="xtick_5">
     <g id="line2d_5">
      <path d="M 664.633144 311.528212 
L 664.633144 23.837812 
" clip-path="url(#p3f92e50b68)" style="fill: none; stroke-dasharray: 2.96,1.28; stroke-dashoffset: 0; stroke: #cccccc; stroke-opacity: 0.7; stroke-width: 0.8"/>
     </g>
     <g id="text_5">
      <!-- 6 000 EUR -->
      <g style="fill: #262626" transform="translate(641.05666 326.666806) scale(0.09 -0.09)">
       <defs>
        <path id="DejaVuSans-36" d="M 2113 2584 
Q 1688 2584 1439 2293 
Q 1191 2003 1191 1497 
Q 1191 994 1439 701 
Q 1688 409 2113 409 
Q 2538 409 2786 701 
Q 3034 994 3034 1497 
Q 3034 2003 2786 2293 
Q 2538 2584 2113 2584 
z
M 3366 4563 
L 3366 3988 
Q 3128 4100 2886 4159 
Q 2644 4219 2406 4219 
Q 1781 4219 1451 3797 
Q 1122 3375 1075 2522 
Q 1259 2794 1537 2939 
Q 1816 3084 2150 3084 
Q 2853 3084 3261 2657 
Q 3669 2231 3669 1497 
Q 3669 778 3244 343 
Q 2819 -91 2113 -91 
Q 1303 -91 875 529 
Q 447 1150 447 2328 
Q 447 3434 972 4092 
Q 1497 4750 2381 4750 
Q 2619 4750 2861 4703 
Q 3103 4656 3366 4563 
z
" transform="scale(0.015625)"/>
       </defs>
       <use xlink:href="#DejaVuSans-36"/>
       <use xlink:href="#DejaVuSans-20" transform="translate(63.623047 0)"/>
       <use xlink:href="#DejaVuSans-30" transform="translate(95.410156 0)"/>
       <use xlink:href="#DejaVuSans-30" transform="translate(159.033203 0)"/>
       <use xlink:href="#DejaVuSans-30" transform="translate(222.65625 0)"/>
       <use xlink:href="#DejaVuSans-20" transform="translate(286.279297 0)"/>
       <use xlink:href="#DejaVuSans-45" transform="translate(318.066406 0)"/>
       <use xlink:href="#DejaVuSans-55" transform="translate(381.25 0)"/>
       <use xlink:href="#DejaVuSans-52" transform="translate(454.443359 0)"/>
      </g>
     </g>
    </g>
    <g id="text_6">
     <!-- Salaire mensuel net (euros) -->
     <g style="fill: #262626" transform="translate(338.575019 341.65665) scale(0.12 -0.12)">
      <defs>
       <path id="DejaVuSans-53" d="M 3425 4513 
L 3425 3897 
Q 3066 4069 2747 4153 
Q 2428 4238 2131 4238 
Q 1616 4238 1336 4038 
Q 1056 3838 1056 3469 
Q 1056 3159 1242 3001 
Q 1428 2844 1947 2747 
L 2328 2669 
Q 3034 2534 3370 2195 
Q 3706 1856 3706 1288 
Q 3706 609 3251 259 
Q 2797 -91 1919 -91 
Q 1588 -91 1214 -16 
Q 841 59 441 206 
L 441 856 
Q 825 641 1194 531 
Q 1563 422 1919 422 
Q 2459 422 2753 634 
Q 3047 847 3047 1241 
Q 3047 1584 2836 1778 
Q 2625 1972 2144 2069 
L 1759 2144 
Q 1053 2284 737 2584 
Q 422 2884 422 3419 
Q 422 4038 858 4394 
Q 1294 4750 2059 4750 
Q 2388 4750 2728 4690 
Q 3069 4631 3425 4513 
z
" transform="scale(0.015625)"/>
       <path id="DejaVuSans-61" d="M 2194 1759 
Q 1497 1759 1228 1600 
Q 959 1441 959 1056 
Q 959 750 1161 570 
Q 1363 391 1709 391 
Q 2188 391 2477 730 
Q 2766 1069 2766 1631 
L 2766 1759 
L 2194 1759 
z
M 3341 1997 
L 3341 0 
L 2766 0 
L 2766 531 
Q 2569 213 2275 61 
Q 1981 -91 1556 -91 
Q 1019 -91 701 211 
Q 384 513 384 1019 
Q 384 1609 779 1909 
Q 1175 2209 1959 2209 
L 2766 2209 
L 2766 2266 
Q 2766 2663 2505 2880 
Q 2244 3097 1772 3097 
Q 1472 3097 1187 3025 
Q 903 2953 641 2809 
L 641 3341 
Q 956 3463 1253 3523 
Q 1550 3584 1831 3584 
Q 2591 3584 2966 3190 
Q 3341 2797 3341 1997 
z
" transform="scale(0.015625)"/>
       <path id="DejaVuSans-6c" d="M 603 4863 
L 1178 4863 
L 1178 0 
L 603 0 
L 603 4863 
z
" transform="scale(0.015625)"/>
       <path id="DejaVuSans-69" d="M 603 3500 
L 1178 3500 
L 1178 0 
L 603 0 
L 603 3500 
z
M 603 4863 
L 1178 4863 
L 1178 4134 
L 603 4134 
L 603 4863 
z
" transform="scale(0.015625)"/>
       <path id="DejaVuSans-72" d="M 2631 2963 
Q 2534 3019 2420 3045 
Q 2306 3072 2169 3072 
Q 1681 3072 1420 2755 
Q 1159 2438 1159 1844 
L 1159 0 
L 581 0 
L 581 3500 
L 1159 3500 
L 1159 2956 
Q 1341 3275 1631 3429 
Q 1922 3584 2338 3584 
Q 2397 3584 2469 3576 
Q 2541 3569 2628 3553 
L 2631 2963 
z
" transform="scale(0.015625)"/>
       <path id="DejaVuSans-65" d="M 3597 1894 
L 3597 1613 
L 953 1613 
Q 991 1019 1311 708 
Q 1631 397 2203 397 
Q 2534 397 2845 478 
Q 3156 559 3463 722 
L 3463 178 
Q 3153 47 2828 -22 
Q 2503 -91 2169 -91 
Q 1331 -91 842 396 
Q 353 884 353 1716 
Q 353 2575 817 3079 
Q 1281 3584 2069 3584 
Q 2775 3584 3186 3129 
Q 3597 2675 3597 1894 
z
M 3022 2063 
Q 3016 2534 2758 2815 
Q 2500 3097 2075 3097 
Q 1594 3097 1305 2825 
Q 1016 2553 972 2059 
L 3022 2063 
z
" transform="scale(0.015625)"/>
       <path id="DejaVuSans-6d" d="M 3328 2828 
Q 3544 3216 3844 3400 
Q 4144 3584 4550 3584 
Q 5097 3584 5394 3201 
Q 5691 2819 5691 2113 
L 5691 0 
L 5113 0 
L 5113 2094 
Q 5113 2597 4934 2840 
Q 4756 3084 4391 3084 
Q 3944 3084 3684 2787 
Q 3425 2491 3425 1978 
L 3425 0 
L 2847 0 
L 2847 2094 
Q 2847 2600 2669 2842 
Q 2491 3084 2119 3084 
Q 1678 3084 1418 2786 
Q 1159 2488 1159 1978 
L 1159 0 
L 581 0 
L 581 3500 
L 1159 3500 
L 1159 2956 
Q 1356 3278 1631 3431 
Q 1906 3584 2284 3584 
Q 2666 3584 2933 3390 
Q 3200 3197 3328 2828 
z
" transform="scale(0.015625)"/>
       <path id="DejaVuSans-6e" d="M 3513 2113 
L 3513 0 
L 2938 0 
L 2938 2094 
Q 2938 2591 2744 2837 
Q 2550 3084 2163 3084 
Q 1697 3084 1428 2787 
Q 1159 2491 1159 1978 
L 1159 0 
L 581 0 
L 581 3500 
L 1159 3500 
L 1159 2956 
Q 1366 3272 1645 3428 
Q 1925 3584 2291 3584 
Q 2894 3584 3203 3211 
Q 3513 2838 3513 2113 
z
" transform="scale(0.015625)"/>
       <path id="DejaVuSans-73" d="M 2834 3397 
L 2834 2853 
Q 2591 2978 2328 3040 
Q 2066 3103 1784 3103 
Q 1356 3103 1142 2972 
Q 928 2841 928 2578 
Q 928 2378 1081 2264 
Q 1234 2150 1697 2047 
L 1894 2003 
Q 2506 1872 2764 1633 
Q 3022 1394 3022 966 
Q 3022 478 2636 193 
Q 2250 -91 1575 -91 
Q 1294 -91 989 -36 
Q 684 19 347 128 
L 347 722 
Q 666 556 975 473 
Q 1284 391 1588 391 
Q 1994 391 2212 530 
Q 2431 669 2431 922 
Q 2431 1156 2273 1281 
Q 2116 1406 1581 1522 
L 1381 1569 
Q 847 1681 609 1914 
Q 372 2147 372 2553 
Q 372 3047 722 3315 
Q 1072 3584 1716 3584 
Q 2034 3584 2315 3537 
Q 2597 3491 2834 3397 
z
" transform="scale(0.015625)"/>
       <path id="DejaVuSans-75" d="M 544 1381 
L 544 3500 
L 1119 3500 
L 1119 1403 
Q 1119 906 1312 657 
Q 1506 409 1894 409 
Q 2359 409 2629 706 
Q 2900 1003 2900 1516 
L 2900 3500 
L 3475 3500 
L 3475 0 
L 2900 0 
L 2900 538 
Q 2691 219 2414 64 
Q 2138 -91 1772 -91 
Q 1169 -91 856 284 
Q 544 659 544 1381 
z
M 1991 3584 
L 1991 3584 
z
" transform="scale(0.015625)"/>
       <path id="DejaVuSans-74" d="M 1172 4494 
L 1172 3500 
L 2356 3500 
L 2356 3053 
L 1172 3053 
L 1172 1153 
Q 1172 725 1289 603 
Q 1406 481 1766 481 
L 2356 481 
L 2356 0 
L 1766 0 
Q 1100 0 847 248 
Q 594 497 594 1153 
L 594 3053 
L 172 3053 
L 172 3500 
L 594 3500 
L 594 4494 
L 1172 4494 
z
" transform="scale(0.015625)"/>
       <path id="DejaVuSans-28" d="M 1984 4856 
Q 1566 4138 1362 3434 
Q 1159 2731 1159 2009 
Q 1159 1288 1364 580 
Q 1569 -128 1984 -844 
L 1484 -844 
Q 1016 -109 783 600 
Q 550 1309 550 2009 
Q 550 2706 781 3412 
Q 1013 4119 1484 4856 
L 1984 4856 
z
" transform="scale(0.015625)"/>
       <path id="DejaVuSans-6f" d="M 1959 3097 
Q 1497 3097 1228 2736 
Q 959 2375 959 1747 
Q 959 1119 1226 758 
Q 1494 397 1959 397 
Q 2419 397 2687 759 
Q 2956 1122 2956 1747 
Q 2956 2369 2687 2733 
Q 2419 3097 1959 3097 
z
M 1959 3584 
Q 2709 3584 3137 3096 
Q 3566 2609 3566 1747 
Q 3566 888 3137 398 
Q 2709 -91 1959 -91 
Q 1206 -91 779 398 
Q 353 888 353 1747 
Q 353 2609 779 3096 
Q 1206 3584 1959 3584 
z
" transform="scale(0.015625)"/>
       <path id="DejaVuSans-29" d="M 513 4856 
L 1013 4856 
Q 1481 4119 1714 3412 
Q 1947 2706 1947 2009 
Q 1947 1309 1714 600 
Q 1481 -109 1013 -844 
L 513 -844 
Q 928 -128 1133 580 
Q 1338 1288 1338 2009 
Q 1338 2731 1133 3434 
Q 928 4138 513 4856 
z
" transform="scale(0.015625)"/>
      </defs>
      <use xlink:href="#DejaVuSans-53"/>
      <use xlink:href="#DejaVuSans-61" transform="translate(63.476562 0)"/>
      <use xlink:href="#DejaVuSans-6c" transform="translate(124.755859 0)"/>
      <use xlink:href="#DejaVuSans-61" transform="translate(152.539062 0)"/>
      <use xlink:href="#DejaVuSans-69" transform="translate(213.818359 0)"/>
      <use xlink:href="#DejaVuSans-72" transform="translate(241.601562 0)"/>
      <use xlink:href="#DejaVuSans-65" transform="translate(280.464844 0)"/>
      <use xlink:href="#DejaVuSans-20" transform="translate(341.988281 0)"/>
      <use xlink:href="#DejaVuSans-6d" transform="translate(373.775391 0)"/>
      <use xlink:href="#DejaVuSans-65" transform="translate(471.1875 0)"/>
      <use xlink:href="#DejaVuSans-6e" transform="translate(532.710938 0)"/>
      <use xlink:href="#DejaVuSans-73" transform="translate(596.089844 0)"/>
      <use xlink:href="#DejaVuSans-75" transform="translate(648.189453 0)"/>
      <use xlink:href="#DejaVuSans-65" transform="translate(711.568359 0)"/>
      <use xlink:href="#DejaVuSans-6c" transform="translate(773.091797 0)"/>
      <use xlink:href="#DejaVuSans-20" transform="translate(800.875 0)"/>
      <use xlink:href="#DejaVuSans-6e" transform="translate(832.662109 0)"/>
      <use xlink:href="#DejaVuSans-65" transform="translate(896.041016 0)"/>
      <use xlink:href="#DejaVuSans-74" transform="translate(957.564453 0)"/>
      <use xlink:href="#DejaVuSans-20" transform="translate(996.773438 0)"/>
      <use xlink:href="#DejaVuSans-28" transform="translate(1028.560547 0)"/>
      <use xlink:href="#DejaVuSans-65" transform="translate(1067.574219 0)"/>
      <use xlink:href="#DejaVuSans-75" transform="translate(1129.097656 0)"/>
      <use xlink:href="#DejaVuSans-72" transform="translate(1192.476562 0)"/>
      <use xlink:href="#DejaVuSans-6f" transform="translate(1231.339844 0)"/>
      <use xlink:href="#DejaVuSans-73" transform="translate(1292.521484 0)"/>
      <use xlink:href="#DejaVuSans-29" transform="translate(1344.621094 0)"/>
     </g>
    </g>
   </g>
   <g id="matplotlib.axis_2">
    <g id="ytick_1">
     <g id="line2d_6">
      <path d="M 89.719219 298.451376 
L 753.465819 298.451376 
" clip-path="url(#p3f92e50b68)" style="fill: none; stroke-dasharray: 2.96,1.28; stroke-dashoffset: 0; stroke: #cccccc; stroke-opacity: 0.7; stroke-width: 0.8"/>
     </g>
     <g id="text_7">
      <!-- 100 000 EUR -->
      <g style="fill: #262626" transform="translate(22.81375 301.870673) scale(0.09 -0.09)">
       <defs>
        <path id="DejaVuSans-31" d="M 794 531 
L 1825 531 
L 1825 4091 
L 703 3866 
L 703 4441 
L 1819 4666 
L 2450 4666 
L 2450 531 
L 3481 531 
L 3481 0 
L 794 0 
L 794 531 
z
" transform="scale(0.015625)"/>
       </defs>
       <use xlink:href="#DejaVuSans-31"/>
       <use xlink:href="#DejaVuSans-30" transform="translate(63.623047 0)"/>
       <use xlink:href="#DejaVuSans-30" transform="translate(127.246094 0)"/>
       <use xlink:href="#DejaVuSans-20" transform="translate(190.869141 0)"/>
       <use xlink:href="#DejaVuSans-30" transform="translate(222.65625 0)"/>
       <use xlink:href="#DejaVuSans-30" transform="translate(286.279297 0)"/>
       <use xlink:href="#DejaVuSans-30" transform="translate(349.902344 0)"/>
       <use xlink:href="#DejaVuSans-20" transform="translate(413.525391 0)"/>
       <use xlink:href="#DejaVuSans-45" transform="translate(445.3125 0)"/>
       <use xlink:href="#DejaVuSans-55" transform="translate(508.496094 0)"/>
       <use xlink:href="#DejaVuSans-52" transform="translate(581.689453 0)"/>
      </g>
     </g>
    </g>
    <g id="ytick_2">
     <g id="line2d_7">
      <path d="M 89.719219 254.861922 
L 753.465819 254.861922 
" clip-path="url(#p3f92e50b68)" style="fill: none; stroke-dasharray: 2.96,1.28; stroke-dashoffset: 0; stroke: #cccccc; stroke-opacity: 0.7; stroke-width: 0.8"/>
     </g>
     <g id="text_8">
      <!-- 150 000 EUR -->
      <g style="fill: #262626" transform="translate(22.81375 258.281218) scale(0.09 -0.09)">
       <use xlink:href="#DejaVuSans-31"/>
       <use xlink:href="#DejaVuSans-35" transform="translate(63.623047 0)"/>
       <use xlink:href="#DejaVuSans-30" transform="translate(127.246094 0)"/>
       <use xlink:href="#DejaVuSans-20" transform="translate(190.869141 0)"/>
       <use xlink:href="#DejaVuSans-30" transform="translate(222.65625 0)"/>
       <use xlink:href="#DejaVuSans-30" transform="translate(286.279297 0)"/>
       <use xlink:href="#DejaVuSans-30" transform="translate(349.902344 0)"/>
       <use xlink:href="#DejaVuSans-20" transform="translate(413.525391 0)"/>
       <use xlink:href="#DejaVuSans-45" transform="translate(445.3125 0)"/>
       <use xlink:href="#DejaVuSans-55" transform="translate(508.496094 0)"/>
       <use xlink:href="#DejaVuSans-52" transform="translate(581.689453 0)"/>
      </g>
     </g>
    </g>
    <g id="ytick_3">
     <g id="line2d_8">
      <path d="M 89.719219 211.272467 
L 753.465819 211.272467 
" clip-path="url(#p3f92e50b68)" style="fill: none; stroke-dasharray: 2.96,1.28; stroke-dashoffset: 0; stroke: #cccccc; stroke-opacity: 0.7; stroke-width: 0.8"/>
     </g>
     <g id="text_9">
      <!-- 200 000 EUR -->
      <g style="fill: #262626" transform="translate(22.81375 214.691764) scale(0.09 -0.09)">
       <use xlink:href="#DejaVuSans-32"/>
       <use xlink:href="#DejaVuSans-30" transform="translate(63.623047 0)"/>
       <use xlink:href="#DejaVuSans-30" transform="translate(127.246094 0)"/>
       <use xlink:href="#DejaVuSans-20" transform="translate(190.869141 0)"/>
       <use xlink:href="#DejaVuSans-30" transform="translate(222.65625 0)"/>
       <use xlink:href="#DejaVuSans-30" transform="translate(286.279297 0)"/>
       <use xlink:href="#DejaVuSans-30" transform="translate(349.902344 0)"/>
       <use xlink:href="#DejaVuSans-20" transform="translate(413.525391 0)"/>
       <use xlink:href="#DejaVuSans-45" transform="translate(445.3125 0)"/>
       <use xlink:href="#DejaVuSans-55" transform="translate(508.496094 0)"/>
       <use xlink:href="#DejaVuSans-52" transform="translate(581.689453 0)"/>
      </g>
     </g>
    </g>
    <g id="ytick_4">
     <g id="line2d_9">
      <path d="M 89.719219 167.683012 
L 753.465819 167.683012 
" clip-path="url(#p3f92e50b68)" style="fill: none; stroke-dasharray: 2.96,1.28; stroke-dashoffset: 0; stroke: #cccccc; stroke-opacity: 0.7; stroke-width: 0.8"/>
     </g>
     <g id="text_10">
      <!-- 250 000 EUR -->
      <g style="fill: #262626" transform="translate(22.81375 171.102309) scale(0.09 -0.09)">
       <use xlink:href="#DejaVuSans-32"/>
       <use xlink:href="#DejaVuSans-35" transform="translate(63.623047 0)"/>
       <use xlink:href="#DejaVuSans-30" transform="translate(127.246094 0)"/>
       <use xlink:href="#DejaVuSans-20" transform="translate(190.869141 0)"/>
       <use xlink:href="#DejaVuSans-30" transform="translate(222.65625 0)"/>
       <use xlink:href="#DejaVuSans-30" transform="translate(286.279297 0)"/>
       <use xlink:href="#DejaVuSans-30" transform="translate(349.902344 0)"/>
       <use xlink:href="#DejaVuSans-20" transform="translate(413.525391 0)"/>
       <use xlink:href="#DejaVuSans-45" transform="translate(445.3125 0)"/>
       <use xlink:href="#DejaVuSans-55" transform="translate(508.496094 0)"/>
       <use xlink:href="#DejaVuSans-52" transform="translate(581.689453 0)"/>
      </g>
     </g>
    </g>
    <g id="ytick_5">
     <g id="line2d_10">
      <path d="M 89.719219 124.093558 
L 753.465819 124.093558 
" clip-path="url(#p3f92e50b68)" style="fill: none; stroke-dasharray: 2.96,1.28; stroke-dashoffset: 0; stroke: #cccccc; stroke-opacity: 0.7; stroke-width: 0.8"/>
     </g>
     <g id="text_11">
      <!-- 300 000 EUR -->
      <g style="fill: #262626" transform="translate(22.81375 127.512855) scale(0.09 -0.09)">
       <use xlink:href="#DejaVuSans-33"/>
       <use xlink:href="#DejaVuSans-30" transform="translate(63.623047 0)"/>
       <use xlink:href="#DejaVuSans-30" transform="translate(127.246094 0)"/>
       <use xlink:href="#DejaVuSans-20" transform="translate(190.869141 0)"/>
       <use xlink:href="#DejaVuSans-30" transform="translate(222.65625 0)"/>
       <use xlink:href="#DejaVuSans-30" transform="translate(286.279297 0)"/>
       <use xlink:href="#DejaVuSans-30" transform="translate(349.902344 0)"/>
       <use xlink:href="#DejaVuSans-20" transform="translate(413.525391 0)"/>
       <use xlink:href="#DejaVuSans-45" transform="translate(445.3125 0)"/>
       <use xlink:href="#DejaVuSans-55" transform="translate(508.496094 0)"/>
       <use xlink:href="#DejaVuSans-52" transform="translate(581.689453 0)"/>
      </g>
     </g>
    </g>
    <g id="ytick_6">
     <g id="line2d_11">
      <path d="M 89.719219 80.504103 
L 753.465819 80.504103 
" clip-path="url(#p3f92e50b68)" style="fill: none; stroke-dasharray: 2.96,1.28; stroke-dashoffset: 0; stroke: #cccccc; stroke-opacity: 0.7; stroke-width: 0.8"/>
     </g>
     <g id="text_12">
      <!-- 350 000 EUR -->
      <g style="fill: #262626" transform="translate(22.81375 83.9234) scale(0.09 -0.09)">
       <use xlink:href="#DejaVuSans-33"/>
       <use xlink:href="#DejaVuSans-35" transform="translate(63.623047 0)"/>
       <use xlink:href="#DejaVuSans-30" transform="translate(127.246094 0)"/>
       <use xlink:href="#DejaVuSans-20" transform="translate(190.869141 0)"/>
       <use xlink:href="#DejaVuSans-30" transform="translate(222.65625 0)"/>
       <use xlink:href="#DejaVuSans-30" transform="translate(286.279297 0)"/>
       <use xlink:href="#DejaVuSans-30" transform="translate(349.902344 0)"/>
       <use xlink:href="#DejaVuSans-20" transform="translate(413.525391 0)"/>
       <use xlink:href="#DejaVuSans-45" transform="translate(445.3125 0)"/>
       <use xlink:href="#DejaVuSans-55" transform="translate(508.496094 0)"/>
       <use xlink:href="#DejaVuSans-52" transform="translate(581.689453 0)"/>
      </g>
     </g>
    </g>
    <g id="ytick_7">
     <g id="line2d_12">
      <path d="M 89.719219 36.914649 
L 753.465819 36.914649 
" clip-path="url(#p3f92e50b68)" style="fill: none; stroke-dasharray: 2.96,1.28; stroke-dashoffset: 0; stroke: #cccccc; stroke-opacity: 0.7; stroke-width: 0.8"/>
     </g>
     <g id="text_13">
      <!-- 400 000 EUR -->
      <g style="fill: #262626" transform="translate(22.81375 40.333946) scale(0.09 -0.09)">
       <use xlink:href="#DejaVuSans-34"/>
       <use xlink:href="#DejaVuSans-30" transform="translate(63.623047 0)"/>
       <use xlink:href="#DejaVuSans-30" transform="translate(127.246094 0)"/>
       <use xlink:href="#DejaVuSans-20" transform="translate(190.869141 0)"/>
       <use xlink:href="#DejaVuSans-30" transform="translate(222.65625 0)"/>
       <use xlink:href="#DejaVuSans-30" transform="translate(286.279297 0)"/>
       <use xlink:href="#DejaVuSans-30" transform="translate(349.902344 0)"/>
       <use xlink:href="#DejaVuSans-20" transform="translate(413.525391 0)"/>
       <use xlink:href="#DejaVuSans-45" transform="translate(445.3125 0)"/>
       <use xlink:href="#DejaVuSans-55" transform="translate(508.496094 0)"/>
       <use xlink:href="#DejaVuSans-52" transform="translate(581.689453 0)"/>
      </g>
     </g>
    </g>
    <g id="text_14">
     <!-- Capital empruntable (euros) -->
     <g style="fill: #262626" transform="translate(16.318125 252.453637) rotate(-90) scale(0.12 -0.12)">
      <defs>
       <path id="DejaVuSans-43" d="M 4122 4306 
L 4122 3641 
Q 3803 3938 3442 4084 
Q 3081 4231 2675 4231 
Q 1875 4231 1450 3742 
Q 1025 3253 1025 2328 
Q 1025 1406 1450 917 
Q 1875 428 2675 428 
Q 3081 428 3442 575 
Q 3803 722 4122 1019 
L 4122 359 
Q 3791 134 3420 21 
Q 3050 -91 2638 -91 
Q 1578 -91 968 557 
Q 359 1206 359 2328 
Q 359 3453 968 4101 
Q 1578 4750 2638 4750 
Q 3056 4750 3426 4639 
Q 3797 4528 4122 4306 
z
" transform="scale(0.015625)"/>
       <path id="DejaVuSans-70" d="M 1159 525 
L 1159 -1331 
L 581 -1331 
L 581 3500 
L 1159 3500 
L 1159 2969 
Q 1341 3281 1617 3432 
Q 1894 3584 2278 3584 
Q 2916 3584 3314 3078 
Q 3713 2572 3713 1747 
Q 3713 922 3314 415 
Q 2916 -91 2278 -91 
Q 1894 -91 1617 61 
Q 1341 213 1159 525 
z
M 3116 1747 
Q 3116 2381 2855 2742 
Q 2594 3103 2138 3103 
Q 1681 3103 1420 2742 
Q 1159 2381 1159 1747 
Q 1159 1113 1420 752 
Q 1681 391 2138 391 
Q 2594 391 2855 752 
Q 3116 1113 3116 1747 
z
" transform="scale(0.015625)"/>
       <path id="DejaVuSans-62" d="M 3116 1747 
Q 3116 2381 2855 2742 
Q 2594 3103 2138 3103 
Q 1681 3103 1420 2742 
Q 1159 2381 1159 1747 
Q 1159 1113 1420 752 
Q 1681 391 2138 391 
Q 2594 391 2855 752 
Q 3116 1113 3116 1747 
z
M 1159 2969 
Q 1341 3281 1617 3432 
Q 1894 3584 2278 3584 
Q 2916 3584 3314 3078 
Q 3713 2572 3713 1747 
Q 3713 922 3314 415 
Q 2916 -91 2278 -91 
Q 1894 -91 1617 61 
Q 1341 213 1159 525 
L 1159 0 
L 581 0 
L 581 4863 
L 1159 4863 
L 1159 2969 
z
" transform="scale(0.015625)"/>
      </defs>
      <use xlink:href="#DejaVuSans-43"/>
      <use xlink:href="#DejaVuSans-61" transform="translate(69.824219 0)"/>
      <use xlink:href="#DejaVuSans-70" transform="translate(131.103516 0)"/>
      <use xlink:href="#DejaVuSans-69" transform="translate(194.580078 0)"/>
      <use xlink:href="#DejaVuSans-74" transform="translate(222.363281 0)"/>
      <use xlink:href="#DejaVuSans-61" transform="translate(261.572266 0)"/>
      <use xlink:href="#DejaVuSans-6c" transform="translate(322.851562 0)"/>
      <use xlink:href="#DejaVuSans-20" transform="translate(350.634766 0)"/>
      <use xlink:href="#DejaVuSans-65" transform="translate(382.421875 0)"/>
      <use xlink:href="#DejaVuSans-6d" transform="translate(443.945312 0)"/>
      <use xlink:href="#DejaVuSans-70" transform="translate(541.357422 0)"/>
      <use xlink:href="#DejaVuSans-72" transform="translate(604.833984 0)"/>
      <use xlink:href="#DejaVuSans-75" transform="translate(645.947266 0)"/>
      <use xlink:href="#DejaVuSans-6e" transform="translate(709.326172 0)"/>
      <use xlink:href="#DejaVuSans-74" transform="translate(772.705078 0)"/>
      <use xlink:href="#DejaVuSans-61" transform="translate(811.914062 0)"/>
      <use xlink:href="#DejaVuSans-62" transform="translate(873.193359 0)"/>
      <use xlink:href="#DejaVuSans-6c" transform="translate(936.669922 0)"/>
      <use xlink:href="#DejaVuSans-65" transform="translate(964.453125 0)"/>
      <use xlink:href="#DejaVuSans-20" transform="translate(1025.976562 0)"/>
      <use xlink:href="#DejaVuSans-28" transform="translate(1057.763672 0)"/>
      <use xlink:href="#DejaVuSans-65" transform="translate(1096.777344 0)"/>
      <use xlink:href="#DejaVuSans-75" transform="translate(1158.300781 0)"/>
      <use xlink:href="#DejaVuSans-72" transform="translate(1221.679688 0)"/>
      <use xlink:href="#DejaVuSans-6f" transform="translate(1260.542969 0)"/>
      <use xlink:href="#DejaVuSans-73" transform="translate(1321.724609 0)"/>
      <use xlink:href="#DejaVuSans-29" transform="translate(1373.824219 0)"/>
     </g>
    </g>
   </g>
   <g id="line2d_13">
    <path d="M 119.889519 298.451376 
L 124.54617 295.809591 
L 129.202821 293.167806 
L 133.859472 290.526021 
L 138.516123 287.884236 
L 143.172775 285.242451 
L 147.829426 282.600665 
L 152.486077 279.95888 
L 157.142728 277.317095 
L 161.799379 274.67531 
L 166.45603 272.033525 
L 171.112682 269.39174 
L 175.769333 266.749955 
L 180.425984 264.10817 
L 185.082635 261.466384 
L 189.739286 258.824599 
L 194.395937 256.182814 
L 199.052589 253.541029 
L 203.70924 250.899244 
L 208.365891 248.257459 
L 213.022542 245.615674 
L 217.679193 242.973889 
L 222.335844 240.332103 
L 226.992496 237.690318 
L 231.649147 235.048533 
L 236.305798 232.406748 
L 240.962449 229.764963 
L 245.6191 227.123178 
L 250.275751 224.481393 
L 254.932402 221.839608 
L 259.589054 219.197822 
L 264.245705 216.556037 
L 268.902356 213.914252 
L 273.559007 211.272467 
L 278.215658 208.630682 
L 282.872309 205.988897 
L 287.528961 203.347112 
L 292.185612 200.705327 
L 296.842263 198.063541 
L 301.498914 195.421756 
L 306.155565 192.779971 
L 310.812216 190.138186 
L 315.468868 187.496401 
L 320.125519 184.854616 
L 324.78217 182.212831 
L 329.438821 179.571046 
L 334.095472 176.92926 
L 338.752123 174.287475 
L 343.408775 171.64569 
L 348.065426 169.003905 
L 352.722077 166.36212 
L 357.378728 163.720335 
L 362.035379 161.07855 
L 366.69203 158.436765 
L 371.348682 155.794979 
L 376.005333 153.153194 
L 380.661984 150.511409 
L 385.318635 147.869624 
L 389.975286 145.227839 
L 394.631937 142.586054 
L 399.288589 139.944269 
L 403.94524 137.302484 
L 408.601891 134.660698 
L 413.258542 132.018913 
L 417.915193 129.377128 
L 422.571844 126.735343 
L 427.228496 124.093558 
L 431.885147 121.451773 
L 436.541798 118.809988 
L 441.198449 116.168203 
L 445.8551 113.526417 
L 450.511751 110.884632 
L 455.168403 108.242847 
L 459.825054 105.601062 
L 464.481705 102.959277 
L 469.138356 100.317492 
L 473.795007 97.675707 
L 478.451658 95.033922 
L 483.108309 92.392136 
L 487.764961 89.750351 
L 492.421612 87.108566 
L 497.078263 84.466781 
L 501.734914 81.824996 
L 506.391565 79.183211 
L 511.048216 76.541426 
L 515.704868 73.899641 
L 520.361519 71.257855 
L 525.01817 68.61607 
L 529.674821 65.974285 
L 534.331472 63.3325 
L 538.988123 60.690715 
L 543.644775 58.04893 
L 548.301426 55.407145 
L 552.958077 52.76536 
L 557.614728 50.123574 
L 562.271379 47.481789 
L 566.92803 44.840004 
L 571.584682 42.198219 
L 576.241333 39.556434 
L 580.897984 36.914649 
" clip-path="url(#p3f92e50b68)" style="fill: none; stroke: #1f77b4; stroke-width: 2; stroke-linecap: round"/>
   </g>
   <g id="line2d_14">
    <path d="M 128.367157 298.451376 
L 133.280706 295.809591 
L 138.194255 293.167806 
L 143.107805 290.526021 
L 148.021354 287.884236 
L 152.934903 285.242451 
L 157.848453 282.600665 
L 162.762002 279.95888 
L 167.675551 277.317095 
L 172.5891 274.67531 
L 177.50265 272.033525 
L 182.416199 269.39174 
L 187.329748 266.749955 
L 192.243298 264.10817 
L 197.156847 261.466384 
L 202.070396 258.824599 
L 206.983945 256.182814 
L 211.897495 253.541029 
L 216.811044 250.899244 
L 221.724593 248.257459 
L 226.638143 245.615674 
L 231.551692 242.973889 
L 236.465241 240.332103 
L 241.37879 237.690318 
L 246.29234 235.048533 
L 251.205889 232.406748 
L 256.119438 229.764963 
L 261.032988 227.123178 
L 265.946537 224.481393 
L 270.860086 221.839608 
L 275.773635 219.197822 
L 280.687185 216.556037 
L 285.600734 213.914252 
L 290.514283 211.272467 
L 295.427833 208.630682 
L 300.341382 205.988897 
L 305.254931 203.347112 
L 310.16848 200.705327 
L 315.08203 198.063541 
L 319.995579 195.421756 
L 324.909128 192.779971 
L 329.822678 190.138186 
L 334.736227 187.496401 
L 339.649776 184.854616 
L 344.563325 182.212831 
L 349.476875 179.571046 
L 354.390424 176.92926 
L 359.303973 174.287475 
L 364.217523 171.64569 
L 369.131072 169.003905 
L 374.044621 166.36212 
L 378.95817 163.720335 
L 383.87172 161.07855 
L 388.785269 158.436765 
L 393.698818 155.794979 
L 398.612368 153.153194 
L 403.525917 150.511409 
L 408.439466 147.869624 
L 413.353015 145.227839 
L 418.266565 142.586054 
L 423.180114 139.944269 
L 428.093663 137.302484 
L 433.007213 134.660698 
L 437.920762 132.018913 
L 442.834311 129.377128 
L 447.747861 126.735343 
L 452.66141 124.093558 
L 457.574959 121.451773 
L 462.488508 118.809988 
L 467.402058 116.168203 
L 472.315607 113.526417 
L 477.229156 110.884632 
L 482.142706 108.242847 
L 487.056255 105.601062 
L 491.969804 102.959277 
L 496.883353 100.317492 
L 501.796903 97.675707 
L 506.710452 95.033922 
L 511.624001 92.392136 
L 516.537551 89.750351 
L 521.4511 87.108566 
L 526.364649 84.466781 
L 531.278198 81.824996 
L 536.191748 79.183211 
L 541.105297 76.541426 
L 546.018846 73.899641 
L 550.932396 71.257855 
L 555.845945 68.61607 
L 560.759494 65.974285 
L 565.673043 63.3325 
L 570.586593 60.690715 
L 575.500142 58.04893 
L 580.413691 55.407145 
L 585.327241 52.76536 
L 590.24079 50.123574 
L 595.154339 47.481789 
L 600.067888 44.840004 
L 604.981438 42.198219 
L 609.894987 39.556434 
L 614.808536 36.914649 
" clip-path="url(#p3f92e50b68)" style="fill: none; stroke: #ff7f0e; stroke-width: 2; stroke-linecap: round"/>
   </g>
   <g id="line2d_15">
    <path d="M 137.129701 298.451376 
L 142.308782 295.809591 
L 147.487863 293.167806 
L 152.666944 290.526021 
L 157.846025 287.884236 
L 163.025106 285.242451 
L 168.204187 282.600665 
L 173.383268 279.95888 
L 178.562348 277.317095 
L 183.741429 274.67531 
L 188.92051 272.033525 
L 194.099591 269.39174 
L 199.278672 266.749955 
L 204.457753 264.10817 
L 209.636834 261.466384 
L 214.815915 258.824599 
L 219.994996 256.182814 
L 225.174077 253.541029 
L 230.353158 250.899244 
L 235.532239 248.257459 
L 240.71132 245.615674 
L 245.890401 242.973889 
L 251.069481 240.332103 
L 256.248562 237.690318 
L 261.427643 235.048533 
L 266.606724 232.406748 
L 271.785805 229.764963 
L 276.964886 227.123178 
L 282.143967 224.481393 
L 287.323048 221.839608 
L 292.502129 219.197822 
L 297.68121 216.556037 
L 302.860291 213.914252 
L 308.039372 211.272467 
L 313.218453 208.630682 
L 318.397534 205.988897 
L 323.576614 203.347112 
L 328.755695 200.705327 
L 333.934776 198.063541 
L 339.113857 195.421756 
L 344.292938 192.779971 
L 349.472019 190.138186 
L 354.6511 187.496401 
L 359.830181 184.854616 
L 365.009262 182.212831 
L 370.188343 179.571046 
L 375.367424 176.92926 
L 380.546505 174.287475 
L 385.725586 171.64569 
L 390.904667 169.003905 
L 396.083748 166.36212 
L 401.262828 163.720335 
L 406.441909 161.07855 
L 411.62099 158.436765 
L 416.800071 155.794979 
L 421.979152 153.153194 
L 427.158233 150.511409 
L 432.337314 147.869624 
L 437.516395 145.227839 
L 442.695476 142.586054 
L 447.874557 139.944269 
L 453.053638 137.302484 
L 458.232719 134.660698 
L 463.4118 132.018913 
L 468.590881 129.377128 
L 473.769961 126.735343 
L 478.949042 124.093558 
L 484.128123 121.451773 
L 489.307204 118.809988 
L 494.486285 116.168203 
L 499.665366 113.526417 
L 504.844447 110.884632 
L 510.023528 108.242847 
L 515.202609 105.601062 
L 520.38169 102.959277 
L 525.560771 100.317492 
L 530.739852 97.675707 
L 535.918933 95.033922 
L 541.098014 92.392136 
L 546.277094 89.750351 
L 551.456175 87.108566 
L 556.635256 84.466781 
L 561.814337 81.824996 
L 566.993418 79.183211 
L 572.172499 76.541426 
L 577.35158 73.899641 
L 582.530661 71.257855 
L 587.709742 68.61607 
L 592.888823 65.974285 
L 598.067904 63.3325 
L 603.246985 60.690715 
L 608.426066 58.04893 
L 613.605147 55.407145 
L 618.784227 52.76536 
L 623.963308 50.123574 
L 629.142389 47.481789 
L 634.32147 44.840004 
L 639.500551 42.198219 
L 644.679632 39.556434 
L 649.858713 36.914649 
" clip-path="url(#p3f92e50b68)" style="fill: none; stroke: #2ca02c; stroke-width: 2; stroke-linecap: round"/>
   </g>
   <g id="line2d_16">
    <path d="M 146.172184 298.451376 
L 151.62528 295.809591 
L 157.078376 293.167806 
L 162.531471 290.526021 
L 167.984567 287.884236 
L 173.437662 285.242451 
L 178.890758 282.600665 
L 184.343854 279.95888 
L 189.796949 277.317095 
L 195.250045 274.67531 
L 200.70314 272.033525 
L 206.156236 269.39174 
L 211.609331 266.749955 
L 217.062427 264.10817 
L 222.515523 261.466384 
L 227.968618 258.824599 
L 233.421714 256.182814 
L 238.874809 253.541029 
L 244.327905 250.899244 
L 249.781 248.257459 
L 255.234096 245.615674 
L 260.687192 242.973889 
L 266.140287 240.332103 
L 271.593383 237.690318 
L 277.046478 235.048533 
L 282.499574 232.406748 
L 287.95267 229.764963 
L 293.405765 227.123178 
L 298.858861 224.481393 
L 304.311956 221.839608 
L 309.765052 219.197822 
L 315.218147 216.556037 
L 320.671243 213.914252 
L 326.124339 211.272467 
L 331.577434 208.630682 
L 337.03053 205.988897 
L 342.483625 203.347112 
L 347.936721 200.705327 
L 353.389817 198.063541 
L 358.842912 195.421756 
L 364.296008 192.779971 
L 369.749103 190.138186 
L 375.202199 187.496401 
L 380.655294 184.854616 
L 386.10839 182.212831 
L 391.561486 179.571046 
L 397.014581 176.92926 
L 402.467677 174.287475 
L 407.920772 171.64569 
L 413.373868 169.003905 
L 418.826963 166.36212 
L 424.280059 163.720335 
L 429.733155 161.07855 
L 435.18625 158.436765 
L 440.639346 155.794979 
L 446.092441 153.153194 
L 451.545537 150.511409 
L 456.998633 147.869624 
L 462.451728 145.227839 
L 467.904824 142.586054 
L 473.357919 139.944269 
L 478.811015 137.302484 
L 484.26411 134.660698 
L 489.717206 132.018913 
L 495.170302 129.377128 
L 500.623397 126.735343 
L 506.076493 124.093558 
L 511.529588 121.451773 
L 516.982684 118.809988 
L 522.435779 116.168203 
L 527.888875 113.526417 
L 533.341971 110.884632 
L 538.795066 108.242847 
L 544.248162 105.601062 
L 549.701257 102.959277 
L 555.154353 100.317492 
L 560.607449 97.675707 
L 566.060544 95.033922 
L 571.51364 92.392136 
L 576.966735 89.750351 
L 582.419831 87.108566 
L 587.872926 84.466781 
L 593.326022 81.824996 
L 598.779118 79.183211 
L 604.232213 76.541426 
L 609.685309 73.899641 
L 615.138404 71.257855 
L 620.5915 68.61607 
L 626.044595 65.974285 
L 631.497691 63.3325 
L 636.950787 60.690715 
L 642.403882 58.04893 
L 647.856978 55.407145 
L 653.310073 52.76536 
L 658.763169 50.123574 
L 664.216265 47.481789 
L 669.66936 44.840004 
L 675.122456 42.198219 
L 680.575551 39.556434 
L 686.028647 36.914649 
" clip-path="url(#p3f92e50b68)" style="fill: none; stroke: #d62728; stroke-width: 2; stroke-linecap: round"/>
   </g>
   <g id="line2d_17">
    <path d="M 155.488902 298.451376 
L 161.224323 295.809591 
L 166.959743 293.167806 
L 172.695164 290.526021 
L 178.430584 287.884236 
L 184.166004 285.242451 
L 189.901425 282.600665 
L 195.636845 279.95888 
L 201.372265 277.317095 
L 207.107686 274.67531 
L 212.843106 272.033525 
L 218.578526 269.39174 
L 224.313947 266.749955 
L 230.049367 264.10817 
L 235.784788 261.466384 
L 241.520208 258.824599 
L 247.255628 256.182814 
L 252.991049 253.541029 
L 258.726469 250.899244 
L 264.461889 248.257459 
L 270.19731 245.615674 
L 275.93273 242.973889 
L 281.668151 240.332103 
L 287.403571 237.690318 
L 293.138991 235.048533 
L 298.874412 232.406748 
L 304.609832 229.764963 
L 310.345252 227.123178 
L 316.080673 224.481393 
L 321.816093 221.839608 
L 327.551513 219.197822 
L 333.286934 216.556037 
L 339.022354 213.914252 
L 344.757775 211.272467 
L 350.493195 208.630682 
L 356.228615 205.988897 
L 361.964036 203.347112 
L 367.699456 200.705327 
L 373.434876 198.063541 
L 379.170297 195.421756 
L 384.905717 192.779971 
L 390.641137 190.138186 
L 396.376558 187.496401 
L 402.111978 184.854616 
L 407.847399 182.212831 
L 413.582819 179.571046 
L 419.318239 176.92926 
L 425.05366 174.287475 
L 430.78908 171.64569 
L 436.5245 169.003905 
L 442.259921 166.36212 
L 447.995341 163.720335 
L 453.730762 161.07855 
L 459.466182 158.436765 
L 465.201602 155.794979 
L 470.937023 153.153194 
L 476.672443 150.511409 
L 482.407863 147.869624 
L 488.143284 145.227839 
L 493.878704 142.586054 
L 499.614124 139.944269 
L 505.349545 137.302484 
L 511.084965 134.660698 
L 516.820386 132.018913 
L 522.555806 129.377128 
L 528.291226 126.735343 
L 534.026647 124.093558 
L 539.762067 121.451773 
L 545.497487 118.809988 
L 551.232908 116.168203 
L 556.968328 113.526417 
L 562.703748 110.884632 
L 568.439169 108.242847 
L 574.174589 105.601062 
L 579.91001 102.959277 
L 585.64543 100.317492 
L 591.38085 97.675707 
L 597.116271 95.033922 
L 602.851691 92.392136 
L 608.587111 89.750351 
L 614.322532 87.108566 
L 620.057952 84.466781 
L 625.793373 81.824996 
L 631.528793 79.183211 
L 637.264213 76.541426 
L 642.999634 73.899641 
L 648.735054 71.257855 
L 654.470474 68.61607 
L 660.205895 65.974285 
L 665.941315 63.3325 
L 671.676735 60.690715 
L 677.412156 58.04893 
L 683.147576 55.407145 
L 688.882997 52.76536 
L 694.618417 50.123574 
L 700.353837 47.481789 
L 706.089258 44.840004 
L 711.824678 42.198219 
L 717.560098 39.556434 
L 723.295519 36.914649 
" clip-path="url(#p3f92e50b68)" style="fill: none; stroke: #9467bd; stroke-width: 2; stroke-linecap: round"/>
   </g>
   <g id="patch_3">
    <path d="M 89.719219 311.528212 
L 89.719219 23.837812 
" style="fill: none; stroke: #ffffff; stroke-linejoin: miter; stroke-linecap: square"/>
   </g>
   <g id="patch_4">
    <path d="M 753.465819 311.528212 
L 753.465819 23.837812 
" style="fill: none; stroke: #ffffff; stroke-linejoin: miter; stroke-linecap: square"/>
   </g>
   <g id="patch_5">
    <path d="M 89.719219 311.528212 
L 753.465819 311.528212 
" style="fill: none; stroke: #ffffff; stroke-linejoin: miter; stroke-linecap: square"/>
   </g>
   <g id="patch_6">
    <path d="M 89.719219 23.837812 
L 753.465819 23.837812 
" style="fill: none; stroke: #ffffff; stroke-linejoin: miter; stroke-linecap: square"/>
   </g>
   <g id="text_15">
    <!-- Salaire minimal en fonction du capital et du taux d'interet -->
    <g style="fill: #262626" transform="translate(191.844862 17.837812) scale(0.14 -0.14)">
     <defs>
      <path id="DejaVuSans-Bold-53" d="M 3834 4519 
L 3834 3531 
Q 3450 3703 3084 3790 
Q 2719 3878 2394 3878 
Q 1963 3878 1756 3759 
Q 1550 3641 1550 3391 
Q 1550 3203 1689 3098 
Q 1828 2994 2194 2919 
L 2706 2816 
Q 3484 2659 3812 2340 
Q 4141 2022 4141 1434 
Q 4141 663 3683 286 
Q 3225 -91 2284 -91 
Q 1841 -91 1394 -6 
Q 947 78 500 244 
L 500 1259 
Q 947 1022 1364 901 
Q 1781 781 2169 781 
Q 2563 781 2772 912 
Q 2981 1044 2981 1288 
Q 2981 1506 2839 1625 
Q 2697 1744 2272 1838 
L 1806 1941 
Q 1106 2091 782 2419 
Q 459 2747 459 3303 
Q 459 4000 909 4375 
Q 1359 4750 2203 4750 
Q 2588 4750 2994 4692 
Q 3400 4634 3834 4519 
z
" transform="scale(0.015625)"/>
      <path id="DejaVuSans-Bold-61" d="M 2106 1575 
Q 1756 1575 1579 1456 
Q 1403 1338 1403 1106 
Q 1403 894 1545 773 
Q 1688 653 1941 653 
Q 2256 653 2472 879 
Q 2688 1106 2688 1447 
L 2688 1575 
L 2106 1575 
z
M 3816 1997 
L 3816 0 
L 2688 0 
L 2688 519 
Q 2463 200 2181 54 
Q 1900 -91 1497 -91 
Q 953 -91 614 226 
Q 275 544 275 1050 
Q 275 1666 698 1953 
Q 1122 2241 2028 2241 
L 2688 2241 
L 2688 2328 
Q 2688 2594 2478 2717 
Q 2269 2841 1825 2841 
Q 1466 2841 1156 2769 
Q 847 2697 581 2553 
L 581 3406 
Q 941 3494 1303 3539 
Q 1666 3584 2028 3584 
Q 2975 3584 3395 3211 
Q 3816 2838 3816 1997 
z
" transform="scale(0.015625)"/>
      <path id="DejaVuSans-Bold-6c" d="M 538 4863 
L 1656 4863 
L 1656 0 
L 538 0 
L 538 4863 
z
" transform="scale(0.015625)"/>
      <path id="DejaVuSans-Bold-69" d="M 538 3500 
L 1656 3500 
L 1656 0 
L 538 0 
L 538 3500 
z
M 538 4863 
L 1656 4863 
L 1656 3950 
L 538 3950 
L 538 4863 
z
" transform="scale(0.015625)"/>
      <path id="DejaVuSans-Bold-72" d="M 3138 2547 
Q 2991 2616 2845 2648 
Q 2700 2681 2553 2681 
Q 2122 2681 1889 2404 
Q 1656 2128 1656 1613 
L 1656 0 
L 538 0 
L 538 3500 
L 1656 3500 
L 1656 2925 
Q 1872 3269 2151 3426 
Q 2431 3584 2822 3584 
Q 2878 3584 2943 3579 
Q 3009 3575 3134 3559 
L 3138 2547 
z
" transform="scale(0.015625)"/>
      <path id="DejaVuSans-Bold-65" d="M 4031 1759 
L 4031 1441 
L 1416 1441 
Q 1456 1047 1700 850 
Q 1944 653 2381 653 
Q 2734 653 3104 758 
Q 3475 863 3866 1075 
L 3866 213 
Q 3469 63 3072 -14 
Q 2675 -91 2278 -91 
Q 1328 -91 801 392 
Q 275 875 275 1747 
Q 275 2603 792 3093 
Q 1309 3584 2216 3584 
Q 3041 3584 3536 3087 
Q 4031 2591 4031 1759 
z
M 2881 2131 
Q 2881 2450 2695 2645 
Q 2509 2841 2209 2841 
Q 1884 2841 1681 2658 
Q 1478 2475 1428 2131 
L 2881 2131 
z
" transform="scale(0.015625)"/>
      <path id="DejaVuSans-Bold-20" transform="scale(0.015625)"/>
      <path id="DejaVuSans-Bold-6d" d="M 3781 2919 
Q 3994 3244 4286 3414 
Q 4578 3584 4928 3584 
Q 5531 3584 5847 3212 
Q 6163 2841 6163 2131 
L 6163 0 
L 5038 0 
L 5038 1825 
Q 5041 1866 5042 1909 
Q 5044 1953 5044 2034 
Q 5044 2406 4934 2573 
Q 4825 2741 4581 2741 
Q 4263 2741 4089 2478 
Q 3916 2216 3909 1719 
L 3909 0 
L 2784 0 
L 2784 1825 
Q 2784 2406 2684 2573 
Q 2584 2741 2328 2741 
Q 2006 2741 1831 2477 
Q 1656 2213 1656 1722 
L 1656 0 
L 531 0 
L 531 3500 
L 1656 3500 
L 1656 2988 
Q 1863 3284 2130 3434 
Q 2397 3584 2719 3584 
Q 3081 3584 3359 3409 
Q 3638 3234 3781 2919 
z
" transform="scale(0.015625)"/>
      <path id="DejaVuSans-Bold-6e" d="M 4056 2131 
L 4056 0 
L 2931 0 
L 2931 347 
L 2931 1631 
Q 2931 2084 2911 2256 
Q 2891 2428 2841 2509 
Q 2775 2619 2662 2680 
Q 2550 2741 2406 2741 
Q 2056 2741 1856 2470 
Q 1656 2200 1656 1722 
L 1656 0 
L 538 0 
L 538 3500 
L 1656 3500 
L 1656 2988 
Q 1909 3294 2193 3439 
Q 2478 3584 2822 3584 
Q 3428 3584 3742 3212 
Q 4056 2841 4056 2131 
z
" transform="scale(0.015625)"/>
      <path id="DejaVuSans-Bold-66" d="M 2841 4863 
L 2841 4128 
L 2222 4128 
Q 1984 4128 1890 4042 
Q 1797 3956 1797 3744 
L 1797 3500 
L 2753 3500 
L 2753 2700 
L 1797 2700 
L 1797 0 
L 678 0 
L 678 2700 
L 122 2700 
L 122 3500 
L 678 3500 
L 678 3744 
Q 678 4316 997 4589 
Q 1316 4863 1984 4863 
L 2841 4863 
z
" transform="scale(0.015625)"/>
      <path id="DejaVuSans-Bold-6f" d="M 2203 2784 
Q 1831 2784 1636 2517 
Q 1441 2250 1441 1747 
Q 1441 1244 1636 976 
Q 1831 709 2203 709 
Q 2569 709 2762 976 
Q 2956 1244 2956 1747 
Q 2956 2250 2762 2517 
Q 2569 2784 2203 2784 
z
M 2203 3584 
Q 3106 3584 3614 3096 
Q 4122 2609 4122 1747 
Q 4122 884 3614 396 
Q 3106 -91 2203 -91 
Q 1297 -91 786 396 
Q 275 884 275 1747 
Q 275 2609 786 3096 
Q 1297 3584 2203 3584 
z
" transform="scale(0.015625)"/>
      <path id="DejaVuSans-Bold-63" d="M 3366 3391 
L 3366 2478 
Q 3138 2634 2908 2709 
Q 2678 2784 2431 2784 
Q 1963 2784 1702 2511 
Q 1441 2238 1441 1747 
Q 1441 1256 1702 982 
Q 1963 709 2431 709 
Q 2694 709 2930 787 
Q 3166 866 3366 1019 
L 3366 103 
Q 3103 6 2833 -42 
Q 2563 -91 2291 -91 
Q 1344 -91 809 395 
Q 275 881 275 1747 
Q 275 2613 809 3098 
Q 1344 3584 2291 3584 
Q 2566 3584 2833 3536 
Q 3100 3488 3366 3391 
z
" transform="scale(0.015625)"/>
      <path id="DejaVuSans-Bold-74" d="M 1759 4494 
L 1759 3500 
L 2913 3500 
L 2913 2700 
L 1759 2700 
L 1759 1216 
Q 1759 972 1856 886 
Q 1953 800 2241 800 
L 2816 800 
L 2816 0 
L 1856 0 
Q 1194 0 917 276 
Q 641 553 641 1216 
L 641 2700 
L 84 2700 
L 84 3500 
L 641 3500 
L 641 4494 
L 1759 4494 
z
" transform="scale(0.015625)"/>
      <path id="DejaVuSans-Bold-64" d="M 2919 2988 
L 2919 4863 
L 4044 4863 
L 4044 0 
L 2919 0 
L 2919 506 
Q 2688 197 2409 53 
Q 2131 -91 1766 -91 
Q 1119 -91 703 423 
Q 288 938 288 1747 
Q 288 2556 703 3070 
Q 1119 3584 1766 3584 
Q 2128 3584 2408 3439 
Q 2688 3294 2919 2988 
z
M 2181 722 
Q 2541 722 2730 984 
Q 2919 1247 2919 1747 
Q 2919 2247 2730 2509 
Q 2541 2772 2181 2772 
Q 1825 2772 1636 2509 
Q 1447 2247 1447 1747 
Q 1447 1247 1636 984 
Q 1825 722 2181 722 
z
" transform="scale(0.015625)"/>
      <path id="DejaVuSans-Bold-75" d="M 500 1363 
L 500 3500 
L 1625 3500 
L 1625 3150 
Q 1625 2866 1622 2436 
Q 1619 2006 1619 1863 
Q 1619 1441 1641 1255 
Q 1663 1069 1716 984 
Q 1784 875 1895 815 
Q 2006 756 2150 756 
Q 2500 756 2700 1025 
Q 2900 1294 2900 1772 
L 2900 3500 
L 4019 3500 
L 4019 0 
L 2900 0 
L 2900 506 
Q 2647 200 2364 54 
Q 2081 -91 1741 -91 
Q 1134 -91 817 281 
Q 500 653 500 1363 
z
" transform="scale(0.015625)"/>
      <path id="DejaVuSans-Bold-70" d="M 1656 506 
L 1656 -1331 
L 538 -1331 
L 538 3500 
L 1656 3500 
L 1656 2988 
Q 1888 3294 2169 3439 
Q 2450 3584 2816 3584 
Q 3463 3584 3878 3070 
Q 4294 2556 4294 1747 
Q 4294 938 3878 423 
Q 3463 -91 2816 -91 
Q 2450 -91 2169 54 
Q 1888 200 1656 506 
z
M 2400 2772 
Q 2041 2772 1848 2508 
Q 1656 2244 1656 1747 
Q 1656 1250 1848 986 
Q 2041 722 2400 722 
Q 2759 722 2948 984 
Q 3138 1247 3138 1747 
Q 3138 2247 2948 2509 
Q 2759 2772 2400 2772 
z
" transform="scale(0.015625)"/>
      <path id="DejaVuSans-Bold-78" d="M 1422 1791 
L 159 3500 
L 1344 3500 
L 2059 2463 
L 2784 3500 
L 3969 3500 
L 2706 1797 
L 4031 0 
L 2847 0 
L 2059 1106 
L 1281 0 
L 97 0 
L 1422 1791 
z
" transform="scale(0.015625)"/>
      <path id="DejaVuSans-Bold-27" d="M 1350 4666 
L 1350 2931 
L 609 2931 
L 609 4666 
L 1350 4666 
z
" transform="scale(0.015625)"/>
     </defs>
     <use xlink:href="#DejaVuSans-Bold-53"/>
     <use xlink:href="#DejaVuSans-Bold-61" transform="translate(72.021484 0)"/>
     <use xlink:href="#DejaVuSans-Bold-6c" transform="translate(139.501953 0)"/>
     <use xlink:href="#DejaVuSans-Bold-61" transform="translate(173.779297 0)"/>
     <use xlink:href="#DejaVuSans-Bold-69" transform="translate(241.259766 0)"/>
     <use xlink:href="#DejaVuSans-Bold-72" transform="translate(275.537109 0)"/>
     <use xlink:href="#DejaVuSans-Bold-65" transform="translate(324.853516 0)"/>
     <use xlink:href="#DejaVuSans-Bold-20" transform="translate(392.675781 0)"/>
     <use xlink:href="#DejaVuSans-Bold-6d" transform="translate(427.490234 0)"/>
     <use xlink:href="#DejaVuSans-Bold-69" transform="translate(531.689453 0)"/>
     <use xlink:href="#DejaVuSans-Bold-6e" transform="translate(565.966797 0)"/>
     <use xlink:href="#DejaVuSans-Bold-69" transform="translate(637.158203 0)"/>
     <use xlink:href="#DejaVuSans-Bold-6d" transform="translate(671.435547 0)"/>
     <use xlink:href="#DejaVuSans-Bold-61" transform="translate(775.634766 0)"/>
     <use xlink:href="#DejaVuSans-Bold-6c" transform="translate(843.115234 0)"/>
     <use xlink:href="#DejaVuSans-Bold-20" transform="translate(877.392578 0)"/>
     <use xlink:href="#DejaVuSans-Bold-65" transform="translate(912.207031 0)"/>
     <use xlink:href="#DejaVuSans-Bold-6e" transform="translate(980.029297 0)"/>
     <use xlink:href="#DejaVuSans-Bold-20" transform="translate(1051.220703 0)"/>
     <use xlink:href="#DejaVuSans-Bold-66" transform="translate(1086.035156 0)"/>
     <use xlink:href="#DejaVuSans-Bold-6f" transform="translate(1129.541016 0)"/>
     <use xlink:href="#DejaVuSans-Bold-6e" transform="translate(1198.242188 0)"/>
     <use xlink:href="#DejaVuSans-Bold-63" transform="translate(1269.433594 0)"/>
     <use xlink:href="#DejaVuSans-Bold-74" transform="translate(1328.710938 0)"/>
     <use xlink:href="#DejaVuSans-Bold-69" transform="translate(1376.513672 0)"/>
     <use xlink:href="#DejaVuSans-Bold-6f" transform="translate(1410.791016 0)"/>
     <use xlink:href="#DejaVuSans-Bold-6e" transform="translate(1479.492188 0)"/>
     <use xlink:href="#DejaVuSans-Bold-20" transform="translate(1550.683594 0)"/>
     <use xlink:href="#DejaVuSans-Bold-64" transform="translate(1585.498047 0)"/>
     <use xlink:href="#DejaVuSans-Bold-75" transform="translate(1657.080078 0)"/>
     <use xlink:href="#DejaVuSans-Bold-20" transform="translate(1728.271484 0)"/>
     <use xlink:href="#DejaVuSans-Bold-63" transform="translate(1763.085938 0)"/>
     <use xlink:href="#DejaVuSans-Bold-61" transform="translate(1822.363281 0)"/>
     <use xlink:href="#DejaVuSans-Bold-70" transform="translate(1889.84375 0)"/>
     <use xlink:href="#DejaVuSans-Bold-69" transform="translate(1961.425781 0)"/>
     <use xlink:href="#DejaVuSans-Bold-74" transform="translate(1995.703125 0)"/>
     <use xlink:href="#DejaVuSans-Bold-61" transform="translate(2043.505859 0)"/>
     <use xlink:href="#DejaVuSans-Bold-6c" transform="translate(2110.986328 0)"/>
     <use xlink:href="#DejaVuSans-Bold-20" transform="translate(2145.263672 0)"/>
     <use xlink:href="#DejaVuSans-Bold-65" transform="translate(2180.078125 0)"/>
     <use xlink:href="#DejaVuSans-Bold-74" transform="translate(2247.900391 0)"/>
     <use xlink:href="#DejaVuSans-Bold-20" transform="translate(2295.703125 0)"/>
     <use xlink:href="#DejaVuSans-Bold-64" transform="translate(2330.517578 0)"/>
     <use xlink:href="#DejaVuSans-Bold-75" transform="translate(2402.099609 0)"/>
     <use xlink:href="#DejaVuSans-Bold-20" transform="translate(2473.291016 0)"/>
     <use xlink:href="#DejaVuSans-Bold-74" transform="translate(2508.105469 0)"/>
     <use xlink:href="#DejaVuSans-Bold-61" transform="translate(2555.908203 0)"/>
     <use xlink:href="#DejaVuSans-Bold-75" transform="translate(2623.388672 0)"/>
     <use xlink:href="#DejaVuSans-Bold-78" transform="translate(2694.580078 0)"/>
     <use xlink:href="#DejaVuSans-Bold-20" transform="translate(2759.082031 0)"/>
     <use xlink:href="#DejaVuSans-Bold-64" transform="translate(2793.896484 0)"/>
     <use xlink:href="#DejaVuSans-Bold-27" transform="translate(2865.478516 0)"/>
     <use xlink:href="#DejaVuSans-Bold-69" transform="translate(2896.09375 0)"/>
     <use xlink:href="#DejaVuSans-Bold-6e" transform="translate(2930.371094 0)"/>
     <use xlink:href="#DejaVuSans-Bold-74" transform="translate(3001.5625 0)"/>
     <use xlink:href="#DejaVuSans-Bold-65" transform="translate(3049.365234 0)"/>
     <use xlink:href="#DejaVuSans-Bold-72" transform="translate(3117.1875 0)"/>
     <use xlink:href="#DejaVuSans-Bold-65" transform="translate(3166.503906 0)"/>
     <use xlink:href="#DejaVuSans-Bold-74" transform="translate(3234.326172 0)"/>
    </g>
   </g>
   <g id="legend_1">
    <g id="patch_7">
     <path d="M 96.019219 111.809475 
L 173.962031 111.809475 
Q 175.762031 111.809475 175.762031 110.009475 
L 175.762031 30.137812 
Q 175.762031 28.337812 173.962031 28.337812 
L 96.019219 28.337812 
Q 94.219219 28.337812 94.219219 30.137812 
L 94.219219 110.009475 
Q 94.219219 111.809475 96.019219 111.809475 
z
" style="fill: #f5f5f5; opacity: 0.85; stroke: #cccccc; stroke-width: 0.8; stroke-linejoin: miter"/>
    </g>
    <g id="text_16">
     <!-- Taux d'interet -->
     <g style="fill: #262626" transform="translate(98.946375 39.961762) scale(0.1056 -0.1056)">
      <defs>
       <path id="DejaVuSans-54" d="M -19 4666 
L 3928 4666 
L 3928 4134 
L 2272 4134 
L 2272 0 
L 1638 0 
L 1638 4134 
L -19 4134 
L -19 4666 
z
" transform="scale(0.015625)"/>
       <path id="DejaVuSans-78" d="M 3513 3500 
L 2247 1797 
L 3578 0 
L 2900 0 
L 1881 1375 
L 863 0 
L 184 0 
L 1544 1831 
L 300 3500 
L 978 3500 
L 1906 2253 
L 2834 3500 
L 3513 3500 
z
" transform="scale(0.015625)"/>
       <path id="DejaVuSans-64" d="M 2906 2969 
L 2906 4863 
L 3481 4863 
L 3481 0 
L 2906 0 
L 2906 525 
Q 2725 213 2448 61 
Q 2172 -91 1784 -91 
Q 1150 -91 751 415 
Q 353 922 353 1747 
Q 353 2572 751 3078 
Q 1150 3584 1784 3584 
Q 2172 3584 2448 3432 
Q 2725 3281 2906 2969 
z
M 947 1747 
Q 947 1113 1208 752 
Q 1469 391 1925 391 
Q 2381 391 2643 752 
Q 2906 1113 2906 1747 
Q 2906 2381 2643 2742 
Q 2381 3103 1925 3103 
Q 1469 3103 1208 2742 
Q 947 2381 947 1747 
z
" transform="scale(0.015625)"/>
       <path id="DejaVuSans-27" d="M 1147 4666 
L 1147 2931 
L 616 2931 
L 616 4666 
L 1147 4666 
z
" transform="scale(0.015625)"/>
      </defs>
      <use xlink:href="#DejaVuSans-54"/>
      <use xlink:href="#DejaVuSans-61" transform="translate(44.583984 0)"/>
      <use xlink:href="#DejaVuSans-75" transform="translate(105.863281 0)"/>
      <use xlink:href="#DejaVuSans-78" transform="translate(169.242188 0)"/>
      <use xlink:href="#DejaVuSans-20" transform="translate(228.421875 0)"/>
      <use xlink:href="#DejaVuSans-64" transform="translate(260.208984 0)"/>
      <use xlink:href="#DejaVuSans-27" transform="translate(323.685547 0)"/>
      <use xlink:href="#DejaVuSans-69" transform="translate(351.175781 0)"/>
      <use xlink:href="#DejaVuSans-6e" transform="translate(378.958984 0)"/>
      <use xlink:href="#DejaVuSans-74" transform="translate(442.337891 0)"/>
      <use xlink:href="#DejaVuSans-65" transform="translate(481.546875 0)"/>
      <use xlink:href="#DejaVuSans-72" transform="translate(543.070312 0)"/>
      <use xlink:href="#DejaVuSans-65" transform="translate(581.933594 0)"/>
      <use xlink:href="#DejaVuSans-74" transform="translate(643.457031 0)"/>
     </g>
    </g>
    <g id="line2d_18">
     <path d="M 97.819219 50.346506 
L 106.819219 50.346506 
L 115.819219 50.346506 
" style="fill: none; stroke: #1f77b4; stroke-width: 2; stroke-linecap: round"/>
    </g>
    <g id="text_17">
     <!-- Taux 2.0 % -->
     <g style="fill: #262626" transform="translate(123.019219 53.496506) scale(0.09 -0.09)">
      <defs>
       <path id="DejaVuSans-2e" d="M 684 794 
L 1344 794 
L 1344 0 
L 684 0 
L 684 794 
z
" transform="scale(0.015625)"/>
       <path id="DejaVuSans-25" d="M 4653 2053 
Q 4381 2053 4226 1822 
Q 4072 1591 4072 1178 
Q 4072 772 4226 539 
Q 4381 306 4653 306 
Q 4919 306 5073 539 
Q 5228 772 5228 1178 
Q 5228 1588 5073 1820 
Q 4919 2053 4653 2053 
z
M 4653 2450 
Q 5147 2450 5437 2106 
Q 5728 1763 5728 1178 
Q 5728 594 5436 251 
Q 5144 -91 4653 -91 
Q 4153 -91 3862 251 
Q 3572 594 3572 1178 
Q 3572 1766 3864 2108 
Q 4156 2450 4653 2450 
z
M 1428 4353 
Q 1159 4353 1004 4120 
Q 850 3888 850 3481 
Q 850 3069 1003 2837 
Q 1156 2606 1428 2606 
Q 1700 2606 1854 2837 
Q 2009 3069 2009 3481 
Q 2009 3884 1853 4118 
Q 1697 4353 1428 4353 
z
M 4250 4750 
L 4750 4750 
L 1831 -91 
L 1331 -91 
L 4250 4750 
z
M 1428 4750 
Q 1922 4750 2215 4408 
Q 2509 4066 2509 3481 
Q 2509 2891 2217 2550 
Q 1925 2209 1428 2209 
Q 931 2209 642 2551 
Q 353 2894 353 3481 
Q 353 4063 643 4406 
Q 934 4750 1428 4750 
z
" transform="scale(0.015625)"/>
      </defs>
      <use xlink:href="#DejaVuSans-54"/>
      <use xlink:href="#DejaVuSans-61" transform="translate(44.583984 0)"/>
      <use xlink:href="#DejaVuSans-75" transform="translate(105.863281 0)"/>
      <use xlink:href="#DejaVuSans-78" transform="translate(169.242188 0)"/>
      <use xlink:href="#DejaVuSans-20" transform="translate(228.421875 0)"/>
      <use xlink:href="#DejaVuSans-32" transform="translate(260.208984 0)"/>
      <use xlink:href="#DejaVuSans-2e" transform="translate(323.832031 0)"/>
      <use xlink:href="#DejaVuSans-30" transform="translate(355.619141 0)"/>
      <use xlink:href="#DejaVuSans-20" transform="translate(419.242188 0)"/>
      <use xlink:href="#DejaVuSans-25" transform="translate(451.029297 0)"/>
     </g>
    </g>
    <g id="line2d_19">
     <path d="M 97.819219 63.556819 
L 106.819219 63.556819 
L 115.819219 63.556819 
" style="fill: none; stroke: #ff7f0e; stroke-width: 2; stroke-linecap: round"/>
    </g>
    <g id="text_18">
     <!-- Taux 2.5 % -->
     <g style="fill: #262626" transform="translate(123.019219 66.706819) scale(0.09 -0.09)">
      <use xlink:href="#DejaVuSans-54"/>
      <use xlink:href="#DejaVuSans-61" transform="translate(44.583984 0)"/>
      <use xlink:href="#DejaVuSans-75" transform="translate(105.863281 0)"/>
      <use xlink:href="#DejaVuSans-78" transform="translate(169.242188 0)"/>
      <use xlink:href="#DejaVuSans-20" transform="translate(228.421875 0)"/>
      <use xlink:href="#DejaVuSans-32" transform="translate(260.208984 0)"/>
      <use xlink:href="#DejaVuSans-2e" transform="translate(323.832031 0)"/>
      <use xlink:href="#DejaVuSans-35" transform="translate(355.619141 0)"/>
      <use xlink:href="#DejaVuSans-20" transform="translate(419.242188 0)"/>
      <use xlink:href="#DejaVuSans-25" transform="translate(451.029297 0)"/>
     </g>
    </g>
    <g id="line2d_20">
     <path d="M 97.819219 76.767131 
L 106.819219 76.767131 
L 115.819219 76.767131 
" style="fill: none; stroke: #2ca02c; stroke-width: 2; stroke-linecap: round"/>
    </g>
    <g id="text_19">
     <!-- Taux 3.0 % -->
     <g style="fill: #262626" transform="translate(123.019219 79.917131) scale(0.09 -0.09)">
      <use xlink:href="#DejaVuSans-54"/>
      <use xlink:href="#DejaVuSans-61" transform="translate(44.583984 0)"/>
      <use xlink:href="#DejaVuSans-75" transform="translate(105.863281 0)"/>
      <use xlink:href="#DejaVuSans-78" transform="translate(169.242188 0)"/>
      <use xlink:href="#DejaVuSans-20" transform="translate(228.421875 0)"/>
      <use xlink:href="#DejaVuSans-33" transform="translate(260.208984 0)"/>
      <use xlink:href="#DejaVuSans-2e" transform="translate(323.832031 0)"/>
      <use xlink:href="#DejaVuSans-30" transform="translate(355.619141 0)"/>
      <use xlink:href="#DejaVuSans-20" transform="translate(419.242188 0)"/>
      <use xlink:href="#DejaVuSans-25" transform="translate(451.029297 0)"/>
     </g>
    </g>
    <g id="line2d_21">
     <path d="M 97.819219 89.977444 
L 106.819219 89.977444 
L 115.819219 89.977444 
" style="fill: none; stroke: #d62728; stroke-width: 2; stroke-linecap: round"/>
    </g>
    <g id="text_20">
     <!-- Taux 3.5 % -->
     <g style="fill: #262626" transform="translate(123.019219 93.127444) scale(0.09 -0.09)">
      <use xlink:href="#DejaVuSans-54"/>
      <use xlink:href="#DejaVuSans-61" transform="translate(44.583984 0)"/>
      <use xlink:href="#DejaVuSans-75" transform="translate(105.863281 0)"/>
      <use xlink:href="#DejaVuSans-78" transform="translate(169.242188 0)"/>
      <use xlink:href="#DejaVuSans-20" transform="translate(228.421875 0)"/>
      <use xlink:href="#DejaVuSans-33" transform="translate(260.208984 0)"/>
      <use xlink:href="#DejaVuSans-2e" transform="translate(323.832031 0)"/>
      <use xlink:href="#DejaVuSans-35" transform="translate(355.619141 0)"/>
      <use xlink:href="#DejaVuSans-20" transform="translate(419.242188 0)"/>
      <use xlink:href="#DejaVuSans-25" transform="translate(451.029297 0)"/>
     </g>
    </g>
    <g id="line2d_22">
     <path d="M 97.819219 103.187756 
L 106.819219 103.187756 
L 115.819219 103.187756 
" style="fill: none; stroke: #9467bd; stroke-width: 2; stroke-linecap: round"/>
    </g>
    <g id="text_21">
     <!-- Taux 4.0 % -->
     <g style="fill: #262626" transform="translate(123.019219 106.337756) scale(0.09 -0.09)">
      <use xlink:href="#DejaVuSans-54"/>
      <use xlink:href="#DejaVuSans-61" transform="translate(44.583984 0)"/>
      <use xlink:href="#DejaVuSans-75" transform="translate(105.863281 0)"/>
      <use xlink:href="#DejaVuSans-78" transform="translate(169.242188 0)"/>
      <use xlink:href="#DejaVuSans-20" transform="translate(228.421875 0)"/>
      <use xlink:href="#DejaVuSans-34" transform="translate(260.208984 0)"/>
      <use xlink:href="#DejaVuSans-2e" transform="translate(323.832031 0)"/>
      <use xlink:href="#DejaVuSans-30" transform="translate(355.619141 0)"/>
      <use xlink:href="#DejaVuSans-20" transform="translate(419.242188 0)"/>
      <use xlink:href="#DejaVuSans-25" transform="translate(451.029297 0)"/>
     </g>
    </g>
   </g>
  </g>
 </g>
 <defs>
  <clipPath id="p3f92e50b68">
   <rect x="89.719219" y="23.837812" width="663.7466" height="287.6904"/>
  </clipPath>
 </defs>
</svg>
