<?xml version="1.0" encoding="utf-8" standalone="no"?>
<!DOCTYPE svg PUBLIC "-//W3C//DTD SVG 1.1//EN"
  "http://www.w3.org/Graphics/SVG/1.1/DTD/svg11.dtd">
<svg xmlns:xlink="http://www.w3.org/1999/xlink" width="855.487531pt" height="422.90402pt" viewBox="0 0 855.487531 422.90402" xmlns="http://www.w3.org/2000/svg" version="1.1">
 <metadata>
  <rdf:RDF xmlns:dc="http://purl.org/dc/elements/1.1/" xmlns:cc="http://creativecommons.org/ns#" xmlns:rdf="http://www.w3.org/1999/02/22-rdf-syntax-ns#">
   <cc:Work>
    <dc:type rdf:resource="http://purl.org/dc/dcmitype/StillImage"/>
    <dc:date>2026-04-04T16:34:23.618776</dc:date>
    <dc:format>image/svg+xml</dc:format>
    <dc:creator>
     <cc:Agent>
      <dc:title>Matplotlib v3.10.8, https://matplotlib.org/</dc:title>
     </cc:Agent>
    </dc:creator>
   </cc:Work>
  </rdf:RDF>
 </metadata>
 <defs>
  <style type="text/css">*{stroke-linejoin: round; stroke-linecap: butt}</style>
 </defs>
 <g id="figure_1">
  <g id="patch_1">
   <path d="M 0 422.90402 
L 855.487531 422.90402 
L 855.487531 0 
L 0 0 
z
" style="fill: #ffffff"/>
  </g>
  <g id="axes_1">
   <g id="patch_2">
    <path d="M 56.257188 355.222644 
L 792.726587 355.222644 
L 792.726587 24.397812 
L 56.257188 24.397812 
z
" style="fill: #f5f5f5"/>
   </g>
   <g id="patch_3">
    <path d="M 56.257188 54.472797 
L 792.726587 54.472797 
L 792.726587 129.660259 
L 56.257188 129.660259 
z
" clip-path="url(#p3e7b8969e0)" style="fill: #2ca02c; opacity: 0.06; stroke: #2ca02c; stroke-width: 0.8; stroke-linejoin: miter"/>
   </g>
   <g id="patch_4">
    <path d="M 56.257188 129.660259 
L 792.726587 129.660259 
L 792.726587 280.035183 
L 56.257188 280.035183 
z
" clip-path="url(#p3e7b8969e0)" style="fill: #ff7f0e; opacity: 0.06; stroke: #ff7f0e; stroke-width: 0.8; stroke-linejoin: miter"/>
   </g>
   <g id="patch_5">
    <path d="M 56.257188 280.035183 
L 792.726587 280.035183 
L 792.726587 355.222644 
L 56.257188 355.222644 
z
" clip-path="url(#p3e7b8969e0)" style="fill: #d62728; opacity: 0.06; stroke: #d62728; stroke-width: 0.8; stroke-linejoin: miter"/>
   </g>
   <g id="matplotlib.axis_1">
    <g id="xtick_1">
     <g id="line2d_1">
      <path d="M 66.993328 355.222644 
L 66.993328 24.397812 
" clip-path="url(#p3e7b8969e0)" style="fill: none; stroke-dasharray: 2.96,1.28; stroke-dashoffset: 0; stroke: #cccccc; stroke-width: 0.8"/>
     </g>
     <g id="text_1">
      <!-- May 2020 -->
      <g style="fill: #262626" transform="translate(34.293506 399.734577) rotate(-45) scale(0.09 -0.09)">
       <defs>
        <path id="DejaVuSans-4d" d="M 628 4666 
L 1569 4666 
L 2759 1491 
L 3956 4666 
L 4897 4666 
L 4897 0 
L 4281 0 
L 4281 4097 
L 3078 897 
L 2444 897 
L 1241 4097 
L 1241 0 
L 628 0 
L 628 4666 
z
" transform="scale(0.015625)"/>
        <path id="DejaVuSans-61" d="M 2194 1759 
Q 1497 1759 1228 1600 
Q 959 1441 959 1056 
Q 959 750 1161 570 
Q 1363 391 1709 391 
Q 2188 391 2477 730 
Q 2766 1069 2766 1631 
L 2766 1759 
L 2194 1759 
z
M 3341 1997 
L 3341 0 
L 2766 0 
L 2766 531 
Q 2569 213 2275 61 
Q 1981 -91 1556 -91 
Q 1019 -91 701 211 
Q 384 513 384 1019 
Q 384 1609 779 1909 
Q 1175 2209 1959 2209 
L 2766 2209 
L 2766 2266 
Q 2766 2663 2505 2880 
Q 2244 3097 1772 3097 
Q 1472 3097 1187 3025 
Q 903 2953 641 2809 
L 641 3341 
Q 956 3463 1253 3523 
Q 1550 3584 1831 3584 
Q 2591 3584 2966 3190 
Q 3341 2797 3341 1997 
z
" transform="scale(0.015625)"/>
        <path id="DejaVuSans-79" d="M 2059 -325 
Q 1816 -950 1584 -1140 
Q 1353 -1331 966 -1331 
L 506 -1331 
L 506 -850 
L 844 -850 
Q 1081 -850 1212 -737 
Q 1344 -625 1503 -206 
L 1606 56 
L 191 3500 
L 800 3500 
L 1894 763 
L 2988 3500 
L 3597 3500 
L 2059 -325 
z
" transform="scale(0.015625)"/>
        <path id="DejaVuSans-20" transform="scale(0.015625)"/>
        <path id="DejaVuSans-32" d="M 1228 531 
L 3431 531 
L 3431 0 
L 469 0 
L 469 531 
Q 828 903 1448 1529 
Q 2069 2156 2228 2338 
Q 2531 2678 2651 2914 
Q 2772 3150 2772 3378 
Q 2772 3750 2511 3984 
Q 2250 4219 1831 4219 
Q 1534 4219 1204 4116 
Q 875 4013 500 3803 
L 500 4441 
Q 881 4594 1212 4672 
Q 1544 4750 1819 4750 
Q 2544 4750 2975 4387 
Q 3406 4025 3406 3419 
Q 3406 3131 3298 2873 
Q 3191 2616 2906 2266 
Q 2828 2175 2409 1742 
Q 1991 1309 1228 531 
z
" transform="scale(0.015625)"/>
        <path id="DejaVuSans-30" d="M 2034 4250 
Q 1547 4250 1301 3770 
Q 1056 3291 1056 2328 
Q 1056 1369 1301 889 
Q 1547 409 2034 409 
Q 2525 409 2770 889 
Q 3016 1369 3016 2328 
Q 3016 3291 2770 3770 
Q 2525 4250 2034 4250 
z
M 2034 4750 
Q 2819 4750 3233 4129 
Q 3647 3509 3647 2328 
Q 3647 1150 3233 529 
Q 2819 -91 2034 -91 
Q 1250 -91 836 529 
Q 422 1150 422 2328 
Q 422 3509 836 4129 
Q 1250 4750 2034 4750 
z
" transform="scale(0.015625)"/>
       </defs>
       <use xlink:href="#DejaVuSans-4d"/>
       <use xlink:href="#DejaVuSans-61" transform="translate(86.279297 0)"/>
       <use xlink:href="#DejaVuSans-79" transform="translate(147.558594 0)"/>
       <use xlink:href="#DejaVuSans-20" transform="translate(206.738281 0)"/>
       <use xlink:href="#DejaVuSans-32" transform="translate(238.525391 0)"/>
       <use xlink:href="#DejaVuSans-30" transform="translate(302.148438 0)"/>
       <use xlink:href="#DejaVuSans-32" transform="translate(365.771484 0)"/>
       <use xlink:href="#DejaVuSans-30" transform="translate(429.394531 0)"/>
      </g>
     </g>
    </g>
    <g id="xtick_2">
     <g id="line2d_2">
      <path d="M 101.289331 355.222644 
L 101.289331 24.397812 
" clip-path="url(#p3e7b8969e0)" style="fill: none; stroke-dasharray: 2.96,1.28; stroke-dashoffset: 0; stroke: #cccccc; stroke-width: 0.8"/>
     </g>
     <g id="text_2">
      <!-- Aug 2020 -->
      <g style="fill: #262626" transform="translate(69.320371 399.003716) rotate(-45) scale(0.09 -0.09)">
       <defs>
        <path id="DejaVuSans-41" d="M 2188 4044 
L 1331 1722 
L 3047 1722 
L 2188 4044 
z
M 1831 4666 
L 2547 4666 
L 4325 0 
L 3669 0 
L 3244 1197 
L 1141 1197 
L 716 0 
L 50 0 
L 1831 4666 
z
" transform="scale(0.015625)"/>
        <path id="DejaVuSans-75" d="M 544 1381 
L 544 3500 
L 1119 3500 
L 1119 1403 
Q 1119 906 1312 657 
Q 1506 409 1894 409 
Q 2359 409 2629 706 
Q 2900 1003 2900 1516 
L 2900 3500 
L 3475 3500 
L 3475 0 
L 2900 0 
L 2900 538 
Q 2691 219 2414 64 
Q 2138 -91 1772 -91 
Q 1169 -91 856 284 
Q 544 659 544 1381 
z
M 1991 3584 
L 1991 3584 
z
" transform="scale(0.015625)"/>
        <path id="DejaVuSans-67" d="M 2906 1791 
Q 2906 2416 2648 2759 
Q 2391 3103 1925 3103 
Q 1463 3103 1205 2759 
Q 947 2416 947 1791 
Q 947 1169 1205 825 
Q 1463 481 1925 481 
Q 2391 481 2648 825 
Q 2906 1169 2906 1791 
z
M 3481 434 
Q 3481 -459 3084 -895 
Q 2688 -1331 1869 -1331 
Q 1566 -1331 1297 -1286 
Q 1028 -1241 775 -1147 
L 775 -588 
Q 1028 -725 1275 -790 
Q 1522 -856 1778 -856 
Q 2344 -856 2625 -561 
Q 2906 -266 2906 331 
L 2906 616 
Q 2728 306 2450 153 
Q 2172 0 1784 0 
Q 1141 0 747 490 
Q 353 981 353 1791 
Q 353 2603 747 3093 
Q 1141 3584 1784 3584 
Q 2172 3584 2450 3431 
Q 2728 3278 2906 2969 
L 2906 3500 
L 3481 3500 
L 3481 434 
z
" transform="scale(0.015625)"/>
       </defs>
       <use xlink:href="#DejaVuSans-41"/>
       <use xlink:href="#DejaVuSans-75" transform="translate(68.408203 0)"/>
       <use xlink:href="#DejaVuSans-67" transform="translate(131.787109 0)"/>
       <use xlink:href="#DejaVuSans-20" transform="translate(195.263672 0)"/>
       <use xlink:href="#DejaVuSans-32" transform="translate(227.050781 0)"/>
       <use xlink:href="#DejaVuSans-30" transform="translate(290.673828 0)"/>
       <use xlink:href="#DejaVuSans-32" transform="translate(354.296875 0)"/>
       <use xlink:href="#DejaVuSans-30" transform="translate(417.919922 0)"/>
      </g>
     </g>
    </g>
    <g id="xtick_3">
     <g id="line2d_3">
      <path d="M 135.585335 355.222644 
L 135.585335 24.397812 
" clip-path="url(#p3e7b8969e0)" style="fill: none; stroke-dasharray: 2.96,1.28; stroke-dashoffset: 0; stroke: #cccccc; stroke-width: 0.8"/>
     </g>
     <g id="text_3">
      <!-- Nov 2020 -->
      <g style="fill: #262626" transform="translate(103.621346 398.998744) rotate(-45) scale(0.09 -0.09)">
       <defs>
        <path id="DejaVuSans-4e" d="M 628 4666 
L 1478 4666 
L 3547 763 
L 3547 4666 
L 4159 4666 
L 4159 0 
L 3309 0 
L 1241 3903 
L 1241 0 
L 628 0 
L 628 4666 
z
" transform="scale(0.015625)"/>
        <path id="DejaVuSans-6f" d="M 1959 3097 
Q 1497 3097 1228 2736 
Q 959 2375 959 1747 
Q 959 1119 1226 758 
Q 1494 397 1959 397 
Q 2419 397 2687 759 
Q 2956 1122 2956 1747 
Q 2956 2369 2687 2733 
Q 2419 3097 1959 3097 
z
M 1959 3584 
Q 2709 3584 3137 3096 
Q 3566 2609 3566 1747 
Q 3566 888 3137 398 
Q 2709 -91 1959 -91 
Q 1206 -91 779 398 
Q 353 888 353 1747 
Q 353 2609 779 3096 
Q 1206 3584 1959 3584 
z
" transform="scale(0.015625)"/>
        <path id="DejaVuSans-76" d="M 191 3500 
L 800 3500 
L 1894 563 
L 2988 3500 
L 3597 3500 
L 2284 0 
L 1503 0 
L 191 3500 
z
" transform="scale(0.015625)"/>
       </defs>
       <use xlink:href="#DejaVuSans-4e"/>
       <use xlink:href="#DejaVuSans-6f" transform="translate(74.804688 0)"/>
       <use xlink:href="#DejaVuSans-76" transform="translate(135.986328 0)"/>
       <use xlink:href="#DejaVuSans-20" transform="translate(195.166016 0)"/>
       <use xlink:href="#DejaVuSans-32" transform="translate(226.953125 0)"/>
       <use xlink:href="#DejaVuSans-30" transform="translate(290.576172 0)"/>
       <use xlink:href="#DejaVuSans-32" transform="translate(354.199219 0)"/>
       <use xlink:href="#DejaVuSans-30" transform="translate(417.822266 0)"/>
      </g>
     </g>
    </g>
    <g id="xtick_4">
     <g id="line2d_4">
      <path d="M 169.881339 355.222644 
L 169.881339 24.397812 
" clip-path="url(#p3e7b8969e0)" style="fill: none; stroke-dasharray: 2.96,1.28; stroke-dashoffset: 0; stroke: #cccccc; stroke-width: 0.8"/>
     </g>
     <g id="text_4">
      <!-- Feb 2021 -->
      <g style="fill: #262626" transform="translate(139.072807 397.843287) rotate(-45) scale(0.09 -0.09)">
       <defs>
        <path id="DejaVuSans-46" d="M 628 4666 
L 3309 4666 
L 3309 4134 
L 1259 4134 
L 1259 2759 
L 3109 2759 
L 3109 2228 
L 1259 2228 
L 1259 0 
L 628 0 
L 628 4666 
z
" transform="scale(0.015625)"/>
        <path id="DejaVuSans-65" d="M 3597 1894 
L 3597 1613 
L 953 1613 
Q 991 1019 1311 708 
Q 1631 397 2203 397 
Q 2534 397 2845 478 
Q 3156 559 3463 722 
L 3463 178 
Q 3153 47 2828 -22 
Q 2503 -91 2169 -91 
Q 1331 -91 842 396 
Q 353 884 353 1716 
Q 353 2575 817 3079 
Q 1281 3584 2069 3584 
Q 2775 3584 3186 3129 
Q 3597 2675 3597 1894 
z
M 3022 2063 
Q 3016 2534 2758 2815 
Q 2500 3097 2075 3097 
Q 1594 3097 1305 2825 
Q 1016 2553 972 2059 
L 3022 2063 
z
" transform="scale(0.015625)"/>
        <path id="DejaVuSans-62" d="M 3116 1747 
Q 3116 2381 2855 2742 
Q 2594 3103 2138 3103 
Q 1681 3103 1420 2742 
Q 1159 2381 1159 1747 
Q 1159 1113 1420 752 
Q 1681 391 2138 391 
Q 2594 391 2855 752 
Q 3116 1113 3116 1747 
z
M 1159 2969 
Q 1341 3281 1617 3432 
Q 1894 3584 2278 3584 
Q 2916 3584 3314 3078 
Q 3713 2572 3713 1747 
Q 3713 922 3314 415 
Q 2916 -91 2278 -91 
Q 1894 -91 1617 61 
Q 1341 213 1159 525 
L 1159 0 
L 581 0 
L 581 4863 
L 1159 4863 
L 1159 2969 
z
" transform="scale(0.015625)"/>
        <path id="DejaVuSans-31" d="M 794 531 
L 1825 531 
L 1825 4091 
L 703 3866 
L 703 4441 
L 1819 4666 
L 2450 4666 
L 2450 531 
L 3481 531 
L 3481 0 
L 794 0 
L 794 531 
z
" transform="scale(0.015625)"/>
       </defs>
       <use xlink:href="#DejaVuSans-46"/>
       <use xlink:href="#DejaVuSans-65" transform="translate(52.019531 0)"/>
       <use xlink:href="#DejaVuSans-62" transform="translate(113.542969 0)"/>
       <use xlink:href="#DejaVuSans-20" transform="translate(177.019531 0)"/>
       <use xlink:href="#DejaVuSans-32" transform="translate(208.806641 0)"/>
       <use xlink:href="#DejaVuSans-30" transform="translate(272.429688 0)"/>
       <use xlink:href="#DejaVuSans-32" transform="translate(336.052734 0)"/>
       <use xlink:href="#DejaVuSans-31" transform="translate(399.675781 0)"/>
      </g>
     </g>
    </g>
    <g id="xtick_5">
     <g id="line2d_5">
      <path d="M 203.058994 355.222644 
L 203.058994 24.397812 
" clip-path="url(#p3e7b8969e0)" style="fill: none; stroke-dasharray: 2.96,1.28; stroke-dashoffset: 0; stroke: #cccccc; stroke-width: 0.8"/>
     </g>
     <g id="text_5">
      <!-- May 2021 -->
      <g style="fill: #262626" transform="translate(170.359173 399.734577) rotate(-45) scale(0.09 -0.09)">
       <use xlink:href="#DejaVuSans-4d"/>
       <use xlink:href="#DejaVuSans-61" transform="translate(86.279297 0)"/>
       <use xlink:href="#DejaVuSans-79" transform="translate(147.558594 0)"/>
       <use xlink:href="#DejaVuSans-20" transform="translate(206.738281 0)"/>
       <use xlink:href="#DejaVuSans-32" transform="translate(238.525391 0)"/>
       <use xlink:href="#DejaVuSans-30" transform="translate(302.148438 0)"/>
       <use xlink:href="#DejaVuSans-32" transform="translate(365.771484 0)"/>
       <use xlink:href="#DejaVuSans-31" transform="translate(429.394531 0)"/>
      </g>
     </g>
    </g>
    <g id="xtick_6">
     <g id="line2d_6">
      <path d="M 237.354998 355.222644 
L 237.354998 24.397812 
" clip-path="url(#p3e7b8969e0)" style="fill: none; stroke-dasharray: 2.96,1.28; stroke-dashoffset: 0; stroke: #cccccc; stroke-width: 0.8"/>
     </g>
     <g id="text_6">
      <!-- Aug 2021 -->
      <g style="fill: #262626" transform="translate(205.386038 399.003716) rotate(-45) scale(0.09 -0.09)">
       <use xlink:href="#DejaVuSans-41"/>
       <use xlink:href="#DejaVuSans-75" transform="translate(68.408203 0)"/>
       <use xlink:href="#DejaVuSans-67" transform="translate(131.787109 0)"/>
       <use xlink:href="#DejaVuSans-20" transform="translate(195.263672 0)"/>
       <use xlink:href="#DejaVuSans-32" transform="translate(227.050781 0)"/>
       <use xlink:href="#DejaVuSans-30" transform="translate(290.673828 0)"/>
       <use xlink:href="#DejaVuSans-32" transform="translate(354.296875 0)"/>
       <use xlink:href="#DejaVuSans-31" transform="translate(417.919922 0)"/>
      </g>
     </g>
    </g>
    <g id="xtick_7">
     <g id="line2d_7">
      <path d="M 271.651002 355.222644 
L 271.651002 24.397812 
" clip-path="url(#p3e7b8969e0)" style="fill: none; stroke-dasharray: 2.96,1.28; stroke-dashoffset: 0; stroke: #cccccc; stroke-width: 0.8"/>
     </g>
     <g id="text_7">
      <!-- Nov 2021 -->
      <g style="fill: #262626" transform="translate(239.687013 398.998744) rotate(-45) scale(0.09 -0.09)">
       <use xlink:href="#DejaVuSans-4e"/>
       <use xlink:href="#DejaVuSans-6f" transform="translate(74.804688 0)"/>
       <use xlink:href="#DejaVuSans-76" transform="translate(135.986328 0)"/>
       <use xlink:href="#DejaVuSans-20" transform="translate(195.166016 0)"/>
       <use xlink:href="#DejaVuSans-32" transform="translate(226.953125 0)"/>
       <use xlink:href="#DejaVuSans-30" transform="translate(290.576172 0)"/>
       <use xlink:href="#DejaVuSans-32" transform="translate(354.199219 0)"/>
       <use xlink:href="#DejaVuSans-31" transform="translate(417.822266 0)"/>
      </g>
     </g>
    </g>
    <g id="xtick_8">
     <g id="line2d_8">
      <path d="M 305.947005 355.222644 
L 305.947005 24.397812 
" clip-path="url(#p3e7b8969e0)" style="fill: none; stroke-dasharray: 2.96,1.28; stroke-dashoffset: 0; stroke: #cccccc; stroke-width: 0.8"/>
     </g>
     <g id="text_8">
      <!-- Feb 2022 -->
      <g style="fill: #262626" transform="translate(275.138473 397.843287) rotate(-45) scale(0.09 -0.09)">
       <use xlink:href="#DejaVuSans-46"/>
       <use xlink:href="#DejaVuSans-65" transform="translate(52.019531 0)"/>
       <use xlink:href="#DejaVuSans-62" transform="translate(113.542969 0)"/>
       <use xlink:href="#DejaVuSans-20" transform="translate(177.019531 0)"/>
       <use xlink:href="#DejaVuSans-32" transform="translate(208.806641 0)"/>
       <use xlink:href="#DejaVuSans-30" transform="translate(272.429688 0)"/>
       <use xlink:href="#DejaVuSans-32" transform="translate(336.052734 0)"/>
       <use xlink:href="#DejaVuSans-32" transform="translate(399.675781 0)"/>
      </g>
     </g>
    </g>
    <g id="xtick_9">
     <g id="line2d_9">
      <path d="M 339.124661 355.222644 
L 339.124661 24.397812 
" clip-path="url(#p3e7b8969e0)" style="fill: none; stroke-dasharray: 2.96,1.28; stroke-dashoffset: 0; stroke: #cccccc; stroke-width: 0.8"/>
     </g>
     <g id="text_9">
      <!-- May 2022 -->
      <g style="fill: #262626" transform="translate(306.424839 399.734577) rotate(-45) scale(0.09 -0.09)">
       <use xlink:href="#DejaVuSans-4d"/>
       <use xlink:href="#DejaVuSans-61" transform="translate(86.279297 0)"/>
       <use xlink:href="#DejaVuSans-79" transform="translate(147.558594 0)"/>
       <use xlink:href="#DejaVuSans-20" transform="translate(206.738281 0)"/>
       <use xlink:href="#DejaVuSans-32" transform="translate(238.525391 0)"/>
       <use xlink:href="#DejaVuSans-30" transform="translate(302.148438 0)"/>
       <use xlink:href="#DejaVuSans-32" transform="translate(365.771484 0)"/>
       <use xlink:href="#DejaVuSans-32" transform="translate(429.394531 0)"/>
      </g>
     </g>
    </g>
    <g id="xtick_10">
     <g id="line2d_10">
      <path d="M 373.420665 355.222644 
L 373.420665 24.397812 
" clip-path="url(#p3e7b8969e0)" style="fill: none; stroke-dasharray: 2.96,1.28; stroke-dashoffset: 0; stroke: #cccccc; stroke-width: 0.8"/>
     </g>
     <g id="text_10">
      <!-- Aug 2022 -->
      <g style="fill: #262626" transform="translate(341.451704 399.003716) rotate(-45) scale(0.09 -0.09)">
       <use xlink:href="#DejaVuSans-41"/>
       <use xlink:href="#DejaVuSans-75" transform="translate(68.408203 0)"/>
       <use xlink:href="#DejaVuSans-67" transform="translate(131.787109 0)"/>
       <use xlink:href="#DejaVuSans-20" transform="translate(195.263672 0)"/>
       <use xlink:href="#DejaVuSans-32" transform="translate(227.050781 0)"/>
       <use xlink:href="#DejaVuSans-30" transform="translate(290.673828 0)"/>
       <use xlink:href="#DejaVuSans-32" transform="translate(354.296875 0)"/>
       <use xlink:href="#DejaVuSans-32" transform="translate(417.919922 0)"/>
      </g>
     </g>
    </g>
    <g id="xtick_11">
     <g id="line2d_11">
      <path d="M 407.716668 355.222644 
L 407.716668 24.397812 
" clip-path="url(#p3e7b8969e0)" style="fill: none; stroke-dasharray: 2.96,1.28; stroke-dashoffset: 0; stroke: #cccccc; stroke-width: 0.8"/>
     </g>
     <g id="text_11">
      <!-- Nov 2022 -->
      <g style="fill: #262626" transform="translate(375.75268 398.998744) rotate(-45) scale(0.09 -0.09)">
       <use xlink:href="#DejaVuSans-4e"/>
       <use xlink:href="#DejaVuSans-6f" transform="translate(74.804688 0)"/>
       <use xlink:href="#DejaVuSans-76" transform="translate(135.986328 0)"/>
       <use xlink:href="#DejaVuSans-20" transform="translate(195.166016 0)"/>
       <use xlink:href="#DejaVuSans-32" transform="translate(226.953125 0)"/>
       <use xlink:href="#DejaVuSans-30" transform="translate(290.576172 0)"/>
       <use xlink:href="#DejaVuSans-32" transform="translate(354.199219 0)"/>
       <use xlink:href="#DejaVuSans-32" transform="translate(417.822266 0)"/>
      </g>
     </g>
    </g>
    <g id="xtick_12">
     <g id="line2d_12">
      <path d="M 442.012672 355.222644 
L 442.012672 24.397812 
" clip-path="url(#p3e7b8969e0)" style="fill: none; stroke-dasharray: 2.96,1.28; stroke-dashoffset: 0; stroke: #cccccc; stroke-width: 0.8"/>
     </g>
     <g id="text_12">
      <!-- Feb 2023 -->
      <g style="fill: #262626" transform="translate(411.20414 397.843287) rotate(-45) scale(0.09 -0.09)">
       <defs>
        <path id="DejaVuSans-33" d="M 2597 2516 
Q 3050 2419 3304 2112 
Q 3559 1806 3559 1356 
Q 3559 666 3084 287 
Q 2609 -91 1734 -91 
Q 1441 -91 1130 -33 
Q 819 25 488 141 
L 488 750 
Q 750 597 1062 519 
Q 1375 441 1716 441 
Q 2309 441 2620 675 
Q 2931 909 2931 1356 
Q 2931 1769 2642 2001 
Q 2353 2234 1838 2234 
L 1294 2234 
L 1294 2753 
L 1863 2753 
Q 2328 2753 2575 2939 
Q 2822 3125 2822 3475 
Q 2822 3834 2567 4026 
Q 2313 4219 1838 4219 
Q 1578 4219 1281 4162 
Q 984 4106 628 3988 
L 628 4550 
Q 988 4650 1302 4700 
Q 1616 4750 1894 4750 
Q 2613 4750 3031 4423 
Q 3450 4097 3450 3541 
Q 3450 3153 3228 2886 
Q 3006 2619 2597 2516 
z
" transform="scale(0.015625)"/>
       </defs>
       <use xlink:href="#DejaVuSans-46"/>
       <use xlink:href="#DejaVuSans-65" transform="translate(52.019531 0)"/>
       <use xlink:href="#DejaVuSans-62" transform="translate(113.542969 0)"/>
       <use xlink:href="#DejaVuSans-20" transform="translate(177.019531 0)"/>
       <use xlink:href="#DejaVuSans-32" transform="translate(208.806641 0)"/>
       <use xlink:href="#DejaVuSans-30" transform="translate(272.429688 0)"/>
       <use xlink:href="#DejaVuSans-32" transform="translate(336.052734 0)"/>
       <use xlink:href="#DejaVuSans-33" transform="translate(399.675781 0)"/>
      </g>
     </g>
    </g>
    <g id="xtick_13">
     <g id="line2d_13">
      <path d="M 475.190328 355.222644 
L 475.190328 24.397812 
" clip-path="url(#p3e7b8969e0)" style="fill: none; stroke-dasharray: 2.96,1.28; stroke-dashoffset: 0; stroke: #cccccc; stroke-width: 0.8"/>
     </g>
     <g id="text_13">
      <!-- May 2023 -->
      <g style="fill: #262626" transform="translate(442.490506 399.734577) rotate(-45) scale(0.09 -0.09)">
       <use xlink:href="#DejaVuSans-4d"/>
       <use xlink:href="#DejaVuSans-61" transform="translate(86.279297 0)"/>
       <use xlink:href="#DejaVuSans-79" transform="translate(147.558594 0)"/>
       <use xlink:href="#DejaVuSans-20" transform="translate(206.738281 0)"/>
       <use xlink:href="#DejaVuSans-32" transform="translate(238.525391 0)"/>
       <use xlink:href="#DejaVuSans-30" transform="translate(302.148438 0)"/>
       <use xlink:href="#DejaVuSans-32" transform="translate(365.771484 0)"/>
       <use xlink:href="#DejaVuSans-33" transform="translate(429.394531 0)"/>
      </g>
     </g>
    </g>
    <g id="xtick_14">
     <g id="line2d_14">
      <path d="M 509.486331 355.222644 
L 509.486331 24.397812 
" clip-path="url(#p3e7b8969e0)" style="fill: none; stroke-dasharray: 2.96,1.28; stroke-dashoffset: 0; stroke: #cccccc; stroke-width: 0.8"/>
     </g>
     <g id="text_14">
      <!-- Aug 2023 -->
      <g style="fill: #262626" transform="translate(477.517371 399.003716) rotate(-45) scale(0.09 -0.09)">
       <use xlink:href="#DejaVuSans-41"/>
       <use xlink:href="#DejaVuSans-75" transform="translate(68.408203 0)"/>
       <use xlink:href="#DejaVuSans-67" transform="translate(131.787109 0)"/>
       <use xlink:href="#DejaVuSans-20" transform="translate(195.263672 0)"/>
       <use xlink:href="#DejaVuSans-32" transform="translate(227.050781 0)"/>
       <use xlink:href="#DejaVuSans-30" transform="translate(290.673828 0)"/>
       <use xlink:href="#DejaVuSans-32" transform="translate(354.296875 0)"/>
       <use xlink:href="#DejaVuSans-33" transform="translate(417.919922 0)"/>
      </g>
     </g>
    </g>
    <g id="xtick_15">
     <g id="line2d_15">
      <path d="M 543.782335 355.222644 
L 543.782335 24.397812 
" clip-path="url(#p3e7b8969e0)" style="fill: none; stroke-dasharray: 2.96,1.28; stroke-dashoffset: 0; stroke: #cccccc; stroke-width: 0.8"/>
     </g>
     <g id="text_15">
      <!-- Nov 2023 -->
      <g style="fill: #262626" transform="translate(511.818346 398.998744) rotate(-45) scale(0.09 -0.09)">
       <use xlink:href="#DejaVuSans-4e"/>
       <use xlink:href="#DejaVuSans-6f" transform="translate(74.804688 0)"/>
       <use xlink:href="#DejaVuSans-76" transform="translate(135.986328 0)"/>
       <use xlink:href="#DejaVuSans-20" transform="translate(195.166016 0)"/>
       <use xlink:href="#DejaVuSans-32" transform="translate(226.953125 0)"/>
       <use xlink:href="#DejaVuSans-30" transform="translate(290.576172 0)"/>
       <use xlink:href="#DejaVuSans-32" transform="translate(354.199219 0)"/>
       <use xlink:href="#DejaVuSans-33" transform="translate(417.822266 0)"/>
      </g>
     </g>
    </g>
    <g id="xtick_16">
     <g id="line2d_16">
      <path d="M 578.078339 355.222644 
L 578.078339 24.397812 
" clip-path="url(#p3e7b8969e0)" style="fill: none; stroke-dasharray: 2.96,1.28; stroke-dashoffset: 0; stroke: #cccccc; stroke-width: 0.8"/>
     </g>
     <g id="text_16">
      <!-- Feb 2024 -->
      <g style="fill: #262626" transform="translate(547.269807 397.843287) rotate(-45) scale(0.09 -0.09)">
       <defs>
        <path id="DejaVuSans-34" d="M 2419 4116 
L 825 1625 
L 2419 1625 
L 2419 4116 
z
M 2253 4666 
L 3047 4666 
L 3047 1625 
L 3713 1625 
L 3713 1100 
L 3047 1100 
L 3047 0 
L 2419 0 
L 2419 1100 
L 313 1100 
L 313 1709 
L 2253 4666 
z
" transform="scale(0.015625)"/>
       </defs>
       <use xlink:href="#DejaVuSans-46"/>
       <use xlink:href="#DejaVuSans-65" transform="translate(52.019531 0)"/>
       <use xlink:href="#DejaVuSans-62" transform="translate(113.542969 0)"/>
       <use xlink:href="#DejaVuSans-20" transform="translate(177.019531 0)"/>
       <use xlink:href="#DejaVuSans-32" transform="translate(208.806641 0)"/>
       <use xlink:href="#DejaVuSans-30" transform="translate(272.429688 0)"/>
       <use xlink:href="#DejaVuSans-32" transform="translate(336.052734 0)"/>
       <use xlink:href="#DejaVuSans-34" transform="translate(399.675781 0)"/>
      </g>
     </g>
    </g>
    <g id="xtick_17">
     <g id="line2d_17">
      <path d="M 611.628777 355.222644 
L 611.628777 24.397812 
" clip-path="url(#p3e7b8969e0)" style="fill: none; stroke-dasharray: 2.96,1.28; stroke-dashoffset: 0; stroke: #cccccc; stroke-width: 0.8"/>
     </g>
     <g id="text_17">
      <!-- May 2024 -->
      <g style="fill: #262626" transform="translate(578.928955 399.734577) rotate(-45) scale(0.09 -0.09)">
       <use xlink:href="#DejaVuSans-4d"/>
       <use xlink:href="#DejaVuSans-61" transform="translate(86.279297 0)"/>
       <use xlink:href="#DejaVuSans-79" transform="translate(147.558594 0)"/>
       <use xlink:href="#DejaVuSans-20" transform="translate(206.738281 0)"/>
       <use xlink:href="#DejaVuSans-32" transform="translate(238.525391 0)"/>
       <use xlink:href="#DejaVuSans-30" transform="translate(302.148438 0)"/>
       <use xlink:href="#DejaVuSans-32" transform="translate(365.771484 0)"/>
       <use xlink:href="#DejaVuSans-34" transform="translate(429.394531 0)"/>
      </g>
     </g>
    </g>
    <g id="xtick_18">
     <g id="line2d_18">
      <path d="M 645.924781 355.222644 
L 645.924781 24.397812 
" clip-path="url(#p3e7b8969e0)" style="fill: none; stroke-dasharray: 2.96,1.28; stroke-dashoffset: 0; stroke: #cccccc; stroke-width: 0.8"/>
     </g>
     <g id="text_18">
      <!-- Aug 2024 -->
      <g style="fill: #262626" transform="translate(613.95582 399.003716) rotate(-45) scale(0.09 -0.09)">
       <use xlink:href="#DejaVuSans-41"/>
       <use xlink:href="#DejaVuSans-75" transform="translate(68.408203 0)"/>
       <use xlink:href="#DejaVuSans-67" transform="translate(131.787109 0)"/>
       <use xlink:href="#DejaVuSans-20" transform="translate(195.263672 0)"/>
       <use xlink:href="#DejaVuSans-32" transform="translate(227.050781 0)"/>
       <use xlink:href="#DejaVuSans-30" transform="translate(290.673828 0)"/>
       <use xlink:href="#DejaVuSans-32" transform="translate(354.296875 0)"/>
       <use xlink:href="#DejaVuSans-34" transform="translate(417.919922 0)"/>
      </g>
     </g>
    </g>
    <g id="xtick_19">
     <g id="line2d_19">
      <path d="M 680.220784 355.222644 
L 680.220784 24.397812 
" clip-path="url(#p3e7b8969e0)" style="fill: none; stroke-dasharray: 2.96,1.28; stroke-dashoffset: 0; stroke: #cccccc; stroke-width: 0.8"/>
     </g>
     <g id="text_19">
      <!-- Nov 2024 -->
      <g style="fill: #262626" transform="translate(648.256796 398.998744) rotate(-45) scale(0.09 -0.09)">
       <use xlink:href="#DejaVuSans-4e"/>
       <use xlink:href="#DejaVuSans-6f" transform="translate(74.804688 0)"/>
       <use xlink:href="#DejaVuSans-76" transform="translate(135.986328 0)"/>
       <use xlink:href="#DejaVuSans-20" transform="translate(195.166016 0)"/>
       <use xlink:href="#DejaVuSans-32" transform="translate(226.953125 0)"/>
       <use xlink:href="#DejaVuSans-30" transform="translate(290.576172 0)"/>
       <use xlink:href="#DejaVuSans-32" transform="translate(354.199219 0)"/>
       <use xlink:href="#DejaVuSans-34" transform="translate(417.822266 0)"/>
      </g>
     </g>
    </g>
    <g id="xtick_20">
     <g id="line2d_20">
      <path d="M 714.516788 355.222644 
L 714.516788 24.397812 
" clip-path="url(#p3e7b8969e0)" style="fill: none; stroke-dasharray: 2.96,1.28; stroke-dashoffset: 0; stroke: #cccccc; stroke-width: 0.8"/>
     </g>
     <g id="text_20">
      <!-- Feb 2025 -->
      <g style="fill: #262626" transform="translate(683.708256 397.843287) rotate(-45) scale(0.09 -0.09)">
       <defs>
        <path id="DejaVuSans-35" d="M 691 4666 
L 3169 4666 
L 3169 4134 
L 1269 4134 
L 1269 2991 
Q 1406 3038 1543 3061 
Q 1681 3084 1819 3084 
Q 2600 3084 3056 2656 
Q 3513 2228 3513 1497 
Q 3513 744 3044 326 
Q 2575 -91 1722 -91 
Q 1428 -91 1123 -41 
Q 819 9 494 109 
L 494 744 
Q 775 591 1075 516 
Q 1375 441 1709 441 
Q 2250 441 2565 725 
Q 2881 1009 2881 1497 
Q 2881 1984 2565 2268 
Q 2250 2553 1709 2553 
Q 1456 2553 1204 2497 
Q 953 2441 691 2322 
L 691 4666 
z
" transform="scale(0.015625)"/>
       </defs>
       <use xlink:href="#DejaVuSans-46"/>
       <use xlink:href="#DejaVuSans-65" transform="translate(52.019531 0)"/>
       <use xlink:href="#DejaVuSans-62" transform="translate(113.542969 0)"/>
       <use xlink:href="#DejaVuSans-20" transform="translate(177.019531 0)"/>
       <use xlink:href="#DejaVuSans-32" transform="translate(208.806641 0)"/>
       <use xlink:href="#DejaVuSans-30" transform="translate(272.429688 0)"/>
       <use xlink:href="#DejaVuSans-32" transform="translate(336.052734 0)"/>
       <use xlink:href="#DejaVuSans-35" transform="translate(399.675781 0)"/>
      </g>
     </g>
    </g>
    <g id="xtick_21">
     <g id="line2d_21">
      <path d="M 747.694444 355.222644 
L 747.694444 24.397812 
" clip-path="url(#p3e7b8969e0)" style="fill: none; stroke-dasharray: 2.96,1.28; stroke-dashoffset: 0; stroke: #cccccc; stroke-width: 0.8"/>
     </g>
     <g id="text_21">
      <!-- May 2025 -->
      <g style="fill: #262626" transform="translate(714.994622 399.734577) rotate(-45) scale(0.09 -0.09)">
       <use xlink:href="#DejaVuSans-4d"/>
       <use xlink:href="#DejaVuSans-61" transform="translate(86.279297 0)"/>
       <use xlink:href="#DejaVuSans-79" transform="translate(147.558594 0)"/>
       <use xlink:href="#DejaVuSans-20" transform="translate(206.738281 0)"/>
       <use xlink:href="#DejaVuSans-32" transform="translate(238.525391 0)"/>
       <use xlink:href="#DejaVuSans-30" transform="translate(302.148438 0)"/>
       <use xlink:href="#DejaVuSans-32" transform="translate(365.771484 0)"/>
       <use xlink:href="#DejaVuSans-35" transform="translate(429.394531 0)"/>
      </g>
     </g>
    </g>
    <g id="xtick_22">
     <g id="line2d_22">
      <path d="M 781.990447 355.222644 
L 781.990447 24.397812 
" clip-path="url(#p3e7b8969e0)" style="fill: none; stroke-dasharray: 2.96,1.28; stroke-dashoffset: 0; stroke: #cccccc; stroke-width: 0.8"/>
     </g>
     <g id="text_22">
      <!-- Aug 2025 -->
      <g style="fill: #262626" transform="translate(750.021487 399.003716) rotate(-45) scale(0.09 -0.09)">
       <use xlink:href="#DejaVuSans-41"/>
       <use xlink:href="#DejaVuSans-75" transform="translate(68.408203 0)"/>
       <use xlink:href="#DejaVuSans-67" transform="translate(131.787109 0)"/>
       <use xlink:href="#DejaVuSans-20" transform="translate(195.263672 0)"/>
       <use xlink:href="#DejaVuSans-32" transform="translate(227.050781 0)"/>
       <use xlink:href="#DejaVuSans-30" transform="translate(290.673828 0)"/>
       <use xlink:href="#DejaVuSans-32" transform="translate(354.296875 0)"/>
       <use xlink:href="#DejaVuSans-35" transform="translate(417.919922 0)"/>
      </g>
     </g>
    </g>
    <g id="text_23">
     <!-- Mois -->
     <g style="fill: #262626" transform="translate(411.987981 413.416363) scale(0.11 -0.11)">
      <defs>
       <path id="DejaVuSans-69" d="M 603 3500 
L 1178 3500 
L 1178 0 
L 603 0 
L 603 3500 
z
M 603 4863 
L 1178 4863 
L 1178 4134 
L 603 4134 
L 603 4863 
z
" transform="scale(0.015625)"/>
       <path id="DejaVuSans-73" d="M 2834 3397 
L 2834 2853 
Q 2591 2978 2328 3040 
Q 2066 3103 1784 3103 
Q 1356 3103 1142 2972 
Q 928 2841 928 2578 
Q 928 2378 1081 2264 
Q 1234 2150 1697 2047 
L 1894 2003 
Q 2506 1872 2764 1633 
Q 3022 1394 3022 966 
Q 3022 478 2636 193 
Q 2250 -91 1575 -91 
Q 1294 -91 989 -36 
Q 684 19 347 128 
L 347 722 
Q 666 556 975 473 
Q 1284 391 1588 391 
Q 1994 391 2212 530 
Q 2431 669 2431 922 
Q 2431 1156 2273 1281 
Q 2116 1406 1581 1522 
L 1381 1569 
Q 847 1681 609 1914 
Q 372 2147 372 2553 
Q 372 3047 722 3315 
Q 1072 3584 1716 3584 
Q 2034 3584 2315 3537 
Q 2597 3491 2834 3397 
z
" transform="scale(0.015625)"/>
      </defs>
      <use xlink:href="#DejaVuSans-4d"/>
      <use xlink:href="#DejaVuSans-6f" transform="translate(86.279297 0)"/>
      <use xlink:href="#DejaVuSans-69" transform="translate(147.460938 0)"/>
      <use xlink:href="#DejaVuSans-73" transform="translate(175.244141 0)"/>
     </g>
    </g>
   </g>
   <g id="matplotlib.axis_2">
    <g id="ytick_1">
     <g id="line2d_23">
      <path d="M 56.257188 355.222644 
L 792.726587 355.222644 
" clip-path="url(#p3e7b8969e0)" style="fill: none; stroke-dasharray: 2.96,1.28; stroke-dashoffset: 0; stroke: #cccccc; stroke-width: 0.8"/>
     </g>
     <g id="text_24">
      <!-- -20 % -->
      <g style="fill: #262626" transform="translate(21.845938 358.641941) scale(0.09 -0.09)">
       <defs>
        <path id="DejaVuSans-2d" d="M 313 2009 
L 1997 2009 
L 1997 1497 
L 313 1497 
L 313 2009 
z
" transform="scale(0.015625)"/>
        <path id="DejaVuSans-25" d="M 4653 2053 
Q 4381 2053 4226 1822 
Q 4072 1591 4072 1178 
Q 4072 772 4226 539 
Q 4381 306 4653 306 
Q 4919 306 5073 539 
Q 5228 772 5228 1178 
Q 5228 1588 5073 1820 
Q 4919 2053 4653 2053 
z
M 4653 2450 
Q 5147 2450 5437 2106 
Q 5728 1763 5728 1178 
Q 5728 594 5436 251 
Q 5144 -91 4653 -91 
Q 4153 -91 3862 251 
Q 3572 594 3572 1178 
Q 3572 1766 3864 2108 
Q 4156 2450 4653 2450 
z
M 1428 4353 
Q 1159 4353 1004 4120 
Q 850 3888 850 3481 
Q 850 3069 1003 2837 
Q 1156 2606 1428 2606 
Q 1700 2606 1854 2837 
Q 2009 3069 2009 3481 
Q 2009 3884 1853 4118 
Q 1697 4353 1428 4353 
z
M 4250 4750 
L 4750 4750 
L 1831 -91 
L 1331 -91 
L 4250 4750 
z
M 1428 4750 
Q 1922 4750 2215 4408 
Q 2509 4066 2509 3481 
Q 2509 2891 2217 2550 
Q 1925 2209 1428 2209 
Q 931 2209 642 2551 
Q 353 2894 353 3481 
Q 353 4063 643 4406 
Q 934 4750 1428 4750 
z
" transform="scale(0.015625)"/>
       </defs>
       <use xlink:href="#DejaVuSans-2d"/>
       <use xlink:href="#DejaVuSans-32" transform="translate(36.083984 0)"/>
       <use xlink:href="#DejaVuSans-30" transform="translate(99.707031 0)"/>
       <use xlink:href="#DejaVuSans-20" transform="translate(163.330078 0)"/>
       <use xlink:href="#DejaVuSans-25" transform="translate(195.117188 0)"/>
      </g>
     </g>
    </g>
    <g id="ytick_2">
     <g id="line2d_24">
      <path d="M 56.257188 317.628913 
L 792.726587 317.628913 
" clip-path="url(#p3e7b8969e0)" style="fill: none; stroke-dasharray: 2.96,1.28; stroke-dashoffset: 0; stroke: #cccccc; stroke-width: 0.8"/>
     </g>
     <g id="text_25">
      <!-- -18 % -->
      <g style="fill: #262626" transform="translate(21.845938 321.04821) scale(0.09 -0.09)">
       <defs>
        <path id="DejaVuSans-38" d="M 2034 2216 
Q 1584 2216 1326 1975 
Q 1069 1734 1069 1313 
Q 1069 891 1326 650 
Q 1584 409 2034 409 
Q 2484 409 2743 651 
Q 3003 894 3003 1313 
Q 3003 1734 2745 1975 
Q 2488 2216 2034 2216 
z
M 1403 2484 
Q 997 2584 770 2862 
Q 544 3141 544 3541 
Q 544 4100 942 4425 
Q 1341 4750 2034 4750 
Q 2731 4750 3128 4425 
Q 3525 4100 3525 3541 
Q 3525 3141 3298 2862 
Q 3072 2584 2669 2484 
Q 3125 2378 3379 2068 
Q 3634 1759 3634 1313 
Q 3634 634 3220 271 
Q 2806 -91 2034 -91 
Q 1263 -91 848 271 
Q 434 634 434 1313 
Q 434 1759 690 2068 
Q 947 2378 1403 2484 
z
M 1172 3481 
Q 1172 3119 1398 2916 
Q 1625 2713 2034 2713 
Q 2441 2713 2670 2916 
Q 2900 3119 2900 3481 
Q 2900 3844 2670 4047 
Q 2441 4250 2034 4250 
Q 1625 4250 1398 4047 
Q 1172 3844 1172 3481 
z
" transform="scale(0.015625)"/>
       </defs>
       <use xlink:href="#DejaVuSans-2d"/>
       <use xlink:href="#DejaVuSans-31" transform="translate(36.083984 0)"/>
       <use xlink:href="#DejaVuSans-38" transform="translate(99.707031 0)"/>
       <use xlink:href="#DejaVuSans-20" transform="translate(163.330078 0)"/>
       <use xlink:href="#DejaVuSans-25" transform="translate(195.117188 0)"/>
      </g>
     </g>
    </g>
    <g id="ytick_3">
     <g id="line2d_25">
      <path d="M 56.257188 280.035183 
L 792.726587 280.035183 
" clip-path="url(#p3e7b8969e0)" style="fill: none; stroke-dasharray: 2.96,1.28; stroke-dashoffset: 0; stroke: #cccccc; stroke-width: 0.8"/>
     </g>
     <g id="text_26">
      <!-- -15 % -->
      <g style="fill: #262626" transform="translate(21.845938 283.454479) scale(0.09 -0.09)">
       <use xlink:href="#DejaVuSans-2d"/>
       <use xlink:href="#DejaVuSans-31" transform="translate(36.083984 0)"/>
       <use xlink:href="#DejaVuSans-35" transform="translate(99.707031 0)"/>
       <use xlink:href="#DejaVuSans-20" transform="translate(163.330078 0)"/>
       <use xlink:href="#DejaVuSans-25" transform="translate(195.117188 0)"/>
      </g>
     </g>
    </g>
    <g id="ytick_4">
     <g id="line2d_26">
      <path d="M 56.257188 242.441452 
L 792.726587 242.441452 
" clip-path="url(#p3e7b8969e0)" style="fill: none; stroke-dasharray: 2.96,1.28; stroke-dashoffset: 0; stroke: #cccccc; stroke-width: 0.8"/>
     </g>
     <g id="text_27">
      <!-- -12 % -->
      <g style="fill: #262626" transform="translate(21.845938 245.860749) scale(0.09 -0.09)">
       <use xlink:href="#DejaVuSans-2d"/>
       <use xlink:href="#DejaVuSans-31" transform="translate(36.083984 0)"/>
       <use xlink:href="#DejaVuSans-32" transform="translate(99.707031 0)"/>
       <use xlink:href="#DejaVuSans-20" transform="translate(163.330078 0)"/>
       <use xlink:href="#DejaVuSans-25" transform="translate(195.117188 0)"/>
      </g>
     </g>
    </g>
    <g id="ytick_5">
     <g id="line2d_27">
      <path d="M 56.257188 204.847721 
L 792.726587 204.847721 
" clip-path="url(#p3e7b8969e0)" style="fill: none; stroke-dasharray: 2.96,1.28; stroke-dashoffset: 0; stroke: #cccccc; stroke-width: 0.8"/>
     </g>
     <g id="text_28">
      <!-- -10 % -->
      <g style="fill: #262626" transform="translate(21.845938 208.267018) scale(0.09 -0.09)">
       <use xlink:href="#DejaVuSans-2d"/>
       <use xlink:href="#DejaVuSans-31" transform="translate(36.083984 0)"/>
       <use xlink:href="#DejaVuSans-30" transform="translate(99.707031 0)"/>
       <use xlink:href="#DejaVuSans-20" transform="translate(163.330078 0)"/>
       <use xlink:href="#DejaVuSans-25" transform="translate(195.117188 0)"/>
      </g>
     </g>
    </g>
    <g id="ytick_6">
     <g id="line2d_28">
      <path d="M 56.257188 167.25399 
L 792.726587 167.25399 
" clip-path="url(#p3e7b8969e0)" style="fill: none; stroke-dasharray: 2.96,1.28; stroke-dashoffset: 0; stroke: #cccccc; stroke-width: 0.8"/>
     </g>
     <g id="text_29">
      <!-- -8 % -->
      <g style="fill: #262626" transform="translate(27.572188 170.673287) scale(0.09 -0.09)">
       <use xlink:href="#DejaVuSans-2d"/>
       <use xlink:href="#DejaVuSans-38" transform="translate(36.083984 0)"/>
       <use xlink:href="#DejaVuSans-20" transform="translate(99.707031 0)"/>
       <use xlink:href="#DejaVuSans-25" transform="translate(131.494141 0)"/>
      </g>
     </g>
    </g>
    <g id="ytick_7">
     <g id="line2d_29">
      <path d="M 56.257188 129.660259 
L 792.726587 129.660259 
" clip-path="url(#p3e7b8969e0)" style="fill: none; stroke-dasharray: 2.96,1.28; stroke-dashoffset: 0; stroke: #cccccc; stroke-width: 0.8"/>
     </g>
     <g id="text_30">
      <!-- -5 % -->
      <g style="fill: #262626" transform="translate(27.572188 133.079556) scale(0.09 -0.09)">
       <use xlink:href="#DejaVuSans-2d"/>
       <use xlink:href="#DejaVuSans-35" transform="translate(36.083984 0)"/>
       <use xlink:href="#DejaVuSans-20" transform="translate(99.707031 0)"/>
       <use xlink:href="#DejaVuSans-25" transform="translate(131.494141 0)"/>
      </g>
     </g>
    </g>
    <g id="ytick_8">
     <g id="line2d_30">
      <path d="M 56.257188 92.066528 
L 792.726587 92.066528 
" clip-path="url(#p3e7b8969e0)" style="fill: none; stroke-dasharray: 2.96,1.28; stroke-dashoffset: 0; stroke: #cccccc; stroke-width: 0.8"/>
     </g>
     <g id="text_31">
      <!-- -2 % -->
      <g style="fill: #262626" transform="translate(27.572188 95.485825) scale(0.09 -0.09)">
       <use xlink:href="#DejaVuSans-2d"/>
       <use xlink:href="#DejaVuSans-32" transform="translate(36.083984 0)"/>
       <use xlink:href="#DejaVuSans-20" transform="translate(99.707031 0)"/>
       <use xlink:href="#DejaVuSans-25" transform="translate(131.494141 0)"/>
      </g>
     </g>
    </g>
    <g id="ytick_9">
     <g id="line2d_31">
      <path d="M 56.257188 54.472797 
L 792.726587 54.472797 
" clip-path="url(#p3e7b8969e0)" style="fill: none; stroke-dasharray: 2.96,1.28; stroke-dashoffset: 0; stroke: #cccccc; stroke-width: 0.8"/>
     </g>
     <g id="text_32">
      <!-- 0 % -->
      <g style="fill: #262626" transform="translate(30.819219 57.892094) scale(0.09 -0.09)">
       <use xlink:href="#DejaVuSans-30"/>
       <use xlink:href="#DejaVuSans-20" transform="translate(63.623047 0)"/>
       <use xlink:href="#DejaVuSans-25" transform="translate(95.410156 0)"/>
      </g>
     </g>
    </g>
    <g id="text_33">
     <!-- Drawdown (%) -->
     <g style="fill: #262626" transform="translate(15.558281 230.280775) rotate(-90) scale(0.11 -0.11)">
      <defs>
       <path id="DejaVuSans-44" d="M 1259 4147 
L 1259 519 
L 2022 519 
Q 2988 519 3436 956 
Q 3884 1394 3884 2338 
Q 3884 3275 3436 3711 
Q 2988 4147 2022 4147 
L 1259 4147 
z
M 628 4666 
L 1925 4666 
Q 3281 4666 3915 4102 
Q 4550 3538 4550 2338 
Q 4550 1131 3912 565 
Q 3275 0 1925 0 
L 628 0 
L 628 4666 
z
" transform="scale(0.015625)"/>
       <path id="DejaVuSans-72" d="M 2631 2963 
Q 2534 3019 2420 3045 
Q 2306 3072 2169 3072 
Q 1681 3072 1420 2755 
Q 1159 2438 1159 1844 
L 1159 0 
L 581 0 
L 581 3500 
L 1159 3500 
L 1159 2956 
Q 1341 3275 1631 3429 
Q 1922 3584 2338 3584 
Q 2397 3584 2469 3576 
Q 2541 3569 2628 3553 
L 2631 2963 
z
" transform="scale(0.015625)"/>
       <path id="DejaVuSans-77" d="M 269 3500 
L 844 3500 
L 1563 769 
L 2278 3500 
L 2956 3500 
L 3675 769 
L 4391 3500 
L 4966 3500 
L 4050 0 
L 3372 0 
L 2619 2869 
L 1863 0 
L 1184 0 
L 269 3500 
z
" transform="scale(0.015625)"/>
       <path id="DejaVuSans-64" d="M 2906 2969 
L 2906 4863 
L 3481 4863 
L 3481 0 
L 2906 0 
L 2906 525 
Q 2725 213 2448 61 
Q 2172 -91 1784 -91 
Q 1150 -91 751 415 
Q 353 922 353 1747 
Q 353 2572 751 3078 
Q 1150 3584 1784 3584 
Q 2172 3584 2448 3432 
Q 2725 3281 2906 2969 
z
M 947 1747 
Q 947 1113 1208 752 
Q 1469 391 1925 391 
Q 2381 391 2643 752 
Q 2906 1113 2906 1747 
Q 2906 2381 2643 2742 
Q 2381 3103 1925 3103 
Q 1469 3103 1208 2742 
Q 947 2381 947 1747 
z
" transform="scale(0.015625)"/>
       <path id="DejaVuSans-6e" d="M 3513 2113 
L 3513 0 
L 2938 0 
L 2938 2094 
Q 2938 2591 2744 2837 
Q 2550 3084 2163 3084 
Q 1697 3084 1428 2787 
Q 1159 2491 1159 1978 
L 1159 0 
L 581 0 
L 581 3500 
L 1159 3500 
L 1159 2956 
Q 1366 3272 1645 3428 
Q 1925 3584 2291 3584 
Q 2894 3584 3203 3211 
Q 3513 2838 3513 2113 
z
" transform="scale(0.015625)"/>
       <path id="DejaVuSans-28" d="M 1984 4856 
Q 1566 4138 1362 3434 
Q 1159 2731 1159 2009 
Q 1159 1288 1364 580 
Q 1569 -128 1984 -844 
L 1484 -844 
Q 1016 -109 783 600 
Q 550 1309 550 2009 
Q 550 2706 781 3412 
Q 1013 4119 1484 4856 
L 1984 4856 
z
" transform="scale(0.015625)"/>
       <path id="DejaVuSans-29" d="M 513 4856 
L 1013 4856 
Q 1481 4119 1714 3412 
Q 1947 2706 1947 2009 
Q 1947 1309 1714 600 
Q 1481 -109 1013 -844 
L 513 -844 
Q 928 -128 1133 580 
Q 1338 1288 1338 2009 
Q 1338 2731 1133 3434 
Q 928 4138 513 4856 
z
" transform="scale(0.015625)"/>
      </defs>
      <use xlink:href="#DejaVuSans-44"/>
      <use xlink:href="#DejaVuSans-72" transform="translate(77.001953 0)"/>
      <use xlink:href="#DejaVuSans-61" transform="translate(118.115234 0)"/>
      <use xlink:href="#DejaVuSans-77" transform="translate(179.394531 0)"/>
      <use xlink:href="#DejaVuSans-64" transform="translate(261.181641 0)"/>
      <use xlink:href="#DejaVuSans-6f" transform="translate(324.658203 0)"/>
      <use xlink:href="#DejaVuSans-77" transform="translate(385.839844 0)"/>
      <use xlink:href="#DejaVuSans-6e" transform="translate(467.626953 0)"/>
      <use xlink:href="#DejaVuSans-20" transform="translate(531.005859 0)"/>
      <use xlink:href="#DejaVuSans-28" transform="translate(562.792969 0)"/>
      <use xlink:href="#DejaVuSans-25" transform="translate(601.806641 0)"/>
      <use xlink:href="#DejaVuSans-29" transform="translate(696.826172 0)"/>
     </g>
    </g>
   </g>
   <g id="FillBetweenPolyCollection_1">
    <defs>
     <path id="mb69e53a64c" d="M 89.733069 -368.431222 
L 89.733069 -368.431222 
L 101.289331 -368.431222 
L 112.845594 -368.431222 
L 124.029073 -368.431222 
L 135.585335 -368.431222 
L 146.768815 -368.431222 
L 158.325077 -368.431222 
L 169.881339 -368.431222 
L 180.319253 -368.431222 
L 191.875515 -368.431222 
L 203.058994 -368.431222 
L 214.615257 -368.431222 
L 225.798736 -368.431222 
L 237.354998 -368.431222 
L 248.91126 -368.431222 
L 260.09474 -368.431222 
L 271.651002 -368.431222 
L 282.834481 -368.431222 
L 294.390743 -368.431222 
L 305.947005 -368.431222 
L 316.384919 -368.431222 
L 327.941182 -368.431222 
L 339.124661 -368.431222 
L 350.680923 -368.431222 
L 361.864403 -368.431222 
L 373.420665 -368.431222 
L 384.976927 -368.431222 
L 396.160406 -368.431222 
L 407.716668 -368.431222 
L 418.900148 -368.431222 
L 430.45641 -368.431222 
L 442.012672 -368.431222 
L 452.450586 -368.431222 
L 464.006848 -368.431222 
L 475.190328 -368.431222 
L 486.74659 -368.431222 
L 497.930069 -368.431222 
L 509.486331 -368.431222 
L 521.042593 -368.431222 
L 532.226073 -368.431222 
L 543.782335 -368.431222 
L 554.965814 -368.431222 
L 566.522077 -368.431222 
L 578.078339 -368.431222 
L 588.889035 -368.431222 
L 600.445298 -368.431222 
L 611.628777 -368.431222 
L 623.185039 -368.431222 
L 634.368518 -368.431222 
L 645.924781 -368.431222 
L 657.481043 -368.431222 
L 668.664522 -368.431222 
L 680.220784 -368.431222 
L 691.404264 -368.431222 
L 702.960526 -368.431222 
L 714.516788 -368.431222 
L 724.954702 -368.431222 
L 736.510964 -368.431222 
L 747.694444 -368.431222 
L 759.250706 -368.431222 
L 759.250706 -279.179834 
L 759.250706 -279.179834 
L 747.694444 -271.990058 
L 736.510964 -242.39864 
L 724.954702 -242.39864 
L 714.516788 -246.620488 
L 702.960526 -260.468776 
L 691.404264 -286.696647 
L 680.220784 -275.739652 
L 668.664522 -258.065135 
L 657.481043 -282.474799 
L 645.924781 -284.953463 
L 634.368518 -321.798681 
L 623.185039 -321.798681 
L 611.628777 -325.111786 
L 600.445298 -284.172655 
L 588.889035 -279.128978 
L 578.078339 -293.108194 
L 566.522077 -293.108194 
L 554.965814 -293.108194 
L 543.782335 -304.481517 
L 532.226073 -298.605841 
L 521.042593 -279.292457 
L 509.486331 -268.118482 
L 497.930069 -249.495712 
L 486.74659 -267.142607 
L 475.190328 -295.867151 
L 464.006848 -352.110853 
L 452.450586 -352.110853 
L 442.012672 -350.073309 
L 430.45641 -332.651302 
L 418.900148 -332.651302 
L 407.716668 -325.127416 
L 396.160406 -336.790448 
L 384.976927 -368.431222 
L 373.420665 -368.431222 
L 361.864403 -368.431222 
L 350.680923 -368.431222 
L 339.124661 -368.431222 
L 327.941182 -368.431222 
L 316.384919 -368.431222 
L 305.947005 -368.431222 
L 294.390743 -368.431222 
L 282.834481 -368.431222 
L 271.651002 -368.431222 
L 260.09474 -368.431222 
L 248.91126 -368.431222 
L 237.354998 -368.431222 
L 225.798736 -368.431222 
L 214.615257 -368.431222 
L 203.058994 -368.431222 
L 191.875515 -368.431222 
L 180.319253 -368.431222 
L 169.881339 -368.431222 
L 158.325077 -368.431222 
L 146.768815 -358.639052 
L 135.585335 -368.431222 
L 124.029073 -368.431222 
L 112.845594 -368.431222 
L 101.289331 -368.431222 
L 89.733069 -368.431222 
z
" style="stroke: #4c72b0; stroke-opacity: 0.08; stroke-width: 0.8"/>
    </defs>
    <g clip-path="url(#p3e7b8969e0)">
     <use xlink:href="#mb69e53a64c" x="0" y="422.90402" style="fill: #4c72b0; fill-opacity: 0.08; stroke: #4c72b0; stroke-opacity: 0.08; stroke-width: 0.8"/>
    </g>
   </g>
   <g id="FillBetweenPolyCollection_2">
    <defs>
     <path id="m247c71ece5" d="M 89.733069 -368.431222 
L 89.733069 -368.431222 
L 101.289331 -368.431222 
L 112.845594 -368.431222 
L 124.029073 -368.431222 
L 135.585335 -368.431222 
L 146.768815 -368.431222 
L 158.325077 -368.431222 
L 169.881339 -368.431222 
L 180.319253 -368.431222 
L 191.875515 -368.431222 
L 203.058994 -368.431222 
L 214.615257 -368.431222 
L 225.798736 -368.431222 
L 237.354998 -368.431222 
L 248.91126 -368.431222 
L 260.09474 -368.431222 
L 271.651002 -368.431222 
L 282.834481 -368.431222 
L 294.390743 -368.431222 
L 305.947005 -368.431222 
L 316.384919 -368.431222 
L 327.941182 -368.431222 
L 339.124661 -368.431222 
L 350.680923 -368.431222 
L 361.864403 -368.431222 
L 373.420665 -368.431222 
L 384.976927 -368.431222 
L 396.160406 -368.431222 
L 407.716668 -368.431222 
L 418.900148 -368.431222 
L 430.45641 -368.431222 
L 442.012672 -368.431222 
L 452.450586 -368.431222 
L 464.006848 -368.431222 
L 475.190328 -368.431222 
L 486.74659 -368.431222 
L 497.930069 -368.431222 
L 509.486331 -368.431222 
L 521.042593 -368.431222 
L 532.226073 -368.431222 
L 543.782335 -368.431222 
L 554.965814 -368.431222 
L 566.522077 -368.431222 
L 578.078339 -368.431222 
L 588.889035 -368.431222 
L 600.445298 -368.431222 
L 611.628777 -368.431222 
L 623.185039 -368.431222 
L 634.368518 -368.431222 
L 645.924781 -368.431222 
L 657.481043 -368.431222 
L 668.664522 -368.431222 
L 680.220784 -368.431222 
L 691.404264 -368.431222 
L 702.960526 -368.431222 
L 714.516788 -368.431222 
L 724.954702 -368.431222 
L 736.510964 -368.431222 
L 747.694444 -368.431222 
L 759.250706 -368.431222 
L 759.250706 -174.82826 
L 759.250706 -174.82826 
L 747.694444 -205.872439 
L 736.510964 -234.426742 
L 724.954702 -181.43625 
L 714.516788 -188.630873 
L 702.960526 -154.021808 
L 691.404264 -154.021808 
L 680.220784 -245.885553 
L 668.664522 -290.077152 
L 657.481043 -323.930699 
L 645.924781 -284.955479 
L 634.368518 -214.107911 
L 623.185039 -234.52873 
L 611.628777 -196.071507 
L 600.445298 -189.259577 
L 588.889035 -176.502468 
L 578.078339 -176.502468 
L 566.522077 -184.847952 
L 554.965814 -181.988464 
L 543.782335 -238.668567 
L 532.226073 -263.962074 
L 521.042593 -322.409153 
L 509.486331 -322.409153 
L 497.930069 -301.21012 
L 486.74659 -284.307722 
L 475.190328 -258.357511 
L 464.006848 -237.448129 
L 452.450586 -237.448129 
L 442.012672 -307.988857 
L 430.45641 -368.431222 
L 418.900148 -368.431222 
L 407.716668 -368.431222 
L 396.160406 -366.40801 
L 384.976927 -350.162192 
L 373.420665 -366.40801 
L 361.864403 -350.162192 
L 350.680923 -368.431222 
L 339.124661 -360.425365 
L 327.941182 -360.425365 
L 316.384919 -360.425365 
L 305.947005 -343.964412 
L 294.390743 -280.995554 
L 282.834481 -278.946983 
L 271.651002 -278.946983 
L 260.09474 -278.946983 
L 248.91126 -368.431222 
L 237.354998 -271.692068 
L 225.798736 -368.431222 
L 214.615257 -313.573732 
L 203.058994 -244.999948 
L 191.875515 -212.192406 
L 180.319253 -212.192406 
L 169.881339 -220.271383 
L 158.325077 -242.606875 
L 146.768815 -242.606875 
L 135.585335 -221.886674 
L 124.029073 -221.886674 
L 112.845594 -254.281882 
L 101.289331 -306.949768 
L 89.733069 -368.431222 
z
" style="stroke: #dd8452; stroke-opacity: 0.08; stroke-width: 0.8"/>
    </defs>
    <g clip-path="url(#p3e7b8969e0)">
     <use xlink:href="#m247c71ece5" x="0" y="422.90402" style="fill: #dd8452; fill-opacity: 0.08; stroke: #dd8452; stroke-opacity: 0.08; stroke-width: 0.8"/>
    </g>
   </g>
   <g id="FillBetweenPolyCollection_3">
    <defs>
     <path id="m1ff697b567" d="M 89.733069 -368.431222 
L 89.733069 -368.431222 
L 101.289331 -368.431222 
L 112.845594 -368.431222 
L 124.029073 -368.431222 
L 135.585335 -368.431222 
L 146.768815 -368.431222 
L 158.325077 -368.431222 
L 169.881339 -368.431222 
L 180.319253 -368.431222 
L 191.875515 -368.431222 
L 203.058994 -368.431222 
L 214.615257 -368.431222 
L 225.798736 -368.431222 
L 237.354998 -368.431222 
L 248.91126 -368.431222 
L 260.09474 -368.431222 
L 271.651002 -368.431222 
L 282.834481 -368.431222 
L 294.390743 -368.431222 
L 305.947005 -368.431222 
L 316.384919 -368.431222 
L 327.941182 -368.431222 
L 339.124661 -368.431222 
L 350.680923 -368.431222 
L 361.864403 -368.431222 
L 373.420665 -368.431222 
L 384.976927 -368.431222 
L 396.160406 -368.431222 
L 407.716668 -368.431222 
L 418.900148 -368.431222 
L 430.45641 -368.431222 
L 442.012672 -368.431222 
L 452.450586 -368.431222 
L 464.006848 -368.431222 
L 475.190328 -368.431222 
L 486.74659 -368.431222 
L 497.930069 -368.431222 
L 509.486331 -368.431222 
L 521.042593 -368.431222 
L 532.226073 -368.431222 
L 543.782335 -368.431222 
L 554.965814 -368.431222 
L 566.522077 -368.431222 
L 578.078339 -368.431222 
L 588.889035 -368.431222 
L 600.445298 -368.431222 
L 611.628777 -368.431222 
L 623.185039 -368.431222 
L 634.368518 -368.431222 
L 645.924781 -368.431222 
L 657.481043 -368.431222 
L 668.664522 -368.431222 
L 680.220784 -368.431222 
L 691.404264 -368.431222 
L 702.960526 -368.431222 
L 714.516788 -368.431222 
L 724.954702 -368.431222 
L 736.510964 -368.431222 
L 747.694444 -368.431222 
L 759.250706 -368.431222 
L 759.250706 -359.076829 
L 759.250706 -359.076829 
L 747.694444 -368.431222 
L 736.510964 -334.870006 
L 724.954702 -334.870006 
L 714.516788 -291.488814 
L 702.960526 -291.488814 
L 691.404264 -242.346485 
L 680.220784 -304.790705 
L 668.664522 -334.877596 
L 657.481043 -272.295285 
L 645.924781 -309.539651 
L 634.368518 -227.955572 
L 623.185039 -174.996934 
L 611.628777 -206.290675 
L 600.445298 -185.621066 
L 588.889035 -206.493717 
L 578.078339 -245.865502 
L 566.522077 -302.301223 
L 554.965814 -331.141461 
L 543.782335 -354.257765 
L 532.226073 -348.401463 
L 521.042593 -348.401463 
L 509.486331 -348.401463 
L 497.930069 -354.773491 
L 486.74659 -338.761621 
L 475.190328 -320.064517 
L 464.006848 -311.976289 
L 452.450586 -311.976289 
L 442.012672 -356.270941 
L 430.45641 -368.431222 
L 418.900148 -368.431222 
L 407.716668 -368.431222 
L 396.160406 -368.431222 
L 384.976927 -367.238188 
L 373.420665 -367.238188 
L 361.864403 -346.53002 
L 350.680923 -368.431222 
L 339.124661 -368.431222 
L 327.941182 -368.431222 
L 316.384919 -359.033361 
L 305.947005 -326.224773 
L 294.390743 -351.144808 
L 282.834481 -332.000681 
L 271.651002 -368.431222 
L 260.09474 -368.431222 
L 248.91126 -368.431222 
L 237.354998 -367.449247 
L 225.798736 -328.54518 
L 214.615257 -304.867059 
L 203.058994 -306.221357 
L 191.875515 -336.87448 
L 180.319253 -336.87448 
L 169.881339 -368.431222 
L 158.325077 -368.431222 
L 146.768815 -331.511425 
L 135.585335 -368.431222 
L 124.029073 -368.431222 
L 112.845594 -362.973639 
L 101.289331 -368.431222 
L 89.733069 -368.431222 
z
" style="stroke: #55a868; stroke-opacity: 0.08; stroke-width: 0.8"/>
    </defs>
    <g clip-path="url(#p3e7b8969e0)">
     <use xlink:href="#m1ff697b567" x="0" y="422.90402" style="fill: #55a868; fill-opacity: 0.08; stroke: #55a868; stroke-opacity: 0.08; stroke-width: 0.8"/>
    </g>
   </g>
   <g id="line2d_32">
    <path d="M 89.733069 54.472797 
L 101.289331 54.472797 
L 112.845594 54.472797 
L 124.029073 54.472797 
L 135.585335 54.472797 
L 146.768815 64.264967 
L 158.325077 54.472797 
L 169.881339 54.472797 
L 180.319253 54.472797 
L 191.875515 54.472797 
L 203.058994 54.472797 
L 214.615257 54.472797 
L 225.798736 54.472797 
L 237.354998 54.472797 
L 248.91126 54.472797 
L 260.09474 54.472797 
L 271.651002 54.472797 
L 282.834481 54.472797 
L 294.390743 54.472797 
L 305.947005 54.472797 
L 316.384919 54.472797 
L 327.941182 54.472797 
L 339.124661 54.472797 
L 350.680923 54.472797 
L 361.864403 54.472797 
L 373.420665 54.472797 
L 384.976927 54.472797 
L 396.160406 86.113572 
L 407.716668 97.776603 
L 418.900148 90.252717 
L 430.45641 90.252717 
L 442.012672 72.830711 
L 452.450586 70.793167 
L 464.006848 70.793167 
L 475.190328 127.036869 
L 486.74659 155.761412 
L 497.930069 173.408308 
L 509.486331 154.785537 
L 521.042593 143.611563 
L 532.226073 124.298179 
L 543.782335 118.422503 
L 554.965814 129.795826 
L 566.522077 129.795826 
L 578.078339 129.795826 
L 588.889035 143.775041 
L 600.445298 138.731365 
L 611.628777 97.792233 
L 623.185039 101.105338 
L 634.368518 101.105338 
L 645.924781 137.950557 
L 657.481043 140.42922 
L 668.664522 164.838885 
L 680.220784 147.164368 
L 691.404264 136.207372 
L 702.960526 162.435244 
L 714.516788 176.283532 
L 724.954702 180.505379 
L 736.510964 180.505379 
L 747.694444 150.913961 
L 759.250706 143.724185 
" clip-path="url(#p3e7b8969e0)" style="fill: none; stroke: #4c72b0; stroke-width: 1.8; stroke-linecap: round"/>
   </g>
   <g id="line2d_33">
    <path d="M 89.733069 54.472797 
L 101.289331 115.954251 
L 112.845594 168.622137 
L 124.029073 201.017346 
L 135.585335 201.017346 
L 146.768815 180.297145 
L 158.325077 180.297145 
L 169.881339 202.632636 
L 180.319253 210.711613 
L 191.875515 210.711613 
L 203.058994 177.904071 
L 214.615257 109.330288 
L 225.798736 54.472797 
L 237.354998 151.211952 
L 248.91126 54.472797 
L 260.09474 143.957037 
L 271.651002 143.957037 
L 282.834481 143.957037 
L 294.390743 141.908465 
L 305.947005 78.939607 
L 316.384919 62.478654 
L 327.941182 62.478654 
L 339.124661 62.478654 
L 350.680923 54.472797 
L 361.864403 72.741827 
L 373.420665 56.496009 
L 384.976927 72.741827 
L 396.160406 56.496009 
L 407.716668 54.472797 
L 418.900148 54.472797 
L 430.45641 54.472797 
L 442.012672 114.915163 
L 452.450586 185.455891 
L 464.006848 185.455891 
L 475.190328 164.546508 
L 486.74659 138.596298 
L 497.930069 121.693899 
L 509.486331 100.494867 
L 521.042593 100.494867 
L 532.226073 158.941945 
L 543.782335 184.235453 
L 554.965814 240.915556 
L 566.522077 238.056068 
L 578.078339 246.401552 
L 588.889035 246.401552 
L 600.445298 233.644442 
L 611.628777 226.832512 
L 623.185039 188.375289 
L 634.368518 208.796109 
L 645.924781 137.948541 
L 657.481043 98.97332 
L 668.664522 132.826867 
L 680.220784 177.018466 
L 691.404264 268.882212 
L 702.960526 268.882212 
L 714.516788 234.273146 
L 724.954702 241.467769 
L 736.510964 188.477278 
L 747.694444 217.03158 
L 759.250706 248.075759 
" clip-path="url(#p3e7b8969e0)" style="fill: none; stroke: #dd8452; stroke-width: 1.8; stroke-linecap: round"/>
   </g>
   <g id="line2d_34">
    <path d="M 89.733069 54.472797 
L 101.289331 54.472797 
L 112.845594 59.930381 
L 124.029073 54.472797 
L 135.585335 54.472797 
L 146.768815 91.392595 
L 158.325077 54.472797 
L 169.881339 54.472797 
L 180.319253 86.029539 
L 191.875515 86.029539 
L 203.058994 116.682663 
L 214.615257 118.036961 
L 225.798736 94.358839 
L 237.354998 55.454772 
L 248.91126 54.472797 
L 260.09474 54.472797 
L 271.651002 54.472797 
L 282.834481 90.903339 
L 294.390743 71.759212 
L 305.947005 96.679247 
L 316.384919 63.870658 
L 327.941182 54.472797 
L 339.124661 54.472797 
L 350.680923 54.472797 
L 361.864403 76.373999 
L 373.420665 55.665832 
L 384.976927 55.665832 
L 396.160406 54.472797 
L 407.716668 54.472797 
L 418.900148 54.472797 
L 430.45641 54.472797 
L 442.012672 66.633078 
L 452.450586 110.927731 
L 464.006848 110.927731 
L 475.190328 102.839502 
L 486.74659 84.142399 
L 497.930069 68.130528 
L 509.486331 74.502557 
L 521.042593 74.502557 
L 532.226073 74.502557 
L 543.782335 68.646254 
L 554.965814 91.762559 
L 566.522077 120.602796 
L 578.078339 177.038517 
L 588.889035 216.410302 
L 600.445298 237.282953 
L 611.628777 216.613345 
L 623.185039 247.907086 
L 634.368518 194.948447 
L 645.924781 113.364369 
L 657.481043 150.608735 
L 668.664522 88.026424 
L 680.220784 118.113315 
L 691.404264 180.557534 
L 702.960526 131.415206 
L 714.516788 131.415206 
L 724.954702 88.034014 
L 736.510964 88.034014 
L 747.694444 54.472797 
L 759.250706 63.82719 
" clip-path="url(#p3e7b8969e0)" style="fill: none; stroke: #55a868; stroke-width: 1.8; stroke-linecap: round"/>
   </g>
   <g id="line2d_35">
    <path d="M 56.257188 54.472797 
L 792.726587 54.472797 
" clip-path="url(#p3e7b8969e0)" style="fill: none; stroke: #7f7f7f; stroke-opacity: 0.4; stroke-width: 0.8; stroke-linecap: round"/>
   </g>
   <g id="line2d_36">
    <path d="M 56.257188 129.660259 
L 792.726587 129.660259 
" clip-path="url(#p3e7b8969e0)" style="fill: none; stroke-dasharray: 0.5,0.825; stroke-dashoffset: 0; stroke: #7f7f7f; stroke-opacity: 0.3; stroke-width: 0.5"/>
   </g>
   <g id="line2d_37">
    <path d="M 56.257188 280.035183 
L 792.726587 280.035183 
" clip-path="url(#p3e7b8969e0)" style="fill: none; stroke-dasharray: 0.5,0.825; stroke-dashoffset: 0; stroke: #7f7f7f; stroke-opacity: 0.3; stroke-width: 0.5"/>
   </g>
   <g id="patch_6">
    <path d="M 56.257188 355.222644 
L 56.257188 24.397812 
" style="fill: none; stroke: #ffffff; stroke-linejoin: miter; stroke-linecap: square"/>
   </g>
   <g id="patch_7">
    <path d="M 792.726587 355.222644 
L 792.726587 24.397812 
" style="fill: none; stroke: #ffffff; stroke-linejoin: miter; stroke-linecap: square"/>
   </g>
   <g id="patch_8">
    <path d="M 56.257188 355.222644 
L 792.726588 355.222644 
" style="fill: none; stroke: #ffffff; stroke-linejoin: miter; stroke-linecap: square"/>
   </g>
   <g id="patch_9">
    <path d="M 56.257188 24.397812 
L 792.726588 24.397812 
" style="fill: none; stroke: #ffffff; stroke-linejoin: miter; stroke-linecap: square"/>
   </g>
   <g id="text_34">
    <!-- Normal -->
    <g style="fill: #2ca02c; opacity: 0.7" transform="translate(800.091281 94.274028) scale(0.08 -0.08)">
     <defs>
      <path id="DejaVuSans-6d" d="M 3328 2828 
Q 3544 3216 3844 3400 
Q 4144 3584 4550 3584 
Q 5097 3584 5394 3201 
Q 5691 2819 5691 2113 
L 5691 0 
L 5113 0 
L 5113 2094 
Q 5113 2597 4934 2840 
Q 4756 3084 4391 3084 
Q 3944 3084 3684 2787 
Q 3425 2491 3425 1978 
L 3425 0 
L 2847 0 
L 2847 2094 
Q 2847 2600 2669 2842 
Q 2491 3084 2119 3084 
Q 1678 3084 1418 2786 
Q 1159 2488 1159 1978 
L 1159 0 
L 581 0 
L 581 3500 
L 1159 3500 
L 1159 2956 
Q 1356 3278 1631 3431 
Q 1906 3584 2284 3584 
Q 2666 3584 2933 3390 
Q 3200 3197 3328 2828 
z
" transform="scale(0.015625)"/>
      <path id="DejaVuSans-6c" d="M 603 4863 
L 1178 4863 
L 1178 0 
L 603 0 
L 603 4863 
z
" transform="scale(0.015625)"/>
     </defs>
     <use xlink:href="#DejaVuSans-4e"/>
     <use xlink:href="#DejaVuSans-6f" transform="translate(74.804688 0)"/>
     <use xlink:href="#DejaVuSans-72" transform="translate(135.986328 0)"/>
     <use xlink:href="#DejaVuSans-6d" transform="translate(175.349609 0)"/>
     <use xlink:href="#DejaVuSans-61" transform="translate(272.761719 0)"/>
     <use xlink:href="#DejaVuSans-6c" transform="translate(334.041016 0)"/>
    </g>
   </g>
   <g id="text_35">
    <!-- Correction -->
    <g style="fill: #ff7f0e; opacity: 0.7" transform="translate(800.091281 207.055221) scale(0.08 -0.08)">
     <defs>
      <path id="DejaVuSans-43" d="M 4122 4306 
L 4122 3641 
Q 3803 3938 3442 4084 
Q 3081 4231 2675 4231 
Q 1875 4231 1450 3742 
Q 1025 3253 1025 2328 
Q 1025 1406 1450 917 
Q 1875 428 2675 428 
Q 3081 428 3442 575 
Q 3803 722 4122 1019 
L 4122 359 
Q 3791 134 3420 21 
Q 3050 -91 2638 -91 
Q 1578 -91 968 557 
Q 359 1206 359 2328 
Q 359 3453 968 4101 
Q 1578 4750 2638 4750 
Q 3056 4750 3426 4639 
Q 3797 4528 4122 4306 
z
" transform="scale(0.015625)"/>
      <path id="DejaVuSans-63" d="M 3122 3366 
L 3122 2828 
Q 2878 2963 2633 3030 
Q 2388 3097 2138 3097 
Q 1578 3097 1268 2742 
Q 959 2388 959 1747 
Q 959 1106 1268 751 
Q 1578 397 2138 397 
Q 2388 397 2633 464 
Q 2878 531 3122 666 
L 3122 134 
Q 2881 22 2623 -34 
Q 2366 -91 2075 -91 
Q 1284 -91 818 406 
Q 353 903 353 1747 
Q 353 2603 823 3093 
Q 1294 3584 2113 3584 
Q 2378 3584 2631 3529 
Q 2884 3475 3122 3366 
z
" transform="scale(0.015625)"/>
      <path id="DejaVuSans-74" d="M 1172 4494 
L 1172 3500 
L 2356 3500 
L 2356 3053 
L 1172 3053 
L 1172 1153 
Q 1172 725 1289 603 
Q 1406 481 1766 481 
L 2356 481 
L 2356 0 
L 1766 0 
Q 1100 0 847 248 
Q 594 497 594 1153 
L 594 3053 
L 172 3053 
L 172 3500 
L 594 3500 
L 594 4494 
L 1172 4494 
z
" transform="scale(0.015625)"/>
     </defs>
     <use xlink:href="#DejaVuSans-43"/>
     <use xlink:href="#DejaVuSans-6f" transform="translate(69.824219 0)"/>
     <use xlink:href="#DejaVuSans-72" transform="translate(131.005859 0)"/>
     <use xlink:href="#DejaVuSans-72" transform="translate(170.369141 0)"/>
     <use xlink:href="#DejaVuSans-65" transform="translate(209.232422 0)"/>
     <use xlink:href="#DejaVuSans-63" transform="translate(270.755859 0)"/>
     <use xlink:href="#DejaVuSans-74" transform="translate(325.736328 0)"/>
     <use xlink:href="#DejaVuSans-69" transform="translate(364.945312 0)"/>
     <use xlink:href="#DejaVuSans-6f" transform="translate(392.728516 0)"/>
     <use xlink:href="#DejaVuSans-6e" transform="translate(453.910156 0)"/>
    </g>
   </g>
   <g id="text_36">
    <!-- Opportunité -->
    <g style="fill: #d62728; opacity: 0.7" transform="translate(800.091281 319.996413) scale(0.08 -0.08)">
     <defs>
      <path id="DejaVuSans-4f" d="M 2522 4238 
Q 1834 4238 1429 3725 
Q 1025 3213 1025 2328 
Q 1025 1447 1429 934 
Q 1834 422 2522 422 
Q 3209 422 3611 934 
Q 4013 1447 4013 2328 
Q 4013 3213 3611 3725 
Q 3209 4238 2522 4238 
z
M 2522 4750 
Q 3503 4750 4090 4092 
Q 4678 3434 4678 2328 
Q 4678 1225 4090 567 
Q 3503 -91 2522 -91 
Q 1538 -91 948 565 
Q 359 1222 359 2328 
Q 359 3434 948 4092 
Q 1538 4750 2522 4750 
z
" transform="scale(0.015625)"/>
      <path id="DejaVuSans-70" d="M 1159 525 
L 1159 -1331 
L 581 -1331 
L 581 3500 
L 1159 3500 
L 1159 2969 
Q 1341 3281 1617 3432 
Q 1894 3584 2278 3584 
Q 2916 3584 3314 3078 
Q 3713 2572 3713 1747 
Q 3713 922 3314 415 
Q 2916 -91 2278 -91 
Q 1894 -91 1617 61 
Q 1341 213 1159 525 
z
M 3116 1747 
Q 3116 2381 2855 2742 
Q 2594 3103 2138 3103 
Q 1681 3103 1420 2742 
Q 1159 2381 1159 1747 
Q 1159 1113 1420 752 
Q 1681 391 2138 391 
Q 2594 391 2855 752 
Q 3116 1113 3116 1747 
z
" transform="scale(0.015625)"/>
      <path id="DejaVuSans-e9" d="M 3597 1894 
L 3597 1613 
L 953 1613 
Q 991 1019 1311 708 
Q 1631 397 2203 397 
Q 2534 397 2845 478 
Q 3156 559 3463 722 
L 3463 178 
Q 3153 47 2828 -22 
Q 2503 -91 2169 -91 
Q 1331 -91 842 396 
Q 353 884 353 1716 
Q 353 2575 817 3079 
Q 1281 3584 2069 3584 
Q 2775 3584 3186 3129 
Q 3597 2675 3597 1894 
z
M 3022 2063 
Q 3016 2534 2758 2815 
Q 2500 3097 2075 3097 
Q 1594 3097 1305 2825 
Q 1016 2553 972 2059 
L 3022 2063 
z
M 2466 5119 
L 3088 5119 
L 2070 3944 
L 1591 3944 
L 2466 5119 
z
" transform="scale(0.015625)"/>
     </defs>
     <use xlink:href="#DejaVuSans-4f"/>
     <use xlink:href="#DejaVuSans-70" transform="translate(78.710938 0)"/>
     <use xlink:href="#DejaVuSans-70" transform="translate(142.1875 0)"/>
     <use xlink:href="#DejaVuSans-6f" transform="translate(205.664062 0)"/>
     <use xlink:href="#DejaVuSans-72" transform="translate(266.845703 0)"/>
     <use xlink:href="#DejaVuSans-74" transform="translate(307.958984 0)"/>
     <use xlink:href="#DejaVuSans-75" transform="translate(347.167969 0)"/>
     <use xlink:href="#DejaVuSans-6e" transform="translate(410.546875 0)"/>
     <use xlink:href="#DejaVuSans-69" transform="translate(473.925781 0)"/>
     <use xlink:href="#DejaVuSans-74" transform="translate(501.708984 0)"/>
     <use xlink:href="#DejaVuSans-e9" transform="translate(540.917969 0)"/>
    </g>
   </g>
   <g id="text_37">
    <!-- Distance au pic — Opportunités d’achat -->
    <g style="fill: #262626" transform="translate(267.912825 18.397812) scale(0.14 -0.14)">
     <defs>
      <path id="DejaVuSans-Bold-44" d="M 1791 3756 
L 1791 909 
L 2222 909 
Q 2959 909 3348 1275 
Q 3738 1641 3738 2338 
Q 3738 3031 3350 3393 
Q 2963 3756 2222 3756 
L 1791 3756 
z
M 588 4666 
L 1856 4666 
Q 2919 4666 3439 4514 
Q 3959 4363 4331 4000 
Q 4659 3684 4818 3271 
Q 4978 2859 4978 2338 
Q 4978 1809 4818 1395 
Q 4659 981 4331 666 
Q 3956 303 3431 151 
Q 2906 0 1856 0 
L 588 0 
L 588 4666 
z
" transform="scale(0.015625)"/>
      <path id="DejaVuSans-Bold-69" d="M 538 3500 
L 1656 3500 
L 1656 0 
L 538 0 
L 538 3500 
z
M 538 4863 
L 1656 4863 
L 1656 3950 
L 538 3950 
L 538 4863 
z
" transform="scale(0.015625)"/>
      <path id="DejaVuSans-Bold-73" d="M 3272 3391 
L 3272 2541 
Q 2913 2691 2578 2766 
Q 2244 2841 1947 2841 
Q 1628 2841 1473 2761 
Q 1319 2681 1319 2516 
Q 1319 2381 1436 2309 
Q 1553 2238 1856 2203 
L 2053 2175 
Q 2913 2066 3209 1816 
Q 3506 1566 3506 1031 
Q 3506 472 3093 190 
Q 2681 -91 1863 -91 
Q 1516 -91 1145 -36 
Q 775 19 384 128 
L 384 978 
Q 719 816 1070 734 
Q 1422 653 1784 653 
Q 2113 653 2278 743 
Q 2444 834 2444 1013 
Q 2444 1163 2330 1236 
Q 2216 1309 1875 1350 
L 1678 1375 
Q 931 1469 631 1722 
Q 331 1975 331 2491 
Q 331 3047 712 3315 
Q 1094 3584 1881 3584 
Q 2191 3584 2531 3537 
Q 2872 3491 3272 3391 
z
" transform="scale(0.015625)"/>
      <path id="DejaVuSans-Bold-74" d="M 1759 4494 
L 1759 3500 
L 2913 3500 
L 2913 2700 
L 1759 2700 
L 1759 1216 
Q 1759 972 1856 886 
Q 1953 800 2241 800 
L 2816 800 
L 2816 0 
L 1856 0 
Q 1194 0 917 276 
Q 641 553 641 1216 
L 641 2700 
L 84 2700 
L 84 3500 
L 641 3500 
L 641 4494 
L 1759 4494 
z
" transform="scale(0.015625)"/>
      <path id="DejaVuSans-Bold-61" d="M 2106 1575 
Q 1756 1575 1579 1456 
Q 1403 1338 1403 1106 
Q 1403 894 1545 773 
Q 1688 653 1941 653 
Q 2256 653 2472 879 
Q 2688 1106 2688 1447 
L 2688 1575 
L 2106 1575 
z
M 3816 1997 
L 3816 0 
L 2688 0 
L 2688 519 
Q 2463 200 2181 54 
Q 1900 -91 1497 -91 
Q 953 -91 614 226 
Q 275 544 275 1050 
Q 275 1666 698 1953 
Q 1122 2241 2028 2241 
L 2688 2241 
L 2688 2328 
Q 2688 2594 2478 2717 
Q 2269 2841 1825 2841 
Q 1466 2841 1156 2769 
Q 847 2697 581 2553 
L 581 3406 
Q 941 3494 1303 3539 
Q 1666 3584 2028 3584 
Q 2975 3584 3395 3211 
Q 3816 2838 3816 1997 
z
" transform="scale(0.015625)"/>
      <path id="DejaVuSans-Bold-6e" d="M 4056 2131 
L 4056 0 
L 2931 0 
L 2931 347 
L 2931 1631 
Q 2931 2084 2911 2256 
Q 2891 2428 2841 2509 
Q 2775 2619 2662 2680 
Q 2550 2741 2406 2741 
Q 2056 2741 1856 2470 
Q 1656 2200 1656 1722 
L 1656 0 
L 538 0 
L 538 3500 
L 1656 3500 
L 1656 2988 
Q 1909 3294 2193 3439 
Q 2478 3584 2822 3584 
Q 3428 3584 3742 3212 
Q 4056 2841 4056 2131 
z
" transform="scale(0.015625)"/>
      <path id="DejaVuSans-Bold-63" d="M 3366 3391 
L 3366 2478 
Q 3138 2634 2908 2709 
Q 2678 2784 2431 2784 
Q 1963 2784 1702 2511 
Q 1441 2238 1441 1747 
Q 1441 1256 1702 982 
Q 1963 709 2431 709 
Q 2694 709 2930 787 
Q 3166 866 3366 1019 
L 3366 103 
Q 3103 6 2833 -42 
Q 2563 -91 2291 -91 
Q 1344 -91 809 395 
Q 275 881 275 1747 
Q 275 2613 809 3098 
Q 1344 3584 2291 3584 
Q 2566 3584 2833 3536 
Q 3100 3488 3366 3391 
z
" transform="scale(0.015625)"/>
      <path id="DejaVuSans-Bold-65" d="M 4031 1759 
L 4031 1441 
L 1416 1441 
Q 1456 1047 1700 850 
Q 1944 653 2381 653 
Q 2734 653 3104 758 
Q 3475 863 3866 1075 
L 3866 213 
Q 3469 63 3072 -14 
Q 2675 -91 2278 -91 
Q 1328 -91 801 392 
Q 275 875 275 1747 
Q 275 2603 792 3093 
Q 1309 3584 2216 3584 
Q 3041 3584 3536 3087 
Q 4031 2591 4031 1759 
z
M 2881 2131 
Q 2881 2450 2695 2645 
Q 2509 2841 2209 2841 
Q 1884 2841 1681 2658 
Q 1478 2475 1428 2131 
L 2881 2131 
z
" transform="scale(0.015625)"/>
      <path id="DejaVuSans-Bold-20" transform="scale(0.015625)"/>
      <path id="DejaVuSans-Bold-75" d="M 500 1363 
L 500 3500 
L 1625 3500 
L 1625 3150 
Q 1625 2866 1622 2436 
Q 1619 2006 1619 1863 
Q 1619 1441 1641 1255 
Q 1663 1069 1716 984 
Q 1784 875 1895 815 
Q 2006 756 2150 756 
Q 2500 756 2700 1025 
Q 2900 1294 2900 1772 
L 2900 3500 
L 4019 3500 
L 4019 0 
L 2900 0 
L 2900 506 
Q 2647 200 2364 54 
Q 2081 -91 1741 -91 
Q 1134 -91 817 281 
Q 500 653 500 1363 
z
" transform="scale(0.015625)"/>
      <path id="DejaVuSans-Bold-70" d="M 1656 506 
L 1656 -1331 
L 538 -1331 
L 538 3500 
L 1656 3500 
L 1656 2988 
Q 1888 3294 2169 3439 
Q 2450 3584 2816 3584 
Q 3463 3584 3878 3070 
Q 4294 2556 4294 1747 
Q 4294 938 3878 423 
Q 3463 -91 2816 -91 
Q 2450 -91 2169 54 
Q 1888 200 1656 506 
z
M 2400 2772 
Q 2041 2772 1848 2508 
Q 1656 2244 1656 1747 
Q 1656 1250 1848 986 
Q 2041 722 2400 722 
Q 2759 722 2948 984 
Q 3138 1247 3138 1747 
Q 3138 2247 2948 2509 
Q 2759 2772 2400 2772 
z
" transform="scale(0.015625)"/>
      <path id="DejaVuSans-Bold-2014" d="M 344 2156 
L 6056 2156 
L 6056 1350 
L 344 1350 
L 344 2156 
z
" transform="scale(0.015625)"/>
      <path id="DejaVuSans-Bold-4f" d="M 2719 3878 
Q 2169 3878 1866 3472 
Q 1563 3066 1563 2328 
Q 1563 1594 1866 1187 
Q 2169 781 2719 781 
Q 3272 781 3575 1187 
Q 3878 1594 3878 2328 
Q 3878 3066 3575 3472 
Q 3272 3878 2719 3878 
z
M 2719 4750 
Q 3844 4750 4481 4106 
Q 5119 3463 5119 2328 
Q 5119 1197 4481 553 
Q 3844 -91 2719 -91 
Q 1597 -91 958 553 
Q 319 1197 319 2328 
Q 319 3463 958 4106 
Q 1597 4750 2719 4750 
z
" transform="scale(0.015625)"/>
      <path id="DejaVuSans-Bold-6f" d="M 2203 2784 
Q 1831 2784 1636 2517 
Q 1441 2250 1441 1747 
Q 1441 1244 1636 976 
Q 1831 709 2203 709 
Q 2569 709 2762 976 
Q 2956 1244 2956 1747 
Q 2956 2250 2762 2517 
Q 2569 2784 2203 2784 
z
M 2203 3584 
Q 3106 3584 3614 3096 
Q 4122 2609 4122 1747 
Q 4122 884 3614 396 
Q 3106 -91 2203 -91 
Q 1297 -91 786 396 
Q 275 884 275 1747 
Q 275 2609 786 3096 
Q 1297 3584 2203 3584 
z
" transform="scale(0.015625)"/>
      <path id="DejaVuSans-Bold-72" d="M 3138 2547 
Q 2991 2616 2845 2648 
Q 2700 2681 2553 2681 
Q 2122 2681 1889 2404 
Q 1656 2128 1656 1613 
L 1656 0 
L 538 0 
L 538 3500 
L 1656 3500 
L 1656 2925 
Q 1872 3269 2151 3426 
Q 2431 3584 2822 3584 
Q 2878 3584 2943 3579 
Q 3009 3575 3134 3559 
L 3138 2547 
z
" transform="scale(0.015625)"/>
      <path id="DejaVuSans-Bold-e9" d="M 4031 1759 
L 4031 1441 
L 1416 1441 
Q 1456 1047 1700 850 
Q 1944 653 2381 653 
Q 2734 653 3104 758 
Q 3475 863 3866 1075 
L 3866 213 
Q 3469 63 3072 -14 
Q 2675 -91 2278 -91 
Q 1328 -91 801 392 
Q 275 875 275 1747 
Q 275 2603 792 3093 
Q 1309 3584 2216 3584 
Q 3041 3584 3536 3087 
Q 4031 2591 4031 1759 
z
M 2881 2131 
Q 2881 2450 2695 2645 
Q 2509 2841 2209 2841 
Q 1884 2841 1681 2658 
Q 1478 2475 1428 2131 
L 2881 2131 
z
M 2702 5119 
L 3586 5119 
L 2433 3944 
L 1821 3944 
L 2702 5119 
z
" transform="scale(0.015625)"/>
      <path id="DejaVuSans-Bold-64" d="M 2919 2988 
L 2919 4863 
L 4044 4863 
L 4044 0 
L 2919 0 
L 2919 506 
Q 2688 197 2409 53 
Q 2131 -91 1766 -91 
Q 1119 -91 703 423 
Q 288 938 288 1747 
Q 288 2556 703 3070 
Q 1119 3584 1766 3584 
Q 2128 3584 2408 3439 
Q 2688 3294 2919 2988 
z
M 2181 722 
Q 2541 722 2730 984 
Q 2919 1247 2919 1747 
Q 2919 2247 2730 2509 
Q 2541 2772 2181 2772 
Q 1825 2772 1636 2509 
Q 1447 2247 1447 1747 
Q 1447 1247 1636 984 
Q 1825 722 2181 722 
z
" transform="scale(0.015625)"/>
      <path id="DejaVuSans-Bold-2019" d="M 716 4666 
L 1778 4666 
L 1778 3775 
L 1069 2675 
L 403 2675 
L 716 3775 
L 716 4666 
z
" transform="scale(0.015625)"/>
      <path id="DejaVuSans-Bold-68" d="M 4056 2131 
L 4056 0 
L 2931 0 
L 2931 347 
L 2931 1625 
Q 2931 2084 2911 2256 
Q 2891 2428 2841 2509 
Q 2775 2619 2662 2680 
Q 2550 2741 2406 2741 
Q 2056 2741 1856 2470 
Q 1656 2200 1656 1722 
L 1656 0 
L 538 0 
L 538 4863 
L 1656 4863 
L 1656 2988 
Q 1909 3294 2193 3439 
Q 2478 3584 2822 3584 
Q 3428 3584 3742 3212 
Q 4056 2841 4056 2131 
z
" transform="scale(0.015625)"/>
     </defs>
     <use xlink:href="#DejaVuSans-Bold-44"/>
     <use xlink:href="#DejaVuSans-Bold-69" transform="translate(83.007812 0)"/>
     <use xlink:href="#DejaVuSans-Bold-73" transform="translate(117.285156 0)"/>
     <use xlink:href="#DejaVuSans-Bold-74" transform="translate(176.806641 0)"/>
     <use xlink:href="#DejaVuSans-Bold-61" transform="translate(224.609375 0)"/>
     <use xlink:href="#DejaVuSans-Bold-6e" transform="translate(292.089844 0)"/>
     <use xlink:href="#DejaVuSans-Bold-63" transform="translate(363.28125 0)"/>
     <use xlink:href="#DejaVuSans-Bold-65" transform="translate(422.558594 0)"/>
     <use xlink:href="#DejaVuSans-Bold-20" transform="translate(490.380859 0)"/>
     <use xlink:href="#DejaVuSans-Bold-61" transform="translate(525.195312 0)"/>
     <use xlink:href="#DejaVuSans-Bold-75" transform="translate(592.675781 0)"/>
     <use xlink:href="#DejaVuSans-Bold-20" transform="translate(663.867188 0)"/>
     <use xlink:href="#DejaVuSans-Bold-70" transform="translate(698.681641 0)"/>
     <use xlink:href="#DejaVuSans-Bold-69" transform="translate(770.263672 0)"/>
     <use xlink:href="#DejaVuSans-Bold-63" transform="translate(804.541016 0)"/>
     <use xlink:href="#DejaVuSans-Bold-20" transform="translate(863.818359 0)"/>
     <use xlink:href="#DejaVuSans-Bold-2014" transform="translate(898.632812 0)"/>
     <use xlink:href="#DejaVuSans-Bold-20" transform="translate(998.632812 0)"/>
     <use xlink:href="#DejaVuSans-Bold-4f" transform="translate(1033.447266 0)"/>
     <use xlink:href="#DejaVuSans-Bold-70" transform="translate(1118.457031 0)"/>
     <use xlink:href="#DejaVuSans-Bold-70" transform="translate(1190.039062 0)"/>
     <use xlink:href="#DejaVuSans-Bold-6f" transform="translate(1261.621094 0)"/>
     <use xlink:href="#DejaVuSans-Bold-72" transform="translate(1330.322266 0)"/>
     <use xlink:href="#DejaVuSans-Bold-74" transform="translate(1379.638672 0)"/>
     <use xlink:href="#DejaVuSans-Bold-75" transform="translate(1427.441406 0)"/>
     <use xlink:href="#DejaVuSans-Bold-6e" transform="translate(1498.632812 0)"/>
     <use xlink:href="#DejaVuSans-Bold-69" transform="translate(1569.824219 0)"/>
     <use xlink:href="#DejaVuSans-Bold-74" transform="translate(1604.101562 0)"/>
     <use xlink:href="#DejaVuSans-Bold-e9" transform="translate(1651.904297 0)"/>
     <use xlink:href="#DejaVuSans-Bold-73" transform="translate(1719.726562 0)"/>
     <use xlink:href="#DejaVuSans-Bold-20" transform="translate(1779.248047 0)"/>
     <use xlink:href="#DejaVuSans-Bold-64" transform="translate(1814.0625 0)"/>
     <use xlink:href="#DejaVuSans-Bold-2019" transform="translate(1885.644531 0)"/>
     <use xlink:href="#DejaVuSans-Bold-61" transform="translate(1923.632812 0)"/>
     <use xlink:href="#DejaVuSans-Bold-63" transform="translate(1991.113281 0)"/>
     <use xlink:href="#DejaVuSans-Bold-68" transform="translate(2050.390625 0)"/>
     <use xlink:href="#DejaVuSans-Bold-61" transform="translate(2121.582031 0)"/>
     <use xlink:href="#DejaVuSans-Bold-74" transform="translate(2189.0625 0)"/>
    </g>
   </g>
   <g id="legend_1">
    <g id="patch_10">
     <path d="M 62.557188 350.722644 
L 272.418906 350.722644 
Q 274.218906 350.722644 274.218906 348.922644 
L 274.218906 336.612332 
Q 274.218906 334.812332 272.418906 334.812332 
L 62.557188 334.812332 
Q 60.757188 334.812332 60.757188 336.612332 
L 60.757188 348.922644 
Q 60.757188 350.722644 62.557188 350.722644 
z
" style="fill: #f5f5f5; opacity: 0.85; stroke: #cccccc; stroke-width: 0.8; stroke-linejoin: miter"/>
    </g>
    <g id="line2d_38">
     <path d="M 64.357188 342.100926 
L 73.357188 342.100926 
L 82.357188 342.100926 
" style="fill: none; stroke: #4c72b0; stroke-width: 1.8; stroke-linecap: round"/>
    </g>
    <g id="text_38">
     <!-- Brest -->
     <g style="fill: #262626" transform="translate(89.557188 345.250926) scale(0.09 -0.09)">
      <defs>
       <path id="DejaVuSans-42" d="M 1259 2228 
L 1259 519 
L 2272 519 
Q 2781 519 3026 730 
Q 3272 941 3272 1375 
Q 3272 1813 3026 2020 
Q 2781 2228 2272 2228 
L 1259 2228 
z
M 1259 4147 
L 1259 2741 
L 2194 2741 
Q 2656 2741 2882 2914 
Q 3109 3088 3109 3444 
Q 3109 3797 2882 3972 
Q 2656 4147 2194 4147 
L 1259 4147 
z
M 628 4666 
L 2241 4666 
Q 2963 4666 3353 4366 
Q 3744 4066 3744 3513 
Q 3744 3084 3544 2831 
Q 3344 2578 2956 2516 
Q 3422 2416 3680 2098 
Q 3938 1781 3938 1306 
Q 3938 681 3513 340 
Q 3088 0 2303 0 
L 628 0 
L 628 4666 
z
" transform="scale(0.015625)"/>
      </defs>
      <use xlink:href="#DejaVuSans-42"/>
      <use xlink:href="#DejaVuSans-72" transform="translate(68.603516 0)"/>
      <use xlink:href="#DejaVuSans-65" transform="translate(107.466797 0)"/>
      <use xlink:href="#DejaVuSans-73" transform="translate(168.990234 0)"/>
      <use xlink:href="#DejaVuSans-74" transform="translate(221.089844 0)"/>
     </g>
    </g>
    <g id="line2d_39">
     <path d="M 130.983906 342.100926 
L 139.983906 342.100926 
L 148.983906 342.100926 
" style="fill: none; stroke: #dd8452; stroke-width: 1.8; stroke-linecap: round"/>
    </g>
    <g id="text_39">
     <!-- Le Havre -->
     <g style="fill: #262626" transform="translate(156.183906 345.250926) scale(0.09 -0.09)">
      <defs>
       <path id="DejaVuSans-4c" d="M 628 4666 
L 1259 4666 
L 1259 531 
L 3531 531 
L 3531 0 
L 628 0 
L 628 4666 
z
" transform="scale(0.015625)"/>
       <path id="DejaVuSans-48" d="M 628 4666 
L 1259 4666 
L 1259 2753 
L 3553 2753 
L 3553 4666 
L 4184 4666 
L 4184 0 
L 3553 0 
L 3553 2222 
L 1259 2222 
L 1259 0 
L 628 0 
L 628 4666 
z
" transform="scale(0.015625)"/>
      </defs>
      <use xlink:href="#DejaVuSans-4c"/>
      <use xlink:href="#DejaVuSans-65" transform="translate(53.962891 0)"/>
      <use xlink:href="#DejaVuSans-20" transform="translate(115.486328 0)"/>
      <use xlink:href="#DejaVuSans-48" transform="translate(147.273438 0)"/>
      <use xlink:href="#DejaVuSans-61" transform="translate(222.46875 0)"/>
      <use xlink:href="#DejaVuSans-76" transform="translate(283.748047 0)"/>
      <use xlink:href="#DejaVuSans-72" transform="translate(342.927734 0)"/>
      <use xlink:href="#DejaVuSans-65" transform="translate(381.791016 0)"/>
     </g>
    </g>
    <g id="line2d_40">
     <path d="M 214.084844 342.100926 
L 223.084844 342.100926 
L 232.084844 342.100926 
" style="fill: none; stroke: #55a868; stroke-width: 1.8; stroke-linecap: round"/>
    </g>
    <g id="text_40">
     <!-- Lorient -->
     <g style="fill: #262626" transform="translate(239.284844 345.250926) scale(0.09 -0.09)">
      <use xlink:href="#DejaVuSans-4c"/>
      <use xlink:href="#DejaVuSans-6f" transform="translate(53.962891 0)"/>
      <use xlink:href="#DejaVuSans-72" transform="translate(115.144531 0)"/>
      <use xlink:href="#DejaVuSans-69" transform="translate(156.257812 0)"/>
      <use xlink:href="#DejaVuSans-65" transform="translate(184.041016 0)"/>
      <use xlink:href="#DejaVuSans-6e" transform="translate(245.564453 0)"/>
      <use xlink:href="#DejaVuSans-74" transform="translate(308.943359 0)"/>
     </g>
    </g>
   </g>
  </g>
 </g>
 <defs>
  <clipPath id="p3e7b8969e0">
   <rect x="56.257188" y="24.397812" width="736.4694" height="330.824832"/>
  </clipPath>
 </defs>
</svg>
