<?xml version="1.0" encoding="utf-8" standalone="no"?>
<!DOCTYPE svg PUBLIC "-//W3C//DTD SVG 1.1//EN"
  "http://www.w3.org/Graphics/SVG/1.1/DTD/svg11.dtd">
<svg xmlns:xlink="http://www.w3.org/1999/xlink" width="711.711806pt" height="316.386494pt" viewBox="0 0 711.711806 316.386494" xmlns="http://www.w3.org/2000/svg" version="1.1">
 <metadata>
  <rdf:RDF xmlns:dc="http://purl.org/dc/elements/1.1/" xmlns:cc="http://creativecommons.org/ns#" xmlns:rdf="http://www.w3.org/1999/02/22-rdf-syntax-ns#">
   <cc:Work>
    <dc:type rdf:resource="http://purl.org/dc/dcmitype/StillImage"/>
    <dc:date>2026-07-05T08:52:39.220618</dc:date>
    <dc:format>image/svg+xml</dc:format>
    <dc:creator>
     <cc:Agent>
      <dc:title>Matplotlib v3.11.0, https://matplotlib.org/</dc:title>
     </cc:Agent>
    </dc:creator>
   </cc:Work>
  </rdf:RDF>
 </metadata>
 <defs>
  <style type="text/css">*{stroke-linejoin: round; stroke-linecap: butt}</style>
 </defs>
 <g id="figure_1">
  <g id="patch_1">
   <path d="M 0 316.386494 
L 711.711806 316.386494 
L 711.711806 0 
L 0 0 
z
" style="fill: #ffffff"/>
  </g>
  <g id="axes_1">
   <g id="patch_2">
    <path d="M 69.462031 276.445634 
L 704.511806 276.445634 
L 704.511806 24.397812 
L 69.462031 24.397812 
z
" style="fill: #f5f5f5"/>
   </g>
   <g id="matplotlib.axis_1">
    <g id="xtick_1">
     <g id="line2d_1">
      <path d="M 69.462031 276.445634 
L 69.462031 24.397812 
" clip-path="url(#p07d68042f1)" style="fill: none; stroke-dasharray: 2.96,1.28; stroke-dashoffset: 0; stroke: #cccccc; stroke-width: 0.8"/>
     </g>
     <g id="text_1">
      <!-- 0 -->
      <g style="fill: #262626" transform="translate(66.598906 291.583525) scale(0.09 -0.09)">
       <defs>
        <path id="DejaVuSans-13" d="M 2034 4250 
Q 1547 4250 1301 3770 
Q 1056 3291 1056 2328 
Q 1056 1369 1301 889 
Q 1547 409 2034 409 
Q 2525 409 2770 889 
Q 3016 1369 3016 2328 
Q 3016 3291 2770 3770 
Q 2525 4250 2034 4250 
z
M 2034 4750 
Q 2819 4750 3233 4129 
Q 3647 3509 3647 2328 
Q 3647 1150 3233 529 
Q 2819 -91 2034 -91 
Q 1250 -91 836 529 
Q 422 1150 422 2328 
Q 422 3509 836 4129 
Q 1250 4750 2034 4750 
z
" transform="scale(0.015625)"/>
       </defs>
       <use xlink:href="#DejaVuSans-13"/>
      </g>
     </g>
    </g>
    <g id="xtick_2">
     <g id="line2d_2">
      <path d="M 184.925627 276.445634 
L 184.925627 24.397812 
" clip-path="url(#p07d68042f1)" style="fill: none; stroke-dasharray: 2.96,1.28; stroke-dashoffset: 0; stroke: #cccccc; stroke-width: 0.8"/>
     </g>
     <g id="text_2">
      <!-- 20 -->
      <g style="fill: #262626" transform="translate(179.199377 291.583525) scale(0.09 -0.09)">
       <defs>
        <path id="DejaVuSans-15" d="M 1228 531 
L 3431 531 
L 3431 0 
L 469 0 
L 469 531 
Q 828 903 1448 1529 
Q 2069 2156 2228 2338 
Q 2531 2678 2651 2914 
Q 2772 3150 2772 3378 
Q 2772 3750 2511 3984 
Q 2250 4219 1831 4219 
Q 1534 4219 1204 4116 
Q 875 4013 500 3803 
L 500 4441 
Q 881 4594 1212 4672 
Q 1544 4750 1819 4750 
Q 2544 4750 2975 4387 
Q 3406 4025 3406 3419 
Q 3406 3131 3298 2873 
Q 3191 2616 2906 2266 
Q 2828 2175 2409 1742 
Q 1991 1309 1228 531 
z
" transform="scale(0.015625)"/>
       </defs>
       <use xlink:href="#DejaVuSans-15"/>
       <use xlink:href="#DejaVuSans-13" transform="translate(63.625 0)"/>
      </g>
     </g>
    </g>
    <g id="xtick_3">
     <g id="line2d_3">
      <path d="M 300.389222 276.445634 
L 300.389222 24.397812 
" clip-path="url(#p07d68042f1)" style="fill: none; stroke-dasharray: 2.96,1.28; stroke-dashoffset: 0; stroke: #cccccc; stroke-width: 0.8"/>
     </g>
     <g id="text_3">
      <!-- 40 -->
      <g style="fill: #262626" transform="translate(294.662972 291.583525) scale(0.09 -0.09)">
       <defs>
        <path id="DejaVuSans-17" d="M 2419 4116 
L 825 1625 
L 2419 1625 
L 2419 4116 
z
M 2253 4666 
L 3047 4666 
L 3047 1625 
L 3713 1625 
L 3713 1100 
L 3047 1100 
L 3047 0 
L 2419 0 
L 2419 1100 
L 313 1100 
L 313 1709 
L 2253 4666 
z
" transform="scale(0.015625)"/>
       </defs>
       <use xlink:href="#DejaVuSans-17"/>
       <use xlink:href="#DejaVuSans-13" transform="translate(63.625 0)"/>
      </g>
     </g>
    </g>
    <g id="xtick_4">
     <g id="line2d_4">
      <path d="M 415.852818 276.445634 
L 415.852818 24.397812 
" clip-path="url(#p07d68042f1)" style="fill: none; stroke-dasharray: 2.96,1.28; stroke-dashoffset: 0; stroke: #cccccc; stroke-width: 0.8"/>
     </g>
     <g id="text_4">
      <!-- 60 -->
      <g style="fill: #262626" transform="translate(410.126568 291.583525) scale(0.09 -0.09)">
       <defs>
        <path id="DejaVuSans-19" d="M 2113 2584 
Q 1688 2584 1439 2293 
Q 1191 2003 1191 1497 
Q 1191 994 1439 701 
Q 1688 409 2113 409 
Q 2538 409 2786 701 
Q 3034 994 3034 1497 
Q 3034 2003 2786 2293 
Q 2538 2584 2113 2584 
z
M 3366 4563 
L 3366 3988 
Q 3128 4100 2886 4159 
Q 2644 4219 2406 4219 
Q 1781 4219 1451 3797 
Q 1122 3375 1075 2522 
Q 1259 2794 1537 2939 
Q 1816 3084 2150 3084 
Q 2853 3084 3261 2657 
Q 3669 2231 3669 1497 
Q 3669 778 3244 343 
Q 2819 -91 2113 -91 
Q 1303 -91 875 529 
Q 447 1150 447 2328 
Q 447 3434 972 4092 
Q 1497 4750 2381 4750 
Q 2619 4750 2861 4703 
Q 3103 4656 3366 4563 
z
" transform="scale(0.015625)"/>
       </defs>
       <use xlink:href="#DejaVuSans-19"/>
       <use xlink:href="#DejaVuSans-13" transform="translate(63.625 0)"/>
      </g>
     </g>
    </g>
    <g id="xtick_5">
     <g id="line2d_5">
      <path d="M 531.316413 276.445634 
L 531.316413 24.397812 
" clip-path="url(#p07d68042f1)" style="fill: none; stroke-dasharray: 2.96,1.28; stroke-dashoffset: 0; stroke: #cccccc; stroke-width: 0.8"/>
     </g>
     <g id="text_5">
      <!-- 80 -->
      <g style="fill: #262626" transform="translate(525.590163 291.583525) scale(0.09 -0.09)">
       <defs>
        <path id="DejaVuSans-1b" d="M 2034 2216 
Q 1584 2216 1326 1975 
Q 1069 1734 1069 1313 
Q 1069 891 1326 650 
Q 1584 409 2034 409 
Q 2484 409 2743 651 
Q 3003 894 3003 1313 
Q 3003 1734 2745 1975 
Q 2488 2216 2034 2216 
z
M 1403 2484 
Q 997 2584 770 2862 
Q 544 3141 544 3541 
Q 544 4100 942 4425 
Q 1341 4750 2034 4750 
Q 2731 4750 3128 4425 
Q 3525 4100 3525 3541 
Q 3525 3141 3298 2862 
Q 3072 2584 2669 2484 
Q 3125 2378 3379 2068 
Q 3634 1759 3634 1313 
Q 3634 634 3220 271 
Q 2806 -91 2034 -91 
Q 1263 -91 848 271 
Q 434 634 434 1313 
Q 434 1759 690 2068 
Q 947 2378 1403 2484 
z
M 1172 3481 
Q 1172 3119 1398 2916 
Q 1625 2713 2034 2713 
Q 2441 2713 2670 2916 
Q 2900 3119 2900 3481 
Q 2900 3844 2670 4047 
Q 2441 4250 2034 4250 
Q 1625 4250 1398 4047 
Q 1172 3844 1172 3481 
z
" transform="scale(0.015625)"/>
       </defs>
       <use xlink:href="#DejaVuSans-1b"/>
       <use xlink:href="#DejaVuSans-13" transform="translate(63.625 0)"/>
      </g>
     </g>
    </g>
    <g id="xtick_6">
     <g id="line2d_6">
      <path d="M 646.780009 276.445634 
L 646.780009 24.397812 
" clip-path="url(#p07d68042f1)" style="fill: none; stroke-dasharray: 2.96,1.28; stroke-dashoffset: 0; stroke: #cccccc; stroke-width: 0.8"/>
     </g>
     <g id="text_6">
      <!-- 100 -->
      <g style="fill: #262626" transform="translate(638.190634 291.583525) scale(0.09 -0.09)">
       <defs>
        <path id="DejaVuSans-14" d="M 794 531 
L 1825 531 
L 1825 4091 
L 703 3866 
L 703 4441 
L 1819 4666 
L 2450 4666 
L 2450 531 
L 3481 531 
L 3481 0 
L 794 0 
L 794 531 
z
" transform="scale(0.015625)"/>
       </defs>
       <use xlink:href="#DejaVuSans-14"/>
       <use xlink:href="#DejaVuSans-13" transform="translate(63.625 0)"/>
       <use xlink:href="#DejaVuSans-13" transform="translate(127.25 0)"/>
      </g>
     </g>
    </g>
    <g id="text_7">
     <!-- Score d'attractivité (0-100) -->
     <g style="fill: #262626" transform="translate(312.462778 306.543916) scale(0.11 -0.11)">
      <defs>
       <path id="DejaVuSans-36" d="M 3425 4513 
L 3425 3897 
Q 3066 4069 2747 4153 
Q 2428 4238 2131 4238 
Q 1616 4238 1336 4038 
Q 1056 3838 1056 3469 
Q 1056 3159 1242 3001 
Q 1428 2844 1947 2747 
L 2328 2669 
Q 3034 2534 3370 2195 
Q 3706 1856 3706 1288 
Q 3706 609 3251 259 
Q 2797 -91 1919 -91 
Q 1588 -91 1214 -16 
Q 841 59 441 206 
L 441 856 
Q 825 641 1194 531 
Q 1563 422 1919 422 
Q 2459 422 2753 634 
Q 3047 847 3047 1241 
Q 3047 1584 2836 1778 
Q 2625 1972 2144 2069 
L 1759 2144 
Q 1053 2284 737 2584 
Q 422 2884 422 3419 
Q 422 4038 858 4394 
Q 1294 4750 2059 4750 
Q 2388 4750 2728 4690 
Q 3069 4631 3425 4513 
z
" transform="scale(0.015625)"/>
       <path id="DejaVuSans-46" d="M 3122 3366 
L 3122 2828 
Q 2878 2963 2633 3030 
Q 2388 3097 2138 3097 
Q 1578 3097 1268 2742 
Q 959 2388 959 1747 
Q 959 1106 1268 751 
Q 1578 397 2138 397 
Q 2388 397 2633 464 
Q 2878 531 3122 666 
L 3122 134 
Q 2881 22 2623 -34 
Q 2366 -91 2075 -91 
Q 1284 -91 818 406 
Q 353 903 353 1747 
Q 353 2603 823 3093 
Q 1294 3584 2113 3584 
Q 2378 3584 2631 3529 
Q 2884 3475 3122 3366 
z
" transform="scale(0.015625)"/>
       <path id="DejaVuSans-52" d="M 1959 3097 
Q 1497 3097 1228 2736 
Q 959 2375 959 1747 
Q 959 1119 1226 758 
Q 1494 397 1959 397 
Q 2419 397 2687 759 
Q 2956 1122 2956 1747 
Q 2956 2369 2687 2733 
Q 2419 3097 1959 3097 
z
M 1959 3584 
Q 2709 3584 3137 3096 
Q 3566 2609 3566 1747 
Q 3566 888 3137 398 
Q 2709 -91 1959 -91 
Q 1206 -91 779 398 
Q 353 888 353 1747 
Q 353 2609 779 3096 
Q 1206 3584 1959 3584 
z
" transform="scale(0.015625)"/>
       <path id="DejaVuSans-55" d="M 2631 2963 
Q 2534 3019 2420 3045 
Q 2306 3072 2169 3072 
Q 1681 3072 1420 2755 
Q 1159 2438 1159 1844 
L 1159 0 
L 581 0 
L 581 3500 
L 1159 3500 
L 1159 2956 
Q 1341 3275 1631 3429 
Q 1922 3584 2338 3584 
Q 2397 3584 2469 3576 
Q 2541 3569 2628 3553 
L 2631 2963 
z
" transform="scale(0.015625)"/>
       <path id="DejaVuSans-48" d="M 3597 1894 
L 3597 1613 
L 953 1613 
Q 991 1019 1311 708 
Q 1631 397 2203 397 
Q 2534 397 2845 478 
Q 3156 559 3463 722 
L 3463 178 
Q 3153 47 2828 -22 
Q 2503 -91 2169 -91 
Q 1331 -91 842 396 
Q 353 884 353 1716 
Q 353 2575 817 3079 
Q 1281 3584 2069 3584 
Q 2775 3584 3186 3129 
Q 3597 2675 3597 1894 
z
M 3022 2063 
Q 3016 2534 2758 2815 
Q 2500 3097 2075 3097 
Q 1594 3097 1305 2825 
Q 1016 2553 972 2059 
L 3022 2063 
z
" transform="scale(0.015625)"/>
       <path id="DejaVuSans-3" transform="scale(0.015625)"/>
       <path id="DejaVuSans-47" d="M 2906 2969 
L 2906 4863 
L 3481 4863 
L 3481 0 
L 2906 0 
L 2906 525 
Q 2725 213 2448 61 
Q 2172 -91 1784 -91 
Q 1150 -91 751 415 
Q 353 922 353 1747 
Q 353 2572 751 3078 
Q 1150 3584 1784 3584 
Q 2172 3584 2448 3432 
Q 2725 3281 2906 2969 
z
M 947 1747 
Q 947 1113 1208 752 
Q 1469 391 1925 391 
Q 2381 391 2643 752 
Q 2906 1113 2906 1747 
Q 2906 2381 2643 2742 
Q 2381 3103 1925 3103 
Q 1469 3103 1208 2742 
Q 947 2381 947 1747 
z
" transform="scale(0.015625)"/>
       <path id="DejaVuSans-a" d="M 1147 4666 
L 1147 2931 
L 616 2931 
L 616 4666 
L 1147 4666 
z
" transform="scale(0.015625)"/>
       <path id="DejaVuSans-44" d="M 2194 1759 
Q 1497 1759 1228 1600 
Q 959 1441 959 1056 
Q 959 750 1161 570 
Q 1363 391 1709 391 
Q 2188 391 2477 730 
Q 2766 1069 2766 1631 
L 2766 1759 
L 2194 1759 
z
M 3341 1997 
L 3341 0 
L 2766 0 
L 2766 531 
Q 2569 213 2275 61 
Q 1981 -91 1556 -91 
Q 1019 -91 701 211 
Q 384 513 384 1019 
Q 384 1609 779 1909 
Q 1175 2209 1959 2209 
L 2766 2209 
L 2766 2266 
Q 2766 2663 2505 2880 
Q 2244 3097 1772 3097 
Q 1472 3097 1187 3025 
Q 903 2953 641 2809 
L 641 3341 
Q 956 3463 1253 3523 
Q 1550 3584 1831 3584 
Q 2591 3584 2966 3190 
Q 3341 2797 3341 1997 
z
" transform="scale(0.015625)"/>
       <path id="DejaVuSans-57" d="M 1172 4494 
L 1172 3500 
L 2356 3500 
L 2356 3053 
L 1172 3053 
L 1172 1153 
Q 1172 725 1289 603 
Q 1406 481 1766 481 
L 2356 481 
L 2356 0 
L 1766 0 
Q 1100 0 847 248 
Q 594 497 594 1153 
L 594 3053 
L 172 3053 
L 172 3500 
L 594 3500 
L 594 4494 
L 1172 4494 
z
" transform="scale(0.015625)"/>
       <path id="DejaVuSans-4c" d="M 603 3500 
L 1178 3500 
L 1178 0 
L 603 0 
L 603 3500 
z
M 603 4863 
L 1178 4863 
L 1178 4134 
L 603 4134 
L 603 4863 
z
" transform="scale(0.015625)"/>
       <path id="DejaVuSans-59" d="M 191 3500 
L 800 3500 
L 1894 563 
L 2988 3500 
L 3597 3500 
L 2284 0 
L 1503 0 
L 191 3500 
z
" transform="scale(0.015625)"/>
       <path id="DejaVuSans-ab" d="M 3597 1894 
L 3597 1613 
L 953 1613 
Q 991 1019 1311 708 
Q 1631 397 2203 397 
Q 2534 397 2845 478 
Q 3156 559 3463 722 
L 3463 178 
Q 3153 47 2828 -22 
Q 2503 -91 2169 -91 
Q 1331 -91 842 396 
Q 353 884 353 1716 
Q 353 2575 817 3079 
Q 1281 3584 2069 3584 
Q 2775 3584 3186 3129 
Q 3597 2675 3597 1894 
z
M 3022 2063 
Q 3016 2534 2758 2815 
Q 2500 3097 2075 3097 
Q 1594 3097 1305 2825 
Q 1016 2553 972 2059 
L 3022 2063 
z
M 2468 5119 
L 3090 5119 
L 2072 3944 
L 1593 3944 
L 2468 5119 
z
" transform="scale(0.015625)"/>
       <path id="DejaVuSans-b" d="M 1984 4856 
Q 1566 4138 1362 3434 
Q 1159 2731 1159 2009 
Q 1159 1288 1364 580 
Q 1569 -128 1984 -844 
L 1484 -844 
Q 1016 -109 783 600 
Q 550 1309 550 2009 
Q 550 2706 781 3412 
Q 1013 4119 1484 4856 
L 1984 4856 
z
" transform="scale(0.015625)"/>
       <path id="DejaVuSans-10" d="M 313 2009 
L 1997 2009 
L 1997 1497 
L 313 1497 
L 313 2009 
z
" transform="scale(0.015625)"/>
       <path id="DejaVuSans-c" d="M 513 4856 
L 1013 4856 
Q 1481 4119 1714 3412 
Q 1947 2706 1947 2009 
Q 1947 1309 1714 600 
Q 1481 -109 1013 -844 
L 513 -844 
Q 928 -128 1133 580 
Q 1338 1288 1338 2009 
Q 1338 2731 1133 3434 
Q 928 4138 513 4856 
z
" transform="scale(0.015625)"/>
      </defs>
      <use xlink:href="#DejaVuSans-36"/>
      <use xlink:href="#DejaVuSans-46" transform="translate(63.484375 0)"/>
      <use xlink:href="#DejaVuSans-52" transform="translate(118.46875 0)"/>
      <use xlink:href="#DejaVuSans-55" transform="translate(179.65625 0)"/>
      <use xlink:href="#DejaVuSans-48" transform="translate(218.5625 0)"/>
      <use xlink:href="#DejaVuSans-3" transform="translate(280.09375 0)"/>
      <use xlink:href="#DejaVuSans-47" transform="translate(311.875 0)"/>
      <use xlink:href="#DejaVuSans-a" transform="translate(375.359375 0)"/>
      <use xlink:href="#DejaVuSans-44" transform="translate(402.84375 0)"/>
      <use xlink:href="#DejaVuSans-57" transform="translate(464.125 0)"/>
      <use xlink:href="#DejaVuSans-57" transform="translate(503.328125 0)"/>
      <use xlink:href="#DejaVuSans-55" transform="translate(542.53125 0)"/>
      <use xlink:href="#DejaVuSans-44" transform="translate(583.640625 0)"/>
      <use xlink:href="#DejaVuSans-46" transform="translate(644.921875 0)"/>
      <use xlink:href="#DejaVuSans-57" transform="translate(699.90625 0)"/>
      <use xlink:href="#DejaVuSans-4c" transform="translate(739.109375 0)"/>
      <use xlink:href="#DejaVuSans-59" transform="translate(766.890625 0)"/>
      <use xlink:href="#DejaVuSans-4c" transform="translate(826.078125 0)"/>
      <use xlink:href="#DejaVuSans-57" transform="translate(853.859375 0)"/>
      <use xlink:href="#DejaVuSans-ab" transform="translate(893.0625 0)"/>
      <use xlink:href="#DejaVuSans-3" transform="translate(954.59375 0)"/>
      <use xlink:href="#DejaVuSans-b" transform="translate(986.375 0)"/>
      <use xlink:href="#DejaVuSans-13" transform="translate(1025.390625 0)"/>
      <use xlink:href="#DejaVuSans-10" transform="translate(1089.015625 0)"/>
      <use xlink:href="#DejaVuSans-14" transform="translate(1125.09375 0)"/>
      <use xlink:href="#DejaVuSans-13" transform="translate(1188.71875 0)"/>
      <use xlink:href="#DejaVuSans-13" transform="translate(1252.34375 0)"/>
      <use xlink:href="#DejaVuSans-c" transform="translate(1315.96875 0)"/>
     </g>
    </g>
   </g>
   <g id="matplotlib.axis_2">
    <g id="ytick_1">
     <g id="line2d_7">
      <path d="M 69.462031 245.894383 
L 704.511806 245.894383 
" clip-path="url(#p07d68042f1)" style="fill: none; stroke-dasharray: 2.96,1.28; stroke-dashoffset: 0; stroke: #cccccc; stroke-width: 0.8"/>
     </g>
     <g id="text_8">
      <!-- Quimper -->
      <g style="fill: #262626" transform="translate(22.155469 249.31368) scale(0.09 -0.09)">
       <defs>
        <path id="DejaVuSans-34" d="M 2522 4238 
Q 1834 4238 1429 3725 
Q 1025 3213 1025 2328 
Q 1025 1447 1429 934 
Q 1834 422 2522 422 
Q 3209 422 3611 934 
Q 4013 1447 4013 2328 
Q 4013 3213 3611 3725 
Q 3209 4238 2522 4238 
z
M 3406 84 
L 4238 -825 
L 3475 -825 
L 2784 -78 
Q 2681 -84 2626 -87 
Q 2572 -91 2522 -91 
Q 1538 -91 948 567 
Q 359 1225 359 2328 
Q 359 3434 948 4092 
Q 1538 4750 2522 4750 
Q 3503 4750 4090 4092 
Q 4678 3434 4678 2328 
Q 4678 1516 4351 937 
Q 4025 359 3406 84 
z
" transform="scale(0.015625)"/>
        <path id="DejaVuSans-58" d="M 544 1381 
L 544 3500 
L 1119 3500 
L 1119 1403 
Q 1119 906 1312 657 
Q 1506 409 1894 409 
Q 2359 409 2629 706 
Q 2900 1003 2900 1516 
L 2900 3500 
L 3475 3500 
L 3475 0 
L 2900 0 
L 2900 538 
Q 2691 219 2414 64 
Q 2138 -91 1772 -91 
Q 1169 -91 856 284 
Q 544 659 544 1381 
z
M 1991 3584 
L 1991 3584 
z
" transform="scale(0.015625)"/>
        <path id="DejaVuSans-50" d="M 3328 2828 
Q 3544 3216 3844 3400 
Q 4144 3584 4550 3584 
Q 5097 3584 5394 3201 
Q 5691 2819 5691 2113 
L 5691 0 
L 5113 0 
L 5113 2094 
Q 5113 2597 4934 2840 
Q 4756 3084 4391 3084 
Q 3944 3084 3684 2787 
Q 3425 2491 3425 1978 
L 3425 0 
L 2847 0 
L 2847 2094 
Q 2847 2600 2669 2842 
Q 2491 3084 2119 3084 
Q 1678 3084 1418 2786 
Q 1159 2488 1159 1978 
L 1159 0 
L 581 0 
L 581 3500 
L 1159 3500 
L 1159 2956 
Q 1356 3278 1631 3431 
Q 1906 3584 2284 3584 
Q 2666 3584 2933 3390 
Q 3200 3197 3328 2828 
z
" transform="scale(0.015625)"/>
        <path id="DejaVuSans-53" d="M 1159 525 
L 1159 -1331 
L 581 -1331 
L 581 3500 
L 1159 3500 
L 1159 2969 
Q 1341 3281 1617 3432 
Q 1894 3584 2278 3584 
Q 2916 3584 3314 3078 
Q 3713 2572 3713 1747 
Q 3713 922 3314 415 
Q 2916 -91 2278 -91 
Q 1894 -91 1617 61 
Q 1341 213 1159 525 
z
M 3116 1747 
Q 3116 2381 2855 2742 
Q 2594 3103 2138 3103 
Q 1681 3103 1420 2742 
Q 1159 2381 1159 1747 
Q 1159 1113 1420 752 
Q 1681 391 2138 391 
Q 2594 391 2855 752 
Q 3116 1113 3116 1747 
z
" transform="scale(0.015625)"/>
       </defs>
       <use xlink:href="#DejaVuSans-34"/>
       <use xlink:href="#DejaVuSans-58" transform="translate(78.71875 0)"/>
       <use xlink:href="#DejaVuSans-4c" transform="translate(142.09375 0)"/>
       <use xlink:href="#DejaVuSans-50" transform="translate(169.875 0)"/>
       <use xlink:href="#DejaVuSans-53" transform="translate(267.28125 0)"/>
       <use xlink:href="#DejaVuSans-48" transform="translate(330.765625 0)"/>
       <use xlink:href="#DejaVuSans-55" transform="translate(392.296875 0)"/>
      </g>
     </g>
    </g>
    <g id="ytick_2">
     <g id="line2d_8">
      <path d="M 69.462031 198.158053 
L 704.511806 198.158053 
" clip-path="url(#p07d68042f1)" style="fill: none; stroke-dasharray: 2.96,1.28; stroke-dashoffset: 0; stroke: #cccccc; stroke-width: 0.8"/>
     </g>
     <g id="text_9">
      <!-- Concarneau -->
      <g style="fill: #262626" transform="translate(7.2 201.576999) scale(0.09 -0.09)">
       <defs>
        <path id="DejaVuSans-26" d="M 4122 4306 
L 4122 3641 
Q 3803 3938 3442 4084 
Q 3081 4231 2675 4231 
Q 1875 4231 1450 3742 
Q 1025 3253 1025 2328 
Q 1025 1406 1450 917 
Q 1875 428 2675 428 
Q 3081 428 3442 575 
Q 3803 722 4122 1019 
L 4122 359 
Q 3791 134 3420 21 
Q 3050 -91 2638 -91 
Q 1578 -91 968 557 
Q 359 1206 359 2328 
Q 359 3453 968 4101 
Q 1578 4750 2638 4750 
Q 3056 4750 3426 4639 
Q 3797 4528 4122 4306 
z
" transform="scale(0.015625)"/>
        <path id="DejaVuSans-51" d="M 3513 2113 
L 3513 0 
L 2938 0 
L 2938 2094 
Q 2938 2591 2744 2837 
Q 2550 3084 2163 3084 
Q 1697 3084 1428 2787 
Q 1159 2491 1159 1978 
L 1159 0 
L 581 0 
L 581 3500 
L 1159 3500 
L 1159 2956 
Q 1366 3272 1645 3428 
Q 1925 3584 2291 3584 
Q 2894 3584 3203 3211 
Q 3513 2838 3513 2113 
z
" transform="scale(0.015625)"/>
       </defs>
       <use xlink:href="#DejaVuSans-26"/>
       <use xlink:href="#DejaVuSans-52" transform="translate(69.828125 0)"/>
       <use xlink:href="#DejaVuSans-51" transform="translate(131.015625 0)"/>
       <use xlink:href="#DejaVuSans-46" transform="translate(194.390625 0)"/>
       <use xlink:href="#DejaVuSans-44" transform="translate(249.375 0)"/>
       <use xlink:href="#DejaVuSans-55" transform="translate(310.65625 0)"/>
       <use xlink:href="#DejaVuSans-51" transform="translate(350.015625 0)"/>
       <use xlink:href="#DejaVuSans-48" transform="translate(413.390625 0)"/>
       <use xlink:href="#DejaVuSans-44" transform="translate(474.921875 0)"/>
       <use xlink:href="#DejaVuSans-58" transform="translate(536.203125 0)"/>
      </g>
     </g>
    </g>
    <g id="ytick_3">
     <g id="line2d_9">
      <path d="M 69.462031 150.421723 
L 704.511806 150.421723 
" clip-path="url(#p07d68042f1)" style="fill: none; stroke-dasharray: 2.96,1.28; stroke-dashoffset: 0; stroke: #cccccc; stroke-width: 0.8"/>
     </g>
     <g id="text_10">
      <!-- Le Havre -->
      <g style="fill: #262626" transform="translate(21.256875 153.840669) scale(0.09 -0.09)">
       <defs>
        <path id="DejaVuSans-2f" d="M 628 4666 
L 1259 4666 
L 1259 531 
L 3531 531 
L 3531 0 
L 628 0 
L 628 4666 
z
" transform="scale(0.015625)"/>
        <path id="DejaVuSans-2b" d="M 628 4666 
L 1259 4666 
L 1259 2753 
L 3553 2753 
L 3553 4666 
L 4184 4666 
L 4184 0 
L 3553 0 
L 3553 2222 
L 1259 2222 
L 1259 0 
L 628 0 
L 628 4666 
z
" transform="scale(0.015625)"/>
       </defs>
       <use xlink:href="#DejaVuSans-2f"/>
       <use xlink:href="#DejaVuSans-48" transform="translate(53.96875 0)"/>
       <use xlink:href="#DejaVuSans-3" transform="translate(115.5 0)"/>
       <use xlink:href="#DejaVuSans-2b" transform="translate(147.28125 0)"/>
       <use xlink:href="#DejaVuSans-44" transform="translate(222.484375 0)"/>
       <use xlink:href="#DejaVuSans-59" transform="translate(283.765625 0)"/>
       <use xlink:href="#DejaVuSans-55" transform="translate(342.953125 0)"/>
       <use xlink:href="#DejaVuSans-48" transform="translate(381.859375 0)"/>
      </g>
     </g>
    </g>
    <g id="ytick_4">
     <g id="line2d_10">
      <path d="M 69.462031 102.685394 
L 704.511806 102.685394 
" clip-path="url(#p07d68042f1)" style="fill: none; stroke-dasharray: 2.96,1.28; stroke-dashoffset: 0; stroke: #cccccc; stroke-width: 0.8"/>
     </g>
     <g id="text_11">
      <!-- Brest -->
      <g style="fill: #262626" transform="translate(37.731094 106.104339) scale(0.09 -0.09)">
       <defs>
        <path id="DejaVuSans-25" d="M 1259 2228 
L 1259 519 
L 2272 519 
Q 2781 519 3026 730 
Q 3272 941 3272 1375 
Q 3272 1813 3026 2020 
Q 2781 2228 2272 2228 
L 1259 2228 
z
M 1259 4147 
L 1259 2741 
L 2194 2741 
Q 2656 2741 2882 2914 
Q 3109 3088 3109 3444 
Q 3109 3797 2882 3972 
Q 2656 4147 2194 4147 
L 1259 4147 
z
M 628 4666 
L 2241 4666 
Q 2963 4666 3353 4366 
Q 3744 4066 3744 3513 
Q 3744 3084 3544 2831 
Q 3344 2578 2956 2516 
Q 3422 2416 3680 2098 
Q 3938 1781 3938 1306 
Q 3938 681 3513 340 
Q 3088 0 2303 0 
L 628 0 
L 628 4666 
z
" transform="scale(0.015625)"/>
        <path id="DejaVuSans-56" d="M 2834 3397 
L 2834 2853 
Q 2591 2978 2328 3040 
Q 2066 3103 1784 3103 
Q 1356 3103 1142 2972 
Q 928 2841 928 2578 
Q 928 2378 1081 2264 
Q 1234 2150 1697 2047 
L 1894 2003 
Q 2506 1872 2764 1633 
Q 3022 1394 3022 966 
Q 3022 478 2636 193 
Q 2250 -91 1575 -91 
Q 1294 -91 989 -36 
Q 684 19 347 128 
L 347 722 
Q 666 556 975 473 
Q 1284 391 1588 391 
Q 1994 391 2212 530 
Q 2431 669 2431 922 
Q 2431 1156 2273 1281 
Q 2116 1406 1581 1522 
L 1381 1569 
Q 847 1681 609 1914 
Q 372 2147 372 2553 
Q 372 3047 722 3315 
Q 1072 3584 1716 3584 
Q 2034 3584 2315 3537 
Q 2597 3491 2834 3397 
z
" transform="scale(0.015625)"/>
       </defs>
       <use xlink:href="#DejaVuSans-25"/>
       <use xlink:href="#DejaVuSans-55" transform="translate(68.609375 0)"/>
       <use xlink:href="#DejaVuSans-48" transform="translate(107.515625 0)"/>
       <use xlink:href="#DejaVuSans-56" transform="translate(169.046875 0)"/>
       <use xlink:href="#DejaVuSans-57" transform="translate(221.140625 0)"/>
      </g>
     </g>
    </g>
    <g id="ytick_5">
     <g id="line2d_11">
      <path d="M 69.462031 54.949064 
L 704.511806 54.949064 
" clip-path="url(#p07d68042f1)" style="fill: none; stroke-dasharray: 2.96,1.28; stroke-dashoffset: 0; stroke: #cccccc; stroke-width: 0.8"/>
     </g>
     <g id="text_12">
      <!-- Lorient -->
      <g style="fill: #262626" transform="translate(29.827969 58.368361) scale(0.09 -0.09)">
       <use xlink:href="#DejaVuSans-2f"/>
       <use xlink:href="#DejaVuSans-52" transform="translate(53.96875 0)"/>
       <use xlink:href="#DejaVuSans-55" transform="translate(115.15625 0)"/>
       <use xlink:href="#DejaVuSans-4c" transform="translate(156.265625 0)"/>
       <use xlink:href="#DejaVuSans-48" transform="translate(184.046875 0)"/>
       <use xlink:href="#DejaVuSans-51" transform="translate(245.578125 0)"/>
       <use xlink:href="#DejaVuSans-57" transform="translate(308.953125 0)"/>
      </g>
     </g>
    </g>
   </g>
   <g id="patch_3">
    <path d="M 69.462031 264.988915 
L 219.564705 264.988915 
L 219.564705 226.799851 
L 69.462031 226.799851 
z
" clip-path="url(#p07d68042f1)" style="fill: #eb551b; stroke: #ffffff; stroke-width: 0.5; stroke-linejoin: miter"/>
   </g>
   <g id="patch_4">
    <path d="M 69.462031 217.252585 
L 259.976964 217.252585 
L 259.976964 179.063521 
L 69.462031 179.063521 
z
" clip-path="url(#p07d68042f1)" style="fill: #f16117; stroke: #ffffff; stroke-width: 0.5; stroke-linejoin: miter"/>
   </g>
   <g id="patch_5">
    <path d="M 69.462031 169.516255 
L 277.296503 169.516255 
L 277.296503 131.327191 
L 69.462031 131.327191 
z
" clip-path="url(#p07d68042f1)" style="fill: #f46615; stroke: #ffffff; stroke-width: 0.5; stroke-linejoin: miter"/>
   </g>
   <g id="patch_6">
    <path d="M 69.462031 121.779925 
L 294.616042 121.779925 
L 294.616042 83.590862 
L 69.462031 83.590862 
z
" clip-path="url(#p07d68042f1)" style="fill: #f66b14; stroke: #ffffff; stroke-width: 0.5; stroke-linejoin: miter"/>
   </g>
   <g id="patch_7">
    <path d="M 69.462031 74.043596 
L 369.667379 74.043596 
L 369.667379 35.854532 
L 69.462031 35.854532 
z
" clip-path="url(#p07d68042f1)" style="fill: #f6800f; stroke: #ffffff; stroke-width: 0.5; stroke-linejoin: miter"/>
   </g>
   <g id="patch_8">
    <path d="M 69.462031 276.445634 
L 69.462031 24.397812 
" style="fill: none; stroke: #ffffff; stroke-linejoin: miter; stroke-linecap: square"/>
   </g>
   <g id="patch_9">
    <path d="M 704.511806 276.445634 
L 704.511806 24.397812 
" style="fill: none; stroke: #ffffff; stroke-linejoin: miter; stroke-linecap: square"/>
   </g>
   <g id="patch_10">
    <path d="M 69.462031 276.445634 
L 704.511806 276.445634 
" style="fill: none; stroke: #ffffff; stroke-linejoin: miter; stroke-linecap: square"/>
   </g>
   <g id="patch_11">
    <path d="M 69.462031 24.397812 
L 704.511806 24.397812 
" style="fill: none; stroke: #ffffff; stroke-linejoin: miter; stroke-linecap: square"/>
   </g>
   <g id="text_13">
    <!--  26 | Bull | HOLD -->
    <g transform="translate(225.337885 247.990321) scale(0.08 -0.08)">
     <defs>
      <path id="DejaVuSans-Bold-3" transform="scale(0.015625)"/>
      <path id="DejaVuSans-Bold-15" d="M 1844 884 
L 3897 884 
L 3897 0 
L 506 0 
L 506 884 
L 2209 2388 
Q 2438 2594 2547 2791 
Q 2656 2988 2656 3200 
Q 2656 3528 2436 3728 
Q 2216 3928 1850 3928 
Q 1569 3928 1234 3808 
Q 900 3688 519 3450 
L 519 4475 
Q 925 4609 1322 4679 
Q 1719 4750 2100 4750 
Q 2938 4750 3402 4381 
Q 3866 4013 3866 3353 
Q 3866 2972 3669 2642 
Q 3472 2313 2841 1759 
L 1844 884 
z
" transform="scale(0.015625)"/>
      <path id="DejaVuSans-Bold-19" d="M 2316 2303 
Q 2000 2303 1842 2098 
Q 1684 1894 1684 1484 
Q 1684 1075 1842 870 
Q 2000 666 2316 666 
Q 2634 666 2792 870 
Q 2950 1075 2950 1484 
Q 2950 1894 2792 2098 
Q 2634 2303 2316 2303 
z
M 3803 4544 
L 3803 3681 
Q 3506 3822 3243 3889 
Q 2981 3956 2731 3956 
Q 2194 3956 1894 3657 
Q 1594 3359 1544 2772 
Q 1750 2925 1990 3001 
Q 2231 3078 2516 3078 
Q 3231 3078 3670 2659 
Q 4109 2241 4109 1563 
Q 4109 813 3618 361 
Q 3128 -91 2303 -91 
Q 1394 -91 895 523 
Q 397 1138 397 2266 
Q 397 3422 980 4083 
Q 1563 4744 2578 4744 
Q 2900 4744 3203 4694 
Q 3506 4644 3803 4544 
z
" transform="scale(0.015625)"/>
      <path id="DejaVuSans-Bold-5f" d="M 1522 4891 
L 1522 -1509 
L 813 -1509 
L 813 4891 
L 1522 4891 
z
" transform="scale(0.015625)"/>
      <path id="DejaVuSans-Bold-25" d="M 2456 2859 
Q 2741 2859 2887 2984 
Q 3034 3109 3034 3353 
Q 3034 3594 2887 3720 
Q 2741 3847 2456 3847 
L 1791 3847 
L 1791 2859 
L 2456 2859 
z
M 2497 819 
Q 2859 819 3042 972 
Q 3225 1125 3225 1434 
Q 3225 1738 3044 1889 
Q 2863 2041 2497 2041 
L 1791 2041 
L 1791 819 
L 2497 819 
z
M 3616 2497 
Q 4003 2384 4215 2081 
Q 4428 1778 4428 1338 
Q 4428 663 3972 331 
Q 3516 0 2584 0 
L 588 0 
L 588 4666 
L 2394 4666 
Q 3366 4666 3802 4372 
Q 4238 4078 4238 3431 
Q 4238 3091 4078 2852 
Q 3919 2613 3616 2497 
z
" transform="scale(0.015625)"/>
      <path id="DejaVuSans-Bold-58" d="M 500 1363 
L 500 3500 
L 1625 3500 
L 1625 3150 
Q 1625 2866 1622 2436 
Q 1619 2006 1619 1863 
Q 1619 1441 1641 1255 
Q 1663 1069 1716 984 
Q 1784 875 1895 815 
Q 2006 756 2150 756 
Q 2500 756 2700 1025 
Q 2900 1294 2900 1772 
L 2900 3500 
L 4019 3500 
L 4019 0 
L 2900 0 
L 2900 506 
Q 2647 200 2364 54 
Q 2081 -91 1741 -91 
Q 1134 -91 817 281 
Q 500 653 500 1363 
z
" transform="scale(0.015625)"/>
      <path id="DejaVuSans-Bold-4f" d="M 538 4863 
L 1656 4863 
L 1656 0 
L 538 0 
L 538 4863 
z
" transform="scale(0.015625)"/>
      <path id="DejaVuSans-Bold-2b" d="M 588 4666 
L 1791 4666 
L 1791 2888 
L 3566 2888 
L 3566 4666 
L 4769 4666 
L 4769 0 
L 3566 0 
L 3566 1978 
L 1791 1978 
L 1791 0 
L 588 0 
L 588 4666 
z
" transform="scale(0.015625)"/>
      <path id="DejaVuSans-Bold-32" d="M 2719 3878 
Q 2169 3878 1866 3472 
Q 1563 3066 1563 2328 
Q 1563 1594 1866 1187 
Q 2169 781 2719 781 
Q 3272 781 3575 1187 
Q 3878 1594 3878 2328 
Q 3878 3066 3575 3472 
Q 3272 3878 2719 3878 
z
M 2719 4750 
Q 3844 4750 4481 4106 
Q 5119 3463 5119 2328 
Q 5119 1197 4481 553 
Q 3844 -91 2719 -91 
Q 1597 -91 958 553 
Q 319 1197 319 2328 
Q 319 3463 958 4106 
Q 1597 4750 2719 4750 
z
" transform="scale(0.015625)"/>
      <path id="DejaVuSans-Bold-2f" d="M 588 4666 
L 1791 4666 
L 1791 909 
L 3903 909 
L 3903 0 
L 588 0 
L 588 4666 
z
" transform="scale(0.015625)"/>
      <path id="DejaVuSans-Bold-27" d="M 1791 3756 
L 1791 909 
L 2222 909 
Q 2959 909 3348 1275 
Q 3738 1641 3738 2338 
Q 3738 3031 3350 3393 
Q 2963 3756 2222 3756 
L 1791 3756 
z
M 588 4666 
L 1856 4666 
Q 2919 4666 3439 4514 
Q 3959 4363 4331 4000 
Q 4659 3684 4818 3271 
Q 4978 2859 4978 2338 
Q 4978 1809 4818 1395 
Q 4659 981 4331 666 
Q 3956 303 3431 151 
Q 2906 0 1856 0 
L 588 0 
L 588 4666 
z
" transform="scale(0.015625)"/>
     </defs>
     <use xlink:href="#DejaVuSans-Bold-3"/>
     <use xlink:href="#DejaVuSans-Bold-15" transform="translate(34.8125 0)"/>
     <use xlink:href="#DejaVuSans-Bold-19" transform="translate(104.390625 0)"/>
     <use xlink:href="#DejaVuSans-Bold-3" transform="translate(173.96875 0)"/>
     <use xlink:href="#DejaVuSans-Bold-5f" transform="translate(208.78125 0)"/>
     <use xlink:href="#DejaVuSans-Bold-3" transform="translate(245.3125 0)"/>
     <use xlink:href="#DejaVuSans-Bold-25" transform="translate(280.125 0)"/>
     <use xlink:href="#DejaVuSans-Bold-58" transform="translate(356.34375 0)"/>
     <use xlink:href="#DejaVuSans-Bold-4f" transform="translate(427.53125 0)"/>
     <use xlink:href="#DejaVuSans-Bold-4f" transform="translate(461.8125 0)"/>
     <use xlink:href="#DejaVuSans-Bold-3" transform="translate(496.09375 0)"/>
     <use xlink:href="#DejaVuSans-Bold-5f" transform="translate(530.90625 0)"/>
     <use xlink:href="#DejaVuSans-Bold-3" transform="translate(567.4375 0)"/>
     <use xlink:href="#DejaVuSans-Bold-2b" transform="translate(602.25 0)"/>
     <use xlink:href="#DejaVuSans-Bold-32" transform="translate(685.9375 0)"/>
     <use xlink:href="#DejaVuSans-Bold-2f" transform="translate(770.953125 0)"/>
     <use xlink:href="#DejaVuSans-Bold-27" transform="translate(834.671875 0)"/>
    </g>
   </g>
   <g id="text_14">
    <!--  33 | Bull | SELL -->
    <g transform="translate(265.750144 200.253991) scale(0.08 -0.08)">
     <defs>
      <path id="DejaVuSans-Bold-16" d="M 2981 2516 
Q 3453 2394 3698 2092 
Q 3944 1791 3944 1325 
Q 3944 631 3412 270 
Q 2881 -91 1863 -91 
Q 1503 -91 1142 -33 
Q 781 25 428 141 
L 428 1069 
Q 766 900 1098 814 
Q 1431 728 1753 728 
Q 2231 728 2486 893 
Q 2741 1059 2741 1369 
Q 2741 1688 2480 1852 
Q 2219 2016 1709 2016 
L 1228 2016 
L 1228 2791 
L 1734 2791 
Q 2188 2791 2409 2933 
Q 2631 3075 2631 3366 
Q 2631 3634 2415 3781 
Q 2200 3928 1806 3928 
Q 1516 3928 1219 3862 
Q 922 3797 628 3669 
L 628 4550 
Q 984 4650 1334 4700 
Q 1684 4750 2022 4750 
Q 2931 4750 3382 4451 
Q 3834 4153 3834 3553 
Q 3834 3144 3618 2883 
Q 3403 2622 2981 2516 
z
" transform="scale(0.015625)"/>
      <path id="DejaVuSans-Bold-36" d="M 3834 4519 
L 3834 3531 
Q 3450 3703 3084 3790 
Q 2719 3878 2394 3878 
Q 1963 3878 1756 3759 
Q 1550 3641 1550 3391 
Q 1550 3203 1689 3098 
Q 1828 2994 2194 2919 
L 2706 2816 
Q 3484 2659 3812 2340 
Q 4141 2022 4141 1434 
Q 4141 663 3683 286 
Q 3225 -91 2284 -91 
Q 1841 -91 1394 -6 
Q 947 78 500 244 
L 500 1259 
Q 947 1022 1364 901 
Q 1781 781 2169 781 
Q 2563 781 2772 912 
Q 2981 1044 2981 1288 
Q 2981 1506 2839 1625 
Q 2697 1744 2272 1838 
L 1806 1941 
Q 1106 2091 782 2419 
Q 459 2747 459 3303 
Q 459 4000 909 4375 
Q 1359 4750 2203 4750 
Q 2588 4750 2994 4692 
Q 3400 4634 3834 4519 
z
" transform="scale(0.015625)"/>
      <path id="DejaVuSans-Bold-28" d="M 588 4666 
L 3834 4666 
L 3834 3756 
L 1791 3756 
L 1791 2888 
L 3713 2888 
L 3713 1978 
L 1791 1978 
L 1791 909 
L 3903 909 
L 3903 0 
L 588 0 
L 588 4666 
z
" transform="scale(0.015625)"/>
     </defs>
     <use xlink:href="#DejaVuSans-Bold-3"/>
     <use xlink:href="#DejaVuSans-Bold-16" transform="translate(34.8125 0)"/>
     <use xlink:href="#DejaVuSans-Bold-16" transform="translate(104.390625 0)"/>
     <use xlink:href="#DejaVuSans-Bold-3" transform="translate(173.96875 0)"/>
     <use xlink:href="#DejaVuSans-Bold-5f" transform="translate(208.78125 0)"/>
     <use xlink:href="#DejaVuSans-Bold-3" transform="translate(245.3125 0)"/>
     <use xlink:href="#DejaVuSans-Bold-25" transform="translate(280.125 0)"/>
     <use xlink:href="#DejaVuSans-Bold-58" transform="translate(356.34375 0)"/>
     <use xlink:href="#DejaVuSans-Bold-4f" transform="translate(427.53125 0)"/>
     <use xlink:href="#DejaVuSans-Bold-4f" transform="translate(461.8125 0)"/>
     <use xlink:href="#DejaVuSans-Bold-3" transform="translate(496.09375 0)"/>
     <use xlink:href="#DejaVuSans-Bold-5f" transform="translate(530.90625 0)"/>
     <use xlink:href="#DejaVuSans-Bold-3" transform="translate(567.4375 0)"/>
     <use xlink:href="#DejaVuSans-Bold-36" transform="translate(602.25 0)"/>
     <use xlink:href="#DejaVuSans-Bold-28" transform="translate(674.265625 0)"/>
     <use xlink:href="#DejaVuSans-Bold-2f" transform="translate(742.578125 0)"/>
     <use xlink:href="#DejaVuSans-Bold-2f" transform="translate(806.296875 0)"/>
    </g>
   </g>
   <g id="text_15">
    <!--  36 | Boom | HOLD -->
    <g transform="translate(283.069683 152.517661) scale(0.08 -0.08)">
     <defs>
      <path id="DejaVuSans-Bold-52" d="M 2203 2784 
Q 1831 2784 1636 2517 
Q 1441 2250 1441 1747 
Q 1441 1244 1636 976 
Q 1831 709 2203 709 
Q 2569 709 2762 976 
Q 2956 1244 2956 1747 
Q 2956 2250 2762 2517 
Q 2569 2784 2203 2784 
z
M 2203 3584 
Q 3106 3584 3614 3096 
Q 4122 2609 4122 1747 
Q 4122 884 3614 396 
Q 3106 -91 2203 -91 
Q 1297 -91 786 396 
Q 275 884 275 1747 
Q 275 2609 786 3096 
Q 1297 3584 2203 3584 
z
" transform="scale(0.015625)"/>
      <path id="DejaVuSans-Bold-50" d="M 3781 2919 
Q 3994 3244 4286 3414 
Q 4578 3584 4928 3584 
Q 5531 3584 5847 3212 
Q 6163 2841 6163 2131 
L 6163 0 
L 5038 0 
L 5038 1825 
Q 5041 1866 5042 1909 
Q 5044 1953 5044 2034 
Q 5044 2406 4934 2573 
Q 4825 2741 4581 2741 
Q 4263 2741 4089 2478 
Q 3916 2216 3909 1719 
L 3909 0 
L 2784 0 
L 2784 1825 
Q 2784 2406 2684 2573 
Q 2584 2741 2328 2741 
Q 2006 2741 1831 2477 
Q 1656 2213 1656 1722 
L 1656 0 
L 531 0 
L 531 3500 
L 1656 3500 
L 1656 2988 
Q 1863 3284 2130 3434 
Q 2397 3584 2719 3584 
Q 3081 3584 3359 3409 
Q 3638 3234 3781 2919 
z
" transform="scale(0.015625)"/>
     </defs>
     <use xlink:href="#DejaVuSans-Bold-3"/>
     <use xlink:href="#DejaVuSans-Bold-16" transform="translate(34.8125 0)"/>
     <use xlink:href="#DejaVuSans-Bold-19" transform="translate(104.390625 0)"/>
     <use xlink:href="#DejaVuSans-Bold-3" transform="translate(173.96875 0)"/>
     <use xlink:href="#DejaVuSans-Bold-5f" transform="translate(208.78125 0)"/>
     <use xlink:href="#DejaVuSans-Bold-3" transform="translate(245.3125 0)"/>
     <use xlink:href="#DejaVuSans-Bold-25" transform="translate(280.125 0)"/>
     <use xlink:href="#DejaVuSans-Bold-52" transform="translate(356.34375 0)"/>
     <use xlink:href="#DejaVuSans-Bold-52" transform="translate(425.046875 0)"/>
     <use xlink:href="#DejaVuSans-Bold-50" transform="translate(493.75 0)"/>
     <use xlink:href="#DejaVuSans-Bold-3" transform="translate(597.953125 0)"/>
     <use xlink:href="#DejaVuSans-Bold-5f" transform="translate(632.765625 0)"/>
     <use xlink:href="#DejaVuSans-Bold-3" transform="translate(669.296875 0)"/>
     <use xlink:href="#DejaVuSans-Bold-2b" transform="translate(704.109375 0)"/>
     <use xlink:href="#DejaVuSans-Bold-32" transform="translate(787.796875 0)"/>
     <use xlink:href="#DejaVuSans-Bold-2f" transform="translate(872.8125 0)"/>
     <use xlink:href="#DejaVuSans-Bold-27" transform="translate(936.53125 0)"/>
    </g>
   </g>
   <g id="text_16">
    <!--  39 | Bottom | SELL -->
    <g transform="translate(300.389222 104.781331) scale(0.08 -0.08)">
     <defs>
      <path id="DejaVuSans-Bold-1c" d="M 641 103 
L 641 966 
Q 928 831 1190 764 
Q 1453 697 1709 697 
Q 2247 697 2547 995 
Q 2847 1294 2900 1881 
Q 2688 1725 2447 1647 
Q 2206 1569 1925 1569 
Q 1209 1569 770 1986 
Q 331 2403 331 3084 
Q 331 3838 820 4291 
Q 1309 4744 2131 4744 
Q 3044 4744 3544 4128 
Q 4044 3513 4044 2388 
Q 4044 1231 3459 570 
Q 2875 -91 1856 -91 
Q 1528 -91 1228 -42 
Q 928 6 641 103 
z
M 2125 2350 
Q 2441 2350 2600 2554 
Q 2759 2759 2759 3169 
Q 2759 3575 2600 3781 
Q 2441 3988 2125 3988 
Q 1809 3988 1650 3781 
Q 1491 3575 1491 3169 
Q 1491 2759 1650 2554 
Q 1809 2350 2125 2350 
z
" transform="scale(0.015625)"/>
      <path id="DejaVuSans-Bold-57" d="M 1759 4494 
L 1759 3500 
L 2913 3500 
L 2913 2700 
L 1759 2700 
L 1759 1216 
Q 1759 972 1856 886 
Q 1953 800 2241 800 
L 2816 800 
L 2816 0 
L 1856 0 
Q 1194 0 917 276 
Q 641 553 641 1216 
L 641 2700 
L 84 2700 
L 84 3500 
L 641 3500 
L 641 4494 
L 1759 4494 
z
" transform="scale(0.015625)"/>
     </defs>
     <use xlink:href="#DejaVuSans-Bold-3"/>
     <use xlink:href="#DejaVuSans-Bold-16" transform="translate(34.8125 0)"/>
     <use xlink:href="#DejaVuSans-Bold-1c" transform="translate(104.390625 0)"/>
     <use xlink:href="#DejaVuSans-Bold-3" transform="translate(173.96875 0)"/>
     <use xlink:href="#DejaVuSans-Bold-5f" transform="translate(208.78125 0)"/>
     <use xlink:href="#DejaVuSans-Bold-3" transform="translate(245.3125 0)"/>
     <use xlink:href="#DejaVuSans-Bold-25" transform="translate(280.125 0)"/>
     <use xlink:href="#DejaVuSans-Bold-52" transform="translate(356.34375 0)"/>
     <use xlink:href="#DejaVuSans-Bold-57" transform="translate(425.046875 0)"/>
     <use xlink:href="#DejaVuSans-Bold-57" transform="translate(472.84375 0)"/>
     <use xlink:href="#DejaVuSans-Bold-52" transform="translate(520.640625 0)"/>
     <use xlink:href="#DejaVuSans-Bold-50" transform="translate(589.34375 0)"/>
     <use xlink:href="#DejaVuSans-Bold-3" transform="translate(693.546875 0)"/>
     <use xlink:href="#DejaVuSans-Bold-5f" transform="translate(728.359375 0)"/>
     <use xlink:href="#DejaVuSans-Bold-3" transform="translate(764.890625 0)"/>
     <use xlink:href="#DejaVuSans-Bold-36" transform="translate(799.703125 0)"/>
     <use xlink:href="#DejaVuSans-Bold-28" transform="translate(871.71875 0)"/>
     <use xlink:href="#DejaVuSans-Bold-2f" transform="translate(940.03125 0)"/>
     <use xlink:href="#DejaVuSans-Bold-2f" transform="translate(1003.75 0)"/>
    </g>
   </g>
   <g id="text_17">
    <!--  52 | Capitulation | HOLD -->
    <g transform="translate(375.440559 57.045001) scale(0.08 -0.08)">
     <defs>
      <path id="DejaVuSans-Bold-18" d="M 678 4666 
L 3669 4666 
L 3669 3781 
L 1638 3781 
L 1638 3059 
Q 1775 3097 1914 3117 
Q 2053 3138 2203 3138 
Q 3056 3138 3531 2711 
Q 4006 2284 4006 1522 
Q 4006 766 3489 337 
Q 2972 -91 2053 -91 
Q 1656 -91 1267 -14 
Q 878 63 494 219 
L 494 1166 
Q 875 947 1217 837 
Q 1559 728 1863 728 
Q 2300 728 2551 942 
Q 2803 1156 2803 1522 
Q 2803 1891 2551 2103 
Q 2300 2316 1863 2316 
Q 1603 2316 1309 2248 
Q 1016 2181 678 2041 
L 678 4666 
z
" transform="scale(0.015625)"/>
      <path id="DejaVuSans-Bold-26" d="M 4288 256 
Q 3956 84 3597 -3 
Q 3238 -91 2847 -91 
Q 1681 -91 1000 561 
Q 319 1213 319 2328 
Q 319 3447 1000 4098 
Q 1681 4750 2847 4750 
Q 3238 4750 3597 4662 
Q 3956 4575 4288 4403 
L 4288 3438 
Q 3953 3666 3628 3772 
Q 3303 3878 2944 3878 
Q 2300 3878 1931 3465 
Q 1563 3053 1563 2328 
Q 1563 1606 1931 1193 
Q 2300 781 2944 781 
Q 3303 781 3628 887 
Q 3953 994 4288 1222 
L 4288 256 
z
" transform="scale(0.015625)"/>
      <path id="DejaVuSans-Bold-44" d="M 2106 1575 
Q 1756 1575 1579 1456 
Q 1403 1338 1403 1106 
Q 1403 894 1545 773 
Q 1688 653 1941 653 
Q 2256 653 2472 879 
Q 2688 1106 2688 1447 
L 2688 1575 
L 2106 1575 
z
M 3816 1997 
L 3816 0 
L 2688 0 
L 2688 519 
Q 2463 200 2181 54 
Q 1900 -91 1497 -91 
Q 953 -91 614 226 
Q 275 544 275 1050 
Q 275 1666 698 1953 
Q 1122 2241 2028 2241 
L 2688 2241 
L 2688 2328 
Q 2688 2594 2478 2717 
Q 2269 2841 1825 2841 
Q 1466 2841 1156 2769 
Q 847 2697 581 2553 
L 581 3406 
Q 941 3494 1303 3539 
Q 1666 3584 2028 3584 
Q 2975 3584 3395 3211 
Q 3816 2838 3816 1997 
z
" transform="scale(0.015625)"/>
      <path id="DejaVuSans-Bold-53" d="M 1656 506 
L 1656 -1331 
L 538 -1331 
L 538 3500 
L 1656 3500 
L 1656 2988 
Q 1888 3294 2169 3439 
Q 2450 3584 2816 3584 
Q 3463 3584 3878 3070 
Q 4294 2556 4294 1747 
Q 4294 938 3878 423 
Q 3463 -91 2816 -91 
Q 2450 -91 2169 54 
Q 1888 200 1656 506 
z
M 2400 2772 
Q 2041 2772 1848 2508 
Q 1656 2244 1656 1747 
Q 1656 1250 1848 986 
Q 2041 722 2400 722 
Q 2759 722 2948 984 
Q 3138 1247 3138 1747 
Q 3138 2247 2948 2509 
Q 2759 2772 2400 2772 
z
" transform="scale(0.015625)"/>
      <path id="DejaVuSans-Bold-4c" d="M 538 3500 
L 1656 3500 
L 1656 0 
L 538 0 
L 538 3500 
z
M 538 4863 
L 1656 4863 
L 1656 3950 
L 538 3950 
L 538 4863 
z
" transform="scale(0.015625)"/>
      <path id="DejaVuSans-Bold-51" d="M 4056 2131 
L 4056 0 
L 2931 0 
L 2931 347 
L 2931 1631 
Q 2931 2084 2911 2256 
Q 2891 2428 2841 2509 
Q 2775 2619 2662 2680 
Q 2550 2741 2406 2741 
Q 2056 2741 1856 2470 
Q 1656 2200 1656 1722 
L 1656 0 
L 538 0 
L 538 3500 
L 1656 3500 
L 1656 2988 
Q 1909 3294 2193 3439 
Q 2478 3584 2822 3584 
Q 3428 3584 3742 3212 
Q 4056 2841 4056 2131 
z
" transform="scale(0.015625)"/>
     </defs>
     <use xlink:href="#DejaVuSans-Bold-3"/>
     <use xlink:href="#DejaVuSans-Bold-18" transform="translate(34.8125 0)"/>
     <use xlink:href="#DejaVuSans-Bold-15" transform="translate(104.390625 0)"/>
     <use xlink:href="#DejaVuSans-Bold-3" transform="translate(173.96875 0)"/>
     <use xlink:href="#DejaVuSans-Bold-5f" transform="translate(208.78125 0)"/>
     <use xlink:href="#DejaVuSans-Bold-3" transform="translate(245.3125 0)"/>
     <use xlink:href="#DejaVuSans-Bold-26" transform="translate(280.125 0)"/>
     <use xlink:href="#DejaVuSans-Bold-44" transform="translate(353.515625 0)"/>
     <use xlink:href="#DejaVuSans-Bold-53" transform="translate(421 0)"/>
     <use xlink:href="#DejaVuSans-Bold-4c" transform="translate(492.578125 0)"/>
     <use xlink:href="#DejaVuSans-Bold-57" transform="translate(526.859375 0)"/>
     <use xlink:href="#DejaVuSans-Bold-58" transform="translate(574.65625 0)"/>
     <use xlink:href="#DejaVuSans-Bold-4f" transform="translate(645.84375 0)"/>
     <use xlink:href="#DejaVuSans-Bold-44" transform="translate(680.125 0)"/>
     <use xlink:href="#DejaVuSans-Bold-57" transform="translate(747.609375 0)"/>
     <use xlink:href="#DejaVuSans-Bold-4c" transform="translate(795.40625 0)"/>
     <use xlink:href="#DejaVuSans-Bold-52" transform="translate(829.6875 0)"/>
     <use xlink:href="#DejaVuSans-Bold-51" transform="translate(898.390625 0)"/>
     <use xlink:href="#DejaVuSans-Bold-3" transform="translate(969.578125 0)"/>
     <use xlink:href="#DejaVuSans-Bold-5f" transform="translate(1004.390625 0)"/>
     <use xlink:href="#DejaVuSans-Bold-3" transform="translate(1040.921875 0)"/>
     <use xlink:href="#DejaVuSans-Bold-2b" transform="translate(1075.734375 0)"/>
     <use xlink:href="#DejaVuSans-Bold-32" transform="translate(1159.421875 0)"/>
     <use xlink:href="#DejaVuSans-Bold-2f" transform="translate(1244.4375 0)"/>
     <use xlink:href="#DejaVuSans-Bold-27" transform="translate(1308.15625 0)"/>
    </g>
   </g>
   <g id="text_18">
    <!-- Classement des communes — Score d’attractivité -->
    <g style="fill: #262626" transform="translate(191.325981 18.397812) scale(0.14 -0.14)">
     <defs>
      <path id="DejaVuSans-Bold-56" d="M 3272 3391 
L 3272 2541 
Q 2913 2691 2578 2766 
Q 2244 2841 1947 2841 
Q 1628 2841 1473 2761 
Q 1319 2681 1319 2516 
Q 1319 2381 1436 2309 
Q 1553 2238 1856 2203 
L 2053 2175 
Q 2913 2066 3209 1816 
Q 3506 1566 3506 1031 
Q 3506 472 3093 190 
Q 2681 -91 1863 -91 
Q 1516 -91 1145 -36 
Q 775 19 384 128 
L 384 978 
Q 719 816 1070 734 
Q 1422 653 1784 653 
Q 2113 653 2278 743 
Q 2444 834 2444 1013 
Q 2444 1163 2330 1236 
Q 2216 1309 1875 1350 
L 1678 1375 
Q 931 1469 631 1722 
Q 331 1975 331 2491 
Q 331 3047 712 3315 
Q 1094 3584 1881 3584 
Q 2191 3584 2531 3537 
Q 2872 3491 3272 3391 
z
" transform="scale(0.015625)"/>
      <path id="DejaVuSans-Bold-48" d="M 4031 1759 
L 4031 1441 
L 1416 1441 
Q 1456 1047 1700 850 
Q 1944 653 2381 653 
Q 2734 653 3104 758 
Q 3475 863 3866 1075 
L 3866 213 
Q 3469 63 3072 -14 
Q 2675 -91 2278 -91 
Q 1328 -91 801 392 
Q 275 875 275 1747 
Q 275 2603 792 3093 
Q 1309 3584 2216 3584 
Q 3041 3584 3536 3087 
Q 4031 2591 4031 1759 
z
M 2881 2131 
Q 2881 2450 2695 2645 
Q 2509 2841 2209 2841 
Q 1884 2841 1681 2658 
Q 1478 2475 1428 2131 
L 2881 2131 
z
" transform="scale(0.015625)"/>
      <path id="DejaVuSans-Bold-47" d="M 2919 2988 
L 2919 4863 
L 4044 4863 
L 4044 0 
L 2919 0 
L 2919 506 
Q 2688 197 2409 53 
Q 2131 -91 1766 -91 
Q 1119 -91 703 423 
Q 288 938 288 1747 
Q 288 2556 703 3070 
Q 1119 3584 1766 3584 
Q 2128 3584 2408 3439 
Q 2688 3294 2919 2988 
z
M 2181 722 
Q 2541 722 2730 984 
Q 2919 1247 2919 1747 
Q 2919 2247 2730 2509 
Q 2541 2772 2181 2772 
Q 1825 2772 1636 2509 
Q 1447 2247 1447 1747 
Q 1447 1247 1636 984 
Q 1825 722 2181 722 
z
" transform="scale(0.015625)"/>
      <path id="DejaVuSans-Bold-46" d="M 3366 3391 
L 3366 2478 
Q 3138 2634 2908 2709 
Q 2678 2784 2431 2784 
Q 1963 2784 1702 2511 
Q 1441 2238 1441 1747 
Q 1441 1256 1702 982 
Q 1963 709 2431 709 
Q 2694 709 2930 787 
Q 3166 866 3366 1019 
L 3366 103 
Q 3103 6 2833 -42 
Q 2563 -91 2291 -91 
Q 1344 -91 809 395 
Q 275 881 275 1747 
Q 275 2613 809 3098 
Q 1344 3584 2291 3584 
Q 2566 3584 2833 3536 
Q 3100 3488 3366 3391 
z
" transform="scale(0.015625)"/>
      <path id="DejaVuSans-Bold-af6" d="M 344 2156 
L 6056 2156 
L 6056 1350 
L 344 1350 
L 344 2156 
z
" transform="scale(0.015625)"/>
      <path id="DejaVuSans-Bold-55" d="M 3138 2547 
Q 2991 2616 2845 2648 
Q 2700 2681 2553 2681 
Q 2122 2681 1889 2404 
Q 1656 2128 1656 1613 
L 1656 0 
L 538 0 
L 538 3500 
L 1656 3500 
L 1656 2925 
Q 1872 3269 2151 3426 
Q 2431 3584 2822 3584 
Q 2878 3584 2943 3579 
Q 3009 3575 3134 3559 
L 3138 2547 
z
" transform="scale(0.015625)"/>
      <path id="DejaVuSans-Bold-afb" d="M 716 4666 
L 1778 4666 
L 1778 3775 
L 1069 2675 
L 403 2675 
L 716 3775 
L 716 4666 
z
" transform="scale(0.015625)"/>
      <path id="DejaVuSans-Bold-59" d="M 97 3500 
L 1216 3500 
L 2088 1081 
L 2956 3500 
L 4078 3500 
L 2700 0 
L 1472 0 
L 97 3500 
z
" transform="scale(0.015625)"/>
      <path id="DejaVuSans-Bold-ab" d="M 4031 1759 
L 4031 1441 
L 1416 1441 
Q 1456 1047 1700 850 
Q 1944 653 2381 653 
Q 2734 653 3104 758 
Q 3475 863 3866 1075 
L 3866 213 
Q 3469 63 3072 -14 
Q 2675 -91 2278 -91 
Q 1328 -91 801 392 
Q 275 875 275 1747 
Q 275 2603 792 3093 
Q 1309 3584 2216 3584 
Q 3041 3584 3536 3087 
Q 4031 2591 4031 1759 
z
M 2881 2131 
Q 2881 2450 2695 2645 
Q 2509 2841 2209 2841 
Q 1884 2841 1681 2658 
Q 1478 2475 1428 2131 
L 2881 2131 
z
M 2700 5119 
L 3584 5119 
L 2431 3944 
L 1819 3944 
L 2700 5119 
z
" transform="scale(0.015625)"/>
     </defs>
     <use xlink:href="#DejaVuSans-Bold-26"/>
     <use xlink:href="#DejaVuSans-Bold-4f" transform="translate(73.390625 0)"/>
     <use xlink:href="#DejaVuSans-Bold-44" transform="translate(107.671875 0)"/>
     <use xlink:href="#DejaVuSans-Bold-56" transform="translate(175.15625 0)"/>
     <use xlink:href="#DejaVuSans-Bold-56" transform="translate(234.671875 0)"/>
     <use xlink:href="#DejaVuSans-Bold-48" transform="translate(294.1875 0)"/>
     <use xlink:href="#DejaVuSans-Bold-50" transform="translate(362.015625 0)"/>
     <use xlink:href="#DejaVuSans-Bold-48" transform="translate(466.21875 0)"/>
     <use xlink:href="#DejaVuSans-Bold-51" transform="translate(534.046875 0)"/>
     <use xlink:href="#DejaVuSans-Bold-57" transform="translate(605.234375 0)"/>
     <use xlink:href="#DejaVuSans-Bold-3" transform="translate(653.03125 0)"/>
     <use xlink:href="#DejaVuSans-Bold-47" transform="translate(687.84375 0)"/>
     <use xlink:href="#DejaVuSans-Bold-48" transform="translate(759.421875 0)"/>
     <use xlink:href="#DejaVuSans-Bold-56" transform="translate(827.25 0)"/>
     <use xlink:href="#DejaVuSans-Bold-3" transform="translate(886.765625 0)"/>
     <use xlink:href="#DejaVuSans-Bold-46" transform="translate(921.578125 0)"/>
     <use xlink:href="#DejaVuSans-Bold-52" transform="translate(980.859375 0)"/>
     <use xlink:href="#DejaVuSans-Bold-50" transform="translate(1049.5625 0)"/>
     <use xlink:href="#DejaVuSans-Bold-50" transform="translate(1153.765625 0)"/>
     <use xlink:href="#DejaVuSans-Bold-58" transform="translate(1257.96875 0)"/>
     <use xlink:href="#DejaVuSans-Bold-51" transform="translate(1329.15625 0)"/>
     <use xlink:href="#DejaVuSans-Bold-48" transform="translate(1400.34375 0)"/>
     <use xlink:href="#DejaVuSans-Bold-56" transform="translate(1468.171875 0)"/>
     <use xlink:href="#DejaVuSans-Bold-3" transform="translate(1527.6875 0)"/>
     <use xlink:href="#DejaVuSans-Bold-af6" transform="translate(1562.5 0)"/>
     <use xlink:href="#DejaVuSans-Bold-3" transform="translate(1662.5 0)"/>
     <use xlink:href="#DejaVuSans-Bold-36" transform="translate(1697.3125 0)"/>
     <use xlink:href="#DejaVuSans-Bold-46" transform="translate(1769.328125 0)"/>
     <use xlink:href="#DejaVuSans-Bold-52" transform="translate(1828.609375 0)"/>
     <use xlink:href="#DejaVuSans-Bold-55" transform="translate(1897.3125 0)"/>
     <use xlink:href="#DejaVuSans-Bold-48" transform="translate(1946.625 0)"/>
     <use xlink:href="#DejaVuSans-Bold-3" transform="translate(2014.453125 0)"/>
     <use xlink:href="#DejaVuSans-Bold-47" transform="translate(2049.265625 0)"/>
     <use xlink:href="#DejaVuSans-Bold-afb" transform="translate(2120.84375 0)"/>
     <use xlink:href="#DejaVuSans-Bold-44" transform="translate(2158.828125 0)"/>
     <use xlink:href="#DejaVuSans-Bold-57" transform="translate(2226.3125 0)"/>
     <use xlink:href="#DejaVuSans-Bold-57" transform="translate(2274.109375 0)"/>
     <use xlink:href="#DejaVuSans-Bold-55" transform="translate(2321.90625 0)"/>
     <use xlink:href="#DejaVuSans-Bold-44" transform="translate(2371.21875 0)"/>
     <use xlink:href="#DejaVuSans-Bold-46" transform="translate(2438.703125 0)"/>
     <use xlink:href="#DejaVuSans-Bold-57" transform="translate(2497.984375 0)"/>
     <use xlink:href="#DejaVuSans-Bold-4c" transform="translate(2545.78125 0)"/>
     <use xlink:href="#DejaVuSans-Bold-59" transform="translate(2580.0625 0)"/>
     <use xlink:href="#DejaVuSans-Bold-4c" transform="translate(2645.25 0)"/>
     <use xlink:href="#DejaVuSans-Bold-57" transform="translate(2679.53125 0)"/>
     <use xlink:href="#DejaVuSans-Bold-ab" transform="translate(2727.328125 0)"/>
    </g>
   </g>
  </g>
 </g>
 <defs>
  <clipPath id="p07d68042f1">
   <rect x="69.462031" y="24.397812" width="635.049775" height="252.047822"/>
  </clipPath>
 </defs>
</svg>
