<?xml version="1.0" encoding="utf-8" standalone="no"?>
<!DOCTYPE svg PUBLIC "-//W3C//DTD SVG 1.1//EN"
  "http://www.w3.org/Graphics/SVG/1.1/DTD/svg11.dtd">
<svg xmlns:xlink="http://www.w3.org/1999/xlink" width="855.425087pt" height="422.90402pt" viewBox="0 0 855.425087 422.90402" xmlns="http://www.w3.org/2000/svg" version="1.1">
 <metadata>
  <rdf:RDF xmlns:dc="http://purl.org/dc/elements/1.1/" xmlns:cc="http://creativecommons.org/ns#" xmlns:rdf="http://www.w3.org/1999/02/22-rdf-syntax-ns#">
   <cc:Work>
    <dc:type rdf:resource="http://purl.org/dc/dcmitype/StillImage"/>
    <dc:date>2026-04-04T16:34:23.830420</dc:date>
    <dc:format>image/svg+xml</dc:format>
    <dc:creator>
     <cc:Agent>
      <dc:title>Matplotlib v3.10.8, https://matplotlib.org/</dc:title>
     </cc:Agent>
    </dc:creator>
   </cc:Work>
  </rdf:RDF>
 </metadata>
 <defs>
  <style type="text/css">*{stroke-linejoin: round; stroke-linecap: butt}</style>
 </defs>
 <g id="figure_1">
  <g id="patch_1">
   <path d="M 0 422.90402 
L 855.425087 422.90402 
L 855.425087 0 
L 0 0 
z
" style="fill: #ffffff"/>
  </g>
  <g id="axes_1">
   <g id="patch_2">
    <path d="M 63.434688 355.222644 
L 848.225087 355.222644 
L 848.225087 24.397812 
L 63.434688 24.397812 
z
" style="fill: #f5f5f5"/>
   </g>
   <g id="matplotlib.axis_1">
    <g id="xtick_1">
     <g id="line2d_1">
      <path d="M 74.875244 355.222644 
L 74.875244 24.397812 
" clip-path="url(#pb1dba7078a)" style="fill: none; stroke-dasharray: 2.96,1.28; stroke-dashoffset: 0; stroke: #cccccc; stroke-width: 0.8"/>
     </g>
     <g id="text_1">
      <!-- May 2020 -->
      <g style="fill: #262626" transform="translate(42.175422 399.734577) rotate(-45) scale(0.09 -0.09)">
       <defs>
        <path id="DejaVuSans-4d" d="M 628 4666 
L 1569 4666 
L 2759 1491 
L 3956 4666 
L 4897 4666 
L 4897 0 
L 4281 0 
L 4281 4097 
L 3078 897 
L 2444 897 
L 1241 4097 
L 1241 0 
L 628 0 
L 628 4666 
z
" transform="scale(0.015625)"/>
        <path id="DejaVuSans-61" d="M 2194 1759 
Q 1497 1759 1228 1600 
Q 959 1441 959 1056 
Q 959 750 1161 570 
Q 1363 391 1709 391 
Q 2188 391 2477 730 
Q 2766 1069 2766 1631 
L 2766 1759 
L 2194 1759 
z
M 3341 1997 
L 3341 0 
L 2766 0 
L 2766 531 
Q 2569 213 2275 61 
Q 1981 -91 1556 -91 
Q 1019 -91 701 211 
Q 384 513 384 1019 
Q 384 1609 779 1909 
Q 1175 2209 1959 2209 
L 2766 2209 
L 2766 2266 
Q 2766 2663 2505 2880 
Q 2244 3097 1772 3097 
Q 1472 3097 1187 3025 
Q 903 2953 641 2809 
L 641 3341 
Q 956 3463 1253 3523 
Q 1550 3584 1831 3584 
Q 2591 3584 2966 3190 
Q 3341 2797 3341 1997 
z
" transform="scale(0.015625)"/>
        <path id="DejaVuSans-79" d="M 2059 -325 
Q 1816 -950 1584 -1140 
Q 1353 -1331 966 -1331 
L 506 -1331 
L 506 -850 
L 844 -850 
Q 1081 -850 1212 -737 
Q 1344 -625 1503 -206 
L 1606 56 
L 191 3500 
L 800 3500 
L 1894 763 
L 2988 3500 
L 3597 3500 
L 2059 -325 
z
" transform="scale(0.015625)"/>
        <path id="DejaVuSans-20" transform="scale(0.015625)"/>
        <path id="DejaVuSans-32" d="M 1228 531 
L 3431 531 
L 3431 0 
L 469 0 
L 469 531 
Q 828 903 1448 1529 
Q 2069 2156 2228 2338 
Q 2531 2678 2651 2914 
Q 2772 3150 2772 3378 
Q 2772 3750 2511 3984 
Q 2250 4219 1831 4219 
Q 1534 4219 1204 4116 
Q 875 4013 500 3803 
L 500 4441 
Q 881 4594 1212 4672 
Q 1544 4750 1819 4750 
Q 2544 4750 2975 4387 
Q 3406 4025 3406 3419 
Q 3406 3131 3298 2873 
Q 3191 2616 2906 2266 
Q 2828 2175 2409 1742 
Q 1991 1309 1228 531 
z
" transform="scale(0.015625)"/>
        <path id="DejaVuSans-30" d="M 2034 4250 
Q 1547 4250 1301 3770 
Q 1056 3291 1056 2328 
Q 1056 1369 1301 889 
Q 1547 409 2034 409 
Q 2525 409 2770 889 
Q 3016 1369 3016 2328 
Q 3016 3291 2770 3770 
Q 2525 4250 2034 4250 
z
M 2034 4750 
Q 2819 4750 3233 4129 
Q 3647 3509 3647 2328 
Q 3647 1150 3233 529 
Q 2819 -91 2034 -91 
Q 1250 -91 836 529 
Q 422 1150 422 2328 
Q 422 3509 836 4129 
Q 1250 4750 2034 4750 
z
" transform="scale(0.015625)"/>
       </defs>
       <use xlink:href="#DejaVuSans-4d"/>
       <use xlink:href="#DejaVuSans-61" transform="translate(86.279297 0)"/>
       <use xlink:href="#DejaVuSans-79" transform="translate(147.558594 0)"/>
       <use xlink:href="#DejaVuSans-20" transform="translate(206.738281 0)"/>
       <use xlink:href="#DejaVuSans-32" transform="translate(238.525391 0)"/>
       <use xlink:href="#DejaVuSans-30" transform="translate(302.148438 0)"/>
       <use xlink:href="#DejaVuSans-32" transform="translate(365.771484 0)"/>
       <use xlink:href="#DejaVuSans-30" transform="translate(429.394531 0)"/>
      </g>
     </g>
    </g>
    <g id="xtick_2">
     <g id="line2d_2">
      <path d="M 111.421466 355.222644 
L 111.421466 24.397812 
" clip-path="url(#pb1dba7078a)" style="fill: none; stroke-dasharray: 2.96,1.28; stroke-dashoffset: 0; stroke: #cccccc; stroke-width: 0.8"/>
     </g>
     <g id="text_2">
      <!-- Aug 2020 -->
      <g style="fill: #262626" transform="translate(79.452506 399.003716) rotate(-45) scale(0.09 -0.09)">
       <defs>
        <path id="DejaVuSans-41" d="M 2188 4044 
L 1331 1722 
L 3047 1722 
L 2188 4044 
z
M 1831 4666 
L 2547 4666 
L 4325 0 
L 3669 0 
L 3244 1197 
L 1141 1197 
L 716 0 
L 50 0 
L 1831 4666 
z
" transform="scale(0.015625)"/>
        <path id="DejaVuSans-75" d="M 544 1381 
L 544 3500 
L 1119 3500 
L 1119 1403 
Q 1119 906 1312 657 
Q 1506 409 1894 409 
Q 2359 409 2629 706 
Q 2900 1003 2900 1516 
L 2900 3500 
L 3475 3500 
L 3475 0 
L 2900 0 
L 2900 538 
Q 2691 219 2414 64 
Q 2138 -91 1772 -91 
Q 1169 -91 856 284 
Q 544 659 544 1381 
z
M 1991 3584 
L 1991 3584 
z
" transform="scale(0.015625)"/>
        <path id="DejaVuSans-67" d="M 2906 1791 
Q 2906 2416 2648 2759 
Q 2391 3103 1925 3103 
Q 1463 3103 1205 2759 
Q 947 2416 947 1791 
Q 947 1169 1205 825 
Q 1463 481 1925 481 
Q 2391 481 2648 825 
Q 2906 1169 2906 1791 
z
M 3481 434 
Q 3481 -459 3084 -895 
Q 2688 -1331 1869 -1331 
Q 1566 -1331 1297 -1286 
Q 1028 -1241 775 -1147 
L 775 -588 
Q 1028 -725 1275 -790 
Q 1522 -856 1778 -856 
Q 2344 -856 2625 -561 
Q 2906 -266 2906 331 
L 2906 616 
Q 2728 306 2450 153 
Q 2172 0 1784 0 
Q 1141 0 747 490 
Q 353 981 353 1791 
Q 353 2603 747 3093 
Q 1141 3584 1784 3584 
Q 2172 3584 2450 3431 
Q 2728 3278 2906 2969 
L 2906 3500 
L 3481 3500 
L 3481 434 
z
" transform="scale(0.015625)"/>
       </defs>
       <use xlink:href="#DejaVuSans-41"/>
       <use xlink:href="#DejaVuSans-75" transform="translate(68.408203 0)"/>
       <use xlink:href="#DejaVuSans-67" transform="translate(131.787109 0)"/>
       <use xlink:href="#DejaVuSans-20" transform="translate(195.263672 0)"/>
       <use xlink:href="#DejaVuSans-32" transform="translate(227.050781 0)"/>
       <use xlink:href="#DejaVuSans-30" transform="translate(290.673828 0)"/>
       <use xlink:href="#DejaVuSans-32" transform="translate(354.296875 0)"/>
       <use xlink:href="#DejaVuSans-30" transform="translate(417.919922 0)"/>
      </g>
     </g>
    </g>
    <g id="xtick_3">
     <g id="line2d_3">
      <path d="M 147.967689 355.222644 
L 147.967689 24.397812 
" clip-path="url(#pb1dba7078a)" style="fill: none; stroke-dasharray: 2.96,1.28; stroke-dashoffset: 0; stroke: #cccccc; stroke-width: 0.8"/>
     </g>
     <g id="text_3">
      <!-- Nov 2020 -->
      <g style="fill: #262626" transform="translate(116.0037 398.998744) rotate(-45) scale(0.09 -0.09)">
       <defs>
        <path id="DejaVuSans-4e" d="M 628 4666 
L 1478 4666 
L 3547 763 
L 3547 4666 
L 4159 4666 
L 4159 0 
L 3309 0 
L 1241 3903 
L 1241 0 
L 628 0 
L 628 4666 
z
" transform="scale(0.015625)"/>
        <path id="DejaVuSans-6f" d="M 1959 3097 
Q 1497 3097 1228 2736 
Q 959 2375 959 1747 
Q 959 1119 1226 758 
Q 1494 397 1959 397 
Q 2419 397 2687 759 
Q 2956 1122 2956 1747 
Q 2956 2369 2687 2733 
Q 2419 3097 1959 3097 
z
M 1959 3584 
Q 2709 3584 3137 3096 
Q 3566 2609 3566 1747 
Q 3566 888 3137 398 
Q 2709 -91 1959 -91 
Q 1206 -91 779 398 
Q 353 888 353 1747 
Q 353 2609 779 3096 
Q 1206 3584 1959 3584 
z
" transform="scale(0.015625)"/>
        <path id="DejaVuSans-76" d="M 191 3500 
L 800 3500 
L 1894 563 
L 2988 3500 
L 3597 3500 
L 2284 0 
L 1503 0 
L 191 3500 
z
" transform="scale(0.015625)"/>
       </defs>
       <use xlink:href="#DejaVuSans-4e"/>
       <use xlink:href="#DejaVuSans-6f" transform="translate(74.804688 0)"/>
       <use xlink:href="#DejaVuSans-76" transform="translate(135.986328 0)"/>
       <use xlink:href="#DejaVuSans-20" transform="translate(195.166016 0)"/>
       <use xlink:href="#DejaVuSans-32" transform="translate(226.953125 0)"/>
       <use xlink:href="#DejaVuSans-30" transform="translate(290.576172 0)"/>
       <use xlink:href="#DejaVuSans-32" transform="translate(354.199219 0)"/>
       <use xlink:href="#DejaVuSans-30" transform="translate(417.822266 0)"/>
      </g>
     </g>
    </g>
    <g id="xtick_4">
     <g id="line2d_4">
      <path d="M 184.513911 355.222644 
L 184.513911 24.397812 
" clip-path="url(#pb1dba7078a)" style="fill: none; stroke-dasharray: 2.96,1.28; stroke-dashoffset: 0; stroke: #cccccc; stroke-width: 0.8"/>
     </g>
     <g id="text_4">
      <!-- Feb 2021 -->
      <g style="fill: #262626" transform="translate(153.705379 397.843287) rotate(-45) scale(0.09 -0.09)">
       <defs>
        <path id="DejaVuSans-46" d="M 628 4666 
L 3309 4666 
L 3309 4134 
L 1259 4134 
L 1259 2759 
L 3109 2759 
L 3109 2228 
L 1259 2228 
L 1259 0 
L 628 0 
L 628 4666 
z
" transform="scale(0.015625)"/>
        <path id="DejaVuSans-65" d="M 3597 1894 
L 3597 1613 
L 953 1613 
Q 991 1019 1311 708 
Q 1631 397 2203 397 
Q 2534 397 2845 478 
Q 3156 559 3463 722 
L 3463 178 
Q 3153 47 2828 -22 
Q 2503 -91 2169 -91 
Q 1331 -91 842 396 
Q 353 884 353 1716 
Q 353 2575 817 3079 
Q 1281 3584 2069 3584 
Q 2775 3584 3186 3129 
Q 3597 2675 3597 1894 
z
M 3022 2063 
Q 3016 2534 2758 2815 
Q 2500 3097 2075 3097 
Q 1594 3097 1305 2825 
Q 1016 2553 972 2059 
L 3022 2063 
z
" transform="scale(0.015625)"/>
        <path id="DejaVuSans-62" d="M 3116 1747 
Q 3116 2381 2855 2742 
Q 2594 3103 2138 3103 
Q 1681 3103 1420 2742 
Q 1159 2381 1159 1747 
Q 1159 1113 1420 752 
Q 1681 391 2138 391 
Q 2594 391 2855 752 
Q 3116 1113 3116 1747 
z
M 1159 2969 
Q 1341 3281 1617 3432 
Q 1894 3584 2278 3584 
Q 2916 3584 3314 3078 
Q 3713 2572 3713 1747 
Q 3713 922 3314 415 
Q 2916 -91 2278 -91 
Q 1894 -91 1617 61 
Q 1341 213 1159 525 
L 1159 0 
L 581 0 
L 581 4863 
L 1159 4863 
L 1159 2969 
z
" transform="scale(0.015625)"/>
        <path id="DejaVuSans-31" d="M 794 531 
L 1825 531 
L 1825 4091 
L 703 3866 
L 703 4441 
L 1819 4666 
L 2450 4666 
L 2450 531 
L 3481 531 
L 3481 0 
L 794 0 
L 794 531 
z
" transform="scale(0.015625)"/>
       </defs>
       <use xlink:href="#DejaVuSans-46"/>
       <use xlink:href="#DejaVuSans-65" transform="translate(52.019531 0)"/>
       <use xlink:href="#DejaVuSans-62" transform="translate(113.542969 0)"/>
       <use xlink:href="#DejaVuSans-20" transform="translate(177.019531 0)"/>
       <use xlink:href="#DejaVuSans-32" transform="translate(208.806641 0)"/>
       <use xlink:href="#DejaVuSans-30" transform="translate(272.429688 0)"/>
       <use xlink:href="#DejaVuSans-32" transform="translate(336.052734 0)"/>
       <use xlink:href="#DejaVuSans-31" transform="translate(399.675781 0)"/>
      </g>
     </g>
    </g>
    <g id="xtick_5">
     <g id="line2d_5">
      <path d="M 219.868409 355.222644 
L 219.868409 24.397812 
" clip-path="url(#pb1dba7078a)" style="fill: none; stroke-dasharray: 2.96,1.28; stroke-dashoffset: 0; stroke: #cccccc; stroke-width: 0.8"/>
     </g>
     <g id="text_5">
      <!-- May 2021 -->
      <g style="fill: #262626" transform="translate(187.168587 399.734577) rotate(-45) scale(0.09 -0.09)">
       <use xlink:href="#DejaVuSans-4d"/>
       <use xlink:href="#DejaVuSans-61" transform="translate(86.279297 0)"/>
       <use xlink:href="#DejaVuSans-79" transform="translate(147.558594 0)"/>
       <use xlink:href="#DejaVuSans-20" transform="translate(206.738281 0)"/>
       <use xlink:href="#DejaVuSans-32" transform="translate(238.525391 0)"/>
       <use xlink:href="#DejaVuSans-30" transform="translate(302.148438 0)"/>
       <use xlink:href="#DejaVuSans-32" transform="translate(365.771484 0)"/>
       <use xlink:href="#DejaVuSans-31" transform="translate(429.394531 0)"/>
      </g>
     </g>
    </g>
    <g id="xtick_6">
     <g id="line2d_6">
      <path d="M 256.414631 355.222644 
L 256.414631 24.397812 
" clip-path="url(#pb1dba7078a)" style="fill: none; stroke-dasharray: 2.96,1.28; stroke-dashoffset: 0; stroke: #cccccc; stroke-width: 0.8"/>
     </g>
     <g id="text_6">
      <!-- Aug 2021 -->
      <g style="fill: #262626" transform="translate(224.44567 399.003716) rotate(-45) scale(0.09 -0.09)">
       <use xlink:href="#DejaVuSans-41"/>
       <use xlink:href="#DejaVuSans-75" transform="translate(68.408203 0)"/>
       <use xlink:href="#DejaVuSans-67" transform="translate(131.787109 0)"/>
       <use xlink:href="#DejaVuSans-20" transform="translate(195.263672 0)"/>
       <use xlink:href="#DejaVuSans-32" transform="translate(227.050781 0)"/>
       <use xlink:href="#DejaVuSans-30" transform="translate(290.673828 0)"/>
       <use xlink:href="#DejaVuSans-32" transform="translate(354.296875 0)"/>
       <use xlink:href="#DejaVuSans-31" transform="translate(417.919922 0)"/>
      </g>
     </g>
    </g>
    <g id="xtick_7">
     <g id="line2d_7">
      <path d="M 292.960853 355.222644 
L 292.960853 24.397812 
" clip-path="url(#pb1dba7078a)" style="fill: none; stroke-dasharray: 2.96,1.28; stroke-dashoffset: 0; stroke: #cccccc; stroke-width: 0.8"/>
     </g>
     <g id="text_7">
      <!-- Nov 2021 -->
      <g style="fill: #262626" transform="translate(260.996865 398.998744) rotate(-45) scale(0.09 -0.09)">
       <use xlink:href="#DejaVuSans-4e"/>
       <use xlink:href="#DejaVuSans-6f" transform="translate(74.804688 0)"/>
       <use xlink:href="#DejaVuSans-76" transform="translate(135.986328 0)"/>
       <use xlink:href="#DejaVuSans-20" transform="translate(195.166016 0)"/>
       <use xlink:href="#DejaVuSans-32" transform="translate(226.953125 0)"/>
       <use xlink:href="#DejaVuSans-30" transform="translate(290.576172 0)"/>
       <use xlink:href="#DejaVuSans-32" transform="translate(354.199219 0)"/>
       <use xlink:href="#DejaVuSans-31" transform="translate(417.822266 0)"/>
      </g>
     </g>
    </g>
    <g id="xtick_8">
     <g id="line2d_8">
      <path d="M 329.507076 355.222644 
L 329.507076 24.397812 
" clip-path="url(#pb1dba7078a)" style="fill: none; stroke-dasharray: 2.96,1.28; stroke-dashoffset: 0; stroke: #cccccc; stroke-width: 0.8"/>
     </g>
     <g id="text_8">
      <!-- Feb 2022 -->
      <g style="fill: #262626" transform="translate(298.698544 397.843287) rotate(-45) scale(0.09 -0.09)">
       <use xlink:href="#DejaVuSans-46"/>
       <use xlink:href="#DejaVuSans-65" transform="translate(52.019531 0)"/>
       <use xlink:href="#DejaVuSans-62" transform="translate(113.542969 0)"/>
       <use xlink:href="#DejaVuSans-20" transform="translate(177.019531 0)"/>
       <use xlink:href="#DejaVuSans-32" transform="translate(208.806641 0)"/>
       <use xlink:href="#DejaVuSans-30" transform="translate(272.429688 0)"/>
       <use xlink:href="#DejaVuSans-32" transform="translate(336.052734 0)"/>
       <use xlink:href="#DejaVuSans-32" transform="translate(399.675781 0)"/>
      </g>
     </g>
    </g>
    <g id="xtick_9">
     <g id="line2d_9">
      <path d="M 364.861573 355.222644 
L 364.861573 24.397812 
" clip-path="url(#pb1dba7078a)" style="fill: none; stroke-dasharray: 2.96,1.28; stroke-dashoffset: 0; stroke: #cccccc; stroke-width: 0.8"/>
     </g>
     <g id="text_9">
      <!-- May 2022 -->
      <g style="fill: #262626" transform="translate(332.161752 399.734577) rotate(-45) scale(0.09 -0.09)">
       <use xlink:href="#DejaVuSans-4d"/>
       <use xlink:href="#DejaVuSans-61" transform="translate(86.279297 0)"/>
       <use xlink:href="#DejaVuSans-79" transform="translate(147.558594 0)"/>
       <use xlink:href="#DejaVuSans-20" transform="translate(206.738281 0)"/>
       <use xlink:href="#DejaVuSans-32" transform="translate(238.525391 0)"/>
       <use xlink:href="#DejaVuSans-30" transform="translate(302.148438 0)"/>
       <use xlink:href="#DejaVuSans-32" transform="translate(365.771484 0)"/>
       <use xlink:href="#DejaVuSans-32" transform="translate(429.394531 0)"/>
      </g>
     </g>
    </g>
    <g id="xtick_10">
     <g id="line2d_10">
      <path d="M 401.407796 355.222644 
L 401.407796 24.397812 
" clip-path="url(#pb1dba7078a)" style="fill: none; stroke-dasharray: 2.96,1.28; stroke-dashoffset: 0; stroke: #cccccc; stroke-width: 0.8"/>
     </g>
     <g id="text_10">
      <!-- Aug 2022 -->
      <g style="fill: #262626" transform="translate(369.438835 399.003716) rotate(-45) scale(0.09 -0.09)">
       <use xlink:href="#DejaVuSans-41"/>
       <use xlink:href="#DejaVuSans-75" transform="translate(68.408203 0)"/>
       <use xlink:href="#DejaVuSans-67" transform="translate(131.787109 0)"/>
       <use xlink:href="#DejaVuSans-20" transform="translate(195.263672 0)"/>
       <use xlink:href="#DejaVuSans-32" transform="translate(227.050781 0)"/>
       <use xlink:href="#DejaVuSans-30" transform="translate(290.673828 0)"/>
       <use xlink:href="#DejaVuSans-32" transform="translate(354.296875 0)"/>
       <use xlink:href="#DejaVuSans-32" transform="translate(417.919922 0)"/>
      </g>
     </g>
    </g>
    <g id="xtick_11">
     <g id="line2d_11">
      <path d="M 437.954018 355.222644 
L 437.954018 24.397812 
" clip-path="url(#pb1dba7078a)" style="fill: none; stroke-dasharray: 2.96,1.28; stroke-dashoffset: 0; stroke: #cccccc; stroke-width: 0.8"/>
     </g>
     <g id="text_11">
      <!-- Nov 2022 -->
      <g style="fill: #262626" transform="translate(405.990029 398.998744) rotate(-45) scale(0.09 -0.09)">
       <use xlink:href="#DejaVuSans-4e"/>
       <use xlink:href="#DejaVuSans-6f" transform="translate(74.804688 0)"/>
       <use xlink:href="#DejaVuSans-76" transform="translate(135.986328 0)"/>
       <use xlink:href="#DejaVuSans-20" transform="translate(195.166016 0)"/>
       <use xlink:href="#DejaVuSans-32" transform="translate(226.953125 0)"/>
       <use xlink:href="#DejaVuSans-30" transform="translate(290.576172 0)"/>
       <use xlink:href="#DejaVuSans-32" transform="translate(354.199219 0)"/>
       <use xlink:href="#DejaVuSans-32" transform="translate(417.822266 0)"/>
      </g>
     </g>
    </g>
    <g id="xtick_12">
     <g id="line2d_12">
      <path d="M 474.50024 355.222644 
L 474.50024 24.397812 
" clip-path="url(#pb1dba7078a)" style="fill: none; stroke-dasharray: 2.96,1.28; stroke-dashoffset: 0; stroke: #cccccc; stroke-width: 0.8"/>
     </g>
     <g id="text_12">
      <!-- Feb 2023 -->
      <g style="fill: #262626" transform="translate(443.691708 397.843287) rotate(-45) scale(0.09 -0.09)">
       <defs>
        <path id="DejaVuSans-33" d="M 2597 2516 
Q 3050 2419 3304 2112 
Q 3559 1806 3559 1356 
Q 3559 666 3084 287 
Q 2609 -91 1734 -91 
Q 1441 -91 1130 -33 
Q 819 25 488 141 
L 488 750 
Q 750 597 1062 519 
Q 1375 441 1716 441 
Q 2309 441 2620 675 
Q 2931 909 2931 1356 
Q 2931 1769 2642 2001 
Q 2353 2234 1838 2234 
L 1294 2234 
L 1294 2753 
L 1863 2753 
Q 2328 2753 2575 2939 
Q 2822 3125 2822 3475 
Q 2822 3834 2567 4026 
Q 2313 4219 1838 4219 
Q 1578 4219 1281 4162 
Q 984 4106 628 3988 
L 628 4550 
Q 988 4650 1302 4700 
Q 1616 4750 1894 4750 
Q 2613 4750 3031 4423 
Q 3450 4097 3450 3541 
Q 3450 3153 3228 2886 
Q 3006 2619 2597 2516 
z
" transform="scale(0.015625)"/>
       </defs>
       <use xlink:href="#DejaVuSans-46"/>
       <use xlink:href="#DejaVuSans-65" transform="translate(52.019531 0)"/>
       <use xlink:href="#DejaVuSans-62" transform="translate(113.542969 0)"/>
       <use xlink:href="#DejaVuSans-20" transform="translate(177.019531 0)"/>
       <use xlink:href="#DejaVuSans-32" transform="translate(208.806641 0)"/>
       <use xlink:href="#DejaVuSans-30" transform="translate(272.429688 0)"/>
       <use xlink:href="#DejaVuSans-32" transform="translate(336.052734 0)"/>
       <use xlink:href="#DejaVuSans-33" transform="translate(399.675781 0)"/>
      </g>
     </g>
    </g>
    <g id="xtick_13">
     <g id="line2d_13">
      <path d="M 509.854738 355.222644 
L 509.854738 24.397812 
" clip-path="url(#pb1dba7078a)" style="fill: none; stroke-dasharray: 2.96,1.28; stroke-dashoffset: 0; stroke: #cccccc; stroke-width: 0.8"/>
     </g>
     <g id="text_13">
      <!-- May 2023 -->
      <g style="fill: #262626" transform="translate(477.154916 399.734577) rotate(-45) scale(0.09 -0.09)">
       <use xlink:href="#DejaVuSans-4d"/>
       <use xlink:href="#DejaVuSans-61" transform="translate(86.279297 0)"/>
       <use xlink:href="#DejaVuSans-79" transform="translate(147.558594 0)"/>
       <use xlink:href="#DejaVuSans-20" transform="translate(206.738281 0)"/>
       <use xlink:href="#DejaVuSans-32" transform="translate(238.525391 0)"/>
       <use xlink:href="#DejaVuSans-30" transform="translate(302.148438 0)"/>
       <use xlink:href="#DejaVuSans-32" transform="translate(365.771484 0)"/>
       <use xlink:href="#DejaVuSans-33" transform="translate(429.394531 0)"/>
      </g>
     </g>
    </g>
    <g id="xtick_14">
     <g id="line2d_14">
      <path d="M 546.40096 355.222644 
L 546.40096 24.397812 
" clip-path="url(#pb1dba7078a)" style="fill: none; stroke-dasharray: 2.96,1.28; stroke-dashoffset: 0; stroke: #cccccc; stroke-width: 0.8"/>
     </g>
     <g id="text_14">
      <!-- Aug 2023 -->
      <g style="fill: #262626" transform="translate(514.432 399.003716) rotate(-45) scale(0.09 -0.09)">
       <use xlink:href="#DejaVuSans-41"/>
       <use xlink:href="#DejaVuSans-75" transform="translate(68.408203 0)"/>
       <use xlink:href="#DejaVuSans-67" transform="translate(131.787109 0)"/>
       <use xlink:href="#DejaVuSans-20" transform="translate(195.263672 0)"/>
       <use xlink:href="#DejaVuSans-32" transform="translate(227.050781 0)"/>
       <use xlink:href="#DejaVuSans-30" transform="translate(290.673828 0)"/>
       <use xlink:href="#DejaVuSans-32" transform="translate(354.296875 0)"/>
       <use xlink:href="#DejaVuSans-33" transform="translate(417.919922 0)"/>
      </g>
     </g>
    </g>
    <g id="xtick_15">
     <g id="line2d_15">
      <path d="M 582.947182 355.222644 
L 582.947182 24.397812 
" clip-path="url(#pb1dba7078a)" style="fill: none; stroke-dasharray: 2.96,1.28; stroke-dashoffset: 0; stroke: #cccccc; stroke-width: 0.8"/>
     </g>
     <g id="text_15">
      <!-- Nov 2023 -->
      <g style="fill: #262626" transform="translate(550.983194 398.998744) rotate(-45) scale(0.09 -0.09)">
       <use xlink:href="#DejaVuSans-4e"/>
       <use xlink:href="#DejaVuSans-6f" transform="translate(74.804688 0)"/>
       <use xlink:href="#DejaVuSans-76" transform="translate(135.986328 0)"/>
       <use xlink:href="#DejaVuSans-20" transform="translate(195.166016 0)"/>
       <use xlink:href="#DejaVuSans-32" transform="translate(226.953125 0)"/>
       <use xlink:href="#DejaVuSans-30" transform="translate(290.576172 0)"/>
       <use xlink:href="#DejaVuSans-32" transform="translate(354.199219 0)"/>
       <use xlink:href="#DejaVuSans-33" transform="translate(417.822266 0)"/>
      </g>
     </g>
    </g>
    <g id="xtick_16">
     <g id="line2d_16">
      <path d="M 619.493405 355.222644 
L 619.493405 24.397812 
" clip-path="url(#pb1dba7078a)" style="fill: none; stroke-dasharray: 2.96,1.28; stroke-dashoffset: 0; stroke: #cccccc; stroke-width: 0.8"/>
     </g>
     <g id="text_16">
      <!-- Feb 2024 -->
      <g style="fill: #262626" transform="translate(588.684873 397.843287) rotate(-45) scale(0.09 -0.09)">
       <defs>
        <path id="DejaVuSans-34" d="M 2419 4116 
L 825 1625 
L 2419 1625 
L 2419 4116 
z
M 2253 4666 
L 3047 4666 
L 3047 1625 
L 3713 1625 
L 3713 1100 
L 3047 1100 
L 3047 0 
L 2419 0 
L 2419 1100 
L 313 1100 
L 313 1709 
L 2253 4666 
z
" transform="scale(0.015625)"/>
       </defs>
       <use xlink:href="#DejaVuSans-46"/>
       <use xlink:href="#DejaVuSans-65" transform="translate(52.019531 0)"/>
       <use xlink:href="#DejaVuSans-62" transform="translate(113.542969 0)"/>
       <use xlink:href="#DejaVuSans-20" transform="translate(177.019531 0)"/>
       <use xlink:href="#DejaVuSans-32" transform="translate(208.806641 0)"/>
       <use xlink:href="#DejaVuSans-30" transform="translate(272.429688 0)"/>
       <use xlink:href="#DejaVuSans-32" transform="translate(336.052734 0)"/>
       <use xlink:href="#DejaVuSans-34" transform="translate(399.675781 0)"/>
      </g>
     </g>
    </g>
    <g id="xtick_17">
     <g id="line2d_17">
      <path d="M 655.245144 355.222644 
L 655.245144 24.397812 
" clip-path="url(#pb1dba7078a)" style="fill: none; stroke-dasharray: 2.96,1.28; stroke-dashoffset: 0; stroke: #cccccc; stroke-width: 0.8"/>
     </g>
     <g id="text_17">
      <!-- May 2024 -->
      <g style="fill: #262626" transform="translate(622.545322 399.734577) rotate(-45) scale(0.09 -0.09)">
       <use xlink:href="#DejaVuSans-4d"/>
       <use xlink:href="#DejaVuSans-61" transform="translate(86.279297 0)"/>
       <use xlink:href="#DejaVuSans-79" transform="translate(147.558594 0)"/>
       <use xlink:href="#DejaVuSans-20" transform="translate(206.738281 0)"/>
       <use xlink:href="#DejaVuSans-32" transform="translate(238.525391 0)"/>
       <use xlink:href="#DejaVuSans-30" transform="translate(302.148438 0)"/>
       <use xlink:href="#DejaVuSans-32" transform="translate(365.771484 0)"/>
       <use xlink:href="#DejaVuSans-34" transform="translate(429.394531 0)"/>
      </g>
     </g>
    </g>
    <g id="xtick_18">
     <g id="line2d_18">
      <path d="M 691.791366 355.222644 
L 691.791366 24.397812 
" clip-path="url(#pb1dba7078a)" style="fill: none; stroke-dasharray: 2.96,1.28; stroke-dashoffset: 0; stroke: #cccccc; stroke-width: 0.8"/>
     </g>
     <g id="text_18">
      <!-- Aug 2024 -->
      <g style="fill: #262626" transform="translate(659.822406 399.003716) rotate(-45) scale(0.09 -0.09)">
       <use xlink:href="#DejaVuSans-41"/>
       <use xlink:href="#DejaVuSans-75" transform="translate(68.408203 0)"/>
       <use xlink:href="#DejaVuSans-67" transform="translate(131.787109 0)"/>
       <use xlink:href="#DejaVuSans-20" transform="translate(195.263672 0)"/>
       <use xlink:href="#DejaVuSans-32" transform="translate(227.050781 0)"/>
       <use xlink:href="#DejaVuSans-30" transform="translate(290.673828 0)"/>
       <use xlink:href="#DejaVuSans-32" transform="translate(354.296875 0)"/>
       <use xlink:href="#DejaVuSans-34" transform="translate(417.919922 0)"/>
      </g>
     </g>
    </g>
    <g id="xtick_19">
     <g id="line2d_19">
      <path d="M 728.337589 355.222644 
L 728.337589 24.397812 
" clip-path="url(#pb1dba7078a)" style="fill: none; stroke-dasharray: 2.96,1.28; stroke-dashoffset: 0; stroke: #cccccc; stroke-width: 0.8"/>
     </g>
     <g id="text_19">
      <!-- Nov 2024 -->
      <g style="fill: #262626" transform="translate(696.3736 398.998744) rotate(-45) scale(0.09 -0.09)">
       <use xlink:href="#DejaVuSans-4e"/>
       <use xlink:href="#DejaVuSans-6f" transform="translate(74.804688 0)"/>
       <use xlink:href="#DejaVuSans-76" transform="translate(135.986328 0)"/>
       <use xlink:href="#DejaVuSans-20" transform="translate(195.166016 0)"/>
       <use xlink:href="#DejaVuSans-32" transform="translate(226.953125 0)"/>
       <use xlink:href="#DejaVuSans-30" transform="translate(290.576172 0)"/>
       <use xlink:href="#DejaVuSans-32" transform="translate(354.199219 0)"/>
       <use xlink:href="#DejaVuSans-34" transform="translate(417.822266 0)"/>
      </g>
     </g>
    </g>
    <g id="xtick_20">
     <g id="line2d_20">
      <path d="M 764.883811 355.222644 
L 764.883811 24.397812 
" clip-path="url(#pb1dba7078a)" style="fill: none; stroke-dasharray: 2.96,1.28; stroke-dashoffset: 0; stroke: #cccccc; stroke-width: 0.8"/>
     </g>
     <g id="text_20">
      <!-- Feb 2025 -->
      <g style="fill: #262626" transform="translate(734.075279 397.843287) rotate(-45) scale(0.09 -0.09)">
       <defs>
        <path id="DejaVuSans-35" d="M 691 4666 
L 3169 4666 
L 3169 4134 
L 1269 4134 
L 1269 2991 
Q 1406 3038 1543 3061 
Q 1681 3084 1819 3084 
Q 2600 3084 3056 2656 
Q 3513 2228 3513 1497 
Q 3513 744 3044 326 
Q 2575 -91 1722 -91 
Q 1428 -91 1123 -41 
Q 819 9 494 109 
L 494 744 
Q 775 591 1075 516 
Q 1375 441 1709 441 
Q 2250 441 2565 725 
Q 2881 1009 2881 1497 
Q 2881 1984 2565 2268 
Q 2250 2553 1709 2553 
Q 1456 2553 1204 2497 
Q 953 2441 691 2322 
L 691 4666 
z
" transform="scale(0.015625)"/>
       </defs>
       <use xlink:href="#DejaVuSans-46"/>
       <use xlink:href="#DejaVuSans-65" transform="translate(52.019531 0)"/>
       <use xlink:href="#DejaVuSans-62" transform="translate(113.542969 0)"/>
       <use xlink:href="#DejaVuSans-20" transform="translate(177.019531 0)"/>
       <use xlink:href="#DejaVuSans-32" transform="translate(208.806641 0)"/>
       <use xlink:href="#DejaVuSans-30" transform="translate(272.429688 0)"/>
       <use xlink:href="#DejaVuSans-32" transform="translate(336.052734 0)"/>
       <use xlink:href="#DejaVuSans-35" transform="translate(399.675781 0)"/>
      </g>
     </g>
    </g>
    <g id="xtick_21">
     <g id="line2d_21">
      <path d="M 800.238309 355.222644 
L 800.238309 24.397812 
" clip-path="url(#pb1dba7078a)" style="fill: none; stroke-dasharray: 2.96,1.28; stroke-dashoffset: 0; stroke: #cccccc; stroke-width: 0.8"/>
     </g>
     <g id="text_21">
      <!-- May 2025 -->
      <g style="fill: #262626" transform="translate(767.538487 399.734577) rotate(-45) scale(0.09 -0.09)">
       <use xlink:href="#DejaVuSans-4d"/>
       <use xlink:href="#DejaVuSans-61" transform="translate(86.279297 0)"/>
       <use xlink:href="#DejaVuSans-79" transform="translate(147.558594 0)"/>
       <use xlink:href="#DejaVuSans-20" transform="translate(206.738281 0)"/>
       <use xlink:href="#DejaVuSans-32" transform="translate(238.525391 0)"/>
       <use xlink:href="#DejaVuSans-30" transform="translate(302.148438 0)"/>
       <use xlink:href="#DejaVuSans-32" transform="translate(365.771484 0)"/>
       <use xlink:href="#DejaVuSans-35" transform="translate(429.394531 0)"/>
      </g>
     </g>
    </g>
    <g id="xtick_22">
     <g id="line2d_22">
      <path d="M 836.784531 355.222644 
L 836.784531 24.397812 
" clip-path="url(#pb1dba7078a)" style="fill: none; stroke-dasharray: 2.96,1.28; stroke-dashoffset: 0; stroke: #cccccc; stroke-width: 0.8"/>
     </g>
     <g id="text_22">
      <!-- Aug 2025 -->
      <g style="fill: #262626" transform="translate(804.81557 399.003716) rotate(-45) scale(0.09 -0.09)">
       <use xlink:href="#DejaVuSans-41"/>
       <use xlink:href="#DejaVuSans-75" transform="translate(68.408203 0)"/>
       <use xlink:href="#DejaVuSans-67" transform="translate(131.787109 0)"/>
       <use xlink:href="#DejaVuSans-20" transform="translate(195.263672 0)"/>
       <use xlink:href="#DejaVuSans-32" transform="translate(227.050781 0)"/>
       <use xlink:href="#DejaVuSans-30" transform="translate(290.673828 0)"/>
       <use xlink:href="#DejaVuSans-32" transform="translate(354.296875 0)"/>
       <use xlink:href="#DejaVuSans-35" transform="translate(417.919922 0)"/>
      </g>
     </g>
    </g>
    <g id="text_23">
     <!-- Mois -->
     <g style="fill: #262626" transform="translate(443.325981 413.416363) scale(0.11 -0.11)">
      <defs>
       <path id="DejaVuSans-69" d="M 603 3500 
L 1178 3500 
L 1178 0 
L 603 0 
L 603 3500 
z
M 603 4863 
L 1178 4863 
L 1178 4134 
L 603 4134 
L 603 4863 
z
" transform="scale(0.015625)"/>
       <path id="DejaVuSans-73" d="M 2834 3397 
L 2834 2853 
Q 2591 2978 2328 3040 
Q 2066 3103 1784 3103 
Q 1356 3103 1142 2972 
Q 928 2841 928 2578 
Q 928 2378 1081 2264 
Q 1234 2150 1697 2047 
L 1894 2003 
Q 2506 1872 2764 1633 
Q 3022 1394 3022 966 
Q 3022 478 2636 193 
Q 2250 -91 1575 -91 
Q 1294 -91 989 -36 
Q 684 19 347 128 
L 347 722 
Q 666 556 975 473 
Q 1284 391 1588 391 
Q 1994 391 2212 530 
Q 2431 669 2431 922 
Q 2431 1156 2273 1281 
Q 2116 1406 1581 1522 
L 1381 1569 
Q 847 1681 609 1914 
Q 372 2147 372 2553 
Q 372 3047 722 3315 
Q 1072 3584 1716 3584 
Q 2034 3584 2315 3537 
Q 2597 3491 2834 3397 
z
" transform="scale(0.015625)"/>
      </defs>
      <use xlink:href="#DejaVuSans-4d"/>
      <use xlink:href="#DejaVuSans-6f" transform="translate(86.279297 0)"/>
      <use xlink:href="#DejaVuSans-69" transform="translate(147.460938 0)"/>
      <use xlink:href="#DejaVuSans-73" transform="translate(175.244141 0)"/>
     </g>
    </g>
   </g>
   <g id="matplotlib.axis_2">
    <g id="ytick_1">
     <g id="line2d_23">
      <path d="M 63.434688 301.455002 
L 848.225087 301.455002 
" clip-path="url(#pb1dba7078a)" style="fill: none; stroke-dasharray: 2.96,1.28; stroke-dashoffset: 0; stroke: #cccccc; stroke-width: 0.8"/>
     </g>
     <g id="text_24">
      <!-- 1 600 € -->
      <g style="fill: #262626" transform="translate(21.845937 304.874299) scale(0.09 -0.09)">
       <defs>
        <path id="DejaVuSans-202f" transform="scale(0.015625)"/>
        <path id="DejaVuSans-36" d="M 2113 2584 
Q 1688 2584 1439 2293 
Q 1191 2003 1191 1497 
Q 1191 994 1439 701 
Q 1688 409 2113 409 
Q 2538 409 2786 701 
Q 3034 994 3034 1497 
Q 3034 2003 2786 2293 
Q 2538 2584 2113 2584 
z
M 3366 4563 
L 3366 3988 
Q 3128 4100 2886 4159 
Q 2644 4219 2406 4219 
Q 1781 4219 1451 3797 
Q 1122 3375 1075 2522 
Q 1259 2794 1537 2939 
Q 1816 3084 2150 3084 
Q 2853 3084 3261 2657 
Q 3669 2231 3669 1497 
Q 3669 778 3244 343 
Q 2819 -91 2113 -91 
Q 1303 -91 875 529 
Q 447 1150 447 2328 
Q 447 3434 972 4092 
Q 1497 4750 2381 4750 
Q 2619 4750 2861 4703 
Q 3103 4656 3366 4563 
z
" transform="scale(0.015625)"/>
        <path id="DejaVuSans-20ac" d="M 3647 4306 
L 3647 3641 
Q 3363 3969 3098 4109 
Q 2834 4250 2516 4250 
Q 2025 4250 1709 3937 
Q 1394 3625 1294 3041 
L 3097 3041 
L 2925 2656 
L 1244 2656 
Q 1238 2581 1236 2509 
Q 1234 2438 1234 2328 
Q 1234 2228 1236 2156 
Q 1238 2084 1244 2009 
L 2638 2009 
L 2463 1625 
L 1294 1625 
Q 1394 1041 1709 725 
Q 2025 409 2516 409 
Q 2834 409 3098 550 
Q 3363 691 3647 1019 
L 3647 359 
Q 3369 134 3080 21 
Q 2791 -91 2491 -91 
Q 1750 -91 1267 362 
Q 784 816 659 1625 
L 0 1625 
L 172 2009 
L 606 2009 
Q 606 2081 604 2154 
Q 603 2228 603 2328 
Q 603 2438 604 2511 
Q 606 2584 606 2656 
L 0 2656 
L 172 3041 
L 659 3041 
Q 784 3844 1268 4297 
Q 1753 4750 2491 4750 
Q 2797 4750 3086 4639 
Q 3375 4528 3647 4306 
z
" transform="scale(0.015625)"/>
       </defs>
       <use xlink:href="#DejaVuSans-31"/>
       <use xlink:href="#DejaVuSans-202f" transform="translate(63.623047 0)"/>
       <use xlink:href="#DejaVuSans-36" transform="translate(83.59375 0)"/>
       <use xlink:href="#DejaVuSans-30" transform="translate(147.216797 0)"/>
       <use xlink:href="#DejaVuSans-30" transform="translate(210.839844 0)"/>
       <use xlink:href="#DejaVuSans-20" transform="translate(274.462891 0)"/>
       <use xlink:href="#DejaVuSans-20ac" transform="translate(306.25 0)"/>
      </g>
     </g>
    </g>
    <g id="ytick_2">
     <g id="line2d_24">
      <path d="M 63.434688 243.776273 
L 848.225087 243.776273 
" clip-path="url(#pb1dba7078a)" style="fill: none; stroke-dasharray: 2.96,1.28; stroke-dashoffset: 0; stroke: #cccccc; stroke-width: 0.8"/>
     </g>
     <g id="text_25">
      <!-- 1 800 € -->
      <g style="fill: #262626" transform="translate(21.845937 247.19557) scale(0.09 -0.09)">
       <defs>
        <path id="DejaVuSans-38" d="M 2034 2216 
Q 1584 2216 1326 1975 
Q 1069 1734 1069 1313 
Q 1069 891 1326 650 
Q 1584 409 2034 409 
Q 2484 409 2743 651 
Q 3003 894 3003 1313 
Q 3003 1734 2745 1975 
Q 2488 2216 2034 2216 
z
M 1403 2484 
Q 997 2584 770 2862 
Q 544 3141 544 3541 
Q 544 4100 942 4425 
Q 1341 4750 2034 4750 
Q 2731 4750 3128 4425 
Q 3525 4100 3525 3541 
Q 3525 3141 3298 2862 
Q 3072 2584 2669 2484 
Q 3125 2378 3379 2068 
Q 3634 1759 3634 1313 
Q 3634 634 3220 271 
Q 2806 -91 2034 -91 
Q 1263 -91 848 271 
Q 434 634 434 1313 
Q 434 1759 690 2068 
Q 947 2378 1403 2484 
z
M 1172 3481 
Q 1172 3119 1398 2916 
Q 1625 2713 2034 2713 
Q 2441 2713 2670 2916 
Q 2900 3119 2900 3481 
Q 2900 3844 2670 4047 
Q 2441 4250 2034 4250 
Q 1625 4250 1398 4047 
Q 1172 3844 1172 3481 
z
" transform="scale(0.015625)"/>
       </defs>
       <use xlink:href="#DejaVuSans-31"/>
       <use xlink:href="#DejaVuSans-202f" transform="translate(63.623047 0)"/>
       <use xlink:href="#DejaVuSans-38" transform="translate(83.59375 0)"/>
       <use xlink:href="#DejaVuSans-30" transform="translate(147.216797 0)"/>
       <use xlink:href="#DejaVuSans-30" transform="translate(210.839844 0)"/>
       <use xlink:href="#DejaVuSans-20" transform="translate(274.462891 0)"/>
       <use xlink:href="#DejaVuSans-20ac" transform="translate(306.25 0)"/>
      </g>
     </g>
    </g>
    <g id="ytick_3">
     <g id="line2d_25">
      <path d="M 63.434688 186.097544 
L 848.225087 186.097544 
" clip-path="url(#pb1dba7078a)" style="fill: none; stroke-dasharray: 2.96,1.28; stroke-dashoffset: 0; stroke: #cccccc; stroke-width: 0.8"/>
     </g>
     <g id="text_26">
      <!-- 2 000 € -->
      <g style="fill: #262626" transform="translate(21.845937 189.516841) scale(0.09 -0.09)">
       <use xlink:href="#DejaVuSans-32"/>
       <use xlink:href="#DejaVuSans-202f" transform="translate(63.623047 0)"/>
       <use xlink:href="#DejaVuSans-30" transform="translate(83.59375 0)"/>
       <use xlink:href="#DejaVuSans-30" transform="translate(147.216797 0)"/>
       <use xlink:href="#DejaVuSans-30" transform="translate(210.839844 0)"/>
       <use xlink:href="#DejaVuSans-20" transform="translate(274.462891 0)"/>
       <use xlink:href="#DejaVuSans-20ac" transform="translate(306.25 0)"/>
      </g>
     </g>
    </g>
    <g id="ytick_4">
     <g id="line2d_26">
      <path d="M 63.434688 128.418815 
L 848.225087 128.418815 
" clip-path="url(#pb1dba7078a)" style="fill: none; stroke-dasharray: 2.96,1.28; stroke-dashoffset: 0; stroke: #cccccc; stroke-width: 0.8"/>
     </g>
     <g id="text_27">
      <!-- 2 200 € -->
      <g style="fill: #262626" transform="translate(21.845937 131.838112) scale(0.09 -0.09)">
       <use xlink:href="#DejaVuSans-32"/>
       <use xlink:href="#DejaVuSans-202f" transform="translate(63.623047 0)"/>
       <use xlink:href="#DejaVuSans-32" transform="translate(83.59375 0)"/>
       <use xlink:href="#DejaVuSans-30" transform="translate(147.216797 0)"/>
       <use xlink:href="#DejaVuSans-30" transform="translate(210.839844 0)"/>
       <use xlink:href="#DejaVuSans-20" transform="translate(274.462891 0)"/>
       <use xlink:href="#DejaVuSans-20ac" transform="translate(306.25 0)"/>
      </g>
     </g>
    </g>
    <g id="ytick_5">
     <g id="line2d_27">
      <path d="M 63.434688 70.740086 
L 848.225087 70.740086 
" clip-path="url(#pb1dba7078a)" style="fill: none; stroke-dasharray: 2.96,1.28; stroke-dashoffset: 0; stroke: #cccccc; stroke-width: 0.8"/>
     </g>
     <g id="text_28">
      <!-- 2 400 € -->
      <g style="fill: #262626" transform="translate(21.845937 74.159383) scale(0.09 -0.09)">
       <use xlink:href="#DejaVuSans-32"/>
       <use xlink:href="#DejaVuSans-202f" transform="translate(63.623047 0)"/>
       <use xlink:href="#DejaVuSans-34" transform="translate(83.59375 0)"/>
       <use xlink:href="#DejaVuSans-30" transform="translate(147.216797 0)"/>
       <use xlink:href="#DejaVuSans-30" transform="translate(210.839844 0)"/>
       <use xlink:href="#DejaVuSans-20" transform="translate(274.462891 0)"/>
       <use xlink:href="#DejaVuSans-20ac" transform="translate(306.25 0)"/>
      </g>
     </g>
    </g>
    <g id="text_29">
     <!-- € / m² -->
     <g style="fill: #262626" transform="translate(15.558281 206.220853) rotate(-90) scale(0.11 -0.11)">
      <defs>
       <path id="DejaVuSans-2f" d="M 1625 4666 
L 2156 4666 
L 531 -594 
L 0 -594 
L 1625 4666 
z
" transform="scale(0.015625)"/>
       <path id="DejaVuSans-6d" d="M 3328 2828 
Q 3544 3216 3844 3400 
Q 4144 3584 4550 3584 
Q 5097 3584 5394 3201 
Q 5691 2819 5691 2113 
L 5691 0 
L 5113 0 
L 5113 2094 
Q 5113 2597 4934 2840 
Q 4756 3084 4391 3084 
Q 3944 3084 3684 2787 
Q 3425 2491 3425 1978 
L 3425 0 
L 2847 0 
L 2847 2094 
Q 2847 2600 2669 2842 
Q 2491 3084 2119 3084 
Q 1678 3084 1418 2786 
Q 1159 2488 1159 1978 
L 1159 0 
L 581 0 
L 581 3500 
L 1159 3500 
L 1159 2956 
Q 1356 3278 1631 3431 
Q 1906 3584 2284 3584 
Q 2666 3584 2933 3390 
Q 3200 3197 3328 2828 
z
" transform="scale(0.015625)"/>
       <path id="DejaVuSans-b2" d="M 838 2444 
L 2163 2444 
L 2163 2088 
L 294 2088 
L 294 2431 
Q 400 2528 597 2703 
Q 1672 3656 1672 3950 
Q 1672 4156 1509 4282 
Q 1347 4409 1081 4409 
Q 919 4409 728 4354 
Q 538 4300 313 4191 
L 313 4575 
Q 553 4663 761 4706 
Q 969 4750 1147 4750 
Q 1600 4750 1872 4544 
Q 2144 4338 2144 4000 
Q 2144 3566 1109 2678 
Q 934 2528 838 2444 
z
" transform="scale(0.015625)"/>
      </defs>
      <use xlink:href="#DejaVuSans-20ac"/>
      <use xlink:href="#DejaVuSans-20" transform="translate(63.623047 0)"/>
      <use xlink:href="#DejaVuSans-2f" transform="translate(95.410156 0)"/>
      <use xlink:href="#DejaVuSans-20" transform="translate(129.101562 0)"/>
      <use xlink:href="#DejaVuSans-6d" transform="translate(160.888672 0)"/>
      <use xlink:href="#DejaVuSans-b2" transform="translate(258.300781 0)"/>
     </g>
    </g>
   </g>
   <g id="line2d_28">
    <path d="M 99.106978 340.185152 
L 111.421466 338.633508 
L 123.735954 329.980895 
L 135.653201 312.971421 
L 147.967689 306.208003 
L 159.884935 309.181808 
L 172.199423 306.208003 
L 184.513911 295.774275 
L 195.636674 282.852535 
L 207.951162 273.948947 
L 219.868409 267.918032 
L 232.182897 264.698559 
L 244.100143 262.39393 
L 256.414631 256.46883 
L 268.729119 249.346836 
L 280.646365 244.054341 
L 292.960853 234.908474 
L 304.8781 230.082259 
L 317.192588 230.082259 
L 329.507076 228.875712 
L 340.629839 227.653317 
L 352.944327 221.364815 
L 364.861573 209.751544 
L 377.176061 209.751544 
L 389.093308 192.68244 
L 401.407796 187.166277 
L 413.722284 174.38008 
L 425.63953 186.76296 
L 437.954018 191.327384 
L 449.871264 188.382848 
L 462.185752 188.382848 
L 474.50024 181.564602 
L 485.623004 180.767192 
L 497.937491 180.767192 
L 509.854738 202.778632 
L 522.169226 214.02022 
L 534.086472 220.92648 
L 546.40096 213.638304 
L 558.715448 209.265276 
L 570.632695 201.706823 
L 582.947182 199.407328 
L 594.864429 203.858372 
L 607.178917 203.858372 
L 619.493405 203.858372 
L 631.01341 209.329255 
L 643.327898 207.35537 
L 655.245144 191.333501 
L 667.559632 192.630112 
L 679.476878 192.630112 
L 691.791366 207.049794 
L 704.105854 208.01984 
L 716.023101 217.572765 
L 728.337589 210.655696 
L 740.254835 206.367584 
L 752.569323 216.63208 
L 764.883811 222.051722 
L 776.006574 223.703978 
L 788.321062 223.703978 
L 800.238309 212.12313 
L 812.552797 209.309352 
" clip-path="url(#pb1dba7078a)" style="fill: none; stroke: #4c72b0; stroke-width: 1.8; stroke-linecap: round"/>
   </g>
   <g id="line2d_29">
    <path d="M 99.106978 121.980131 
L 111.421466 148.183804 
L 123.735954 170.631094 
L 135.653201 184.438078 
L 147.967689 184.438078 
L 159.884935 175.607035 
L 172.199423 175.607035 
L 184.513911 185.126522 
L 195.636674 188.569818 
L 207.951162 188.569818 
L 219.868409 174.587096 
L 232.182897 145.36064 
L 244.100143 102.902687 
L 256.414631 145.36064 
L 268.729119 101.128113 
L 280.646365 140.507549 
L 292.960853 140.507549 
L 304.8781 140.507549 
L 317.192588 139.606032 
L 329.507076 111.895251 
L 340.629839 104.65126 
L 352.944327 104.65126 
L 364.861573 104.65126 
L 377.176061 70.981242 
L 389.093308 79.38717 
L 401.407796 71.91216 
L 413.722284 79.38717 
L 425.63953 71.91216 
L 437.954018 50.53793 
L 449.871264 39.435305 
L 462.185752 39.435305 
L 474.50024 68.513957 
L 485.623004 102.450903 
L 497.937491 102.450903 
L 509.854738 92.391458 
L 522.169226 79.906884 
L 534.086472 71.775188 
L 546.40096 61.576393 
L 558.715448 61.576393 
L 570.632695 89.695118 
L 582.947182 101.863754 
L 594.864429 129.132392 
L 607.178917 127.7567 
L 619.493405 131.771689 
L 631.01341 131.771689 
L 643.327898 125.63428 
L 655.245144 122.357079 
L 667.559632 103.855417 
L 679.476878 113.679816 
L 691.791366 79.59525 
L 704.105854 60.844381 
L 716.023101 77.131228 
L 728.337589 98.391682 
L 740.254835 142.587071 
L 752.569323 142.587071 
L 764.883811 125.936747 
L 776.006574 129.39806 
L 788.321062 103.904484 
L 800.238309 117.641878 
L 812.552797 132.577146 
" clip-path="url(#pb1dba7078a)" style="fill: none; stroke: #dd8452; stroke-width: 1.8; stroke-linecap: round"/>
   </g>
   <g id="line2d_30">
    <path d="M 99.106978 299.772936 
L 111.421466 272.466981 
L 123.735954 274.246863 
L 135.653201 262.666928 
L 147.967689 238.600418 
L 159.884935 251.47256 
L 172.199423 220.657607 
L 184.513911 183.229133 
L 195.636674 195.393425 
L 207.951162 195.393425 
L 219.868409 207.209397 
L 232.182897 207.731443 
L 244.100143 198.604151 
L 256.414631 183.607659 
L 268.729119 164.967451 
L 280.646365 151.546302 
L 292.960853 151.546302 
L 304.8781 166.356879 
L 317.192588 158.573971 
L 329.507076 168.705034 
L 340.629839 155.366936 
L 352.944327 145.790263 
L 364.861573 128.76998 
L 377.176061 116.593218 
L 389.093308 126.006066 
L 401.407796 117.105968 
L 413.722284 117.105968 
L 425.63953 94.851282 
L 437.954018 62.798929 
L 449.871264 47.982964 
L 462.185752 47.982964 
L 474.50024 53.764119 
L 485.623004 74.822371 
L 497.937491 74.822371 
L 509.854738 70.977122 
L 522.169226 62.088277 
L 534.086472 54.476026 
L 546.40096 57.505371 
L 558.715448 57.505371 
L 570.632695 57.505371 
L 582.947182 54.721209 
L 594.864429 65.711 
L 607.178917 79.422022 
L 619.493405 106.252295 
L 631.01341 124.970152 
L 643.327898 134.893281 
L 655.245144 125.066681 
L 667.559632 139.944131 
L 679.476878 114.766908 
L 691.791366 75.98078 
L 704.105854 93.687234 
L 716.023101 63.934793 
L 728.337589 78.238491 
L 740.254835 107.925282 
L 752.569323 84.562382 
L 764.883811 84.562382 
L 776.006574 63.938401 
L 788.321062 63.938401 
L 800.238309 40.281883 
L 812.552797 44.776988 
" clip-path="url(#pb1dba7078a)" style="fill: none; stroke: #55a868; stroke-width: 1.8; stroke-linecap: round"/>
   </g>
   <g id="patch_3">
    <path d="M 63.434688 355.222644 
L 63.434688 24.397812 
" style="fill: none; stroke: #ffffff; stroke-linejoin: miter; stroke-linecap: square"/>
   </g>
   <g id="patch_4">
    <path d="M 848.225087 355.222644 
L 848.225087 24.397812 
" style="fill: none; stroke: #ffffff; stroke-linejoin: miter; stroke-linecap: square"/>
   </g>
   <g id="patch_5">
    <path d="M 63.434688 355.222644 
L 848.225087 355.222644 
" style="fill: none; stroke: #ffffff; stroke-linejoin: miter; stroke-linecap: square"/>
   </g>
   <g id="patch_6">
    <path d="M 63.434688 24.397812 
L 848.225087 24.397812 
" style="fill: none; stroke: #ffffff; stroke-linejoin: miter; stroke-linecap: square"/>
   </g>
   <g id="text_30">
    <!-- Prix ajusté des taux — Coût réel vs nominal -->
    <g style="fill: #262626" transform="translate(284.033481 18.397812) scale(0.14 -0.14)">
     <defs>
      <path id="DejaVuSans-Bold-50" d="M 588 4666 
L 2584 4666 
Q 3475 4666 3951 4270 
Q 4428 3875 4428 3144 
Q 4428 2409 3951 2014 
Q 3475 1619 2584 1619 
L 1791 1619 
L 1791 0 
L 588 0 
L 588 4666 
z
M 1791 3794 
L 1791 2491 
L 2456 2491 
Q 2806 2491 2997 2661 
Q 3188 2831 3188 3144 
Q 3188 3456 2997 3625 
Q 2806 3794 2456 3794 
L 1791 3794 
z
" transform="scale(0.015625)"/>
      <path id="DejaVuSans-Bold-72" d="M 3138 2547 
Q 2991 2616 2845 2648 
Q 2700 2681 2553 2681 
Q 2122 2681 1889 2404 
Q 1656 2128 1656 1613 
L 1656 0 
L 538 0 
L 538 3500 
L 1656 3500 
L 1656 2925 
Q 1872 3269 2151 3426 
Q 2431 3584 2822 3584 
Q 2878 3584 2943 3579 
Q 3009 3575 3134 3559 
L 3138 2547 
z
" transform="scale(0.015625)"/>
      <path id="DejaVuSans-Bold-69" d="M 538 3500 
L 1656 3500 
L 1656 0 
L 538 0 
L 538 3500 
z
M 538 4863 
L 1656 4863 
L 1656 3950 
L 538 3950 
L 538 4863 
z
" transform="scale(0.015625)"/>
      <path id="DejaVuSans-Bold-78" d="M 1422 1791 
L 159 3500 
L 1344 3500 
L 2059 2463 
L 2784 3500 
L 3969 3500 
L 2706 1797 
L 4031 0 
L 2847 0 
L 2059 1106 
L 1281 0 
L 97 0 
L 1422 1791 
z
" transform="scale(0.015625)"/>
      <path id="DejaVuSans-Bold-20" transform="scale(0.015625)"/>
      <path id="DejaVuSans-Bold-61" d="M 2106 1575 
Q 1756 1575 1579 1456 
Q 1403 1338 1403 1106 
Q 1403 894 1545 773 
Q 1688 653 1941 653 
Q 2256 653 2472 879 
Q 2688 1106 2688 1447 
L 2688 1575 
L 2106 1575 
z
M 3816 1997 
L 3816 0 
L 2688 0 
L 2688 519 
Q 2463 200 2181 54 
Q 1900 -91 1497 -91 
Q 953 -91 614 226 
Q 275 544 275 1050 
Q 275 1666 698 1953 
Q 1122 2241 2028 2241 
L 2688 2241 
L 2688 2328 
Q 2688 2594 2478 2717 
Q 2269 2841 1825 2841 
Q 1466 2841 1156 2769 
Q 847 2697 581 2553 
L 581 3406 
Q 941 3494 1303 3539 
Q 1666 3584 2028 3584 
Q 2975 3584 3395 3211 
Q 3816 2838 3816 1997 
z
" transform="scale(0.015625)"/>
      <path id="DejaVuSans-Bold-6a" d="M 538 3500 
L 1656 3500 
L 1656 63 
Q 1656 -641 1318 -1011 
Q 981 -1381 341 -1381 
L -213 -1381 
L -213 -647 
L -19 -647 
Q 300 -647 419 -503 
Q 538 -359 538 63 
L 538 3500 
z
M 538 4863 
L 1656 4863 
L 1656 3950 
L 538 3950 
L 538 4863 
z
" transform="scale(0.015625)"/>
      <path id="DejaVuSans-Bold-75" d="M 500 1363 
L 500 3500 
L 1625 3500 
L 1625 3150 
Q 1625 2866 1622 2436 
Q 1619 2006 1619 1863 
Q 1619 1441 1641 1255 
Q 1663 1069 1716 984 
Q 1784 875 1895 815 
Q 2006 756 2150 756 
Q 2500 756 2700 1025 
Q 2900 1294 2900 1772 
L 2900 3500 
L 4019 3500 
L 4019 0 
L 2900 0 
L 2900 506 
Q 2647 200 2364 54 
Q 2081 -91 1741 -91 
Q 1134 -91 817 281 
Q 500 653 500 1363 
z
" transform="scale(0.015625)"/>
      <path id="DejaVuSans-Bold-73" d="M 3272 3391 
L 3272 2541 
Q 2913 2691 2578 2766 
Q 2244 2841 1947 2841 
Q 1628 2841 1473 2761 
Q 1319 2681 1319 2516 
Q 1319 2381 1436 2309 
Q 1553 2238 1856 2203 
L 2053 2175 
Q 2913 2066 3209 1816 
Q 3506 1566 3506 1031 
Q 3506 472 3093 190 
Q 2681 -91 1863 -91 
Q 1516 -91 1145 -36 
Q 775 19 384 128 
L 384 978 
Q 719 816 1070 734 
Q 1422 653 1784 653 
Q 2113 653 2278 743 
Q 2444 834 2444 1013 
Q 2444 1163 2330 1236 
Q 2216 1309 1875 1350 
L 1678 1375 
Q 931 1469 631 1722 
Q 331 1975 331 2491 
Q 331 3047 712 3315 
Q 1094 3584 1881 3584 
Q 2191 3584 2531 3537 
Q 2872 3491 3272 3391 
z
" transform="scale(0.015625)"/>
      <path id="DejaVuSans-Bold-74" d="M 1759 4494 
L 1759 3500 
L 2913 3500 
L 2913 2700 
L 1759 2700 
L 1759 1216 
Q 1759 972 1856 886 
Q 1953 800 2241 800 
L 2816 800 
L 2816 0 
L 1856 0 
Q 1194 0 917 276 
Q 641 553 641 1216 
L 641 2700 
L 84 2700 
L 84 3500 
L 641 3500 
L 641 4494 
L 1759 4494 
z
" transform="scale(0.015625)"/>
      <path id="DejaVuSans-Bold-e9" d="M 4031 1759 
L 4031 1441 
L 1416 1441 
Q 1456 1047 1700 850 
Q 1944 653 2381 653 
Q 2734 653 3104 758 
Q 3475 863 3866 1075 
L 3866 213 
Q 3469 63 3072 -14 
Q 2675 -91 2278 -91 
Q 1328 -91 801 392 
Q 275 875 275 1747 
Q 275 2603 792 3093 
Q 1309 3584 2216 3584 
Q 3041 3584 3536 3087 
Q 4031 2591 4031 1759 
z
M 2881 2131 
Q 2881 2450 2695 2645 
Q 2509 2841 2209 2841 
Q 1884 2841 1681 2658 
Q 1478 2475 1428 2131 
L 2881 2131 
z
M 2702 5119 
L 3586 5119 
L 2433 3944 
L 1821 3944 
L 2702 5119 
z
" transform="scale(0.015625)"/>
      <path id="DejaVuSans-Bold-64" d="M 2919 2988 
L 2919 4863 
L 4044 4863 
L 4044 0 
L 2919 0 
L 2919 506 
Q 2688 197 2409 53 
Q 2131 -91 1766 -91 
Q 1119 -91 703 423 
Q 288 938 288 1747 
Q 288 2556 703 3070 
Q 1119 3584 1766 3584 
Q 2128 3584 2408 3439 
Q 2688 3294 2919 2988 
z
M 2181 722 
Q 2541 722 2730 984 
Q 2919 1247 2919 1747 
Q 2919 2247 2730 2509 
Q 2541 2772 2181 2772 
Q 1825 2772 1636 2509 
Q 1447 2247 1447 1747 
Q 1447 1247 1636 984 
Q 1825 722 2181 722 
z
" transform="scale(0.015625)"/>
      <path id="DejaVuSans-Bold-65" d="M 4031 1759 
L 4031 1441 
L 1416 1441 
Q 1456 1047 1700 850 
Q 1944 653 2381 653 
Q 2734 653 3104 758 
Q 3475 863 3866 1075 
L 3866 213 
Q 3469 63 3072 -14 
Q 2675 -91 2278 -91 
Q 1328 -91 801 392 
Q 275 875 275 1747 
Q 275 2603 792 3093 
Q 1309 3584 2216 3584 
Q 3041 3584 3536 3087 
Q 4031 2591 4031 1759 
z
M 2881 2131 
Q 2881 2450 2695 2645 
Q 2509 2841 2209 2841 
Q 1884 2841 1681 2658 
Q 1478 2475 1428 2131 
L 2881 2131 
z
" transform="scale(0.015625)"/>
      <path id="DejaVuSans-Bold-2014" d="M 344 2156 
L 6056 2156 
L 6056 1350 
L 344 1350 
L 344 2156 
z
" transform="scale(0.015625)"/>
      <path id="DejaVuSans-Bold-43" d="M 4288 256 
Q 3956 84 3597 -3 
Q 3238 -91 2847 -91 
Q 1681 -91 1000 561 
Q 319 1213 319 2328 
Q 319 3447 1000 4098 
Q 1681 4750 2847 4750 
Q 3238 4750 3597 4662 
Q 3956 4575 4288 4403 
L 4288 3438 
Q 3953 3666 3628 3772 
Q 3303 3878 2944 3878 
Q 2300 3878 1931 3465 
Q 1563 3053 1563 2328 
Q 1563 1606 1931 1193 
Q 2300 781 2944 781 
Q 3303 781 3628 887 
Q 3953 994 4288 1222 
L 4288 256 
z
" transform="scale(0.015625)"/>
      <path id="DejaVuSans-Bold-6f" d="M 2203 2784 
Q 1831 2784 1636 2517 
Q 1441 2250 1441 1747 
Q 1441 1244 1636 976 
Q 1831 709 2203 709 
Q 2569 709 2762 976 
Q 2956 1244 2956 1747 
Q 2956 2250 2762 2517 
Q 2569 2784 2203 2784 
z
M 2203 3584 
Q 3106 3584 3614 3096 
Q 4122 2609 4122 1747 
Q 4122 884 3614 396 
Q 3106 -91 2203 -91 
Q 1297 -91 786 396 
Q 275 884 275 1747 
Q 275 2609 786 3096 
Q 1297 3584 2203 3584 
z
" transform="scale(0.015625)"/>
      <path id="DejaVuSans-Bold-fb" d="M 500 1363 
L 500 3500 
L 1625 3500 
L 1625 3150 
Q 1625 2866 1622 2436 
Q 1619 2006 1619 1863 
Q 1619 1441 1641 1255 
Q 1663 1069 1716 984 
Q 1784 875 1895 815 
Q 2006 756 2150 756 
Q 2500 756 2700 1025 
Q 2900 1294 2900 1772 
L 2900 3500 
L 4019 3500 
L 4019 0 
L 2900 0 
L 2900 506 
Q 2647 200 2364 54 
Q 2081 -91 1741 -91 
Q 1134 -91 817 281 
Q 500 653 500 1363 
z
M 1886 5119 
L 2642 5119 
L 3442 3944 
L 2886 3944 
L 2264 4647 
L 1642 3944 
L 1086 3944 
L 1886 5119 
z
" transform="scale(0.015625)"/>
      <path id="DejaVuSans-Bold-6c" d="M 538 4863 
L 1656 4863 
L 1656 0 
L 538 0 
L 538 4863 
z
" transform="scale(0.015625)"/>
      <path id="DejaVuSans-Bold-76" d="M 97 3500 
L 1216 3500 
L 2088 1081 
L 2956 3500 
L 4078 3500 
L 2700 0 
L 1472 0 
L 97 3500 
z
" transform="scale(0.015625)"/>
      <path id="DejaVuSans-Bold-6e" d="M 4056 2131 
L 4056 0 
L 2931 0 
L 2931 347 
L 2931 1631 
Q 2931 2084 2911 2256 
Q 2891 2428 2841 2509 
Q 2775 2619 2662 2680 
Q 2550 2741 2406 2741 
Q 2056 2741 1856 2470 
Q 1656 2200 1656 1722 
L 1656 0 
L 538 0 
L 538 3500 
L 1656 3500 
L 1656 2988 
Q 1909 3294 2193 3439 
Q 2478 3584 2822 3584 
Q 3428 3584 3742 3212 
Q 4056 2841 4056 2131 
z
" transform="scale(0.015625)"/>
      <path id="DejaVuSans-Bold-6d" d="M 3781 2919 
Q 3994 3244 4286 3414 
Q 4578 3584 4928 3584 
Q 5531 3584 5847 3212 
Q 6163 2841 6163 2131 
L 6163 0 
L 5038 0 
L 5038 1825 
Q 5041 1866 5042 1909 
Q 5044 1953 5044 2034 
Q 5044 2406 4934 2573 
Q 4825 2741 4581 2741 
Q 4263 2741 4089 2478 
Q 3916 2216 3909 1719 
L 3909 0 
L 2784 0 
L 2784 1825 
Q 2784 2406 2684 2573 
Q 2584 2741 2328 2741 
Q 2006 2741 1831 2477 
Q 1656 2213 1656 1722 
L 1656 0 
L 531 0 
L 531 3500 
L 1656 3500 
L 1656 2988 
Q 1863 3284 2130 3434 
Q 2397 3584 2719 3584 
Q 3081 3584 3359 3409 
Q 3638 3234 3781 2919 
z
" transform="scale(0.015625)"/>
     </defs>
     <use xlink:href="#DejaVuSans-Bold-50"/>
     <use xlink:href="#DejaVuSans-Bold-72" transform="translate(73.291016 0)"/>
     <use xlink:href="#DejaVuSans-Bold-69" transform="translate(122.607422 0)"/>
     <use xlink:href="#DejaVuSans-Bold-78" transform="translate(156.884766 0)"/>
     <use xlink:href="#DejaVuSans-Bold-20" transform="translate(221.386719 0)"/>
     <use xlink:href="#DejaVuSans-Bold-61" transform="translate(256.201172 0)"/>
     <use xlink:href="#DejaVuSans-Bold-6a" transform="translate(323.681641 0)"/>
     <use xlink:href="#DejaVuSans-Bold-75" transform="translate(357.958984 0)"/>
     <use xlink:href="#DejaVuSans-Bold-73" transform="translate(429.150391 0)"/>
     <use xlink:href="#DejaVuSans-Bold-74" transform="translate(488.671875 0)"/>
     <use xlink:href="#DejaVuSans-Bold-e9" transform="translate(536.474609 0)"/>
     <use xlink:href="#DejaVuSans-Bold-20" transform="translate(604.296875 0)"/>
     <use xlink:href="#DejaVuSans-Bold-64" transform="translate(639.111328 0)"/>
     <use xlink:href="#DejaVuSans-Bold-65" transform="translate(710.693359 0)"/>
     <use xlink:href="#DejaVuSans-Bold-73" transform="translate(778.515625 0)"/>
     <use xlink:href="#DejaVuSans-Bold-20" transform="translate(838.037109 0)"/>
     <use xlink:href="#DejaVuSans-Bold-74" transform="translate(872.851562 0)"/>
     <use xlink:href="#DejaVuSans-Bold-61" transform="translate(920.654297 0)"/>
     <use xlink:href="#DejaVuSans-Bold-75" transform="translate(988.134766 0)"/>
     <use xlink:href="#DejaVuSans-Bold-78" transform="translate(1059.326172 0)"/>
     <use xlink:href="#DejaVuSans-Bold-20" transform="translate(1123.828125 0)"/>
     <use xlink:href="#DejaVuSans-Bold-2014" transform="translate(1158.642578 0)"/>
     <use xlink:href="#DejaVuSans-Bold-20" transform="translate(1258.642578 0)"/>
     <use xlink:href="#DejaVuSans-Bold-43" transform="translate(1293.457031 0)"/>
     <use xlink:href="#DejaVuSans-Bold-6f" transform="translate(1366.845703 0)"/>
     <use xlink:href="#DejaVuSans-Bold-fb" transform="translate(1435.546875 0)"/>
     <use xlink:href="#DejaVuSans-Bold-74" transform="translate(1506.738281 0)"/>
     <use xlink:href="#DejaVuSans-Bold-20" transform="translate(1554.541016 0)"/>
     <use xlink:href="#DejaVuSans-Bold-72" transform="translate(1589.355469 0)"/>
     <use xlink:href="#DejaVuSans-Bold-e9" transform="translate(1638.671875 0)"/>
     <use xlink:href="#DejaVuSans-Bold-65" transform="translate(1706.494141 0)"/>
     <use xlink:href="#DejaVuSans-Bold-6c" transform="translate(1774.316406 0)"/>
     <use xlink:href="#DejaVuSans-Bold-20" transform="translate(1808.59375 0)"/>
     <use xlink:href="#DejaVuSans-Bold-76" transform="translate(1843.408203 0)"/>
     <use xlink:href="#DejaVuSans-Bold-73" transform="translate(1908.59375 0)"/>
     <use xlink:href="#DejaVuSans-Bold-20" transform="translate(1968.115234 0)"/>
     <use xlink:href="#DejaVuSans-Bold-6e" transform="translate(2002.929688 0)"/>
     <use xlink:href="#DejaVuSans-Bold-6f" transform="translate(2074.121094 0)"/>
     <use xlink:href="#DejaVuSans-Bold-6d" transform="translate(2142.822266 0)"/>
     <use xlink:href="#DejaVuSans-Bold-69" transform="translate(2247.021484 0)"/>
     <use xlink:href="#DejaVuSans-Bold-6e" transform="translate(2281.298828 0)"/>
     <use xlink:href="#DejaVuSans-Bold-61" transform="translate(2352.490234 0)"/>
     <use xlink:href="#DejaVuSans-Bold-6c" transform="translate(2419.970703 0)"/>
    </g>
   </g>
   <g id="legend_1">
    <g id="patch_7">
     <path d="M 69.034687 89.830312 
L 243.183437 89.830312 
Q 244.783437 89.830312 244.783437 88.230312 
L 244.783437 29.997812 
Q 244.783437 28.397812 243.183437 28.397812 
L 69.034687 28.397812 
Q 67.434687 28.397812 67.434687 29.997812 
L 67.434687 88.230312 
Q 67.434687 89.830312 69.034687 89.830312 
z
" style="fill: #f5f5f5; opacity: 0.85; stroke: #cccccc; stroke-width: 0.8; stroke-linejoin: miter"/>
    </g>
    <g id="line2d_31">
     <path d="M 70.634687 34.876562 
L 78.634687 34.876562 
L 86.634687 34.876562 
" style="fill: none; stroke: #4c72b0; stroke-width: 1.8; stroke-linecap: round"/>
    </g>
    <g id="text_31">
     <!-- Brest (nominal) -->
     <g style="fill: #262626" transform="translate(93.034687 37.676562) scale(0.08 -0.08)">
      <defs>
       <path id="DejaVuSans-42" d="M 1259 2228 
L 1259 519 
L 2272 519 
Q 2781 519 3026 730 
Q 3272 941 3272 1375 
Q 3272 1813 3026 2020 
Q 2781 2228 2272 2228 
L 1259 2228 
z
M 1259 4147 
L 1259 2741 
L 2194 2741 
Q 2656 2741 2882 2914 
Q 3109 3088 3109 3444 
Q 3109 3797 2882 3972 
Q 2656 4147 2194 4147 
L 1259 4147 
z
M 628 4666 
L 2241 4666 
Q 2963 4666 3353 4366 
Q 3744 4066 3744 3513 
Q 3744 3084 3544 2831 
Q 3344 2578 2956 2516 
Q 3422 2416 3680 2098 
Q 3938 1781 3938 1306 
Q 3938 681 3513 340 
Q 3088 0 2303 0 
L 628 0 
L 628 4666 
z
" transform="scale(0.015625)"/>
       <path id="DejaVuSans-72" d="M 2631 2963 
Q 2534 3019 2420 3045 
Q 2306 3072 2169 3072 
Q 1681 3072 1420 2755 
Q 1159 2438 1159 1844 
L 1159 0 
L 581 0 
L 581 3500 
L 1159 3500 
L 1159 2956 
Q 1341 3275 1631 3429 
Q 1922 3584 2338 3584 
Q 2397 3584 2469 3576 
Q 2541 3569 2628 3553 
L 2631 2963 
z
" transform="scale(0.015625)"/>
       <path id="DejaVuSans-74" d="M 1172 4494 
L 1172 3500 
L 2356 3500 
L 2356 3053 
L 1172 3053 
L 1172 1153 
Q 1172 725 1289 603 
Q 1406 481 1766 481 
L 2356 481 
L 2356 0 
L 1766 0 
Q 1100 0 847 248 
Q 594 497 594 1153 
L 594 3053 
L 172 3053 
L 172 3500 
L 594 3500 
L 594 4494 
L 1172 4494 
z
" transform="scale(0.015625)"/>
       <path id="DejaVuSans-28" d="M 1984 4856 
Q 1566 4138 1362 3434 
Q 1159 2731 1159 2009 
Q 1159 1288 1364 580 
Q 1569 -128 1984 -844 
L 1484 -844 
Q 1016 -109 783 600 
Q 550 1309 550 2009 
Q 550 2706 781 3412 
Q 1013 4119 1484 4856 
L 1984 4856 
z
" transform="scale(0.015625)"/>
       <path id="DejaVuSans-6e" d="M 3513 2113 
L 3513 0 
L 2938 0 
L 2938 2094 
Q 2938 2591 2744 2837 
Q 2550 3084 2163 3084 
Q 1697 3084 1428 2787 
Q 1159 2491 1159 1978 
L 1159 0 
L 581 0 
L 581 3500 
L 1159 3500 
L 1159 2956 
Q 1366 3272 1645 3428 
Q 1925 3584 2291 3584 
Q 2894 3584 3203 3211 
Q 3513 2838 3513 2113 
z
" transform="scale(0.015625)"/>
       <path id="DejaVuSans-6c" d="M 603 4863 
L 1178 4863 
L 1178 0 
L 603 0 
L 603 4863 
z
" transform="scale(0.015625)"/>
       <path id="DejaVuSans-29" d="M 513 4856 
L 1013 4856 
Q 1481 4119 1714 3412 
Q 1947 2706 1947 2009 
Q 1947 1309 1714 600 
Q 1481 -109 1013 -844 
L 513 -844 
Q 928 -128 1133 580 
Q 1338 1288 1338 2009 
Q 1338 2731 1133 3434 
Q 928 4138 513 4856 
z
" transform="scale(0.015625)"/>
      </defs>
      <use xlink:href="#DejaVuSans-42"/>
      <use xlink:href="#DejaVuSans-72" transform="translate(68.603516 0)"/>
      <use xlink:href="#DejaVuSans-65" transform="translate(107.466797 0)"/>
      <use xlink:href="#DejaVuSans-73" transform="translate(168.990234 0)"/>
      <use xlink:href="#DejaVuSans-74" transform="translate(221.089844 0)"/>
      <use xlink:href="#DejaVuSans-20" transform="translate(260.298828 0)"/>
      <use xlink:href="#DejaVuSans-28" transform="translate(292.085938 0)"/>
      <use xlink:href="#DejaVuSans-6e" transform="translate(331.099609 0)"/>
      <use xlink:href="#DejaVuSans-6f" transform="translate(394.478516 0)"/>
      <use xlink:href="#DejaVuSans-6d" transform="translate(455.660156 0)"/>
      <use xlink:href="#DejaVuSans-69" transform="translate(553.072266 0)"/>
      <use xlink:href="#DejaVuSans-6e" transform="translate(580.855469 0)"/>
      <use xlink:href="#DejaVuSans-61" transform="translate(644.234375 0)"/>
      <use xlink:href="#DejaVuSans-6c" transform="translate(705.513672 0)"/>
      <use xlink:href="#DejaVuSans-29" transform="translate(733.296875 0)"/>
     </g>
    </g>
    <g id="line2d_32">
     <path d="M 70.634687 46.619062 
L 78.634687 46.619062 
L 86.634687 46.619062 
" style="fill: none; stroke: #dd8452; stroke-width: 1.8; stroke-linecap: round"/>
    </g>
    <g id="text_32">
     <!-- Le Havre (nominal) -->
     <g style="fill: #262626" transform="translate(93.034687 49.419062) scale(0.08 -0.08)">
      <defs>
       <path id="DejaVuSans-4c" d="M 628 4666 
L 1259 4666 
L 1259 531 
L 3531 531 
L 3531 0 
L 628 0 
L 628 4666 
z
" transform="scale(0.015625)"/>
       <path id="DejaVuSans-48" d="M 628 4666 
L 1259 4666 
L 1259 2753 
L 3553 2753 
L 3553 4666 
L 4184 4666 
L 4184 0 
L 3553 0 
L 3553 2222 
L 1259 2222 
L 1259 0 
L 628 0 
L 628 4666 
z
" transform="scale(0.015625)"/>
      </defs>
      <use xlink:href="#DejaVuSans-4c"/>
      <use xlink:href="#DejaVuSans-65" transform="translate(53.962891 0)"/>
      <use xlink:href="#DejaVuSans-20" transform="translate(115.486328 0)"/>
      <use xlink:href="#DejaVuSans-48" transform="translate(147.273438 0)"/>
      <use xlink:href="#DejaVuSans-61" transform="translate(222.46875 0)"/>
      <use xlink:href="#DejaVuSans-76" transform="translate(283.748047 0)"/>
      <use xlink:href="#DejaVuSans-72" transform="translate(342.927734 0)"/>
      <use xlink:href="#DejaVuSans-65" transform="translate(381.791016 0)"/>
      <use xlink:href="#DejaVuSans-20" transform="translate(443.314453 0)"/>
      <use xlink:href="#DejaVuSans-28" transform="translate(475.101562 0)"/>
      <use xlink:href="#DejaVuSans-6e" transform="translate(514.115234 0)"/>
      <use xlink:href="#DejaVuSans-6f" transform="translate(577.494141 0)"/>
      <use xlink:href="#DejaVuSans-6d" transform="translate(638.675781 0)"/>
      <use xlink:href="#DejaVuSans-69" transform="translate(736.087891 0)"/>
      <use xlink:href="#DejaVuSans-6e" transform="translate(763.871094 0)"/>
      <use xlink:href="#DejaVuSans-61" transform="translate(827.25 0)"/>
      <use xlink:href="#DejaVuSans-6c" transform="translate(888.529297 0)"/>
      <use xlink:href="#DejaVuSans-29" transform="translate(916.3125 0)"/>
     </g>
    </g>
    <g id="line2d_33">
     <path d="M 70.634687 58.361562 
L 78.634687 58.361562 
L 86.634687 58.361562 
" style="fill: none; stroke: #55a868; stroke-width: 1.8; stroke-linecap: round"/>
    </g>
    <g id="text_33">
     <!-- Lorient (nominal) -->
     <g style="fill: #262626" transform="translate(93.034687 61.161562) scale(0.08 -0.08)">
      <use xlink:href="#DejaVuSans-4c"/>
      <use xlink:href="#DejaVuSans-6f" transform="translate(53.962891 0)"/>
      <use xlink:href="#DejaVuSans-72" transform="translate(115.144531 0)"/>
      <use xlink:href="#DejaVuSans-69" transform="translate(156.257812 0)"/>
      <use xlink:href="#DejaVuSans-65" transform="translate(184.041016 0)"/>
      <use xlink:href="#DejaVuSans-6e" transform="translate(245.564453 0)"/>
      <use xlink:href="#DejaVuSans-74" transform="translate(308.943359 0)"/>
      <use xlink:href="#DejaVuSans-20" transform="translate(348.152344 0)"/>
      <use xlink:href="#DejaVuSans-28" transform="translate(379.939453 0)"/>
      <use xlink:href="#DejaVuSans-6e" transform="translate(418.953125 0)"/>
      <use xlink:href="#DejaVuSans-6f" transform="translate(482.332031 0)"/>
      <use xlink:href="#DejaVuSans-6d" transform="translate(543.513672 0)"/>
      <use xlink:href="#DejaVuSans-69" transform="translate(640.925781 0)"/>
      <use xlink:href="#DejaVuSans-6e" transform="translate(668.708984 0)"/>
      <use xlink:href="#DejaVuSans-61" transform="translate(732.087891 0)"/>
      <use xlink:href="#DejaVuSans-6c" transform="translate(793.367188 0)"/>
      <use xlink:href="#DejaVuSans-29" transform="translate(821.150391 0)"/>
     </g>
    </g>
    <g id="patch_8">
     <path d="M 70.634687 72.904062 
L 86.634687 72.904062 
L 86.634687 67.304062 
L 70.634687 67.304062 
z
" style="fill: #2ca02c; opacity: 0.2; stroke: #2ca02c; stroke-width: 0.8; stroke-linejoin: miter"/>
    </g>
    <g id="text_34">
     <!-- Taux favorables (moins cher en réel) -->
     <g style="fill: #262626" transform="translate(93.034687 72.904062) scale(0.08 -0.08)">
      <defs>
       <path id="DejaVuSans-54" d="M -19 4666 
L 3928 4666 
L 3928 4134 
L 2272 4134 
L 2272 0 
L 1638 0 
L 1638 4134 
L -19 4134 
L -19 4666 
z
" transform="scale(0.015625)"/>
       <path id="DejaVuSans-78" d="M 3513 3500 
L 2247 1797 
L 3578 0 
L 2900 0 
L 1881 1375 
L 863 0 
L 184 0 
L 1544 1831 
L 300 3500 
L 978 3500 
L 1906 2253 
L 2834 3500 
L 3513 3500 
z
" transform="scale(0.015625)"/>
       <path id="DejaVuSans-66" d="M 2375 4863 
L 2375 4384 
L 1825 4384 
Q 1516 4384 1395 4259 
Q 1275 4134 1275 3809 
L 1275 3500 
L 2222 3500 
L 2222 3053 
L 1275 3053 
L 1275 0 
L 697 0 
L 697 3053 
L 147 3053 
L 147 3500 
L 697 3500 
L 697 3744 
Q 697 4328 969 4595 
Q 1241 4863 1831 4863 
L 2375 4863 
z
" transform="scale(0.015625)"/>
       <path id="DejaVuSans-63" d="M 3122 3366 
L 3122 2828 
Q 2878 2963 2633 3030 
Q 2388 3097 2138 3097 
Q 1578 3097 1268 2742 
Q 959 2388 959 1747 
Q 959 1106 1268 751 
Q 1578 397 2138 397 
Q 2388 397 2633 464 
Q 2878 531 3122 666 
L 3122 134 
Q 2881 22 2623 -34 
Q 2366 -91 2075 -91 
Q 1284 -91 818 406 
Q 353 903 353 1747 
Q 353 2603 823 3093 
Q 1294 3584 2113 3584 
Q 2378 3584 2631 3529 
Q 2884 3475 3122 3366 
z
" transform="scale(0.015625)"/>
       <path id="DejaVuSans-68" d="M 3513 2113 
L 3513 0 
L 2938 0 
L 2938 2094 
Q 2938 2591 2744 2837 
Q 2550 3084 2163 3084 
Q 1697 3084 1428 2787 
Q 1159 2491 1159 1978 
L 1159 0 
L 581 0 
L 581 4863 
L 1159 4863 
L 1159 2956 
Q 1366 3272 1645 3428 
Q 1925 3584 2291 3584 
Q 2894 3584 3203 3211 
Q 3513 2838 3513 2113 
z
" transform="scale(0.015625)"/>
       <path id="DejaVuSans-e9" d="M 3597 1894 
L 3597 1613 
L 953 1613 
Q 991 1019 1311 708 
Q 1631 397 2203 397 
Q 2534 397 2845 478 
Q 3156 559 3463 722 
L 3463 178 
Q 3153 47 2828 -22 
Q 2503 -91 2169 -91 
Q 1331 -91 842 396 
Q 353 884 353 1716 
Q 353 2575 817 3079 
Q 1281 3584 2069 3584 
Q 2775 3584 3186 3129 
Q 3597 2675 3597 1894 
z
M 3022 2063 
Q 3016 2534 2758 2815 
Q 2500 3097 2075 3097 
Q 1594 3097 1305 2825 
Q 1016 2553 972 2059 
L 3022 2063 
z
M 2466 5119 
L 3088 5119 
L 2070 3944 
L 1591 3944 
L 2466 5119 
z
" transform="scale(0.015625)"/>
      </defs>
      <use xlink:href="#DejaVuSans-54"/>
      <use xlink:href="#DejaVuSans-61" transform="translate(44.583984 0)"/>
      <use xlink:href="#DejaVuSans-75" transform="translate(105.863281 0)"/>
      <use xlink:href="#DejaVuSans-78" transform="translate(169.242188 0)"/>
      <use xlink:href="#DejaVuSans-20" transform="translate(228.421875 0)"/>
      <use xlink:href="#DejaVuSans-66" transform="translate(260.208984 0)"/>
      <use xlink:href="#DejaVuSans-61" transform="translate(295.414062 0)"/>
      <use xlink:href="#DejaVuSans-76" transform="translate(356.693359 0)"/>
      <use xlink:href="#DejaVuSans-6f" transform="translate(415.873047 0)"/>
      <use xlink:href="#DejaVuSans-72" transform="translate(477.054688 0)"/>
      <use xlink:href="#DejaVuSans-61" transform="translate(518.167969 0)"/>
      <use xlink:href="#DejaVuSans-62" transform="translate(579.447266 0)"/>
      <use xlink:href="#DejaVuSans-6c" transform="translate(642.923828 0)"/>
      <use xlink:href="#DejaVuSans-65" transform="translate(670.707031 0)"/>
      <use xlink:href="#DejaVuSans-73" transform="translate(732.230469 0)"/>
      <use xlink:href="#DejaVuSans-20" transform="translate(784.330078 0)"/>
      <use xlink:href="#DejaVuSans-28" transform="translate(816.117188 0)"/>
      <use xlink:href="#DejaVuSans-6d" transform="translate(855.130859 0)"/>
      <use xlink:href="#DejaVuSans-6f" transform="translate(952.542969 0)"/>
      <use xlink:href="#DejaVuSans-69" transform="translate(1013.724609 0)"/>
      <use xlink:href="#DejaVuSans-6e" transform="translate(1041.507812 0)"/>
      <use xlink:href="#DejaVuSans-73" transform="translate(1104.886719 0)"/>
      <use xlink:href="#DejaVuSans-20" transform="translate(1156.986328 0)"/>
      <use xlink:href="#DejaVuSans-63" transform="translate(1188.773438 0)"/>
      <use xlink:href="#DejaVuSans-68" transform="translate(1243.753906 0)"/>
      <use xlink:href="#DejaVuSans-65" transform="translate(1307.132812 0)"/>
      <use xlink:href="#DejaVuSans-72" transform="translate(1368.65625 0)"/>
      <use xlink:href="#DejaVuSans-20" transform="translate(1409.769531 0)"/>
      <use xlink:href="#DejaVuSans-65" transform="translate(1441.556641 0)"/>
      <use xlink:href="#DejaVuSans-6e" transform="translate(1503.080078 0)"/>
      <use xlink:href="#DejaVuSans-20" transform="translate(1566.458984 0)"/>
      <use xlink:href="#DejaVuSans-72" transform="translate(1598.246094 0)"/>
      <use xlink:href="#DejaVuSans-e9" transform="translate(1637.109375 0)"/>
      <use xlink:href="#DejaVuSans-65" transform="translate(1698.632812 0)"/>
      <use xlink:href="#DejaVuSans-6c" transform="translate(1760.15625 0)"/>
      <use xlink:href="#DejaVuSans-29" transform="translate(1787.939453 0)"/>
     </g>
    </g>
    <g id="patch_9">
     <path d="M 70.634687 84.966562 
L 86.634687 84.966562 
L 86.634687 79.366562 
L 70.634687 79.366562 
z
" style="fill: #d62728; opacity: 0.2; stroke: #d62728; stroke-width: 0.8; stroke-linejoin: miter"/>
    </g>
    <g id="text_35">
     <!-- Taux défavorables (plus cher en réel) -->
     <g style="fill: #262626" transform="translate(93.034687 84.966562) scale(0.08 -0.08)">
      <defs>
       <path id="DejaVuSans-64" d="M 2906 2969 
L 2906 4863 
L 3481 4863 
L 3481 0 
L 2906 0 
L 2906 525 
Q 2725 213 2448 61 
Q 2172 -91 1784 -91 
Q 1150 -91 751 415 
Q 353 922 353 1747 
Q 353 2572 751 3078 
Q 1150 3584 1784 3584 
Q 2172 3584 2448 3432 
Q 2725 3281 2906 2969 
z
M 947 1747 
Q 947 1113 1208 752 
Q 1469 391 1925 391 
Q 2381 391 2643 752 
Q 2906 1113 2906 1747 
Q 2906 2381 2643 2742 
Q 2381 3103 1925 3103 
Q 1469 3103 1208 2742 
Q 947 2381 947 1747 
z
" transform="scale(0.015625)"/>
       <path id="DejaVuSans-70" d="M 1159 525 
L 1159 -1331 
L 581 -1331 
L 581 3500 
L 1159 3500 
L 1159 2969 
Q 1341 3281 1617 3432 
Q 1894 3584 2278 3584 
Q 2916 3584 3314 3078 
Q 3713 2572 3713 1747 
Q 3713 922 3314 415 
Q 2916 -91 2278 -91 
Q 1894 -91 1617 61 
Q 1341 213 1159 525 
z
M 3116 1747 
Q 3116 2381 2855 2742 
Q 2594 3103 2138 3103 
Q 1681 3103 1420 2742 
Q 1159 2381 1159 1747 
Q 1159 1113 1420 752 
Q 1681 391 2138 391 
Q 2594 391 2855 752 
Q 3116 1113 3116 1747 
z
" transform="scale(0.015625)"/>
      </defs>
      <use xlink:href="#DejaVuSans-54"/>
      <use xlink:href="#DejaVuSans-61" transform="translate(44.583984 0)"/>
      <use xlink:href="#DejaVuSans-75" transform="translate(105.863281 0)"/>
      <use xlink:href="#DejaVuSans-78" transform="translate(169.242188 0)"/>
      <use xlink:href="#DejaVuSans-20" transform="translate(228.421875 0)"/>
      <use xlink:href="#DejaVuSans-64" transform="translate(260.208984 0)"/>
      <use xlink:href="#DejaVuSans-e9" transform="translate(323.685547 0)"/>
      <use xlink:href="#DejaVuSans-66" transform="translate(385.208984 0)"/>
      <use xlink:href="#DejaVuSans-61" transform="translate(420.414062 0)"/>
      <use xlink:href="#DejaVuSans-76" transform="translate(481.693359 0)"/>
      <use xlink:href="#DejaVuSans-6f" transform="translate(540.873047 0)"/>
      <use xlink:href="#DejaVuSans-72" transform="translate(602.054688 0)"/>
      <use xlink:href="#DejaVuSans-61" transform="translate(643.167969 0)"/>
      <use xlink:href="#DejaVuSans-62" transform="translate(704.447266 0)"/>
      <use xlink:href="#DejaVuSans-6c" transform="translate(767.923828 0)"/>
      <use xlink:href="#DejaVuSans-65" transform="translate(795.707031 0)"/>
      <use xlink:href="#DejaVuSans-73" transform="translate(857.230469 0)"/>
      <use xlink:href="#DejaVuSans-20" transform="translate(909.330078 0)"/>
      <use xlink:href="#DejaVuSans-28" transform="translate(941.117188 0)"/>
      <use xlink:href="#DejaVuSans-70" transform="translate(980.130859 0)"/>
      <use xlink:href="#DejaVuSans-6c" transform="translate(1043.607422 0)"/>
      <use xlink:href="#DejaVuSans-75" transform="translate(1071.390625 0)"/>
      <use xlink:href="#DejaVuSans-73" transform="translate(1134.769531 0)"/>
      <use xlink:href="#DejaVuSans-20" transform="translate(1186.869141 0)"/>
      <use xlink:href="#DejaVuSans-63" transform="translate(1218.65625 0)"/>
      <use xlink:href="#DejaVuSans-68" transform="translate(1273.636719 0)"/>
      <use xlink:href="#DejaVuSans-65" transform="translate(1337.015625 0)"/>
      <use xlink:href="#DejaVuSans-72" transform="translate(1398.539062 0)"/>
      <use xlink:href="#DejaVuSans-20" transform="translate(1439.652344 0)"/>
      <use xlink:href="#DejaVuSans-65" transform="translate(1471.439453 0)"/>
      <use xlink:href="#DejaVuSans-6e" transform="translate(1532.962891 0)"/>
      <use xlink:href="#DejaVuSans-20" transform="translate(1596.341797 0)"/>
      <use xlink:href="#DejaVuSans-72" transform="translate(1628.128906 0)"/>
      <use xlink:href="#DejaVuSans-e9" transform="translate(1666.992188 0)"/>
      <use xlink:href="#DejaVuSans-65" transform="translate(1728.515625 0)"/>
      <use xlink:href="#DejaVuSans-6c" transform="translate(1790.039062 0)"/>
      <use xlink:href="#DejaVuSans-29" transform="translate(1817.822266 0)"/>
     </g>
    </g>
   </g>
  </g>
 </g>
 <defs>
  <clipPath id="pb1dba7078a">
   <rect x="63.434688" y="24.397812" width="784.7904" height="330.824832"/>
  </clipPath>
 </defs>
</svg>
