<?xml version="1.0" encoding="utf-8" standalone="no"?>
<!DOCTYPE svg PUBLIC "-//W3C//DTD SVG 1.1//EN"
  "http://www.w3.org/Graphics/SVG/1.1/DTD/svg11.dtd">
<svg xmlns:xlink="http://www.w3.org/1999/xlink" width="758.394673pt" height="351.592431pt" viewBox="0 0 758.394673 351.592431" xmlns="http://www.w3.org/2000/svg" version="1.1">
 <metadata>
  <rdf:RDF xmlns:dc="http://purl.org/dc/elements/1.1/" xmlns:cc="http://creativecommons.org/ns#" xmlns:rdf="http://www.w3.org/1999/02/22-rdf-syntax-ns#">
   <cc:Work>
    <dc:type rdf:resource="http://purl.org/dc/dcmitype/StillImage"/>
    <dc:date>2026-07-05T08:52:36.577475</dc:date>
    <dc:format>image/svg+xml</dc:format>
    <dc:creator>
     <cc:Agent>
      <dc:title>Matplotlib v3.11.0, https://matplotlib.org/</dc:title>
     </cc:Agent>
    </dc:creator>
   </cc:Work>
  </rdf:RDF>
 </metadata>
 <defs>
  <style type="text/css">*{stroke-linejoin: round; stroke-linecap: butt}</style>
 </defs>
 <g id="figure_1">
  <g id="patch_1">
   <path d="M 0 351.592431 
L 758.394673 351.592431 
L 758.394673 0 
L 0 0 
z
" style="fill: #ffffff"/>
  </g>
  <g id="axes_1">
   <g id="patch_2">
    <path d="M 90.106406 311.091494 
L 751.194673 311.091494 
L 751.194673 23.837812 
L 90.106406 23.837812 
z
" style="fill: #f5f5f5"/>
   </g>
   <g id="matplotlib.axis_1">
    <g id="xtick_1">
     <g id="line2d_1">
      <path d="M 198.973817 311.091494 
L 198.973817 23.837812 
" clip-path="url(#p7d54c830ca)" style="fill: none; stroke-dasharray: 2.96,1.28; stroke-dashoffset: 0; stroke: #cccccc; stroke-opacity: 0.7; stroke-width: 0.8"/>
     </g>
     <g id="text_1">
      <!-- 2 000 EUR -->
      <g style="fill: #262626" transform="translate(175.397333 326.229384) scale(0.09 -0.09)">
       <defs>
        <path id="DejaVuSans-15" d="M 1228 531 
L 3431 531 
L 3431 0 
L 469 0 
L 469 531 
Q 828 903 1448 1529 
Q 2069 2156 2228 2338 
Q 2531 2678 2651 2914 
Q 2772 3150 2772 3378 
Q 2772 3750 2511 3984 
Q 2250 4219 1831 4219 
Q 1534 4219 1204 4116 
Q 875 4013 500 3803 
L 500 4441 
Q 881 4594 1212 4672 
Q 1544 4750 1819 4750 
Q 2544 4750 2975 4387 
Q 3406 4025 3406 3419 
Q 3406 3131 3298 2873 
Q 3191 2616 2906 2266 
Q 2828 2175 2409 1742 
Q 1991 1309 1228 531 
z
" transform="scale(0.015625)"/>
        <path id="DejaVuSans-3" transform="scale(0.015625)"/>
        <path id="DejaVuSans-13" d="M 2034 4250 
Q 1547 4250 1301 3770 
Q 1056 3291 1056 2328 
Q 1056 1369 1301 889 
Q 1547 409 2034 409 
Q 2525 409 2770 889 
Q 3016 1369 3016 2328 
Q 3016 3291 2770 3770 
Q 2525 4250 2034 4250 
z
M 2034 4750 
Q 2819 4750 3233 4129 
Q 3647 3509 3647 2328 
Q 3647 1150 3233 529 
Q 2819 -91 2034 -91 
Q 1250 -91 836 529 
Q 422 1150 422 2328 
Q 422 3509 836 4129 
Q 1250 4750 2034 4750 
z
" transform="scale(0.015625)"/>
        <path id="DejaVuSans-28" d="M 628 4666 
L 3578 4666 
L 3578 4134 
L 1259 4134 
L 1259 2753 
L 3481 2753 
L 3481 2222 
L 1259 2222 
L 1259 531 
L 3634 531 
L 3634 0 
L 628 0 
L 628 4666 
z
" transform="scale(0.015625)"/>
        <path id="DejaVuSans-38" d="M 556 4666 
L 1191 4666 
L 1191 1831 
Q 1191 1081 1462 751 
Q 1734 422 2344 422 
Q 2950 422 3222 751 
Q 3494 1081 3494 1831 
L 3494 4666 
L 4128 4666 
L 4128 1753 
Q 4128 841 3676 375 
Q 3225 -91 2344 -91 
Q 1459 -91 1007 375 
Q 556 841 556 1753 
L 556 4666 
z
" transform="scale(0.015625)"/>
        <path id="DejaVuSans-35" d="M 2841 2188 
Q 3044 2119 3236 1894 
Q 3428 1669 3622 1275 
L 4263 0 
L 3584 0 
L 2988 1197 
Q 2756 1666 2539 1819 
Q 2322 1972 1947 1972 
L 1259 1972 
L 1259 0 
L 628 0 
L 628 4666 
L 2053 4666 
Q 2853 4666 3247 4331 
Q 3641 3997 3641 3322 
Q 3641 2881 3436 2590 
Q 3231 2300 2841 2188 
z
M 1259 4147 
L 1259 2491 
L 2053 2491 
Q 2509 2491 2742 2702 
Q 2975 2913 2975 3322 
Q 2975 3731 2742 3939 
Q 2509 4147 2053 4147 
L 1259 4147 
z
" transform="scale(0.015625)"/>
       </defs>
       <use xlink:href="#DejaVuSans-15"/>
       <use xlink:href="#DejaVuSans-3" transform="translate(63.625 0)"/>
       <use xlink:href="#DejaVuSans-13" transform="translate(95.40625 0)"/>
       <use xlink:href="#DejaVuSans-13" transform="translate(159.03125 0)"/>
       <use xlink:href="#DejaVuSans-13" transform="translate(222.65625 0)"/>
       <use xlink:href="#DejaVuSans-3" transform="translate(286.28125 0)"/>
       <use xlink:href="#DejaVuSans-28" transform="translate(318.0625 0)"/>
       <use xlink:href="#DejaVuSans-38" transform="translate(381.25 0)"/>
       <use xlink:href="#DejaVuSans-35" transform="translate(454.4375 0)"/>
      </g>
     </g>
    </g>
    <g id="xtick_2">
     <g id="line2d_2">
      <path d="M 314.909807 311.091494 
L 314.909807 23.837812 
" clip-path="url(#p7d54c830ca)" style="fill: none; stroke-dasharray: 2.96,1.28; stroke-dashoffset: 0; stroke: #cccccc; stroke-opacity: 0.7; stroke-width: 0.8"/>
     </g>
     <g id="text_2">
      <!-- 3 000 EUR -->
      <g style="fill: #262626" transform="translate(291.333323 326.229384) scale(0.09 -0.09)">
       <defs>
        <path id="DejaVuSans-16" d="M 2597 2516 
Q 3050 2419 3304 2112 
Q 3559 1806 3559 1356 
Q 3559 666 3084 287 
Q 2609 -91 1734 -91 
Q 1441 -91 1130 -33 
Q 819 25 488 141 
L 488 750 
Q 750 597 1062 519 
Q 1375 441 1716 441 
Q 2309 441 2620 675 
Q 2931 909 2931 1356 
Q 2931 1769 2642 2001 
Q 2353 2234 1838 2234 
L 1294 2234 
L 1294 2753 
L 1863 2753 
Q 2328 2753 2575 2939 
Q 2822 3125 2822 3475 
Q 2822 3834 2567 4026 
Q 2313 4219 1838 4219 
Q 1578 4219 1281 4162 
Q 984 4106 628 3988 
L 628 4550 
Q 988 4650 1302 4700 
Q 1616 4750 1894 4750 
Q 2613 4750 3031 4423 
Q 3450 4097 3450 3541 
Q 3450 3153 3228 2886 
Q 3006 2619 2597 2516 
z
" transform="scale(0.015625)"/>
       </defs>
       <use xlink:href="#DejaVuSans-16"/>
       <use xlink:href="#DejaVuSans-3" transform="translate(63.625 0)"/>
       <use xlink:href="#DejaVuSans-13" transform="translate(95.40625 0)"/>
       <use xlink:href="#DejaVuSans-13" transform="translate(159.03125 0)"/>
       <use xlink:href="#DejaVuSans-13" transform="translate(222.65625 0)"/>
       <use xlink:href="#DejaVuSans-3" transform="translate(286.28125 0)"/>
       <use xlink:href="#DejaVuSans-28" transform="translate(318.0625 0)"/>
       <use xlink:href="#DejaVuSans-38" transform="translate(381.25 0)"/>
       <use xlink:href="#DejaVuSans-35" transform="translate(454.4375 0)"/>
      </g>
     </g>
    </g>
    <g id="xtick_3">
     <g id="line2d_3">
      <path d="M 430.845797 311.091494 
L 430.845797 23.837812 
" clip-path="url(#p7d54c830ca)" style="fill: none; stroke-dasharray: 2.96,1.28; stroke-dashoffset: 0; stroke: #cccccc; stroke-opacity: 0.7; stroke-width: 0.8"/>
     </g>
     <g id="text_3">
      <!-- 4 000 EUR -->
      <g style="fill: #262626" transform="translate(407.269313 326.229384) scale(0.09 -0.09)">
       <defs>
        <path id="DejaVuSans-17" d="M 2419 4116 
L 825 1625 
L 2419 1625 
L 2419 4116 
z
M 2253 4666 
L 3047 4666 
L 3047 1625 
L 3713 1625 
L 3713 1100 
L 3047 1100 
L 3047 0 
L 2419 0 
L 2419 1100 
L 313 1100 
L 313 1709 
L 2253 4666 
z
" transform="scale(0.015625)"/>
       </defs>
       <use xlink:href="#DejaVuSans-17"/>
       <use xlink:href="#DejaVuSans-3" transform="translate(63.625 0)"/>
       <use xlink:href="#DejaVuSans-13" transform="translate(95.40625 0)"/>
       <use xlink:href="#DejaVuSans-13" transform="translate(159.03125 0)"/>
       <use xlink:href="#DejaVuSans-13" transform="translate(222.65625 0)"/>
       <use xlink:href="#DejaVuSans-3" transform="translate(286.28125 0)"/>
       <use xlink:href="#DejaVuSans-28" transform="translate(318.0625 0)"/>
       <use xlink:href="#DejaVuSans-38" transform="translate(381.25 0)"/>
       <use xlink:href="#DejaVuSans-35" transform="translate(454.4375 0)"/>
      </g>
     </g>
    </g>
    <g id="xtick_4">
     <g id="line2d_4">
      <path d="M 546.781787 311.091494 
L 546.781787 23.837812 
" clip-path="url(#p7d54c830ca)" style="fill: none; stroke-dasharray: 2.96,1.28; stroke-dashoffset: 0; stroke: #cccccc; stroke-opacity: 0.7; stroke-width: 0.8"/>
     </g>
     <g id="text_4">
      <!-- 5 000 EUR -->
      <g style="fill: #262626" transform="translate(523.205303 326.229384) scale(0.09 -0.09)">
       <defs>
        <path id="DejaVuSans-18" d="M 691 4666 
L 3169 4666 
L 3169 4134 
L 1269 4134 
L 1269 2991 
Q 1406 3038 1543 3061 
Q 1681 3084 1819 3084 
Q 2600 3084 3056 2656 
Q 3513 2228 3513 1497 
Q 3513 744 3044 326 
Q 2575 -91 1722 -91 
Q 1428 -91 1123 -41 
Q 819 9 494 109 
L 494 744 
Q 775 591 1075 516 
Q 1375 441 1709 441 
Q 2250 441 2565 725 
Q 2881 1009 2881 1497 
Q 2881 1984 2565 2268 
Q 2250 2553 1709 2553 
Q 1456 2553 1204 2497 
Q 953 2441 691 2322 
L 691 4666 
z
" transform="scale(0.015625)"/>
       </defs>
       <use xlink:href="#DejaVuSans-18"/>
       <use xlink:href="#DejaVuSans-3" transform="translate(63.625 0)"/>
       <use xlink:href="#DejaVuSans-13" transform="translate(95.40625 0)"/>
       <use xlink:href="#DejaVuSans-13" transform="translate(159.03125 0)"/>
       <use xlink:href="#DejaVuSans-13" transform="translate(222.65625 0)"/>
       <use xlink:href="#DejaVuSans-3" transform="translate(286.28125 0)"/>
       <use xlink:href="#DejaVuSans-28" transform="translate(318.0625 0)"/>
       <use xlink:href="#DejaVuSans-38" transform="translate(381.25 0)"/>
       <use xlink:href="#DejaVuSans-35" transform="translate(454.4375 0)"/>
      </g>
     </g>
    </g>
    <g id="xtick_5">
     <g id="line2d_5">
      <path d="M 662.717777 311.091494 
L 662.717777 23.837812 
" clip-path="url(#p7d54c830ca)" style="fill: none; stroke-dasharray: 2.96,1.28; stroke-dashoffset: 0; stroke: #cccccc; stroke-opacity: 0.7; stroke-width: 0.8"/>
     </g>
     <g id="text_5">
      <!-- 6 000 EUR -->
      <g style="fill: #262626" transform="translate(639.141293 326.229384) scale(0.09 -0.09)">
       <defs>
        <path id="DejaVuSans-19" d="M 2113 2584 
Q 1688 2584 1439 2293 
Q 1191 2003 1191 1497 
Q 1191 994 1439 701 
Q 1688 409 2113 409 
Q 2538 409 2786 701 
Q 3034 994 3034 1497 
Q 3034 2003 2786 2293 
Q 2538 2584 2113 2584 
z
M 3366 4563 
L 3366 3988 
Q 3128 4100 2886 4159 
Q 2644 4219 2406 4219 
Q 1781 4219 1451 3797 
Q 1122 3375 1075 2522 
Q 1259 2794 1537 2939 
Q 1816 3084 2150 3084 
Q 2853 3084 3261 2657 
Q 3669 2231 3669 1497 
Q 3669 778 3244 343 
Q 2819 -91 2113 -91 
Q 1303 -91 875 529 
Q 447 1150 447 2328 
Q 447 3434 972 4092 
Q 1497 4750 2381 4750 
Q 2619 4750 2861 4703 
Q 3103 4656 3366 4563 
z
" transform="scale(0.015625)"/>
       </defs>
       <use xlink:href="#DejaVuSans-19"/>
       <use xlink:href="#DejaVuSans-3" transform="translate(63.625 0)"/>
       <use xlink:href="#DejaVuSans-13" transform="translate(95.40625 0)"/>
       <use xlink:href="#DejaVuSans-13" transform="translate(159.03125 0)"/>
       <use xlink:href="#DejaVuSans-13" transform="translate(222.65625 0)"/>
       <use xlink:href="#DejaVuSans-3" transform="translate(286.28125 0)"/>
       <use xlink:href="#DejaVuSans-28" transform="translate(318.0625 0)"/>
       <use xlink:href="#DejaVuSans-38" transform="translate(381.25 0)"/>
       <use xlink:href="#DejaVuSans-35" transform="translate(454.4375 0)"/>
      </g>
     </g>
    </g>
    <g id="text_6">
     <!-- Salaire mensuel net (euros) -->
     <g style="fill: #262626" transform="translate(337.627415 341.509619) scale(0.12 -0.12)">
      <defs>
       <path id="DejaVuSans-36" d="M 3425 4513 
L 3425 3897 
Q 3066 4069 2747 4153 
Q 2428 4238 2131 4238 
Q 1616 4238 1336 4038 
Q 1056 3838 1056 3469 
Q 1056 3159 1242 3001 
Q 1428 2844 1947 2747 
L 2328 2669 
Q 3034 2534 3370 2195 
Q 3706 1856 3706 1288 
Q 3706 609 3251 259 
Q 2797 -91 1919 -91 
Q 1588 -91 1214 -16 
Q 841 59 441 206 
L 441 856 
Q 825 641 1194 531 
Q 1563 422 1919 422 
Q 2459 422 2753 634 
Q 3047 847 3047 1241 
Q 3047 1584 2836 1778 
Q 2625 1972 2144 2069 
L 1759 2144 
Q 1053 2284 737 2584 
Q 422 2884 422 3419 
Q 422 4038 858 4394 
Q 1294 4750 2059 4750 
Q 2388 4750 2728 4690 
Q 3069 4631 3425 4513 
z
" transform="scale(0.015625)"/>
       <path id="DejaVuSans-44" d="M 2194 1759 
Q 1497 1759 1228 1600 
Q 959 1441 959 1056 
Q 959 750 1161 570 
Q 1363 391 1709 391 
Q 2188 391 2477 730 
Q 2766 1069 2766 1631 
L 2766 1759 
L 2194 1759 
z
M 3341 1997 
L 3341 0 
L 2766 0 
L 2766 531 
Q 2569 213 2275 61 
Q 1981 -91 1556 -91 
Q 1019 -91 701 211 
Q 384 513 384 1019 
Q 384 1609 779 1909 
Q 1175 2209 1959 2209 
L 2766 2209 
L 2766 2266 
Q 2766 2663 2505 2880 
Q 2244 3097 1772 3097 
Q 1472 3097 1187 3025 
Q 903 2953 641 2809 
L 641 3341 
Q 956 3463 1253 3523 
Q 1550 3584 1831 3584 
Q 2591 3584 2966 3190 
Q 3341 2797 3341 1997 
z
" transform="scale(0.015625)"/>
       <path id="DejaVuSans-4f" d="M 603 4863 
L 1178 4863 
L 1178 0 
L 603 0 
L 603 4863 
z
" transform="scale(0.015625)"/>
       <path id="DejaVuSans-4c" d="M 603 3500 
L 1178 3500 
L 1178 0 
L 603 0 
L 603 3500 
z
M 603 4863 
L 1178 4863 
L 1178 4134 
L 603 4134 
L 603 4863 
z
" transform="scale(0.015625)"/>
       <path id="DejaVuSans-55" d="M 2631 2963 
Q 2534 3019 2420 3045 
Q 2306 3072 2169 3072 
Q 1681 3072 1420 2755 
Q 1159 2438 1159 1844 
L 1159 0 
L 581 0 
L 581 3500 
L 1159 3500 
L 1159 2956 
Q 1341 3275 1631 3429 
Q 1922 3584 2338 3584 
Q 2397 3584 2469 3576 
Q 2541 3569 2628 3553 
L 2631 2963 
z
" transform="scale(0.015625)"/>
       <path id="DejaVuSans-48" d="M 3597 1894 
L 3597 1613 
L 953 1613 
Q 991 1019 1311 708 
Q 1631 397 2203 397 
Q 2534 397 2845 478 
Q 3156 559 3463 722 
L 3463 178 
Q 3153 47 2828 -22 
Q 2503 -91 2169 -91 
Q 1331 -91 842 396 
Q 353 884 353 1716 
Q 353 2575 817 3079 
Q 1281 3584 2069 3584 
Q 2775 3584 3186 3129 
Q 3597 2675 3597 1894 
z
M 3022 2063 
Q 3016 2534 2758 2815 
Q 2500 3097 2075 3097 
Q 1594 3097 1305 2825 
Q 1016 2553 972 2059 
L 3022 2063 
z
" transform="scale(0.015625)"/>
       <path id="DejaVuSans-50" d="M 3328 2828 
Q 3544 3216 3844 3400 
Q 4144 3584 4550 3584 
Q 5097 3584 5394 3201 
Q 5691 2819 5691 2113 
L 5691 0 
L 5113 0 
L 5113 2094 
Q 5113 2597 4934 2840 
Q 4756 3084 4391 3084 
Q 3944 3084 3684 2787 
Q 3425 2491 3425 1978 
L 3425 0 
L 2847 0 
L 2847 2094 
Q 2847 2600 2669 2842 
Q 2491 3084 2119 3084 
Q 1678 3084 1418 2786 
Q 1159 2488 1159 1978 
L 1159 0 
L 581 0 
L 581 3500 
L 1159 3500 
L 1159 2956 
Q 1356 3278 1631 3431 
Q 1906 3584 2284 3584 
Q 2666 3584 2933 3390 
Q 3200 3197 3328 2828 
z
" transform="scale(0.015625)"/>
       <path id="DejaVuSans-51" d="M 3513 2113 
L 3513 0 
L 2938 0 
L 2938 2094 
Q 2938 2591 2744 2837 
Q 2550 3084 2163 3084 
Q 1697 3084 1428 2787 
Q 1159 2491 1159 1978 
L 1159 0 
L 581 0 
L 581 3500 
L 1159 3500 
L 1159 2956 
Q 1366 3272 1645 3428 
Q 1925 3584 2291 3584 
Q 2894 3584 3203 3211 
Q 3513 2838 3513 2113 
z
" transform="scale(0.015625)"/>
       <path id="DejaVuSans-56" d="M 2834 3397 
L 2834 2853 
Q 2591 2978 2328 3040 
Q 2066 3103 1784 3103 
Q 1356 3103 1142 2972 
Q 928 2841 928 2578 
Q 928 2378 1081 2264 
Q 1234 2150 1697 2047 
L 1894 2003 
Q 2506 1872 2764 1633 
Q 3022 1394 3022 966 
Q 3022 478 2636 193 
Q 2250 -91 1575 -91 
Q 1294 -91 989 -36 
Q 684 19 347 128 
L 347 722 
Q 666 556 975 473 
Q 1284 391 1588 391 
Q 1994 391 2212 530 
Q 2431 669 2431 922 
Q 2431 1156 2273 1281 
Q 2116 1406 1581 1522 
L 1381 1569 
Q 847 1681 609 1914 
Q 372 2147 372 2553 
Q 372 3047 722 3315 
Q 1072 3584 1716 3584 
Q 2034 3584 2315 3537 
Q 2597 3491 2834 3397 
z
" transform="scale(0.015625)"/>
       <path id="DejaVuSans-58" d="M 544 1381 
L 544 3500 
L 1119 3500 
L 1119 1403 
Q 1119 906 1312 657 
Q 1506 409 1894 409 
Q 2359 409 2629 706 
Q 2900 1003 2900 1516 
L 2900 3500 
L 3475 3500 
L 3475 0 
L 2900 0 
L 2900 538 
Q 2691 219 2414 64 
Q 2138 -91 1772 -91 
Q 1169 -91 856 284 
Q 544 659 544 1381 
z
M 1991 3584 
L 1991 3584 
z
" transform="scale(0.015625)"/>
       <path id="DejaVuSans-57" d="M 1172 4494 
L 1172 3500 
L 2356 3500 
L 2356 3053 
L 1172 3053 
L 1172 1153 
Q 1172 725 1289 603 
Q 1406 481 1766 481 
L 2356 481 
L 2356 0 
L 1766 0 
Q 1100 0 847 248 
Q 594 497 594 1153 
L 594 3053 
L 172 3053 
L 172 3500 
L 594 3500 
L 594 4494 
L 1172 4494 
z
" transform="scale(0.015625)"/>
       <path id="DejaVuSans-b" d="M 1984 4856 
Q 1566 4138 1362 3434 
Q 1159 2731 1159 2009 
Q 1159 1288 1364 580 
Q 1569 -128 1984 -844 
L 1484 -844 
Q 1016 -109 783 600 
Q 550 1309 550 2009 
Q 550 2706 781 3412 
Q 1013 4119 1484 4856 
L 1984 4856 
z
" transform="scale(0.015625)"/>
       <path id="DejaVuSans-52" d="M 1959 3097 
Q 1497 3097 1228 2736 
Q 959 2375 959 1747 
Q 959 1119 1226 758 
Q 1494 397 1959 397 
Q 2419 397 2687 759 
Q 2956 1122 2956 1747 
Q 2956 2369 2687 2733 
Q 2419 3097 1959 3097 
z
M 1959 3584 
Q 2709 3584 3137 3096 
Q 3566 2609 3566 1747 
Q 3566 888 3137 398 
Q 2709 -91 1959 -91 
Q 1206 -91 779 398 
Q 353 888 353 1747 
Q 353 2609 779 3096 
Q 1206 3584 1959 3584 
z
" transform="scale(0.015625)"/>
       <path id="DejaVuSans-c" d="M 513 4856 
L 1013 4856 
Q 1481 4119 1714 3412 
Q 1947 2706 1947 2009 
Q 1947 1309 1714 600 
Q 1481 -109 1013 -844 
L 513 -844 
Q 928 -128 1133 580 
Q 1338 1288 1338 2009 
Q 1338 2731 1133 3434 
Q 928 4138 513 4856 
z
" transform="scale(0.015625)"/>
      </defs>
      <use xlink:href="#DejaVuSans-36"/>
      <use xlink:href="#DejaVuSans-44" transform="translate(63.484375 0)"/>
      <use xlink:href="#DejaVuSans-4f" transform="translate(124.765625 0)"/>
      <use xlink:href="#DejaVuSans-44" transform="translate(152.546875 0)"/>
      <use xlink:href="#DejaVuSans-4c" transform="translate(213.828125 0)"/>
      <use xlink:href="#DejaVuSans-55" transform="translate(241.609375 0)"/>
      <use xlink:href="#DejaVuSans-48" transform="translate(280.515625 0)"/>
      <use xlink:href="#DejaVuSans-3" transform="translate(342.046875 0)"/>
      <use xlink:href="#DejaVuSans-50" transform="translate(373.828125 0)"/>
      <use xlink:href="#DejaVuSans-48" transform="translate(471.234375 0)"/>
      <use xlink:href="#DejaVuSans-51" transform="translate(532.765625 0)"/>
      <use xlink:href="#DejaVuSans-56" transform="translate(596.140625 0)"/>
      <use xlink:href="#DejaVuSans-58" transform="translate(648.234375 0)"/>
      <use xlink:href="#DejaVuSans-48" transform="translate(711.609375 0)"/>
      <use xlink:href="#DejaVuSans-4f" transform="translate(773.140625 0)"/>
      <use xlink:href="#DejaVuSans-3" transform="translate(800.921875 0)"/>
      <use xlink:href="#DejaVuSans-51" transform="translate(832.703125 0)"/>
      <use xlink:href="#DejaVuSans-48" transform="translate(896.078125 0)"/>
      <use xlink:href="#DejaVuSans-57" transform="translate(957.609375 0)"/>
      <use xlink:href="#DejaVuSans-3" transform="translate(996.8125 0)"/>
      <use xlink:href="#DejaVuSans-b" transform="translate(1028.59375 0)"/>
      <use xlink:href="#DejaVuSans-48" transform="translate(1067.609375 0)"/>
      <use xlink:href="#DejaVuSans-58" transform="translate(1129.140625 0)"/>
      <use xlink:href="#DejaVuSans-55" transform="translate(1192.515625 0)"/>
      <use xlink:href="#DejaVuSans-52" transform="translate(1231.421875 0)"/>
      <use xlink:href="#DejaVuSans-56" transform="translate(1292.609375 0)"/>
      <use xlink:href="#DejaVuSans-c" transform="translate(1344.703125 0)"/>
     </g>
    </g>
   </g>
   <g id="matplotlib.axis_2">
    <g id="ytick_1">
     <g id="line2d_6">
      <path d="M 90.106406 298.034508 
L 751.194673 298.034508 
" clip-path="url(#p7d54c830ca)" style="fill: none; stroke-dasharray: 2.96,1.28; stroke-dashoffset: 0; stroke: #cccccc; stroke-opacity: 0.7; stroke-width: 0.8"/>
     </g>
     <g id="text_7">
      <!-- 100 000 EUR -->
      <g style="fill: #262626" transform="translate(23.200938 301.453454) scale(0.09 -0.09)">
       <defs>
        <path id="DejaVuSans-14" d="M 794 531 
L 1825 531 
L 1825 4091 
L 703 3866 
L 703 4441 
L 1819 4666 
L 2450 4666 
L 2450 531 
L 3481 531 
L 3481 0 
L 794 0 
L 794 531 
z
" transform="scale(0.015625)"/>
       </defs>
       <use xlink:href="#DejaVuSans-14"/>
       <use xlink:href="#DejaVuSans-13" transform="translate(63.625 0)"/>
       <use xlink:href="#DejaVuSans-13" transform="translate(127.25 0)"/>
       <use xlink:href="#DejaVuSans-3" transform="translate(190.875 0)"/>
       <use xlink:href="#DejaVuSans-13" transform="translate(222.65625 0)"/>
       <use xlink:href="#DejaVuSans-13" transform="translate(286.28125 0)"/>
       <use xlink:href="#DejaVuSans-13" transform="translate(349.90625 0)"/>
       <use xlink:href="#DejaVuSans-3" transform="translate(413.53125 0)"/>
       <use xlink:href="#DejaVuSans-28" transform="translate(445.3125 0)"/>
       <use xlink:href="#DejaVuSans-38" transform="translate(508.5 0)"/>
       <use xlink:href="#DejaVuSans-35" transform="translate(581.6875 0)"/>
      </g>
     </g>
    </g>
    <g id="ytick_2">
     <g id="line2d_7">
      <path d="M 90.106406 254.511223 
L 751.194673 254.511223 
" clip-path="url(#p7d54c830ca)" style="fill: none; stroke-dasharray: 2.96,1.28; stroke-dashoffset: 0; stroke: #cccccc; stroke-opacity: 0.7; stroke-width: 0.8"/>
     </g>
     <g id="text_8">
      <!-- 150 000 EUR -->
      <g style="fill: #262626" transform="translate(23.200938 257.930169) scale(0.09 -0.09)">
       <use xlink:href="#DejaVuSans-14"/>
       <use xlink:href="#DejaVuSans-18" transform="translate(63.625 0)"/>
       <use xlink:href="#DejaVuSans-13" transform="translate(127.25 0)"/>
       <use xlink:href="#DejaVuSans-3" transform="translate(190.875 0)"/>
       <use xlink:href="#DejaVuSans-13" transform="translate(222.65625 0)"/>
       <use xlink:href="#DejaVuSans-13" transform="translate(286.28125 0)"/>
       <use xlink:href="#DejaVuSans-13" transform="translate(349.90625 0)"/>
       <use xlink:href="#DejaVuSans-3" transform="translate(413.53125 0)"/>
       <use xlink:href="#DejaVuSans-28" transform="translate(445.3125 0)"/>
       <use xlink:href="#DejaVuSans-38" transform="translate(508.5 0)"/>
       <use xlink:href="#DejaVuSans-35" transform="translate(581.6875 0)"/>
      </g>
     </g>
    </g>
    <g id="ytick_3">
     <g id="line2d_8">
      <path d="M 90.106406 210.987938 
L 751.194673 210.987938 
" clip-path="url(#p7d54c830ca)" style="fill: none; stroke-dasharray: 2.96,1.28; stroke-dashoffset: 0; stroke: #cccccc; stroke-opacity: 0.7; stroke-width: 0.8"/>
     </g>
     <g id="text_9">
      <!-- 200 000 EUR -->
      <g style="fill: #262626" transform="translate(23.200938 214.406883) scale(0.09 -0.09)">
       <use xlink:href="#DejaVuSans-15"/>
       <use xlink:href="#DejaVuSans-13" transform="translate(63.625 0)"/>
       <use xlink:href="#DejaVuSans-13" transform="translate(127.25 0)"/>
       <use xlink:href="#DejaVuSans-3" transform="translate(190.875 0)"/>
       <use xlink:href="#DejaVuSans-13" transform="translate(222.65625 0)"/>
       <use xlink:href="#DejaVuSans-13" transform="translate(286.28125 0)"/>
       <use xlink:href="#DejaVuSans-13" transform="translate(349.90625 0)"/>
       <use xlink:href="#DejaVuSans-3" transform="translate(413.53125 0)"/>
       <use xlink:href="#DejaVuSans-28" transform="translate(445.3125 0)"/>
       <use xlink:href="#DejaVuSans-38" transform="translate(508.5 0)"/>
       <use xlink:href="#DejaVuSans-35" transform="translate(581.6875 0)"/>
      </g>
     </g>
    </g>
    <g id="ytick_4">
     <g id="line2d_9">
      <path d="M 90.106406 167.464653 
L 751.194673 167.464653 
" clip-path="url(#p7d54c830ca)" style="fill: none; stroke-dasharray: 2.96,1.28; stroke-dashoffset: 0; stroke: #cccccc; stroke-opacity: 0.7; stroke-width: 0.8"/>
     </g>
     <g id="text_10">
      <!-- 250 000 EUR -->
      <g style="fill: #262626" transform="translate(23.200938 170.883598) scale(0.09 -0.09)">
       <use xlink:href="#DejaVuSans-15"/>
       <use xlink:href="#DejaVuSans-18" transform="translate(63.625 0)"/>
       <use xlink:href="#DejaVuSans-13" transform="translate(127.25 0)"/>
       <use xlink:href="#DejaVuSans-3" transform="translate(190.875 0)"/>
       <use xlink:href="#DejaVuSans-13" transform="translate(222.65625 0)"/>
       <use xlink:href="#DejaVuSans-13" transform="translate(286.28125 0)"/>
       <use xlink:href="#DejaVuSans-13" transform="translate(349.90625 0)"/>
       <use xlink:href="#DejaVuSans-3" transform="translate(413.53125 0)"/>
       <use xlink:href="#DejaVuSans-28" transform="translate(445.3125 0)"/>
       <use xlink:href="#DejaVuSans-38" transform="translate(508.5 0)"/>
       <use xlink:href="#DejaVuSans-35" transform="translate(581.6875 0)"/>
      </g>
     </g>
    </g>
    <g id="ytick_5">
     <g id="line2d_10">
      <path d="M 90.106406 123.941368 
L 751.194673 123.941368 
" clip-path="url(#p7d54c830ca)" style="fill: none; stroke-dasharray: 2.96,1.28; stroke-dashoffset: 0; stroke: #cccccc; stroke-opacity: 0.7; stroke-width: 0.8"/>
     </g>
     <g id="text_11">
      <!-- 300 000 EUR -->
      <g style="fill: #262626" transform="translate(23.200938 127.360313) scale(0.09 -0.09)">
       <use xlink:href="#DejaVuSans-16"/>
       <use xlink:href="#DejaVuSans-13" transform="translate(63.625 0)"/>
       <use xlink:href="#DejaVuSans-13" transform="translate(127.25 0)"/>
       <use xlink:href="#DejaVuSans-3" transform="translate(190.875 0)"/>
       <use xlink:href="#DejaVuSans-13" transform="translate(222.65625 0)"/>
       <use xlink:href="#DejaVuSans-13" transform="translate(286.28125 0)"/>
       <use xlink:href="#DejaVuSans-13" transform="translate(349.90625 0)"/>
       <use xlink:href="#DejaVuSans-3" transform="translate(413.53125 0)"/>
       <use xlink:href="#DejaVuSans-28" transform="translate(445.3125 0)"/>
       <use xlink:href="#DejaVuSans-38" transform="translate(508.5 0)"/>
       <use xlink:href="#DejaVuSans-35" transform="translate(581.6875 0)"/>
      </g>
     </g>
    </g>
    <g id="ytick_6">
     <g id="line2d_11">
      <path d="M 90.106406 80.418083 
L 751.194673 80.418083 
" clip-path="url(#p7d54c830ca)" style="fill: none; stroke-dasharray: 2.96,1.28; stroke-dashoffset: 0; stroke: #cccccc; stroke-opacity: 0.7; stroke-width: 0.8"/>
     </g>
     <g id="text_12">
      <!-- 350 000 EUR -->
      <g style="fill: #262626" transform="translate(23.200938 83.837028) scale(0.09 -0.09)">
       <use xlink:href="#DejaVuSans-16"/>
       <use xlink:href="#DejaVuSans-18" transform="translate(63.625 0)"/>
       <use xlink:href="#DejaVuSans-13" transform="translate(127.25 0)"/>
       <use xlink:href="#DejaVuSans-3" transform="translate(190.875 0)"/>
       <use xlink:href="#DejaVuSans-13" transform="translate(222.65625 0)"/>
       <use xlink:href="#DejaVuSans-13" transform="translate(286.28125 0)"/>
       <use xlink:href="#DejaVuSans-13" transform="translate(349.90625 0)"/>
       <use xlink:href="#DejaVuSans-3" transform="translate(413.53125 0)"/>
       <use xlink:href="#DejaVuSans-28" transform="translate(445.3125 0)"/>
       <use xlink:href="#DejaVuSans-38" transform="translate(508.5 0)"/>
       <use xlink:href="#DejaVuSans-35" transform="translate(581.6875 0)"/>
      </g>
     </g>
    </g>
    <g id="ytick_7">
     <g id="line2d_12">
      <path d="M 90.106406 36.894798 
L 751.194673 36.894798 
" clip-path="url(#p7d54c830ca)" style="fill: none; stroke-dasharray: 2.96,1.28; stroke-dashoffset: 0; stroke: #cccccc; stroke-opacity: 0.7; stroke-width: 0.8"/>
     </g>
     <g id="text_13">
      <!-- 400 000 EUR -->
      <g style="fill: #262626" transform="translate(23.200938 40.313743) scale(0.09 -0.09)">
       <use xlink:href="#DejaVuSans-17"/>
       <use xlink:href="#DejaVuSans-13" transform="translate(63.625 0)"/>
       <use xlink:href="#DejaVuSans-13" transform="translate(127.25 0)"/>
       <use xlink:href="#DejaVuSans-3" transform="translate(190.875 0)"/>
       <use xlink:href="#DejaVuSans-13" transform="translate(222.65625 0)"/>
       <use xlink:href="#DejaVuSans-13" transform="translate(286.28125 0)"/>
       <use xlink:href="#DejaVuSans-13" transform="translate(349.90625 0)"/>
       <use xlink:href="#DejaVuSans-3" transform="translate(413.53125 0)"/>
       <use xlink:href="#DejaVuSans-28" transform="translate(445.3125 0)"/>
       <use xlink:href="#DejaVuSans-38" transform="translate(508.5 0)"/>
       <use xlink:href="#DejaVuSans-35" transform="translate(581.6875 0)"/>
      </g>
     </g>
    </g>
    <g id="text_14">
     <!-- Capital empruntable (euros) -->
     <g style="fill: #262626" transform="translate(16.318125 252.238091) rotate(-90) scale(0.12 -0.12)">
      <defs>
       <path id="DejaVuSans-26" d="M 4122 4306 
L 4122 3641 
Q 3803 3938 3442 4084 
Q 3081 4231 2675 4231 
Q 1875 4231 1450 3742 
Q 1025 3253 1025 2328 
Q 1025 1406 1450 917 
Q 1875 428 2675 428 
Q 3081 428 3442 575 
Q 3803 722 4122 1019 
L 4122 359 
Q 3791 134 3420 21 
Q 3050 -91 2638 -91 
Q 1578 -91 968 557 
Q 359 1206 359 2328 
Q 359 3453 968 4101 
Q 1578 4750 2638 4750 
Q 3056 4750 3426 4639 
Q 3797 4528 4122 4306 
z
" transform="scale(0.015625)"/>
       <path id="DejaVuSans-53" d="M 1159 525 
L 1159 -1331 
L 581 -1331 
L 581 3500 
L 1159 3500 
L 1159 2969 
Q 1341 3281 1617 3432 
Q 1894 3584 2278 3584 
Q 2916 3584 3314 3078 
Q 3713 2572 3713 1747 
Q 3713 922 3314 415 
Q 2916 -91 2278 -91 
Q 1894 -91 1617 61 
Q 1341 213 1159 525 
z
M 3116 1747 
Q 3116 2381 2855 2742 
Q 2594 3103 2138 3103 
Q 1681 3103 1420 2742 
Q 1159 2381 1159 1747 
Q 1159 1113 1420 752 
Q 1681 391 2138 391 
Q 2594 391 2855 752 
Q 3116 1113 3116 1747 
z
" transform="scale(0.015625)"/>
       <path id="DejaVuSans-45" d="M 3116 1747 
Q 3116 2381 2855 2742 
Q 2594 3103 2138 3103 
Q 1681 3103 1420 2742 
Q 1159 2381 1159 1747 
Q 1159 1113 1420 752 
Q 1681 391 2138 391 
Q 2594 391 2855 752 
Q 3116 1113 3116 1747 
z
M 1159 2969 
Q 1341 3281 1617 3432 
Q 1894 3584 2278 3584 
Q 2916 3584 3314 3078 
Q 3713 2572 3713 1747 
Q 3713 922 3314 415 
Q 2916 -91 2278 -91 
Q 1894 -91 1617 61 
Q 1341 213 1159 525 
L 1159 0 
L 581 0 
L 581 4863 
L 1159 4863 
L 1159 2969 
z
" transform="scale(0.015625)"/>
      </defs>
      <use xlink:href="#DejaVuSans-26"/>
      <use xlink:href="#DejaVuSans-44" transform="translate(69.828125 0)"/>
      <use xlink:href="#DejaVuSans-53" transform="translate(131.109375 0)"/>
      <use xlink:href="#DejaVuSans-4c" transform="translate(194.59375 0)"/>
      <use xlink:href="#DejaVuSans-57" transform="translate(222.375 0)"/>
      <use xlink:href="#DejaVuSans-44" transform="translate(261.578125 0)"/>
      <use xlink:href="#DejaVuSans-4f" transform="translate(322.859375 0)"/>
      <use xlink:href="#DejaVuSans-3" transform="translate(350.640625 0)"/>
      <use xlink:href="#DejaVuSans-48" transform="translate(382.421875 0)"/>
      <use xlink:href="#DejaVuSans-50" transform="translate(443.953125 0)"/>
      <use xlink:href="#DejaVuSans-53" transform="translate(541.359375 0)"/>
      <use xlink:href="#DejaVuSans-55" transform="translate(604.84375 0)"/>
      <use xlink:href="#DejaVuSans-58" transform="translate(645.953125 0)"/>
      <use xlink:href="#DejaVuSans-51" transform="translate(709.328125 0)"/>
      <use xlink:href="#DejaVuSans-57" transform="translate(772.703125 0)"/>
      <use xlink:href="#DejaVuSans-44" transform="translate(811.90625 0)"/>
      <use xlink:href="#DejaVuSans-45" transform="translate(873.1875 0)"/>
      <use xlink:href="#DejaVuSans-4f" transform="translate(936.671875 0)"/>
      <use xlink:href="#DejaVuSans-48" transform="translate(964.453125 0)"/>
      <use xlink:href="#DejaVuSans-3" transform="translate(1025.984375 0)"/>
      <use xlink:href="#DejaVuSans-b" transform="translate(1057.765625 0)"/>
      <use xlink:href="#DejaVuSans-48" transform="translate(1096.78125 0)"/>
      <use xlink:href="#DejaVuSans-58" transform="translate(1158.3125 0)"/>
      <use xlink:href="#DejaVuSans-55" transform="translate(1221.6875 0)"/>
      <use xlink:href="#DejaVuSans-52" transform="translate(1260.59375 0)"/>
      <use xlink:href="#DejaVuSans-56" transform="translate(1321.78125 0)"/>
      <use xlink:href="#DejaVuSans-c" transform="translate(1373.875 0)"/>
     </g>
    </g>
   </g>
   <g id="line2d_13">
    <path d="M 120.155873 298.034508 
L 124.793874 295.396733 
L 129.431875 292.758959 
L 134.069876 290.121184 
L 138.707877 287.483409 
L 143.345878 284.845634 
L 147.983879 282.207859 
L 152.62188 279.570084 
L 157.259882 276.932309 
L 161.897883 274.294535 
L 166.535884 271.65676 
L 171.173885 269.018985 
L 175.811886 266.38121 
L 180.449887 263.743435 
L 185.087888 261.10566 
L 189.725889 258.467885 
L 194.36389 255.830111 
L 199.001891 253.192336 
L 203.639892 250.554561 
L 208.277893 247.916786 
L 212.915894 245.279011 
L 217.553896 242.641236 
L 222.191897 240.003462 
L 226.829898 237.365687 
L 231.467899 234.727912 
L 236.1059 232.090137 
L 240.743901 229.452362 
L 245.381902 226.814587 
L 250.019903 224.176812 
L 254.657904 221.539038 
L 259.295905 218.901263 
L 263.933906 216.263488 
L 268.571907 213.625713 
L 273.209908 210.987938 
L 277.84791 208.350163 
L 282.485911 205.712388 
L 287.123912 203.074614 
L 291.761913 200.436839 
L 296.399914 197.799064 
L 301.037915 195.161289 
L 305.675916 192.523514 
L 310.313917 189.885739 
L 314.951918 187.247965 
L 319.589919 184.61019 
L 324.22792 181.972415 
L 328.865921 179.33464 
L 333.503922 176.696865 
L 338.141924 174.05909 
L 342.779925 171.421315 
L 347.417926 168.783541 
L 352.055927 166.145766 
L 356.693928 163.507991 
L 361.331929 160.870216 
L 365.96993 158.232441 
L 370.607931 155.594666 
L 375.245932 152.956891 
L 379.883933 150.319117 
L 384.521934 147.681342 
L 389.159935 145.043567 
L 393.797936 142.405792 
L 398.435938 139.768017 
L 403.073939 137.130242 
L 407.71194 134.492467 
L 412.349941 131.854693 
L 416.987942 129.216918 
L 421.625943 126.579143 
L 426.263944 123.941368 
L 430.901945 121.303593 
L 435.539946 118.665818 
L 440.177947 116.028044 
L 444.815948 113.390269 
L 449.453949 110.752494 
L 454.091951 108.114719 
L 458.729952 105.476944 
L 463.367953 102.839169 
L 468.005954 100.201394 
L 472.643955 97.56362 
L 477.281956 94.925845 
L 481.919957 92.28807 
L 486.557958 89.650295 
L 491.195959 87.01252 
L 495.83396 84.374745 
L 500.471961 81.73697 
L 505.109962 79.099196 
L 509.747963 76.461421 
L 514.385965 73.823646 
L 519.023966 71.185871 
L 523.661967 68.548096 
L 528.299968 65.910321 
L 532.937969 63.272547 
L 537.57597 60.634772 
L 542.213971 57.996997 
L 546.851972 55.359222 
L 551.489973 52.721447 
L 556.127974 50.083672 
L 560.765975 47.445897 
L 565.403976 44.808123 
L 570.041977 42.170348 
L 574.679979 39.532573 
L 579.31798 36.894798 
" clip-path="url(#p7d54c830ca)" style="fill: none; stroke: #1f77b4; stroke-width: 2; stroke-linecap: round"/>
   </g>
   <g id="line2d_14">
    <path d="M 128.599558 298.034508 
L 133.493428 295.396733 
L 138.387298 292.758959 
L 143.281169 290.121184 
L 148.175039 287.483409 
L 153.068909 284.845634 
L 157.96278 282.207859 
L 162.85665 279.570084 
L 167.75052 276.932309 
L 172.644391 274.294535 
L 177.538261 271.65676 
L 182.432131 269.018985 
L 187.326001 266.38121 
L 192.219872 263.743435 
L 197.113742 261.10566 
L 202.007612 258.467885 
L 206.901483 255.830111 
L 211.795353 253.192336 
L 216.689223 250.554561 
L 221.583094 247.916786 
L 226.476964 245.279011 
L 231.370834 242.641236 
L 236.264705 240.003462 
L 241.158575 237.365687 
L 246.052445 234.727912 
L 250.946316 232.090137 
L 255.840186 229.452362 
L 260.734056 226.814587 
L 265.627926 224.176812 
L 270.521797 221.539038 
L 275.415667 218.901263 
L 280.309537 216.263488 
L 285.203408 213.625713 
L 290.097278 210.987938 
L 294.991148 208.350163 
L 299.885019 205.712388 
L 304.778889 203.074614 
L 309.672759 200.436839 
L 314.56663 197.799064 
L 319.4605 195.161289 
L 324.35437 192.523514 
L 329.248241 189.885739 
L 334.142111 187.247965 
L 339.035981 184.61019 
L 343.929851 181.972415 
L 348.823722 179.33464 
L 353.717592 176.696865 
L 358.611462 174.05909 
L 363.505333 171.421315 
L 368.399203 168.783541 
L 373.293073 166.145766 
L 378.186944 163.507991 
L 383.080814 160.870216 
L 387.974684 158.232441 
L 392.868555 155.594666 
L 397.762425 152.956891 
L 402.656295 150.319117 
L 407.550166 147.681342 
L 412.444036 145.043567 
L 417.337906 142.405792 
L 422.231777 139.768017 
L 427.125647 137.130242 
L 432.019517 134.492467 
L 436.913387 131.854693 
L 441.807258 129.216918 
L 446.701128 126.579143 
L 451.594998 123.941368 
L 456.488869 121.303593 
L 461.382739 118.665818 
L 466.276609 116.028044 
L 471.17048 113.390269 
L 476.06435 110.752494 
L 480.95822 108.114719 
L 485.852091 105.476944 
L 490.745961 102.839169 
L 495.639831 100.201394 
L 500.533702 97.56362 
L 505.427572 94.925845 
L 510.321442 92.28807 
L 515.215312 89.650295 
L 520.109183 87.01252 
L 525.003053 84.374745 
L 529.896923 81.73697 
L 534.790794 79.099196 
L 539.684664 76.461421 
L 544.578534 73.823646 
L 549.472405 71.185871 
L 554.366275 68.548096 
L 559.260145 65.910321 
L 564.154016 63.272547 
L 569.047886 60.634772 
L 573.941756 57.996997 
L 578.835627 55.359222 
L 583.729497 52.721447 
L 588.623367 50.083672 
L 593.517237 47.445897 
L 598.411108 44.808123 
L 603.304978 42.170348 
L 608.198848 39.532573 
L 613.092719 36.894798 
" clip-path="url(#p7d54c830ca)" style="fill: none; stroke: #ff7f0e; stroke-width: 2; stroke-linecap: round"/>
   </g>
   <g id="line2d_15">
    <path d="M 137.327008 298.034508 
L 142.485346 295.396733 
L 147.643685 292.758959 
L 152.802023 290.121184 
L 157.960362 287.483409 
L 163.1187 284.845634 
L 168.277038 282.207859 
L 173.435377 279.570084 
L 178.593715 276.932309 
L 183.752054 274.294535 
L 188.910392 271.65676 
L 194.068731 269.018985 
L 199.227069 266.38121 
L 204.385408 263.743435 
L 209.543746 261.10566 
L 214.702085 258.467885 
L 219.860423 255.830111 
L 225.018762 253.192336 
L 230.1771 250.554561 
L 235.335439 247.916786 
L 240.493777 245.279011 
L 245.652116 242.641236 
L 250.810454 240.003462 
L 255.968793 237.365687 
L 261.127131 234.727912 
L 266.28547 232.090137 
L 271.443808 229.452362 
L 276.602147 226.814587 
L 281.760485 224.176812 
L 286.918824 221.539038 
L 292.077162 218.901263 
L 297.235501 216.263488 
L 302.393839 213.625713 
L 307.552178 210.987938 
L 312.710516 208.350163 
L 317.868855 205.712388 
L 323.027193 203.074614 
L 328.185532 200.436839 
L 333.34387 197.799064 
L 338.502209 195.161289 
L 343.660547 192.523514 
L 348.818886 189.885739 
L 353.977224 187.247965 
L 359.135563 184.61019 
L 364.293901 181.972415 
L 369.45224 179.33464 
L 374.610578 176.696865 
L 379.768917 174.05909 
L 384.927255 171.421315 
L 390.085594 168.783541 
L 395.243932 166.145766 
L 400.402271 163.507991 
L 405.560609 160.870216 
L 410.718948 158.232441 
L 415.877286 155.594666 
L 421.035625 152.956891 
L 426.193963 150.319117 
L 431.352301 147.681342 
L 436.51064 145.043567 
L 441.668978 142.405792 
L 446.827317 139.768017 
L 451.985655 137.130242 
L 457.143994 134.492467 
L 462.302332 131.854693 
L 467.460671 129.216918 
L 472.619009 126.579143 
L 477.777348 123.941368 
L 482.935686 121.303593 
L 488.094025 118.665818 
L 493.252363 116.028044 
L 498.410702 113.390269 
L 503.56904 110.752494 
L 508.727379 108.114719 
L 513.885717 105.476944 
L 519.044056 102.839169 
L 524.202394 100.201394 
L 529.360733 97.56362 
L 534.519071 94.925845 
L 539.67741 92.28807 
L 544.835748 89.650295 
L 549.994087 87.01252 
L 555.152425 84.374745 
L 560.310764 81.73697 
L 565.469102 79.099196 
L 570.627441 76.461421 
L 575.785779 73.823646 
L 580.944118 71.185871 
L 586.102456 68.548096 
L 591.260795 65.910321 
L 596.419133 63.272547 
L 601.577472 60.634772 
L 606.73581 57.996997 
L 611.894149 55.359222 
L 617.052487 52.721447 
L 622.210826 50.083672 
L 627.369164 47.445897 
L 632.527503 44.808123 
L 637.685841 42.170348 
L 642.84418 39.532573 
L 648.002518 36.894798 
" clip-path="url(#p7d54c830ca)" style="fill: none; stroke: #2ca02c; stroke-width: 2; stroke-linecap: round"/>
   </g>
   <g id="line2d_16">
    <path d="M 146.333275 298.034508 
L 151.764531 295.396733 
L 157.195787 292.758959 
L 162.627043 290.121184 
L 168.058298 287.483409 
L 173.489554 284.845634 
L 178.92081 282.207859 
L 184.352065 279.570084 
L 189.783321 276.932309 
L 195.214577 274.294535 
L 200.645832 271.65676 
L 206.077088 269.018985 
L 211.508344 266.38121 
L 216.9396 263.743435 
L 222.370855 261.10566 
L 227.802111 258.467885 
L 233.233367 255.830111 
L 238.664622 253.192336 
L 244.095878 250.554561 
L 249.527134 247.916786 
L 254.958389 245.279011 
L 260.389645 242.641236 
L 265.820901 240.003462 
L 271.252157 237.365687 
L 276.683412 234.727912 
L 282.114668 232.090137 
L 287.545924 229.452362 
L 292.977179 226.814587 
L 298.408435 224.176812 
L 303.839691 221.539038 
L 309.270946 218.901263 
L 314.702202 216.263488 
L 320.133458 213.625713 
L 325.564714 210.987938 
L 330.995969 208.350163 
L 336.427225 205.712388 
L 341.858481 203.074614 
L 347.289736 200.436839 
L 352.720992 197.799064 
L 358.152248 195.161289 
L 363.583503 192.523514 
L 369.014759 189.885739 
L 374.446015 187.247965 
L 379.877271 184.61019 
L 385.308526 181.972415 
L 390.739782 179.33464 
L 396.171038 176.696865 
L 401.602293 174.05909 
L 407.033549 171.421315 
L 412.464805 168.783541 
L 417.89606 166.145766 
L 423.327316 163.507991 
L 428.758572 160.870216 
L 434.189828 158.232441 
L 439.621083 155.594666 
L 445.052339 152.956891 
L 450.483595 150.319117 
L 455.91485 147.681342 
L 461.346106 145.043567 
L 466.777362 142.405792 
L 472.208617 139.768017 
L 477.639873 137.130242 
L 483.071129 134.492467 
L 488.502385 131.854693 
L 493.93364 129.216918 
L 499.364896 126.579143 
L 504.796152 123.941368 
L 510.227407 121.303593 
L 515.658663 118.665818 
L 521.089919 116.028044 
L 526.521174 113.390269 
L 531.95243 110.752494 
L 537.383686 108.114719 
L 542.814942 105.476944 
L 548.246197 102.839169 
L 553.677453 100.201394 
L 559.108709 97.56362 
L 564.539964 94.925845 
L 569.97122 92.28807 
L 575.402476 89.650295 
L 580.833731 87.01252 
L 586.264987 84.374745 
L 591.696243 81.73697 
L 597.127499 79.099196 
L 602.558754 76.461421 
L 607.99001 73.823646 
L 613.421266 71.185871 
L 618.852521 68.548096 
L 624.283777 65.910321 
L 629.715033 63.272547 
L 635.146288 60.634772 
L 640.577544 57.996997 
L 646.0088 55.359222 
L 651.440056 52.721447 
L 656.871311 50.083672 
L 662.302567 47.445897 
L 667.733823 44.808123 
L 673.165078 42.170348 
L 678.596334 39.532573 
L 684.02759 36.894798 
" clip-path="url(#p7d54c830ca)" style="fill: none; stroke: #d62728; stroke-width: 2; stroke-linecap: round"/>
   </g>
   <g id="line2d_17">
    <path d="M 155.61268 298.034508 
L 161.325129 295.396733 
L 167.037579 292.758959 
L 172.750029 290.121184 
L 178.462479 287.483409 
L 184.174928 284.845634 
L 189.887378 282.207859 
L 195.599828 279.570084 
L 201.312278 276.932309 
L 207.024727 274.294535 
L 212.737177 271.65676 
L 218.449627 269.018985 
L 224.162077 266.38121 
L 229.874527 263.743435 
L 235.586976 261.10566 
L 241.299426 258.467885 
L 247.011876 255.830111 
L 252.724326 253.192336 
L 258.436775 250.554561 
L 264.149225 247.916786 
L 269.861675 245.279011 
L 275.574125 242.641236 
L 281.286574 240.003462 
L 286.999024 237.365687 
L 292.711474 234.727912 
L 298.423924 232.090137 
L 304.136373 229.452362 
L 309.848823 226.814587 
L 315.561273 224.176812 
L 321.273723 221.539038 
L 326.986173 218.901263 
L 332.698622 216.263488 
L 338.411072 213.625713 
L 344.123522 210.987938 
L 349.835972 208.350163 
L 355.548421 205.712388 
L 361.260871 203.074614 
L 366.973321 200.436839 
L 372.685771 197.799064 
L 378.39822 195.161289 
L 384.11067 192.523514 
L 389.82312 189.885739 
L 395.53557 187.247965 
L 401.248019 184.61019 
L 406.960469 181.972415 
L 412.672919 179.33464 
L 418.385369 176.696865 
L 424.097819 174.05909 
L 429.810268 171.421315 
L 435.522718 168.783541 
L 441.235168 166.145766 
L 446.947618 163.507991 
L 452.660067 160.870216 
L 458.372517 158.232441 
L 464.084967 155.594666 
L 469.797417 152.956891 
L 475.509866 150.319117 
L 481.222316 147.681342 
L 486.934766 145.043567 
L 492.647216 142.405792 
L 498.359665 139.768017 
L 504.072115 137.130242 
L 509.784565 134.492467 
L 515.497015 131.854693 
L 521.209464 129.216918 
L 526.921914 126.579143 
L 532.634364 123.941368 
L 538.346814 121.303593 
L 544.059264 118.665818 
L 549.771713 116.028044 
L 555.484163 113.390269 
L 561.196613 110.752494 
L 566.909063 108.114719 
L 572.621512 105.476944 
L 578.333962 102.839169 
L 584.046412 100.201394 
L 589.758862 97.56362 
L 595.471311 94.925845 
L 601.183761 92.28807 
L 606.896211 89.650295 
L 612.608661 87.01252 
L 618.32111 84.374745 
L 624.03356 81.73697 
L 629.74601 79.099196 
L 635.45846 76.461421 
L 641.17091 73.823646 
L 646.883359 71.185871 
L 652.595809 68.548096 
L 658.308259 65.910321 
L 664.020709 63.272547 
L 669.733158 60.634772 
L 675.445608 57.996997 
L 681.158058 55.359222 
L 686.870508 52.721447 
L 692.582957 50.083672 
L 698.295407 47.445897 
L 704.007857 44.808123 
L 709.720307 42.170348 
L 715.432756 39.532573 
L 721.145206 36.894798 
" clip-path="url(#p7d54c830ca)" style="fill: none; stroke: #9467bd; stroke-width: 2; stroke-linecap: round"/>
   </g>
   <g id="patch_3">
    <path d="M 90.106406 311.091494 
L 90.106406 23.837812 
" style="fill: none; stroke: #ffffff; stroke-linejoin: miter; stroke-linecap: square"/>
   </g>
   <g id="patch_4">
    <path d="M 751.194673 311.091494 
L 751.194673 23.837812 
" style="fill: none; stroke: #ffffff; stroke-linejoin: miter; stroke-linecap: square"/>
   </g>
   <g id="patch_5">
    <path d="M 90.106406 311.091494 
L 751.194673 311.091494 
" style="fill: none; stroke: #ffffff; stroke-linejoin: miter; stroke-linecap: square"/>
   </g>
   <g id="patch_6">
    <path d="M 90.106406 23.837812 
L 751.194673 23.837812 
" style="fill: none; stroke: #ffffff; stroke-linejoin: miter; stroke-linecap: square"/>
   </g>
   <g id="text_15">
    <!-- Salaire minimal en fonction du capital et du taux d'interet -->
    <g style="fill: #262626" transform="translate(190.902883 17.837812) scale(0.14 -0.14)">
     <defs>
      <path id="DejaVuSans-Bold-36" d="M 3834 4519 
L 3834 3531 
Q 3450 3703 3084 3790 
Q 2719 3878 2394 3878 
Q 1963 3878 1756 3759 
Q 1550 3641 1550 3391 
Q 1550 3203 1689 3098 
Q 1828 2994 2194 2919 
L 2706 2816 
Q 3484 2659 3812 2340 
Q 4141 2022 4141 1434 
Q 4141 663 3683 286 
Q 3225 -91 2284 -91 
Q 1841 -91 1394 -6 
Q 947 78 500 244 
L 500 1259 
Q 947 1022 1364 901 
Q 1781 781 2169 781 
Q 2563 781 2772 912 
Q 2981 1044 2981 1288 
Q 2981 1506 2839 1625 
Q 2697 1744 2272 1838 
L 1806 1941 
Q 1106 2091 782 2419 
Q 459 2747 459 3303 
Q 459 4000 909 4375 
Q 1359 4750 2203 4750 
Q 2588 4750 2994 4692 
Q 3400 4634 3834 4519 
z
" transform="scale(0.015625)"/>
      <path id="DejaVuSans-Bold-44" d="M 2106 1575 
Q 1756 1575 1579 1456 
Q 1403 1338 1403 1106 
Q 1403 894 1545 773 
Q 1688 653 1941 653 
Q 2256 653 2472 879 
Q 2688 1106 2688 1447 
L 2688 1575 
L 2106 1575 
z
M 3816 1997 
L 3816 0 
L 2688 0 
L 2688 519 
Q 2463 200 2181 54 
Q 1900 -91 1497 -91 
Q 953 -91 614 226 
Q 275 544 275 1050 
Q 275 1666 698 1953 
Q 1122 2241 2028 2241 
L 2688 2241 
L 2688 2328 
Q 2688 2594 2478 2717 
Q 2269 2841 1825 2841 
Q 1466 2841 1156 2769 
Q 847 2697 581 2553 
L 581 3406 
Q 941 3494 1303 3539 
Q 1666 3584 2028 3584 
Q 2975 3584 3395 3211 
Q 3816 2838 3816 1997 
z
" transform="scale(0.015625)"/>
      <path id="DejaVuSans-Bold-4f" d="M 538 4863 
L 1656 4863 
L 1656 0 
L 538 0 
L 538 4863 
z
" transform="scale(0.015625)"/>
      <path id="DejaVuSans-Bold-4c" d="M 538 3500 
L 1656 3500 
L 1656 0 
L 538 0 
L 538 3500 
z
M 538 4863 
L 1656 4863 
L 1656 3950 
L 538 3950 
L 538 4863 
z
" transform="scale(0.015625)"/>
      <path id="DejaVuSans-Bold-55" d="M 3138 2547 
Q 2991 2616 2845 2648 
Q 2700 2681 2553 2681 
Q 2122 2681 1889 2404 
Q 1656 2128 1656 1613 
L 1656 0 
L 538 0 
L 538 3500 
L 1656 3500 
L 1656 2925 
Q 1872 3269 2151 3426 
Q 2431 3584 2822 3584 
Q 2878 3584 2943 3579 
Q 3009 3575 3134 3559 
L 3138 2547 
z
" transform="scale(0.015625)"/>
      <path id="DejaVuSans-Bold-48" d="M 4031 1759 
L 4031 1441 
L 1416 1441 
Q 1456 1047 1700 850 
Q 1944 653 2381 653 
Q 2734 653 3104 758 
Q 3475 863 3866 1075 
L 3866 213 
Q 3469 63 3072 -14 
Q 2675 -91 2278 -91 
Q 1328 -91 801 392 
Q 275 875 275 1747 
Q 275 2603 792 3093 
Q 1309 3584 2216 3584 
Q 3041 3584 3536 3087 
Q 4031 2591 4031 1759 
z
M 2881 2131 
Q 2881 2450 2695 2645 
Q 2509 2841 2209 2841 
Q 1884 2841 1681 2658 
Q 1478 2475 1428 2131 
L 2881 2131 
z
" transform="scale(0.015625)"/>
      <path id="DejaVuSans-Bold-3" transform="scale(0.015625)"/>
      <path id="DejaVuSans-Bold-50" d="M 3781 2919 
Q 3994 3244 4286 3414 
Q 4578 3584 4928 3584 
Q 5531 3584 5847 3212 
Q 6163 2841 6163 2131 
L 6163 0 
L 5038 0 
L 5038 1825 
Q 5041 1866 5042 1909 
Q 5044 1953 5044 2034 
Q 5044 2406 4934 2573 
Q 4825 2741 4581 2741 
Q 4263 2741 4089 2478 
Q 3916 2216 3909 1719 
L 3909 0 
L 2784 0 
L 2784 1825 
Q 2784 2406 2684 2573 
Q 2584 2741 2328 2741 
Q 2006 2741 1831 2477 
Q 1656 2213 1656 1722 
L 1656 0 
L 531 0 
L 531 3500 
L 1656 3500 
L 1656 2988 
Q 1863 3284 2130 3434 
Q 2397 3584 2719 3584 
Q 3081 3584 3359 3409 
Q 3638 3234 3781 2919 
z
" transform="scale(0.015625)"/>
      <path id="DejaVuSans-Bold-51" d="M 4056 2131 
L 4056 0 
L 2931 0 
L 2931 347 
L 2931 1631 
Q 2931 2084 2911 2256 
Q 2891 2428 2841 2509 
Q 2775 2619 2662 2680 
Q 2550 2741 2406 2741 
Q 2056 2741 1856 2470 
Q 1656 2200 1656 1722 
L 1656 0 
L 538 0 
L 538 3500 
L 1656 3500 
L 1656 2988 
Q 1909 3294 2193 3439 
Q 2478 3584 2822 3584 
Q 3428 3584 3742 3212 
Q 4056 2841 4056 2131 
z
" transform="scale(0.015625)"/>
      <path id="DejaVuSans-Bold-49" d="M 2841 4863 
L 2841 4128 
L 2222 4128 
Q 1984 4128 1890 4042 
Q 1797 3956 1797 3744 
L 1797 3500 
L 2753 3500 
L 2753 2700 
L 1797 2700 
L 1797 0 
L 678 0 
L 678 2700 
L 122 2700 
L 122 3500 
L 678 3500 
L 678 3744 
Q 678 4316 997 4589 
Q 1316 4863 1984 4863 
L 2841 4863 
z
" transform="scale(0.015625)"/>
      <path id="DejaVuSans-Bold-52" d="M 2203 2784 
Q 1831 2784 1636 2517 
Q 1441 2250 1441 1747 
Q 1441 1244 1636 976 
Q 1831 709 2203 709 
Q 2569 709 2762 976 
Q 2956 1244 2956 1747 
Q 2956 2250 2762 2517 
Q 2569 2784 2203 2784 
z
M 2203 3584 
Q 3106 3584 3614 3096 
Q 4122 2609 4122 1747 
Q 4122 884 3614 396 
Q 3106 -91 2203 -91 
Q 1297 -91 786 396 
Q 275 884 275 1747 
Q 275 2609 786 3096 
Q 1297 3584 2203 3584 
z
" transform="scale(0.015625)"/>
      <path id="DejaVuSans-Bold-46" d="M 3366 3391 
L 3366 2478 
Q 3138 2634 2908 2709 
Q 2678 2784 2431 2784 
Q 1963 2784 1702 2511 
Q 1441 2238 1441 1747 
Q 1441 1256 1702 982 
Q 1963 709 2431 709 
Q 2694 709 2930 787 
Q 3166 866 3366 1019 
L 3366 103 
Q 3103 6 2833 -42 
Q 2563 -91 2291 -91 
Q 1344 -91 809 395 
Q 275 881 275 1747 
Q 275 2613 809 3098 
Q 1344 3584 2291 3584 
Q 2566 3584 2833 3536 
Q 3100 3488 3366 3391 
z
" transform="scale(0.015625)"/>
      <path id="DejaVuSans-Bold-57" d="M 1759 4494 
L 1759 3500 
L 2913 3500 
L 2913 2700 
L 1759 2700 
L 1759 1216 
Q 1759 972 1856 886 
Q 1953 800 2241 800 
L 2816 800 
L 2816 0 
L 1856 0 
Q 1194 0 917 276 
Q 641 553 641 1216 
L 641 2700 
L 84 2700 
L 84 3500 
L 641 3500 
L 641 4494 
L 1759 4494 
z
" transform="scale(0.015625)"/>
      <path id="DejaVuSans-Bold-47" d="M 2919 2988 
L 2919 4863 
L 4044 4863 
L 4044 0 
L 2919 0 
L 2919 506 
Q 2688 197 2409 53 
Q 2131 -91 1766 -91 
Q 1119 -91 703 423 
Q 288 938 288 1747 
Q 288 2556 703 3070 
Q 1119 3584 1766 3584 
Q 2128 3584 2408 3439 
Q 2688 3294 2919 2988 
z
M 2181 722 
Q 2541 722 2730 984 
Q 2919 1247 2919 1747 
Q 2919 2247 2730 2509 
Q 2541 2772 2181 2772 
Q 1825 2772 1636 2509 
Q 1447 2247 1447 1747 
Q 1447 1247 1636 984 
Q 1825 722 2181 722 
z
" transform="scale(0.015625)"/>
      <path id="DejaVuSans-Bold-58" d="M 500 1363 
L 500 3500 
L 1625 3500 
L 1625 3150 
Q 1625 2866 1622 2436 
Q 1619 2006 1619 1863 
Q 1619 1441 1641 1255 
Q 1663 1069 1716 984 
Q 1784 875 1895 815 
Q 2006 756 2150 756 
Q 2500 756 2700 1025 
Q 2900 1294 2900 1772 
L 2900 3500 
L 4019 3500 
L 4019 0 
L 2900 0 
L 2900 506 
Q 2647 200 2364 54 
Q 2081 -91 1741 -91 
Q 1134 -91 817 281 
Q 500 653 500 1363 
z
" transform="scale(0.015625)"/>
      <path id="DejaVuSans-Bold-53" d="M 1656 506 
L 1656 -1331 
L 538 -1331 
L 538 3500 
L 1656 3500 
L 1656 2988 
Q 1888 3294 2169 3439 
Q 2450 3584 2816 3584 
Q 3463 3584 3878 3070 
Q 4294 2556 4294 1747 
Q 4294 938 3878 423 
Q 3463 -91 2816 -91 
Q 2450 -91 2169 54 
Q 1888 200 1656 506 
z
M 2400 2772 
Q 2041 2772 1848 2508 
Q 1656 2244 1656 1747 
Q 1656 1250 1848 986 
Q 2041 722 2400 722 
Q 2759 722 2948 984 
Q 3138 1247 3138 1747 
Q 3138 2247 2948 2509 
Q 2759 2772 2400 2772 
z
" transform="scale(0.015625)"/>
      <path id="DejaVuSans-Bold-5b" d="M 1422 1791 
L 159 3500 
L 1344 3500 
L 2059 2463 
L 2784 3500 
L 3969 3500 
L 2706 1797 
L 4031 0 
L 2847 0 
L 2059 1106 
L 1281 0 
L 97 0 
L 1422 1791 
z
" transform="scale(0.015625)"/>
      <path id="DejaVuSans-Bold-a" d="M 1350 4666 
L 1350 2931 
L 609 2931 
L 609 4666 
L 1350 4666 
z
" transform="scale(0.015625)"/>
     </defs>
     <use xlink:href="#DejaVuSans-Bold-36"/>
     <use xlink:href="#DejaVuSans-Bold-44" transform="translate(72.015625 0)"/>
     <use xlink:href="#DejaVuSans-Bold-4f" transform="translate(139.5 0)"/>
     <use xlink:href="#DejaVuSans-Bold-44" transform="translate(173.78125 0)"/>
     <use xlink:href="#DejaVuSans-Bold-4c" transform="translate(241.265625 0)"/>
     <use xlink:href="#DejaVuSans-Bold-55" transform="translate(275.546875 0)"/>
     <use xlink:href="#DejaVuSans-Bold-48" transform="translate(324.859375 0)"/>
     <use xlink:href="#DejaVuSans-Bold-3" transform="translate(392.6875 0)"/>
     <use xlink:href="#DejaVuSans-Bold-50" transform="translate(427.5 0)"/>
     <use xlink:href="#DejaVuSans-Bold-4c" transform="translate(531.703125 0)"/>
     <use xlink:href="#DejaVuSans-Bold-51" transform="translate(565.984375 0)"/>
     <use xlink:href="#DejaVuSans-Bold-4c" transform="translate(637.171875 0)"/>
     <use xlink:href="#DejaVuSans-Bold-50" transform="translate(671.453125 0)"/>
     <use xlink:href="#DejaVuSans-Bold-44" transform="translate(775.65625 0)"/>
     <use xlink:href="#DejaVuSans-Bold-4f" transform="translate(843.140625 0)"/>
     <use xlink:href="#DejaVuSans-Bold-3" transform="translate(877.421875 0)"/>
     <use xlink:href="#DejaVuSans-Bold-48" transform="translate(912.234375 0)"/>
     <use xlink:href="#DejaVuSans-Bold-51" transform="translate(980.0625 0)"/>
     <use xlink:href="#DejaVuSans-Bold-3" transform="translate(1051.25 0)"/>
     <use xlink:href="#DejaVuSans-Bold-49" transform="translate(1086.0625 0)"/>
     <use xlink:href="#DejaVuSans-Bold-52" transform="translate(1129.5625 0)"/>
     <use xlink:href="#DejaVuSans-Bold-51" transform="translate(1198.265625 0)"/>
     <use xlink:href="#DejaVuSans-Bold-46" transform="translate(1269.453125 0)"/>
     <use xlink:href="#DejaVuSans-Bold-57" transform="translate(1328.734375 0)"/>
     <use xlink:href="#DejaVuSans-Bold-4c" transform="translate(1376.53125 0)"/>
     <use xlink:href="#DejaVuSans-Bold-52" transform="translate(1410.8125 0)"/>
     <use xlink:href="#DejaVuSans-Bold-51" transform="translate(1479.515625 0)"/>
     <use xlink:href="#DejaVuSans-Bold-3" transform="translate(1550.703125 0)"/>
     <use xlink:href="#DejaVuSans-Bold-47" transform="translate(1585.515625 0)"/>
     <use xlink:href="#DejaVuSans-Bold-58" transform="translate(1657.09375 0)"/>
     <use xlink:href="#DejaVuSans-Bold-3" transform="translate(1728.28125 0)"/>
     <use xlink:href="#DejaVuSans-Bold-46" transform="translate(1763.09375 0)"/>
     <use xlink:href="#DejaVuSans-Bold-44" transform="translate(1822.375 0)"/>
     <use xlink:href="#DejaVuSans-Bold-53" transform="translate(1889.859375 0)"/>
     <use xlink:href="#DejaVuSans-Bold-4c" transform="translate(1961.4375 0)"/>
     <use xlink:href="#DejaVuSans-Bold-57" transform="translate(1995.71875 0)"/>
     <use xlink:href="#DejaVuSans-Bold-44" transform="translate(2043.515625 0)"/>
     <use xlink:href="#DejaVuSans-Bold-4f" transform="translate(2111 0)"/>
     <use xlink:href="#DejaVuSans-Bold-3" transform="translate(2145.28125 0)"/>
     <use xlink:href="#DejaVuSans-Bold-48" transform="translate(2180.09375 0)"/>
     <use xlink:href="#DejaVuSans-Bold-57" transform="translate(2247.921875 0)"/>
     <use xlink:href="#DejaVuSans-Bold-3" transform="translate(2295.71875 0)"/>
     <use xlink:href="#DejaVuSans-Bold-47" transform="translate(2330.53125 0)"/>
     <use xlink:href="#DejaVuSans-Bold-58" transform="translate(2402.109375 0)"/>
     <use xlink:href="#DejaVuSans-Bold-3" transform="translate(2473.296875 0)"/>
     <use xlink:href="#DejaVuSans-Bold-57" transform="translate(2508.109375 0)"/>
     <use xlink:href="#DejaVuSans-Bold-44" transform="translate(2555.90625 0)"/>
     <use xlink:href="#DejaVuSans-Bold-58" transform="translate(2623.390625 0)"/>
     <use xlink:href="#DejaVuSans-Bold-5b" transform="translate(2694.578125 0)"/>
     <use xlink:href="#DejaVuSans-Bold-3" transform="translate(2759.078125 0)"/>
     <use xlink:href="#DejaVuSans-Bold-47" transform="translate(2793.890625 0)"/>
     <use xlink:href="#DejaVuSans-Bold-a" transform="translate(2865.46875 0)"/>
     <use xlink:href="#DejaVuSans-Bold-4c" transform="translate(2896.078125 0)"/>
     <use xlink:href="#DejaVuSans-Bold-51" transform="translate(2930.359375 0)"/>
     <use xlink:href="#DejaVuSans-Bold-57" transform="translate(3001.546875 0)"/>
     <use xlink:href="#DejaVuSans-Bold-48" transform="translate(3049.34375 0)"/>
     <use xlink:href="#DejaVuSans-Bold-55" transform="translate(3117.171875 0)"/>
     <use xlink:href="#DejaVuSans-Bold-48" transform="translate(3166.484375 0)"/>
     <use xlink:href="#DejaVuSans-Bold-57" transform="translate(3234.3125 0)"/>
    </g>
   </g>
   <g id="legend_1">
    <g id="patch_7">
     <path d="M 96.406406 113.602153 
L 174.345 113.602153 
Q 176.145 113.602153 176.145 111.802153 
L 176.145 30.137812 
Q 176.145 28.337812 174.345 28.337812 
L 96.406406 28.337812 
Q 94.606406 28.337812 94.606406 30.137812 
L 94.606406 111.802153 
Q 94.606406 113.602153 96.406406 113.602153 
z
" style="fill: #f5f5f5; opacity: 0.85; stroke: #cccccc; stroke-width: 0.8; stroke-linejoin: miter"/>
    </g>
    <g id="text_16">
     <!-- Taux d'interet -->
     <g style="fill: #262626" transform="translate(99.331453 39.961762) scale(0.1056 -0.1056)">
      <defs>
       <path id="DejaVuSans-37" d="M -19 4666 
L 3928 4666 
L 3928 4134 
L 2272 4134 
L 2272 0 
L 1638 0 
L 1638 4134 
L -19 4134 
L -19 4666 
z
" transform="scale(0.015625)"/>
       <path id="DejaVuSans-5b" d="M 3513 3500 
L 2247 1797 
L 3578 0 
L 2900 0 
L 1881 1375 
L 863 0 
L 184 0 
L 1544 1831 
L 300 3500 
L 978 3500 
L 1906 2253 
L 2834 3500 
L 3513 3500 
z
" transform="scale(0.015625)"/>
       <path id="DejaVuSans-47" d="M 2906 2969 
L 2906 4863 
L 3481 4863 
L 3481 0 
L 2906 0 
L 2906 525 
Q 2725 213 2448 61 
Q 2172 -91 1784 -91 
Q 1150 -91 751 415 
Q 353 922 353 1747 
Q 353 2572 751 3078 
Q 1150 3584 1784 3584 
Q 2172 3584 2448 3432 
Q 2725 3281 2906 2969 
z
M 947 1747 
Q 947 1113 1208 752 
Q 1469 391 1925 391 
Q 2381 391 2643 752 
Q 2906 1113 2906 1747 
Q 2906 2381 2643 2742 
Q 2381 3103 1925 3103 
Q 1469 3103 1208 2742 
Q 947 2381 947 1747 
z
" transform="scale(0.015625)"/>
       <path id="DejaVuSans-a" d="M 1147 4666 
L 1147 2931 
L 616 2931 
L 616 4666 
L 1147 4666 
z
" transform="scale(0.015625)"/>
      </defs>
      <use xlink:href="#DejaVuSans-37"/>
      <use xlink:href="#DejaVuSans-44" transform="translate(44.53125 0)"/>
      <use xlink:href="#DejaVuSans-58" transform="translate(105.8125 0)"/>
      <use xlink:href="#DejaVuSans-5b" transform="translate(169.1875 0)"/>
      <use xlink:href="#DejaVuSans-3" transform="translate(228.375 0)"/>
      <use xlink:href="#DejaVuSans-47" transform="translate(260.15625 0)"/>
      <use xlink:href="#DejaVuSans-a" transform="translate(323.640625 0)"/>
      <use xlink:href="#DejaVuSans-4c" transform="translate(351.125 0)"/>
      <use xlink:href="#DejaVuSans-51" transform="translate(378.90625 0)"/>
      <use xlink:href="#DejaVuSans-57" transform="translate(442.28125 0)"/>
      <use xlink:href="#DejaVuSans-48" transform="translate(481.484375 0)"/>
      <use xlink:href="#DejaVuSans-55" transform="translate(543.015625 0)"/>
      <use xlink:href="#DejaVuSans-48" transform="translate(581.921875 0)"/>
      <use xlink:href="#DejaVuSans-57" transform="translate(643.453125 0)"/>
     </g>
    </g>
    <g id="line2d_18">
     <path d="M 98.206406 50.687231 
L 107.206406 50.687231 
L 116.206406 50.687231 
" style="fill: none; stroke: #1f77b4; stroke-width: 2; stroke-linecap: round"/>
    </g>
    <g id="text_17">
     <!-- Taux 2.0 % -->
     <g style="fill: #262626" transform="translate(123.406406 53.837231) scale(0.09 -0.09)">
      <defs>
       <path id="DejaVuSans-11" d="M 684 794 
L 1344 794 
L 1344 0 
L 684 0 
L 684 794 
z
" transform="scale(0.015625)"/>
       <path id="DejaVuSans-8" d="M 4653 2053 
Q 4381 2053 4226 1822 
Q 4072 1591 4072 1178 
Q 4072 772 4226 539 
Q 4381 306 4653 306 
Q 4919 306 5073 539 
Q 5228 772 5228 1178 
Q 5228 1588 5073 1820 
Q 4919 2053 4653 2053 
z
M 4653 2450 
Q 5147 2450 5437 2106 
Q 5728 1763 5728 1178 
Q 5728 594 5436 251 
Q 5144 -91 4653 -91 
Q 4153 -91 3862 251 
Q 3572 594 3572 1178 
Q 3572 1766 3864 2108 
Q 4156 2450 4653 2450 
z
M 1428 4353 
Q 1159 4353 1004 4120 
Q 850 3888 850 3481 
Q 850 3069 1003 2837 
Q 1156 2606 1428 2606 
Q 1700 2606 1854 2837 
Q 2009 3069 2009 3481 
Q 2009 3884 1853 4118 
Q 1697 4353 1428 4353 
z
M 4250 4750 
L 4750 4750 
L 1831 -91 
L 1331 -91 
L 4250 4750 
z
M 1428 4750 
Q 1922 4750 2215 4408 
Q 2509 4066 2509 3481 
Q 2509 2891 2217 2550 
Q 1925 2209 1428 2209 
Q 931 2209 642 2551 
Q 353 2894 353 3481 
Q 353 4063 643 4406 
Q 934 4750 1428 4750 
z
" transform="scale(0.015625)"/>
      </defs>
      <use xlink:href="#DejaVuSans-37"/>
      <use xlink:href="#DejaVuSans-44" transform="translate(44.53125 0)"/>
      <use xlink:href="#DejaVuSans-58" transform="translate(105.8125 0)"/>
      <use xlink:href="#DejaVuSans-5b" transform="translate(169.1875 0)"/>
      <use xlink:href="#DejaVuSans-3" transform="translate(228.375 0)"/>
      <use xlink:href="#DejaVuSans-15" transform="translate(260.15625 0)"/>
      <use xlink:href="#DejaVuSans-11" transform="translate(323.78125 0)"/>
      <use xlink:href="#DejaVuSans-13" transform="translate(355.5625 0)"/>
      <use xlink:href="#DejaVuSans-3" transform="translate(419.1875 0)"/>
      <use xlink:href="#DejaVuSans-8" transform="translate(450.96875 0)"/>
     </g>
    </g>
    <g id="line2d_19">
     <path d="M 98.206406 64.187934 
L 107.206406 64.187934 
L 116.206406 64.187934 
" style="fill: none; stroke: #ff7f0e; stroke-width: 2; stroke-linecap: round"/>
    </g>
    <g id="text_18">
     <!-- Taux 2.5 % -->
     <g style="fill: #262626" transform="translate(123.406406 67.337934) scale(0.09 -0.09)">
      <use xlink:href="#DejaVuSans-37"/>
      <use xlink:href="#DejaVuSans-44" transform="translate(44.53125 0)"/>
      <use xlink:href="#DejaVuSans-58" transform="translate(105.8125 0)"/>
      <use xlink:href="#DejaVuSans-5b" transform="translate(169.1875 0)"/>
      <use xlink:href="#DejaVuSans-3" transform="translate(228.375 0)"/>
      <use xlink:href="#DejaVuSans-15" transform="translate(260.15625 0)"/>
      <use xlink:href="#DejaVuSans-11" transform="translate(323.78125 0)"/>
      <use xlink:href="#DejaVuSans-18" transform="translate(355.5625 0)"/>
      <use xlink:href="#DejaVuSans-3" transform="translate(419.1875 0)"/>
      <use xlink:href="#DejaVuSans-8" transform="translate(450.96875 0)"/>
     </g>
    </g>
    <g id="line2d_20">
     <path d="M 98.206406 77.688637 
L 107.206406 77.688637 
L 116.206406 77.688637 
" style="fill: none; stroke: #2ca02c; stroke-width: 2; stroke-linecap: round"/>
    </g>
    <g id="text_19">
     <!-- Taux 3.0 % -->
     <g style="fill: #262626" transform="translate(123.406406 80.838637) scale(0.09 -0.09)">
      <use xlink:href="#DejaVuSans-37"/>
      <use xlink:href="#DejaVuSans-44" transform="translate(44.53125 0)"/>
      <use xlink:href="#DejaVuSans-58" transform="translate(105.8125 0)"/>
      <use xlink:href="#DejaVuSans-5b" transform="translate(169.1875 0)"/>
      <use xlink:href="#DejaVuSans-3" transform="translate(228.375 0)"/>
      <use xlink:href="#DejaVuSans-16" transform="translate(260.15625 0)"/>
      <use xlink:href="#DejaVuSans-11" transform="translate(323.78125 0)"/>
      <use xlink:href="#DejaVuSans-13" transform="translate(355.5625 0)"/>
      <use xlink:href="#DejaVuSans-3" transform="translate(419.1875 0)"/>
      <use xlink:href="#DejaVuSans-8" transform="translate(450.96875 0)"/>
     </g>
    </g>
    <g id="line2d_21">
     <path d="M 98.206406 91.189341 
L 107.206406 91.189341 
L 116.206406 91.189341 
" style="fill: none; stroke: #d62728; stroke-width: 2; stroke-linecap: round"/>
    </g>
    <g id="text_20">
     <!-- Taux 3.5 % -->
     <g style="fill: #262626" transform="translate(123.406406 94.339341) scale(0.09 -0.09)">
      <use xlink:href="#DejaVuSans-37"/>
      <use xlink:href="#DejaVuSans-44" transform="translate(44.53125 0)"/>
      <use xlink:href="#DejaVuSans-58" transform="translate(105.8125 0)"/>
      <use xlink:href="#DejaVuSans-5b" transform="translate(169.1875 0)"/>
      <use xlink:href="#DejaVuSans-3" transform="translate(228.375 0)"/>
      <use xlink:href="#DejaVuSans-16" transform="translate(260.15625 0)"/>
      <use xlink:href="#DejaVuSans-11" transform="translate(323.78125 0)"/>
      <use xlink:href="#DejaVuSans-18" transform="translate(355.5625 0)"/>
      <use xlink:href="#DejaVuSans-3" transform="translate(419.1875 0)"/>
      <use xlink:href="#DejaVuSans-8" transform="translate(450.96875 0)"/>
     </g>
    </g>
    <g id="line2d_22">
     <path d="M 98.206406 104.690044 
L 107.206406 104.690044 
L 116.206406 104.690044 
" style="fill: none; stroke: #9467bd; stroke-width: 2; stroke-linecap: round"/>
    </g>
    <g id="text_21">
     <!-- Taux 4.0 % -->
     <g style="fill: #262626" transform="translate(123.406406 107.840044) scale(0.09 -0.09)">
      <use xlink:href="#DejaVuSans-37"/>
      <use xlink:href="#DejaVuSans-44" transform="translate(44.53125 0)"/>
      <use xlink:href="#DejaVuSans-58" transform="translate(105.8125 0)"/>
      <use xlink:href="#DejaVuSans-5b" transform="translate(169.1875 0)"/>
      <use xlink:href="#DejaVuSans-3" transform="translate(228.375 0)"/>
      <use xlink:href="#DejaVuSans-17" transform="translate(260.15625 0)"/>
      <use xlink:href="#DejaVuSans-11" transform="translate(323.78125 0)"/>
      <use xlink:href="#DejaVuSans-13" transform="translate(355.5625 0)"/>
      <use xlink:href="#DejaVuSans-3" transform="translate(419.1875 0)"/>
      <use xlink:href="#DejaVuSans-8" transform="translate(450.96875 0)"/>
     </g>
    </g>
   </g>
  </g>
 </g>
 <defs>
  <clipPath id="p7d54c830ca">
   <rect x="90.106406" y="23.837812" width="661.088267" height="287.253681"/>
  </clipPath>
 </defs>
</svg>
